<svg version="1.1" id="Layer_1" xmlns="http://www.w3.org/2000/svg" xmlns:xlink="http://www.w3.org/1999/xlink" x="0px" y="0px"
	 viewBox="0 0 268.1 58.5" fill="#ffffff" preserveAspectRatio="xMidYMid meet" enable-background="new 0 0 268.1 58.5" xml:space="preserve">
<g>
	<path d="M49.6,0H7.1C3.2,0,0,3.2,0,7.1v42.4c0,3.9,3.2,7.1,7.1,7.1h42.4c3.9,0,7.1-3.2,7.1-7.1V7.1C56.7,3.2,53.5,0,49.6,0z
		 M53.5,7.1v42.4v3.9h-3.9H7.1H3.2v-3.9V7.1V3.2h3.9h42.4h3.9V7.1z"/>
	<g>
		<g>
			<path d="M43,21.3l-6.8,6.8h-0.6c-0.5-1.3-1.8-2.2-3.3-2.2h-8.3c-1.5,0-2.8,0.9-3.3,2.2h-1.2l-6.8-6.8H43 M48.1,18.7H8
				c-0.5,0-0.9,0.3-1,0.7l11.3,11.3h4.6v-1.2c0-0.6,0.5-1,1-1h8.3c0.6,0,1,0.5,1,1v1.2h4l11.6-11.6C48.7,18.9,48.4,18.7,48.1,18.7
				L48.1,18.7z"/>
		</g>
		<g>
			<path d="M46.5,29.5v14.3h-37V30l5.2,5.2c0.8,0.8,1.8,1.2,2.9,1.2h2.9c0.5,1.4,1.8,2.4,3.4,2.4h8.3c1.6,0,2.9-1,3.4-2.4h2.3
				c1.1,0,2.1-0.4,2.9-1.2L46.5,29.5 M49.1,23.2L39,33.4c-0.3,0.3-0.7,0.5-1.1,0.5h-4.7v1.3c0,0.6-0.5,1-1,1h-8.3c-0.6,0-1-0.5-1-1
				v-1.3h-5.2c-0.4,0-0.8-0.2-1.1-0.5L7,23.8v21.6c0,0.6,0.5,1,1,1h40.1c0.6,0,1-0.5,1-1V23.2L49.1,23.2z"/>
		</g>
	</g>
	<g>
		<path d="M35,10.6h-1.1h-12h-1.1c-0.6,0-1,0.5-1,1v1.1v3.3c0,0.6,0.5,1,1,1h1.1c0.6,0,1-0.5,1-1v-2.3h9.9v2.3c0,0.6,0.5,1,1,1H35
			c0.6,0,1-0.5,1-1v-3.3v-1.1C36,11.1,35.6,10.6,35,10.6L35,10.6z"/>
	</g>
	<g>
		<path d="M30.2,30.7h-4.4c-0.6,0-1,0.5-1,1v1.4c0,0.6,0.5,1,1,1h4.4c0.6,0,1-0.5,1-1v-1.4C31.3,31.2,30.8,30.7,30.2,30.7L30.2,30.7
			z"/>
	</g>
</g>
<g>
	<g>
		<path d="M78.1,6.6l-4,5.7l-1.9-5.7H71l2.4,6.7L72.6,18h1.2l0.8-4.7l4.8-6.7H78.1z M85,9.6c-0.5-0.2-1.1-0.4-2.1-0.4
			c-0.9,0-1.8,0.3-2.6,1c-0.4,0.3-0.8,0.8-1.1,1.4c-0.3,0.6-0.6,1.3-0.7,2.1c-0.3,1.7-0.2,2.9,0.2,3.5c0.4,0.6,1.3,1,2.7,1
			c0.9,0,1.8-0.3,2.6-1c0.4-0.3,0.8-0.8,1.1-1.4c0.3-0.6,0.6-1.4,0.8-2.4c0.2-1,0.2-1.9,0.1-2.5C85.8,10.3,85.5,9.8,85,9.6z
			 M84.8,12c0,0.3,0,0.5-0.1,0.8c0,0.2-0.1,0.6-0.2,1.1c-0.1,0.5-0.2,1-0.3,1.3c-0.1,0.4-0.3,0.7-0.5,1.1c-0.2,0.3-0.5,0.6-0.9,0.7
			c-0.4,0.1-0.8,0.2-1.4,0.2c-1,0-1.6-0.3-1.8-0.8c-0.2-0.5-0.2-1.4,0-2.7c0.1-0.6,0.2-1.1,0.3-1.5c0.1-0.4,0.3-0.7,0.5-1.1
			c0.2-0.3,0.5-0.6,0.9-0.7c0.4-0.1,0.8-0.2,1.2-0.2c0.4,0,0.8,0,1,0.1c0.2,0.1,0.4,0.1,0.6,0.2c0.2,0.1,0.3,0.2,0.4,0.4
			c0.1,0.2,0.1,0.3,0.2,0.5C84.8,11.5,84.9,11.7,84.8,12z M93.2,16.1c-0.1,0.2-0.4,0.4-0.9,0.6c-0.5,0.2-1,0.3-1.6,0.3
			c-0.6,0-1-0.1-1.3-0.4c-0.3-0.2-0.4-0.6-0.3-1.2l1.1-6.2h-1.1L88,15.5c-0.3,1.8,0.4,2.7,2.1,2.7c0.4,0,0.8-0.1,1.2-0.2
			c0.4-0.1,0.7-0.2,0.9-0.4c0.2-0.1,0.6-0.3,1.1-0.6l0.2,1l0,0.1h0.7l0.1-2.3l1.1-6.4h-1.1L93.2,16.1z M100.7,9.6
			c-0.5,0.3-1,0.6-1.6,1.1L99,9.5l0,0h-0.7l-0.1,2.1L97,18h1.1l1.1-6.5c0.9-0.8,1.7-1.2,2.5-1.2c0.2,0,0.4,0,0.6,0.1l0.6-1
			c-0.3-0.1-0.5-0.1-0.8-0.1C101.6,9.2,101.2,9.3,100.7,9.6z M111.5,9.1c-0.9,0-1.7,0.3-2.4,0.8c-0.7,0.5-1.1,1.2-1.2,2.1
			c-0.1,0.6-0.1,1.1-0.1,1.5c0.1,0.4,0.3,0.8,0.7,1.1c-0.5,0.6-1.1,1.1-1.7,1.7c-0.1,0.4,0,0.7,0.2,0.8c0.2,0.2,0.6,0.3,1.2,0.3
			l-2,1.7c-0.2,0.9,0,1.5,0.5,1.9c0.5,0.4,1.3,0.6,2.5,0.6c1.2,0,2.2-0.3,3.1-0.8c0.9-0.5,1.4-1.3,1.5-2.2c0.1-0.7,0.1-1.3-0.2-1.7
			c-0.2-0.4-0.7-0.7-1.2-0.7l-4.4,0l1.2-1.4c0.4,0.1,0.8,0.1,1.1,0.1c0.9,0,1.7-0.3,2.3-0.8c0.6-0.5,1-1.3,1.2-2.2
			c0.1-0.5,0-1.1-0.2-1.6l1,0l0.4-0.9l-2,0C112.6,9.2,112.1,9.1,111.5,9.1z M111.6,17.3c0.6,0,1,0.1,1.1,0.2s0.1,0.6,0,1.2
			c-0.1,0.7-0.4,1.1-0.8,1.4c-0.2,0.1-0.4,0.2-0.7,0.3c-0.3,0.1-0.5,0.1-0.7,0.1c-0.2,0-0.6,0-1.2,0c-0.6,0-1-0.1-1.4-0.2
			c-0.5-0.2-0.7-0.6-0.5-1.2l1.8-1.9H111.6z M112.8,12c-0.2,1.4-1,2-2.3,2c-1.3,0-1.8-0.7-1.5-2c0.1-0.8,0.4-1.3,0.8-1.6
			c0.4-0.3,0.9-0.5,1.5-0.5c0.6,0,1.1,0.2,1.4,0.5C112.9,10.7,112.9,11.3,112.8,12z M121.6,16.1c-0.1,0.2-0.4,0.4-0.9,0.6
			c-0.5,0.2-1,0.3-1.6,0.3c-0.6,0-1-0.1-1.3-0.4c-0.3-0.2-0.4-0.6-0.3-1.2l1.1-6.2h-1.1l-1.1,6.2c-0.3,1.8,0.4,2.7,2.1,2.7
			c0.4,0,0.8-0.1,1.2-0.2c0.4-0.1,0.7-0.2,0.9-0.4c0.2-0.1,0.6-0.3,1.1-0.6l0.2,1l0,0.1h0.7l0.1-2.3l1.1-6.4h-1.1L121.6,16.1z
			 M127.1,7.7h1.2l0.2-1.3h-1.2L127.1,7.7z M125.4,18h1.1l1.5-8.7h-1.1L125.4,18z M136.9,5.1L136,9.8c-0.9-0.4-1.5-0.6-2-0.6
			c-0.5,0-1,0.1-1.6,0.4c-0.4,0.2-0.7,0.4-1.1,0.7c-0.3,0.3-0.6,0.8-1,1.4c-0.3,0.6-0.5,1.3-0.7,2.1c-0.2,1.3-0.2,2.3,0.1,3.1
			c0.1,0.4,0.4,0.8,0.8,1c0.4,0.2,0.9,0.3,1.5,0.3c0.6,0,1.1-0.1,1.6-0.4c0.5-0.3,0.9-0.5,1.3-0.9l0.2,1l0.1,0.1h0.7l0-2.2L138,5.1
			H136.9z M134.9,16.2c-0.7,0.7-1.5,1-2.5,1s-1.5-0.2-1.6-0.7c-0.1-0.5-0.1-1.4,0.1-2.6c0.2-1.3,0.5-2.2,0.9-2.7
			c0.4-0.6,1-0.8,1.9-0.8c0.9,0,1.6,0.1,2.1,0.4L134.9,16.2z M143.5,9.2c-0.6,0-1.3,0.2-1.8,0.5c-0.4,0.2-0.8,0.4-1.1,0.7
			c-0.3,0.3-0.6,0.8-0.9,1.3c-0.3,0.6-0.5,1.3-0.6,2c-0.2,1.4-0.1,2.5,0.4,3.2c0.5,0.8,1.3,1.2,2.4,1.2c0.2,0,0.5,0,0.8-0.1
			c0.1,0,0.2,0,0.4-0.1c0.2,0,0.3-0.1,0.4-0.1c0.1,0,0.2-0.1,0.4-0.1c0.2-0.1,0.3-0.1,0.5-0.1c0.2,0,0.4-0.1,0.7-0.2l0-0.9
			c-1,0.3-1.9,0.5-2.7,0.5c-1,0-1.6-0.2-1.9-0.7c-0.3-0.5-0.4-1.4-0.2-2.7h5.5c0.2-0.5,0.3-0.9,0.3-1.3
			C146.4,10.3,145.5,9.2,143.5,9.2z M145,12.1c0,0.2-0.1,0.4-0.2,0.7h-4.4c0.2-1,0.5-1.7,1-2.1c0.5-0.4,1.1-0.6,1.8-0.6
			c0.7,0,1.2,0.1,1.5,0.4C145,10.9,145.1,11.4,145,12.1z M154.5,9.2l0.2-1.4h-0.9l-0.5,1.5l-0.9,0.3l-0.1,0.5h0.7
			c0.1,0,0.1,0,0.1,0.1l-1,5.5l0.3,2.2l0.1,0.1h0.8l-0.1-2.3l1-5.6c0,0,0.1-0.1,0.2-0.1l1.5,0l0.3-0.8h-1
			C154.8,9.3,154.6,9.3,154.5,9.2z M163.3,9.6c-0.5-0.2-1.1-0.4-2.1-0.4c-0.9,0-1.8,0.3-2.6,1c-0.4,0.3-0.8,0.8-1.1,1.4
			c-0.3,0.6-0.6,1.3-0.7,2.1c-0.3,1.7-0.2,2.9,0.2,3.5c0.4,0.6,1.3,1,2.7,1c0.9,0,1.8-0.3,2.6-1c0.4-0.3,0.8-0.8,1.1-1.4
			c0.3-0.6,0.6-1.4,0.8-2.4c0.2-1,0.2-1.9,0.1-2.5C164.1,10.3,163.8,9.8,163.3,9.6z M163.1,12c0,0.3,0,0.5-0.1,0.8
			c0,0.2-0.1,0.6-0.2,1.1c-0.1,0.5-0.2,1-0.3,1.3c-0.1,0.4-0.3,0.7-0.5,1.1c-0.2,0.3-0.5,0.6-0.9,0.7c-0.4,0.1-0.8,0.2-1.4,0.2
			c-1,0-1.6-0.3-1.8-0.8c-0.2-0.5-0.2-1.4,0-2.7c0.1-0.6,0.2-1.1,0.3-1.5c0.1-0.4,0.3-0.7,0.5-1.1c0.2-0.3,0.5-0.6,0.9-0.7
			c0.4-0.1,0.8-0.2,1.2-0.2c0.4,0,0.8,0,1,0.1c0.2,0.1,0.4,0.1,0.6,0.2c0.2,0.1,0.3,0.2,0.4,0.4c0.1,0.2,0.1,0.3,0.2,0.5
			C163.1,11.5,163.1,11.7,163.1,12z M174.6,9.1c-0.9,0-1.7,0.3-2.4,0.8c-0.7,0.5-1.1,1.2-1.2,2.1c-0.1,0.6-0.1,1.1-0.1,1.5
			c0.1,0.4,0.3,0.8,0.7,1.1c-0.5,0.6-1.1,1.1-1.7,1.7c-0.1,0.4,0,0.7,0.2,0.8c0.2,0.2,0.6,0.3,1.2,0.3l-2,1.7
			c-0.2,0.9,0,1.5,0.5,1.9c0.5,0.4,1.3,0.6,2.5,0.6c1.2,0,2.2-0.3,3.1-0.8c0.9-0.5,1.4-1.3,1.5-2.2c0.1-0.7,0.1-1.3-0.2-1.7
			c-0.2-0.4-0.7-0.7-1.2-0.7l-4.4,0l1.2-1.4c0.4,0.1,0.8,0.1,1.1,0.1c0.9,0,1.7-0.3,2.3-0.8c0.6-0.5,1-1.3,1.2-2.2
			c0.1-0.5,0-1.1-0.2-1.6l1,0l0.4-0.9l-2,0C175.7,9.2,175.2,9.1,174.6,9.1z M174.6,17.3c0.6,0,1,0.1,1.1,0.2c0.1,0.2,0.1,0.6,0,1.2
			c-0.1,0.7-0.4,1.1-0.8,1.4c-0.2,0.1-0.4,0.2-0.7,0.3c-0.3,0.1-0.5,0.1-0.7,0.1c-0.2,0-0.6,0-1.2,0c-0.6,0-1-0.1-1.4-0.2
			c-0.5-0.2-0.7-0.6-0.5-1.2l1.8-1.9H174.6z M175.9,12c-0.2,1.4-1,2-2.3,2c-1.3,0-1.8-0.7-1.5-2c0.1-0.8,0.4-1.3,0.8-1.6
			c0.4-0.3,0.9-0.5,1.5-0.5c0.6,0,1.1,0.2,1.4,0.5C175.9,10.7,176,11.3,175.9,12z M183.7,9.2c-0.6,0-1.3,0.2-1.8,0.5
			c-0.4,0.2-0.8,0.4-1.1,0.7c-0.3,0.3-0.6,0.8-0.9,1.3c-0.3,0.6-0.5,1.3-0.6,2c-0.2,1.4-0.1,2.5,0.4,3.2c0.5,0.8,1.3,1.2,2.4,1.2
			c0.2,0,0.5,0,0.8-0.1c0.1,0,0.2,0,0.4-0.1c0.2,0,0.3-0.1,0.4-0.1c0.1,0,0.2-0.1,0.4-0.1c0.2-0.1,0.3-0.1,0.5-0.1
			c0.2,0,0.4-0.1,0.7-0.2l0-0.9c-1,0.3-1.9,0.5-2.7,0.5c-1,0-1.6-0.2-1.9-0.7c-0.3-0.5-0.4-1.4-0.2-2.7h5.5c0.2-0.5,0.3-0.9,0.3-1.3
			C186.7,10.3,185.8,9.2,183.7,9.2z M185.2,12.1c0,0.2-0.1,0.4-0.2,0.7h-4.4c0.2-1,0.5-1.7,1-2.1c0.5-0.4,1.1-0.6,1.8-0.6
			c0.7,0,1.2,0.1,1.5,0.4C185.3,10.9,185.4,11.4,185.2,12.1z M190.6,9.2l0.2-1.4H190l-0.5,1.5l-0.9,0.3l-0.1,0.5h0.7
			c0.1,0,0.1,0,0.1,0.1l-1,5.5l0.3,2.2l0.1,0.1h0.8l-0.1-2.3l1-5.6c0,0,0.1-0.1,0.2-0.1l1.5,0l0.3-0.8h-1
			C190.9,9.3,190.6,9.3,190.6,9.2z M195.6,9.2l0.2-1.4H195l-0.5,1.5l-0.9,0.3l-0.1,0.5h0.7c0.1,0,0.1,0,0.1,0.1l-1,5.5l0.3,2.2
			l0.1,0.1h0.8l-0.1-2.3l1-5.6c0,0,0.1-0.1,0.2-0.1l1.5,0l0.3-0.8h-1C195.9,9.3,195.7,9.3,195.6,9.2z M199.6,7.7h1.2l0.2-1.3h-1.2
			L199.6,7.7z M197.8,18h1.1l1.5-8.7h-1.1L197.8,18z M207.4,9.2c-0.8,0-1.5,0.2-2.2,0.6c-0.3,0.1-0.7,0.4-1.1,0.6l-0.2-0.9l0,0h-0.8
			l-0.1,2.1l-1.1,6.4h1.1l1.2-6.8c0.1-0.2,0.4-0.4,0.9-0.6c0.5-0.2,1.1-0.3,1.6-0.3c0.6,0,1,0.1,1.3,0.4c0.3,0.2,0.4,0.7,0.3,1.2
			l-1.1,6.2h1.1l1.1-6.2C209.7,10,209,9.2,207.4,9.2z M215.7,9.1c-0.9,0-1.7,0.3-2.4,0.8c-0.7,0.5-1.1,1.2-1.2,2.1
			c-0.1,0.6-0.1,1.1-0.1,1.5c0.1,0.4,0.3,0.8,0.7,1.1c-0.5,0.6-1.1,1.1-1.7,1.7c-0.1,0.4,0,0.7,0.2,0.8c0.2,0.2,0.6,0.3,1.2,0.3
			l-2,1.7c-0.2,0.9,0,1.5,0.5,1.9c0.5,0.4,1.3,0.6,2.5,0.6c1.2,0,2.2-0.3,3.1-0.8c0.9-0.5,1.4-1.3,1.5-2.2c0.1-0.7,0.1-1.3-0.2-1.7
			c-0.2-0.4-0.7-0.7-1.2-0.7l-4.4,0l1.2-1.4c0.4,0.1,0.8,0.1,1.1,0.1c0.9,0,1.7-0.3,2.3-0.8c0.6-0.5,1-1.3,1.2-2.2
			c0.1-0.5,0-1.1-0.2-1.6l1,0l0.4-0.9l-2,0C216.9,9.2,216.3,9.1,215.7,9.1z M215.8,17.3c0.6,0,1,0.1,1.1,0.2s0.1,0.6,0,1.2
			c-0.1,0.7-0.4,1.1-0.8,1.4c-0.2,0.1-0.4,0.2-0.7,0.3c-0.3,0.1-0.5,0.1-0.7,0.1c-0.2,0-0.6,0-1.2,0c-0.6,0-1-0.1-1.4-0.2
			c-0.5-0.2-0.7-0.6-0.5-1.2l1.8-1.9H215.8z M217,12c-0.2,1.4-1,2-2.3,2c-1.3,0-1.8-0.7-1.5-2c0.1-0.8,0.4-1.3,0.8-1.6
			c0.4-0.3,0.9-0.5,1.5-0.5c0.6,0,1.1,0.2,1.4,0.5C217.1,10.7,217.2,11.3,217,12z M231.3,9.6c-0.5-0.2-1.1-0.4-2.1-0.4
			c-0.9,0-1.8,0.3-2.6,1c-0.4,0.3-0.8,0.8-1.1,1.4c-0.3,0.6-0.6,1.3-0.7,2.1c-0.3,1.7-0.2,2.9,0.2,3.5c0.4,0.6,1.3,1,2.7,1
			c0.9,0,1.8-0.3,2.6-1c0.4-0.3,0.8-0.8,1.1-1.4c0.3-0.6,0.6-1.4,0.8-2.4c0.2-1,0.2-1.9,0.1-2.5C232.1,10.3,231.8,9.8,231.3,9.6z
			 M231.1,12c0,0.3,0,0.5-0.1,0.8c0,0.2-0.1,0.6-0.2,1.1c-0.1,0.5-0.2,1-0.3,1.3c-0.1,0.4-0.3,0.7-0.5,1.1c-0.2,0.3-0.5,0.6-0.9,0.7
			c-0.4,0.1-0.8,0.2-1.4,0.2c-1,0-1.6-0.3-1.8-0.8c-0.2-0.5-0.2-1.4,0-2.7c0.1-0.6,0.2-1.1,0.3-1.5c0.1-0.4,0.3-0.7,0.5-1.1
			c0.2-0.3,0.5-0.6,0.9-0.7c0.4-0.1,0.8-0.2,1.2-0.2c0.4,0,0.8,0,1,0.1c0.2,0.1,0.4,0.1,0.6,0.2c0.2,0.1,0.3,0.2,0.4,0.4
			c0.1,0.2,0.1,0.3,0.2,0.5C231.1,11.5,231.1,11.7,231.1,12z M239.4,9.2c-0.8,0-1.5,0.2-2.2,0.6c-0.3,0.1-0.7,0.4-1.1,0.6l-0.2-0.9
			l0,0h-0.8l-0.1,2.1l-1.1,6.4h1.1l1.2-6.8c0.1-0.2,0.4-0.4,0.9-0.6c0.5-0.2,1.1-0.3,1.6-0.3c0.6,0,1,0.1,1.3,0.4
			c0.3,0.2,0.4,0.7,0.3,1.2l-1.1,6.2h1.1l1.1-6.2C241.7,10,241.1,9.2,239.4,9.2z M245.5,5.1l-1.9,10.9l0.3,2.2l0.1,0.1h0.8l0-2.3
			l1.9-10.9H245.5z M247.3,18h1.1l1.5-8.7h-1.1L247.3,18z M249,7.7h1.2l0.2-1.3h-1.2L249,7.7z M256.9,9.2c-0.8,0-1.5,0.2-2.2,0.6
			c-0.3,0.1-0.7,0.4-1.1,0.6l-0.2-0.9l0,0h-0.8l-0.1,2.1l-1.1,6.4h1.1l1.2-6.8c0.1-0.2,0.4-0.4,0.9-0.6c0.5-0.2,1.1-0.3,1.6-0.3
			c0.6,0,1,0.1,1.3,0.4c0.3,0.2,0.4,0.7,0.3,1.2l-1.1,6.2h1.1l1.1-6.2C259.2,10,258.5,9.2,256.9,9.2z M265.5,9.2
			c-0.6,0-1.3,0.2-1.8,0.5c-0.4,0.2-0.8,0.4-1.1,0.7c-0.3,0.3-0.6,0.8-0.9,1.3c-0.3,0.6-0.5,1.3-0.6,2c-0.2,1.4-0.1,2.5,0.4,3.2
			c0.5,0.8,1.3,1.2,2.4,1.2c0.2,0,0.5,0,0.8-0.1c0.1,0,0.2,0,0.4-0.1s0.3-0.1,0.4-0.1c0.1,0,0.2-0.1,0.4-0.1
			c0.2-0.1,0.3-0.1,0.5-0.1c0.2,0,0.4-0.1,0.7-0.2l0-0.9c-1,0.3-1.9,0.5-2.7,0.5c-1,0-1.6-0.2-1.9-0.7c-0.3-0.5-0.4-1.4-0.2-2.7h5.5
			c0.2-0.5,0.3-0.9,0.3-1.3C268.4,10.3,267.6,9.2,265.5,9.2z M267,12.1c0,0.2-0.1,0.4-0.2,0.7h-4.4c0.2-1,0.5-1.7,1-2.1
			c0.5-0.4,1.1-0.6,1.8-0.6c0.7,0,1.2,0.1,1.5,0.4C267,10.9,267.1,11.4,267,12.1z"/>
	</g>
</g>
<g>
	<path stroke="#ffffff" stroke-width="1.1917" stroke-miterlimit="10" d="M70.2,29.9h5.6c1.3,0,2.5,0.1,3.4,0.2
		c0.9,0.1,1.8,0.4,2.7,0.8c0.9,0.4,1.6,1,2.1,1.8c1.1,1.6,1.7,4.2,1.7,7.7c0,2.2-0.3,4.1-0.9,5.7c-0.4,1.1-1.2,2.2-2.3,3.2
		c-0.6,0.6-1.6,1.1-3,1.5c-0.8,0.2-1.6,0.3-2.5,0.4c-0.9,0-1.7,0-2.4,0h-4.4V29.9z M72.4,49.4h2.2c0.1,0,0.4,0,0.9,0s0.9,0,1.2,0
		c0.4,0,0.8,0,1.4-0.1c0.6,0,1-0.1,1.3-0.2c0.3-0.1,0.6-0.3,1.1-0.5c0.4-0.2,0.8-0.4,1-0.7c0.2-0.3,0.4-0.7,0.7-1.1
		c0.3-0.4,0.5-1,0.6-1.5c0.3-1.6,0.5-3.3,0.5-5c0-1.7-0.1-3.1-0.3-4.2c-0.2-1.1-0.7-2-1.3-2.6c-0.6-0.6-1.4-1-2.2-1.2
		c-0.9-0.2-2-0.3-3.5-0.3h-3.5V49.4z"/>
	<path stroke="#ffffff" stroke-width="1.1917" stroke-miterlimit="10" d="M90.1,29.6h2.3V32h-2.3V29.6z M90.3,35.1h2v16.2h-2V35.1z"
		/>
	<path stroke="#ffffff" stroke-width="1.1917" stroke-miterlimit="10" d="M108.3,40c0,1.7-0.5,3.1-1.5,4.1c-1,1-2.4,1.5-4.1,1.5
		c-0.5,0-1.2-0.1-2.1-0.2l-1.8,2.6l8.3,0c1.1,0,1.9,0.4,2.5,1.2c0.6,0.8,0.9,1.9,0.9,3.2c0,1.8-0.7,3.2-2.2,4.2
		c-1.4,1-3.3,1.4-5.5,1.4s-3.8-0.4-4.9-1.1c-1-0.8-1.6-2-1.6-3.6l3.1-3.2c-1.2,0-2-0.2-2.4-0.5c-0.4-0.3-0.6-0.8-0.6-1.5
		c0.9-1,1.8-2.1,2.6-3.1c-0.8-0.6-1.4-1.3-1.6-2c-0.3-0.7-0.4-1.7-0.4-2.8c0-1.7,0.5-3,1.6-4c1.1-1,2.4-1.4,4.1-1.4
		c1.1,0,2.2,0.2,3.1,0.7l3.7,0l-0.4,1.7l-1.9,0C108,38,108.3,39,108.3,40z M102.7,56.3c1,0,1.8,0,2.2,0c0.4,0,0.9-0.1,1.3-0.3
		c0.5-0.1,0.9-0.3,1.1-0.6c0.7-0.5,1-1.4,1-2.7c0-1.2-0.2-2-0.4-2.3c-0.3-0.3-1-0.4-2.1-0.4h-4.4l-2.7,3.6c0,1.2,0.5,2,1.4,2.3
		C100.8,56.1,101.7,56.3,102.7,56.3z M102.7,43.9c2.4,0,3.6-1.3,3.6-3.8c0-1.4-0.3-2.5-0.9-3c-0.6-0.6-1.5-0.9-2.7-0.9
		c-1.2,0-2.1,0.3-2.7,0.9c-0.6,0.6-0.9,1.6-0.9,3C99.2,42.7,100.4,43.9,102.7,43.9z"/>
	<path stroke="#ffffff" stroke-width="1.1917" stroke-miterlimit="10" d="M114.8,29.6h2.3V32h-2.3V29.6z M115,35.1h2v16.2h-2V35.1z"
		/>
	<path stroke="#ffffff" stroke-width="1.1917" stroke-miterlimit="10" d="M122.5,36.8c0-0.1-0.1-0.2-0.2-0.2H121v-1l1.5-0.6l0.4-2.9
		h1.7v2.6c0.1,0.2,0.5,0.2,1.4,0.2h1.9l-0.3,1.5l-2.8,0c-0.2,0-0.3,0-0.3,0.1v10.4l0.9,4.3h-1.4l-0.1-0.1l-1.3-4.2V36.8z"/>
	<path stroke="#ffffff" stroke-width="1.1917" stroke-miterlimit="10" d="M142.1,41.4l0,3.9c0,0.6,0,1.2,0,1.7l0.7,4l0,0.2h-1.4
		l-0.1-0.1l-0.8-1.9c-2,1.4-4.1,2.1-6,2.2c-1.4,0-2.4-0.4-3.2-1.1c-0.7-0.7-1.1-1.8-1.1-3.1c0-1.8,0.5-3.1,1.5-3.8
		c1-0.7,2.4-1,4.2-1c0.2,0,1.5,0.1,4,0.2v-2.1c0-1.4-0.3-2.5-0.8-3c-0.5-0.6-1.3-0.8-2.3-0.8c-1,0-2.8,0.3-5.6,0.9L131,36
		c2.7-0.8,4.7-1.2,5.9-1.2c1.8,0,3.2,0.6,4.3,1.7C141.7,37.1,142.1,38.8,142.1,41.4z M139.9,44.3l-3.5-0.1c-1.8,0-2.9,0.2-3.4,0.5
		c-0.5,0.4-0.8,1-0.8,2.1c0,1,0.2,1.8,0.5,2.1c0.4,0.4,1,0.6,1.8,0.6c0.9,0,1.9-0.2,3.1-0.5c1.2-0.4,1.9-0.8,2.3-1.2V44.3z"/>
	<path stroke="#ffffff" stroke-width="1.1917" stroke-miterlimit="10" d="M148.1,27h2v20.3l0.8,4.2h-1.5l-0.1-0.1l-1.2-4.1V27z"/>
	<path d="M154.8,27h2v9.5c1.3-1.2,2.7-1.7,4.1-1.7c1.4,0,2.5,0.2,3.4,0.6c0.8,0.4,1.5,1,1.9,1.8c0.7,1.4,1.1,3.3,1.1,5.7
		c0,1.5-0.2,2.8-0.6,4c-0.4,1.1-0.8,2-1.3,2.6c-0.5,0.6-1.1,1-1.8,1.4c-0.9,0.5-1.9,0.8-2.8,0.8c-0.6,0-1,0-1.4-0.1
		c-0.4-0.1-0.7-0.1-0.9-0.2c-0.2,0-0.4-0.1-0.7-0.2c-0.3-0.1-0.5-0.2-0.6-0.2c-0.1,0-0.4-0.1-0.7-0.3c-0.3-0.1-0.5-0.2-0.6-0.3
		c-0.7-0.3-1.1-0.5-1.2-0.6V27z M156.9,49.1c1.2,0.4,2.4,0.7,3.5,0.7c1.1,0,1.9-0.1,2.5-0.4c0.6-0.3,1-0.6,1.3-0.9
		c0.3-0.4,0.5-0.9,0.7-1.5c0.2-0.9,0.3-2,0.3-3.4c0-2.6-0.2-4.4-0.7-5.3c-0.4-0.9-1.5-1.4-3.3-1.4c-1.8,0-3.2,0.6-4.2,1.8V49.1z"/>
	<path d="M171.6,35.1h2.1v11.6c0,1.1,0.3,1.9,0.9,2.3c0.6,0.4,1.4,0.7,2.5,0.7c1.1,0,2.1-0.2,2.9-0.6c0.8-0.4,1.3-0.8,1.5-1.2V35.1
		h2.1v12l0.6,4.2h-1.4l-0.1-0.1l-0.7-1.8c-0.9,0.6-1.5,1-1.8,1.2c-0.4,0.2-0.9,0.5-1.6,0.7c-0.7,0.2-1.5,0.3-2.3,0.3
		c-3.1,0-4.7-1.7-4.8-5V35.1z"/>
	<path d="M188.3,49c1.4,0.5,2.6,0.8,3.8,0.8c1.2,0,2.2-0.2,3-0.7c0.8-0.5,1.3-1.1,1.3-2c0-0.8-0.3-1.5-0.9-2
		c-0.6-0.5-1.3-0.9-2.1-1.2c-0.8-0.3-1.6-0.6-2.4-1c-0.8-0.3-1.5-0.8-2.1-1.4c-0.6-0.6-0.9-1.4-0.9-2.3c0-1.4,0.5-2.6,1.5-3.3
		c1-0.8,2.3-1.2,3.8-1.2c1.5,0,3,0.3,4.4,0.8l-0.4,1.5c-1.1-0.4-2.3-0.6-3.7-0.6c-2.3,0-3.4,0.9-3.4,2.7c0,1.1,1,2.1,3,2.8
		c0.8,0.3,1.7,0.6,2.5,1s1.5,0.9,2.1,1.6c0.6,0.7,0.9,1.5,0.9,2.5c0,1.5-0.6,2.6-1.9,3.4c-1.3,0.8-2.7,1.2-4.4,1.2
		c-1.7,0-3.2-0.3-4.6-0.9L188.3,49z"/>
	<path d="M202.6,29.6h2.3V32h-2.3V29.6z M202.7,35.1h2v16.2h-2V35.1z"/>
	<path d="M222.1,51.3H220V39.7c0-1.1-0.3-1.8-0.9-2.3c-0.6-0.5-1.4-0.7-2.5-0.7s-2,0.2-2.9,0.6c-0.9,0.4-1.4,0.8-1.6,1.2v12.8H210
		v-12l-0.6-4h1.4l0.1,0.1l0.6,1.7c0.8-0.5,1.4-0.9,1.9-1.2c1.2-0.7,2.5-1.1,4-1.1c3.1,0,4.6,1.7,4.7,5V51.3z"/>
	<path d="M239.1,40.7c0,0.8-0.1,1.6-0.2,2.5h-10.3c0.1,2.4,0.5,4.1,1.2,5c0.7,0.9,2,1.4,3.9,1.4c1.4,0,3-0.3,4.8-0.9l0.2,1.6
		c-0.5,0.2-0.9,0.3-1.2,0.4c-0.3,0.1-0.6,0.2-0.9,0.3c-0.3,0.1-0.5,0.2-0.7,0.2c-0.2,0-0.4,0.1-0.7,0.2c-0.3,0.1-0.5,0.1-0.7,0.1
		c-0.6,0.1-1.1,0.1-1.5,0.1c-2.1,0-3.7-0.7-4.9-2.2c-1.2-1.4-1.8-3.5-1.8-6.1c0-1.4,0.2-2.7,0.5-3.8c0.4-1.1,0.8-1.9,1.3-2.5
		c0.5-0.6,1.1-1,1.7-1.4c1-0.5,2.1-0.8,3.3-0.9C237.1,34.8,239.1,36.8,239.1,40.7z M237,40.2c0-1.3-0.3-2.2-1-2.8
		c-0.7-0.5-1.6-0.8-2.9-0.8c-1.3,0-2.4,0.3-3.2,1c-0.8,0.7-1.3,2-1.3,3.8h8.3C237,41,237,40.6,237,40.2z"/>
	<path d="M242.7,49c1.4,0.5,2.6,0.8,3.8,0.8c1.2,0,2.2-0.2,3-0.7c0.8-0.5,1.3-1.1,1.3-2c0-0.8-0.3-1.5-0.9-2
		c-0.6-0.5-1.3-0.9-2.1-1.2c-0.8-0.3-1.6-0.6-2.4-1c-0.8-0.3-1.5-0.8-2.1-1.4c-0.6-0.6-0.9-1.4-0.9-2.3c0-1.4,0.5-2.6,1.5-3.3
		c1-0.8,2.3-1.2,3.8-1.2c1.5,0,3,0.3,4.4,0.8l-0.4,1.5c-1.1-0.4-2.3-0.6-3.7-0.6c-2.3,0-3.4,0.9-3.4,2.7c0,1.1,1,2.1,3,2.8
		c0.8,0.3,1.7,0.6,2.5,1c0.8,0.4,1.5,0.9,2.1,1.6c0.6,0.7,0.9,1.5,0.9,2.5c0,1.5-0.6,2.6-1.9,3.4c-1.3,0.8-2.7,1.2-4.4,1.2
		c-1.7,0-3.2-0.3-4.6-0.9L242.7,49z"/>
	<path d="M256.5,49c1.4,0.5,2.6,0.8,3.8,0.8c1.2,0,2.2-0.2,3-0.7c0.8-0.5,1.3-1.1,1.3-2c0-0.8-0.3-1.5-0.9-2
		c-0.6-0.5-1.3-0.9-2.1-1.2c-0.8-0.3-1.6-0.6-2.4-1c-0.8-0.3-1.5-0.8-2.1-1.4c-0.6-0.6-0.9-1.4-0.9-2.3c0-1.4,0.5-2.6,1.5-3.3
		c1-0.8,2.3-1.2,3.8-1.2c1.5,0,3,0.3,4.4,0.8l-0.4,1.5c-1.1-0.4-2.3-0.6-3.7-0.6c-2.3,0-3.4,0.9-3.4,2.7c0,1.1,1,2.1,3,2.8
		c0.8,0.3,1.7,0.6,2.5,1c0.8,0.4,1.5,0.9,2.1,1.6c0.6,0.7,0.9,1.5,0.9,2.5c0,1.5-0.6,2.6-1.9,3.4c-1.3,0.8-2.7,1.2-4.4,1.2
		c-1.7,0-3.2-0.3-4.6-0.9L256.5,49z"/>
</g>
</svg>
