<?xml version="1.0" encoding="UTF-8" standalone="no"?>
<!-- Created with Inkscape (http://www.inkscape.org/) -->

<svg
   xmlns:dc="http://purl.org/dc/elements/1.1/"
   xmlns:cc="http://creativecommons.org/ns#"
   xmlns:rdf="http://www.w3.org/1999/02/22-rdf-syntax-ns#"
   xmlns:svg="http://www.w3.org/2000/svg"
   xmlns="http://www.w3.org/2000/svg"
   xmlns:sodipodi="http://sodipodi.sourceforge.net/DTD/sodipodi-0.dtd"
   xmlns:inkscape="http://www.inkscape.org/namespaces/inkscape"
   width="14.111027mm"
   height="16.580519mm"
   viewBox="0 0 49.999701 58.749869"
   id="svg4430"
   version="1.1"
   inkscape:version="0.91 r13725"
   sodipodi:docname="update.svg">
  <defs
     id="defs4432" />
  <sodipodi:namedview
     id="base"
     pagecolor="#ffffff"
     bordercolor="#666666"
     borderopacity="1.0"
     inkscape:pageopacity="0.0"
     inkscape:pageshadow="2"
     inkscape:zoom="12.762791"
     inkscape:cx="27.4997"
     inkscape:cy="26.874999"
     inkscape:document-units="px"
     inkscape:current-layer="layer1"
     showgrid="false"
     fit-margin-top="0"
     fit-margin-left="0"
     fit-margin-right="0"
     fit-margin-bottom="0"
     inkscape:window-width="1440"
     inkscape:window-height="851"
     inkscape:window-x="267"
     inkscape:window-y="0"
     inkscape:window-maximized="0" />
  <metadata
     id="metadata4435">
    <rdf:RDF>
      <cc:Work
         rdf:about="">
        <dc:format>image/svg+xml</dc:format>
        <dc:type
           rdf:resource="http://purl.org/dc/dcmitype/StillImage" />
        <dc:title></dc:title>
      </cc:Work>
    </rdf:RDF>
  </metadata>
  <g
     inkscape:label="Layer 1"
     inkscape:groupmode="layer"
     id="layer1"
     transform="translate(-449.28589,-480.13012)">
    <path
       inkscape:connector-curvature="0"
       id="path4165"
       style="fill:none;stroke:#6a6a6a;stroke-width:2.5;stroke-linecap:butt;stroke-linejoin:round;stroke-miterlimit:10;stroke-dasharray:none;stroke-opacity:1"
       d="m 450.53589,532.63012 42.5,0 0,-51.25 -42.5,0 0,51.25 z" />
    <path
       inkscape:connector-curvature="0"
       id="path4169"
       style="fill:none;stroke:#6a6a6a;stroke-width:2.5;stroke-linecap:butt;stroke-linejoin:round;stroke-miterlimit:10;stroke-dasharray:none;stroke-opacity:1"
       d="m 455.53559,532.62999 0,5 42.5,0 0,-51.25 -5,0" />
    <path
       inkscape:connector-curvature="0"
       id="path4181"
       style="fill:#6a6a6a;fill-opacity:1;fill-rule:nonzero;stroke:none"
       d="m 473.47359,492.01212 c 0.2925,0 0.4888,0.19625 0.4888,0.49 l 0,21.59625 c 0,0.2925 -0.1963,0.49 -0.4888,0.49 l -3.13,0 c -0.295,0 -0.4912,-0.1975 -0.4912,-0.49 l 0,-21.59625 c 0,-0.29375 0.1962,-0.49 0.4912,-0.49 l 3.13,0 z m 0.099,26.43875 c 0.2937,0 0.4875,0.19625 0.4875,0.48875 l 0,3.5725 c 0,0.29375 -0.1938,0.48875 -0.4875,0.48875 l -3.3275,0 c -0.2938,0 -0.49,-0.195 -0.49,-0.48875 l 0,-3.5725 c 0,-0.2925 0.1962,-0.48875 0.49,-0.48875 l 3.3275,0 z" />
  </g>
</svg>
