<?xml version="1.0" encoding="UTF-8" standalone="no"?>
<!-- Created with Inkscape (http://www.inkscape.org/) -->

<svg
   xmlns:dc="http://purl.org/dc/elements/1.1/"
   xmlns:cc="http://creativecommons.org/ns#"
   xmlns:rdf="http://www.w3.org/1999/02/22-rdf-syntax-ns#"
   xmlns:svg="http://www.w3.org/2000/svg"
   xmlns="http://www.w3.org/2000/svg"
   xmlns:sodipodi="http://sodipodi.sourceforge.net/DTD/sodipodi-0.dtd"
   xmlns:inkscape="http://www.inkscape.org/namespaces/inkscape"
   width="17.420145mm"
   height="9.4262218mm"
   viewBox="0 0 61.724923 33.399999"
   id="svg10346"
   version="1.1"
   inkscape:version="0.91 r13725"
   sodipodi:docname="views.svg">
  <defs
     id="defs10348" />
  <sodipodi:namedview
     id="base"
     pagecolor="#ffffff"
     bordercolor="#666666"
     borderopacity="1.0"
     inkscape:pageopacity="0.0"
     inkscape:pageshadow="2"
     inkscape:zoom="0.35"
     inkscape:cx="-202.70896"
     inkscape:cy="-194.72857"
     inkscape:document-units="px"
     inkscape:current-layer="layer1"
     showgrid="false"
     fit-margin-top="0"
     fit-margin-left="0"
     fit-margin-right="0"
     fit-margin-bottom="0"
     inkscape:window-width="1920"
     inkscape:window-height="855"
     inkscape:window-x="0"
     inkscape:window-y="0"
     inkscape:window-maximized="1" />
  <metadata
     id="metadata10351">
    <rdf:RDF>
      <cc:Work
         rdf:about="">
        <dc:format>image/svg+xml</dc:format>
        <dc:type
           rdf:resource="http://purl.org/dc/dcmitype/StillImage" />
        <dc:title></dc:title>
      </cc:Work>
    </rdf:RDF>
  </metadata>
  <g
     inkscape:label="Layer 1"
     inkscape:groupmode="layer"
     id="layer1"
     transform="translate(-163.42325,-304.23363)">
    <path
       d="m 223.89821,320.93363 c 0,0 -13.2575,15.45 -29.6125,15.45 -16.355,0 -29.6125,-15.45 -29.6125,-15.45 0,0 13.2575,-15.45 29.6125,-15.45 16.355,0 29.6125,15.45 29.6125,15.45 z"
       style="fill:none;stroke:#6a6a6a;stroke-width:2.5;stroke-linecap:round;stroke-linejoin:round;stroke-miterlimit:10;stroke-dasharray:none;stroke-opacity:1"
       id="path5882"
       inkscape:connector-curvature="0" />
    <path
       d="m 204.78431,307.56326 c 2.2775,2.51375 3.66375,5.8475 3.66375,9.5075 0,7.82375 -6.33875,14.1625 -14.1625,14.1625 -7.82375,0 -14.1625,-6.33875 -14.1625,-14.1625 0,-3.6475 1.37875,-6.9725 3.6425,-9.4825"
       style="fill:none;stroke:#6a6a6a;stroke-width:2.5;stroke-linecap:round;stroke-linejoin:round;stroke-miterlimit:10;stroke-dasharray:none;stroke-opacity:1"
       id="path5886"
       inkscape:connector-curvature="0" />
    <path
       d="m 200.72321,317.07113 c 0,3.55375 -2.88375,6.4375 -6.4375,6.4375 -3.55375,0 -6.4375,-2.88375 -6.4375,-6.4375 0,-3.55375 2.88375,-6.4375 6.4375,-6.4375 3.55375,0 6.4375,2.88375 6.4375,6.4375"
       style="fill:#6a6a6a;fill-opacity:1;fill-rule:nonzero;stroke:none"
       id="path5890"
       inkscape:connector-curvature="0" />
  </g>
</svg>
