<svg id="top_master" data-name="top master" xmlns="http://www.w3.org/2000/svg" width="110" height="100" viewBox="0 0 110 100"><title>ARTS ICONS</title><path d="M96,24.72l-50.13,0a4.35,4.35,0,0,0-4.6,4V47.25H10.92a2.67,2.67,0,0,0-2.54,2.83V79.32a2.31,2.31,0,0,0,2.54,2.39H59.49A2.73,2.73,0,0,0,62.22,79v-6.7l33.74,0a4.35,4.35,0,0,0,4.6-4V28.74A4.35,4.35,0,0,0,96,24.72Zm2.81,43.51A2.57,2.57,0,0,1,96,70.45l-33.74,0V50a2.73,2.73,0,0,0-2.72-2.74H43V28.78a2.57,2.57,0,0,1,2.81-2.22l50.13,0a2.57,2.57,0,0,1,2.81,2.22Z"/></svg>