<svg id="ICONS_-_HOVER" data-name="ICONS - HOVER" xmlns="http://www.w3.org/2000/svg" xmlns:xlink="http://www.w3.org/1999/xlink" width="110" height="100" viewBox="0 0 110 100"><defs><style>.cls-1{fill:url(#ARTS_GRADIENT_hover);}.cls-2{fill:url(#ARTS_GRADIENT_hover-2);}</style><linearGradient id="ARTS_GRADIENT_hover" x1="37.98" y1="83.52" x2="72.53" y2="23.67" gradientUnits="userSpaceOnUse"><stop offset="0" stop-color="#5265ff"/><stop offset="0.04" stop-color="#516fff"/><stop offset="0.27" stop-color="#4b9cfd"/><stop offset="0.48" stop-color="#46c0fc"/><stop offset="0.68" stop-color="#43dafb"/><stop offset="0.86" stop-color="#41eafa"/><stop offset="1" stop-color="#40effa"/></linearGradient><linearGradient id="ARTS_GRADIENT_hover-2" x1="42.83" y1="75.1" x2="67.67" y2="32.08" xlink:href="#ARTS_GRADIENT_hover"/></defs><title>ARTS ICONS</title><path class="cls-1" d="M55.25,19A34.56,34.56,0,1,0,89.81,53.59,34.6,34.6,0,0,0,55.25,19Zm0,66.24A31.68,31.68,0,1,1,86.93,53.59,31.72,31.72,0,0,1,55.25,85.27Z"/><path class="cls-2" d="M55.25,28.75A24.84,24.84,0,1,0,80.09,53.59,24.87,24.87,0,0,0,55.25,28.75Zm0,49A24.12,24.12,0,1,1,79.37,53.59,24.15,24.15,0,0,1,55.25,77.71Z"/></svg>