<svg version="1.1" id="Layer_1" xmlns="http://www.w3.org/2000/svg" xmlns:xlink="http://www.w3.org/1999/xlink" x="0px" y="0px"
	 viewBox="160 358.5 600.1 273" preserveAspectRatio="xMidYMid meet" enable-background="new 160 358.5 600.1 273" xml:space="preserve">
	<title>Bureau of Communications Research</title>
<g>
	<g opacity="7.000000e-02">
		<path fill="#FFFFFF" d="M292.7,494.1c-12.3,0-23.3,5.6-30.4,14.5c-11.2,13.7-32.7,8.7-37.6-7.6c-1.6-21.7,19.7-38.3,40.3-31.3
			c3.6,1.3,7.8,2,12.1,2c19.7,0,35.6-15.9,35.6-35.6s-15.9-35.6-35.6-35.6c-19.7,0-35.6,15.9-35.6,35.6c0,2.2,0.2,4.5,0.7,6.5
			c3.6,22.2-16.8,40.7-38.5,34.9c-2.7-0.7-5.6-1.1-8.5-1.1c-16.6,0-30,13.4-30,30c0,16.6,13.4,30,30,30c8.3,0,15.9-3.4,21.5-9l0,0
			c12.3-12.5,32.9-6.3,36.9,10.1c-0.9,17-19.5,28-35.1,20.1c-5.6-2.9-12.1-4.7-18.6-4.7c-22.2-0.4-39.8,17-39.8,38.9
			s17.7,39.6,39.6,39.6s39.6-17.7,39.6-39.6c0-0.4,0-0.9,0-1.1l0,0c-0.4-18.1,18.6-30.4,35.1-22.2c5.6,2.9,12.1,4.7,18.6,4.7
			c21.9,0,39.6-17.7,39.6-39.6C332.3,511.8,314.6,494.1,292.7,494.1z"/>
		<path fill="#F4F4F3" d="M293.6,493.4c-12.3,0-23.3,5.6-30.4,14.5c-11.2,13.7-32.7,8.7-37.6-7.6c-1.6-21.9,19.5-38.7,40.3-31.6
			c3.6,1.3,7.8,2,12.1,2c19.7,0,35.6-15.9,35.6-35.6c0-19.7-15.9-35.6-35.6-35.6c-19.7,0-35.6,15.9-35.6,35.6c0,2.2,0.2,4.5,0.7,6.5
			c4,22.2-16.8,41-38.5,34.9c-2.7-0.7-5.6-1.1-8.5-1.1c-16.6,0-30,13.4-30,30s13.4,30,30,30c8.3,0,15.9-3.4,21.5-9l0,0
			c12.3-12.5,32.9-6.3,36.9,10.1c-0.9,17-19.5,28.2-35.1,20.1c-5.6-2.9-12.1-4.7-18.6-4.7c-21.9,0-39.6,17.7-39.6,39.6
			s17.7,39.6,39.6,39.6s39.6-17.7,39.6-39.6c0-0.4,0-0.9,0-1.1l0,0c-0.4-18.1,18.8-30.7,35.1-22.2c5.6,2.9,12.1,4.7,18.6,4.7
			c21.9,0,39.6-17.7,39.6-39.6C333.4,511.1,315.5,493.4,293.6,493.4z"/>
		<path fill="#EDECEC" d="M294.7,493c-12.3,0-23.3,5.6-30.4,14.5c-11.2,13.7-32.7,8.7-37.6-7.6c-1.6-21.7,19.7-38.5,40.3-31.3
			c3.6,1.3,7.8,2,12.1,2c19.7-0.4,35.6-16.3,35.6-36c0-19.7-15.9-35.6-35.6-35.6c-19.7,0-35.6,15.9-35.6,35.6c0,2.2,0.2,4.5,0.7,6.5
			c4,22.2-16.8,41-38.5,34.9c-2.7-0.7-5.6-1.1-8.5-1.1c-16.6,0-30,13.4-30,30c0,16.6,13.4,30,30,30c8.3,0,15.9-3.4,21.5-9l0,0
			c12.3-12.5,32.9-6.3,36.9,10.1c-0.9,17-19.5,28.2-35.1,20.1c-5.6-2.9-12.1-4.7-18.6-4.7c-21.9,0-39.6,17.7-39.6,39.6
			c0,21.9,17.7,39.6,39.6,39.6s39.6-17.7,39.6-39.6c0-0.4,0-0.9,0-1.1l0,0c-0.4-18.1,18.8-30.7,35.1-22.2c5.6,2.9,12.1,4.7,18.6,4.7
			c21.9,0,39.6-17.7,39.6-39.6C334.3,510.4,316.4,493,294.7,493z"/>
		<path fill="#E7E5E5" d="M295.6,492.3c-12.3,0-23.3,5.6-30.4,14.5c-11.2,13.7-32.7,8.7-37.6-7.6c-1.6-21.7,19.7-38.5,40.3-31.3
			c3.6,1.3,7.8,2,12.1,2c19.7,0,35.6-15.9,35.6-35.6c0-19.7-15.9-35.6-35.6-35.6c-19.7,0-35.6,15.9-35.6,35.6c0,2.2,0.2,4.5,0.7,6.5
			c4,22.2-16.8,41-38.5,34.9c-2.7-0.7-5.6-1.1-8.5-1.1c-16.6,0-30,13.4-30,30c0,16.6,13.4,30,30,30c8.3,0,15.9-3.4,21.5-9l0,0
			c12.3-12.5,32.9-6.3,36.9,10.1c-0.9,17-19.5,28.2-35.1,20.1c-5.6-2.9-12.1-4.7-18.6-4.7c-21.9,0-39.6,17.7-39.6,39.6
			c0,21.9,17.7,39.6,39.6,39.6s39.6-17.7,39.6-39.6c0-0.4,0-0.9,0-1.1l0,0c-0.4-18.1,18.8-30.7,35.1-22.2c5.6,2.9,12.1,4.7,18.6,4.7
			c21.9,0,39.6-17.7,39.6-39.6C335.2,510,317.6,492.3,295.6,492.3z"/>
		<path fill="#E1DFDF" d="M296.5,491.6c-12.3,0-23.3,5.6-30.4,14.5c-11.2,13.7-32.7,8.7-37.6-7.6c-1.6-21.9,19.5-38.7,40.3-31.6
			c3.6,1.3,7.8,2,12.1,2c19.7,0,35.6-15.9,35.6-35.6s-15.9-35.6-35.6-35.6c-19.7,0-35.6,15.9-35.6,35.6c0,2.2,0.2,4.5,0.7,6.5
			c4,22.2-16.8,41-38.5,34.9c-2.7-0.7-5.6-1.1-8.5-1.1c-16.6,0-30,13.4-30,30s13.4,30,30,30c8.3,0,15.9-3.4,21.5-9l0,0
			c12.3-12.5,32.9-6.3,36.9,10.1c-0.9,17-19.5,28.2-35.1,20.1c-5.6-2.9-12.1-4.7-18.6-4.7c-21.9,0-39.6,17.7-39.6,39.6
			s17.7,39.6,39.6,39.6s39.6-17.7,39.6-39.6c0-0.4,0-0.9,0-1.1l0,0c-0.4-18.1,18.8-30.7,35.1-22.2c5.6,2.9,12.1,4.7,18.6,4.7
			c21.9,0,39.6-17.7,39.6-39.6C336.1,509.3,318.4,491.6,296.5,491.6z"/>
		<path fill="#DBD9D9" d="M297.4,490.7c-12.3,0-23.3,5.6-30.4,14.5c-11.2,13.7-32.7,8.7-37.6-7.6c-1.6-21.7,19.7-38.5,40.3-31.3
			c3.6,1.3,7.8,2,12.1,2c19.7,0,35.6-15.9,35.6-35.6s-15.9-35.6-35.6-35.6c-19.7,0-35.6,15.9-35.6,35.6c0,2.2,0.2,4.5,0.7,6.5
			c4,22.2-16.8,41-38.5,34.9c-2.7-0.7-5.6-1.1-8.5-1.1c-16.6,0-30,13.4-30,30c0,16.6,13.4,30,30,30c8.3,0,15.9-3.4,21.5-9l0,0
			c12.3-12.5,32.9-6.3,36.9,10.1c-0.9,17-19.5,28.2-35.1,20.1c-5.6-2.9-12.1-4.7-18.6-4.7c-22.2-0.4-39.8,17.2-39.8,39.2
			c0,21.9,17.7,39.6,39.6,39.6s39.6-17.7,39.6-39.6c0-0.4,0-0.9,0-1.1l0,0c-0.4-18.1,18.8-30.7,35.1-22.2c5.6,2.9,12.1,4.7,18.6,4.7
			c21.9,0,39.6-17.7,39.6-39.6C337,508.7,319.3,490.7,297.4,490.7z"/>
		<path fill="#D6D4D3" d="M298.3,490.3c-12.3,0-23.3,5.6-30.4,14.5c-11.2,13.7-32.7,8.7-37.6-7.6c-1.6-21.7,19.7-38.5,40.3-31.3
			c3.6,1.3,7.8,2,12.1,2c19.7,0,35.6-15.9,35.6-35.6c0-19.7-15.9-35.6-35.6-35.6c-19.7,0-35.6,15.9-35.6,35.6c0,2.2,0.2,4.5,0.7,6.5
			c4,22.2-16.8,41-38.5,34.9c-2.7-0.7-5.6-1.1-8.5-1.1c-16.6,0-30,13.4-30,30c0,16.6,13.4,30,30,30c8.3,0,15.9-3.4,21.5-9l0,0
			c12.3-12.5,32.9-6.3,36.9,10.1c-0.9,17-19.5,28.2-35.1,20.1c-5.6-2.9-12.1-4.7-18.6-4.7c-21.9,0-39.6,17.7-39.6,39.6
			c0,21.9,17.7,39.6,39.6,39.6s39.6-17.7,39.6-39.6c0-0.4,0-0.9,0-1.1l0,0c-0.4-18.1,18.8-30.7,35.1-22.2c5.6,2.9,12.1,4.7,18.6,4.7
			c21.9,0,39.6-17.7,39.6-39.6C337.9,508,320.2,490.3,298.3,490.3z"/>
		<path fill="#D0CECE" d="M299.2,489.6c-12.3,0-23.3,5.6-30.4,14.5c-11.2,13.4-32.9,8.7-37.8-7.8c-1.6-21.7,19.7-38.5,40.3-31.3
			c3.6,1.3,7.8,2,12.1,2c19.7,0,35.6-15.9,35.6-35.6s-15.9-35.6-35.6-35.6c-19.7,0-35.6,15.9-35.6,35.6c0,2.2,0.2,4.5,0.7,6.5
			c4,22.2-16.8,41-38.5,34.9c-2.7-0.9-5.6-1.3-8.5-1.3c-16.6,0-30,13.4-30,30s13.4,30,30,30c8.3,0,15.9-3.4,21.5-9l0,0
			c12.3-12.5,32.9-6.3,36.9,10.1c-0.9,17-19.5,28.2-35.1,20.1c-5.6-2.9-12.1-4.7-18.6-4.7c-21.9,0-39.6,17.7-39.6,39.6
			c0,21.9,17.7,39.6,39.6,39.6s39.6-17.7,39.6-39.6c0-0.4,0-0.9,0-1.1l0,0c-0.4-18.1,18.8-30.7,35.1-22.2c5.6,2.9,12.1,4.7,18.6,4.7
			c21.9,0,39.6-17.7,39.6-39.6C338.8,507.5,321.1,489.6,299.2,489.6z"/>
		<path fill="#CBC9C9" d="M300.1,489c-12.3,0-23.3,5.6-30.4,14.5c-11.2,13.7-32.7,8.7-37.6-7.6c-1.6-21.7,19.7-38.5,40.3-31.3
			c3.6,1.3,7.8,2,12.1,2c19.7,0,35.6-15.9,35.6-35.6c0-19.7-15.9-35.6-35.6-35.6c-19.7,0-35.6,15.9-35.6,35.6c0,2.2,0.2,4.5,0.7,6.5
			c4,22.2-16.8,41-38.5,34.9c-2.7-0.7-5.6-1.1-8.5-1.1c-16.6,0-30,13.4-30,30s13.4,30,30,30c8.3,0,15.9-3.4,21.5-9l0,0
			c12.3-12.5,32.9-6.3,36.9,10.1c-0.9,17-19.5,28.2-35.1,20.1c-5.6-2.9-12.1-4.7-18.6-4.7c-21.9,0-39.6,17.7-39.6,39.6
			s17.7,39.6,39.6,39.6s39.6-17.7,39.6-39.6c0-0.4,0-0.9,0-1.1l0,0c-0.4-18.1,18.8-30.7,35.1-22.2c5.6,2.9,12.1,4.7,18.6,4.7
			c21.9,0,39.6-17.7,39.6-39.6C339.7,506.9,322,489,300.1,489z"/>
		<path fill="#C6C3C3" d="M301,488.3c-12.3,0-23.3,5.6-30.4,14.5c-11.2,13.7-32.7,8.7-37.6-7.6c-1.6-21.7,19.7-38.5,40.3-31.3
			c3.6,1.3,7.8,2,12.1,2c19.7,0,35.6-15.9,35.6-35.6c0-19.7-15.9-35.6-35.6-35.6c-19.7,0-35.6,15.9-35.6,35.6c0,2.2,0.2,4.5,0.7,6.5
			c4,22.2-16.8,41-38.5,34.9c-2.7-0.7-5.6-1.1-8.5-1.1c-16.6,0-30,13.4-30,30c0,16.6,13.4,30,30,30c8.3,0,15.9-3.4,21.5-9l0,0
			c12.3-12.5,32.9-6.3,36.9,10.1c-0.9,17-19.5,28.2-35.1,20.1c-5.6-2.9-12.1-4.7-18.6-4.7c-21.9,0-39.6,17.7-39.6,39.6
			c0,21.9,17.7,39.6,39.6,39.6s39.6-17.7,39.6-39.6c0-0.4,0-0.9,0-1.1l0,0c-0.4-18.1,18.8-30.7,35.1-22.2c5.6,2.9,12.1,4.7,18.6,4.7
			c21.9,0,39.6-17.7,39.6-39.6C340.8,506,322.9,488.3,301,488.3z"/>
		<path fill="#C0BEBE" d="M302.1,487.8c-12.3,0-23.3,5.6-30.4,14.5c-11.2,13.4-32.9,8.5-37.8-7.8c-1.6-21.7,19.7-38.5,40.3-31.3
			c3.6,1.3,7.8,2,12.1,2c19.7,0,35.6-15.9,35.6-35.6s-15.9-35.6-35.6-35.6c-19.7,0-35.6,15.9-35.6,35.6c0,2.2,0.2,4.5,0.7,6.5
			c4,22.2-16.8,41-38.5,34.9c-2.7-0.7-5.6-1.1-8.5-1.1c-16.6,0-30,13.4-30,30s13.4,30,30,30c8.3,0,15.9-3.4,21.5-9l0,0
			c12.3-12.5,32.9-6.3,36.9,10.1c-0.9,17-19.5,28.2-35.1,20.1c-5.6-2.9-12.1-4.7-18.6-4.7c-21.9-0.4-39.6,17.2-39.6,39.2
			s17.7,39.6,39.6,39.6s39.6-17.7,39.6-39.6c0-0.4,0-0.9,0-1.1l0,0c-0.4-18.1,18.8-30.7,35.1-22.2c5.6,2.9,12.1,4.7,18.6,4.7
			c21.9,0,39.6-17.7,39.6-39.6C341.7,505.3,323.8,487.8,302.1,487.8z"/>
		<path fill="#BBB9B9" d="M303,487.2c-12.3,0-23.3,5.6-30.4,14.5c-11.2,13.7-32.7,8.7-37.6-7.6c-1.6-21.9,19.7-38.7,40.3-31.6
			c3.6,1.3,7.8,2,12.1,2c19.7,0,35.6-15.9,35.6-35.6c0-19.7-15.9-35.6-35.6-35.6c-19.7,0-35.6,15.9-35.6,35.6c0,2.2,0.2,4.5,0.7,6.5
			c4,22.2-16.8,41-38.5,34.9c-2.7-0.7-5.6-1.1-8.5-1.1c-16.6,0-30,13.4-30,30s13.4,30,30,30c8.3,0,15.9-3.4,21.5-9l0,0
			c12.3-12.5,32.9-6.3,36.9,10.1c-0.9,17-19.5,28.2-35.1,20.1c-5.6-2.9-12.1-4.7-18.6-4.7c-21.9,0-39.6,17.7-39.6,39.6
			s17.7,39.6,39.6,39.6s39.6-17.7,39.6-39.6c0-0.4,0-0.9,0-1.1l0,0c-0.4-18.1,18.8-30.7,35.1-22.2c5.6,2.9,12.1,4.7,18.6,4.7
			c21.9,0,39.6-17.7,39.6-39.6C342.6,504.8,324.7,487.2,303,487.2z"/>
		<path fill="#B7B4B4" d="M303.9,486.5c-12.3,0-23.3,5.6-30.4,14.5c-11.2,13.7-32.7,8.7-37.6-7.6c-1.6-21.7,19.7-38.5,40.3-31.3
			c3.6,1.3,7.8,2,12.1,2c19.7,0,35.6-15.9,35.6-35.6s-15.9-35.6-35.6-35.6c-19.7,0-35.6,15.9-35.6,35.6c0,2.2,0.2,4.5,0.7,6.5
			c4,22.2-16.8,41-38.5,34.9c-2.7-0.7-5.6-1.1-8.5-1.1c-16.6,0-30,13.4-30,30c0,16.6,13.4,30,30,30c8.3,0,15.9-3.4,21.5-9l0,0
			c12.3-12.5,32.9-6.3,36.9,10.1c-0.9,17-19.5,28.2-35.1,20.1c-5.6-2.9-12.1-4.7-18.6-4.7c-21.9,0-39.6,17.7-39.6,39.6
			c0,21.9,17.7,39.6,39.6,39.6s39.6-17.7,39.6-39.6c0-0.4,0-0.9,0-1.1l0,0c-0.4-18.1,18.8-30.7,35.1-22.2c5.6,2.9,12.1,4.7,18.6,4.7
			c21.9,0,39.6-17.7,39.6-39.6C343.5,504.2,325.8,486.5,303.9,486.5z"/>
		<path fill="#B2AFAF" d="M304.8,485.8c-12.3,0-23.3,5.6-30.4,14.5c-11.2,13.7-32.7,8.7-37.6-7.6c-1.6-21.7,19.7-38.5,40.3-31.3
			c3.6,1.3,7.8,2,12.1,2c19.7,0,35.6-15.9,35.6-35.6c0-19.7-15.9-35.6-35.6-35.6c-19.7,0-35.6,15.9-35.6,35.6c0,2.2,0.2,4.5,0.7,6.5
			c4,22.2-16.8,41-38.5,34.9c-2.7-0.7-5.6-1.1-8.5-1.1c-16.6,0-30,13.4-30,30c0,16.6,13.4,30,30,30c8.3,0,15.9-3.4,21.5-9l0,0
			c12.3-12.5,32.9-6.3,36.9,10.1c-0.9,17-19.5,28.2-35.1,20.1c-5.6-2.9-12.1-4.7-18.6-4.7c-21.9,0-39.6,17.7-39.6,39.6
			c0,21.9,17.7,39.6,39.6,39.6s39.6-17.7,39.6-39.6c0-0.4,0-0.9,0-1.1l0,0c-0.4-18.1,18.8-30.7,35.1-22.2c5.6,2.9,12.1,4.7,18.6,4.7
			c21.9,0,39.6-17.7,39.6-39.6C344.4,503.5,326.7,485.8,304.8,485.8z"/>
		<path fill="#ADAAAA" d="M305.7,485.4c-12.3,0-23.3,5.6-30.4,14.5c-11.2,13.7-32.7,8.7-37.6-7.6c-1.6-21.7,19.7-38.5,40.3-31.3
			c3.6,1.3,7.8,2,12.1,2c19.7,0,35.6-15.9,35.6-35.6s-15.9-35.6-35.6-35.6s-35.6,15.9-35.6,35.6c0,2.2,0.2,4.5,0.7,6.5
			c4,22.2-16.8,41-38.5,34.9c-2.7-0.7-5.6-1.1-8.5-1.1c-16.6,0-30,13.4-30,30s13.4,30,30,30c8.3,0,15.9-3.4,21.5-9l0,0
			c12.3-12.5,32.9-6.3,36.9,10.1c-0.9,17-19.5,28.2-35.1,20.1c-5.6-2.9-12.1-4.7-18.6-4.7c-21.9,0-39.6,17.7-39.6,39.6
			c0,21.9,17.7,39.6,39.6,39.6s39.6-17.7,39.6-39.6c0-0.4,0-0.9,0-1.1l0,0c-0.4-18.1,18.8-30.7,35.1-22.2c5.6,2.9,12.1,4.7,18.6,4.7
			c21.9,0,39.6-17.7,39.6-39.6C345.3,502.8,327.6,485.4,305.7,485.4z"/>
		<path fill="#A8A5A5" d="M306.6,484.7c-12.3,0-23.3,5.6-30.4,14.5c-11.2,13.7-32.7,8.7-37.6-7.6c-1.6-21.7,19.7-38.5,40.3-31.3
			c3.6,1.3,7.8,2,12.1,2c19.7,0,35.6-15.9,35.6-35.6s-15.9-35.6-35.6-35.6c-19.7,0-35.6,15.9-35.6,35.6c0,2.2,0.2,4.5,0.7,6.5
			c4,22.2-16.8,41-38.5,34.9c-2.7-0.7-5.6-1.1-8.5-1.1c-16.6,0-30,13.4-30,30c0,16.6,13.4,30,30,30c8.3,0,15.9-3.4,21.5-9l0,0
			c12.3-12.5,32.9-6.3,36.9,10.1c-1.1,16.6-19.9,27.8-35.4,19.7c-5.6-2.9-12.1-4.7-18.6-4.7c-21.9-0.2-39.6,17.5-39.6,39.4
			c0,21.9,17.7,39.6,39.6,39.6s39.6-17.7,39.6-39.6c0-0.4,0-0.9,0-1.1l0,0c-0.4-18.1,18.8-30.7,35.1-22.2c5.6,2.9,12.1,4.7,18.6,4.7
			c21.9,0,39.6-17.7,39.6-39.6C346.2,502.4,328.5,484.7,306.6,484.7z"/>
		<path fill="#A4A1A1" d="M307.5,484c-12.3,0-23.3,5.6-30.4,14.5c-11.2,13.7-32.7,8.7-37.6-7.6c-1.6-21.9,19.7-38.7,40.3-31.6
			c3.6,1.3,7.8,2,12.1,2c19.7,0,35.6-15.9,35.6-35.6c0-19.7-15.9-35.6-35.6-35.6c-19.7,0-35.6,15.9-35.6,35.6c0,2.2,0.2,4.5,0.7,6.5
			c4,22.2-16.8,41-38.5,34.9c-2.7-0.7-5.6-1.1-8.5-1.1c-16.6,0-30,13.4-30,30c0,16.6,13.4,30,30,30c8.3,0,15.9-3.4,21.5-9l0,0
			c12.3-12.5,32.9-6.3,36.9,10.1c-0.9,17-19.5,28.2-35.1,20.1c-5.6-2.9-12.1-4.7-18.6-4.7c-21.9,0-39.6,17.7-39.6,39.6
			c0,21.9,17.7,39.6,39.6,39.6s39.6-17.7,39.6-39.6c0-0.4,0-0.9,0-1.1l0,0c-0.4-18.1,18.8-30.7,35.1-22.2c5.6,2.9,12.1,4.7,18.6,4.7
			c21.9,0,39.6-17.7,39.6-39.6C347.1,501.7,329.4,484,307.5,484z"/>
		<path fill="#9F9C9C" d="M308.4,483.1c-12.3,0-23.3,5.6-30.4,14.5c-11.2,13.7-32.7,8.7-37.6-7.6c-1.6-21.7,19.7-38.5,40.3-31.3
			c3.6,1.3,7.8,2,12.1,2c19.7,0,35.6-15.9,35.6-35.6c0-19.7-15.9-35.6-35.6-35.6c-19.7,0-35.6,15.9-35.6,35.6c0,2.2,0.2,4.5,0.7,6.5
			c4,22.2-16.8,41-38.5,34.9c-2.7-0.7-5.6-1.1-8.5-1.1c-16.6,0-30,13.4-30,30s13.4,30,30,30c8.3,0,15.9-3.4,21.5-9l0,0
			c12.3-12.5,32.9-6.3,36.9,10.1c-0.9,17-19.5,28.2-35.1,20.1c-5.6-2.9-12.1-4.7-18.6-4.7c-21.9,0-39.6,17.7-39.6,39.6
			s17.7,39.6,39.6,39.6s39.6-17.7,39.6-39.6c0-0.4,0-0.9,0-1.1l0,0c-0.4-18.1,18.8-30.7,35.1-22.2c5.6,2.9,12.1,4.7,18.6,4.7
			c21.9,0,39.6-17.7,39.6-39.6C348.2,501,330.3,483.1,308.4,483.1z"/>
		<path fill="#9B9898" d="M309.3,482.7c-12.3,0-23.3,5.6-30.4,14.5c-11.2,13.7-32.7,8.7-37.6-7.6c-1.6-21.7,19.7-38.5,40.3-31.3
			c3.6,1.3,7.8,2,12.1,2c19.7,0,35.6-15.9,35.6-35.6s-15.9-35.6-35.6-35.6c-19.7,0-35.6,15.9-35.6,35.6c0,2.2,0.2,4.5,0.7,6.5
			c4,22.2-16.8,41-38.5,34.9c-2.7-0.7-5.6-1.1-8.5-1.1c-16.6,0-30,13.4-30,30c0,16.6,13.4,30,30,30c8.3,0,15.9-3.4,21.5-9l0,0
			c12.3-12.5,32.9-6.3,36.9,10.1c-0.9,17-19.5,28.2-35.1,20.1c-5.6-2.9-12.1-4.7-18.6-4.7c-21.9,0-39.6,17.7-39.6,39.6
			s17.7,39.6,39.6,39.6s39.6-17.7,39.6-39.6c0-0.4,0-0.9,0-1.1l0,0c-0.4-18.1,18.8-30.7,35.1-22.2c5.6,2.9,12.1,4.7,18.6,4.7
			c21.5-0.7,39.2-18.4,39.2-40.3C349.1,500.4,331.2,482.7,309.3,482.7z"/>
		<path fill="#969393" d="M310.4,482c-12.3,0-23.3,5.6-30.4,14.5c-11.2,13.7-32.7,8.7-37.6-7.6c-1.6-21.7,19.7-38.5,40.3-31.3
			c3.6,1.3,7.8,2,12.1,2c19.7,0,35.6-15.9,35.6-35.6c0-19.7-15.9-35.6-35.6-35.6c-19.7,0-35.6,15.9-35.6,35.6c0,2.2,0.2,4.5,0.7,6.5
			c4,22.2-16.8,41-38.5,34.9c-2.7-0.7-5.6-1.1-8.5-1.1c-16.6,0-30,13.4-30,30s13.4,30,30,30c8.3,0,15.9-3.4,21.5-9l0,0
			c12.3-12.5,32.9-6.3,36.9,10.1c-0.9,17-19.5,28.2-35.1,20.1c-5.6-2.9-12.1-4.7-18.6-4.7c-21.9,0-39.6,17.7-39.6,39.6
			c0,21.9,17.7,39.6,39.6,39.6s39.6-17.7,39.6-39.6c0-0.4,0-0.9,0-1.1l0,0c-0.4-18.1,18.8-30.7,35.1-22.2c5.6,2.9,12.1,4.7,18.6,4.7
			c21.9,0,39.6-17.7,39.6-39.6C350,499.9,332.1,482,310.4,482z"/>
		<path fill="#928F8F" d="M311.3,481.3c-12.3,0-23.3,5.6-30.4,14.5c-11.2,13.7-32.7,8.7-37.6-7.6c-1.6-21.7,19.7-38.5,40.3-31.3
			c3.6,1.3,7.8,2,12.1,2c19.7,0,35.6-15.9,35.6-35.6s-15.9-35.6-35.6-35.6c-19.7,0-35.6,15.9-35.6,35.6c0,2.2,0.2,4.5,0.7,6.5
			c4,22.2-16.8,41-38.5,34.9c-2.7-0.7-5.6-1.1-8.5-1.1c-16.6,0-30,13.4-30,30s13.4,30,30,30c8.3,0,15.9-3.4,21.5-9l0,0
			c12.3-12.5,32.9-6.3,36.9,10.1c-0.9,17-19.5,28.2-35.1,20.1c-5.6-2.9-12.1-4.7-18.6-4.7c-22.2-0.4-39.8,17.2-39.8,38.9
			c0,21.9,17.7,39.6,39.6,39.6s39.6-17.7,39.6-39.6c0-0.4,0-0.9,0-1.1l0,0c-0.4-18.1,18.8-30.7,35.1-22.2c5.6,2.9,12.1,4.7,18.6,4.7
			c21.9,0,39.6-17.7,39.6-39.6C350.9,499.3,333.2,481.3,311.3,481.3z"/>
		<path fill="#8D8A8A" d="M312.2,480.7c-12.3,0-23.3,5.6-30.4,14.5c-11.2,13.7-32.7,8.7-37.6-7.6c-1.6-21.9,19.7-38.7,40.3-31.6
			c3.6,1.3,7.8,2,12.1,2c19.7,0,35.6-15.9,35.6-35.6s-15.9-35.6-35.6-35.6c-19.7,0-35.6,15.9-35.6,35.6c0,2.2,0.2,4.5,0.7,6.5
			c4,22.2-16.8,41-38.5,34.9c-2.7-0.7-5.6-1.1-8.5-1.1c-16.6,0-30,13.4-30,30s13.4,30,30,30c8.3,0,15.9-3.4,21.5-9l0,0
			c12.3-12.5,32.9-6.3,36.9,10.1c-0.9,17-19.5,28.2-35.1,20.1c-5.6-2.9-12.1-4.7-18.6-4.7c-21.9,0-39.6,17.7-39.6,39.6
			c0,21.9,17.7,39.6,39.6,39.6s39.6-17.7,39.6-39.6c0-0.4,0-0.9,0-1.1l0,0c-0.4-18.1,18.8-30.7,35.1-22.2c5.6,2.9,12.1,4.7,18.6,4.7
			c21.9,0,39.6-17.7,39.6-39.6C351.8,498.4,334.1,480.7,312.2,480.7z"/>
		<path fill="#898686" d="M313.1,480.2c-12.3,0-23.3,5.6-30.4,14.5c-11.2,13.7-32.7,8.7-37.6-7.6c-1.6-21.7,19.7-38.5,40.3-31.3
			c3.6,1.3,7.8,2,12.1,2c19.7-0.2,35.6-16.3,35.6-36s-15.9-35.6-35.6-35.6c-19.7,0-35.6,15.9-35.6,35.6c0,2.2,0.2,4.5,0.7,6.5
			c4,22.2-16.8,41-38.5,34.9c-2.7-0.7-5.6-1.1-8.5-1.1c-16.6,0-30,13.4-30,30s13.4,30,30,30c8.3,0,15.9-3.4,21.5-9l0,0
			c12.3-12.5,32.9-6.3,36.9,10.1c-0.9,17-19.5,28.2-35.1,20.1c-5.6-2.9-12.1-4.7-18.6-4.7c-21.9,0-39.6,17.7-39.6,39.6
			c0,21.9,17.7,39.6,39.6,39.6s39.6-17.7,39.6-39.6c0-0.4,0-0.9,0-1.1l0,0c-0.4-18.1,18.8-30.7,35.1-22.2c5.6,2.9,12.1,4.7,18.6,4.7
			c21.9,0,39.6-17.7,39.6-39.6C352.7,497.9,335,480.2,313.1,480.2z"/>
		<path fill="#858282" d="M314,479.6c-12.3,0-23.3,5.6-30.4,14.5c-11.2,13.7-32.7,8.7-37.6-7.6c-1.6-21.7,19.7-38.5,40.3-31.3
			c3.6,1.3,7.8,2,12.1,2c19.7,0,35.6-15.9,35.6-35.6S318,386,298.3,386c-19.7,0-35.6,15.9-35.6,35.6c0,2.2,0.2,4.5,0.7,6.5
			c4,22.2-16.8,41-38.5,34.9c-2.7-0.7-5.6-1.1-8.5-1.1c-16.6,0-30,13.4-30,30c0,16.6,13.4,30,30,30c8.3,0,15.9-3.4,21.5-9l0,0
			c12.3-12.5,32.9-6.3,36.9,10.1c-0.9,17-19.5,28.2-35.1,20.1c-5.6-2.9-12.1-4.7-18.6-4.7c-21.9,0-39.6,17.7-39.6,39.6
			c0,21.9,17.7,39.6,39.6,39.6s39.6-17.7,39.6-39.6c0-0.4,0-0.9,0-1.1l0,0c-0.4-18.1,18.8-30.7,35.1-22.2c5.6,2.9,12.1,4.7,18.6,4.7
			c21.9,0,39.6-17.7,39.6-39.6C353.6,497.2,335.9,479.6,314,479.6z"/>
		<path fill="#817E7E" d="M314.9,478.9c-12.3,0-23.3,5.6-30.4,14.5c-11.2,13.7-32.7,8.7-37.6-7.6c-1.6-21.7,19.7-38.5,40.3-31.3
			c3.6,1.3,7.8,2,12.1,2c19.7,0,35.6-15.9,35.6-35.6c0-19.7-15.9-35.6-35.6-35.6s-35.6,15.9-35.6,35.6c0,2.2,0.2,4.5,0.7,6.5
			c4,22.2-16.8,41-38.5,34.9c-2.7-0.7-5.6-1.1-8.5-1.1c-16.6,0-30,13.4-30,30s13.4,30,30,30c8.3,0,15.9-3.4,21.5-9l0,0
			c12.3-12.5,32.9-6.3,36.9,10.1c-0.9,17-19.5,28.2-35.1,20.1c-5.6-2.9-12.1-4.7-18.6-4.7c-21.9,0-39.6,17.7-39.6,39.6
			c0,21.9,17.7,39.6,39.6,39.6s39.6-17.7,39.6-39.6c0-0.4,0-0.9,0-1.1l0,0c-0.4-18.1,18.8-30.7,35.1-22.2c5.6,2.9,12.1,4.7,18.6,4.7
			c21.9,0,39.6-17.7,39.6-39.6C354.5,496.6,336.8,478.9,314.9,478.9z"/>
		<path fill="#7D7A7A" d="M315.8,478.2c-12.3,0-23.3,5.6-30.4,14.5c-11.2,13.7-32.7,8.7-37.6-7.6c-1.6-21.7,19.7-38.5,40.3-31.3
			c3.6,1.3,7.8,2,12.1,2c19.7,0,35.6-15.9,35.6-35.6s-15.9-35.6-35.6-35.6c-19.7,0-35.6,15.9-35.6,35.6c0,2.2,0.2,4.5,0.7,6.5
			c4,22.2-16.8,41-38.5,34.9c-2.7-0.7-5.6-1.1-8.5-1.1c-16.6,0-30,13.4-30,30s13.4,30,30,30c8.3,0,15.9-3.4,21.5-9l0,0
			c12.3-12.5,32.9-6.3,36.9,10.1c-1.1,16.8-19.9,28-35.4,19.7c-5.6-2.9-12.1-4.7-18.6-4.7c-21.9,0-39.6,17.7-39.6,39.6
			c0,21.9,17.7,39.6,39.6,39.6s39.6-17.7,39.6-39.6c0-0.4,0-0.9,0-1.1l0,0c-0.4-18.1,18.8-30.7,35.1-22.2c5.6,2.9,12.1,4.7,18.6,4.7
			c21.9,0,39.6-17.7,39.6-39.6C355.4,495.9,337.7,478.2,315.8,478.2z"/>
		<path fill="#797676" d="M316.7,477.8c-12.3,0-23.3,5.6-30.4,14.5c-11.2,13.7-32.7,8.7-37.6-7.6c-1.6-21.9,19.7-38.7,40.3-31.6
			c3.6,1.3,7.8,2,12.1,2c19.7,0,35.6-15.9,35.6-35.6c0-19.7-15.9-35.6-35.6-35.6c-19.7,0-35.6,15.9-35.6,35.6c0,2.2,0.2,4.5,0.7,6.5
			c4,22.2-16.8,41-38.5,34.9c-2.7-0.7-5.6-1.1-8.5-1.1c-16.6,0-30,13.4-30,30s13.4,30,30,30c8.3,0,15.9-3.4,21.5-9l0,0
			c12.3-12.5,32.9-6.3,36.9,10.1c-0.9,17-19.5,28.2-35.1,20.1c-5.6-2.9-12.1-4.7-18.6-4.7c-21.9,0-39.6,17.7-39.6,39.6
			c0,21.9,17.7,39.6,39.6,39.6s39.6-17.7,39.6-39.6c0-0.4,0-0.9,0-1.1l0,0c-0.4-18.1,18.8-30.7,35.1-22.2c5.6,2.9,12.1,4.7,18.6,4.7
			c21.9,0,39.6-17.7,39.6-39.6C356.5,495.4,338.6,477.8,316.7,477.8z"/>
		<path fill="#757272" d="M317.8,477.1c-12.3,0-23.3,5.6-30.4,14.5c-11.2,13.7-32.7,8.7-37.6-7.6c-1.6-21.7,19.7-38.5,40.3-31.3
			c3.6,1.3,7.8,2,12.1,2c19.7,0,35.6-15.9,35.6-35.6s-15.9-35.6-35.6-35.6s-35.6,15.9-35.6,35.6c0,2.2,0.2,4.5,0.7,6.5
			c4,22.2-16.8,41-38.5,34.9c-2.7-0.7-5.6-1.1-8.5-1.1c-16.6,0-30,13.4-30,30s13.4,30,30,30c8.3,0,15.9-3.4,21.5-9l0,0
			c12.3-12.5,32.9-6.3,36.9,10.1c-0.9,17-19.5,28.2-35.1,20.1c-5.6-2.9-12.1-4.7-18.6-4.7c-21.9,0-39.6,17.7-39.6,39.6
			c0,21.9,17.7,39.6,39.6,39.6s39.6-17.7,39.6-39.6c0-0.4,0-0.9,0-1.1l0,0c-0.4-18.1,18.8-30.7,35.1-22.2c5.6,2.9,12.1,4.7,18.6,4.7
			c21.9,0,39.6-17.7,39.6-39.6C357.4,494.8,339.5,477.1,317.8,477.1z"/>
		<path fill="#716E6E" d="M318.7,476.4c-12.3,0-23.3,5.6-30.4,14.5c-11.2,13.7-32.7,8.7-37.6-7.6c-1.6-21.7,19.7-38.5,40.3-31.3
			c3.6,1.3,7.8,2,12.1,2c19.7,0,35.6-15.9,35.6-35.6s-15.9-35.6-35.6-35.6c-19.7,0-35.6,15.9-35.6,35.6c0,2.2,0.2,4.5,0.7,6.5
			c4,22.2-16.8,41-38.5,34.9c-2.7-0.7-5.6-1.1-8.5-1.1c-16.6,0-30,13.4-30,30s13.4,30,30,30c8.3,0,15.9-3.4,21.5-9l0,0
			c12.3-12.5,32.9-6.3,36.9,10.1c-0.9,17-19.5,28.2-35.1,20.1c-5.6-2.9-12.1-4.7-18.6-4.7c-21.9,0-39.6,17.7-39.6,39.6
			c0,21.9,17.7,39.6,39.6,39.6s39.6-17.7,39.6-39.6c0-0.4,0-0.9,0-1.1l0,0c-0.4-18.1,18.8-30.7,35.1-22.2c5.6,2.9,12.1,4.7,18.6,4.7
			c21.9,0,39.6-17.7,39.6-39.6C358.3,494.1,340.6,476.4,318.7,476.4z"/>
		<path fill="#6D6A6A" d="M319.6,475.5c-12.3,0-23.3,5.6-30.4,14.5c-11.2,13.7-32.7,8.7-37.6-7.6c-1.6-21.9,19.7-38.7,40.3-31.6
			c3.6,1.3,7.8,2,12.1,2c19.7,0,35.6-15.9,35.6-35.6s-15.9-35.6-35.6-35.6c-19.7,0-35.6,15.9-35.6,35.6c0,2.2,0.2,4.5,0.7,6.5
			c4,22.2-16.8,41-38.5,34.9c-2.7-0.7-5.6-1.1-8.5-1.1c-16.6,0-30,13.4-30,30c0,16.6,13.4,30,30,30c8.3,0,15.9-3.4,21.5-9l0,0
			c12.3-12.5,32.9-6.3,36.9,10.1c-0.9,17-19.5,28.2-35.1,20.1c-5.6-2.9-12.1-4.7-18.6-4.7c-21.9,0-39.6,17.7-39.6,39.6
			s17.7,39.6,39.6,39.6s39.6-17.7,39.6-39.6c0-0.4,0-0.9,0-1.1l0,0c-0.4-18.1,18.8-30.7,35.1-22.2c5.6,2.9,12.1,4.7,18.6,4.7
			c21.9,0,39.6-17.7,39.6-39.6C359.2,493.4,341.5,475.5,319.6,475.5z"/>
		<path fill="#6A6766" d="M320.5,475.1c-12.3,0-23.3,5.6-30.4,14.5c-11.2,13.7-32.7,8.7-37.6-7.6c-1.6-21.7,19.7-38.5,40.3-31.3
			c3.6,1.3,7.8,2,12.1,2c19.7,0,35.6-15.9,35.6-35.6s-15.9-35.6-35.6-35.6c-19.7,0-35.6,15.9-35.6,35.6c0,2.2,0.2,4.5,0.7,6.5
			c4,22.2-16.8,41-38.5,34.9c-2.7-0.7-5.6-1.1-8.5-1.1c-16.6,0-30,13.4-30,30s13.4,30,30,30c8.3,0,15.9-3.4,21.5-9l0,0
			c12.3-12.5,32.9-6.3,36.9,10.1c-0.9,17-19.5,28.2-35.1,20.1c-5.6-2.9-12.1-4.7-18.6-4.7c-22.2-0.7-39.8,17-39.8,38.9
			c0,21.9,17.7,39.6,39.6,39.6s39.6-17.7,39.6-39.6c0-0.4,0-0.9,0-1.1l0,0c-0.4-18.1,18.8-30.7,35.1-22.2c5.6,2.9,12.1,4.7,18.6,4.7
			c21.9,0,39.6-17.7,39.6-39.6C360.1,493,342.4,475.1,320.5,475.1z"/>
		<path fill="#666363" d="M321.4,474.4c-12.3,0-23.3,5.6-30.4,14.5c-11.2,13.7-32.7,8.7-37.6-7.6c-1.6-21.9,19.7-38.7,40.3-31.6
			c3.6,1.3,7.8,2,12.1,2c19.7,0,35.6-15.9,35.6-35.6s-15.9-35.6-35.6-35.6c-19.7,0-35.6,15.9-35.6,35.6c0,2.2,0.2,4.5,0.7,6.5
			c4,22.2-16.8,41-38.5,34.9c-2.7-0.7-5.6-1.1-8.5-1.1c-16.6,0-30,13.4-30,30s13.4,30,30,30c8.3,0,15.9-3.4,21.5-9l0,0
			c12.3-12.5,32.9-6.3,36.9,10.1c-0.9,17-19.5,28.2-35.1,20.1c-5.6-2.9-12.1-4.7-18.6-4.7c-21.9,0-39.6,17.7-39.6,39.6
			c0,21.9,17.7,39.6,39.6,39.6s39.6-17.7,39.6-39.6c0-0.4,0-0.9,0-1.1l0,0c-0.4-18.1,18.8-30.7,35.1-22.2c5.6,2.9,12.1,4.7,18.6,4.7
			c21.9,0,39.6-17.7,39.6-39.6C361,492.3,343.3,474.4,321.4,474.4z"/>
		<path fill="#62605F" d="M322.3,473.7c-12.3,0-23.3,5.6-30.4,14.5c-11.2,13.7-32.7,8.7-37.6-7.6c-1.6-21.7,19.7-38.5,40.3-31.3
			c3.6,1.3,7.8,2,12.1,2c19.7,0,35.6-15.9,35.6-35.6c0-19.7-15.9-35.6-35.6-35.6S271,396.1,271,415.8c0,2.2,0.2,4.5,0.7,6.5
			c4,22.2-16.8,41-38.5,34.9c-2.7-0.7-5.6-1.1-8.5-1.1c-16.6,0-30,13.4-30,30s13.4,30,30,30c8.3,0,15.9-3.4,21.5-9l0,0
			c12.3-12.5,32.9-6.3,36.9,10.1c-0.9,17-19.5,28.2-35.1,20.1c-5.6-2.9-12.1-4.7-18.6-4.7c-21.9,0-39.6,17.7-39.6,39.6
			c0,21.9,17.7,39.6,39.6,39.6s39.6-17.7,39.6-39.6c0-0.4,0-0.9,0-1.1l0,0c-0.4-18.1,18.8-30.7,35.1-22.2c5.6,2.9,12.1,4.7,18.6,4.7
			c21.9,0,39.6-17.7,39.6-39.6C361.9,491.6,344.2,473.7,322.3,473.7z"/>
		<path fill="#5F5C5C" d="M323.1,473.1c-12.3,0-23.3,5.6-30.4,14.5c-11.2,13.7-32.7,8.7-37.6-7.6c-1.6-21.7,19.7-38.5,40.3-31.3
			c3.6,1.3,7.8,2,12.1,2c19.7,0,35.6-15.9,35.6-35.6c0-19.9-15.9-36-35.6-36c-19.9,0-35.8,16.1-35.8,35.8c0,2.2,0.2,4.5,0.7,6.5
			c4,22.2-16.8,41-38.5,34.9c-2.7-0.7-5.6-1.1-8.5-1.1c-16.6,0-30,13.4-30,30s13.4,30,30,30c8.3,0,15.9-3.4,21.5-9l0,0
			c12.3-12.5,32.9-6.3,36.9,10.1c-0.9,17-19.5,28.2-35.1,20.1c-5.6-2.9-12.1-4.7-18.6-4.7c-21.9,0-39.6,17.7-39.6,39.6
			s17.7,39.6,39.6,39.6s39.6-17.7,39.6-39.6c0-0.4,0-0.9,0-1.1l0,0c-0.4-18.1,18.8-30.7,35.1-22.2c5.6,2.9,12.1,4.7,18.6,4.7
			c21.9,0,39.6-17.7,39.6-39.6C362.8,490.7,345.1,473.1,323.1,473.1z"/>
		<path fill="#5C5958" d="M324,472.6c-12.3,0-23.3,5.6-30.4,14.5c-11.2,13.7-32.7,8.7-37.6-7.6c-1.6-21.9,19.7-38.7,40.3-31.6
			c3.6,1.3,7.8,2,12.1,2c19.7,0,35.6-15.9,35.6-35.6c0-19.7-15.9-35.6-35.6-35.6c-19.7,0-35.6,15.9-35.6,35.6c0,2.2,0.2,4.5,0.7,6.5
			c4,22.2-16.8,41-38.5,34.9c-2.7-0.7-5.6-1.1-8.5-1.1c-16.6,0-30,13.4-30,30c0,16.6,13.4,30,30,30c8.3,0,15.9-3.4,21.5-9l0,0
			c12.3-12.5,32.9-6.3,36.9,10.1c-0.9,17-19.5,28.2-35.1,20.1c-5.6-2.9-12.1-4.7-18.6-4.7c-21.9,0-39.6,17.7-39.6,39.6
			c0,21.9,17.7,39.6,39.6,39.6s39.6-17.7,39.6-39.6c0-0.4,0-0.9,0-1.1l0,0c-0.4-18.1,18.8-30.7,35.1-22.2c5.6,2.9,12.1,4.7,18.6,4.7
			c21.9,0,39.6-17.7,39.6-39.6C363.9,490.3,346,472.6,324,472.6z"/>
		<path fill="#585555" d="M325.2,471.9c-12.3,0-23.3,5.6-30.4,14.5c-11.2,13.7-32.7,8.7-37.6-7.6c-1.6-21.7,19.7-38.5,40.3-31.3
			c3.6,1.3,7.8,2,12.1,2c19.7,0,35.6-15.9,35.6-35.6s-15.9-35.6-35.6-35.6c-19.7,0-35.6,15.9-35.6,35.6c0,2.2,0.2,4.5,0.7,6.5
			c4,22.2-16.8,41-38.5,34.9c-2.7-0.7-5.6-1.1-8.5-1.1c-16.6,0-30,13.4-30,30s13.4,30,30,30c8.3,0,15.9-3.4,21.5-9l0,0
			c12.3-12.5,32.9-6.3,36.9,10.1c-1.1,16.6-19.9,27.8-35.4,19.7c-5.6-2.9-12.1-4.7-18.6-4.7c-21.9,0-39.6,17.7-39.6,39.6
			c0,21.9,17.7,39.6,39.6,39.6s39.6-17.7,39.6-39.6c0-0.4,0-0.9,0-1.1l0,0c-0.4-18.1,18.8-30.7,35.1-22.2c5.6,2.9,12.1,4.7,18.6,4.7
			c21.9,0,39.6-17.7,39.6-39.6C364.8,489.6,346.9,471.9,325.2,471.9z"/>
		<path fill="#555252" d="M326.1,471.3c-12.3,0-23.3,5.6-30.4,14.5c-11.2,13.4-32.7,8.7-37.6-7.8c-1.6-21.7,19.7-38.5,40.3-31.3
			c3.6,1.3,7.8,2,12.1,2c19.7,0,35.6-15.9,35.6-35.6s-15.9-35.6-35.6-35.6c-19.7,0-35.6,15.9-35.6,35.6c0,2.2,0.2,4.5,0.7,6.5
			c4,22.2-16.8,41-38.5,34.9c-2.7-0.7-5.6-1.1-8.5-1.1c-16.6,0-30,13.4-30,30s13.4,30,30,30c8.3,0,15.9-3.4,21.5-9l0,0
			c12.3-12.5,32.9-6.3,36.9,10.1c-0.9,17-19.5,28.2-35.1,20.1c-5.6-2.9-12.1-4.7-18.6-4.7c-21.9,0-39.6,17.7-39.6,39.6
			s17.7,39.6,39.6,39.6s39.6-17.7,39.6-39.6c0-0.4,0-0.9,0-1.1l0,0c-0.4-18.1,18.8-30.7,35.1-22.2c5.6,2.9,12.1,4.7,18.6,4.7
			c21.9,0,39.6-17.7,39.6-39.6C365.7,489,347.8,471.3,326.1,471.3z"/>
		<path fill="#524F4F" d="M327,470.6c-12.3,0-23.3,5.6-30.4,14.5c-11.2,13.7-32.7,8.7-37.6-7.6c-1.6-21.7,19.7-38.5,40.3-31.3
			c3.6,1.3,7.8,2,12.1,2c19.7,0,35.6-15.9,35.6-35.6c0-19.7-15.9-35.6-35.6-35.6c-19.7,0-35.6,15.9-35.6,35.6c0,2.2,0.2,4.5,0.7,6.5
			c4,22.2-16.8,41-38.5,34.9c-2.7-0.7-5.6-1.1-8.5-1.1c-16.6,0-30,13.4-30,30s13.4,30,30,30c8.3,0,15.9-3.4,21.5-9l0,0
			c12.3-12.5,32.9-6.3,36.9,10.1c-0.9,17-19.5,28.2-35.1,20.1c-5.6-2.9-12.1-4.7-18.6-4.7c-21.9,0-39.6,17.7-39.6,39.6
			s17.7,39.6,39.6,39.6s39.6-17.7,39.6-39.6c0-0.4,0-0.9,0-1.1l0,0c-0.4-18.1,18.8-30.7,35.1-22.2c5.6,2.9,12.1,4.7,18.6,4.7
			c21.9,0,39.6-17.7,39.6-39.6C366.6,488.3,348.9,470.6,327,470.6z"/>
		<path fill="#4F4C4B" d="M327.8,470.2c-12.3,0-23.3,5.6-30.4,14.5c-11.2,13.7-32.7,8.7-37.6-7.6c-1.6-21.7,19.7-38.5,40.3-31.3
			c3.6,1.3,7.8,2,12.1,2c19.7,0,35.6-15.9,35.6-35.6s-15.9-35.6-35.6-35.6c-19.7,0-35.6,15.9-35.6,35.6c0,2.2,0.2,4.5,0.7,6.5
			c4,22.2-16.8,41-38.5,34.9c-2.7-0.7-5.6-1.1-8.5-1.1c-16.6,0-30,13.4-30,30s13.4,30,30,30c8.3,0,15.9-3.4,21.5-9l0,0
			c12.3-12.5,32.9-6.3,36.9,10.1c-0.9,17-19.5,28.2-35.1,20.1c-5.6-2.9-12.1-4.7-18.6-4.7c-21.9,0-39.6,17.7-39.6,39.6
			c0,21.9,17.7,39.6,39.6,39.6s39.6-17.7,39.6-39.6c0-0.4,0-0.9,0-1.1l0,0c-0.4-18.1,18.8-30.7,35.1-22.2c5.6,2.9,12.1,4.7,18.6,4.7
			c21.5-0.7,39.2-18.4,39.2-40.3C367.5,487.8,349.8,470.2,327.8,470.2z"/>
		<path fill="#4B4948" d="M328.7,469.5c-12.3,0-23.3,5.6-30.4,14.5c-11.2,13.7-32.7,8.7-37.6-7.6c-1.6-21.7,19.7-38.5,40.3-31.3
			c3.6,1.3,7.8,2,12.1,2c19.7,0,35.6-15.9,35.6-35.6c0-19.7-15.9-35.6-35.6-35.6c-19.7,0-35.6,15.9-35.6,35.6c0,2.2,0.2,4.5,0.7,6.5
			c4,22.2-16.8,41-38.5,34.9c-2.7-0.7-5.6-1.1-8.5-1.1c-16.6,0-30,13.4-30,30s13.4,30,30,30c8.3,0,15.9-3.4,21.5-9l0,0
			c12.3-12.5,32.9-6.3,36.9,10.1c-0.9,17-19.5,28.2-35.1,20.1c-5.6-2.9-12.1-4.7-18.6-4.7c-21.9,0-39.6,17.7-39.6,39.6
			c0,21.9,17.7,39.6,39.6,39.6s39.6-17.7,39.6-39.6c0-0.4,0-0.9,0-1.1l0,0c-0.4-18.1,18.8-30.7,35.1-22.2c5.6,2.9,12.1,4.7,18.6,4.7
			c21.9,0,39.6-17.7,39.6-39.6C368.4,487.2,350.7,469.5,328.7,469.5z"/>
		<path fill="#484645" d="M329.6,468.8c-12.3,0-23.3,5.6-30.4,14.5c-11.2,13.7-32.7,8.7-37.6-7.6c-1.6-21.7,19.7-38.5,40.3-31.3
			c3.6,1.3,7.8,2,12.1,2c19.7,0,35.6-15.9,35.6-35.6s-15.9-35.6-35.6-35.6c-19.7,0-35.6,15.9-35.6,35.6c0,2.2,0.2,4.5,0.7,6.5
			c4,22.2-16.8,41-38.5,34.9c-2.7-0.7-5.6-1.1-8.5-1.1c-16.6,0-30,13.4-30,30s13.4,30,30,30c8.3,0,15.9-3.4,21.5-9l0,0
			c12.3-12.5,32.9-6.3,36.9,10.1c-0.9,17-19.5,28.2-35.1,20.1c-5.6-2.9-12.1-4.7-18.6-4.7c-21.9,0-39.6,17.7-39.6,39.6
			c0,21.9,17.7,39.6,39.6,39.6s39.6-17.9,39.6-39.8c0-0.4,0-0.9,0-1.1l0,0c-0.4-18.1,18.8-30.7,35.1-22.2c5.6,2.9,12.1,4.7,18.6,4.7
			c21.9,0,39.6-17.7,39.6-39.6C369.3,486.5,351.6,468.8,329.6,468.8z"/>
		<path fill="#454342" d="M330.5,467.9c-12.3,0-23.3,5.6-30.4,14.5c-11.2,13.7-32.7,8.7-37.6-7.6c-1.6-21.9,19.7-38.7,40.3-31.6
			c3.6,1.3,7.8,2,12.1,2c19.7,0,35.6-15.9,35.6-35.6s-15.9-35.6-35.6-35.6c-19.7,0-35.6,15.9-35.6,35.6c0,2.2,0.2,4.5,0.7,6.5
			c4,22.2-16.8,41-38.5,34.9c-2.7-0.7-5.6-1.1-8.5-1.1c-16.6,0-30,13.4-30,30s13.4,30,30,30c8.3,0,15.9-3.4,21.5-9l0,0
			c12.3-12.5,32.9-6.3,36.9,10.1c-0.9,17-19.5,28.2-35.1,20.1c-5.6-2.9-12.1-4.7-18.6-4.7c-21.9,0-39.6,17.7-39.6,39.6
			c0,21.9,17.7,39.6,39.6,39.6s39.6-17.7,39.6-39.6c0-0.4,0-0.9,0-1.1l0,0c-0.4-18.1,18.8-30.7,35.1-22.2c5.6,2.9,12.1,4.7,18.6,4.7
			c21.9,0,39.6-17.7,39.6-39.6C370.1,485.8,352.5,467.9,330.5,467.9z"/>
		<path fill="#424040" d="M331.4,467.5c-12.3,0-23.3,5.6-30.4,14.5c-11.2,13.7-32.7,8.7-37.6-7.6c-1.6-21.7,19.7-38.5,40.3-31.3
			c3.6,1.3,7.8,2,12.1,2c19.7-0.2,35.6-16.3,35.6-36s-15.9-35.6-35.6-35.6c-19.9,0-35.8,15.9-35.8,35.6c0,2.2,0.2,4.5,0.7,6.5
			c4,22.2-16.8,41-38.5,34.9c-2.7-0.7-5.6-1.1-8.5-1.1c-16.6,0-30,13.4-30,30s13.4,30,30,30c8.3,0,15.9-3.4,21.5-9l0,0
			c12.3-12.5,32.9-6.3,36.9,10.1c-0.9,17-19.5,28.2-35.1,20.1c-5.6-2.9-12.1-4.7-18.6-4.7c-21.9,0-39.6,17.7-39.6,39.6
			c0,21.9,17.7,39.6,39.6,39.6s39.6-17.7,39.6-39.6c0-0.4,0-0.9,0-1.1l0,0c-0.4-18.1,18.8-30.7,35.1-22.2c5.6,2.9,12.1,4.7,18.6,4.7
			c21.9,0,39.6-17.7,39.6-39.6C371.3,485.4,353.4,467.5,331.4,467.5z"/>
		<path fill="#3F3D3D" d="M332.3,466.8c-12.3,0-23.3,5.6-30.4,14.5c-11.2,13.7-32.7,8.7-37.6-7.6c-1.6-21.7,19.7-38.5,40.3-31.3
			c3.6,1.3,7.8,2,12.1,2c19.7,0,35.6-15.9,35.6-35.6s-15.9-35.6-35.6-35.6c-19.7,0-35.6,15.9-35.6,35.6c0,2.2,0.2,4.5,0.7,6.5
			c4,22.2-16.8,41-38.5,34.9c-2.7-0.7-5.6-1.1-8.5-1.1c-16.6,0-30,13.4-30,30s13.4,30,30,30c8.3,0,15.9-3.4,21.5-9l0,0
			c12.3-12.5,32.9-6.3,36.9,10.1c-0.9,17-19.5,28.2-35.1,20.1c-5.6-2.9-12.1-4.7-18.6-4.7c-21.9,0-39.6,17.7-39.6,39.6
			c0,21.9,17.7,39.6,39.6,39.6s39.6-17.7,39.6-39.6c0-0.4,0-0.9,0-1.1l0,0c-0.4-18.1,18.8-30.7,35.1-22.2c5.6,2.9,12.1,4.7,18.6,4.7
			c21.9,0,39.6-17.7,39.6-39.6C372.2,484.7,354.3,466.8,332.3,466.8z"/>
		<path fill="#3C3A3A" d="M333.4,466.1c-12.3,0-23.3,5.6-30.4,14.5c-11.2,13.7-32.7,8.7-37.6-7.6c-1.6-21.9,19.7-38.7,40.3-31.6
			c3.6,1.3,7.8,2,12.1,2c19.7,0,35.6-15.9,35.6-35.6c0-19.9-15.9-35.8-35.6-35.8c-19.7,0-35.6,15.9-35.6,35.6c0,2.2,0.2,4.5,0.7,6.5
			c4,22.2-16.8,41-38.5,34.9c-2.7-0.7-5.6-1.1-8.5-1.1c-16.6,0-30,13.4-30,30s13.4,30,30,30c8.3,0,15.9-3.4,21.5-9l0,0
			c12.3-12.5,32.9-6.3,36.9,10.1c-0.9,17-19.5,28.2-35.1,20.1c-5.6-2.9-12.1-4.7-18.6-4.7c-21.9,0-39.6,17.7-39.6,39.6
			c0,21.9,17.7,39.6,39.6,39.6s39.6-17.7,39.6-39.6c0-0.4,0-0.9,0-1.1l0,0c-0.4-18.1,18.8-30.7,35.1-22.2c5.6,2.9,12.1,4.7,18.6,4.7
			c21.9,0,39.6-17.7,39.6-39.6C373.1,484,355.2,466.1,333.4,466.1z"/>
		<path fill="#393737" d="M334.3,465.5c-12.3,0-23.3,5.6-30.4,14.5c-11.2,13.7-32.7,8.7-37.6-7.6c-1.6-21.7,19.7-38.5,40.3-31.3
			c3.6,1.3,7.8,2,12.1,2c19.7,0,35.6-15.9,35.6-35.6c0-19.7-15.9-35.6-35.6-35.6c-19.7,0-35.6,15.9-35.6,35.6c0,2.2,0.2,4.5,0.7,6.5
			c4,22.2-16.8,41-38.5,34.9c-2.7-0.7-5.6-1.1-8.5-1.1c-16.6,0-30,13.4-30,30s13.4,30,30,30c8.3,0,15.9-3.4,21.5-9l0,0
			c12.3-12.5,32.9-6.3,36.9,10.1c-0.9,17-19.5,28.2-35.1,20.1c-5.6-2.9-12.1-4.7-18.6-4.7c-21.9,0-39.6,17.7-39.6,39.6
			c0,21.9,17.7,39.6,39.6,39.6s39.6-17.7,39.6-39.6c0-0.4,0-0.9,0-1.1l0,0c-0.4-18.1,18.8-30.7,35.1-22.2c5.6,2.9,12.1,4.7,18.6,4.7
			c21.9,0,39.6-17.7,39.6-39.6C374,483.1,356.3,465.5,334.3,465.5z"/>
		<path fill="#363534" d="M335.2,465c-12.3,0-23.3,5.6-30.4,14.5c-11.2,13.7-32.7,8.7-37.6-7.6c-1.6-21.9,19.7-38.7,40.3-31.6
			c3.6,1.3,7.8,2,12.1,2c19.7,0,35.6-15.9,35.6-35.6s-15.9-35.6-35.6-35.6c-19.7,0-35.6,15.9-35.6,35.6c0,2.2,0.2,4.5,0.7,6.5
			c4,22.2-16.8,41-38.5,34.9c-2.7-0.7-5.6-1.1-8.5-1.1c-16.6,0-30,13.4-30,30s13.4,30,30,30c8.3,0,15.9-3.4,21.5-9l0,0
			c12.3-12.5,32.9-6.3,36.9,10.1c-0.9,17-19.5,28.2-35.1,20.1c-5.6-2.9-12.1-4.7-18.6-4.7c-21.9,0-39.6,17.7-39.6,39.6
			c0,21.9,17.7,39.6,39.6,39.6s39.6-17.7,39.6-39.6c0-0.4,0-0.9,0-1.1l0,0c-0.4-18.1,18.8-30.7,35.1-22.2c5.6,2.9,12.1,4.7,18.6,4.7
			c21.9,0,39.6-17.7,39.6-39.6C374.8,482.7,357.2,465,335.2,465z"/>
		<path fill="#333231" d="M336.1,464.3c-12.3,0-23.3,5.6-30.4,14.5c-11.2,13.4-32.7,8.7-37.6-7.8c-1.6-21.7,19.7-38.5,40.3-31.3
			c3.6,1.3,7.8,2,12.1,2c19.7,0,35.6-15.9,35.6-35.6c0-19.7-15.9-35.6-35.6-35.6c-19.7,0-35.6,15.9-35.6,35.6c0,2.2,0.2,4.5,0.7,6.5
			c4,22.2-16.8,41-38.5,34.9c-2.7-0.7-5.6-1.1-8.5-1.1c-16.6,0-30,13.4-30,30c0,16.6,13.4,30,30,30c8.3,0,15.9-3.4,21.5-9l0,0
			c12.3-12.5,32.9-6.3,36.9,10.1c-0.9,17-19.5,28.2-35.1,20.1c-5.6-2.9-12.1-4.7-18.6-4.7c-21.9,0-39.6,17.7-39.6,39.6
			s17.7,39.6,39.6,39.6s39.6-17.7,39.6-39.6c0-0.4,0-0.9,0-1.1l0,0c-0.4-18.1,18.8-30.7,35.1-22.2c5.6,2.9,12.1,4.7,18.6,4.7
			c21.9,0,39.6-17.7,39.6-39.6C375.7,482,358.1,464.3,336.1,464.3z"/>
		<path fill="#302F2F" d="M337,463.7c-12.3,0-23.3,5.6-30.4,14.5c-11.2,13.7-32.7,8.7-37.6-7.6c-1.6-21.7,19.7-38.5,40.3-31.3
			c3.6,1.3,7.8,2,12.1,2c19.7,0,35.6-15.9,35.6-35.6s-15.9-35.6-35.6-35.6c-19.7,0-35.6,15.9-35.6,35.6c0,2.2,0.2,4.5,0.7,6.5
			c4,22.2-16.8,41-38.5,34.9c-2.7-0.7-5.6-1.1-8.5-1.1c-16.6,0-30,13.4-30,30s13.4,30,30,30c8.3,0,15.9-3.4,21.5-9l0,0
			c12.3-12.5,32.9-6.3,36.9,10.1c-0.9,17-19.5,28.2-35.1,20.1c-5.6-2.9-12.1-4.7-18.6-4.7c-21.9,0-39.6,17.7-39.6,39.6
			c0,21.9,17.7,39.6,39.6,39.6s39.6-17.7,39.6-39.6c0-0.4,0-0.9,0-1.1l0,0c-0.4-18.1,18.8-30.7,35.1-22.2c5.6,2.9,12.1,4.7,18.6,4.7
			c21.5-0.4,39.2-18.1,39.2-40.1C376.6,481.3,359,463.7,337,463.7z"/>
		<path fill="#2D2C2C" d="M337.9,463.2c-12.3,0-23.3,5.6-30.4,14.5c-11.2,13.7-32.7,8.7-37.6-7.6c-1.6-21.7,19.7-38.5,40.3-31.3
			c3.6,1.3,7.8,2,12.1,2c19.7,0,35.6-15.9,35.6-35.6c0-19.7-15.9-35.6-35.6-35.6c-19.7,0-35.6,15.9-35.6,35.6c0,2.2,0.2,4.5,0.7,6.5
			c4,22.2-16.8,41-38.5,34.9c-2.7-0.7-5.6-1.1-8.5-1.1c-16.6,0-30,13.4-30,30s13.4,30,30,30c8.3,0,15.9-3.4,21.5-9l0,0
			c12.3-12.5,32.9-6.3,36.9,10.1c-0.9,17-19.5,28.2-35.1,20.1c-5.6-2.9-12.1-4.7-18.6-4.7c-21.9,0-39.6,17.7-39.6,39.6
			c0,21.9,17.7,39.6,39.6,39.6s39.6-17.7,39.6-39.6c0-0.4,0-0.9,0-1.1l0,0c-0.4-18.1,18.8-30.7,35.1-22.2c5.6,2.9,12.1,4.7,18.6,4.7
			c21.9,0,39.6-17.7,39.6-39.6C377.5,480.7,359.9,463.2,337.9,463.2z"/>
		<path fill="#2A2929" d="M338.8,462.5c-12.3,0-23.3,5.6-30.4,14.5c-11.2,13.7-32.7,8.7-37.6-7.6c-1.6-21.7,19.7-38.5,40.3-31.3
			c3.6,1.3,7.8,2,12.1,2c19.7,0,35.6-15.9,35.6-35.6c0-19.7-15.9-35.6-35.6-35.6c-19.7,0-35.6,15.9-35.6,35.6c0,2.2,0.2,4.5,0.7,6.5
			c4,22.2-16.8,41-38.5,34.9c-2.7-0.7-5.6-1.1-8.5-1.1c-16.6,0-30,13.4-30,30s13.4,30,30,30c8.3,0,15.9-3.4,21.5-9l0,0
			c12.3-12.5,32.9-6.3,36.9,10.1c-0.9,17-19.5,28.2-35.1,20.1c-5.6-2.9-12.1-4.7-18.6-4.7c-22.2-0.7-39.8,17-39.8,38.9
			c0,21.9,17.7,39.6,39.6,39.6s39.6-17.7,39.6-39.6c0-0.4,0-0.9,0-1.1l0,0c-0.4-18.1,18.8-30.7,35.1-22.2c5.6,2.9,12.1,4.7,18.6,4.7
			c21.9,0,39.6-17.7,39.6-39.6C378.4,480.2,360.7,462.5,338.8,462.5z"/>
		<path fill="#272626" d="M339.7,461.9c-12.3,0-23.3,5.6-30.4,14.5c-11.2,13.7-32.7,8.7-37.6-7.6c-1.6-21.9,19.7-38.7,40.3-31.6
			c3.6,1.3,7.8,2,12.1,2c19.7,0,35.6-15.9,35.6-35.6s-15.9-35.6-35.6-35.6s-35.6,15.9-35.6,35.6c0,2.2,0.2,4.5,0.7,6.5
			c4,22.2-16.8,41-38.5,34.9c-2.7-0.7-5.6-1.1-8.5-1.1c-16.6,0-30,13.4-30,30s13.4,30,30,30c8.3,0,15.9-3.4,21.5-9l0,0
			c12.3-12.5,32.9-6.3,36.9,10.1c-0.9,17-19.5,28.2-35.1,20.1c-5.6-2.9-12.1-4.7-18.6-4.7c-21.9,0-39.6,17.7-39.6,39.6
			c0,21.9,17.7,39.6,39.6,39.6s39.6-17.7,39.6-39.6c0-0.4,0-0.9,0-1.1l0,0c-0.4-18.1,18.8-30.7,35.1-22.2c5.6,2.9,12.1,4.7,18.6,4.7
			c21.9,0,39.6-17.7,39.6-39.6C379.5,479.6,361.6,461.9,339.7,461.9z"/>
		<path fill="#242323" d="M340.8,461.2c-12.3,0-23.3,5.6-30.4,14.5c-11.2,13.7-32.7,8.7-37.6-7.6c-1.6-21.7,19.7-38.5,40.3-31.3
			c3.6,1.3,7.8,2,12.1,2c19.7,0,35.6-15.9,35.6-35.6c0-19.7-15.9-35.6-35.6-35.6c-19.7,0-35.6,15.9-35.6,35.6c0,2.2,0.2,4.5,0.7,6.5
			c4,22.2-16.8,41-38.5,34.9c-2.7-0.7-5.6-1.1-8.5-1.1c-16.6,0-30,13.4-30,30s13.4,30,30,30c8.3,0,15.9-3.4,21.5-9l0,0
			c12.3-12.5,32.9-6.3,36.9,10.1c-0.9,17-19.5,28.2-35.1,20.1c-5.6-2.9-12.1-4.7-18.6-4.7c-21.9,0-39.6,17.7-39.6,39.6
			c0,21.9,17.7,39.6,39.6,39.6s39.6-17.7,39.6-39.6c0-0.4,0-0.9,0-1.1l0,0c-0.4-18.1,18.8-30.7,35.1-22.2c5.6,2.9,12.1,4.7,18.6,4.7
			c21.9,0,39.6-17.7,39.6-39.6C380.4,478.9,362.5,461.2,340.8,461.2z"/>
		<path fill="#212020" d="M341.7,460.8c-12.3,0-23.3,5.6-30.4,14.5c-11.2,13.7-32.7,8.7-37.6-7.6c-1.6-21.7,19.7-38.5,40.3-31.3
			c3.6,1.3,7.8,2,12.1,2c19.7,0,35.6-15.9,35.6-35.6s-15.9-35.6-35.6-35.6c-19.7,0-35.6,15.9-35.6,35.6c0,2.2,0.2,4.5,0.7,6.5
			c4,22.2-16.8,41-38.5,34.9c-2.7-0.7-5.6-1.1-8.5-1.1c-16.6,0-30,13.4-30,30s13.4,30,30,30c8.3,0,15.9-3.4,21.5-9l0,0
			c12.3-12.5,32.9-6.3,36.9,10.1c-0.9,17-19.5,28.2-35.1,20.1c-5.6-2.9-12.1-4.7-18.6-4.7c-21.9,0-39.6,17.7-39.6,39.6
			c0,21.9,17.7,39.6,39.6,39.6s39.6-17.7,39.6-39.6c0-0.4,0-0.9,0-1.1l0,0c-0.4-18.1,18.8-30.7,35.1-22.2c5.6,2.9,12.1,4.7,18.6,4.7
			c21.9,0,39.6-17.7,39.6-39.6C381.3,478.2,363.7,460.8,341.7,460.8z"/>
		<path fill="#1E1D1D" d="M342.6,459.9c-12.3,0-23.3,5.6-30.4,14.5c-11.2,13.7-32.7,8.7-37.6-7.6c-1.6-21.7,19.7-38.5,40.3-31.3
			c3.6,1.3,7.8,2,12.1,2c19.7,0,35.6-15.9,35.6-35.6s-15.9-35.6-35.6-35.6c-19.7,0-35.6,15.9-35.6,35.6c0,2.2,0.2,4.5,0.7,6.5
			c4,22.2-16.8,41-38.5,34.9c-2.7-0.7-5.6-1.1-8.5-1.1c-16.6,0-30,13.4-30,30c0,16.6,13.4,30,30,30c8.3,0,15.9-3.4,21.5-9l0,0
			c12.3-12.5,32.9-6.3,36.9,10.1c-0.9,17-19.5,28.2-35.1,20.1c-5.6-2.9-12.1-4.7-18.6-4.7c-21.9,0-39.6,17.7-39.6,39.6
			c0,21.9,17.7,39.6,39.6,39.6s39.6-17.7,39.6-39.6c0-0.4,0-0.9,0-1.1l0,0c-0.4-18.1,18.8-30.7,35.1-22.2c5.6,2.9,12.1,4.7,18.6,4.7
			c21.9,0,39.6-17.7,39.6-39.6C382.2,477.8,364.6,459.9,342.6,459.9z"/>
		<path fill="#1B1A1A" d="M343.5,459.2c-12.3,0-23.3,5.6-30.4,14.5c-11.2,13.7-32.7,8.7-37.6-7.6c-1.6-21.7,19.7-38.5,40.3-31.3
			c3.6,1.3,7.8,2,12.1,2c19.7,0,35.6-15.9,35.6-35.6c0-20.1-15.9-36-35.6-36s-35.6,15.9-35.6,35.6c0,2.2,0.2,4.5,0.7,6.5
			c4,22.2-16.8,41-38.5,34.9c-2.7-0.7-5.6-1.1-8.5-1.1c-16.6,0-30,13.4-30,30s13.4,30,30,30c8.3,0,15.9-3.4,21.5-9l0,0
			c12.3-12.5,32.9-6.3,36.9,10.1c-0.9,17-19.5,28.2-35.1,20.1c-5.6-2.9-12.1-4.7-18.6-4.7c-22.2,0-39.8,17.5-39.8,39.4
			c0,21.9,17.7,39.6,39.6,39.6S290,578.9,290,557c0-0.4,0-0.9,0-1.1l0,0c-0.4-18.1,18.8-30.7,35.1-22.2c5.6,2.9,12.1,4.7,18.6,4.7
			c21.9,0,39.6-17.7,39.6-39.6C383.1,477.1,365.4,459.2,343.5,459.2z"/>
		<path fill="#171717" d="M344.4,458.5c-12.3,0-23.3,5.6-30.4,14.5c-11.2,13.7-32.7,8.7-37.6-7.6c-1.6-21.9,19.7-38.7,40.3-31.6
			c3.6,1.3,7.8,2,12.1,2c19.7,0,35.6-15.9,35.6-35.6c0-19.7-15.9-35.6-35.6-35.6c-19.7,0-35.6,15.9-35.6,35.6c0,2.2,0.2,4.5,0.7,6.5
			c4,22.2-16.8,41-38.5,34.9c-2.7-0.7-5.6-1.1-8.5-1.1c-16.6,0-30,13.4-30,30s13.4,30,30,30c8.3,0,15.9-3.4,21.5-9l0,0
			c12.3-12.5,32.9-6.3,36.9,10.1c-0.9,17-19.5,28.2-35.1,20.1c-5.6-2.9-12.1-4.7-18.6-4.7c-21.9,0-39.6,17.7-39.6,39.6
			s17.7,39.6,39.6,39.6s39.6-17.7,39.6-39.6c0-0.4,0-0.9,0-1.1l0,0c-0.4-18.1,18.8-30.7,35.1-22.2c5.6,2.9,12.1,4.7,18.6,4.7
			c21.9,0,39.6-17.7,39.6-39.6C384,476.4,366.3,458.5,344.4,458.5z"/>
		<path fill="#131313" d="M345.3,458.1c-12.3,0-23.3,5.6-30.4,14.5c-11.2,13.7-32.7,8.7-37.6-7.6c-1.6-21.7,19.7-38.5,40.3-31.3
			c3.6,1.3,7.8,2,12.1,2c19.7,0,35.6-15.9,35.6-35.6c0-19.7-15.9-35.6-35.6-35.6c-19.7,0-35.6,15.9-35.6,35.6c0,2.2,0.2,4.5,0.7,6.5
			c4,22.2-16.8,41-38.5,34.9c-2.7-0.7-5.6-1.1-8.5-1.1c-16.6,0-30,13.4-30,30c0,16.6,13.4,30,30,30c8.3,0,15.9-3.4,21.5-9l0,0
			c12.3-12.5,32.9-6.3,36.9,10.1c-0.9,17-19.5,28.2-35.1,20.1c-5.6-2.9-12.1-4.7-18.6-4.7c-21.9,0-39.6,17.7-39.6,39.6
			c0,21.9,17.7,39.6,39.6,39.6s39.6-17.7,39.6-39.6c0-0.4,0-0.9,0-1.1l0,0c-0.4-18.1,18.8-30.7,35.1-22.2c5.6,2.9,12.1,4.7,18.6,4.7
			c21.9,0,39.6-17.7,39.6-39.6C384.9,475.5,367.2,458.1,345.3,458.1z"/>
		<path fill="#0F0F0F" d="M346.2,457.4c-12.3,0-23.3,5.6-30.4,14.5c-11.2,13.7-32.7,8.7-37.6-7.6c-1.6-21.7,19.7-38.5,40.3-31.3
			c3.6,1.3,7.8,2,12.1,2c19.7,0,35.6-15.9,35.6-35.6c0-19.7-15.9-35.6-35.6-35.6c-19.7,0-35.6,15.9-35.6,35.6c0,2.2,0.2,4.5,0.7,6.5
			c4,22.2-16.8,41-38.5,34.9c-2.7-0.7-5.6-1.1-8.5-1.1c-16.6,0-30,13.4-30,30s13.4,30,30,30c8.3,0,15.9-3.4,21.5-9l0,0
			c12.3-12.5,32.9-6.3,36.9,10.1c-0.9,17-19.5,28.2-35.1,20.1c-5.6-2.9-12.1-4.7-18.6-4.7c-21.9,0-39.6,17.7-39.6,39.6
			c0,21.9,17.7,39.6,39.6,39.6s39.6-17.7,39.6-39.6c0-0.4,0-0.9,0-1.1l0,0c-0.4-18.1,18.8-30.7,35.1-22.2c5.6,2.9,12.1,4.7,18.6,4.7
			c21.5-0.7,39.2-18.4,39.2-40.3C385.8,475.1,368.1,457.4,346.2,457.4z"/>
		<path fill="#0B0B0B" d="M347.1,456.7c-12.3,0-23.3,5.6-30.4,14.5c-11.2,13.7-32.7,8.7-37.6-7.6c-1.6-21.7,19.7-38.5,40.3-31.3
			c3.6,1.3,7.8,2,12.1,2c19.7,0,35.6-15.9,35.6-35.6s-15.9-35.6-35.6-35.6c-19.7,0-35.6,15.9-35.6,35.6c0,2.2,0.2,4.5,0.7,6.5
			c4,22.2-16.8,41-38.5,34.9c-2.7-0.7-5.6-1.1-8.5-1.1c-16.6,0-30,13.4-30,30s13.4,30,30,30c8.3,0,15.9-3.4,21.5-9l0,0
			c12.3-12.5,32.9-6.3,36.9,10.1c-0.9,17-19.5,28.2-35.1,20.1c-5.6-2.9-12.1-4.7-18.6-4.7c-21.9,0-39.6,17.7-39.6,39.6
			c0,21.9,17.7,39.6,39.6,39.6s39.6-17.7,39.6-39.6c0-0.4,0-0.9,0-1.1l0,0c-0.4-18.1,18.8-30.7,35.1-22.2c5.6,2.9,12.1,4.7,18.6,4.7
			c21.9,0,39.6-17.7,39.6-39.6C386.9,474.4,369,456.7,347.1,456.7z"/>
		<path fill="#060606" d="M348.2,456.1c-12.3,0-23.3,5.6-30.4,14.5c-11.2,13.7-32.7,8.7-37.6-7.6c-1.6-21.7,19.7-38.5,40.3-31.3
			c3.6,1.3,7.8,2,12.1,2c19.7,0,35.6-15.9,35.6-35.6c0-19.7-15.9-35.6-35.6-35.6S297,378.4,297,398.1c0,2.2,0.2,4.5,0.7,6.5
			c4,22.2-16.8,41-38.5,34.9c-2.7-0.7-5.6-1.1-8.5-1.1c-16.6,0-30,13.4-30,30c0,16.6,13.4,30,30,30c8.3,0,15.9-3.4,21.5-9l0,0
			c12.3-12.5,32.9-6.3,36.9,10.1c-0.9,17-19.5,28.2-35.1,20.1c-5.6-2.9-12.1-4.7-18.6-4.7c-21.9,0-39.6,17.7-39.6,39.6
			s17.7,39.6,39.6,39.6s39.6-17.7,39.6-39.6c0-0.4,0-0.9,0-1.1l0,0c-0.4-18.1,18.8-30.7,35.1-22.2c5.6,2.9,12.1,4.7,18.6,4.7
			c21.9,0,39.6-17.7,39.6-39.6C387.8,473.7,369.9,456.1,348.2,456.1z"/>
		<path fill="#010101" d="M349.3,455.6c-12.3,0-23.3,5.6-30.4,14.5c-11.2,13.7-32.7,8.7-37.6-7.6c-1.6-21.7,19.7-38.3,40.3-31.3
			c3.6,1.3,7.8,2,12.1,2c19.7,0,35.6-15.9,35.6-35.6s-15.9-35.6-35.6-35.6c-19.7,0-35.6,15.9-35.6,35.6c0,2.2,0.2,4.5,0.7,6.5
			c3.6,22.2-16.8,40.7-38.5,34.9c-2.7-0.7-5.6-1.1-8.5-1.1c-16.6,0-30,13.4-30,30s13.4,30,30,30c8.3,0,15.9-3.4,21.5-9l0,0
			c12.3-12.5,32.9-6.3,36.9,10.1c-0.9,17-19.5,28-35.1,20.1c-5.6-2.9-12.1-4.7-18.6-4.7c-21.9,0-39.6,17.7-39.6,39.6
			c0,21.9,17.7,39.6,39.6,39.6s39.6-17.7,39.6-39.6c0-0.4,0-0.9,0-1.1l0,0c-0.4-18.1,18.6-30.4,35.1-22.2c5.6,2.9,12.1,4.7,18.6,4.7
			c21.9,0,39.6-17.7,39.6-39.6C388.7,473.1,370.8,455.6,349.3,455.6z"/>
	</g>

		<radialGradient id="SVGID_1_" cx="198.3495" cy="235.982" r="18.2759" gradientTransform="matrix(2.3051 0 0 2.3051 -198.0753 9.4467)" gradientUnits="userSpaceOnUse">
		<stop  offset="0.7818" style="stop-color:#010101"/>
		<stop  offset="0.8632" style="stop-color:#030303"/>
		<stop  offset="0.8925" style="stop-color:#0A0A0A"/>
		<stop  offset="0.9134" style="stop-color:#151515"/>
		<stop  offset="0.9303" style="stop-color:#262626"/>
		<stop  offset="0.9448" style="stop-color:#3C3C3C"/>
		<stop  offset="0.9576" style="stop-color:#585858"/>
		<stop  offset="0.9692" style="stop-color:#787878"/>
		<stop  offset="0.9798" style="stop-color:#9E9E9E"/>
		<stop  offset="0.9898" style="stop-color:#C9C9C9"/>
		<stop  offset="0.9986" style="stop-color:#F7F7F7"/>
		<stop  offset="1" style="stop-color:#FFFFFF"/>
	</radialGradient>
	<circle opacity="7.000000e-02" fill="url(#SVGID_1_)" enable-background="new    " cx="259.1" cy="553.4" r="42.1"/>
	<path fill="#EF4133" d="M312.9,496.3c0.4,18.4-18.8,30.7-35.4,21.9l0,0c-5.6-2.9-11.9-4.7-18.4-4.7c-21.9,0-39.6,17.7-39.6,39.6
		c0,21.9,17.7,39.6,39.6,39.6s39.6-17.7,39.6-39.6c0-0.4,0-0.9,0-1.3l0,0c-0.4-18.4,18.8-30.7,35.4-21.9L312.9,496.3z"/>

		<radialGradient id="SVGID_2_" cx="237.3836" cy="210.6422" r="18.5076" gradientTransform="matrix(2.3051 0 0 2.3051 -198.0753 9.4467)" gradientUnits="userSpaceOnUse">
		<stop  offset="0.7818" style="stop-color:#010101"/>
		<stop  offset="0.8632" style="stop-color:#030303"/>
		<stop  offset="0.8925" style="stop-color:#0A0A0A"/>
		<stop  offset="0.9134" style="stop-color:#151515"/>
		<stop  offset="0.9303" style="stop-color:#262626"/>
		<stop  offset="0.9448" style="stop-color:#3C3C3C"/>
		<stop  offset="0.9576" style="stop-color:#585858"/>
		<stop  offset="0.9692" style="stop-color:#787878"/>
		<stop  offset="0.9798" style="stop-color:#9E9E9E"/>
		<stop  offset="0.9898" style="stop-color:#C9C9C9"/>
		<stop  offset="0.9986" style="stop-color:#F7F7F7"/>
		<stop  offset="1" style="stop-color:#FFFFFF"/>
	</radialGradient>
	<circle opacity="7.000000e-02" fill="url(#SVGID_2_)" enable-background="new    " cx="349.3" cy="495" r="42.7"/>
	<path fill="#F89621" d="M349.3,455.6c-12.3,0-23.3,5.6-30.4,14.3l0,0c-11.6,14.1-34,8.5-38-9l-7.8,27.5c12.8-13,34.7-5.8,37.2,12.3
		l0,0c2.5,19.5,19,34,39.2,34c21.9,0,39.6-17.7,39.6-39.6C388.7,473.1,370.8,455.6,349.3,455.6z"/>

		<radialGradient id="SVGID_3_" cx="194.9515" cy="198.65" r="14.2909" gradientTransform="matrix(2.3051 0 0 2.3051 -198.0753 9.4467)" gradientUnits="userSpaceOnUse">
		<stop  offset="0.7818" style="stop-color:#010101"/>
		<stop  offset="0.8632" style="stop-color:#030303"/>
		<stop  offset="0.8925" style="stop-color:#0A0A0A"/>
		<stop  offset="0.9134" style="stop-color:#151515"/>
		<stop  offset="0.9303" style="stop-color:#262626"/>
		<stop  offset="0.9448" style="stop-color:#3C3C3C"/>
		<stop  offset="0.9576" style="stop-color:#585858"/>
		<stop  offset="0.9692" style="stop-color:#787878"/>
		<stop  offset="0.9798" style="stop-color:#9E9E9E"/>
		<stop  offset="0.9898" style="stop-color:#C9C9C9"/>
		<stop  offset="0.9986" style="stop-color:#F7F7F7"/>
		<stop  offset="1" style="stop-color:#FFFFFF"/>
	</radialGradient>
	<circle opacity="7.000000e-02" fill="url(#SVGID_3_)" enable-background="new    " cx="251.3" cy="467.2" r="32.9"/>

		<linearGradient id="SVGID_4_" gradientUnits="userSpaceOnUse" x1="191.7354" y1="201.4877" x2="221.4561" y2="175.7296" gradientTransform="matrix(2.3051 0 0 2.3051 -198.0753 9.4467)">
		<stop  offset="0" style="stop-color:#FFCB05"/>
		<stop  offset="0.4508" style="stop-color:#FFC41A"/>
		<stop  offset="1" style="stop-color:#FCB731"/>
	</linearGradient>
	<path fill="url(#SVGID_4_)" d="M298.3,403.5c4,22.4-16.8,41.2-38.7,35.1l0,0c-2.5-0.7-5.4-1.1-8.3-1.1c-16.6,0-30,13.4-30,30
		s13.4,30,30,30s30-13.4,30-30c0-1.1,0-2.5-0.2-3.6l0,0c-2.7-22.6,19-40.3,40.5-32.7L298.3,403.5z"/>

		<radialGradient id="SVGID_5_" cx="230.5333" cy="168.25" r="16.8033" gradientTransform="matrix(2.3051 0 0 2.3051 -198.0753 9.4467)" gradientUnits="userSpaceOnUse">
		<stop  offset="0.7818" style="stop-color:#010101"/>
		<stop  offset="0.8632" style="stop-color:#030303"/>
		<stop  offset="0.8925" style="stop-color:#0A0A0A"/>
		<stop  offset="0.9134" style="stop-color:#151515"/>
		<stop  offset="0.9303" style="stop-color:#262626"/>
		<stop  offset="0.9448" style="stop-color:#3C3C3C"/>
		<stop  offset="0.9576" style="stop-color:#585858"/>
		<stop  offset="0.9692" style="stop-color:#787878"/>
		<stop  offset="0.9798" style="stop-color:#9E9E9E"/>
		<stop  offset="0.9898" style="stop-color:#C9C9C9"/>
		<stop  offset="0.9986" style="stop-color:#F7F7F7"/>
		<stop  offset="1" style="stop-color:#FFFFFF"/>
	</radialGradient>
	<circle opacity="7.000000e-02" fill="url(#SVGID_5_)" enable-background="new    " cx="333.4" cy="397.2" r="38.7"/>
	<circle fill="#FFCB05" cx="333.4" cy="397.2" r="35.6"/>
</g>
<g enable-background="new    ">
	<path fill="#0F293A" d="M428.8,452.1l-5,0h-3.2v-31.7h7.7c1.4,0,2.5,0,3.4,0.1s1.8,0.3,2.8,0.6c1,0.3,1.7,0.8,2.3,1.4
		c1.3,1.4,1.9,3.7,1.9,6.8s-0.9,5.2-2.6,6.4c0.7,0.3,1.2,0.5,1.5,0.8c0.4,0.2,0.8,0.6,1.3,1.1c0.9,1,1.3,3.1,1.3,6.2
		s-0.9,5.2-2.7,6.4C435.7,451.5,432.8,452.1,428.8,452.1z M427.7,423.4h-3.9v11.2h9.1c1.6,0,2.4-1.8,2.4-5.3c0-2-0.2-3.3-0.5-3.9
		c-0.4-0.6-0.7-1-1-1.2c-0.3-0.2-0.8-0.4-1.5-0.5C431.3,423.5,429.8,423.4,427.7,423.4z M423.8,449.1l6.7,0c2.3,0,3.9-0.3,4.8-1
		c0.9-0.7,1.4-2.2,1.4-4.7c0-4.1-1.6-6.2-4.9-6.2h-8.1V449.1z"/>
	<path fill="#0F293A" d="M446.6,428h3.2v17.2c0,1.6,0.5,2.8,1.3,3.4s2.1,1,3.8,1c1.6,0,3.1-0.3,4.4-0.9s2-1.2,2.2-1.8V428h3.1v17.7
		l0.9,6.3h-2.1l-0.1-0.1l-1-2.7c-1.3,0.8-2.2,1.4-2.7,1.8c-0.6,0.3-1.4,0.7-2.4,1c-1.1,0.3-2.2,0.5-3.3,0.5c-4.7,0-7-2.5-7.1-7.4
		V428z"/>
	<path fill="#0F293A" d="M482.4,427.6c0.7,0,1.4,0.1,2.2,0.3l-1.2,2.9c-0.5-0.1-1-0.1-1.6-0.1c-2.1,0-4.1,1.1-6.3,3.4v18h-3v-17.8
		l-0.8-6h1.9l0.1,0.1l0.9,3.5c1.4-1.4,2.7-2.5,3.9-3.2C479.7,428,481,427.6,482.4,427.6z"/>
	<path fill="#0F293A" d="M505.5,436.4c0,1.2-0.1,2.4-0.3,3.7h-15.4c0.1,3.6,0.7,6.1,1.8,7.4c1.1,1.4,3,2,5.7,2
		c2.1,0,4.4-0.4,7.2-1.3l0.3,2.4c-0.8,0.3-1.3,0.5-1.7,0.6c-0.4,0.1-0.8,0.2-1.3,0.4c-0.5,0.1-0.8,0.3-1,0.3c-0.2,0.1-0.6,0.1-1,0.2
		c-0.4,0.1-0.8,0.2-1.1,0.2c-0.9,0.1-1.6,0.1-2.2,0.1c-3.1,0-5.5-1.1-7.2-3.2c-1.8-2.2-2.6-5.1-2.6-9c0-2.1,0.3-4,0.8-5.6
		s1.1-2.9,1.9-3.7c0.7-0.9,1.6-1.6,2.6-2.1c1.5-0.8,3.1-1.3,4.9-1.3C502.6,427.6,505.5,430.5,505.5,436.4z M502.5,435.6
		c0-2-0.5-3.3-1.5-4.1s-2.4-1.2-4.4-1.2c-1.9,0-3.5,0.5-4.7,1.5c-1.2,1-1.9,2.9-1.9,5.7h12.3C502.4,436.8,502.5,436.2,502.5,435.6z"
		/>
	<path fill="#0F293A" d="M528,437.5l0,5.8c0,0.9,0,1.8,0,2.5l1.1,6l0,0.2H527l-0.2-0.1l-1.2-2.8c-3,2.1-6,3.2-8.9,3.3
		c-2.1,0-3.6-0.5-4.7-1.6c-1.1-1.1-1.6-2.6-1.6-4.6c0-2.7,0.8-4.6,2.3-5.6c1.5-1,3.6-1.5,6.3-1.5c0.3,0,2.3,0.1,5.9,0.3v-3.2
		c0-2.2-0.4-3.6-1.2-4.5c-0.8-0.8-1.9-1.2-3.3-1.2c-1.4,0-4.2,0.4-8.3,1.3l-0.4-2.3c4-1.2,6.9-1.8,8.7-1.8c2.7,0,4.8,0.8,6.4,2.5
		C527.6,431.1,528,433.5,528,437.5z M524.9,441.8l-5.1-0.2c-2.6,0-4.3,0.3-5.1,0.8s-1.2,1.6-1.2,3.1s0.3,2.6,0.8,3.2
		c0.5,0.6,1.4,0.9,2.7,0.9c1.3,0,2.8-0.3,4.5-0.8c1.7-0.5,2.9-1.1,3.3-1.8V441.8z"/>
	<path fill="#0F293A" d="M535.5,428h3.2v17.2c0,1.6,0.5,2.8,1.3,3.4s2.1,1,3.8,1c1.6,0,3.1-0.3,4.4-0.9s2-1.2,2.2-1.8V428h3.1v17.7
		l0.9,6.3h-2.1l-0.1-0.1l-1-2.7c-1.3,0.8-2.2,1.4-2.7,1.8c-0.6,0.3-1.4,0.7-2.4,1c-1.1,0.3-2.2,0.5-3.3,0.5c-4.7,0-7-2.5-7.1-7.4
		V428z"/>
	<path fill="#0F293A" d="M581.5,427.6c2.5,0,4.5,0.3,5.9,1c1.4,0.7,2.4,1.9,3.1,3.7c0.7,1.8,1,4.1,1,6.9s-0.3,5.1-0.9,6.8
		c-0.6,1.7-1.4,3-2.4,3.9c-2,1.8-4.2,2.6-6.8,2.6c-3.8,0-6.5-0.9-7.9-2.7c-1.5-1.8-2.2-5.1-2.2-9.8c0-2.3,0.3-4.3,0.9-6
		c0.6-1.7,1.4-3,2.5-3.9C576.7,428.5,579,427.6,581.5,427.6z M585.7,431.2c-0.5-0.2-1.1-0.4-1.8-0.6c-0.7-0.2-1.7-0.2-2.9-0.2
		s-2.3,0.2-3.3,0.6c-0.9,0.4-1.6,1.1-2.1,2.1c-0.4,1-0.7,1.9-0.9,2.9c-0.1,1-0.2,2.4-0.2,4.1c0,3.7,0.4,6.2,1.2,7.6s2.7,2.1,5.5,2.1
		c1.5,0,2.8-0.2,3.7-0.6c0.9-0.4,1.6-1.1,2.1-2c0.5-0.9,0.8-1.9,0.9-2.9c0.1-1,0.2-2.2,0.2-3.7c0-1.4,0-2.4,0-3
		c0-0.6-0.1-1.3-0.2-2.1c-0.1-0.8-0.2-1.4-0.4-1.8c-0.2-0.4-0.4-0.9-0.8-1.4C586.6,431.8,586.2,431.4,585.7,431.2z"/>
	<path fill="#0F293A" d="M601.6,427.6c0,0.3,0.7,0.4,2.1,0.4c1.4,0,2.4,0,3,0c0.6,0,1,0,1.1,0l-0.4,2.4h-5.3c-0.3,0-0.4,0.1-0.4,0.2
		v25.1l-1.7,6.1l-0.1,0.1h-2.2l1.1-6.2v-25c0-0.2-0.2-0.2-0.6-0.2h-1.7l0-1.4c1.3-0.6,2.1-1,2.2-1v0l0-3.8c0-1.7,0.3-3.1,1-4.3
		s1.5-2,2.5-2.5c1.9-0.8,3.6-1.3,5.2-1.3c0.1,0,0.2,0,0.3,0l1,0l-0.5,2.4c0,0.1-0.2,0.1-0.5,0c-0.3,0-0.5-0.1-0.8-0.1
		s-0.6,0.1-1.2,0.3c-0.6,0.2-1.1,0.4-1.8,0.7c-0.6,0.3-1.1,0.8-1.6,1.7c-0.4,0.8-0.7,1.8-0.7,3V427.6z"/>
</g>
<g enable-background="new    ">
	<path fill="#0F293A" d="M426,466.3c1.4-0.7,2.6-1.2,3.8-1.4c1.2-0.2,2.7-0.3,4.5-0.3s4.1,0.4,6.8,1.3l-0.8,2.6
		c-2.9-0.6-5.1-0.9-6.5-0.9c-1.4,0-2.6,0.1-3.6,0.2c-1,0.1-2,0.5-3.1,1c-1.1,0.5-1.9,1.3-2.5,2.2c-1.4,2.2-2.1,5.4-2.1,9.9
		c0,5.4,1,9.1,2.9,11c0.9,0.9,1.9,1.5,2.9,1.8s2.1,0.5,3.3,0.5c1.2,0,2.1,0,2.7-0.1c1.9-0.1,3.8-0.8,5.6-1.9l1.1,2.6
		c-2.3,1.6-5.4,2.4-9.2,2.4c-1.5,0-2.7-0.1-3.8-0.3s-2.2-0.6-3.4-1.2c-1.2-0.6-2.2-1.5-3-2.7c-0.8-1.1-1.4-2.7-1.9-4.8
		c-0.5-2.1-0.8-4.5-0.8-7.3c0-2.8,0.3-5.2,1-7.3c0.7-2.1,1.5-3.6,2.4-4.8C423.5,467.9,424.7,467,426,466.3z"/>
	<path fill="#0F293A" d="M455.7,472.4c2.5,0,4.5,0.3,5.9,1c1.4,0.7,2.4,1.9,3.1,3.7c0.7,1.8,1,4.1,1,6.9s-0.3,5.1-0.9,6.8
		c-0.6,1.7-1.4,3-2.4,3.9c-2,1.8-4.2,2.6-6.8,2.6c-3.8,0-6.5-0.9-7.9-2.7c-1.5-1.8-2.2-5.1-2.2-9.8c0-2.3,0.3-4.3,0.9-6
		c0.6-1.7,1.4-3,2.5-3.9C450.9,473.3,453.1,472.4,455.7,472.4z M459.8,476c-0.5-0.2-1.1-0.4-1.8-0.6c-0.7-0.2-1.7-0.2-2.9-0.2
		s-2.3,0.2-3.3,0.6c-0.9,0.4-1.6,1.1-2.1,2.1c-0.4,1-0.7,1.9-0.9,2.9c-0.1,1-0.2,2.4-0.2,4.1c0,3.7,0.4,6.2,1.2,7.6s2.7,2.1,5.5,2.1
		c1.5,0,2.8-0.2,3.7-0.6c0.9-0.4,1.6-1.1,2.1-2c0.5-0.9,0.8-1.9,0.9-2.9c0.1-1,0.2-2.2,0.2-3.7c0-1.4,0-2.4,0-3
		c0-0.6-0.1-1.3-0.2-2.1c-0.1-0.8-0.2-1.4-0.4-1.8c-0.2-0.4-0.4-0.9-0.8-1.4C460.7,476.5,460.3,476.2,459.8,476z"/>
	<path fill="#0F293A" d="M489.4,496.8h-3.2v-17.2c-0.1-1.7-0.4-2.9-1-3.5s-1.6-1-3.2-1c-1.5,0-3,0.3-4.3,1c-1.3,0.6-2.1,1.2-2.3,1.8
		v18.9h-3.1V479l-0.8-6h2.3l0.1,0.1l0.7,2.4c1.2-0.8,2.2-1.4,2.8-1.8c0.6-0.4,1.4-0.7,2.5-1.1c1.1-0.4,2.2-0.5,3.3-0.5
		c2.7,0,4.6,1.1,5.5,3.3c1.2-0.8,2.1-1.4,2.7-1.7c1.8-1,3.7-1.6,5.7-1.6c2,0,3.5,0.6,4.5,1.7c1.1,1.1,1.6,3,1.6,5.7v17.2h-3.2v-17.2
		c-0.1-1.7-0.4-2.9-1-3.5s-1.6-1-3.2-1s-3,0.3-4.3,1s-2.1,1.2-2.3,1.8V496.8z"/>
	<path fill="#0F293A" d="M528,496.8h-3.2v-17.2c-0.1-1.7-0.4-2.9-1-3.5s-1.6-1-3.2-1c-1.5,0-3,0.3-4.3,1c-1.3,0.6-2.1,1.2-2.3,1.8
		v18.9H511V479l-0.8-6h2.3l0.1,0.1l0.7,2.4c1.2-0.8,2.2-1.4,2.8-1.8c0.6-0.4,1.4-0.7,2.5-1.1c1.1-0.4,2.2-0.5,3.3-0.5
		c2.7,0,4.6,1.1,5.5,3.3c1.2-0.8,2.1-1.4,2.7-1.7c1.8-1,3.7-1.6,5.7-1.6c2,0,3.5,0.6,4.5,1.7c1.1,1.1,1.6,3,1.6,5.7v17.2h-3.2v-17.2
		c-0.1-1.7-0.4-2.9-1-3.5s-1.6-1-3.2-1s-3,0.3-4.3,1s-2.1,1.2-2.3,1.8V496.8z"/>
	<path fill="#0F293A" d="M549.2,472.8h3.2v17.2c0,1.6,0.5,2.8,1.3,3.4s2.1,1,3.8,1c1.6,0,3.1-0.3,4.4-0.9s2-1.2,2.2-1.8v-18.9h3.1
		v17.7l0.9,6.3h-2.1l-0.1-0.1l-1-2.7c-1.3,0.8-2.2,1.4-2.7,1.8c-0.6,0.3-1.4,0.7-2.4,1c-1.1,0.3-2.2,0.5-3.3,0.5
		c-4.7,0-7-2.5-7.1-7.4V472.8z"/>
	<path fill="#0F293A" d="M593.1,496.8H590v-17.2c0-1.6-0.5-2.7-1.3-3.4c-0.9-0.7-2.1-1-3.7-1s-3,0.3-4.4,0.9
		c-1.3,0.6-2.1,1.2-2.3,1.8v19h-3.1V479l-0.8-6h2.1l0.1,0.1l0.9,2.5c1.1-0.8,2.1-1.4,2.8-1.8c1.8-1.1,3.7-1.6,5.9-1.6
		c4.6,0,6.9,2.5,7,7.4V496.8z"/>
	<path fill="#0F293A" d="M600.4,464.7h3.4v3.5h-3.4V464.7z M600.6,472.8h3v24.1h-3V472.8z"/>
	<path fill="#0F293A" d="M614.2,474.7c1.2-0.8,2.4-1.4,3.6-1.8c1.2-0.4,2.5-0.5,4-0.5c1.5,0,3.1,0.3,4.9,0.9l-0.4,2.2
		c-1.8-0.4-3.2-0.5-4.3-0.5c-2.8,0-4.9,0.7-6.4,2.2c-1.5,1.5-2.2,4.1-2.2,7.8c0,6.6,2.7,9.9,8,9.9c1.7,0,3.4-0.6,5.3-1.8l1.3,2.1
		c-2.1,1.5-4.6,2.3-7.4,2.3c-1.5,0-2.7-0.1-3.8-0.4c-1.1-0.3-2.2-0.8-3.3-1.7c-2.3-1.7-3.4-5.1-3.4-10.4c0-2.4,0.4-4.5,1.1-6.3
		C612,476.8,613,475.5,614.2,474.7z"/>
	<path fill="#0F293A" d="M649.5,482.2l0,5.8c0,0.9,0,1.8,0,2.5l1.1,6l0,0.2h-2.2l-0.2-0.1l-1.2-2.8c-3,2.1-6,3.2-8.9,3.3
		c-2.1,0-3.6-0.5-4.7-1.6c-1.1-1.1-1.6-2.6-1.6-4.6c0-2.7,0.8-4.6,2.3-5.6c1.5-1,3.6-1.5,6.3-1.5c0.3,0,2.3,0.1,5.9,0.3v-3.2
		c0-2.2-0.4-3.6-1.2-4.5c-0.8-0.8-1.9-1.2-3.3-1.2c-1.4,0-4.2,0.4-8.3,1.3l-0.4-2.3c4-1.2,6.9-1.8,8.7-1.8c2.7,0,4.8,0.8,6.4,2.5
		C649,475.8,649.5,478.3,649.5,482.2z M646.3,486.5l-5.1-0.2c-2.6,0-4.3,0.3-5.1,0.8s-1.2,1.6-1.2,3.1s0.3,2.6,0.8,3.2
		c0.5,0.6,1.4,0.9,2.7,0.9c1.3,0,2.8-0.3,4.5-0.8c1.7-0.5,2.9-1.1,3.3-1.8V486.5z"/>
	<path fill="#0F293A" d="M657.4,475.3c0-0.2-0.1-0.2-0.2-0.2h-2v-1.4l2.2-0.9l0.5-4.3h2.5v3.9c0.1,0.2,0.8,0.3,2,0.3h2.9L665,475
		l-4.1,0c-0.3,0-0.4,0.1-0.4,0.2v15.4l1.3,6.4h-2.2l-0.2-0.1l-2-6.2V475.3z"/>
	<path fill="#0F293A" d="M670.1,464.7h3.4v3.5h-3.4V464.7z M670.3,472.8h3v24.1h-3V472.8z"/>
	<path fill="#0F293A" d="M690.1,472.4c2.5,0,4.5,0.3,5.9,1c1.4,0.7,2.4,1.9,3.1,3.7c0.7,1.8,1,4.1,1,6.9s-0.3,5.1-0.9,6.8
		c-0.6,1.7-1.4,3-2.4,3.9c-2,1.8-4.2,2.6-6.8,2.6c-3.8,0-6.5-0.9-7.9-2.7c-1.5-1.8-2.2-5.1-2.2-9.8c0-2.3,0.3-4.3,0.9-6
		c0.6-1.7,1.4-3,2.5-3.9C685.3,473.3,687.6,472.4,690.1,472.4z M694.2,476c-0.5-0.2-1.1-0.4-1.8-0.6c-0.7-0.2-1.7-0.2-2.9-0.2
		s-2.3,0.2-3.3,0.6c-0.9,0.4-1.6,1.1-2.1,2.1c-0.4,1-0.7,1.9-0.9,2.9c-0.1,1-0.2,2.4-0.2,4.1c0,3.7,0.4,6.2,1.2,7.6s2.7,2.1,5.5,2.1
		c1.5,0,2.8-0.2,3.7-0.6c0.9-0.4,1.6-1.1,2.1-2c0.5-0.9,0.8-1.9,0.9-2.9c0.1-1,0.2-2.2,0.2-3.7c0-1.4,0-2.4,0-3
		c0-0.6-0.1-1.3-0.2-2.1c-0.1-0.8-0.2-1.4-0.4-1.8c-0.2-0.4-0.4-0.9-0.8-1.4C695.1,476.5,694.7,476.2,694.2,476z"/>
	<path fill="#0F293A" d="M724.8,496.8h-3.2v-17.2c0-1.6-0.5-2.7-1.3-3.4c-0.9-0.7-2.1-1-3.7-1s-3,0.3-4.4,0.9
		c-1.3,0.6-2.1,1.2-2.3,1.8v19h-3.1V479l-0.8-6h2.1l0.1,0.1l0.9,2.5c1.1-0.8,2.1-1.4,2.8-1.8c1.8-1.1,3.7-1.6,5.9-1.6
		c4.6,0,6.9,2.5,7,7.4V496.8z"/>
	<path fill="#0F293A" d="M731.4,493.5c2,0.8,3.9,1.2,5.7,1.2c1.8,0,3.3-0.4,4.5-1.1s1.9-1.7,1.9-2.9c0-1.2-0.4-2.2-1.3-2.9
		s-1.9-1.3-3.1-1.8c-1.2-0.5-2.4-0.9-3.6-1.4c-1.2-0.5-2.2-1.2-3.1-2.2c-0.8-0.9-1.3-2.1-1.3-3.4c0-2.2,0.8-3.8,2.2-5
		c1.5-1.2,3.4-1.7,5.6-1.7c2.3,0,4.4,0.4,6.5,1.1l-0.6,2.2c-1.6-0.6-3.5-0.8-5.5-0.8c-3.4,0-5.1,1.3-5.1,4c0,1.7,1.5,3.1,4.4,4.2
		c1.2,0.5,2.5,1,3.7,1.5c1.2,0.5,2.3,1.3,3.1,2.3c0.9,1,1.3,2.2,1.3,3.7c0,2.2-0.9,3.9-2.8,5c-1.9,1.2-4.1,1.8-6.6,1.8
		s-4.8-0.4-6.8-1.3L731.4,493.5z"/>
</g>
<g enable-background="new    ">
	<path fill="#0F293A" d="M429,529.2l-2.9,0h-2.2v12.4h-3.3v-31.7h9.3c1.7,0,3.2,0.1,4.4,0.3c1.2,0.2,2.3,0.6,3.4,1.2
		c2.2,1.3,3.3,4,3.3,8c0,3-0.6,5.2-1.8,6.6c-1.2,1.4-2.9,2.4-5.1,2.8l8.2,11.8l-2.5,1.7l-9.3-13.2H429z M427.1,526.4l3.7,0
		c2.6,0,4.4-0.4,5.4-1.2c0.9-0.8,1.4-2.7,1.4-5.5s-0.6-4.7-1.8-5.5c-1.2-0.8-3.4-1.2-6.5-1.2h-5.4v13.5H427.1z"/>
	<path fill="#0F293A" d="M465.3,525.9c0,1.2-0.1,2.4-0.3,3.7h-15.4c0.1,3.6,0.7,6.1,1.8,7.4c1.1,1.4,3,2,5.7,2
		c2.1,0,4.4-0.4,7.2-1.3l0.3,2.4c-0.8,0.3-1.3,0.5-1.7,0.6c-0.4,0.1-0.8,0.2-1.3,0.4c-0.5,0.1-0.8,0.3-1,0.3c-0.2,0.1-0.6,0.1-1,0.2
		c-0.4,0.1-0.8,0.2-1.1,0.2c-0.9,0.1-1.6,0.1-2.2,0.1c-3.1,0-5.5-1.1-7.2-3.2c-1.8-2.2-2.6-5.1-2.6-9c0-2.1,0.3-4,0.8-5.6
		s1.1-2.9,1.9-3.7c0.7-0.9,1.6-1.6,2.6-2.1c1.5-0.8,3.1-1.3,4.9-1.3C462.3,517.1,465.3,520.1,465.3,525.9z M462.2,525.1
		c0-2-0.5-3.3-1.5-4.1s-2.4-1.2-4.4-1.2c-1.9,0-3.5,0.5-4.7,1.5c-1.2,1-1.9,2.9-1.9,5.7H462C462.1,526.3,462.2,525.7,462.2,525.1z"
		/>
	<path fill="#0F293A" d="M470.7,538.3c2,0.8,3.9,1.2,5.7,1.2c1.8,0,3.3-0.4,4.5-1.1s1.9-1.7,1.9-2.9c0-1.2-0.4-2.2-1.3-2.9
		s-1.9-1.3-3.1-1.8c-1.2-0.5-2.4-0.9-3.6-1.4c-1.2-0.5-2.2-1.2-3.1-2.2c-0.8-0.9-1.3-2.1-1.3-3.4c0-2.2,0.8-3.8,2.2-5
		c1.5-1.2,3.4-1.7,5.6-1.7c2.3,0,4.4,0.4,6.5,1.1l-0.6,2.2c-1.6-0.6-3.5-0.8-5.5-0.8c-3.4,0-5.1,1.3-5.1,4c0,1.7,1.5,3.1,4.4,4.2
		c1.2,0.5,2.5,1,3.7,1.5c1.2,0.5,2.3,1.3,3.1,2.3c0.9,1,1.3,2.2,1.3,3.7c0,2.2-0.9,3.9-2.8,5c-1.9,1.2-4.1,1.8-6.6,1.8
		s-4.8-0.4-6.8-1.3L470.7,538.3z"/>
	<path fill="#0F293A" d="M509.7,525.9c0,1.2-0.1,2.4-0.3,3.7h-15.4c0.1,3.6,0.7,6.1,1.8,7.4c1.1,1.4,3,2,5.7,2
		c2.1,0,4.4-0.4,7.2-1.3l0.3,2.4c-0.8,0.3-1.3,0.5-1.7,0.6c-0.4,0.1-0.8,0.2-1.3,0.4c-0.5,0.1-0.8,0.3-1,0.3c-0.2,0.1-0.6,0.1-1,0.2
		c-0.4,0.1-0.8,0.2-1.1,0.2c-0.9,0.1-1.6,0.1-2.2,0.1c-3.1,0-5.5-1.1-7.2-3.2c-1.8-2.2-2.6-5.1-2.6-9c0-2.1,0.3-4,0.8-5.6
		s1.1-2.9,1.9-3.7c0.7-0.9,1.6-1.6,2.6-2.1c1.5-0.8,3.1-1.3,4.9-1.3C506.8,517.1,509.7,520.1,509.7,525.9z M506.7,525.1
		c0-2-0.5-3.3-1.5-4.1s-2.4-1.2-4.4-1.2c-1.9,0-3.5,0.5-4.7,1.5c-1.2,1-1.9,2.9-1.9,5.7h12.3C506.6,526.3,506.7,525.7,506.7,525.1z"
		/>
	<path fill="#0F293A" d="M532.2,527l0,5.8c0,0.9,0,1.8,0,2.5l1.1,6l0,0.2h-2.2l-0.2-0.1l-1.2-2.8c-3,2.1-6,3.2-8.9,3.3
		c-2.1,0-3.6-0.5-4.7-1.6c-1.1-1.1-1.6-2.6-1.6-4.6c0-2.7,0.8-4.6,2.3-5.6c1.5-1,3.6-1.5,6.3-1.5c0.3,0,2.3,0.1,5.9,0.3v-3.2
		c0-2.2-0.4-3.6-1.2-4.5c-0.8-0.8-1.9-1.2-3.3-1.2c-1.4,0-4.2,0.4-8.3,1.3l-0.4-2.3c4-1.2,6.9-1.8,8.7-1.8c2.7,0,4.8,0.8,6.4,2.5
		C531.8,520.6,532.2,523.1,532.2,527z M529.1,531.3l-5.1-0.2c-2.6,0-4.3,0.3-5.1,0.8s-1.2,1.6-1.2,3.1s0.3,2.6,0.8,3.2
		c0.5,0.6,1.4,0.9,2.7,0.9c1.3,0,2.8-0.3,4.5-0.8c1.7-0.5,2.9-1.1,3.3-1.8V531.3z"/>
	<path fill="#0F293A" d="M549.9,517.1c0.7,0,1.4,0.1,2.2,0.3l-1.2,2.9c-0.5-0.1-1-0.1-1.6-0.1c-2.1,0-4.1,1.1-6.3,3.4v18h-3v-17.8
		l-0.8-6h1.9l0.1,0.1l0.9,3.5c1.4-1.4,2.7-2.5,3.9-3.2C547.2,517.5,548.5,517.1,549.9,517.1z"/>
	<path fill="#0F293A" d="M558.2,519.4c1.2-0.8,2.4-1.4,3.6-1.8c1.2-0.4,2.5-0.5,4-0.5c1.5,0,3.1,0.3,4.9,0.9l-0.4,2.2
		c-1.8-0.4-3.2-0.5-4.3-0.5c-2.8,0-4.9,0.7-6.4,2.2c-1.5,1.5-2.2,4.1-2.2,7.8c0,6.6,2.7,9.9,8,9.9c1.7,0,3.4-0.6,5.3-1.8l1.3,2.1
		c-2.1,1.5-4.6,2.3-7.4,2.3c-1.5,0-2.7-0.1-3.8-0.4c-1.1-0.3-2.2-0.8-3.3-1.7c-2.3-1.7-3.4-5.1-3.4-10.4c0-2.4,0.4-4.5,1.1-6.3
		C556,521.6,557,520.3,558.2,519.4z"/>
	<path fill="#0F293A" d="M580.5,541.6h-3.1v-36h3.1v14.2c1.5-1,2.8-1.7,3.9-2.2c1.1-0.5,2.4-0.7,3.8-0.7c4.7,0,7.1,2.5,7.1,7.4v17.2
		h-3.2v-17.2c0-3-1.7-4.4-5.1-4.4c-1.4,0-2.8,0.3-4.2,1c-1.4,0.6-2.2,1.2-2.3,1.8V541.6z"/>
</g>
</svg>
