<svg viewBox="0 0 442 266" preserveAspectRatio="xMidYMid meet" version="1.1" xmlns="http://www.w3.org/2000/svg" xmlns:xlink="http://www.w3.org/1999/xlink" xmlns:sketch="http://www.bohemiancoding.com/sketch/ns">
    <title>Digital Business</title>
    <defs></defs>
    <g id="Page-1" stroke="none" stroke-width="1" fill="none" fill-rule="evenodd" sketch:type="MSPage">
        <g id="digibus--small" sketch:type="MSLayerGroup" transform="translate(1.000000, 0.000000)" fill="#FFFFFF">
            <path d="M286,0 L154.8,0 C142.8,0 132.9,9.9 132.9,21.9 L132.9,152.7 C132.9,164.7 142.8,174.6 154.8,174.6 L285.6,174.6 C297.6,174.6 307.5,164.7 307.5,152.7 L307.5,21.9 C307.9,9.9 298,0 286,0 L286,0 Z M298,21.9 L298,152.7 L298,164.7 L286,164.7 L154.8,164.7 L142.8,164.7 L142.8,152.7 L142.8,21.9 L142.8,9.9 L154.8,9.9 L285.6,9.9 L297.6,9.9 L297.6,21.9 L298,21.9 L298,21.9 Z" id="Shape" sketch:type="MSShapeGroup"></path>
            <path d="M265.6,65.7 L244.6,86.7 L242.7,86.7 C241.2,82.7 237.1,79.9 232.5,79.9 L207,79.9 C202.4,79.9 198.4,82.7 196.8,86.7 L193.1,86.7 L172.1,65.7 L265.6,65.7 L265.6,65.7 Z M281.4,57.7 L157.6,57.7 C156.1,57.7 154.8,58.6 154.5,59.9 L189.4,94.8 L203.6,94.8 L203.6,91 C203.6,89.1 205.1,87.9 206.7,87.9 L232.3,87.9 C234.2,87.9 235.4,89.4 235.4,91 L235.4,94.7 L247.7,94.7 L283.5,58.9 C283.2,58.3 282.3,57.7 281.4,57.7 L281.4,57.7 L281.4,57.7 Z" id="Shape" sketch:type="MSShapeGroup"></path>
            <path d="M276.4,91 L276.4,135.1 L162.3,135.1 L162.3,92.6 L178.3,108.6 C180.8,111.1 183.9,112.3 187.2,112.3 L196.1,112.3 C197.6,116.6 201.7,119.7 206.6,119.7 L232.2,119.7 C237.1,119.7 241.1,116.6 242.7,112.3 L249.8,112.3 C253.2,112.3 256.3,111.1 258.7,108.6 L276.4,91 L276.4,91 Z M284.5,71.6 L253.3,103.1 C252.4,104 251.1,104.6 249.9,104.6 L235.4,104.6 L235.4,108.6 C235.4,110.5 233.9,111.7 232.3,111.7 L206.7,111.7 C204.8,111.7 203.6,110.2 203.6,108.6 L203.6,104.6 L187.6,104.6 C186.4,104.6 185.1,104 184.2,103.1 L154.6,73.5 L154.6,140.2 C154.6,142.1 156.1,143.3 157.7,143.3 L281.4,143.3 C283.3,143.3 284.5,141.8 284.5,140.2 L284.5,71.6 L284.5,71.6 Z" id="Shape" sketch:type="MSShapeGroup"></path>
            <path d="M240.9,32.7 L237.5,32.7 L200.5,32.7 L197.1,32.7 C195.2,32.7 194,34.2 194,35.8 L194,39.2 L194,49.4 C194,51.3 195.5,52.5 197.1,52.5 L200.5,52.5 C202.4,52.5 203.6,51 203.6,49.4 L203.6,42.3 L234.2,42.3 L234.2,49.4 C234.2,51.3 235.7,52.5 237.3,52.5 L241,52.5 C242.9,52.5 244.1,51 244.1,49.4 L244.1,39.2 L244.1,35.8 C244,34.3 242.8,32.7 240.9,32.7 L240.9,32.7 L240.9,32.7 Z" id="Shape" sketch:type="MSShapeGroup"></path>
            <path d="M226.1,94.7 L212.5,94.7 C210.6,94.7 209.4,96.2 209.4,97.8 L209.4,102.1 C209.4,104 210.9,105.2 212.5,105.2 L226.1,105.2 C228,105.2 229.2,103.7 229.2,102.1 L229.2,97.8 C229.5,96.3 228,94.7 226.1,94.7 L226.1,94.7 L226.1,94.7 Z" id="Shape" sketch:type="MSShapeGroup"></path>
            <path d="M0.2,201.5 L12.7,201.5 C15.6,201.5 18.3,201.7 20.3,201.9 C22.3,202.1 24.3,202.8 26.3,203.7 C28.3,204.6 29.9,205.9 31,207.7 C33.5,211.3 34.8,217.1 34.8,224.9 C34.8,229.8 34.1,234.1 32.8,237.7 C31.9,240.2 30.1,242.6 27.7,244.9 C26.4,246.2 24.1,247.4 21,248.3 C19.2,248.7 17.4,249 15.4,249.2 L10,249.2 L0.2,249.2 L0.2,201.5 L0.2,201.5 Z M5.1,245.1 L10,245.1 L12,245.1 L14.7,245.1 C15.6,245.1 16.5,245.1 17.8,244.9 C19.1,244.9 20,244.7 20.7,244.5 C21.4,244.3 22,243.8 23.2,243.4 C24.1,243 25,242.5 25.4,241.8 C25.8,241.1 26.3,240.2 27,239.3 C27.7,238.4 28.1,237.1 28.3,235.9 C29,232.3 29.4,228.5 29.4,224.7 C29.4,220.9 29.2,217.8 28.7,215.3 C28.3,212.8 27.1,210.8 25.8,209.5 C24.5,208.2 22.7,207.3 20.9,206.8 C18.9,206.4 16.4,206.1 13.1,206.1 L5.3,206.1 L5.3,245 L5.1,245 L5.1,245.1 Z" id="Shape" stroke="#FFFFFF" stroke-width="1.1917" sketch:type="MSShapeGroup"></path>
            <path d="M44.7,200.8 L49.8,200.8 L49.8,206.2 L44.7,206.2 L44.7,200.8 L44.7,200.8 Z M45.2,213.1 L49.7,213.1 L49.7,249.4 L45.2,249.4 L45.2,213.1 L45.2,213.1 Z" id="Shape" stroke="#FFFFFF" stroke-width="1.1917" sketch:type="MSShapeGroup"></path>
            <path d="M85.4,224.1 C85.4,227.9 84.3,231 82,233.3 C79.8,235.5 76.6,236.7 72.8,236.7 C71.7,236.7 70.1,236.5 68.1,236.3 L64.1,242.1 L82.7,242.1 C85.2,242.1 87,243 88.3,244.8 C89.6,246.6 90.3,249.1 90.3,252 C90.3,256 88.7,259.2 85.4,261.4 C82.3,263.6 78,264.5 73.1,264.5 C68.2,264.5 64.6,263.6 62.1,262 C59.9,260.2 58.5,257.5 58.5,253.9 L65.4,246.7 C62.7,246.7 60.9,246.3 60,245.6 C59.1,244.9 58.7,243.8 58.7,242.2 C60.7,240 62.7,237.5 64.5,235.3 C62.7,234 61.4,232.4 60.9,230.8 C60.2,229.2 60,227 60,224.5 C60,220.7 61.1,217.8 63.6,215.5 C66.1,213.3 69,212.4 72.8,212.4 C75.3,212.4 77.7,212.8 79.7,214 L88,214 L87.1,217.8 L83,217.8 C84.8,219.6 85.4,221.8 85.4,224.1 L85.4,224.1 Z M72.9,260.5 L77.8,260.5 C78.7,260.5 79.8,260.3 80.7,259.8 C81.8,259.6 82.7,259.1 83.2,258.5 C84.8,257.4 85.4,255.4 85.4,252.5 C85.4,249.8 85,248 84.5,247.4 C83.8,246.7 82.3,246.5 79.8,246.5 L70,246.5 L64,254.6 C64,257.3 65.1,259.1 67.1,259.7 C68.7,260.1 70.7,260.5 72.9,260.5 L72.9,260.5 Z M72.9,232.8 C78.3,232.8 81,229.9 81,224.3 C81,221.2 80.3,218.7 79,217.6 C77.7,216.3 75.6,215.6 73,215.6 C70.3,215.6 68.3,216.3 67,217.6 C65.7,218.9 65,221.2 65,224.3 C65.1,230.1 67.8,232.8 72.9,232.8 L72.9,232.8 Z" id="Shape" stroke="#FFFFFF" stroke-width="1.1917" sketch:type="MSShapeGroup"></path>
            <path d="M100,200.8 L105.1,200.8 L105.1,206.2 L100,206.2 L100,200.8 L100,200.8 Z M100.4,213.1 L104.9,213.1 L104.9,249.4 L100.4,249.4 L100.4,213.1 L100.4,213.1 Z" id="Shape" stroke="#FFFFFF" stroke-width="1.1917" sketch:type="MSShapeGroup"></path>
            <path d="M117.2,216.9 C117.2,216.7 117,216.5 116.8,216.5 L113.9,216.5 L113.9,214.3 L117.3,213 L118.2,206.5 L122,206.5 L122,212.3 C122.2,212.7 123.1,212.7 125.1,212.7 L129.4,212.7 L128.7,216.1 L122.4,216.1 C122,216.1 121.7,216.1 121.7,216.3 L121.7,239.6 L123.7,249.2 L120.6,249.2 L120.4,249 L117.5,239.6 L117.5,217 L117.2,217 L117.2,216.9 Z" id="Shape" stroke="#FFFFFF" stroke-width="1.1917" sketch:type="MSShapeGroup"></path>
            <path d="M161.1,227.2 L161.1,235.9 L161.1,239.7 L162.7,248.7 L162.7,249.1 L159.6,249.1 L159.4,248.9 L157.6,244.6 C153.1,247.7 148.4,249.3 144.2,249.5 C141.1,249.5 138.8,248.6 137,247 C135.4,245.4 134.5,243 134.5,240.1 C134.5,236.1 135.6,233.2 137.9,231.6 C140.1,230 143.3,229.4 147.3,229.4 C147.7,229.4 150.7,229.6 156.3,229.8 L156.3,225.1 C156.3,222 155.6,219.5 154.5,218.4 C153.4,217.1 151.6,216.6 149.4,216.6 C147.2,216.6 143.1,217.3 136.9,218.6 L136.5,215 C142.5,213.2 147,212.3 149.7,212.3 C153.7,212.3 156.9,213.6 159.3,216.1 C160.2,217.6 161.1,221.4 161.1,227.2 L161.1,227.2 Z M156.2,233.7 L148.4,233.5 C144.4,233.5 141.9,233.9 140.8,234.6 C139.7,235.5 139,236.8 139,239.3 C139,241.5 139.4,243.3 140.1,244 C141,244.9 142.3,245.3 144.1,245.3 C146.1,245.3 148.4,244.9 151,244.2 C153.7,243.3 155.3,242.4 156.1,241.5 L156.2,233.7 L156.2,233.7 Z" id="Shape" stroke="#FFFFFF" stroke-width="1.1917" sketch:type="MSShapeGroup"></path>
            <path d="M174.5,195 L179,195 L179,240.4 L180.8,249.8 L177.4,249.8 L177.2,249.6 L174.5,240.4 L174.5,195 L174.5,195 Z" id="Shape" stroke="#FFFFFF" stroke-width="1.1917" sketch:type="MSShapeGroup"></path>
            <path d="M189.5,195 L194,195 L194,216.3 C196.9,213.6 200,212.5 203.2,212.5 C206.3,212.5 208.8,212.9 210.8,213.8 C212.6,214.7 214.2,216 215.1,217.8 C216.7,220.9 217.6,225.2 217.6,230.6 C217.6,234 217.2,236.9 216.3,239.6 C215.4,242.1 214.5,244.1 213.4,245.4 C212.3,246.7 210.9,247.6 209.4,248.5 C207.4,249.6 205.1,250.3 203.1,250.3 C201.8,250.3 200.9,250.3 200,250.1 C199.1,249.9 198.4,249.9 198,249.7 C197.6,249.7 197.1,249.5 196.4,249.3 C195.7,249.1 195.3,248.9 195.1,248.9 C194.9,248.9 194.2,248.7 193.5,248.2 C192.8,248 192.4,247.8 192.2,247.5 C190.6,246.8 189.7,246.4 189.5,246.2 L189.5,195.2 L189.5,195.2 L189.5,195 Z M194.2,244.4 C196.9,245.3 199.6,246 202,246 C204.5,246 206.3,245.8 207.6,245.1 C208.9,244.4 209.8,243.8 210.5,243.1 C211.2,242.2 211.6,241.1 212.1,239.7 C212.5,237.7 212.8,235.2 212.8,232.1 C212.8,226.3 212.4,222.3 211.2,220.2 C210.3,218.2 207.8,217.1 203.8,217.1 C199.8,217.1 196.6,218.4 194.4,221.1 L194.4,244.4 L194.2,244.4 L194.2,244.4 Z" id="Shape" sketch:type="MSShapeGroup"></path>
            <path d="M227.1,213.1 L231.8,213.1 L231.8,239.1 C231.8,241.6 232.5,243.4 233.8,244.2 C235.1,245.1 236.9,245.8 239.4,245.8 C241.9,245.8 244.1,245.4 245.9,244.5 C247.7,243.6 248.8,242.7 249.3,241.8 L249.3,213.2 L254,213.2 L254,240.1 L255.3,249.5 L252.2,249.5 L252,249.3 L250.4,245.3 C248.4,246.6 247,247.5 246.4,248 C245.5,248.4 244.4,249.1 242.8,249.6 C241.2,250 239.4,250.3 237.7,250.3 C230.8,250.3 227.2,246.5 227,239.1 L227,213.4 L227.1,213.4 L227.1,213.1 Z" id="Shape" sketch:type="MSShapeGroup"></path>
            <path d="M264.5,244.2 C267.6,245.3 270.3,246 273,246 C275.7,246 277.9,245.6 279.7,244.4 C281.5,243.3 282.6,241.9 282.6,239.9 C282.6,238.1 281.9,236.5 280.6,235.4 C279.3,234.3 277.7,233.4 275.9,232.7 C274.1,232 272.3,231.4 270.5,230.5 C268.7,229.8 267.1,228.7 265.8,227.4 C264.5,226.1 263.8,224.3 263.8,222.3 C263.8,219.2 264.9,216.5 267.2,214.9 C269.4,213.1 272.3,212.2 275.7,212.2 C279.1,212.2 282.4,212.9 285.5,214 L284.6,217.4 C282.1,216.5 279.5,216.1 276.3,216.1 C271.2,216.1 268.7,218.1 268.7,222.1 C268.7,224.6 270.9,226.8 275.4,228.4 C277.2,229.1 279.2,229.7 281,230.6 C282.8,231.5 284.4,232.6 285.7,234.2 C287,235.8 287.7,237.6 287.7,239.8 C287.7,243.2 286.4,245.6 283.4,247.4 C280.5,249.2 277.4,250.1 273.6,250.1 C269.8,250.1 266.4,249.4 263.3,248.1 L264.5,244.2 L264.5,244.2 Z" id="Shape" sketch:type="MSShapeGroup"></path>
            <path d="M296.5,200.8 L301.6,200.8 L301.6,206.2 L296.5,206.2 L296.5,200.8 L296.5,200.8 Z M296.7,213.1 L301.2,213.1 L301.2,249.4 L296.7,249.4 L296.7,213.1 L296.7,213.1 Z" id="Shape" sketch:type="MSShapeGroup"></path>
            <path d="M340.1,249.3 L335.4,249.3 L335.4,223.3 C335.4,220.8 334.7,219.3 333.4,218.2 C332.1,217.1 330.3,216.6 327.8,216.6 C325.3,216.6 323.3,217 321.3,217.9 C319.3,218.8 318.2,219.7 317.7,220.6 L317.7,249.2 L313,249.2 L313,222.3 L311.7,213.3 L314.8,213.3 L315,213.5 L316.3,217.3 C318.1,216.2 319.4,215.3 320.6,214.6 C323.3,213 326.2,212.1 329.6,212.1 C336.5,212.1 339.9,215.9 340.1,223.3 L340.1,249.3 L340.1,249.3 Z" id="Shape" sketch:type="MSShapeGroup"></path>
            <path d="M378.2,225.6 C378.2,227.4 378,229.2 377.8,231.2 L354.7,231.2 C354.9,236.6 355.8,240.4 357.4,242.4 C359,244.4 361.9,245.5 366.1,245.5 C369.2,245.5 372.8,244.8 376.8,243.5 L377.2,247.1 C376.1,247.5 375.2,247.8 374.5,248 C373.8,248.2 373.2,248.4 372.5,248.7 C371.8,248.9 371.4,249.1 370.9,249.1 C370.5,249.1 370,249.3 369.3,249.5 C368.6,249.7 368.2,249.7 367.7,249.7 C366.4,249.9 365.2,249.9 364.3,249.9 C359.6,249.9 356,248.3 353.3,245 C350.6,241.9 349.3,237.2 349.3,231.3 C349.3,228.2 349.7,225.3 350.4,222.8 C351.3,220.3 352.2,218.5 353.3,217.2 C354.4,215.9 355.8,215 357.1,214.1 C359.3,213 361.8,212.3 364.5,212.1 C373.7,212.4 378.2,216.9 378.2,225.6 L378.2,225.6 Z M373.5,224.5 C373.5,221.6 372.8,219.6 371.3,218.2 C369.7,217.1 367.7,216.4 364.8,216.4 C361.9,216.4 359.4,217.1 357.6,218.6 C355.8,220.2 354.7,223.1 354.7,227.1 L373.3,227.1 C373.5,226.3 373.5,225.4 373.5,224.5 L373.5,224.5 Z" id="Shape" sketch:type="MSShapeGroup"></path>
            <path d="M386.2,244.2 C389.3,245.3 392,246 394.7,246 C397.4,246 399.6,245.6 401.4,244.4 C403.2,243.2 404.3,241.9 404.3,239.9 C404.3,238.1 403.6,236.5 402.3,235.4 C401,234.3 399.4,233.4 397.6,232.7 C395.8,232 394,231.4 392.2,230.5 C390.4,229.8 388.8,228.7 387.5,227.4 C386.2,226.1 385.5,224.3 385.5,222.3 C385.5,219.2 386.6,216.5 388.9,214.9 C391.1,213.1 394,212.2 397.4,212.2 C400.8,212.2 404.1,212.9 407.2,214 L406.3,217.4 C403.8,216.5 401.2,216.1 398,216.1 C392.9,216.1 390.4,218.1 390.4,222.1 C390.4,224.6 392.6,226.8 397.1,228.4 C398.9,229.1 400.9,229.7 402.7,230.6 C404.5,231.5 406.1,232.6 407.4,234.2 C408.7,235.8 409.4,237.6 409.4,239.8 C409.4,243.2 408.1,245.6 405.1,247.4 C402.2,249.2 399.1,250.1 395.3,250.1 C391.5,250.1 388.1,249.4 385,248.1 L386.2,244.2 L386.2,244.2 Z" id="Shape" sketch:type="MSShapeGroup"></path>
            <path d="M417.1,244.2 C420.2,245.3 422.9,246 425.6,246 C428.3,246 430.5,245.6 432.3,244.4 C434.1,243.2 435.2,241.9 435.2,239.9 C435.2,238.1 434.5,236.5 433.2,235.4 C431.9,234.3 430.3,233.4 428.5,232.7 C426.7,232 424.9,231.4 423.1,230.5 C421.3,229.8 419.7,228.7 418.4,227.4 C417.1,226.1 416.4,224.3 416.4,222.3 C416.4,219.2 417.5,216.5 419.8,214.9 C422,213.1 424.9,212.2 428.3,212.2 C431.7,212.2 435,212.9 438.1,214 L437.2,217.4 C434.7,216.5 432.1,216.1 428.9,216.1 C423.8,216.1 421.3,218.1 421.3,222.1 C421.3,224.6 423.5,226.8 428,228.4 C429.8,229.1 431.8,229.7 433.6,230.6 C435.4,231.5 437,232.6 438.3,234.2 C439.6,235.8 440.3,237.6 440.3,239.8 C440.3,243.2 439,245.6 436,247.4 C433.1,249.2 430,250.1 426.2,250.1 C422.4,250.1 419,249.4 415.9,248.1 L417.1,244.2 L417.1,244.2 Z" id="Shape" sketch:type="MSShapeGroup"></path>
        </g>
    </g>
</svg>
