<svg viewBox="0 0 49 49" preserveAspectRatio="xMidYMid meet" version="1.1" xmlns="http://www.w3.org/2000/svg" xmlns:xlink="http://www.w3.org/1999/xlink" xmlns:sketch="http://www.bohemiancoding.com/sketch/ns">
  <g id="digibus" sketch:type="MSLayerGroup" fill="#ffffff">
      <path d="M42.4444444,0 L6.11111111,0 C2.72222222,0 0,2.72222222 0,6.11111111 L0,42.4444444 C0,45.8333333 2.72222222,48.5555556 6.11111111,48.5555556 L42.4444444,48.5555556 C45.8333333,48.5555556 48.5555556,45.8333333 48.5555556,42.4444444 L48.5555556,6.11111111 C48.5555556,2.72222222 45.7777778,0 42.4444444,0 L42.4444444,0 Z M45.7777778,6.11111111 L45.7777778,42.4444444 L45.7777778,45.7777778 L42.4444444,45.7777778 L6.11111111,45.7777778 L2.77777778,45.7777778 L2.77777778,42.4444444 L2.77777778,6.11111111 L2.77777778,2.77777778 L6.11111111,2.77777778 L42.4444444,2.77777778 L45.7777778,2.77777778 L45.7777778,6.11111111 L45.7777778,6.11111111 Z" id="Shape" sketch:type="MSShapeGroup"></path>
      <path d="M36.8333333,18.2222222 L31,24.1111111 L30.4444444,24.1111111 C30,23 28.8888889,22.1666667 27.5555556,22.1666667 L20.4444444,22.1666667 C19.1666667,22.1666667 18.0555556,22.9444444 17.5555556,24.1111111 L16.5555556,24.1111111 L10.7222222,18.2222222 L36.8333333,18.2222222 L36.8333333,18.2222222 Z M41.1666667,16 L6.83333333,16 C6.44444444,16 6.11111111,16.2777778 6,16.6111111 L15.6666667,26.2777778 L19.6111111,26.2777778 L19.6111111,25.2222222 C19.6111111,24.7222222 20,24.3333333 20.5,24.3333333 L27.6111111,24.3333333 C28.1111111,24.3333333 28.5,24.7222222 28.5,25.2222222 L28.5,26.2777778 L31.9444444,26.2777778 L41.8888889,16.3333333 C41.7222222,16.1666667 41.4444444,16 41.1666667,16 L41.1666667,16 L41.1666667,16 Z" id="Shape" sketch:type="MSShapeGroup"></path>
      <path d="M39.8333333,25.2777778 L39.8333333,37.5555556 L8.16666667,37.5555556 L8.16666667,25.7222222 L12.6111111,30.1666667 C13.2777778,30.8333333 14.1666667,31.2222222 15.1111111,31.2222222 L17.5555556,31.2222222 C18,32.3888889 19.1111111,33.2222222 20.4444444,33.2222222 L27.5555556,33.2222222 C28.8888889,33.2222222 30,32.3888889 30.4444444,31.2222222 L32.4444444,31.2222222 C33.3888889,31.2222222 34.2777778,30.8333333 34.9444444,30.1666667 L39.8333333,25.2777778 L39.8333333,25.2777778 Z M42.0555556,19.8888889 L33.3888889,28.5555556 C33.1666667,28.7777778 32.8333333,28.9444444 32.4444444,28.9444444 L28.4444444,28.9444444 L28.4444444,30.0555556 C28.4444444,30.5555556 28.0555556,30.9444444 27.5555556,30.9444444 L20.4444444,30.9444444 C19.9444444,30.9444444 19.5555556,30.5555556 19.5555556,30.0555556 L19.5555556,28.9444444 L15.0555556,28.9444444 C14.7222222,28.9444444 14.3888889,28.8333333 14.1111111,28.5555556 L5.94444444,20.3333333 L5.94444444,38.8333333 C5.94444444,39.3333333 6.33333333,39.7222222 6.83333333,39.7222222 L41.1666667,39.7222222 C41.6666667,39.7222222 42.0555556,39.3333333 42.0555556,38.8333333 L42.0555556,19.8888889 L42.0555556,19.8888889 L42.0555556,19.8888889 Z" id="Shape" sketch:type="MSShapeGroup"></path>
      <path d="M30,9.11111111 L29.0555556,9.11111111 L18.7777778,9.11111111 L17.8333333,9.11111111 C17.3333333,9.11111111 16.9444444,9.5 16.9444444,10 L16.9444444,10.9444444 L16.9444444,13.7777778 C16.9444444,14.2777778 17.3333333,14.6666667 17.8333333,14.6666667 L18.7777778,14.6666667 C19.2777778,14.6666667 19.6666667,14.2777778 19.6666667,13.7777778 L19.6666667,11.7777778 L28.1666667,11.7777778 L28.1666667,13.7777778 C28.1666667,14.2777778 28.5555556,14.6666667 29.0555556,14.6666667 L30,14.6666667 C30.5,14.6666667 30.8888889,14.2777778 30.8888889,13.7777778 L30.8888889,10.9444444 L30.8888889,10 C30.8333333,9.5 30.4444444,9.11111111 30,9.11111111 L30,9.11111111 L30,9.11111111 Z" id="Shape" sketch:type="MSShapeGroup"></path>
      <path d="M25.8888889,26.3333333 L22.1111111,26.3333333 C21.6111111,26.3333333 21.2222222,26.7222222 21.2222222,27.2222222 L21.2222222,28.4444444 C21.2222222,28.9444444 21.6111111,29.3333333 22.1111111,29.3333333 L25.8888889,29.3333333 C26.3888889,29.3333333 26.7777778,28.9444444 26.7777778,28.4444444 L26.7777778,27.2222222 C26.7777778,26.7222222 26.3888889,26.3333333 25.8888889,26.3333333 L25.8888889,26.3333333 L25.8888889,26.3333333 Z" id="Shape" sketch:type="MSShapeGroup"></path>
  </g>
</svg>
