<svg version="1.1" id="Layer_1" xmlns="http://www.w3.org/2000/svg" xmlns:xlink="http://www.w3.org/1999/xlink" x="0px" y="0px"
	 viewBox="0 139 610.8 122" preserveAspectRatio="xMidYMid meet" enable-background="new 0 139 610.8 122" xml:space="preserve">
	<title>Bureau of Communications Research</title>
<g>
	<g opacity="7.000000e-02">
		<path fill="#FFFFFF" d="M59.3,199.6c-5.5,0-10.4,2.5-13.6,6.5c-5,6.1-14.6,3.9-16.8-3.4c-0.7-9.7,8.8-17.1,18-14
			c1.6,0.6,3.5,0.9,5.4,0.9c8.8,0,15.9-7.1,15.9-15.9c0-8.8-7.1-15.9-15.9-15.9s-15.9,7.1-15.9,15.9c0,1,0.1,2,0.3,2.9
			c1.6,9.9-7.5,18.2-17.2,15.6c-1.2-0.3-2.5-0.5-3.8-0.5c-7.4,0-13.4,6-13.4,13.4s6,13.4,13.4,13.4c3.7,0,7.1-1.5,9.6-4l0,0
			c5.5-5.6,14.7-2.8,16.5,4.5c-0.4,7.6-8.7,12.5-15.7,9c-2.5-1.3-5.4-2.1-8.3-2.1C7.9,225.6,0,233.5,0,243.3C0,253,7.9,261,17.7,261
			s17.7-7.9,17.7-17.7c0-0.2,0-0.4,0-0.5l0,0c-0.2-8.1,8.3-13.6,15.7-9.9c2.5,1.3,5.4,2.1,8.3,2.1c9.8,0,17.7-7.9,17.7-17.7
			C77,207.5,69.1,199.6,59.3,199.6z"/>
		<path fill="#F4F4F3" d="M59.7,199.3c-5.5,0-10.4,2.5-13.6,6.5c-5,6.1-14.6,3.9-16.8-3.4c-0.7-9.8,8.7-17.3,18-14.1
			c1.6,0.6,3.5,0.9,5.4,0.9c8.8,0,15.9-7.1,15.9-15.9c0-8.8-7.1-15.9-15.9-15.9s-15.9,7.1-15.9,15.9c0,1,0.1,2,0.3,2.9
			c1.8,9.9-7.5,18.3-17.2,15.6c-1.2-0.3-2.5-0.5-3.8-0.5c-7.4,0-13.4,6-13.4,13.4s6,13.4,13.4,13.4c3.7,0,7.1-1.5,9.6-4l0,0
			c5.5-5.6,14.7-2.8,16.5,4.5c-0.4,7.6-8.7,12.6-15.7,9c-2.5-1.3-5.4-2.1-8.3-2.1c-9.8,0-17.7,7.9-17.7,17.7
			c0,9.8,7.9,17.7,17.7,17.7s17.7-7.9,17.7-17.7c0-0.2,0-0.4,0-0.5l0,0c-0.2-8.1,8.4-13.7,15.7-9.9c2.5,1.3,5.4,2.1,8.3,2.1
			c9.8,0,17.7-7.9,17.7-17.7C77.5,207.2,69.5,199.3,59.7,199.3z"/>
		<path fill="#EDECEC" d="M60.2,199.1c-5.5,0-10.4,2.5-13.6,6.5c-5,6.1-14.6,3.9-16.8-3.4c-0.7-9.7,8.8-17.2,18-14
			c1.6,0.6,3.5,0.9,5.4,0.9c8.8-0.2,15.9-7.3,15.9-16.1c0-8.8-7.1-15.9-15.9-15.9s-15.9,7.1-15.9,15.9c0,1,0.1,2,0.3,2.9
			c1.8,9.9-7.5,18.3-17.2,15.6c-1.2-0.3-2.5-0.5-3.8-0.5c-7.4,0-13.4,6-13.4,13.4s6,13.4,13.4,13.4c3.7,0,7.1-1.5,9.6-4l0,0
			c5.5-5.6,14.7-2.8,16.5,4.5c-0.4,7.6-8.7,12.6-15.7,9c-2.5-1.3-5.4-2.1-8.3-2.1c-9.8,0-17.7,7.9-17.7,17.7s7.9,17.7,17.7,17.7
			s17.7-7.9,17.7-17.7c0-0.2,0-0.4,0-0.5l0,0c-0.2-8.1,8.4-13.7,15.7-9.9c2.5,1.3,5.4,2.1,8.3,2.1c9.8,0,17.7-7.9,17.7-17.7
			C77.9,206.9,69.9,199.1,60.2,199.1z"/>
		<path fill="#E7E5E5" d="M60.6,198.8c-5.5,0-10.4,2.5-13.6,6.5c-5,6.1-14.6,3.9-16.8-3.4c-0.7-9.7,8.8-17.2,18-14
			c1.6,0.6,3.5,0.9,5.4,0.9c8.8,0,15.9-7.1,15.9-15.9S62.3,157,53.6,157s-15.9,7.1-15.9,15.9c0,1,0.1,2,0.3,2.9
			c1.8,9.9-7.5,18.3-17.2,15.6c-1.2-0.3-2.5-0.5-3.8-0.5c-7.4,0-13.4,6-13.4,13.4s6,13.4,13.4,13.4c3.7,0,7.1-1.5,9.6-4l0,0
			c5.5-5.6,14.7-2.8,16.5,4.5c-0.4,7.6-8.7,12.6-15.7,9c-2.5-1.3-5.4-2.1-8.3-2.1c-9.8,0-17.7,7.9-17.7,17.7
			c0,9.8,7.9,17.7,17.7,17.7s17.7-7.9,17.7-17.7c0-0.2,0-0.4,0-0.5l0,0c-0.2-8.1,8.4-13.7,15.7-9.9c2.5,1.3,5.4,2.1,8.3,2.1
			c9.8,0,17.7-7.9,17.7-17.7C78.3,206.7,70.4,198.8,60.6,198.8z"/>
		<path fill="#E1DFDF" d="M61,198.5c-5.5,0-10.4,2.5-13.6,6.5c-5,6.1-14.6,3.9-16.8-3.4c-0.7-9.8,8.7-17.3,18-14.1
			c1.6,0.6,3.5,0.9,5.4,0.9c8.8,0,15.9-7.1,15.9-15.9s-7.1-15.9-15.9-15.9s-15.9,7.1-15.9,15.9c0,1,0.1,2,0.3,2.9
			c1.8,9.9-7.5,18.3-17.2,15.6c-1.2-0.3-2.5-0.5-3.8-0.5c-7.4,0-13.4,6-13.4,13.4c0,7.4,6,13.4,13.4,13.4c3.7,0,7.1-1.5,9.6-4l0,0
			c5.5-5.6,14.7-2.8,16.5,4.5c-0.4,7.6-8.7,12.6-15.7,9c-2.5-1.3-5.4-2.1-8.3-2.1c-9.8,0-17.7,7.9-17.7,17.7
			c0,9.8,7.9,17.7,17.7,17.7s17.7-7.9,17.7-17.7c0-0.2,0-0.4,0-0.5l0,0c-0.2-8.1,8.4-13.7,15.7-9.9c2.5,1.3,5.4,2.1,8.3,2.1
			c9.8,0,17.7-7.9,17.7-17.7C78.7,206.4,70.8,198.5,61,198.5z"/>
		<path fill="#DBD9D9" d="M61.4,198.1c-5.5,0-10.4,2.5-13.6,6.5c-5,6.1-14.6,3.9-16.8-3.4c-0.7-9.7,8.8-17.2,18-14
			c1.6,0.6,3.5,0.9,5.4,0.9c8.8,0,15.9-7.1,15.9-15.9c0-8.8-7.1-15.9-15.9-15.9s-15.9,7.1-15.9,15.9c0,1,0.1,2,0.3,2.9
			c1.8,9.9-7.5,18.3-17.2,15.6c-1.2-0.3-2.5-0.5-3.8-0.5c-7.4,0-13.4,6-13.4,13.4s6,13.4,13.4,13.4c3.7,0,7.1-1.5,9.6-4l0,0
			c5.5-5.6,14.7-2.8,16.5,4.5c-0.4,7.6-8.7,12.6-15.7,9c-2.5-1.3-5.4-2.1-8.3-2.1c-9.9-0.2-17.8,7.7-17.8,17.5
			c0,9.8,7.9,17.7,17.7,17.7s17.7-7.9,17.7-17.7c0-0.2,0-0.4,0-0.5l0,0c-0.2-8.1,8.4-13.7,15.7-9.9c2.5,1.3,5.4,2.1,8.3,2.1
			c9.8,0,17.7-7.9,17.7-17.7C79.1,206.1,71.2,198.1,61.4,198.1z"/>
		<path fill="#D6D4D3" d="M61.8,197.9c-5.5,0-10.4,2.5-13.6,6.5c-5,6.1-14.6,3.9-16.8-3.4c-0.7-9.7,8.8-17.2,18-14
			c1.6,0.6,3.5,0.9,5.4,0.9c8.8,0,15.9-7.1,15.9-15.9c0-8.8-7.1-15.9-15.9-15.9s-15.9,7.1-15.9,15.9c0,1,0.1,2,0.3,2.9
			c1.8,9.9-7.5,18.3-17.2,15.6c-1.2-0.3-2.5-0.5-3.8-0.5c-7.4,0-13.4,6-13.4,13.4c0,7.4,6,13.4,13.4,13.4c3.7,0,7.1-1.5,9.6-4l0,0
			c5.5-5.6,14.7-2.8,16.5,4.5c-0.4,7.6-8.7,12.6-15.7,9c-2.5-1.3-5.4-2.1-8.3-2.1c-9.8,0-17.7,7.9-17.7,17.7
			c0,9.8,7.9,17.7,17.7,17.7S38,251.7,38,241.9c0-0.2,0-0.4,0-0.5l0,0c-0.2-8.1,8.4-13.7,15.7-9.9c2.5,1.3,5.4,2.1,8.3,2.1
			c9.8,0,17.7-7.9,17.7-17.7C79.5,205.8,71.6,197.9,61.8,197.9z"/>
		<path fill="#D0CECE" d="M62.2,197.6c-5.5,0-10.4,2.5-13.6,6.5c-5,6-14.7,3.9-16.9-3.5c-0.7-9.7,8.8-17.2,18-14
			c1.6,0.6,3.5,0.9,5.4,0.9c8.8,0,15.9-7.1,15.9-15.9c0-8.8-7.1-15.9-15.9-15.9s-15.9,7.1-15.9,15.9c0,1,0.1,2,0.3,2.9
			c1.8,9.9-7.5,18.3-17.2,15.6c-1.2-0.4-2.5-0.6-3.8-0.6c-7.4,0-13.4,6-13.4,13.4s6,13.4,13.4,13.4c3.7,0,7.1-1.5,9.6-4l0,0
			c5.5-5.6,14.7-2.8,16.5,4.5c-0.4,7.6-8.7,12.6-15.7,9c-2.5-1.3-5.4-2.1-8.3-2.1c-9.8,0-17.7,7.9-17.7,17.7
			c0,9.8,7.9,17.7,17.7,17.7s17.7-7.9,17.7-17.7c0-0.2,0-0.4,0-0.5l0,0c-0.2-8.1,8.4-13.7,15.7-9.9c2.5,1.3,5.4,2.1,8.3,2.1
			c9.8,0,17.7-7.9,17.7-17.7C79.9,205.6,72,197.6,62.2,197.6z"/>
		<path fill="#CBC9C9" d="M62.6,197.3c-5.5,0-10.4,2.5-13.6,6.5c-5,6.1-14.6,3.9-16.8-3.4c-0.7-9.7,8.8-17.2,18-14
			c1.6,0.6,3.5,0.9,5.4,0.9c8.8,0,15.9-7.1,15.9-15.9c0-8.8-7.1-15.9-15.9-15.9s-15.9,7.1-15.9,15.9c0,1,0.1,2,0.3,2.9
			c1.8,9.9-7.5,18.3-17.2,15.6c-1.2-0.3-2.5-0.5-3.8-0.5c-7.4,0-13.4,6-13.4,13.4s6,13.4,13.4,13.4c3.7,0,7.1-1.5,9.6-4l0,0
			c5.5-5.6,14.7-2.8,16.5,4.5c-0.4,7.6-8.7,12.6-15.7,9c-2.5-1.3-5.4-2.1-8.3-2.1c-9.8,0-17.7,7.9-17.7,17.7
			c0,9.8,7.9,17.7,17.7,17.7s17.7-7.9,17.7-17.7c0-0.2,0-0.4,0-0.5l0,0c-0.2-8.1,8.4-13.7,15.7-9.9c2.5,1.3,5.4,2.1,8.3,2.1
			c9.8,0,17.7-7.9,17.7-17.7C80.3,205.3,72.4,197.3,62.6,197.3z"/>
		<path fill="#C6C3C3" d="M63,197c-5.5,0-10.4,2.5-13.6,6.5c-5,6.1-14.6,3.9-16.8-3.4c-0.7-9.7,8.8-17.2,18-14
			c1.6,0.6,3.5,0.9,5.4,0.9c8.8,0,15.9-7.1,15.9-15.9c0-8.8-7.1-15.9-15.9-15.9s-15.9,7.1-15.9,15.9c0,1,0.1,2,0.3,2.9
			c1.8,9.9-7.5,18.3-17.2,15.6c-1.2-0.3-2.5-0.5-3.8-0.5c-7.4,0-13.4,6-13.4,13.4s6,13.4,13.4,13.4c3.7,0,7.1-1.5,9.6-4l0,0
			c5.5-5.6,14.7-2.8,16.5,4.5c-0.4,7.6-8.7,12.6-15.7,9c-2.5-1.3-5.4-2.1-8.3-2.1c-9.8,0-17.7,7.9-17.7,17.7s7.9,17.7,17.7,17.7
			s17.7-7.9,17.7-17.7c0-0.2,0-0.4,0-0.5l0,0c-0.2-8.1,8.4-13.7,15.7-9.9c2.5,1.3,5.4,2.1,8.3,2.1c9.8,0,17.7-7.9,17.7-17.7
			C80.8,204.9,72.8,197,63,197z"/>
		<path fill="#C0BEBE" d="M63.5,196.8c-5.5,0-10.4,2.5-13.6,6.5c-5,6-14.7,3.8-16.9-3.5c-0.7-9.7,8.8-17.2,18-14
			c1.6,0.6,3.5,0.9,5.4,0.9c8.8,0,15.9-7.1,15.9-15.9c0-8.8-7.1-15.9-15.9-15.9s-15.9,7.1-15.9,15.9c0,1,0.1,2,0.3,2.9
			c1.8,9.9-7.5,18.3-17.2,15.6c-1.2-0.3-2.5-0.5-3.8-0.5c-7.4,0-13.4,6-13.4,13.4s6,13.4,13.4,13.4c3.7,0,7.1-1.5,9.6-4l0,0
			c5.5-5.6,14.7-2.8,16.5,4.5c-0.4,7.6-8.7,12.6-15.7,9c-2.5-1.3-5.4-2.1-8.3-2.1c-9.8-0.2-17.7,7.7-17.7,17.5
			c0,9.8,7.9,17.7,17.7,17.7s17.7-7.9,17.7-17.7c0-0.2,0-0.4,0-0.5l0,0c-0.2-8.1,8.4-13.7,15.7-9.9c2.5,1.3,5.4,2.1,8.3,2.1
			c9.8,0,17.7-7.9,17.7-17.7C81.2,204.6,73.2,196.8,63.5,196.8z"/>
		<path fill="#BBB9B9" d="M63.9,196.5c-5.5,0-10.4,2.5-13.6,6.5c-5,6.1-14.6,3.9-16.8-3.4c-0.7-9.8,8.8-17.3,18-14.1
			c1.6,0.6,3.5,0.9,5.4,0.9c8.8,0,15.9-7.1,15.9-15.9c0-8.8-7.1-15.9-15.9-15.9S41,161.8,41,170.5c0,1,0.1,2,0.3,2.9
			c1.8,9.9-7.5,18.3-17.2,15.6c-1.2-0.3-2.5-0.5-3.8-0.5c-7.4,0-13.4,6-13.4,13.4s6,13.4,13.4,13.4c3.7,0,7.1-1.5,9.6-4l0,0
			c5.5-5.6,14.7-2.8,16.5,4.5c-0.4,7.6-8.7,12.6-15.7,9c-2.5-1.3-5.4-2.1-8.3-2.1c-9.8,0-17.7,7.9-17.7,17.7
			c0,9.8,7.9,17.7,17.7,17.7s17.7-7.9,17.7-17.7c0-0.2,0-0.4,0-0.5l0,0c-0.2-8.1,8.4-13.7,15.7-9.9c2.5,1.3,5.4,2.1,8.3,2.1
			c9.8,0,17.7-7.9,17.7-17.7C81.6,204.4,73.6,196.5,63.9,196.5z"/>
		<path fill="#B7B4B4" d="M64.3,196.2c-5.5,0-10.4,2.5-13.6,6.5c-5,6.1-14.6,3.9-16.8-3.4c-0.7-9.7,8.8-17.2,18-14
			c1.6,0.6,3.5,0.9,5.4,0.9c8.8,0,15.9-7.1,15.9-15.9c0-8.8-7.1-15.9-15.9-15.9s-15.9,7.1-15.9,15.9c0,1,0.1,2,0.3,2.9
			c1.8,9.9-7.5,18.3-17.2,15.6c-1.2-0.3-2.5-0.5-3.8-0.5c-7.4,0-13.4,6-13.4,13.4c0,7.4,6,13.4,13.4,13.4c3.7,0,7.1-1.5,9.6-4l0,0
			c5.5-5.6,14.7-2.8,16.5,4.5c-0.4,7.6-8.7,12.6-15.7,9c-2.5-1.3-5.4-2.1-8.3-2.1C13,222.5,5,230.4,5,240.2
			c0,9.8,7.9,17.7,17.7,17.7s17.7-7.9,17.7-17.7c0-0.2,0-0.4,0-0.5l0,0c-0.2-8.1,8.4-13.7,15.7-9.9c2.5,1.3,5.4,2.1,8.3,2.1
			c9.8,0,17.7-7.9,17.7-17.7C82,204.1,74.1,196.2,64.3,196.2z"/>
		<path fill="#B2AFAF" d="M64.7,195.9c-5.5,0-10.4,2.5-13.6,6.5c-5,6.1-14.6,3.9-16.8-3.4c-0.7-9.7,8.8-17.2,18-14
			c1.6,0.6,3.5,0.9,5.4,0.9c8.8,0,15.9-7.1,15.9-15.9c0-8.8-7.1-15.9-15.9-15.9s-15.9,7.1-15.9,15.9c0,1,0.1,2,0.3,2.9
			c1.8,9.9-7.5,18.3-17.2,15.6c-1.2-0.3-2.5-0.5-3.8-0.5c-7.4,0-13.4,6-13.4,13.4s6,13.4,13.4,13.4c3.7,0,7.1-1.5,9.6-4l0,0
			c5.5-5.6,14.7-2.8,16.5,4.5c-0.4,7.6-8.7,12.6-15.7,9c-2.5-1.3-5.4-2.1-8.3-2.1c-9.8,0-17.7,7.9-17.7,17.7
			c0,9.8,7.9,17.7,17.7,17.7s17.7-7.9,17.7-17.7c0-0.2,0-0.4,0-0.5l0,0c-0.2-8.1,8.4-13.7,15.7-9.9c2.5,1.3,5.4,2.1,8.3,2.1
			c9.8,0,17.7-7.9,17.7-17.7C82.4,203.8,74.5,195.9,64.7,195.9z"/>
		<path fill="#ADAAAA" d="M65.1,195.7c-5.5,0-10.4,2.5-13.6,6.5c-5,6.1-14.6,3.9-16.8-3.4c-0.7-9.7,8.8-17.2,18-14
			c1.6,0.6,3.5,0.9,5.4,0.9c8.8,0,15.9-7.1,15.9-15.9c0-8.8-7.1-15.9-15.9-15.9s-15.9,7.1-15.9,15.9c0,1,0.1,2,0.3,2.9
			c1.8,9.9-7.5,18.3-17.2,15.6c-1.2-0.3-2.5-0.5-3.8-0.5c-7.4,0-13.4,6-13.4,13.4s6,13.4,13.4,13.4c3.7,0,7.1-1.5,9.6-4l0,0
			c5.5-5.6,14.7-2.8,16.5,4.5c-0.4,7.6-8.7,12.6-15.7,9c-2.5-1.3-5.4-2.1-8.3-2.1c-9.8,0-17.7,7.9-17.7,17.7
			c0,9.8,7.9,17.7,17.7,17.7s17.7-7.9,17.7-17.7c0-0.2,0-0.4,0-0.5l0,0c-0.2-8.1,8.4-13.7,15.7-9.9c2.5,1.3,5.4,2.1,8.3,2.1
			c9.8,0,17.7-7.9,17.7-17.7C82.8,203.5,74.9,195.7,65.1,195.7z"/>
		<path fill="#A8A5A5" d="M65.5,195.4c-5.5,0-10.4,2.5-13.6,6.5c-5,6.1-14.6,3.9-16.8-3.4c-0.7-9.7,8.8-17.2,18-14
			c1.6,0.6,3.5,0.9,5.4,0.9c8.8,0,15.9-7.1,15.9-15.9c0-8.8-7.1-15.9-15.9-15.9s-15.9,7.1-15.9,15.9c0,1,0.1,2,0.3,2.9
			c1.8,9.9-7.5,18.3-17.2,15.6c-1.2-0.3-2.5-0.5-3.8-0.5c-7.4,0-13.4,6-13.4,13.4s6,13.4,13.4,13.4c3.7,0,7.1-1.5,9.6-4l0,0
			c5.5-5.6,14.7-2.8,16.5,4.5c-0.5,7.4-8.9,12.4-15.8,8.8c-2.5-1.3-5.4-2.1-8.3-2.1c-9.8-0.1-17.7,7.8-17.7,17.6
			c0,9.8,7.9,17.7,17.7,17.7s17.7-7.9,17.7-17.7c0-0.2,0-0.4,0-0.5l0,0c-0.2-8.1,8.4-13.7,15.7-9.9c2.5,1.3,5.4,2.1,8.3,2.1
			c9.8,0,17.7-7.9,17.7-17.7C83.2,203.3,75.3,195.4,65.5,195.4z"/>
		<path fill="#A4A1A1" d="M65.9,195.1c-5.5,0-10.4,2.5-13.6,6.5c-5,6.1-14.6,3.9-16.8-3.4c-0.7-9.8,8.8-17.3,18-14.1
			c1.6,0.6,3.5,0.9,5.4,0.9c8.8,0,15.9-7.1,15.9-15.9c0-8.8-7.1-15.9-15.9-15.9s-15.9,7.1-15.9,15.9c0,1,0.1,2,0.3,2.9
			c1.8,9.9-7.5,18.3-17.2,15.6c-1.2-0.3-2.5-0.5-3.8-0.5C14.9,187,9,193,9,200.4s6,13.4,13.4,13.4c3.7,0,7.1-1.5,9.6-4l0,0
			c5.5-5.6,14.7-2.8,16.5,4.5c-0.4,7.6-8.7,12.6-15.7,9c-2.5-1.3-5.4-2.1-8.3-2.1c-9.8,0-17.7,7.9-17.7,17.7
			c0,9.8,7.9,17.7,17.7,17.7s17.7-7.9,17.7-17.7c0-0.2,0-0.4,0-0.5l0,0c-0.2-8.1,8.4-13.7,15.7-9.9c2.5,1.3,5.4,2.1,8.3,2.1
			c9.8,0,17.7-7.9,17.7-17.7C83.6,203,75.7,195.1,65.9,195.1z"/>
		<path fill="#9F9C9C" d="M66.3,194.7c-5.5,0-10.4,2.5-13.6,6.5c-5,6.1-14.6,3.9-16.8-3.4c-0.7-9.7,8.8-17.2,18-14
			c1.6,0.6,3.5,0.9,5.4,0.9c8.8,0,15.9-7.1,15.9-15.9c0-8.8-7.1-15.9-15.9-15.9s-15.9,7.1-15.9,15.9c0,1,0.1,2,0.3,2.9
			c1.8,9.9-7.5,18.3-17.2,15.6c-1.2-0.3-2.5-0.5-3.8-0.5c-7.4,0-13.4,6-13.4,13.4c0,7.4,6,13.4,13.4,13.4c3.7,0,7.1-1.5,9.6-4l0,0
			c5.5-5.6,14.7-2.8,16.5,4.5c-0.4,7.6-8.7,12.6-15.7,9c-2.5-1.3-5.4-2.1-8.3-2.1c-9.8,0-17.7,7.9-17.7,17.7
			c0,9.8,7.9,17.7,17.7,17.7s17.7-7.9,17.7-17.7c0-0.2,0-0.4,0-0.5l0,0c-0.2-8.1,8.4-13.7,15.7-9.9c2.5,1.3,5.4,2.1,8.3,2.1
			c9.8,0,17.7-7.9,17.7-17.7C84.1,202.7,76.1,194.7,66.3,194.7z"/>
		<path fill="#9B9898" d="M66.7,194.5c-5.5,0-10.4,2.5-13.6,6.5c-5,6.1-14.6,3.9-16.8-3.4c-0.7-9.7,8.8-17.2,18-14
			c1.6,0.6,3.5,0.9,5.4,0.9c8.8,0,15.9-7.1,15.9-15.9c0-8.8-7.1-15.9-15.9-15.9s-15.9,7.1-15.9,15.9c0,1,0.1,2,0.3,2.9
			c1.8,9.9-7.5,18.3-17.2,15.6c-1.2-0.3-2.5-0.5-3.8-0.5c-7.4,0-13.4,6-13.4,13.4s6,13.4,13.4,13.4c3.7,0,7.1-1.5,9.6-4l0,0
			c5.5-5.6,14.7-2.8,16.5,4.5c-0.4,7.6-8.7,12.6-15.7,9c-2.5-1.3-5.4-2.1-8.3-2.1c-9.8,0-17.7,7.9-17.7,17.7
			c0,9.8,7.9,17.7,17.7,17.7S43,248.3,43,238.5c0-0.2,0-0.4,0-0.5l0,0c-0.2-8.1,8.4-13.7,15.7-9.9c2.5,1.3,5.4,2.1,8.3,2.1
			c9.6-0.3,17.5-8.2,17.5-18C84.5,202.4,76.5,194.5,66.7,194.5z"/>
		<path fill="#969393" d="M67.2,194.2c-5.5,0-10.4,2.5-13.6,6.5c-5,6.1-14.6,3.9-16.8-3.4c-0.7-9.7,8.8-17.2,18-14
			c1.6,0.6,3.5,0.9,5.4,0.9c8.8,0,15.9-7.1,15.9-15.9c0-8.8-7.1-15.9-15.9-15.9s-15.9,7.1-15.9,15.9c0,1,0.1,2,0.3,2.9
			c1.8,9.9-7.5,18.3-17.2,15.6c-1.2-0.3-2.5-0.5-3.8-0.5c-7.4,0-13.4,6-13.4,13.4s6,13.4,13.4,13.4c3.7,0,7.1-1.5,9.6-4l0,0
			c5.5-5.6,14.7-2.8,16.5,4.5c-0.4,7.6-8.7,12.6-15.7,9c-2.5-1.3-5.4-2.1-8.3-2.1c-9.8,0-17.7,7.9-17.7,17.7s7.9,17.7,17.7,17.7
			s17.7-7.9,17.7-17.7c0-0.2,0-0.4,0-0.5l0,0c-0.2-8.1,8.4-13.7,15.7-9.9c2.5,1.3,5.4,2.1,8.3,2.1c9.8,0,17.7-7.9,17.7-17.7
			C84.9,202.2,76.9,194.2,67.2,194.2z"/>
		<path fill="#928F8F" d="M67.6,193.9c-5.5,0-10.4,2.5-13.6,6.5c-5,6.1-14.6,3.9-16.8-3.4c-0.7-9.7,8.8-17.2,18-14
			c1.6,0.6,3.5,0.9,5.4,0.9c8.8,0,15.9-7.1,15.9-15.9c0-8.8-7.1-15.9-15.9-15.9s-15.9,7.1-15.9,15.9c0,1,0.1,2,0.3,2.9
			c1.8,9.9-7.5,18.3-17.2,15.6c-1.2-0.3-2.5-0.5-3.8-0.5c-7.4,0-13.4,6-13.4,13.4s6,13.4,13.4,13.4c3.7,0,7.1-1.5,9.6-4l0,0
			c5.5-5.6,14.7-2.8,16.5,4.5c-0.4,7.6-8.7,12.6-15.7,9c-2.5-1.3-5.4-2.1-8.3-2.1c-9.9-0.2-17.8,7.7-17.8,17.4
			c0,9.8,7.9,17.7,17.7,17.7s17.7-7.9,17.7-17.7c0-0.2,0-0.4,0-0.5l0,0c-0.2-8.1,8.4-13.7,15.7-9.9c2.5,1.3,5.4,2.1,8.3,2.1
			c9.8,0,17.7-7.9,17.7-17.7C85.3,201.9,77.4,193.9,67.6,193.9z"/>
		<path fill="#8D8A8A" d="M68,193.6c-5.5,0-10.4,2.5-13.6,6.5c-5,6.1-14.6,3.9-16.8-3.4c-0.7-9.8,8.8-17.3,18-14.1
			c1.6,0.6,3.5,0.9,5.4,0.9c8.8,0,15.9-7.1,15.9-15.9c0-8.8-7.1-15.9-15.9-15.9s-15.9,7.1-15.9,15.9c0,1,0.1,2,0.3,2.9
			c1.8,9.9-7.5,18.3-17.2,15.6c-1.2-0.3-2.5-0.5-3.8-0.5c-7.4,0-13.4,6-13.4,13.4c0,7.4,6,13.4,13.4,13.4c3.7,0,7.1-1.5,9.6-4l0,0
			c5.5-5.6,14.7-2.8,16.5,4.5c-0.4,7.6-8.7,12.6-15.7,9c-2.5-1.3-5.4-2.1-8.3-2.1c-9.8,0-17.7,7.9-17.7,17.7
			c0,9.8,7.9,17.7,17.7,17.7s17.7-7.9,17.7-17.7c0-0.2,0-0.4,0-0.5l0,0c-0.2-8.1,8.4-13.7,15.7-9.9c2.5,1.3,5.4,2.1,8.3,2.1
			c9.8,0,17.7-7.9,17.7-17.7C85.7,201.5,77.8,193.6,68,193.6z"/>
		<path fill="#898686" d="M68.4,193.4c-5.5,0-10.4,2.5-13.6,6.5c-5,6.1-14.6,3.9-16.8-3.4c-0.7-9.7,8.8-17.2,18-14
			c1.6,0.6,3.5,0.9,5.4,0.9c8.8-0.1,15.9-7.3,15.9-16.1c0-8.8-7.1-15.9-15.9-15.9s-15.9,7.1-15.9,15.9c0,1,0.1,2,0.3,2.9
			c1.8,9.9-7.5,18.3-17.2,15.6c-1.2-0.3-2.5-0.5-3.8-0.5c-7.4,0-13.4,6-13.4,13.4s6,13.4,13.4,13.4c3.7,0,7.1-1.5,9.6-4l0,0
			c5.5-5.6,14.7-2.8,16.5,4.5c-0.4,7.6-8.7,12.6-15.7,9c-2.5-1.3-5.4-2.1-8.3-2.1c-9.8,0-17.7,7.9-17.7,17.7s7.9,17.7,17.7,17.7
			s17.7-7.9,17.7-17.7c0-0.2,0-0.4,0-0.5l0,0c-0.2-8.1,8.4-13.7,15.7-9.9c2.5,1.3,5.4,2.1,8.3,2.1c9.8,0,17.7-7.9,17.7-17.7
			C86.1,201.3,78.2,193.4,68.4,193.4z"/>
		<path fill="#858282" d="M68.8,193.1c-5.5,0-10.4,2.5-13.6,6.5c-5,6.1-14.6,3.9-16.8-3.4c-0.7-9.7,8.8-17.2,18-14
			c1.6,0.6,3.5,0.9,5.4,0.9c8.8,0,15.9-7.1,15.9-15.9c0-8.8-7.1-15.9-15.9-15.9s-15.9,7.1-15.9,15.9c0,1,0.1,2,0.3,2.9
			c1.8,9.9-7.5,18.3-17.2,15.6c-1.2-0.3-2.5-0.5-3.8-0.5c-7.4,0-13.4,6-13.4,13.4s6,13.4,13.4,13.4c3.7,0,7.1-1.5,9.6-4l0,0
			c5.5-5.6,14.7-2.8,16.5,4.5c-0.4,7.6-8.7,12.6-15.7,9c-2.5-1.3-5.4-2.1-8.3-2.1c-9.8,0-17.7,7.9-17.7,17.7
			c0,9.8,7.9,17.7,17.7,17.7S45,246.9,45,237.1c0-0.2,0-0.4,0-0.5l0,0c-0.2-8.1,8.4-13.7,15.7-9.9c2.5,1.3,5.4,2.1,8.3,2.1
			c9.8,0,17.7-7.9,17.7-17.7C86.5,201,78.6,193.1,68.8,193.1z"/>
		<path fill="#817E7E" d="M69.2,192.8c-5.5,0-10.4,2.5-13.6,6.5c-5,6.1-14.6,3.9-16.8-3.4c-0.7-9.7,8.8-17.2,18-14
			c1.6,0.6,3.5,0.9,5.4,0.9c8.8,0,15.9-7.1,15.9-15.9c0-8.8-7.1-15.9-15.9-15.9s-15.9,7.1-15.9,15.9c0,1,0.1,2,0.3,2.9
			c1.8,9.9-7.5,18.3-17.2,15.6c-1.2-0.3-2.5-0.5-3.8-0.5c-7.4,0-13.4,6-13.4,13.4s6,13.4,13.4,13.4c3.7,0,7.1-1.5,9.6-4l0,0
			c5.5-5.6,14.7-2.8,16.5,4.5c-0.4,7.6-8.7,12.6-15.7,9c-2.5-1.3-5.4-2.1-8.3-2.1c-9.8,0-17.7,7.9-17.7,17.7
			c0,9.8,7.9,17.7,17.7,17.7s17.7-7.9,17.7-17.7c0-0.2,0-0.4,0-0.5l0,0c-0.2-8.1,8.4-13.7,15.7-9.9c2.5,1.3,5.4,2.1,8.3,2.1
			c9.8,0,17.7-7.9,17.7-17.7C86.9,200.7,79,192.8,69.2,192.8z"/>
		<path fill="#7D7A7A" d="M69.6,192.5c-5.5,0-10.4,2.5-13.6,6.5c-5,6.1-14.6,3.9-16.8-3.4c-0.7-9.7,8.8-17.2,18-14
			c1.6,0.6,3.5,0.9,5.4,0.9c8.8,0,15.9-7.1,15.9-15.9c0-8.8-7.1-15.9-15.9-15.9s-15.9,7.1-15.9,15.9c0,1,0.1,2,0.3,2.9
			c1.8,9.9-7.5,18.3-17.2,15.6c-1.2-0.3-2.5-0.5-3.8-0.5c-7.4,0-13.4,6-13.4,13.4s6,13.4,13.4,13.4c3.7,0,7.1-1.5,9.6-4l0,0
			c5.5-5.6,14.7-2.8,16.5,4.5c-0.5,7.5-8.9,12.5-15.8,8.8c-2.5-1.3-5.4-2.1-8.3-2.1c-9.8,0-17.7,7.9-17.7,17.7
			c0,9.8,7.9,17.7,17.7,17.7s17.7-7.9,17.7-17.7c0-0.2,0-0.4,0-0.5l0,0c-0.2-8.1,8.4-13.7,15.7-9.9c2.5,1.3,5.4,2.1,8.3,2.1
			c9.8,0,17.7-7.9,17.7-17.7C87.3,200.4,79.4,192.5,69.6,192.5z"/>
		<path fill="#797676" d="M70,192.3c-5.5,0-10.4,2.5-13.6,6.5c-5,6.1-14.6,3.9-16.8-3.4c-0.7-9.8,8.8-17.3,18-14.1
			c1.6,0.6,3.5,0.9,5.4,0.9c8.8,0,15.9-7.1,15.9-15.9c0-8.8-7.1-15.9-15.9-15.9s-15.9,7.1-15.9,15.9c0,1,0.1,2,0.3,2.9
			c1.8,9.9-7.5,18.3-17.2,15.6c-1.2-0.3-2.5-0.5-3.8-0.5c-7.4,0-13.4,6-13.4,13.4s6,13.4,13.4,13.4c3.7,0,7.1-1.5,9.6-4l0,0
			c5.5-5.6,14.7-2.8,16.5,4.5c-0.4,7.6-8.7,12.6-15.7,9c-2.5-1.3-5.4-2.1-8.3-2.1c-9.8,0-17.7,7.9-17.7,17.7s7.9,17.7,17.7,17.7
			s17.7-7.9,17.7-17.7c0-0.2,0-0.4,0-0.5l0,0c-0.2-8.1,8.4-13.7,15.7-9.9c2.5,1.3,5.4,2.1,8.3,2.1c9.8,0,17.7-7.9,17.7-17.7
			C87.8,200.2,79.8,192.3,70,192.3z"/>
		<path fill="#757272" d="M70.5,192c-5.5,0-10.4,2.5-13.6,6.5c-5,6.1-14.6,3.9-16.8-3.4c-0.7-9.7,8.8-17.2,18-14
			c1.6,0.6,3.5,0.9,5.4,0.9c8.8,0,15.9-7.1,15.9-15.9c0-8.8-7.1-15.9-15.9-15.9s-15.9,7.1-15.9,15.9c0,1,0.1,2,0.3,2.9
			c1.8,9.9-7.5,18.3-17.2,15.6c-1.2-0.3-2.5-0.5-3.8-0.5c-7.4,0-13.4,6-13.4,13.4c0,7.4,6,13.4,13.4,13.4c3.7,0,7.1-1.5,9.6-4l0,0
			c5.5-5.6,14.7-2.8,16.5,4.5c-0.4,7.6-8.7,12.6-15.7,9c-2.5-1.3-5.4-2.1-8.3-2.1c-9.8,0-17.7,7.9-17.7,17.7
			c0,9.8,7.9,17.7,17.7,17.7s17.7-7.9,17.7-17.7c0-0.2,0-0.4,0-0.5l0,0c-0.2-8.1,8.4-13.7,15.7-9.9c2.5,1.3,5.4,2.1,8.3,2.1
			c9.8,0,17.7-7.9,17.7-17.7C88.2,199.9,80.2,192,70.5,192z"/>
		<path fill="#716E6E" d="M70.9,191.7c-5.5,0-10.4,2.5-13.6,6.5c-5,6.1-14.6,3.9-16.8-3.4c-0.7-9.7,8.8-17.2,18-14
			c1.6,0.6,3.5,0.9,5.4,0.9c8.8,0,15.9-7.1,15.9-15.9c0-8.8-7.1-15.9-15.9-15.9S48,157,48,165.8c0,1,0.1,2,0.3,2.9
			c1.8,9.9-7.5,18.3-17.2,15.6c-1.2-0.3-2.5-0.5-3.8-0.5c-7.4,0-13.4,6-13.4,13.4s6,13.4,13.4,13.4c3.7,0,7.1-1.5,9.6-4l0,0
			c5.5-5.6,14.7-2.8,16.5,4.5c-0.4,7.6-8.7,12.6-15.7,9c-2.5-1.3-5.4-2.1-8.3-2.1c-9.8,0-17.7,7.9-17.7,17.7
			c0,9.8,7.9,17.7,17.7,17.7s17.7-7.9,17.7-17.7c0-0.2,0-0.4,0-0.5l0,0c-0.2-8.1,8.4-13.7,15.7-9.9c2.5,1.3,5.4,2.1,8.3,2.1
			c9.8,0,17.7-7.9,17.7-17.7C88.6,199.6,80.7,191.7,70.9,191.7z"/>
		<path fill="#6D6A6A" d="M71.3,191.3c-5.5,0-10.4,2.5-13.6,6.5c-5,6.1-14.6,3.9-16.8-3.4c-0.7-9.8,8.8-17.3,18-14.1
			c1.6,0.6,3.5,0.9,5.4,0.9c8.8,0,15.9-7.1,15.9-15.9c0-8.8-7.1-15.9-15.9-15.9s-15.9,7.1-15.9,15.9c0,1,0.1,2,0.3,2.9
			c1.8,9.9-7.5,18.3-17.2,15.6c-1.2-0.3-2.5-0.5-3.8-0.5c-7.4,0-13.4,6-13.4,13.4s6,13.4,13.4,13.4c3.7,0,7.1-1.5,9.6-4l0,0
			c5.5-5.6,14.7-2.8,16.5,4.5c-0.4,7.6-8.7,12.6-15.7,9c-2.5-1.3-5.4-2.1-8.3-2.1c-9.8,0-17.7,7.9-17.7,17.7
			c0,9.8,7.9,17.7,17.7,17.7s17.7-7.9,17.7-17.7c0-0.2,0-0.4,0-0.5l0,0c-0.2-8.1,8.4-13.7,15.7-9.9c2.5,1.3,5.4,2.1,8.3,2.1
			c9.8,0,17.7-7.9,17.7-17.7C89,199.3,81.1,191.3,71.3,191.3z"/>
		<path fill="#6A6766" d="M71.7,191.1c-5.5,0-10.4,2.5-13.6,6.5c-5,6.1-14.6,3.9-16.8-3.4c-0.7-9.7,8.8-17.2,18-14
			c1.6,0.6,3.5,0.9,5.4,0.9c8.8,0,15.9-7.1,15.9-15.9c0-8.8-7.1-15.9-15.9-15.9s-15.9,7.1-15.9,15.9c0,1,0.1,2,0.3,2.9
			c1.8,9.9-7.5,18.3-17.2,15.6c-1.2-0.3-2.5-0.5-3.8-0.5c-7.4,0-13.4,6-13.4,13.4c0,7.4,6,13.4,13.4,13.4c3.7,0,7.1-1.5,9.6-4l0,0
			c5.5-5.6,14.7-2.8,16.5,4.5c-0.4,7.6-8.7,12.6-15.7,9c-2.5-1.3-5.4-2.1-8.3-2.1c-9.9-0.3-17.8,7.6-17.8,17.4
			c0,9.8,7.9,17.7,17.7,17.7s17.7-7.9,17.7-17.7c0-0.2,0-0.4,0-0.5l0,0c-0.2-8.1,8.4-13.7,15.7-9.9c2.5,1.3,5.4,2.1,8.3,2.1
			c9.8,0,17.7-7.9,17.7-17.7C89.4,199.1,81.5,191.1,71.7,191.1z"/>
		<path fill="#666363" d="M72.1,190.8c-5.5,0-10.4,2.5-13.6,6.5c-5,6.1-14.6,3.9-16.8-3.4c-0.7-9.8,8.8-17.3,18-14.1
			c1.6,0.6,3.5,0.9,5.4,0.9c8.8,0,15.9-7.1,15.9-15.9c0-8.8-7.1-15.9-15.9-15.9s-15.9,7.1-15.9,15.9c0,1,0.1,2,0.3,2.9
			c1.8,9.9-7.5,18.3-17.2,15.6c-1.2-0.3-2.5-0.5-3.8-0.5c-7.4,0-13.4,6-13.4,13.4c0,7.4,6,13.4,13.4,13.4c3.7,0,7.1-1.5,9.6-4l0,0
			c5.5-5.6,14.7-2.8,16.5,4.5c-0.4,7.6-8.7,12.6-15.7,9c-2.5-1.3-5.4-2.1-8.3-2.1c-9.8,0-17.7,7.9-17.7,17.7
			c0,9.8,7.9,17.7,17.7,17.7s17.7-7.9,17.7-17.7c0-0.2,0-0.4,0-0.5l0,0c-0.2-8.1,8.4-13.7,15.7-9.9c2.5,1.3,5.4,2.1,8.3,2.1
			c9.8,0,17.7-7.9,17.7-17.7C89.8,198.8,81.9,190.8,72.1,190.8z"/>
		<path fill="#62605F" d="M72.5,190.5c-5.5,0-10.4,2.5-13.6,6.5c-5,6.1-14.6,3.9-16.8-3.4c-0.7-9.7,8.8-17.2,18-14
			c1.6,0.6,3.5,0.9,5.4,0.9c8.8,0,15.9-7.1,15.9-15.9c0-8.8-7.1-15.9-15.9-15.9s-15.9,7.1-15.9,15.9c0,1,0.1,2,0.3,2.9
			c1.8,9.9-7.5,18.3-17.2,15.6c-1.2-0.3-2.5-0.5-3.8-0.5c-7.4,0-13.4,6-13.4,13.4c0,7.4,6,13.4,13.4,13.4c3.7,0,7.1-1.5,9.6-4l0,0
			c5.5-5.6,14.7-2.8,16.5,4.5c-0.4,7.6-8.7,12.6-15.7,9c-2.5-1.3-5.4-2.1-8.3-2.1c-9.8,0-17.7,7.9-17.7,17.7
			c0,9.8,7.9,17.7,17.7,17.7s17.7-7.9,17.7-17.7c0-0.2,0-0.4,0-0.5l0,0c-0.2-8.1,8.4-13.7,15.7-9.9c2.5,1.3,5.4,2.1,8.3,2.1
			c9.8,0,17.7-7.9,17.7-17.7C90.2,198.5,82.3,190.5,72.5,190.5z"/>
		<path fill="#5F5C5C" d="M72.9,190.2c-5.5,0-10.4,2.5-13.6,6.5c-5,6.1-14.6,3.9-16.8-3.4c-0.7-9.7,8.8-17.2,18-14
			c1.6,0.6,3.5,0.9,5.4,0.9c8.8,0,15.9-7.1,15.9-15.9c0-8.9-7.1-16.1-15.9-16.1c-8.9,0-16,7.2-16,16c0,1,0.1,2,0.3,2.9
			c1.8,9.9-7.5,18.3-17.2,15.6c-1.2-0.3-2.5-0.5-3.8-0.5c-7.4,0-13.4,6-13.4,13.4c0,7.4,6,13.4,13.4,13.4c3.7,0,7.1-1.5,9.6-4l0,0
			c5.5-5.6,14.7-2.8,16.5,4.5c-0.4,7.6-8.7,12.6-15.7,9c-2.5-1.3-5.4-2.1-8.3-2.1c-9.8,0-17.7,7.9-17.7,17.7
			c0,9.8,7.9,17.7,17.7,17.7S49,243.9,49,234.1c0-0.2,0-0.4,0-0.5l0,0c-0.2-8.1,8.4-13.7,15.7-9.9c2.5,1.3,5.4,2.1,8.3,2.1
			c9.8,0,17.7-7.9,17.7-17.7C90.6,198.1,82.7,190.2,72.9,190.2z"/>
		<path fill="#5C5958" d="M73.3,190c-5.5,0-10.4,2.5-13.6,6.5c-5,6.1-14.6,3.9-16.8-3.4c-0.7-9.8,8.8-17.3,18-14.1
			c1.6,0.6,3.5,0.9,5.4,0.9c8.8,0,15.9-7.1,15.9-15.9c0-8.8-7.1-15.9-15.9-15.9s-15.9,7.1-15.9,15.9c0,1,0.1,2,0.3,2.9
			c1.8,9.9-7.5,18.3-17.2,15.6c-1.2-0.3-2.5-0.5-3.8-0.5c-7.4,0-13.4,6-13.4,13.4c0,7.4,6,13.4,13.4,13.4c3.7,0,7.1-1.5,9.6-4l0,0
			c5.5-5.6,14.7-2.8,16.5,4.5c-0.4,7.6-8.7,12.6-15.7,9c-2.5-1.3-5.4-2.1-8.3-2.1c-9.8,0-17.7,7.9-17.7,17.7
			c0,9.8,7.9,17.7,17.7,17.7s17.7-7.9,17.7-17.7c0-0.2,0-0.4,0-0.5l0,0c-0.2-8.1,8.4-13.7,15.7-9.9c2.5,1.3,5.4,2.1,8.3,2.1
			c9.8,0,17.7-7.9,17.7-17.7C91.1,197.9,83.1,190,73.3,190z"/>
		<path fill="#585555" d="M73.8,189.7c-5.5,0-10.4,2.5-13.6,6.5c-5,6.1-14.6,3.9-16.8-3.4c-0.7-9.7,8.8-17.2,18-14
			c1.6,0.6,3.5,0.9,5.4,0.9c8.8,0,15.9-7.1,15.9-15.9c0-8.8-7.1-15.9-15.9-15.9s-15.9,7.1-15.9,15.9c0,1,0.1,2,0.3,2.9
			c1.8,9.9-7.5,18.3-17.2,15.6c-1.2-0.3-2.5-0.5-3.8-0.5c-7.4,0-13.4,6-13.4,13.4c0,7.4,6,13.4,13.4,13.4c3.7,0,7.1-1.5,9.6-4l0,0
			c5.5-5.6,14.7-2.8,16.5,4.5c-0.5,7.4-8.9,12.4-15.8,8.8c-2.5-1.3-5.4-2.1-8.3-2.1c-9.8,0-17.7,7.9-17.7,17.7
			c0,9.8,7.9,17.7,17.7,17.7s17.7-7.9,17.7-17.7c0-0.2,0-0.4,0-0.5l0,0c-0.2-8.1,8.4-13.7,15.7-9.9c2.5,1.3,5.4,2.1,8.3,2.1
			c9.8,0,17.7-7.9,17.7-17.7C91.5,197.6,83.5,189.7,73.8,189.7z"/>
		<path fill="#555252" d="M74.2,189.4c-5.5,0-10.4,2.5-13.6,6.5c-5,6-14.6,3.9-16.8-3.5c-0.7-9.7,8.8-17.2,18-14
			c1.6,0.6,3.5,0.9,5.4,0.9c8.8,0,15.9-7.1,15.9-15.9c0-8.8-7.1-15.9-15.9-15.9s-15.9,7.1-15.9,15.9c0,1,0.1,2,0.3,2.9
			c1.8,9.9-7.5,18.3-17.2,15.6c-1.2-0.3-2.5-0.5-3.8-0.5c-7.4,0-13.4,6-13.4,13.4c0,7.4,6,13.4,13.4,13.4c3.7,0,7.1-1.5,9.6-4l0,0
			c5.5-5.6,14.7-2.8,16.5,4.5c-0.4,7.6-8.7,12.6-15.7,9c-2.5-1.3-5.4-2.1-8.3-2.1c-9.8,0-17.7,7.9-17.7,17.7
			c0,9.8,7.9,17.7,17.7,17.7s17.7-7.9,17.7-17.7c0-0.2,0-0.4,0-0.5l0,0c-0.2-8.1,8.4-13.7,15.7-9.9c2.5,1.3,5.4,2.1,8.3,2.1
			c9.8,0,17.7-7.9,17.7-17.7C91.9,197.3,83.9,189.4,74.2,189.4z"/>
		<path fill="#524F4F" d="M74.6,189.1c-5.5,0-10.4,2.5-13.6,6.5c-5,6.1-14.6,3.9-16.8-3.4c-0.7-9.7,8.8-17.2,18-14
			c1.6,0.6,3.5,0.9,5.4,0.9c8.8,0,15.9-7.1,15.9-15.9c0-8.8-7.1-15.9-15.9-15.9c-8.8,0-15.9,7.1-15.9,15.9c0,1,0.1,2,0.3,2.9
			c1.8,9.9-7.5,18.3-17.2,15.6c-1.2-0.3-2.5-0.5-3.8-0.5c-7.4,0-13.4,6-13.4,13.4c0,7.4,6,13.4,13.4,13.4c3.7,0,7.1-1.5,9.6-4l0,0
			c5.5-5.6,14.7-2.8,16.5,4.5c-0.4,7.6-8.7,12.6-15.7,9c-2.5-1.3-5.4-2.1-8.3-2.1c-9.8,0-17.7,7.9-17.7,17.7
			c0,9.8,7.9,17.7,17.7,17.7s17.7-7.9,17.7-17.7c0-0.2,0-0.4,0-0.5l0,0c-0.2-8.1,8.4-13.7,15.7-9.9c2.5,1.3,5.4,2.1,8.3,2.1
			c9.8,0,17.7-7.9,17.7-17.7C92.3,197,84.4,189.1,74.6,189.1z"/>
		<path fill="#4F4C4B" d="M75,188.9c-5.5,0-10.4,2.5-13.6,6.5c-5,6.1-14.6,3.9-16.8-3.4c-0.7-9.7,8.8-17.2,18-14
			c1.6,0.6,3.5,0.9,5.4,0.9c8.8,0,15.9-7.1,15.9-15.9c0-8.8-7.1-15.9-15.9-15.9s-15.9,7.1-15.9,15.9c0,1,0.1,2,0.3,2.9
			c1.8,9.9-7.5,18.3-17.2,15.6c-1.2-0.3-2.5-0.5-3.8-0.5c-7.4,0-13.4,6-13.4,13.4s6,13.4,13.4,13.4c3.7,0,7.1-1.5,9.6-4l0,0
			c5.5-5.6,14.7-2.8,16.5,4.5c-0.4,7.6-8.7,12.6-15.7,9c-2.5-1.3-5.4-2.1-8.3-2.1c-9.8,0-17.7,7.9-17.7,17.7
			c0,9.8,7.9,17.7,17.7,17.7s17.7-7.9,17.7-17.7c0-0.2,0-0.4,0-0.5l0,0c-0.2-8.1,8.4-13.7,15.7-9.9c2.5,1.3,5.4,2.1,8.3,2.1
			c9.6-0.3,17.5-8.2,17.5-18C92.7,196.8,84.8,188.9,75,188.9z"/>
		<path fill="#4B4948" d="M75.4,188.6c-5.5,0-10.4,2.5-13.6,6.5c-5,6.1-14.6,3.9-16.8-3.4c-0.7-9.7,8.8-17.2,18-14
			c1.6,0.6,3.5,0.9,5.4,0.9c8.8,0,15.9-7.1,15.9-15.9c0-8.8-7.1-15.9-15.9-15.9s-15.9,7.1-15.9,15.9c0,1,0.1,2,0.3,2.9
			c1.8,9.9-7.5,18.3-17.2,15.6c-1.2-0.3-2.5-0.5-3.8-0.5c-7.4,0-13.4,6-13.4,13.4c0,7.4,6,13.4,13.4,13.4c3.7,0,7.1-1.5,9.6-4l0,0
			c5.5-5.6,14.7-2.8,16.5,4.5c-0.4,7.6-8.7,12.6-15.7,9c-2.5-1.3-5.4-2.1-8.3-2.1c-9.8,0-17.7,7.9-17.7,17.7s7.9,17.7,17.7,17.7
			s17.7-7.9,17.7-17.7c0-0.2,0-0.4,0-0.5l0,0c-0.2-8.1,8.4-13.7,15.7-9.9c2.5,1.3,5.4,2.1,8.3,2.1c9.8,0,17.7-7.9,17.7-17.7
			C93.1,196.5,85.2,188.6,75.4,188.6z"/>
		<path fill="#484645" d="M75.8,188.3c-5.5,0-10.4,2.5-13.6,6.5c-5,6.1-14.6,3.9-16.8-3.4c-0.7-9.7,8.8-17.2,18-14
			c1.6,0.6,3.5,0.9,5.4,0.9c8.8,0,15.9-7.1,15.9-15.9s-7.1-15.9-15.9-15.9s-15.9,7.1-15.9,15.9c0,1,0.1,2,0.3,2.9
			c1.8,9.9-7.5,18.3-17.2,15.6c-1.2-0.3-2.5-0.5-3.8-0.5c-7.4,0-13.4,6-13.4,13.4c0,7.4,6,13.4,13.4,13.4c3.7,0,7.1-1.5,9.6-4l0,0
			c5.5-5.6,14.7-2.8,16.5,4.5c-0.4,7.6-8.7,12.6-15.7,9c-2.5-1.3-5.4-2.1-8.3-2.1c-9.8,0-17.7,7.9-17.7,17.7
			c0,9.8,7.9,17.7,17.7,17.7S52,242,52,232.2c0-0.2,0-0.4,0-0.5l0,0c-0.2-8.1,8.4-13.7,15.7-9.9c2.5,1.3,5.4,2.1,8.3,2.1
			c9.8,0,17.7-7.9,17.7-17.7C93.5,196.2,85.6,188.3,75.8,188.3z"/>
		<path fill="#454342" d="M76.2,187.9c-5.5,0-10.4,2.5-13.6,6.5c-5,6.1-14.6,3.9-16.8-3.4c-0.7-9.8,8.8-17.3,18-14.1
			c1.6,0.6,3.5,0.9,5.4,0.9c8.8,0,15.9-7.1,15.9-15.9c0-8.8-7.1-15.9-15.9-15.9s-15.9,7.1-15.9,15.9c0,1,0.1,2,0.3,2.9
			c1.8,9.9-7.5,18.3-17.2,15.6c-1.2-0.3-2.5-0.5-3.8-0.5c-7.4,0-13.4,6-13.4,13.4s6,13.4,13.4,13.4c3.7,0,7.1-1.5,9.6-4l0,0
			c5.5-5.6,14.7-2.8,16.5,4.5c-0.4,7.6-8.7,12.6-15.7,9c-2.5-1.3-5.4-2.1-8.3-2.1c-9.8,0-17.7,7.9-17.7,17.7s7.9,17.7,17.7,17.7
			s17.7-7.9,17.7-17.7c0-0.2,0-0.4,0-0.5l0,0c-0.2-8.1,8.4-13.7,15.7-9.9c2.5,1.3,5.4,2.1,8.3,2.1c9.8,0,17.7-7.9,17.7-17.7
			C93.9,195.9,86,187.9,76.2,187.9z"/>
		<path fill="#424040" d="M76.6,187.7c-5.5,0-10.4,2.5-13.6,6.5c-5,6.1-14.6,3.9-16.8-3.4c-0.7-9.7,8.8-17.2,18-14
			c1.6,0.6,3.5,0.9,5.4,0.9c8.8-0.1,15.9-7.3,15.9-16.1c0-8.8-7.1-15.9-15.9-15.9c-8.9,0-16,7.1-16,15.9c0,1,0.1,2,0.3,2.9
			c1.8,9.9-7.5,18.3-17.2,15.6c-1.2-0.3-2.5-0.5-3.8-0.5c-7.4,0-13.4,6-13.4,13.4c0,7.4,6,13.4,13.4,13.4c3.7,0,7.1-1.5,9.6-4l0,0
			c5.5-5.6,14.7-2.8,16.5,4.5c-0.4,7.6-8.7,12.6-15.7,9c-2.5-1.3-5.4-2.1-8.3-2.1c-9.8,0-17.7,7.9-17.7,17.7s7.9,17.7,17.7,17.7
			s17.7-7.9,17.7-17.7c0-0.2,0-0.4,0-0.5l0,0c-0.2-8.1,8.4-13.7,15.7-9.9c2.5,1.3,5.4,2.1,8.3,2.1c9.8,0,17.7-7.9,17.7-17.7
			C94.4,195.7,86.4,187.7,76.6,187.7z"/>
		<path fill="#3F3D3D" d="M77,187.4c-5.5,0-10.4,2.5-13.6,6.5c-5,6.1-14.6,3.9-16.8-3.4c-0.7-9.7,8.8-17.2,18-14
			c1.6,0.6,3.5,0.9,5.4,0.9c8.8,0,15.9-7.1,15.9-15.9c0-8.8-7.1-15.9-15.9-15.9s-15.9,7.1-15.9,15.9c0,1,0.1,2,0.3,2.9
			c1.8,9.9-7.5,18.3-17.2,15.6c-1.2-0.3-2.5-0.5-3.8-0.5c-7.4,0-13.4,6-13.4,13.4s6,13.4,13.4,13.4c3.7,0,7.1-1.5,9.6-4l0,0
			c5.5-5.6,14.7-2.8,16.5,4.5c-0.4,7.6-8.7,12.6-15.7,9c-2.5-1.3-5.4-2.1-8.3-2.1c-9.8,0-17.7,7.9-17.7,17.7
			c0,9.8,7.9,17.7,17.7,17.7s17.7-7.9,17.7-17.7c0-0.2,0-0.4,0-0.5l0,0c-0.2-8.1,8.4-13.7,15.7-9.9c2.5,1.3,5.4,2.1,8.3,2.1
			c9.8,0,17.7-7.9,17.7-17.7C94.8,195.4,86.8,187.4,77,187.4z"/>
		<path fill="#3C3A3A" d="M77.5,187.1c-5.5,0-10.4,2.5-13.6,6.5c-5,6.1-14.6,3.9-16.8-3.4c-0.7-9.8,8.8-17.3,18-14.1
			c1.6,0.6,3.5,0.9,5.4,0.9c8.8,0,15.9-7.1,15.9-15.9c0-8.9-7.1-16-15.9-16s-15.9,7.1-15.9,15.9c0,1,0.1,2,0.3,2.9
			c1.8,9.9-7.5,18.3-17.2,15.6c-1.2-0.3-2.5-0.5-3.8-0.5c-7.4,0-13.4,6-13.4,13.4c0,7.4,6,13.4,13.4,13.4c3.7,0,7.1-1.5,9.6-4l0,0
			c5.5-5.6,14.7-2.8,16.5,4.5c-0.4,7.6-8.7,12.6-15.7,9c-2.5-1.3-5.4-2.1-8.3-2.1c-9.8,0-17.7,7.9-17.7,17.7s7.9,17.7,17.7,17.7
			s17.7-7.9,17.7-17.7c0-0.2,0-0.4,0-0.5l0,0c-0.2-8.1,8.4-13.7,15.7-9.9c2.5,1.3,5.4,2.1,8.3,2.1c9.8,0,17.7-7.9,17.7-17.7
			C95.2,195.1,87.2,187.1,77.5,187.1z"/>
		<path fill="#393737" d="M77.9,186.8c-5.5,0-10.4,2.5-13.6,6.5c-5,6.1-14.6,3.9-16.8-3.4c-0.7-9.7,8.8-17.2,18-14
			c1.6,0.6,3.5,0.9,5.4,0.9c8.8,0,15.9-7.1,15.9-15.9c0-8.8-7.1-15.9-15.9-15.9S55,152.2,55,161c0,1,0.1,2,0.3,2.9
			c1.8,9.9-7.5,18.3-17.2,15.6c-1.2-0.3-2.5-0.5-3.8-0.5c-7.4,0-13.4,6-13.4,13.4s6,13.4,13.4,13.4c3.7,0,7.1-1.5,9.6-4l0,0
			c5.5-5.6,14.7-2.8,16.5,4.5c-0.4,7.6-8.7,12.6-15.7,9c-2.5-1.3-5.4-2.1-8.3-2.1c-9.8,0-17.7,7.9-17.7,17.7s7.9,17.7,17.7,17.7
			s17.7-7.9,17.7-17.7c0-0.2,0-0.4,0-0.5l0,0c-0.2-8.1,8.4-13.7,15.7-9.9c2.5,1.3,5.4,2.1,8.3,2.1c9.8,0,17.7-7.9,17.7-17.7
			C95.6,194.7,87.7,186.8,77.9,186.8z"/>
		<path fill="#363534" d="M78.3,186.6c-5.5,0-10.4,2.5-13.6,6.5c-5,6.1-14.6,3.9-16.8-3.4c-0.7-9.8,8.8-17.3,18-14.1
			c1.6,0.6,3.5,0.9,5.4,0.9c8.8,0,15.9-7.1,15.9-15.9c0-8.8-7.1-15.9-15.9-15.9c-8.8,0-15.9,7.1-15.9,15.9c0,1,0.1,2,0.3,2.9
			c1.8,9.9-7.5,18.3-17.2,15.6c-1.2-0.3-2.5-0.5-3.8-0.5c-7.4,0-13.4,6-13.4,13.4c0,7.4,6,13.4,13.4,13.4c3.7,0,7.1-1.5,9.6-4l0,0
			c5.5-5.6,14.7-2.8,16.5,4.5c-0.4,7.6-8.7,12.6-15.7,9c-2.5-1.3-5.4-2.1-8.3-2.1c-9.8,0-17.7,7.9-17.7,17.7
			c0,9.8,7.9,17.7,17.7,17.7s17.7-7.9,17.7-17.7c0-0.2,0-0.4,0-0.5l0,0c-0.2-8.1,8.4-13.7,15.7-9.9c2.5,1.3,5.4,2.1,8.3,2.1
			c9.8,0,17.7-7.9,17.7-17.7C96,194.5,88.1,186.6,78.3,186.6z"/>
		<path fill="#333231" d="M78.7,186.3c-5.5,0-10.4,2.5-13.6,6.5c-5,6-14.6,3.9-16.8-3.5c-0.7-9.7,8.8-17.2,18-14
			c1.6,0.6,3.5,0.9,5.4,0.9c8.8,0,15.9-7.1,15.9-15.9c0-8.8-7.1-15.9-15.9-15.9s-15.9,7.1-15.9,15.9c0,1,0.1,2,0.3,2.9
			c1.8,9.9-7.5,18.3-17.2,15.6c-1.2-0.3-2.5-0.5-3.8-0.5c-7.4,0-13.4,6-13.4,13.4s6,13.4,13.4,13.4c3.7,0,7.1-1.5,9.6-4l0,0
			c5.5-5.6,14.7-2.8,16.5,4.5c-0.4,7.6-8.7,12.6-15.7,9c-2.5-1.3-5.4-2.1-8.3-2.1c-9.8,0-17.7,7.9-17.7,17.7
			c0,9.8,7.9,17.7,17.7,17.7s17.7-7.9,17.7-17.7c0-0.2,0-0.4,0-0.5l0,0c-0.2-8.1,8.4-13.7,15.7-9.9c2.5,1.3,5.4,2.1,8.3,2.1
			c9.8,0,17.7-7.9,17.7-17.7C96.4,194.2,88.5,186.3,78.7,186.3z"/>
		<path fill="#302F2F" d="M79.1,186c-5.5,0-10.4,2.5-13.6,6.5c-5,6.1-14.6,3.9-16.8-3.4c-0.7-9.7,8.8-17.2,18-14
			c1.6,0.6,3.5,0.9,5.4,0.9c8.8,0,15.9-7.1,15.9-15.9c0-8.8-7.1-15.9-15.9-15.9s-15.9,7.1-15.9,15.9c0,1,0.1,2,0.3,2.9
			c1.8,9.9-7.5,18.3-17.2,15.6c-1.2-0.3-2.5-0.5-3.8-0.5c-7.4,0-13.4,6-13.4,13.4s6,13.4,13.4,13.4c3.7,0,7.1-1.5,9.6-4l0,0
			c5.5-5.6,14.7-2.8,16.5,4.5c-0.4,7.6-8.7,12.6-15.7,9c-2.5-1.3-5.4-2.1-8.3-2.1c-9.8,0-17.7,7.9-17.7,17.7s7.9,17.7,17.7,17.7
			s17.7-7.9,17.7-17.7c0-0.2,0-0.4,0-0.5l0,0c-0.2-8.1,8.4-13.7,15.7-9.9c2.5,1.3,5.4,2.1,8.3,2.1c9.6-0.2,17.5-8.1,17.5-17.9
			C96.8,193.9,88.9,186,79.1,186z"/>
		<path fill="#2D2C2C" d="M79.5,185.8c-5.5,0-10.4,2.5-13.6,6.5c-5,6.1-14.6,3.9-16.8-3.4c-0.7-9.7,8.8-17.2,18-14
			c1.6,0.6,3.5,0.9,5.4,0.9c8.8,0,15.9-7.1,15.9-15.9c0-8.8-7.1-15.9-15.9-15.9s-15.9,7.1-15.9,15.9c0,1,0.1,2,0.3,2.9
			c1.8,9.9-7.5,18.3-17.2,15.6c-1.2-0.3-2.5-0.5-3.8-0.5c-7.4,0-13.4,6-13.4,13.4c0,7.4,6,13.4,13.4,13.4c3.7,0,7.1-1.5,9.6-4l0,0
			c5.5-5.6,14.7-2.8,16.5,4.5c-0.4,7.6-8.7,12.6-15.7,9c-2.5-1.3-5.4-2.1-8.3-2.1c-9.8,0-17.7,7.9-17.7,17.7s7.9,17.7,17.7,17.7
			s17.7-7.9,17.7-17.7c0-0.2,0-0.4,0-0.5l0,0c-0.2-8.1,8.4-13.7,15.7-9.9c2.5,1.3,5.4,2.1,8.3,2.1c9.8,0,17.7-7.9,17.7-17.7
			C97.2,193.6,89.3,185.8,79.5,185.8z"/>
		<path fill="#2A2929" d="M79.9,185.5c-5.5,0-10.4,2.5-13.6,6.5c-5,6.1-14.6,3.9-16.8-3.4c-0.7-9.7,8.8-17.2,18-14
			c1.6,0.6,3.5,0.9,5.4,0.9c8.8,0,15.9-7.1,15.9-15.9s-7.1-15.9-15.9-15.9s-15.9,7.1-15.9,15.9c0,1,0.1,2,0.3,2.9
			c1.8,9.9-7.5,18.3-17.2,15.6c-1.2-0.3-2.5-0.5-3.8-0.5c-7.4,0-13.4,6-13.4,13.4c0,7.4,6,13.4,13.4,13.4c3.7,0,7.1-1.5,9.6-4l0,0
			c5.5-5.6,14.7-2.8,16.5,4.5c-0.4,7.6-8.7,12.6-15.7,9c-2.5-1.3-5.4-2.1-8.3-2.1c-9.9-0.3-17.8,7.6-17.8,17.4
			c0,9.8,7.9,17.7,17.7,17.7S56,238.9,56,229.2c0-0.2,0-0.4,0-0.5l0,0c-0.2-8.1,8.4-13.7,15.7-9.9c2.5,1.3,5.4,2.1,8.3,2.1
			c9.8,0,17.7-7.9,17.7-17.7C97.6,193.4,89.7,185.5,79.9,185.5z"/>
		<path fill="#272626" d="M80.3,185.2c-5.5,0-10.4,2.5-13.6,6.5c-5,6.1-14.6,3.9-16.8-3.4c-0.7-9.8,8.8-17.3,18-14.1
			c1.6,0.6,3.5,0.9,5.4,0.9c8.8,0,15.9-7.1,15.9-15.9c0-8.8-7.1-15.9-15.9-15.9s-15.9,7.1-15.9,15.9c0,1,0.1,2,0.3,2.9
			c1.8,9.9-7.5,18.3-17.2,15.6c-1.2-0.3-2.5-0.5-3.8-0.5c-7.4,0-13.4,6-13.4,13.4c0,7.4,6,13.4,13.4,13.4c3.7,0,7.1-1.5,9.6-4l0,0
			c5.5-5.6,14.7-2.8,16.5,4.5c-0.4,7.6-8.7,12.6-15.7,9c-2.5-1.3-5.4-2.1-8.3-2.1c-9.8,0-17.7,7.9-17.7,17.7s7.9,17.7,17.7,17.7
			s17.7-7.9,17.7-17.7c0-0.2,0-0.4,0-0.5l0,0c-0.2-8.1,8.4-13.7,15.7-9.9c2.5,1.3,5.4,2.1,8.3,2.1c9.8,0,17.7-7.9,17.7-17.7
			C98.1,193.1,90.1,185.2,80.3,185.2z"/>
		<path fill="#242323" d="M80.8,184.9c-5.5,0-10.4,2.5-13.6,6.5c-5,6.1-14.6,3.9-16.8-3.4c-0.7-9.7,8.8-17.2,18-14
			c1.6,0.6,3.5,0.9,5.4,0.9c8.8,0,15.9-7.1,15.9-15.9c0-8.8-7.1-15.9-15.9-15.9s-15.9,7.1-15.9,15.9c0,1,0.1,2,0.3,2.9
			c1.8,9.9-7.5,18.3-17.2,15.6c-1.2-0.3-2.5-0.5-3.8-0.5c-7.4,0-13.4,6-13.4,13.4c0,7.4,6,13.4,13.4,13.4c3.7,0,7.1-1.5,9.6-4l0,0
			c5.5-5.6,14.7-2.8,16.5,4.5c-0.4,7.6-8.7,12.6-15.7,9c-2.5-1.3-5.4-2.1-8.3-2.1c-9.8,0-17.7,7.9-17.7,17.7
			c0,9.8,7.9,17.7,17.7,17.7S57,238.6,57,228.8c0-0.2,0-0.4,0-0.5l0,0c-0.2-8.1,8.4-13.7,15.7-9.9c2.5,1.3,5.4,2.1,8.3,2.1
			c9.8,0,17.7-7.9,17.7-17.7C98.5,192.8,90.5,184.9,80.8,184.9z"/>
		<path fill="#212020" d="M81.2,184.7c-5.5,0-10.4,2.5-13.6,6.5c-5,6.1-14.6,3.9-16.8-3.4c-0.7-9.7,8.8-17.2,18-14
			c1.6,0.6,3.5,0.9,5.4,0.9c8.8,0,15.9-7.1,15.9-15.9c0-8.8-7.1-15.9-15.9-15.9s-15.9,7.1-15.9,15.9c0,1,0.1,2,0.3,2.9
			c1.8,9.9-7.5,18.3-17.2,15.6c-1.2-0.3-2.5-0.5-3.8-0.5c-7.4,0-13.4,6-13.4,13.4c0,7.4,6,13.4,13.4,13.4c3.7,0,7.1-1.5,9.6-4l0,0
			c5.5-5.6,14.7-2.8,16.5,4.5c-0.4,7.6-8.7,12.6-15.7,9c-2.5-1.3-5.4-2.1-8.3-2.1c-9.8,0-17.7,7.9-17.7,17.7
			c0,9.8,7.9,17.7,17.7,17.7s17.7-7.9,17.7-17.7c0-0.2,0-0.4,0-0.5l0,0c-0.2-8.1,8.4-13.7,15.7-9.9c2.5,1.3,5.4,2.1,8.3,2.1
			c9.8,0,17.7-7.9,17.7-17.7C98.9,192.5,91,184.7,81.2,184.7z"/>
		<path fill="#1E1D1D" d="M81.6,184.3c-5.5,0-10.4,2.5-13.6,6.5c-5,6.1-14.6,3.9-16.8-3.4c-0.7-9.7,8.8-17.2,18-14
			c1.6,0.6,3.5,0.9,5.4,0.9c8.8,0,15.9-7.1,15.9-15.9c0-8.8-7.1-15.9-15.9-15.9s-15.9,7.1-15.9,15.9c0,1,0.1,2,0.3,2.9
			c1.8,9.9-7.5,18.3-17.2,15.6c-1.2-0.3-2.5-0.5-3.8-0.5c-7.4,0-13.4,6-13.4,13.4c0,7.4,6,13.4,13.4,13.4c3.7,0,7.1-1.5,9.6-4l0,0
			c5.5-5.6,14.7-2.8,16.5,4.5c-0.4,7.6-8.7,12.6-15.7,9c-2.5-1.3-5.4-2.1-8.3-2.1c-9.8,0-17.7,7.9-17.7,17.7
			c0,9.8,7.9,17.7,17.7,17.7s17.7-7.9,17.7-17.7c0-0.2,0-0.4,0-0.5l0,0c-0.2-8.1,8.4-13.7,15.7-9.9c2.5,1.3,5.4,2.1,8.3,2.1
			c9.8,0,17.7-7.9,17.7-17.7C99.3,192.3,91.4,184.3,81.6,184.3z"/>
		<path fill="#1B1A1A" d="M82,184c-5.5,0-10.4,2.5-13.6,6.5c-5,6.1-14.6,3.9-16.8-3.4c-0.7-9.7,8.8-17.2,18-14
			c1.6,0.6,3.5,0.9,5.4,0.9c8.8,0,15.9-7.1,15.9-15.9c0-9-7.1-16.1-15.9-16.1s-15.9,7.1-15.9,15.9c0,1,0.1,2,0.3,2.9
			c1.8,9.9-7.5,18.3-17.2,15.6c-1.2-0.3-2.5-0.5-3.8-0.5c-7.4,0-13.4,6-13.4,13.4c0,7.4,6,13.4,13.4,13.4c3.7,0,7.1-1.5,9.6-4l0,0
			c5.5-5.6,14.7-2.8,16.5,4.5c-0.4,7.6-8.7,12.6-15.7,9c-2.5-1.3-5.4-2.1-8.3-2.1c-9.9,0-17.8,7.8-17.8,17.6s7.9,17.7,17.7,17.7
			s17.7-7.9,17.7-17.7c0-0.2,0-0.4,0-0.5l0,0c-0.2-8.1,8.4-13.7,15.7-9.9c2.5,1.3,5.4,2.1,8.3,2.1c9.8,0,17.7-7.9,17.7-17.7
			C99.7,192,91.8,184,82,184z"/>
		<path fill="#171717" d="M82.4,183.7c-5.5,0-10.4,2.5-13.6,6.5c-5,6.1-14.6,3.9-16.8-3.4c-0.7-9.8,8.8-17.3,18-14.1
			c1.6,0.6,3.5,0.9,5.4,0.9c8.8,0,15.9-7.1,15.9-15.9c0-8.8-7.1-15.9-15.9-15.9s-15.9,7.1-15.9,15.9c0,1,0.1,2,0.3,2.9
			c1.8,9.9-7.5,18.3-17.2,15.6c-1.2-0.3-2.5-0.5-3.8-0.5c-7.4,0-13.4,6-13.4,13.4s6,13.4,13.4,13.4c3.7,0,7.1-1.5,9.6-4l0,0
			c5.5-5.6,14.7-2.8,16.5,4.5c-0.4,7.6-8.7,12.6-15.7,9c-2.5-1.3-5.4-2.1-8.3-2.1c-9.8,0-17.7,7.9-17.7,17.7
			c0,9.8,7.9,17.7,17.7,17.7s17.7-7.9,17.7-17.7c0-0.2,0-0.4,0-0.5l0,0c-0.2-8.1,8.4-13.7,15.7-9.9c2.5,1.3,5.4,2.1,8.3,2.1
			c9.8,0,17.7-7.9,17.7-17.7C100.1,191.7,92.2,183.7,82.4,183.7z"/>
		<path fill="#131313" d="M82.8,183.5c-5.5,0-10.4,2.5-13.6,6.5c-5,6.1-14.6,3.9-16.8-3.4c-0.7-9.7,8.8-17.2,18-14
			c1.6,0.6,3.5,0.9,5.4,0.9c8.8,0,15.9-7.1,15.9-15.9c0-8.8-7.1-15.9-15.9-15.9s-15.9,7.1-15.9,15.9c0,1,0.1,2,0.3,2.9
			c1.8,9.9-7.5,18.3-17.2,15.6c-1.2-0.3-2.5-0.5-3.8-0.5c-7.4,0-13.4,6-13.4,13.4s6,13.4,13.4,13.4c3.7,0,7.1-1.5,9.6-4l0,0
			c5.5-5.6,14.7-2.8,16.5,4.5c-0.4,7.6-8.7,12.6-15.7,9c-2.5-1.3-5.4-2.1-8.3-2.1c-9.8,0-17.7,7.9-17.7,17.7
			c0,9.8,7.9,17.7,17.7,17.7S59,237.3,59,227.5c0-0.2,0-0.4,0-0.5l0,0c-0.2-8.1,8.4-13.7,15.7-9.9c2.5,1.3,5.4,2.1,8.3,2.1
			c9.8,0,17.7-7.9,17.7-17.7C100.5,191.3,92.6,183.5,82.8,183.5z"/>
		<path fill="#0F0F0F" d="M83.2,183.2c-5.5,0-10.4,2.5-13.6,6.5c-5,6.1-14.6,3.9-16.8-3.4c-0.7-9.7,8.8-17.2,18-14
			c1.6,0.6,3.5,0.9,5.4,0.9c8.8,0,15.9-7.1,15.9-15.9c0-8.8-7.1-15.9-15.9-15.9s-15.9,7.1-15.9,15.9c0,1,0.1,2,0.3,2.9
			c1.8,9.9-7.5,18.3-17.2,15.6c-1.2-0.3-2.5-0.5-3.8-0.5c-7.4,0-13.4,6-13.4,13.4s6,13.4,13.4,13.4c3.7,0,7.1-1.5,9.6-4l0,0
			c5.5-5.6,14.7-2.8,16.5,4.5c-0.4,7.6-8.7,12.6-15.7,9c-2.5-1.3-5.4-2.1-8.3-2.1c-9.8,0-17.7,7.9-17.7,17.7s7.9,17.7,17.7,17.7
			s17.7-7.9,17.7-17.7c0-0.2,0-0.4,0-0.5l0,0c-0.2-8.1,8.4-13.7,15.7-9.9c2.5,1.3,5.4,2.1,8.3,2.1c9.6-0.3,17.5-8.2,17.5-18
			C100.9,191.1,93,183.2,83.2,183.2z"/>
		<path fill="#0B0B0B" d="M83.6,182.9c-5.5,0-10.4,2.5-13.6,6.5c-5,6.1-14.6,3.9-16.8-3.4c-0.7-9.7,8.8-17.2,18-14
			c1.6,0.6,3.5,0.9,5.4,0.9c8.8,0,15.9-7.1,15.9-15.9c0-8.8-7.1-15.9-15.9-15.9s-15.9,7.1-15.9,15.9c0,1,0.1,2,0.3,2.9
			c1.8,9.9-7.5,18.3-17.2,15.6c-1.2-0.3-2.5-0.5-3.8-0.5c-7.4,0-13.4,6-13.4,13.4s6,13.4,13.4,13.4c3.7,0,7.1-1.5,9.6-4l0,0
			c5.5-5.6,14.7-2.8,16.5,4.5c-0.4,7.6-8.7,12.6-15.7,9c-2.5-1.3-5.4-2.1-8.3-2.1c-9.8,0-17.7,7.9-17.7,17.7s7.9,17.7,17.7,17.7
			s17.7-7.9,17.7-17.7c0-0.2,0-0.4,0-0.5l0,0c-0.2-8.1,8.4-13.7,15.7-9.9c2.5,1.3,5.4,2.1,8.3,2.1c9.8,0,17.7-7.9,17.7-17.7
			C101.4,190.8,93.4,182.9,83.6,182.9z"/>
		<path fill="#060606" d="M84.1,182.6c-5.5,0-10.4,2.5-13.6,6.5c-5,6.1-14.6,3.9-16.8-3.4c-0.7-9.7,8.8-17.2,18-14
			c1.6,0.6,3.5,0.9,5.4,0.9c8.8,0,15.9-7.1,15.9-15.9s-7.1-15.9-15.9-15.9s-15.9,7.1-15.9,15.9c0,1,0.1,2,0.3,2.9
			c1.8,9.9-7.5,18.3-17.2,15.6c-1.2-0.3-2.5-0.5-3.8-0.5c-7.4,0-13.4,6-13.4,13.4c0,7.4,6,13.4,13.4,13.4c3.7,0,7.1-1.5,9.6-4l0,0
			c5.5-5.6,14.7-2.8,16.5,4.5c-0.4,7.6-8.7,12.6-15.7,9c-2.5-1.3-5.4-2.1-8.3-2.1c-9.8,0-17.7,7.9-17.7,17.7
			c0,9.8,7.9,17.7,17.7,17.7s17.7-7.9,17.7-17.7c0-0.2,0-0.4,0-0.5l0,0c-0.2-8.1,8.4-13.7,15.7-9.9c2.5,1.3,5.4,2.1,8.3,2.1
			c9.8,0,17.7-7.9,17.7-17.7C101.8,190.5,93.8,182.6,84.1,182.6z"/>
		<path fill="#010101" d="M84.6,182.4c-5.5,0-10.4,2.5-13.6,6.5c-5,6.1-14.6,3.9-16.8-3.4c-0.7-9.7,8.8-17.1,18-14
			c1.6,0.6,3.5,0.9,5.4,0.9c8.8,0,15.9-7.1,15.9-15.9s-7.1-15.9-15.9-15.9s-15.9,7.1-15.9,15.9c0,1,0.1,2,0.3,2.9
			c1.6,9.9-7.5,18.2-17.2,15.6c-1.2-0.3-2.5-0.5-3.8-0.5c-7.4,0-13.4,6-13.4,13.4c0,7.4,6,13.4,13.4,13.4c3.7,0,7.1-1.5,9.6-4l0,0
			c5.5-5.6,14.7-2.8,16.5,4.5c-0.4,7.6-8.7,12.5-15.7,9c-2.5-1.3-5.4-2.1-8.3-2.1c-9.8,0-17.7,7.9-17.7,17.7
			c0,9.8,7.9,17.7,17.7,17.7s17.7-7.9,17.7-17.7c0-0.2,0-0.4,0-0.5l0,0c-0.2-8.1,8.3-13.6,15.7-9.9c2.5,1.3,5.4,2.1,8.3,2.1
			c9.8,0,17.7-7.9,17.7-17.7C102.2,190.2,94.2,182.4,84.6,182.4z"/>
	</g>

		<radialGradient id="SVGID_1_" cx="43" cy="315.5" r="18.3" gradientTransform="matrix(1.03 0 0 -1.03 0 551.0386)" gradientUnits="userSpaceOnUse">
		<stop  offset="0.7818" style="stop-color:#010101"/>
		<stop  offset="0.8632" style="stop-color:#030303"/>
		<stop  offset="0.8925" style="stop-color:#0A0A0A"/>
		<stop  offset="0.9134" style="stop-color:#151515"/>
		<stop  offset="0.9303" style="stop-color:#262626"/>
		<stop  offset="0.9448" style="stop-color:#3C3C3C"/>
		<stop  offset="0.9576" style="stop-color:#585858"/>
		<stop  offset="0.9692" style="stop-color:#787878"/>
		<stop  offset="0.9798" style="stop-color:#9E9E9E"/>
		<stop  offset="0.9898" style="stop-color:#C9C9C9"/>
		<stop  offset="0.9986" style="stop-color:#F7F7F7"/>
		<stop  offset="1" style="stop-color:#FFFFFF"/>
	</radialGradient>
	<circle opacity="7.000000e-02" fill="url(#SVGID_1_)" enable-background="new    " cx="44.3" cy="226.1" r="18.8"/>
	<path fill="#EF4133" d="M68.3,200.6c0.2,8.2-8.4,13.7-15.8,9.8l0,0c-2.5-1.3-5.3-2.1-8.2-2.1c-9.8,0-17.7,7.9-17.7,17.7
		c0,9.8,7.9,17.7,17.7,17.7S62,235.8,62,226.1c0-0.2,0-0.4,0-0.6l0,0c-0.2-8.2,8.4-13.7,15.8-9.8L68.3,200.6z"/>

		<radialGradient id="SVGID_2_" cx="82.0503" cy="340.8" r="18.5037" gradientTransform="matrix(1.03 0 0 -1.03 0 551.0386)" gradientUnits="userSpaceOnUse">
		<stop  offset="0.7818" style="stop-color:#010101"/>
		<stop  offset="0.8632" style="stop-color:#030303"/>
		<stop  offset="0.8925" style="stop-color:#0A0A0A"/>
		<stop  offset="0.9134" style="stop-color:#151515"/>
		<stop  offset="0.9303" style="stop-color:#262626"/>
		<stop  offset="0.9448" style="stop-color:#3C3C3C"/>
		<stop  offset="0.9576" style="stop-color:#585858"/>
		<stop  offset="0.9692" style="stop-color:#787878"/>
		<stop  offset="0.9798" style="stop-color:#9E9E9E"/>
		<stop  offset="0.9898" style="stop-color:#C9C9C9"/>
		<stop  offset="0.9986" style="stop-color:#F7F7F7"/>
		<stop  offset="1" style="stop-color:#FFFFFF"/>
	</radialGradient>
	<circle opacity="7.000000e-02" fill="url(#SVGID_2_)" enable-background="new    " cx="84.6" cy="200" r="19.1"/>
	<path fill="#F89621" d="M84.6,182.4c-5.5,0-10.4,2.5-13.6,6.4l0,0c-5.2,6.3-15.2,3.8-17-4L50.5,197c5.7-5.8,15.5-2.6,16.6,5.5l0,0
		c1.1,8.7,8.5,15.2,17.5,15.2c9.8,0,17.7-7.9,17.7-17.7C102.2,190.2,94.2,182.4,84.6,182.4z"/>

		<radialGradient id="SVGID_3_" cx="39.6" cy="352.8" r="14.3" gradientTransform="matrix(1.03 0 0 -1.03 0 551.0386)" gradientUnits="userSpaceOnUse">
		<stop  offset="0.7818" style="stop-color:#010101"/>
		<stop  offset="0.8632" style="stop-color:#030303"/>
		<stop  offset="0.8925" style="stop-color:#0A0A0A"/>
		<stop  offset="0.9134" style="stop-color:#151515"/>
		<stop  offset="0.9303" style="stop-color:#262626"/>
		<stop  offset="0.9448" style="stop-color:#3C3C3C"/>
		<stop  offset="0.9576" style="stop-color:#585858"/>
		<stop  offset="0.9692" style="stop-color:#787878"/>
		<stop  offset="0.9798" style="stop-color:#9E9E9E"/>
		<stop  offset="0.9898" style="stop-color:#C9C9C9"/>
		<stop  offset="0.9986" style="stop-color:#F7F7F7"/>
		<stop  offset="1" style="stop-color:#FFFFFF"/>
	</radialGradient>
	<circle opacity="7.000000e-02" fill="url(#SVGID_3_)" enable-background="new    " cx="40.8" cy="187.6" r="14.7"/>

		<linearGradient id="SVGID_4_" gradientUnits="userSpaceOnUse" x1="36.3694" y1="350.0001" x2="66.0901" y2="375.7581" gradientTransform="matrix(1.03 0 0 -1.03 0 551.0386)">
		<stop  offset="0" style="stop-color:#FFCB05"/>
		<stop  offset="0.4508" style="stop-color:#FFC41A"/>
		<stop  offset="1" style="stop-color:#FCB731"/>
	</linearGradient>
	<path fill="url(#SVGID_4_)" d="M61.8,159.1c1.8,10-7.5,18.4-17.3,15.7l0,0c-1.1-0.3-2.4-0.5-3.7-0.5c-7.4,0-13.4,6-13.4,13.4
		s6,13.4,13.4,13.4s13.4-6,13.4-13.4c0-0.5,0-1.1-0.1-1.6l0,0c-1.2-10.1,8.5-18,18.1-14.6L61.8,159.1z"/>

		<radialGradient id="SVGID_5_" cx="75.2" cy="383.2" r="16.8" gradientTransform="matrix(1.03 0 0 -1.03 0 551.0386)" gradientUnits="userSpaceOnUse">
		<stop  offset="0.7818" style="stop-color:#010101"/>
		<stop  offset="0.8632" style="stop-color:#030303"/>
		<stop  offset="0.8925" style="stop-color:#0A0A0A"/>
		<stop  offset="0.9134" style="stop-color:#151515"/>
		<stop  offset="0.9303" style="stop-color:#262626"/>
		<stop  offset="0.9448" style="stop-color:#3C3C3C"/>
		<stop  offset="0.9576" style="stop-color:#585858"/>
		<stop  offset="0.9692" style="stop-color:#787878"/>
		<stop  offset="0.9798" style="stop-color:#9E9E9E"/>
		<stop  offset="0.9898" style="stop-color:#C9C9C9"/>
		<stop  offset="0.9986" style="stop-color:#F7F7F7"/>
		<stop  offset="1" style="stop-color:#FFFFFF"/>
	</radialGradient>
	<circle opacity="7.000000e-02" fill="url(#SVGID_5_)" enable-background="new    " cx="77.5" cy="156.3" r="17.3"/>
	<circle fill="#FFCB05" cx="77.5" cy="156.3" r="15.9"/>
</g>
<g enable-background="new    ">
	<path fill="#0F293A" d="M128,183.8l-3.4,0h-2.2v-21.3h5.2c0.9,0,1.7,0,2.3,0.1c0.6,0.1,1.2,0.2,1.9,0.4c0.6,0.2,1.2,0.6,1.5,1
		c0.9,1,1.3,2.5,1.3,4.6s-0.6,3.5-1.7,4.3c0.4,0.2,0.8,0.3,1,0.5c0.2,0.2,0.5,0.4,0.9,0.8c0.6,0.7,0.9,2.1,0.9,4.2
		c0,2.1-0.6,3.5-1.8,4.3C132.6,183.4,130.7,183.8,128,183.8z M127.2,164.4h-2.6v7.5h6.1c1.1,0,1.6-1.2,1.6-3.6
		c0-1.3-0.1-2.2-0.4-2.6s-0.5-0.7-0.7-0.8c-0.2-0.2-0.5-0.3-1-0.4C129.7,164.5,128.6,164.4,127.2,164.4z M124.6,181.8l4.5,0
		c1.6,0,2.6-0.2,3.3-0.7c0.6-0.4,0.9-1.5,0.9-3.2c0-2.8-1.1-4.2-3.3-4.2h-5.4V181.8z"/>
	<path fill="#0F293A" d="M140,167.5h2.1v11.6c0,1.1,0.3,1.9,0.9,2.3c0.6,0.4,1.4,0.7,2.5,0.7c1.1,0,2.1-0.2,2.9-0.6
		c0.8-0.4,1.3-0.8,1.5-1.2v-12.7h2.1v12l0.6,4.2h-1.4l-0.1-0.1l-0.7-1.8c-0.9,0.6-1.5,1-1.8,1.2c-0.4,0.2-0.9,0.5-1.6,0.7
		c-0.7,0.2-1.5,0.3-2.3,0.3c-3.1,0-4.7-1.7-4.8-5V167.5z"/>
	<path fill="#0F293A" d="M164.1,167.3c0.4,0,0.9,0.1,1.4,0.2l-0.8,1.9c-0.4-0.1-0.7-0.1-1.1-0.1c-1.4,0-2.8,0.8-4.2,2.3v12.1h-2v-12
		l-0.6-4h1.3l0.1,0.1l0.6,2.3c1-0.9,1.8-1.7,2.6-2.1C162.3,167.5,163.2,167.3,164.1,167.3z"/>
	<path fill="#0F293A" d="M179.7,173.2c0,0.8-0.1,1.6-0.2,2.5h-10.3c0.1,2.4,0.5,4.1,1.2,5c0.7,0.9,2,1.4,3.9,1.4
		c1.4,0,3-0.3,4.8-0.9l0.2,1.6c-0.5,0.2-0.9,0.3-1.2,0.4c-0.3,0.1-0.6,0.2-0.9,0.3c-0.3,0.1-0.5,0.2-0.7,0.2c-0.2,0-0.4,0.1-0.7,0.2
		c-0.3,0.1-0.5,0.1-0.7,0.1c-0.6,0.1-1.1,0.1-1.5,0.1c-2.1,0-3.7-0.7-4.9-2.2c-1.2-1.4-1.8-3.5-1.8-6.1c0-1.4,0.2-2.7,0.5-3.8
		c0.4-1.1,0.8-1.9,1.3-2.5c0.5-0.6,1.1-1,1.7-1.4c1-0.5,2.1-0.8,3.3-0.9C177.7,167.2,179.7,169.2,179.7,173.2z M177.6,172.6
		c0-1.3-0.3-2.2-1-2.8c-0.7-0.5-1.6-0.8-2.9-0.8c-1.3,0-2.4,0.3-3.2,1c-0.8,0.7-1.3,2-1.3,3.8h8.3
		C177.6,173.4,177.6,173,177.6,172.6z"/>
	<path fill="#0F293A" d="M194.8,173.9l0,3.9c0,0.6,0,1.2,0,1.7l0.7,4l0,0.2h-1.4l-0.1-0.1l-0.8-1.9c-2,1.4-4.1,2.1-6,2.2
		c-1.4,0-2.4-0.4-3.2-1.1c-0.7-0.7-1.1-1.8-1.1-3.1c0-1.8,0.5-3.1,1.5-3.8c1-0.7,2.4-1,4.2-1c0.2,0,1.5,0.1,4,0.2V173
		c0-1.4-0.3-2.5-0.8-3c-0.5-0.6-1.3-0.8-2.3-0.8c-1,0-2.8,0.3-5.6,0.9l-0.3-1.6c2.7-0.8,4.7-1.2,5.9-1.2c1.8,0,3.2,0.6,4.3,1.7
		C194.5,169.6,194.8,171.2,194.8,173.9z M192.7,176.8l-3.5-0.1c-1.8,0-2.9,0.2-3.4,0.5c-0.5,0.4-0.8,1-0.8,2.1c0,1,0.2,1.8,0.5,2.1
		c0.4,0.4,1,0.6,1.8,0.6c0.9,0,1.9-0.2,3.1-0.5c1.2-0.4,1.9-0.8,2.3-1.2V176.8z"/>
	<path fill="#0F293A" d="M199.9,167.5h2.1v11.6c0,1.1,0.3,1.9,0.9,2.3c0.6,0.4,1.4,0.7,2.5,0.7c1.1,0,2.1-0.2,2.9-0.6
		c0.8-0.4,1.3-0.8,1.5-1.2v-12.7h2.1v12l0.6,4.2h-1.4l-0.1-0.1l-0.7-1.8c-0.9,0.6-1.5,1-1.8,1.2c-0.4,0.2-0.9,0.5-1.6,0.7
		c-0.7,0.2-1.5,0.3-2.3,0.3c-3.1,0-4.7-1.7-4.8-5V167.5z"/>
	<path fill="#0F293A" d="M230.9,167.3c1.7,0,3,0.2,4,0.7c0.9,0.5,1.6,1.3,2.1,2.5c0.5,1.2,0.7,2.8,0.7,4.7s-0.2,3.4-0.6,4.6
		s-0.9,2-1.6,2.6c-1.3,1.2-2.9,1.8-4.6,1.8c-2.6,0-4.3-0.6-5.3-1.8s-1.5-3.4-1.5-6.6c0-1.5,0.2-2.9,0.6-4c0.4-1.1,1-2,1.7-2.6
		C227.6,167.9,229.2,167.3,230.9,167.3z M233.6,169.7c-0.3-0.2-0.7-0.3-1.2-0.4c-0.5-0.1-1.1-0.2-2-0.2c-0.8,0-1.6,0.1-2.2,0.4
		s-1.1,0.7-1.4,1.4c-0.3,0.6-0.5,1.3-0.6,2c-0.1,0.7-0.1,1.6-0.1,2.7c0,2.5,0.3,4.2,0.8,5.1c0.6,0.9,1.8,1.4,3.7,1.4
		c1,0,1.9-0.1,2.5-0.4c0.6-0.3,1.1-0.7,1.4-1.3c0.3-0.6,0.5-1.3,0.6-2c0.1-0.7,0.1-1.5,0.1-2.5s0-1.6,0-2c0-0.4,0-0.9-0.1-1.4
		c-0.1-0.5-0.2-0.9-0.3-1.2c-0.1-0.3-0.3-0.6-0.5-0.9C234.3,170.1,234,169.8,233.6,169.7z"/>
	<path fill="#0F293A" d="M244.4,167.3c0,0.2,0.5,0.3,1.4,0.3c0.9,0,1.6,0,2,0c0.4,0,0.6,0,0.8,0l-0.3,1.6h-3.6c-0.2,0-0.3,0-0.3,0.1
		v16.9l-1.2,4.1l-0.1,0.1h-1.5l0.7-4.2v-16.9c0-0.1-0.1-0.2-0.4-0.2h-1.1l0-1c0.9-0.4,1.4-0.6,1.5-0.7v0l0-2.6
		c0-1.1,0.2-2.1,0.7-2.9s1-1.3,1.7-1.7c1.3-0.6,2.4-0.9,3.5-0.9c0.1,0,0.1,0,0.2,0l0.7,0l-0.4,1.6c0,0-0.1,0-0.3,0
		c-0.2,0-0.4,0-0.5,0s-0.4,0.1-0.8,0.2c-0.4,0.1-0.8,0.3-1.2,0.5c-0.4,0.2-0.8,0.6-1.1,1.1c-0.3,0.5-0.4,1.2-0.4,2V167.3z"/>
	<path fill="#0F293A" d="M262.7,163.1c0.9-0.5,1.8-0.8,2.6-0.9c0.8-0.1,1.8-0.2,3.1-0.2c1.3,0,2.8,0.3,4.6,0.9l-0.5,1.7
		c-2-0.4-3.4-0.6-4.4-0.6s-1.8,0-2.5,0.1c-0.7,0.1-1.4,0.3-2.1,0.7c-0.7,0.4-1.3,0.8-1.7,1.5c-0.9,1.4-1.4,3.7-1.4,6.7
		c0,3.7,0.7,6.1,2,7.4c0.6,0.6,1.3,1,2,1.2s1.4,0.3,2.3,0.3s1.4,0,1.8-0.1c1.3-0.1,2.5-0.5,3.8-1.3l0.8,1.8
		c-1.6,1.1-3.6,1.6-6.2,1.6c-1,0-1.8-0.1-2.6-0.2c-0.7-0.1-1.5-0.4-2.3-0.8c-0.8-0.4-1.5-1-2-1.8c-0.5-0.8-0.9-1.8-1.3-3.2
		s-0.5-3-0.5-4.9s0.2-3.5,0.7-4.9c0.4-1.4,1-2.5,1.6-3.2C261,164.2,261.7,163.6,262.7,163.1z"/>
	<path fill="#0F293A" d="M282.6,167.3c1.7,0,3,0.2,4,0.7c0.9,0.5,1.6,1.3,2.1,2.5c0.5,1.2,0.7,2.8,0.7,4.7s-0.2,3.4-0.6,4.6
		s-0.9,2-1.6,2.6c-1.3,1.2-2.9,1.8-4.6,1.8c-2.6,0-4.3-0.6-5.3-1.8s-1.5-3.4-1.5-6.6c0-1.5,0.2-2.9,0.6-4c0.4-1.1,1-2,1.7-2.6
		C279.4,167.9,280.9,167.3,282.6,167.3z M285.4,169.7c-0.3-0.2-0.7-0.3-1.2-0.4c-0.5-0.1-1.1-0.2-2-0.2c-0.8,0-1.6,0.1-2.2,0.4
		s-1.1,0.7-1.4,1.4c-0.3,0.6-0.5,1.3-0.6,2c-0.1,0.7-0.1,1.6-0.1,2.7c0,2.5,0.3,4.2,0.8,5.1c0.6,0.9,1.8,1.4,3.7,1.4
		c1,0,1.9-0.1,2.5-0.4c0.6-0.3,1.1-0.7,1.4-1.3c0.3-0.6,0.5-1.3,0.6-2c0.1-0.7,0.1-1.5,0.1-2.5s0-1.6,0-2c0-0.4,0-0.9-0.1-1.4
		c-0.1-0.5-0.2-0.9-0.3-1.2c-0.1-0.3-0.3-0.6-0.5-0.9C286,170.1,285.7,169.8,285.4,169.7z"/>
	<path fill="#0F293A" d="M305.3,183.7h-2.1v-11.6c0-1.1-0.3-1.9-0.6-2.4c-0.4-0.4-1.1-0.6-2.1-0.6c-1,0-2,0.2-2.9,0.6
		s-1.4,0.8-1.6,1.2v12.7h-2.1v-12l-0.6-4h1.5l0.1,0.1l0.5,1.6c0.8-0.5,1.5-0.9,1.9-1.2c0.4-0.2,1-0.5,1.7-0.7
		c0.7-0.2,1.5-0.4,2.2-0.4c1.8,0,3.1,0.7,3.7,2.2c0.8-0.5,1.4-0.9,1.8-1.2c1.2-0.7,2.5-1.1,3.8-1.1c1.3,0,2.3,0.4,3,1.1
		c0.7,0.7,1.1,2,1.1,3.9v11.6h-2.1v-11.6c0-1.1-0.3-1.9-0.6-2.4s-1.1-0.6-2.1-0.6s-2,0.2-2.9,0.6c-0.9,0.4-1.4,0.8-1.6,1.2V183.7z"
		/>
	<path fill="#0F293A" d="M331.3,183.7h-2.1v-11.6c0-1.1-0.3-1.9-0.6-2.4c-0.4-0.4-1.1-0.6-2.1-0.6c-1,0-2,0.2-2.9,0.6
		c-0.9,0.4-1.4,0.8-1.6,1.2v12.7h-2.1v-12l-0.6-4h1.5l0.1,0.1l0.5,1.6c0.8-0.5,1.5-0.9,1.9-1.2c0.4-0.2,1-0.5,1.7-0.7
		c0.7-0.2,1.5-0.4,2.2-0.4c1.8,0,3.1,0.7,3.7,2.2c0.8-0.5,1.4-0.9,1.8-1.2c1.2-0.7,2.5-1.1,3.8-1.1s2.3,0.4,3,1.1
		c0.7,0.7,1.1,2,1.1,3.9v11.6h-2.1v-11.6c0-1.1-0.3-1.9-0.6-2.4c-0.4-0.4-1.1-0.6-2.1-0.6c-1,0-2,0.2-2.9,0.6s-1.4,0.8-1.6,1.2
		V183.7z"/>
	<path fill="#0F293A" d="M345.6,167.5h2.1v11.6c0,1.1,0.3,1.9,0.9,2.3c0.6,0.4,1.4,0.7,2.5,0.7c1.1,0,2.1-0.2,2.9-0.6
		c0.8-0.4,1.3-0.8,1.5-1.2v-12.7h2.1v12l0.6,4.2H357l-0.1-0.1l-0.7-1.8c-0.9,0.6-1.5,1-1.8,1.2c-0.4,0.2-0.9,0.5-1.6,0.7
		s-1.5,0.3-2.3,0.3c-3.1,0-4.7-1.7-4.8-5V167.5z"/>
	<path fill="#0F293A" d="M375.2,183.7h-2.1v-11.6c0-1.1-0.3-1.8-0.9-2.3c-0.6-0.5-1.4-0.7-2.5-0.7c-1.1,0-2,0.2-2.9,0.6
		c-0.9,0.4-1.4,0.8-1.6,1.2v12.8h-2.1v-12l-0.6-4h1.4l0.1,0.1l0.6,1.7c0.8-0.5,1.4-0.9,1.9-1.2c1.2-0.7,2.5-1.1,4-1.1
		c3.1,0,4.6,1.7,4.7,5V183.7z"/>
	<path fill="#0F293A" d="M380.1,162.1h2.3v2.4h-2.3V162.1z M380.3,167.5h2v16.2h-2V167.5z"/>
	<path fill="#0F293A" d="M389.4,168.8c0.8-0.6,1.6-1,2.4-1.2c0.8-0.2,1.7-0.4,2.7-0.4s2.1,0.2,3.3,0.6l-0.3,1.4
		c-1.2-0.2-2.2-0.4-2.9-0.4c-1.9,0-3.3,0.5-4.3,1.5c-1,1-1.5,2.7-1.5,5.3c0,4.4,1.8,6.7,5.4,6.7c1.1,0,2.3-0.4,3.6-1.2l0.9,1.4
		c-1.4,1-3.1,1.5-5,1.5c-1,0-1.8-0.1-2.6-0.3c-0.7-0.2-1.5-0.6-2.2-1.1c-1.5-1.1-2.3-3.5-2.3-7c0-1.6,0.3-3.1,0.8-4.2
		C387.9,170.3,388.6,169.4,389.4,168.8z"/>
	<path fill="#0F293A" d="M413.1,173.9l0,3.9c0,0.6,0,1.2,0,1.7l0.7,4l0,0.2h-1.4l-0.1-0.1l-0.8-1.9c-2,1.4-4.1,2.1-6,2.2
		c-1.4,0-2.4-0.4-3.2-1.1c-0.7-0.7-1.1-1.8-1.1-3.1c0-1.8,0.5-3.1,1.5-3.8c1-0.7,2.4-1,4.2-1c0.2,0,1.5,0.1,4,0.2V173
		c0-1.4-0.3-2.5-0.8-3c-0.5-0.6-1.3-0.8-2.3-0.8s-2.8,0.3-5.6,0.9l-0.3-1.6c2.7-0.8,4.7-1.2,5.9-1.2c1.8,0,3.2,0.6,4.3,1.7
		C412.8,169.6,413.1,171.2,413.1,173.9z M411,176.8l-3.5-0.1c-1.8,0-2.9,0.2-3.4,0.5c-0.5,0.4-0.8,1-0.8,2.1c0,1,0.2,1.8,0.5,2.1
		c0.4,0.4,1,0.6,1.8,0.6s1.9-0.2,3.1-0.5c1.2-0.4,1.9-0.8,2.3-1.2V176.8z"/>
	<path fill="#0F293A" d="M418.5,169.2c0-0.1-0.1-0.2-0.2-0.2H417v-1l1.5-0.6l0.4-2.9h1.7v2.6c0.1,0.2,0.5,0.2,1.3,0.2h1.9l-0.3,1.5
		l-2.8,0c-0.2,0-0.3,0-0.3,0.1v10.4l0.9,4.3h-1.4l-0.1-0.1l-1.3-4.2V169.2z"/>
	<path fill="#0F293A" d="M427.1,162.1h2.3v2.4h-2.3V162.1z M427.2,167.5h2v16.2h-2V167.5z"/>
	<path fill="#0F293A" d="M440.5,167.3c1.7,0,3,0.2,4,0.7c0.9,0.5,1.6,1.3,2.1,2.5c0.5,1.2,0.7,2.8,0.7,4.7s-0.2,3.4-0.6,4.6
		s-1,2-1.6,2.6c-1.3,1.2-2.9,1.8-4.6,1.8c-2.6,0-4.3-0.6-5.3-1.8s-1.5-3.4-1.5-6.6c0-1.5,0.2-2.9,0.6-4s1-2,1.7-2.6
		C437.3,167.9,438.8,167.3,440.5,167.3z M443.3,169.7c-0.3-0.2-0.7-0.3-1.2-0.4c-0.5-0.1-1.1-0.2-2-0.2c-0.8,0-1.6,0.1-2.2,0.4
		s-1.1,0.7-1.4,1.4c-0.3,0.6-0.5,1.3-0.6,2c-0.1,0.7-0.1,1.6-0.1,2.7c0,2.5,0.3,4.2,0.8,5.1c0.6,0.9,1.8,1.4,3.7,1.4
		c1,0,1.9-0.1,2.5-0.4c0.6-0.3,1.1-0.7,1.4-1.3c0.3-0.6,0.5-1.3,0.6-2s0.1-1.5,0.1-2.5s0-1.6,0-2c0-0.4,0-0.9-0.1-1.4
		c-0.1-0.5-0.2-0.9-0.3-1.2c-0.1-0.3-0.3-0.6-0.5-0.9C443.9,170.1,443.6,169.8,443.3,169.7z"/>
	<path fill="#0F293A" d="M463.9,183.7h-2.1v-11.6c0-1.1-0.3-1.8-0.9-2.3c-0.6-0.5-1.4-0.7-2.5-0.7c-1.1,0-2,0.2-2.9,0.6
		c-0.9,0.4-1.4,0.8-1.6,1.2v12.8h-2.1v-12l-0.6-4h1.4l0.1,0.1l0.6,1.7c0.8-0.5,1.4-0.9,1.9-1.2c1.2-0.7,2.5-1.1,4-1.1
		c3.1,0,4.6,1.7,4.7,5V183.7z"/>
	<path fill="#0F293A" d="M468.3,181.5c1.4,0.5,2.6,0.8,3.8,0.8s2.2-0.2,3-0.7c0.8-0.5,1.3-1.1,1.3-2c0-0.8-0.3-1.5-0.9-2
		c-0.6-0.5-1.3-0.9-2.1-1.2c-0.8-0.3-1.6-0.6-2.4-1c-0.8-0.3-1.5-0.8-2.1-1.4c-0.6-0.6-0.9-1.4-0.9-2.3c0-1.4,0.5-2.6,1.5-3.3
		s2.3-1.2,3.8-1.2c1.5,0,3,0.3,4.4,0.8l-0.4,1.5c-1.1-0.4-2.3-0.6-3.7-0.6c-2.3,0-3.4,0.9-3.4,2.7c0,1.1,1,2.1,3,2.8
		c0.8,0.3,1.7,0.6,2.5,1c0.8,0.4,1.5,0.9,2.1,1.6c0.6,0.7,0.9,1.5,0.9,2.5c0,1.5-0.6,2.6-1.9,3.4c-1.3,0.8-2.7,1.2-4.4,1.2
		c-1.7,0-3.2-0.3-4.6-0.9L468.3,181.5z"/>
	<path fill="#0F293A" d="M496.4,175.4l-2,0h-1.5v8.4h-2.2v-21.3h6.3c1.2,0,2.1,0.1,2.9,0.2c0.8,0.1,1.6,0.4,2.3,0.8
		c1.5,0.9,2.2,2.7,2.2,5.4c0,2-0.4,3.5-1.2,4.5c-0.8,1-1.9,1.6-3.4,1.9l5.5,8l-1.7,1.2l-6.3-8.9H496.4z M495,173.5l2.5,0
		c1.8,0,3-0.3,3.6-0.8c0.6-0.6,1-1.8,1-3.7c0-1.9-0.4-3.2-1.2-3.7c-0.8-0.5-2.3-0.8-4.4-0.8h-3.7v9.1H495z"/>
	<path fill="#0F293A" d="M520.8,173.2c0,0.8-0.1,1.6-0.2,2.5h-10.3c0.1,2.4,0.5,4.1,1.2,5c0.7,0.9,2,1.4,3.9,1.4
		c1.4,0,3-0.3,4.8-0.9l0.2,1.6c-0.5,0.2-0.9,0.3-1.2,0.4c-0.3,0.1-0.6,0.2-0.9,0.3c-0.3,0.1-0.5,0.2-0.7,0.2s-0.4,0.1-0.7,0.2
		c-0.3,0.1-0.5,0.1-0.7,0.1c-0.6,0.1-1.1,0.1-1.5,0.1c-2.1,0-3.7-0.7-4.9-2.2c-1.2-1.4-1.8-3.5-1.8-6.1c0-1.4,0.2-2.7,0.5-3.8
		c0.4-1.1,0.8-1.9,1.3-2.5c0.5-0.6,1.1-1,1.7-1.4c1-0.5,2.1-0.8,3.3-0.9C518.8,167.2,520.8,169.2,520.8,173.2z M518.7,172.6
		c0-1.3-0.3-2.2-1-2.8c-0.7-0.5-1.6-0.8-2.9-0.8c-1.3,0-2.4,0.3-3.2,1c-0.8,0.7-1.3,2-1.3,3.8h8.3
		C518.7,173.4,518.7,173,518.7,172.6z"/>
	<path fill="#0F293A" d="M524.4,181.5c1.4,0.5,2.6,0.8,3.8,0.8s2.2-0.2,3-0.7c0.8-0.5,1.3-1.1,1.3-2c0-0.8-0.3-1.5-0.9-2
		c-0.6-0.5-1.3-0.9-2.1-1.2c-0.8-0.3-1.6-0.6-2.4-1c-0.8-0.3-1.5-0.8-2.1-1.4c-0.6-0.6-0.9-1.4-0.9-2.3c0-1.4,0.5-2.6,1.5-3.3
		s2.3-1.2,3.8-1.2c1.5,0,3,0.3,4.4,0.8l-0.4,1.5c-1.1-0.4-2.3-0.6-3.7-0.6c-2.3,0-3.4,0.9-3.4,2.7c0,1.1,1,2.1,3,2.8
		c0.8,0.3,1.7,0.6,2.5,1c0.8,0.4,1.5,0.9,2.1,1.6c0.6,0.7,0.9,1.5,0.9,2.5c0,1.5-0.6,2.6-1.9,3.4c-1.3,0.8-2.7,1.2-4.4,1.2
		c-1.7,0-3.2-0.3-4.6-0.9L524.4,181.5z"/>
	<path fill="#0F293A" d="M550.7,173.2c0,0.8-0.1,1.6-0.2,2.5h-10.3c0.1,2.4,0.5,4.1,1.2,5c0.7,0.9,2,1.4,3.9,1.4
		c1.4,0,3-0.3,4.8-0.9l0.2,1.6c-0.5,0.2-0.9,0.3-1.2,0.4c-0.3,0.1-0.6,0.2-0.9,0.3c-0.3,0.1-0.5,0.2-0.7,0.2s-0.4,0.1-0.7,0.2
		c-0.3,0.1-0.5,0.1-0.7,0.1c-0.6,0.1-1.1,0.1-1.5,0.1c-2.1,0-3.7-0.7-4.9-2.2c-1.2-1.4-1.8-3.5-1.8-6.1c0-1.4,0.2-2.7,0.5-3.8
		c0.4-1.1,0.8-1.9,1.3-2.5c0.5-0.6,1.1-1,1.7-1.4c1-0.5,2.1-0.8,3.3-0.9C548.8,167.2,550.7,169.2,550.7,173.2z M548.7,172.6
		c0-1.3-0.3-2.2-1-2.8c-0.7-0.5-1.6-0.8-2.9-0.8c-1.3,0-2.4,0.3-3.2,1c-0.8,0.7-1.3,2-1.3,3.8h8.3
		C548.6,173.4,548.7,173,548.7,172.6z"/>
	<path fill="#0F293A" d="M565.9,173.9l0,3.9c0,0.6,0,1.2,0,1.7l0.7,4l0,0.2h-1.4l-0.1-0.1l-0.8-1.9c-2,1.4-4.1,2.1-6,2.2
		c-1.4,0-2.4-0.4-3.2-1.1c-0.7-0.7-1.1-1.8-1.1-3.1c0-1.8,0.5-3.1,1.5-3.8c1-0.7,2.4-1,4.2-1c0.2,0,1.5,0.1,4,0.2V173
		c0-1.4-0.3-2.5-0.8-3c-0.5-0.6-1.3-0.8-2.3-0.8s-2.8,0.3-5.6,0.9l-0.3-1.6c2.7-0.8,4.7-1.2,5.9-1.2c1.8,0,3.2,0.6,4.3,1.7
		C565.6,169.6,565.9,171.2,565.9,173.9z M563.7,176.8l-3.5-0.1c-1.8,0-2.9,0.2-3.4,0.5c-0.5,0.4-0.8,1-0.8,2.1c0,1,0.2,1.8,0.5,2.1
		c0.4,0.4,1,0.6,1.8,0.6s1.9-0.2,3.1-0.5c1.2-0.4,1.9-0.8,2.3-1.2V176.8z"/>
	<path fill="#0F293A" d="M577.8,167.3c0.4,0,0.9,0.1,1.4,0.2l-0.8,1.9c-0.4-0.1-0.7-0.1-1.1-0.1c-1.4,0-2.8,0.8-4.2,2.3v12.1h-2v-12
		l-0.6-4h1.3l0.1,0.1l0.6,2.3c1-0.9,1.8-1.7,2.6-2.1S576.8,167.3,577.8,167.3z"/>
	<path fill="#0F293A" d="M583.4,168.8c0.8-0.6,1.6-1,2.4-1.2c0.8-0.2,1.7-0.4,2.7-0.4s2.1,0.2,3.3,0.6l-0.3,1.4
		c-1.2-0.2-2.2-0.4-2.9-0.4c-1.9,0-3.3,0.5-4.3,1.5c-1,1-1.5,2.7-1.5,5.3c0,4.4,1.8,6.7,5.4,6.7c1.1,0,2.3-0.4,3.6-1.2l0.9,1.4
		c-1.4,1-3.1,1.5-5,1.5c-1,0-1.8-0.1-2.6-0.3c-0.7-0.2-1.5-0.6-2.2-1.1c-1.5-1.1-2.3-3.5-2.3-7c0-1.6,0.3-3.1,0.8-4.2
		C581.9,170.3,582.6,169.4,583.4,168.8z"/>
	<path fill="#0F293A" d="M598.4,183.7h-2.1v-24.2h2.1v9.6c1-0.7,1.9-1.1,2.6-1.4c0.8-0.3,1.6-0.5,2.6-0.5c3.2,0,4.8,1.7,4.8,5v11.6
		h-2.1v-11.6c0-2-1.2-3-3.4-3c-1,0-1.9,0.2-2.8,0.6s-1.4,0.8-1.6,1.2V183.7z"/>
</g>
</svg>
