<?xml version="1.0" standalone="no"?><!DOCTYPE svg PUBLIC "-//W3C//DTD SVG 1.1//EN" "http://www.w3.org/Graphics/SVG/1.1/DTD/svg11.dtd"><svg  preserveAspectRatio="xMinYMid" viewBox="0 0 151 64" width="151" height="64" version="1.1" xmlns="http://www.w3.org/2000/svg" xmlns:xlink="http://www.w3.org/1999/xlink" xml:space="preserve" style="fill-rule:evenodd;clip-rule:evenodd;stroke-linecap:round;stroke-linejoin:round;stroke-miterlimit:1.41421;"><path d="M32.948,6.094l21.719,39.64" style="fill:none;stroke-width:0.11px;stroke:#000;"/><path d="M41.968,2.656l-16.256,23.603l-25.617,-7.904l2.003,25.19l54.562,15.972l2.846,-44.096l-17.538,-12.765Z" style="fill:none;stroke-width:0.11px;stroke:#000;"/><path d="M41.968,2.656l-41.873,15.699" style="fill:none;stroke-width:0.11px;stroke:#000;"/><path d="M19.066,48.515l1.019,3.831l16.245,11.342l20.932,-13.553" style="fill:none;stroke-width:0.11px;stroke:#000;"/><path d="M29.532,33.769l-27.434,9.776l11.013,-43.45l16.421,33.674l29.974,-18.348l-8.364,23.821l-10.958,5.441" style="fill:none;stroke-width:0.11px;stroke:#000;"/><path d="M36.33,63.688l7.445,-36.674" style="fill:none;stroke-width:0.11px;stroke:#000;"/><path d="M42.614,32.959l-4.171,20.307" style="fill:none;stroke-width:1.97px;stroke-linecap:butt;stroke-linejoin:miter;stroke:#000;"/><path d="M26.281,27.091l-14.527,-14.856l1.412,-1.379l14.056,14.374l-0.941,1.861Z" style="fill:#231f20;fill-rule:nonzero;"/><path d="M37.294,13.702l18.884,34.813" style="fill:none;stroke-width:1.97px;stroke-linecap:butt;stroke-linejoin:miter;stroke:#000;"/><path d="M26.303,27.036l-1.205,-1.73l10.51,-15.249l1.62,1.116l-10.925,15.863Z" style="fill:#231f20;fill-rule:nonzero;"/><path d="M3.828,36.735l7.039,-27.773" style="fill:none;stroke-width:1.97px;stroke-linecap:butt;stroke-linejoin:miter;stroke:#231f20;"/><path d="M29.532,33.769l-4.105,22.168" style="fill:none;stroke-width:0.11px;stroke:#000;"/><path d="M94.493,7.408l4.916,11.308l0.055,0l4.937,-11.308l0.657,0l0,12.009l-0.449,0l0,-11.232l-0.055,-0.022l-4.937,11.243l-0.351,0l-4.915,-11.166l-0.055,0.021l0,11.178l-0.448,0l0,-12.009l0.645,0l0,-0.022Z" style="fill:#000;fill-rule:nonzero;"/><path d="M108.67,7.692l-0.449,0l0,-1.138l0.449,0l0,1.138ZM108.67,19.428l-0.449,0l0,-8.933l0.449,0l0,8.933Z" style="fill:#000;fill-rule:nonzero;"/><path d="M111.976,10.495l0.055,1.839c0.274,-0.635 0.668,-1.128 1.182,-1.478c0.515,-0.35 1.161,-0.525 1.916,-0.525c0.974,0 1.708,0.306 2.19,0.919c0.481,0.613 0.733,1.587 0.733,2.912l0,5.255l-0.449,0l0,-5.266c0,-1.237 -0.219,-2.113 -0.668,-2.616c-0.437,-0.504 -1.04,-0.756 -1.806,-0.756c-0.963,0 -1.686,0.285 -2.178,0.865c-0.493,0.58 -0.8,1.314 -0.92,2.212l0,5.583l-0.449,0l0,-8.933l0.394,0l0,-0.011Z" style="fill:#000;fill-rule:nonzero;"/><path d="M121.402,7.692l-0.449,0l0,-1.138l0.449,0l0,1.138ZM121.402,19.428l-0.449,0l0,-8.933l0.449,0l0,8.933Z" style="fill:#000;fill-rule:nonzero;"/><path d="M129.798,17.238c0,-0.47 -0.197,-0.908 -0.602,-1.291c-0.405,-0.384 -1.105,-0.69 -2.112,-0.909c-1.062,-0.23 -1.829,-0.515 -2.31,-0.876c-0.471,-0.35 -0.712,-0.887 -0.712,-1.576c0,-0.635 0.274,-1.172 0.81,-1.61c0.537,-0.427 1.27,-0.645 2.179,-0.645c0.985,0 1.762,0.229 2.332,0.689c0.569,0.46 0.831,1.062 0.81,1.807l-0.022,0.054l-0.383,0c0,-0.58 -0.241,-1.084 -0.734,-1.489c-0.493,-0.405 -1.16,-0.613 -2.003,-0.613c-0.832,0 -1.467,0.176 -1.894,0.537c-0.427,0.361 -0.646,0.777 -0.646,1.248c0,0.471 0.186,0.865 0.547,1.193c0.362,0.328 1.084,0.624 2.157,0.865c0.996,0.23 1.752,0.547 2.266,0.941c0.515,0.394 0.766,0.953 0.766,1.675c0,0.701 -0.284,1.27 -0.854,1.697c-0.569,0.438 -1.335,0.657 -2.277,0.657c-1.04,0 -1.85,-0.23 -2.441,-0.701c-0.591,-0.459 -0.865,-1.029 -0.832,-1.697l0.022,-0.054l0.361,0c0.044,0.7 0.351,1.215 0.909,1.521c0.558,0.318 1.226,0.471 1.992,0.471c0.821,0 1.478,-0.197 1.96,-0.58c0.471,-0.361 0.711,-0.81 0.711,-1.314Z" style="fill:#000;fill-rule:nonzero;"/><path d="M133.663,8.086l0,2.409l2.189,0l0,0.449l-2.189,0l0,6.174c0,0.733 0.12,1.248 0.372,1.565c0.252,0.307 0.569,0.471 0.985,0.471c0.154,0 0.285,0 0.394,-0.022c0.121,-0.011 0.274,-0.033 0.482,-0.055l0.088,0.405c-0.143,0.044 -0.285,0.077 -0.427,0.088c-0.143,0.011 -0.318,0.022 -0.504,0.022c-0.602,0 -1.051,-0.197 -1.368,-0.591c-0.307,-0.394 -0.471,-1.018 -0.471,-1.894l0,-6.174l-1.653,0l0,-0.449l1.653,0l0,-2.409l0.449,0l0,0.011Z" style="fill:#000;fill-rule:nonzero;"/><path d="M141.895,10.823l-0.58,-0.055c-0.799,0 -1.445,0.252 -1.949,0.767c-0.492,0.514 -0.821,1.193 -0.974,2.036l0,5.846l-0.427,0l0,-8.933l0.361,0l0.088,1.554l0,0.307c0.252,-0.635 0.613,-1.139 1.106,-1.489c0.492,-0.35 1.094,-0.536 1.806,-0.536c0.131,0 0.241,0.011 0.35,0.032c0.11,0.022 0.197,0.044 0.274,0.066l-0.055,0.405Z" style="fill:#000;fill-rule:nonzero;"/><path d="M146.077,17.808l0.329,0.886l0.054,0l0.055,-0.131l3.087,-8.068l0.493,0l-3.974,10.411c-0.241,0.624 -0.526,1.138 -0.843,1.532c-0.317,0.394 -0.832,0.591 -1.544,0.591c-0.109,0 -0.219,-0.011 -0.35,-0.032c-0.131,-0.022 -0.219,-0.044 -0.285,-0.066l0.077,-0.416c0.066,0.022 0.153,0.033 0.274,0.055c0.12,0.022 0.219,0.022 0.284,0.022c0.504,0 0.898,-0.154 1.183,-0.449c0.284,-0.296 0.536,-0.734 0.755,-1.325l0.537,-1.456l-3.558,-8.878l0.481,0l2.945,7.324Z" style="fill:#000;fill-rule:nonzero;"/><path d="M94.307,38.476l0,-8.473l-1.554,0l0,-0.449l1.554,0l0,-1.467c0,-0.843 0.208,-1.489 0.613,-1.959c0.405,-0.46 0.986,-0.69 1.719,-0.69c0.186,0 0.361,0.011 0.537,0.033c0.175,0.022 0.35,0.054 0.514,0.109l-0.066,0.427c-0.175,-0.044 -0.328,-0.077 -0.47,-0.098c-0.132,-0.022 -0.307,-0.033 -0.515,-0.033c-0.591,0 -1.062,0.197 -1.39,0.591c-0.34,0.394 -0.504,0.93 -0.504,1.62l0,1.467l2.365,0l0,0.449l-2.365,0l0,8.473l-0.438,0Z" style="fill:#000;fill-rule:nonzero;"/><path d="M98.248,33.834c0,-1.313 0.362,-2.375 1.084,-3.207c0.723,-0.832 1.664,-1.248 2.814,-1.248c1.16,0 2.101,0.416 2.824,1.248c0.723,0.832 1.084,1.905 1.084,3.207l0,0.351c0,1.313 -0.361,2.386 -1.084,3.218c-0.723,0.832 -1.664,1.248 -2.813,1.248c-1.161,0 -2.102,-0.416 -2.836,-1.248c-0.722,-0.832 -1.084,-1.905 -1.084,-3.218l0,-0.351l0.011,0ZM98.697,34.185c0,1.127 0.318,2.069 0.942,2.846c0.624,0.777 1.467,1.171 2.528,1.171c1.04,0 1.883,-0.394 2.507,-1.171c0.624,-0.777 0.942,-1.73 0.942,-2.846l0,-0.351c0,-1.094 -0.318,-2.036 -0.953,-2.824c-0.634,-0.788 -1.466,-1.182 -2.517,-1.182c-1.051,0 -1.894,0.394 -2.518,1.182c-0.624,0.788 -0.942,1.73 -0.942,2.824l0,0.351l0.011,0Z" style="fill:#000;fill-rule:nonzero;"/><path d="M112.13,29.871l-0.581,-0.054c-0.799,0 -1.445,0.252 -1.948,0.766c-0.493,0.515 -0.821,1.193 -0.975,2.036l0,5.846l-0.448,0l0,-8.933l0.361,0l0.087,1.555l0,0.306c0.252,-0.635 0.613,-1.138 1.106,-1.489c0.493,-0.35 1.095,-0.536 1.806,-0.536c0.132,0 0.241,0.011 0.351,0.033c0.109,0.022 0.197,0.044 0.273,0.065l-0.032,0.405Z" style="fill:#000;fill-rule:nonzero;"/><path d="M118.775,27.135l0,2.408l2.189,0l0,0.449l-2.189,0l0,6.174c0,0.734 0.12,1.248 0.372,1.566c0.252,0.306 0.569,0.47 0.985,0.47c0.153,0 0.285,0 0.394,-0.022c0.121,-0.01 0.274,-0.032 0.482,-0.054l0.087,0.405c-0.142,0.044 -0.284,0.076 -0.427,0.087c-0.142,0.011 -0.317,0.022 -0.503,0.022c-0.602,0 -1.051,-0.197 -1.369,-0.591c-0.306,-0.394 -0.47,-1.018 -0.47,-1.894l0,-6.174l-1.653,0l0,-0.449l1.653,0l0,-2.408l0.449,0l0,0.011Z" style="fill:#000;fill-rule:nonzero;"/><path d="M123.526,31.426c0.273,-0.646 0.678,-1.149 1.215,-1.511c0.536,-0.361 1.182,-0.536 1.959,-0.536c0.931,0 1.632,0.295 2.113,0.887c0.482,0.591 0.723,1.51 0.723,2.78l0,5.43l-0.449,0l0,-5.441c0,-1.171 -0.219,-2.003 -0.646,-2.474c-0.427,-0.482 -1.007,-0.722 -1.73,-0.722c-0.963,0 -1.696,0.284 -2.211,0.864c-0.515,0.581 -0.832,1.314 -0.963,2.212l0,5.583l-0.46,0l0,-12.874l0.449,0l0,5.802Z" style="fill:#000;fill-rule:nonzero;"/><path d="M135.371,38.651c-1.018,0 -1.894,-0.416 -2.639,-1.237c-0.744,-0.821 -1.105,-1.839 -1.105,-3.065l0,-0.526c0,-1.28 0.361,-2.342 1.073,-3.185c0.711,-0.843 1.598,-1.259 2.649,-1.259c1.007,0 1.828,0.328 2.463,0.985c0.635,0.657 0.952,1.544 0.952,2.66l0,0.69l-6.688,0l0,0.635c0,1.073 0.317,1.992 0.952,2.737c0.635,0.744 1.412,1.116 2.354,1.116c0.667,0 1.226,-0.087 1.675,-0.273c0.448,-0.186 0.832,-0.449 1.149,-0.821l0.241,0.35c-0.35,0.394 -0.777,0.69 -1.281,0.887c-0.525,0.197 -1.117,0.306 -1.795,0.306ZM135.349,29.828c-0.887,0 -1.62,0.328 -2.212,0.974c-0.591,0.646 -0.919,1.456 -0.996,2.419l0.022,0.055l6.153,0l0,-0.274c0,-0.908 -0.274,-1.664 -0.822,-2.266c-0.558,-0.613 -1.269,-0.908 -2.145,-0.908Z" style="fill:#000;fill-rule:nonzero;"/><path d="M100.186,53.934l-5.879,0l-1.335,3.59l-0.482,0l4.488,-12.009l0.548,0l4.499,12.009l-0.481,0l-1.358,-3.59ZM94.482,53.485l5.551,0l-2.518,-6.766l-0.23,-0.678l-0.055,0l-0.219,0.678l-2.529,6.766Z" style="fill:#000;fill-rule:nonzero;"/><path d="M107.652,48.92l-0.58,-0.055c-0.799,0 -1.445,0.252 -1.949,0.766c-0.492,0.515 -0.821,1.194 -0.974,2.037l0,5.845l-0.449,0l0,-8.933l0.361,0l0.088,1.555l0,0.306c0.252,-0.634 0.613,-1.138 1.106,-1.488c0.492,-0.351 1.094,-0.537 1.806,-0.537c0.131,0 0.241,0.011 0.35,0.033c0.11,0.022 0.197,0.044 0.274,0.066l-0.033,0.405Z" style="fill:#000;fill-rule:nonzero;"/><path d="M110.389,46.183l0,2.408l2.189,0l0,0.449l-2.189,0l0,6.174c0,0.734 0.12,1.248 0.372,1.566c0.252,0.306 0.569,0.471 0.985,0.471c0.154,0 0.285,0 0.394,-0.022c0.11,-0.022 0.274,-0.033 0.482,-0.055l0.088,0.405c-0.143,0.044 -0.285,0.077 -0.427,0.088c-0.153,0.022 -0.318,0.022 -0.504,0.022c-0.602,0 -1.051,-0.197 -1.368,-0.592c-0.307,-0.394 -0.471,-1.018 -0.471,-1.893l0,-6.175l-1.653,0l0,-0.449l1.653,0l0,-2.408l0.449,0l0,0.011Z" style="fill:#000;fill-rule:nonzero;"/><path d="M120.165,55.335c0,-0.471 -0.197,-0.909 -0.602,-1.292c-0.405,-0.383 -1.106,-0.69 -2.113,-0.908c-1.062,-0.23 -1.828,-0.515 -2.31,-0.876c-0.471,-0.351 -0.712,-0.887 -0.712,-1.577c0,-0.635 0.274,-1.171 0.811,-1.609c0.536,-0.427 1.269,-0.646 2.178,-0.646c0.985,0 1.763,0.23 2.332,0.69c0.569,0.46 0.832,1.062 0.81,1.806l-0.022,0.055l-0.383,0c0,-0.58 -0.241,-1.084 -0.734,-1.489c-0.492,-0.405 -1.16,-0.613 -2.003,-0.613c-0.832,0 -1.467,0.175 -1.894,0.536c-0.427,0.362 -0.646,0.778 -0.646,1.248c0,0.471 0.186,0.865 0.548,1.194c0.361,0.328 1.083,0.624 2.156,0.865c0.997,0.229 1.752,0.547 2.266,0.941c0.515,0.394 0.767,0.952 0.767,1.675c0,0.701 -0.285,1.27 -0.854,1.697c-0.569,0.438 -1.336,0.657 -2.277,0.657c-1.04,0 -1.85,-0.23 -2.441,-0.701c-0.592,-0.46 -0.865,-1.029 -0.832,-1.697l0.021,-0.055l0.362,0c0.043,0.701 0.35,1.216 0.908,1.522c0.559,0.318 1.226,0.471 1.993,0.471c0.821,0 1.478,-0.197 1.959,-0.58c0.471,-0.362 0.712,-0.811 0.712,-1.314Z" style="fill:#000;fill-rule:nonzero;"/><path d="M77.3,2.833l-1.949,-0.001l-0.048,56.345l1.948,0.002l0.049,-56.346Z" style="fill:#000;"/></svg>