<?xml version="1.0" standalone="no"?><!DOCTYPE svg PUBLIC "-//W3C//DTD SVG 1.1//EN" "http://www.w3.org/Graphics/SVG/1.1/DTD/svg11.dtd"><svg width="100%" height="100%" viewBox="0 0 232 248" version="1.1" xmlns="http://www.w3.org/2000/svg" xmlns:xlink="http://www.w3.org/1999/xlink" xml:space="preserve" style="fill-rule:evenodd;clip-rule:evenodd;stroke-linecap:round;stroke-linejoin:round;stroke-miterlimit:1.41421;"><path d="M127.849,23.647l84.28,153.819" style="fill:none;stroke-width:0.42px;stroke:#000;"/><path d="M162.853,10.308l-63.083,91.586l-99.402,-30.67l7.774,97.746l211.718,61.977l11.045,-171.108l-68.052,-49.531Z" style="fill:none;stroke-width:0.42px;stroke:#000;"/><path d="M162.853,10.308l-162.485,60.916" style="fill:none;stroke-width:0.42px;stroke:#000;"/><path d="M73.985,188.255l3.951,14.868l63.039,44.009l81.222,-52.59" style="fill:none;stroke-width:0.42px;stroke:#000;"/><path d="M114.596,131.035l-106.454,37.935l42.734,-168.602l63.72,130.667l116.309,-71.196l-32.455,92.436l-42.522,21.112" style="fill:none;stroke-width:0.42px;stroke:#000;"/><path d="M140.975,247.132l28.887,-142.307" style="fill:none;stroke-width:0.42px;stroke:#000;"/><path d="M169.104,128.661l-16.185,78.8l-7.49,-1.539l16.185,-78.799l7.49,1.538Z" style="fill:#000;"/><path d="M101.979,105.123l-56.37,-57.645l5.48,-5.353l54.543,55.776l-3.653,7.222Z" style="fill:#231f20;fill-rule:nonzero;"/><path d="M221.352,186.432l-6.721,3.646l-73.278,-135.085l6.721,-3.646l73.278,135.085Z" style="fill:#000;"/><path d="M102.064,104.91l-4.673,-6.712l40.781,-59.174l6.287,4.333l-42.395,61.553Z" style="fill:#231f20;fill-rule:nonzero;"/><path d="M45.874,35.716l-27.315,107.771l-7.412,-1.879l27.315,-107.771l7.412,1.879Z" style="fill:#231f20;"/><path d="M114.596,131.035l-15.93,86.022" style="fill:none;stroke-width:0.42px;stroke:#000;"/></svg>