<svg viewBox="0 0 269 59" preserveAspectRatio="xMidYMid meet" version="1.1" xmlns="http://www.w3.org/2000/svg" xmlns:xlink="http://www.w3.org/1999/xlink" xmlns:sketch="http://www.bohemiancoding.com/sketch/ns">
    <title>Digital Business</title>
    <defs></defs>
    <g id="Page-1" stroke="none" stroke-width="1" fill="none" fill-rule="evenodd" sketch:type="MSPage">
        <g id="digibus--large" sketch:type="MSLayerGroup" fill="#FFFFFF">
            <path d="M49.6,0 L7.1,0 C3.2,0 0,3.2 0,7.1 L0,49.5 C0,53.4 3.2,56.6 7.1,56.6 L49.5,56.6 C53.4,56.6 56.6,53.4 56.6,49.5 L56.6,7.1 C56.7,3.2 53.5,0 49.6,0 L49.6,0 Z M53.5,7.1 L53.5,49.5 L53.5,53.4 L49.6,53.4 L7.1,53.4 L3.2,53.4 L3.2,49.5 L3.2,7.1 L3.2,3.2 L7.1,3.2 L49.5,3.2 L53.4,3.2 L53.4,7.1 L53.5,7.1 Z" id="Shape" sketch:type="MSShapeGroup"></path>
            <path d="M43,21.3 L36.2,28.1 L35.6,28.1 C35.1,26.8 33.8,25.9 32.3,25.9 L24,25.9 C22.5,25.9 21.2,26.8 20.7,28.1 L19.5,28.1 L12.7,21.3 L43,21.3 L43,21.3 Z M48.1,18.7 L8,18.7 C7.5,18.7 7.1,19 7,19.4 L18.3,30.7 L22.9,30.7 L22.9,29.5 C22.9,28.9 23.4,28.5 23.9,28.5 L32.2,28.5 C32.8,28.5 33.2,29 33.2,29.5 L33.2,30.7 L37.2,30.7 L48.8,19.1 C48.7,18.9 48.4,18.7 48.1,18.7 L48.1,18.7 L48.1,18.7 Z" id="Shape" sketch:type="MSShapeGroup"></path>
            <path d="M46.5,29.5 L46.5,43.8 L9.5,43.8 L9.5,30 L14.7,35.2 C15.5,36 16.5,36.4 17.6,36.4 L20.5,36.4 C21,37.8 22.3,38.8 23.9,38.8 L32.2,38.8 C33.8,38.8 35.1,37.8 35.6,36.4 L37.9,36.4 C39,36.4 40,36 40.8,35.2 L46.5,29.5 L46.5,29.5 Z M49.1,23.2 L39,33.4 C38.7,33.7 38.3,33.9 37.9,33.9 L33.2,33.9 L33.2,35.2 C33.2,35.8 32.7,36.2 32.2,36.2 L23.9,36.2 C23.3,36.2 22.9,35.7 22.9,35.2 L22.9,33.9 L17.7,33.9 C17.3,33.9 16.9,33.7 16.6,33.4 L7,23.8 L7,45.4 C7,46 7.5,46.4 8,46.4 L48.1,46.4 C48.7,46.4 49.1,45.9 49.1,45.4 L49.1,23.2 L49.1,23.2 Z" id="Shape" sketch:type="MSShapeGroup"></path>
            <path d="M35,10.6 L33.9,10.6 L21.9,10.6 L20.8,10.6 C20.2,10.6 19.8,11.1 19.8,11.6 L19.8,12.7 L19.8,16 C19.8,16.6 20.3,17 20.8,17 L21.9,17 C22.5,17 22.9,16.5 22.9,16 L22.9,13.7 L32.8,13.7 L32.8,16 C32.8,16.6 33.3,17 33.8,17 L35,17 C35.6,17 36,16.5 36,16 L36,12.7 L36,11.6 C36,11.1 35.6,10.6 35,10.6 L35,10.6 L35,10.6 Z" id="Shape" sketch:type="MSShapeGroup"></path>
            <path d="M30.2,30.7 L25.8,30.7 C25.2,30.7 24.8,31.2 24.8,31.7 L24.8,33.1 C24.8,33.7 25.3,34.1 25.8,34.1 L30.2,34.1 C30.8,34.1 31.2,33.6 31.2,33.1 L31.2,31.7 C31.3,31.2 30.8,30.7 30.2,30.7 L30.2,30.7 L30.2,30.7 Z" id="Shape" sketch:type="MSShapeGroup"></path>
            <path d="M78.1,6.6 L74.1,12.3 L72.2,6.6 L71,6.6 L73.4,13.3 L72.6,18 L73.8,18 L74.6,13.3 L79.4,6.6 L78.1,6.6 L78.1,6.6 Z M85,9.6 C84.5,9.4 83.9,9.2 82.9,9.2 C82,9.2 81.1,9.5 80.3,10.2 C79.9,10.5 79.5,11 79.2,11.6 C78.9,12.2 78.6,12.9 78.5,13.7 C78.2,15.4 78.3,16.6 78.7,17.2 C79.1,17.8 80,18.2 81.4,18.2 C82.3,18.2 83.2,17.9 84,17.2 C84.4,16.9 84.8,16.4 85.1,15.8 C85.4,15.2 85.7,14.4 85.9,13.4 C86.1,12.4 86.1,11.5 86,10.9 C85.8,10.3 85.5,9.8 85,9.6 L85,9.6 Z M84.8,12 C84.8,12.3 84.8,12.5 84.7,12.8 C84.7,13 84.6,13.4 84.5,13.9 C84.4,14.4 84.3,14.9 84.2,15.2 C84.1,15.6 83.9,15.9 83.7,16.3 C83.5,16.6 83.2,16.9 82.8,17 C82.4,17.1 82,17.2 81.4,17.2 C80.4,17.2 79.8,16.9 79.6,16.4 C79.4,15.9 79.4,15 79.6,13.7 C79.7,13.1 79.8,12.6 79.9,12.2 C80,11.8 80.2,11.5 80.4,11.1 C80.6,10.8 80.9,10.5 81.3,10.4 C81.7,10.3 82.1,10.2 82.5,10.2 C82.9,10.2 83.3,10.2 83.5,10.3 C83.7,10.4 83.9,10.4 84.1,10.5 C84.3,10.6 84.4,10.7 84.5,10.9 C84.6,11.1 84.6,11.2 84.7,11.4 C84.8,11.5 84.9,11.7 84.8,12 L84.8,12 Z M93.2,16.1 C93.1,16.3 92.8,16.5 92.3,16.7 C91.8,16.9 91.3,17 90.7,17 C90.1,17 89.7,16.9 89.4,16.6 C89.1,16.4 89,16 89.1,15.4 L90.2,9.2 L89.1,9.2 L88,15.5 C87.7,17.3 88.4,18.2 90.1,18.2 C90.5,18.2 90.9,18.1 91.3,18 C91.7,17.9 92,17.8 92.2,17.6 C92.4,17.5 92.8,17.3 93.3,17 L93.5,18 L93.5,18.1 L94.2,18.1 L94.3,15.8 L95.4,9.4 L94.3,9.4 L93.2,16.1 L93.2,16.1 Z M100.7,9.6 C100.2,9.9 99.7,10.2 99.1,10.7 L99,9.5 L98.3,9.5 L98.2,11.6 L97,18 L98.1,18 L99.2,11.5 C100.1,10.7 100.9,10.3 101.7,10.3 C101.9,10.3 102.1,10.3 102.3,10.4 L102.9,9.4 C102.6,9.3 102.4,9.3 102.1,9.3 C101.6,9.2 101.2,9.3 100.7,9.6 L100.7,9.6 Z M111.5,9.1 C110.6,9.1 109.8,9.4 109.1,9.9 C108.4,10.4 108,11.1 107.9,12 C107.8,12.6 107.8,13.1 107.8,13.5 C107.9,13.9 108.1,14.3 108.5,14.6 C108,15.2 107.4,15.7 106.8,16.3 C106.7,16.7 106.8,17 107,17.1 C107.2,17.3 107.6,17.4 108.2,17.4 L106.2,19.1 C106,20 106.2,20.6 106.7,21 C107.2,21.4 108,21.6 109.2,21.6 C110.4,21.6 111.4,21.3 112.3,20.8 C113.2,20.3 113.7,19.5 113.8,18.6 C113.9,17.9 113.9,17.3 113.6,16.9 C113.4,16.5 112.9,16.2 112.4,16.2 L108,16.2 L109.2,14.8 C109.6,14.9 110,14.9 110.3,14.9 C111.2,14.9 112,14.6 112.6,14.1 C113.2,13.6 113.6,12.8 113.8,11.9 C113.9,11.4 113.8,10.8 113.6,10.3 L114.6,10.3 L115,9.4 L113,9.4 C112.6,9.2 112.1,9.1 111.5,9.1 L111.5,9.1 Z M111.6,17.3 C112.2,17.3 112.6,17.4 112.7,17.5 C112.8,17.6 112.8,18.1 112.7,18.7 C112.6,19.4 112.3,19.8 111.9,20.1 C111.7,20.2 111.5,20.3 111.2,20.4 C110.9,20.5 110.7,20.5 110.5,20.5 L109.3,20.5 C108.7,20.5 108.3,20.4 107.9,20.3 C107.4,20.1 107.2,19.7 107.4,19.1 L109.2,17.2 L111.6,17.2 L111.6,17.3 Z M112.8,12 C112.6,13.4 111.8,14 110.5,14 C109.2,14 108.7,13.3 109,12 C109.1,11.2 109.4,10.7 109.8,10.4 C110.2,10.1 110.7,9.9 111.3,9.9 C111.9,9.9 112.4,10.1 112.7,10.4 C112.9,10.7 112.9,11.3 112.8,12 L112.8,12 Z M121.6,16.1 C121.5,16.3 121.2,16.5 120.7,16.7 C120.2,16.9 119.7,17 119.1,17 C118.5,17 118.1,16.9 117.8,16.6 C117.5,16.4 117.4,16 117.5,15.4 L118.6,9.2 L117.5,9.2 L116.4,15.4 C116.1,17.2 116.8,18.1 118.5,18.1 C118.9,18.1 119.3,18 119.7,17.9 C120.1,17.8 120.4,17.7 120.6,17.5 C120.8,17.4 121.2,17.2 121.7,16.9 L121.9,17.9 L121.9,18 L122.6,18 L122.7,15.7 L123.8,9.3 L122.7,9.3 L121.6,16.1 L121.6,16.1 Z M127.1,7.7 L128.3,7.7 L128.5,6.4 L127.3,6.4 L127.1,7.7 L127.1,7.7 Z M125.4,18 L126.5,18 L128,9.3 L126.9,9.3 L125.4,18 L125.4,18 Z M136.9,5.1 L136,9.8 C135.1,9.4 134.5,9.2 134,9.2 C133.5,9.2 133,9.3 132.4,9.6 C132,9.8 131.7,10 131.3,10.3 C131,10.6 130.7,11.1 130.3,11.7 C130,12.3 129.8,13 129.6,13.8 C129.4,15.1 129.4,16.1 129.7,16.9 C129.8,17.3 130.1,17.7 130.5,17.9 C130.9,18.1 131.4,18.2 132,18.2 C132.6,18.2 133.1,18.1 133.6,17.8 C134.1,17.5 134.5,17.3 134.9,16.9 L135.1,17.9 L135.2,18 L135.9,18 L135.9,15.8 L138,5.1 L136.9,5.1 L136.9,5.1 Z M134.9,16.2 C134.2,16.9 133.4,17.2 132.4,17.2 C131.4,17.2 130.9,17 130.8,16.5 C130.7,16 130.7,15.1 130.9,13.9 C131.1,12.6 131.4,11.7 131.8,11.2 C132.2,10.6 132.8,10.4 133.7,10.4 C134.6,10.4 135.3,10.5 135.8,10.8 L134.9,16.2 L134.9,16.2 Z M143.5,9.2 C142.9,9.2 142.2,9.4 141.7,9.7 C141.3,9.9 140.9,10.1 140.6,10.4 C140.3,10.7 140,11.2 139.7,11.7 C139.4,12.3 139.2,13 139.1,13.7 C138.9,15.1 139,16.2 139.5,16.9 C140,17.7 140.8,18.1 141.9,18.1 C142.1,18.1 142.4,18.1 142.7,18 C142.8,18 142.9,18 143.1,17.9 C143.3,17.9 143.4,17.8 143.5,17.8 C143.6,17.8 143.7,17.7 143.9,17.7 C144.1,17.6 144.2,17.6 144.4,17.6 C144.6,17.6 144.8,17.5 145.1,17.4 L145.1,16.5 C144.1,16.8 143.2,17 142.4,17 C141.4,17 140.8,16.8 140.5,16.3 C140.2,15.8 140.1,14.9 140.3,13.6 L145.8,13.6 C146,13.1 146.1,12.7 146.1,12.3 C146.4,10.3 145.5,9.2 143.5,9.2 L143.5,9.2 Z M145,12.1 C145,12.3 144.9,12.5 144.8,12.8 L140.4,12.8 C140.6,11.8 140.9,11.1 141.4,10.7 C141.9,10.3 142.5,10.1 143.2,10.1 C143.9,10.1 144.4,10.2 144.7,10.5 C145,10.9 145.1,11.4 145,12.1 L145,12.1 Z M154.5,9.2 L154.7,7.8 L153.8,7.8 L153.3,9.3 L152.4,9.6 L152.3,10.1 L153,10.1 C153.1,10.1 153.1,10.1 153.1,10.2 L152.1,15.7 L152.4,17.9 L152.5,18 L153.3,18 L153.2,15.7 L154.2,10.1 C154.2,10.1 154.3,10 154.4,10 L155.9,10 L156.2,9.2 L155.2,9.2 C154.8,9.3 154.6,9.3 154.5,9.2 L154.5,9.2 Z M163.3,9.6 C162.8,9.4 162.2,9.2 161.2,9.2 C160.3,9.2 159.4,9.5 158.6,10.2 C158.2,10.5 157.8,11 157.5,11.6 C157.2,12.2 156.9,12.9 156.8,13.7 C156.5,15.4 156.6,16.6 157,17.2 C157.4,17.8 158.3,18.2 159.7,18.2 C160.6,18.2 161.5,17.9 162.3,17.2 C162.7,16.9 163.1,16.4 163.4,15.8 C163.7,15.2 164,14.4 164.2,13.4 C164.4,12.4 164.4,11.5 164.3,10.9 C164.1,10.3 163.8,9.8 163.3,9.6 L163.3,9.6 Z M163.1,12 C163.1,12.3 163.1,12.5 163,12.8 C163,13 162.9,13.4 162.8,13.9 C162.7,14.4 162.6,14.9 162.5,15.2 C162.4,15.6 162.2,15.9 162,16.3 C161.8,16.6 161.5,16.9 161.1,17 C160.7,17.1 160.3,17.2 159.7,17.2 C158.7,17.2 158.1,16.9 157.9,16.4 C157.7,15.9 157.7,15 157.9,13.7 C158,13.1 158.1,12.6 158.2,12.2 C158.3,11.8 158.5,11.5 158.7,11.1 C158.9,10.8 159.2,10.5 159.6,10.4 C160,10.3 160.4,10.2 160.8,10.2 C161.2,10.2 161.6,10.2 161.8,10.3 C162,10.4 162.2,10.4 162.4,10.5 C162.6,10.6 162.7,10.7 162.8,10.9 C162.9,11.1 162.9,11.2 163,11.4 C163.1,11.5 163.1,11.7 163.1,12 L163.1,12 Z M174.6,9.1 C173.7,9.1 172.9,9.4 172.2,9.9 C171.5,10.4 171.1,11.1 171,12 C170.9,12.6 170.9,13.1 170.9,13.5 C171,13.9 171.2,14.3 171.6,14.6 C171.1,15.2 170.5,15.7 169.9,16.3 C169.8,16.7 169.9,17 170.1,17.1 C170.3,17.3 170.7,17.4 171.3,17.4 L169.3,19.1 C169.1,20 169.3,20.6 169.8,21 C170.3,21.4 171.1,21.6 172.3,21.6 C173.5,21.6 174.5,21.3 175.4,20.8 C176.3,20.3 176.8,19.5 176.9,18.6 C177,17.9 177,17.3 176.7,16.9 C176.5,16.5 176,16.2 175.5,16.2 L171.1,16.2 L172.3,14.8 C172.7,14.9 173.1,14.9 173.4,14.9 C174.3,14.9 175.1,14.6 175.7,14.1 C176.3,13.6 176.7,12.8 176.9,11.9 C177,11.4 176.9,10.8 176.7,10.3 L177.7,10.3 L178.1,9.4 L176.1,9.4 C175.7,9.2 175.2,9.1 174.6,9.1 L174.6,9.1 Z M174.6,17.3 C175.2,17.3 175.6,17.4 175.7,17.5 C175.8,17.7 175.8,18.1 175.7,18.7 C175.6,19.4 175.3,19.8 174.9,20.1 C174.7,20.2 174.5,20.3 174.2,20.4 C173.9,20.5 173.7,20.5 173.5,20.5 L172.3,20.5 C171.7,20.5 171.3,20.4 170.9,20.3 C170.4,20.1 170.2,19.7 170.4,19.1 L172.2,17.2 L174.6,17.2 L174.6,17.3 Z M175.9,12 C175.7,13.4 174.9,14 173.6,14 C172.3,14 171.8,13.3 172.1,12 C172.2,11.2 172.5,10.7 172.9,10.4 C173.3,10.1 173.8,9.9 174.4,9.9 C175,9.9 175.5,10.1 175.8,10.4 C175.9,10.7 176,11.3 175.9,12 L175.9,12 Z M183.7,9.2 C183.1,9.2 182.4,9.4 181.9,9.7 C181.5,9.9 181.1,10.1 180.8,10.4 C180.5,10.7 180.2,11.2 179.9,11.7 C179.6,12.3 179.4,13 179.3,13.7 C179.1,15.1 179.2,16.2 179.7,16.9 C180.2,17.7 181,18.1 182.1,18.1 C182.3,18.1 182.6,18.1 182.9,18 C183,18 183.1,18 183.3,17.9 C183.5,17.9 183.6,17.8 183.7,17.8 C183.8,17.8 183.9,17.7 184.1,17.7 C184.3,17.6 184.4,17.6 184.6,17.6 C184.8,17.6 185,17.5 185.3,17.4 L185.3,16.5 C184.3,16.8 183.4,17 182.6,17 C181.6,17 181,16.8 180.7,16.3 C180.4,15.8 180.3,14.9 180.5,13.6 L186,13.6 C186.2,13.1 186.3,12.7 186.3,12.3 C186.7,10.3 185.8,9.2 183.7,9.2 L183.7,9.2 Z M185.2,12.1 C185.2,12.3 185.1,12.5 185,12.8 L180.6,12.8 C180.8,11.8 181.1,11.1 181.6,10.7 C182.1,10.3 182.7,10.1 183.4,10.1 C184.1,10.1 184.6,10.2 184.9,10.5 C185.3,10.9 185.4,11.4 185.2,12.1 L185.2,12.1 Z M190.6,9.2 L190.8,7.8 L190,7.8 L189.5,9.3 L188.6,9.6 L188.5,10.1 L189.2,10.1 C189.3,10.1 189.3,10.1 189.3,10.2 L188.3,15.7 L188.6,17.9 L188.7,18 L189.5,18 L189.4,15.7 L190.4,10.1 C190.4,10.1 190.5,10 190.6,10 L192.1,10 L192.4,9.2 L191.4,9.2 C190.9,9.3 190.6,9.3 190.6,9.2 L190.6,9.2 Z M195.6,9.2 L195.8,7.8 L195,7.8 L194.5,9.3 L193.6,9.6 L193.5,10.1 L194.2,10.1 C194.3,10.1 194.3,10.1 194.3,10.2 L193.3,15.7 L193.6,17.9 L193.7,18 L194.5,18 L194.4,15.7 L195.4,10.1 C195.4,10.1 195.5,10 195.6,10 L197.1,10 L197.4,9.2 L196.4,9.2 C195.9,9.3 195.7,9.3 195.6,9.2 L195.6,9.2 Z M199.6,7.7 L200.8,7.7 L201,6.4 L199.8,6.4 L199.6,7.7 L199.6,7.7 Z M197.8,18 L198.9,18 L200.4,9.3 L199.3,9.3 L197.8,18 L197.8,18 Z M207.4,9.2 C206.6,9.2 205.9,9.4 205.2,9.8 C204.9,9.9 204.5,10.2 204.1,10.4 L203.9,9.5 L203.1,9.5 L203,11.6 L201.9,18 L203,18 L204.2,11.2 C204.3,11 204.6,10.8 205.1,10.6 C205.6,10.4 206.2,10.3 206.7,10.3 C207.3,10.3 207.7,10.4 208,10.7 C208.3,10.9 208.4,11.4 208.3,11.9 L207.2,18.1 L208.3,18.1 L209.4,11.9 C209.7,10 209,9.2 207.4,9.2 L207.4,9.2 Z M215.7,9.1 C214.8,9.1 214,9.4 213.3,9.9 C212.6,10.4 212.2,11.1 212.1,12 C212,12.6 212,13.1 212,13.5 C212.1,13.9 212.3,14.3 212.7,14.6 C212.2,15.2 211.6,15.7 211,16.3 C210.9,16.7 211,17 211.2,17.1 C211.4,17.3 211.8,17.4 212.4,17.4 L210.4,19.1 C210.2,20 210.4,20.6 210.9,21 C211.4,21.4 212.2,21.6 213.4,21.6 C214.6,21.6 215.6,21.3 216.5,20.8 C217.4,20.3 217.9,19.5 218,18.6 C218.1,17.9 218.1,17.3 217.8,16.9 C217.6,16.5 217.1,16.2 216.6,16.2 L212.2,16.2 L213.4,14.8 C213.8,14.9 214.2,14.9 214.5,14.9 C215.4,14.9 216.2,14.6 216.8,14.1 C217.4,13.6 217.8,12.8 218,11.9 C218.1,11.4 218,10.8 217.8,10.3 L218.8,10.3 L219.2,9.4 L217.2,9.4 C216.9,9.2 216.3,9.1 215.7,9.1 L215.7,9.1 Z M215.8,17.3 C216.4,17.3 216.8,17.4 216.9,17.5 C217,17.6 217,18.1 216.9,18.7 C216.8,19.4 216.5,19.8 216.1,20.1 C215.9,20.2 215.7,20.3 215.4,20.4 C215.1,20.5 214.9,20.5 214.7,20.5 L213.5,20.5 C212.9,20.5 212.5,20.4 212.1,20.3 C211.6,20.1 211.4,19.7 211.6,19.1 L213.4,17.2 L215.8,17.2 L215.8,17.3 Z M217,12 C216.8,13.4 216,14 214.7,14 C213.4,14 212.9,13.3 213.2,12 C213.3,11.2 213.6,10.7 214,10.4 C214.4,10.1 214.9,9.9 215.5,9.9 C216.1,9.9 216.6,10.1 216.9,10.4 C217.1,10.7 217.2,11.3 217,12 L217,12 Z M231.3,9.6 C230.8,9.4 230.2,9.2 229.2,9.2 C228.3,9.2 227.4,9.5 226.6,10.2 C226.2,10.5 225.8,11 225.5,11.6 C225.2,12.2 224.9,12.9 224.8,13.7 C224.5,15.4 224.6,16.6 225,17.2 C225.4,17.8 226.3,18.2 227.7,18.2 C228.6,18.2 229.5,17.9 230.3,17.2 C230.7,16.9 231.1,16.4 231.4,15.8 C231.7,15.2 232,14.4 232.2,13.4 C232.4,12.4 232.4,11.5 232.3,10.9 C232.1,10.3 231.8,9.8 231.3,9.6 L231.3,9.6 Z M231.1,12 C231.1,12.3 231.1,12.5 231,12.8 C231,13 230.9,13.4 230.8,13.9 C230.7,14.4 230.6,14.9 230.5,15.2 C230.4,15.6 230.2,15.9 230,16.3 C229.8,16.6 229.5,16.9 229.1,17 C228.7,17.1 228.3,17.2 227.7,17.2 C226.7,17.2 226.1,16.9 225.9,16.4 C225.7,15.9 225.7,15 225.9,13.7 C226,13.1 226.1,12.6 226.2,12.2 C226.3,11.8 226.5,11.5 226.7,11.1 C226.9,10.8 227.2,10.5 227.6,10.4 C228,10.3 228.4,10.2 228.8,10.2 C229.2,10.2 229.6,10.2 229.8,10.3 C230,10.4 230.2,10.4 230.4,10.5 C230.6,10.6 230.7,10.7 230.8,10.9 C230.9,11.1 230.9,11.2 231,11.4 C231.1,11.5 231.1,11.7 231.1,12 L231.1,12 Z M239.4,9.2 C238.6,9.2 237.9,9.4 237.2,9.8 C236.9,9.9 236.5,10.2 236.1,10.4 L235.9,9.5 L235.1,9.5 L235,11.6 L233.9,18 L235,18 L236.2,11.2 C236.3,11 236.6,10.8 237.1,10.6 C237.6,10.4 238.2,10.3 238.7,10.3 C239.3,10.3 239.7,10.4 240,10.7 C240.3,10.9 240.4,11.4 240.3,11.9 L239.2,18.1 L240.3,18.1 L241.4,11.9 C241.7,10 241.1,9.2 239.4,9.2 L239.4,9.2 Z M245.5,5.1 L243.6,16 L243.9,18.2 L244,18.3 L244.8,18.3 L244.8,16 L246.7,5.1 L245.5,5.1 L245.5,5.1 Z M247.3,18 L248.4,18 L249.9,9.3 L248.8,9.3 L247.3,18 L247.3,18 Z M249,7.7 L250.2,7.7 L250.4,6.4 L249.2,6.4 L249,7.7 L249,7.7 Z M256.9,9.2 C256.1,9.2 255.4,9.4 254.7,9.8 C254.4,9.9 254,10.2 253.6,10.4 L253.4,9.5 L252.6,9.5 L252.5,11.6 L251.4,18 L252.5,18 L253.7,11.2 C253.8,11 254.1,10.8 254.6,10.6 C255.1,10.4 255.7,10.3 256.2,10.3 C256.8,10.3 257.2,10.4 257.5,10.7 C257.8,10.9 257.9,11.4 257.8,11.9 L256.7,18.1 L257.8,18.1 L258.9,11.9 C259.2,10 258.5,9.2 256.9,9.2 L256.9,9.2 Z M265.5,9.2 C264.9,9.2 264.2,9.4 263.7,9.7 C263.3,9.9 262.9,10.1 262.6,10.4 C262.3,10.7 262,11.2 261.7,11.7 C261.4,12.3 261.2,13 261.1,13.7 C260.9,15.1 261,16.2 261.5,16.9 C262,17.7 262.8,18.1 263.9,18.1 C264.1,18.1 264.4,18.1 264.7,18 C264.8,18 264.9,18 265.1,17.9 C265.3,17.8 265.4,17.8 265.5,17.8 C265.6,17.8 265.7,17.7 265.9,17.7 C266.1,17.6 266.2,17.6 266.4,17.6 C266.6,17.6 266.8,17.5 267.1,17.4 L267.1,16.5 C266.1,16.8 265.2,17 264.4,17 C263.4,17 262.8,16.8 262.5,16.3 C262.2,15.8 262.1,14.9 262.3,13.6 L267.8,13.6 C268,13.1 268.1,12.7 268.1,12.3 C268.4,10.3 267.6,9.2 265.5,9.2 L265.5,9.2 Z M267,12.1 C267,12.3 266.9,12.5 266.8,12.8 L262.4,12.8 C262.6,11.8 262.9,11.1 263.4,10.7 C263.9,10.3 264.5,10.1 265.2,10.1 C265.9,10.1 266.4,10.2 266.7,10.5 C267,10.9 267.1,11.4 267,12.1 L267,12.1 Z" id="Shape" sketch:type="MSShapeGroup"></path>
            <path d="M70.2,29.9 L75.8,29.9 C77.1,29.9 78.3,30 79.2,30.1 C80.1,30.2 81,30.5 81.9,30.9 C82.8,31.3 83.5,31.9 84,32.7 C85.1,34.3 85.7,36.9 85.7,40.4 C85.7,42.6 85.4,44.5 84.8,46.1 C84.4,47.2 83.6,48.3 82.5,49.3 C81.9,49.9 80.9,50.4 79.5,50.8 C78.7,51 77.9,51.1 77,51.2 L74.6,51.2 L70.2,51.2 L70.2,29.9 L70.2,29.9 Z M72.4,49.4 L74.6,49.4 L75.5,49.4 L76.7,49.4 C77.1,49.4 77.5,49.4 78.1,49.3 C78.7,49.3 79.1,49.2 79.4,49.1 C79.7,49 80,48.8 80.5,48.6 C80.9,48.4 81.3,48.2 81.5,47.9 C81.7,47.6 81.9,47.2 82.2,46.8 C82.5,46.4 82.7,45.8 82.8,45.3 C83.1,43.7 83.3,42 83.3,40.3 C83.3,38.6 83.2,37.2 83,36.1 C82.8,35 82.3,34.1 81.7,33.5 C81.1,32.9 80.3,32.5 79.5,32.3 C78.6,32.1 77.5,32 76,32 L72.5,32 L72.5,49.4 L72.4,49.4 Z" id="Shape" stroke="#FFFFFF" stroke-width="1.1917" sketch:type="MSShapeGroup"></path>
            <path d="M90.1,29.6 L92.4,29.6 L92.4,32 L90.1,32 L90.1,29.6 L90.1,29.6 Z M90.3,35.1 L92.3,35.1 L92.3,51.3 L90.3,51.3 L90.3,35.1 L90.3,35.1 Z" id="Shape" stroke="#FFFFFF" stroke-width="1.1917" sketch:type="MSShapeGroup"></path>
            <path d="M108.3,40 C108.3,41.7 107.8,43.1 106.8,44.1 C105.8,45.1 104.4,45.6 102.7,45.6 C102.2,45.6 101.5,45.5 100.6,45.4 L98.8,48 L107.1,48 C108.2,48 109,48.4 109.6,49.2 C110.2,50 110.5,51.1 110.5,52.4 C110.5,54.2 109.8,55.6 108.3,56.6 C106.9,57.6 105,58 102.8,58 C100.6,58 99,57.6 97.9,56.9 C96.9,56.1 96.3,54.9 96.3,53.3 L99.4,50.1 C98.2,50.1 97.4,49.9 97,49.6 C96.6,49.3 96.4,48.8 96.4,48.1 C97.3,47.1 98.2,46 99,45 C98.2,44.4 97.6,43.7 97.4,43 C97.1,42.3 97,41.3 97,40.2 C97,38.5 97.5,37.2 98.6,36.2 C99.7,35.2 101,34.8 102.7,34.8 C103.8,34.8 104.9,35 105.8,35.5 L109.5,35.5 L109.1,37.2 L107.2,37.2 C108,38 108.3,39 108.3,40 L108.3,40 Z M102.7,56.3 L104.9,56.3 C105.3,56.3 105.8,56.2 106.2,56 C106.7,55.9 107.1,55.7 107.3,55.4 C108,54.9 108.3,54 108.3,52.7 C108.3,51.5 108.1,50.7 107.9,50.4 C107.6,50.1 106.9,50 105.8,50 L101.4,50 L98.7,53.6 C98.7,54.8 99.2,55.6 100.1,55.9 C100.8,56.1 101.7,56.3 102.7,56.3 L102.7,56.3 Z M102.7,43.9 C105.1,43.9 106.3,42.6 106.3,40.1 C106.3,38.7 106,37.6 105.4,37.1 C104.8,36.5 103.9,36.2 102.7,36.2 C101.5,36.2 100.6,36.5 100,37.1 C99.4,37.7 99.1,38.7 99.1,40.1 C99.2,42.7 100.4,43.9 102.7,43.9 L102.7,43.9 Z" id="Shape" stroke="#FFFFFF" stroke-width="1.1917" sketch:type="MSShapeGroup"></path>
            <path d="M114.8,29.6 L117.1,29.6 L117.1,32 L114.8,32 L114.8,29.6 L114.8,29.6 Z M115,35.1 L117,35.1 L117,51.3 L115,51.3 L115,35.1 L115,35.1 Z" id="Shape" stroke="#FFFFFF" stroke-width="1.1917" sketch:type="MSShapeGroup"></path>
            <path d="M122.5,36.8 C122.5,36.7 122.4,36.6 122.3,36.6 L121,36.6 L121,35.6 L122.5,35 L122.9,32.1 L124.6,32.1 L124.6,34.7 C124.7,34.9 125.1,34.9 126,34.9 L127.9,34.9 L127.6,36.4 L124.8,36.4 C124.6,36.4 124.5,36.4 124.5,36.5 L124.5,46.9 L125.4,51.2 L124,51.2 L123.9,51.1 L122.6,46.9 L122.6,36.8 L122.5,36.8 Z" id="Shape" stroke="#FFFFFF" stroke-width="1.1917" sketch:type="MSShapeGroup"></path>
            <path d="M142.1,41.4 L142.1,45.3 L142.1,47 L142.8,51 L142.8,51.2 L141.4,51.2 L141.3,51.1 L140.5,49.2 C138.5,50.6 136.4,51.3 134.5,51.4 C133.1,51.4 132.1,51 131.3,50.3 C130.6,49.6 130.2,48.5 130.2,47.2 C130.2,45.4 130.7,44.1 131.7,43.4 C132.7,42.7 134.1,42.4 135.9,42.4 C136.1,42.4 137.4,42.5 139.9,42.6 L139.9,40.5 C139.9,39.1 139.6,38 139.1,37.5 C138.6,36.9 137.8,36.7 136.8,36.7 C135.8,36.7 134,37 131.2,37.6 L131,36 C133.7,35.2 135.7,34.8 136.9,34.8 C138.7,34.8 140.1,35.4 141.2,36.5 C141.7,37.1 142.1,38.8 142.1,41.4 L142.1,41.4 Z M139.9,44.3 L136.4,44.2 C134.6,44.2 133.5,44.4 133,44.7 C132.5,45.1 132.2,45.7 132.2,46.8 C132.2,47.8 132.4,48.6 132.7,48.9 C133.1,49.3 133.7,49.5 134.5,49.5 C135.4,49.5 136.4,49.3 137.6,49 C138.8,48.6 139.5,48.2 139.9,47.8 L139.9,44.3 L139.9,44.3 Z" id="Shape" stroke="#FFFFFF" stroke-width="1.1917" sketch:type="MSShapeGroup"></path>
            <path d="M148.1,27 L150.1,27 L150.1,47.3 L150.9,51.5 L149.4,51.5 L149.3,51.4 L148.1,47.3 L148.1,27 L148.1,27 Z" id="Shape" stroke="#FFFFFF" stroke-width="1.1917" sketch:type="MSShapeGroup"></path>
            <path d="M154.8,27 L156.8,27 L156.8,36.5 C158.1,35.3 159.5,34.8 160.9,34.8 C162.3,34.8 163.4,35 164.3,35.4 C165.1,35.8 165.8,36.4 166.2,37.2 C166.9,38.6 167.3,40.5 167.3,42.9 C167.3,44.4 167.1,45.7 166.7,46.9 C166.3,48 165.9,48.9 165.4,49.5 C164.9,50.1 164.3,50.5 163.6,50.9 C162.7,51.4 161.7,51.7 160.8,51.7 C160.2,51.7 159.8,51.7 159.4,51.6 C159,51.5 158.7,51.5 158.5,51.4 C158.3,51.4 158.1,51.3 157.8,51.2 C157.5,51.1 157.3,51 157.2,51 C157.1,51 156.8,50.9 156.5,50.7 C156.2,50.6 156,50.5 155.9,50.4 C155.2,50.1 154.8,49.9 154.7,49.8 L154.7,27 L154.8,27 Z M156.9,49.1 C158.1,49.5 159.3,49.8 160.4,49.8 C161.5,49.8 162.3,49.7 162.9,49.4 C163.5,49.1 163.9,48.8 164.2,48.5 C164.5,48.1 164.7,47.6 164.9,47 C165.1,46.1 165.2,45 165.2,43.6 C165.2,41 165,39.2 164.5,38.3 C164.1,37.4 163,36.9 161.2,36.9 C159.4,36.9 158,37.5 157,38.7 L157,49.1 L156.9,49.1 Z" id="Shape" sketch:type="MSShapeGroup"></path>
            <path d="M171.6,35.1 L173.7,35.1 L173.7,46.7 C173.7,47.8 174,48.6 174.6,49 C175.2,49.4 176,49.7 177.1,49.7 C178.2,49.7 179.2,49.5 180,49.1 C180.8,48.7 181.3,48.3 181.5,47.9 L181.5,35.1 L183.6,35.1 L183.6,47.1 L184.2,51.3 L182.8,51.3 L182.7,51.2 L182,49.4 C181.1,50 180.5,50.4 180.2,50.6 C179.8,50.8 179.3,51.1 178.6,51.3 C177.9,51.5 177.1,51.6 176.3,51.6 C173.2,51.6 171.6,49.9 171.5,46.6 L171.5,35.1 L171.6,35.1 Z" id="Shape" sketch:type="MSShapeGroup"></path>
            <path d="M188.3,49 C189.7,49.5 190.9,49.8 192.1,49.8 C193.3,49.8 194.3,49.6 195.1,49.1 C195.9,48.6 196.4,48 196.4,47.1 C196.4,46.3 196.1,45.6 195.5,45.1 C194.9,44.6 194.2,44.2 193.4,43.9 C192.6,43.6 191.8,43.3 191,42.9 C190.2,42.6 189.5,42.1 188.9,41.5 C188.3,40.9 188,40.1 188,39.2 C188,37.8 188.5,36.6 189.5,35.9 C190.5,35.1 191.8,34.7 193.3,34.7 C194.8,34.7 196.3,35 197.7,35.5 L197.3,37 C196.2,36.6 195,36.4 193.6,36.4 C191.3,36.4 190.2,37.3 190.2,39.1 C190.2,40.2 191.2,41.2 193.2,41.9 C194,42.2 194.9,42.5 195.7,42.9 C196.5,43.3 197.2,43.8 197.8,44.5 C198.4,45.2 198.7,46 198.7,47 C198.7,48.5 198.1,49.6 196.8,50.4 C195.5,51.2 194.1,51.6 192.4,51.6 C190.7,51.6 189.2,51.3 187.8,50.7 L188.3,49 L188.3,49 Z" id="Shape" sketch:type="MSShapeGroup"></path>
            <path d="M202.6,29.6 L204.9,29.6 L204.9,32 L202.6,32 L202.6,29.6 L202.6,29.6 Z M202.7,35.1 L204.7,35.1 L204.7,51.3 L202.7,51.3 L202.7,35.1 L202.7,35.1 Z" id="Shape" sketch:type="MSShapeGroup"></path>
            <path d="M222.1,51.3 L220,51.3 L220,39.7 C220,38.6 219.7,37.9 219.1,37.4 C218.5,36.9 217.7,36.7 216.6,36.7 C215.5,36.7 214.6,36.9 213.7,37.3 C212.8,37.7 212.3,38.1 212.1,38.5 L212.1,51.3 L210,51.3 L210,39.3 L209.4,35.3 L210.8,35.3 L210.9,35.4 L211.5,37.1 C212.3,36.6 212.9,36.2 213.4,35.9 C214.6,35.2 215.9,34.8 217.4,34.8 C220.5,34.8 222,36.5 222.1,39.8 L222.1,51.3 L222.1,51.3 Z" id="Shape" sketch:type="MSShapeGroup"></path>
            <path d="M239.1,40.7 C239.1,41.5 239,42.3 238.9,43.2 L228.6,43.2 C228.7,45.6 229.1,47.3 229.8,48.2 C230.5,49.1 231.8,49.6 233.7,49.6 C235.1,49.6 236.7,49.3 238.5,48.7 L238.7,50.3 C238.2,50.5 237.8,50.6 237.5,50.7 C237.2,50.8 236.9,50.9 236.6,51 C236.3,51.1 236.1,51.2 235.9,51.2 C235.7,51.2 235.5,51.3 235.2,51.4 C234.9,51.5 234.7,51.5 234.5,51.5 C233.9,51.6 233.4,51.6 233,51.6 C230.9,51.6 229.3,50.9 228.1,49.4 C226.9,48 226.3,45.9 226.3,43.3 C226.3,41.9 226.5,40.6 226.8,39.5 C227.2,38.4 227.6,37.6 228.1,37 C228.6,36.4 229.2,36 229.8,35.6 C230.8,35.1 231.9,34.8 233.1,34.7 C237.1,34.8 239.1,36.8 239.1,40.7 L239.1,40.7 Z M237,40.2 C237,38.9 236.7,38 236,37.4 C235.3,36.9 234.4,36.6 233.1,36.6 C231.8,36.6 230.7,36.9 229.9,37.6 C229.1,38.3 228.6,39.6 228.6,41.4 L236.9,41.4 C237,41 237,40.6 237,40.2 L237,40.2 Z" id="Shape" sketch:type="MSShapeGroup"></path>
            <path d="M242.7,49 C244.1,49.5 245.3,49.8 246.5,49.8 C247.7,49.8 248.7,49.6 249.5,49.1 C250.3,48.6 250.8,48 250.8,47.1 C250.8,46.3 250.5,45.6 249.9,45.1 C249.3,44.6 248.6,44.2 247.8,43.9 C247,43.6 246.2,43.3 245.4,42.9 C244.6,42.6 243.9,42.1 243.3,41.5 C242.7,40.9 242.4,40.1 242.4,39.2 C242.4,37.8 242.9,36.6 243.9,35.9 C244.9,35.1 246.2,34.7 247.7,34.7 C249.2,34.7 250.7,35 252.1,35.5 L251.7,37 C250.6,36.6 249.4,36.4 248,36.4 C245.7,36.4 244.6,37.3 244.6,39.1 C244.6,40.2 245.6,41.2 247.6,41.9 C248.4,42.2 249.3,42.5 250.1,42.9 C250.9,43.3 251.6,43.8 252.2,44.5 C252.8,45.2 253.1,46 253.1,47 C253.1,48.5 252.5,49.6 251.2,50.4 C249.9,51.2 248.5,51.6 246.8,51.6 C245.1,51.6 243.6,51.3 242.2,50.7 L242.7,49 L242.7,49 Z" id="Shape" sketch:type="MSShapeGroup"></path>
            <path d="M256.5,49 C257.9,49.5 259.1,49.8 260.3,49.8 C261.5,49.8 262.5,49.6 263.3,49.1 C264.1,48.6 264.6,48 264.6,47.1 C264.6,46.3 264.3,45.6 263.7,45.1 C263.1,44.6 262.4,44.2 261.6,43.9 C260.8,43.6 260,43.3 259.2,42.9 C258.4,42.6 257.7,42.1 257.1,41.5 C256.5,40.9 256.2,40.1 256.2,39.2 C256.2,37.8 256.7,36.6 257.7,35.9 C258.7,35.1 260,34.7 261.5,34.7 C263,34.7 264.5,35 265.9,35.5 L265.5,37 C264.4,36.6 263.2,36.4 261.8,36.4 C259.5,36.4 258.4,37.3 258.4,39.1 C258.4,40.2 259.4,41.2 261.4,41.9 C262.2,42.2 263.1,42.5 263.9,42.9 C264.7,43.3 265.4,43.8 266,44.5 C266.6,45.2 266.9,46 266.9,47 C266.9,48.5 266.3,49.6 265,50.4 C263.7,51.2 262.3,51.6 260.6,51.6 C258.9,51.6 257.4,51.3 256,50.7 L256.5,49 L256.5,49 Z" id="Shape" sketch:type="MSShapeGroup"></path>
        </g>
    </g>
</svg>
