<svg viewBox="0 0 62 67" preserveAspectRatio="xMidYMid meet" version="1.1" xmlns="http://www.w3.org/2000/svg" xmlns:xlink="http://www.w3.org/1999/xlink" xmlns:sketch="http://www.bohemiancoding.com/sketch/ns">
  <g id="04_radio" sketch:type="MSLayerGroup" fill="#0E3E3E">
      <path d="M57,62.5 L5.1,62.5 C3.1,62.5 1.5,60.9 1.5,58.9 L1.5,25.5 C1.5,23.5 3.1,21.9 5.1,21.9 L57,21.9 C59,21.9 60.6,23.5 60.6,25.5 L60.6,58.8 C60.6,60.8 58.9,62.5 57,62.5 L57,62.5 L57,62.5 Z M5.1,23 C3.7,23 2.5,24.2 2.5,25.6 L2.5,58.9 C2.5,60.3 3.7,61.5 5.1,61.5 L57,61.5 C58.4,61.5 59.6,60.3 59.6,58.9 L59.6,25.5 C59.6,24.1 58.4,22.9 57,22.9 L5.1,22.9 L5.1,23 L5.1,23 Z" id="Shape" sketch:type="MSShapeGroup"></path>
      <path d="M44,28.8 C48.6,28.8 52.3,32.5 52.3,37.1 C52.3,41.7 48.6,45.4 44,45.4 C39.4,45.4 35.7,41.7 35.7,37.1 C35.7,32.6 39.4,28.8 44,28.8 L44,28.8 L44,28.8 Z M44,27.8 C38.8,27.8 34.6,32 34.6,37.2 C34.6,42.4 38.8,46.6 44,46.6 C49.2,46.6 53.4,42.4 53.4,37.2 C53.4,32 49.2,27.8 44,27.8 L44,27.8 L44,27.8 Z" id="Shape" sketch:type="MSShapeGroup"></path>
      <path d="M44,41.2 C41.8,41.2 39.9,39.4 39.9,37.1 C39.9,34.9 41.7,33 44,33 C46.3,33 48.1,34.8 48.1,37.1 C48.2,39.4 46.3,41.2 44,41.2 L44,41.2 L44,41.2 Z M44,34.1 C42.3,34.1 41,35.5 41,37.1 C41,38.7 42.4,40.1 44,40.1 C45.6,40.1 47,38.7 47,37.1 C47,35.4 45.7,34.1 44,34.1 L44,34.1 L44,34.1 Z" id="Shape" sketch:type="MSShapeGroup"></path>
      <path d="M45.9,34.6 C45.6,34.6 45.4,34.4 45.4,34.1 L45.4,33.7 L45,34 C44.8,34.2 44.5,34.2 44.3,34 C44.1,33.8 44.1,33.5 44.3,33.3 L45.6,32.1 C45.7,32 46,31.9 46.1,32 C46.3,32.1 46.4,32.3 46.4,32.5 L46.4,34.2 C46.5,34.4 46.2,34.6 45.9,34.6 L45.9,34.6 L45.9,34.6 Z" id="Shape" sketch:type="MSShapeGroup"></path>
      <path d="M34.8,56.3 C33.2,56.3 31.8,55 31.8,53.3 C31.8,51.6 33.1,50.3 34.8,50.3 C36.5,50.3 37.8,51.6 37.8,53.3 C37.8,55.1 36.5,56.3 34.8,56.3 L34.8,56.3 L34.8,56.3 Z M34.8,51.5 C33.7,51.5 32.9,52.4 32.9,53.4 C32.9,54.5 33.8,55.3 34.8,55.3 C35.8,55.3 36.7,54.4 36.7,53.4 C36.7,52.4 35.9,51.5 34.8,51.5 L34.8,51.5 L34.8,51.5 Z" id="Shape" sketch:type="MSShapeGroup"></path>
      <path d="M50.8,56.3 C49.2,56.3 47.8,55 47.8,53.3 C47.8,51.6 49.1,50.3 50.8,50.3 C52.5,50.3 53.8,51.6 53.8,53.3 C53.8,55.1 52.5,56.3 50.8,56.3 L50.8,56.3 L50.8,56.3 Z M50.8,51.5 C49.7,51.5 48.9,52.4 48.9,53.4 C48.9,54.5 49.8,55.3 50.8,55.3 C51.9,55.3 52.7,54.4 52.7,53.4 C52.7,52.4 51.9,51.5 50.8,51.5 L50.8,51.5 L50.8,51.5 Z" id="Shape" sketch:type="MSShapeGroup"></path>
      <path d="M20.5,56 L14,56 C13,56 12.4,55.3 12.4,54.4 C12.4,53.5 13.1,52.8 14,52.8 L20.5,52.8 C21.5,52.8 22.1,53.5 22.1,54.4 C22.2,55.4 21.5,56 20.5,56 L20.5,56 L20.5,56 Z M14.1,53.9 C13.8,53.9 13.6,54.1 13.6,54.4 C13.6,54.7 13.8,54.9 14.1,54.9 L20.6,54.9 C20.9,54.9 21.1,54.7 21.1,54.4 C21.1,54.1 20.9,53.9 20.6,53.9 L14.1,53.9 L14.1,53.9 Z" id="Shape" sketch:type="MSShapeGroup"></path>
      <path d="M10.5,65.4 L8.3,65.4 C7.3,65.4 6.6,64.4 6.6,63.4 L6.6,62 C6.6,61.7 6.8,61.5 7.1,61.5 C7.4,61.5 7.6,61.7 7.6,62 L7.6,63.4 C7.6,63.9 7.9,64.4 8.2,64.4 L10.4,64.4 C10.7,64.4 11,64 11,63.4 L11,62 C11,61.7 11.2,61.5 11.5,61.5 C11.8,61.5 12,61.7 12,62 L12,63.4 C12.3,64.6 11.5,65.4 10.5,65.4 L10.5,65.4 L10.5,65.4 Z" id="Shape" sketch:type="MSShapeGroup"></path>
      <path d="M51.4,65.4 L49.2,65.4 C48.2,65.4 47.5,64.4 47.5,63.4 L47.5,62 C47.5,61.7 47.7,61.5 48,61.5 C48.3,61.5 48.5,61.7 48.5,62 L48.5,63.4 C48.5,63.9 48.8,64.4 49.1,64.4 L51.3,64.4 C51.6,64.4 51.9,64 51.9,63.4 L51.9,62 C51.9,61.7 52.1,61.5 52.4,61.5 C52.7,61.5 52.9,61.7 52.9,62 L52.9,63.4 C53.1,64.6 52.3,65.4 51.4,65.4 L51.4,65.4 L51.4,65.4 Z" id="Shape" sketch:type="MSShapeGroup"></path>
      <path d="M13.9,26.8 C13.4,26.8 12.8,27.3 12.8,27.9 C12.8,28.5 13.2,29 13.9,29 C14.4,29 15,28.5 15,27.9 C15,27.2 14.6,26.8 13.9,26.8 L13.9,26.8 L13.9,26.8 Z" id="Shape" sketch:type="MSShapeGroup"></path>
      <path d="M17.1,26.8 C16.6,26.8 16,27.3 16,27.9 C16,28.5 16.4,29 17.1,29 C17.6,29 18.2,28.5 18.2,27.9 C18.2,27.2 17.7,26.8 17.1,26.8 L17.1,26.8 L17.1,26.8 Z" id="Shape" sketch:type="MSShapeGroup"></path>
      <path d="M20.3,26.8 C19.8,26.8 19.2,27.3 19.2,27.9 C19.2,28.5 19.6,29 20.3,29 C20.8,29 21.4,28.5 21.4,27.9 C21.3,27.2 20.9,26.8 20.3,26.8 L20.3,26.8 L20.3,26.8 Z" id="Shape" sketch:type="MSShapeGroup"></path>
      <path d="M10.7,29.9 C10.2,29.9 9.6,30.4 9.6,31 C9.6,31.6 10,32.1 10.7,32.1 C11.2,32.1 11.8,31.6 11.8,31 C11.8,30.4 11.4,29.9 10.7,29.9 L10.7,29.9 L10.7,29.9 Z" id="Shape" sketch:type="MSShapeGroup"></path>
      <path d="M13.9,29.9 C13.4,29.9 12.8,30.4 12.8,31 C12.8,31.6 13.2,32.1 13.9,32.1 C14.4,32.1 15,31.6 15,31 C15,30.4 14.6,29.9 13.9,29.9 L13.9,29.9 L13.9,29.9 Z" id="Shape" sketch:type="MSShapeGroup"></path>
      <path d="M17.1,29.9 C16.6,29.9 16,30.4 16,31 C16,31.6 16.4,32.1 17.1,32.1 C17.6,32.1 18.2,31.6 18.2,31 C18.2,30.4 17.7,29.9 17.1,29.9 L17.1,29.9 L17.1,29.9 Z" id="Shape" sketch:type="MSShapeGroup"></path>
      <path d="M20.3,29.9 C19.8,29.9 19.2,30.4 19.2,31 C19.2,31.6 19.6,32.1 20.3,32.1 C20.8,32.1 21.4,31.6 21.4,31 C21.3,30.4 20.9,29.9 20.3,29.9 L20.3,29.9 L20.3,29.9 Z" id="Shape" sketch:type="MSShapeGroup"></path>
      <path d="M23.4,29.9 C22.9,29.9 22.3,30.4 22.3,31 C22.3,31.6 22.7,32.1 23.4,32.1 C23.9,32.1 24.5,31.6 24.5,31 C24.5,30.4 24.1,29.9 23.4,29.9 L23.4,29.9 L23.4,29.9 Z" id="Shape" sketch:type="MSShapeGroup"></path>
      <path d="M7.6,33.1 C7.1,33.1 6.5,33.6 6.5,34.2 C6.5,34.8 6.9,35.3 7.6,35.3 C8.1,35.3 8.7,34.8 8.7,34.2 C8.7,33.6 8.2,33.1 7.6,33.1 L7.6,33.1 L7.6,33.1 Z" id="Shape" sketch:type="MSShapeGroup"></path>
      <path d="M10.7,33.1 C10.2,33.1 9.6,33.6 9.6,34.2 C9.6,34.8 10,35.3 10.7,35.3 C11.2,35.3 11.8,34.8 11.8,34.2 C11.8,33.6 11.4,33.1 10.7,33.1 L10.7,33.1 L10.7,33.1 Z" id="Shape" sketch:type="MSShapeGroup"></path>
      <path d="M13.9,33.1 C13.4,33.1 12.8,33.6 12.8,34.2 C12.8,34.8 13.2,35.3 13.9,35.3 C14.4,35.3 15,34.8 15,34.2 C15,33.6 14.6,33.1 13.9,33.1 L13.9,33.1 L13.9,33.1 Z" id="Shape" sketch:type="MSShapeGroup"></path>
      <path d="M17.1,33.1 C16.6,33.1 16,33.6 16,34.2 C16,34.8 16.4,35.3 17.1,35.3 C17.6,35.3 18.2,34.8 18.2,34.2 C18.2,33.6 17.7,33.1 17.1,33.1 L17.1,33.1 L17.1,33.1 Z" id="Shape" sketch:type="MSShapeGroup"></path>
      <path d="M20.3,33.1 C19.8,33.1 19.2,33.6 19.2,34.2 C19.2,34.8 19.6,35.3 20.3,35.3 C20.8,35.3 21.4,34.8 21.4,34.2 C21.3,33.6 20.9,33.1 20.3,33.1 L20.3,33.1 L20.3,33.1 Z" id="Shape" sketch:type="MSShapeGroup"></path>
      <path d="M23.4,33.1 C22.9,33.1 22.3,33.6 22.3,34.2 C22.3,34.8 22.7,35.3 23.4,35.3 C23.9,35.3 24.5,34.8 24.5,34.2 C24.5,33.6 24.1,33.1 23.4,33.1 L23.4,33.1 L23.4,33.1 Z" id="Shape" sketch:type="MSShapeGroup"></path>
      <path d="M26.6,33.1 C26.1,33.1 25.5,33.6 25.5,34.2 C25.5,34.8 25.9,35.3 26.6,35.3 C27.1,35.3 27.7,34.8 27.7,34.2 C27.7,33.6 27.2,33.1 26.6,33.1 L26.6,33.1 L26.6,33.1 Z" id="Shape" sketch:type="MSShapeGroup"></path>
      <path d="M7.6,36.3 C7.1,36.3 6.5,36.8 6.5,37.4 C6.5,38 6.9,38.5 7.6,38.5 C8.1,38.5 8.7,38 8.7,37.4 C8.7,36.8 8.2,36.3 7.6,36.3 L7.6,36.3 L7.6,36.3 Z" id="Shape" sketch:type="MSShapeGroup"></path>
      <path d="M10.7,36.3 C10.2,36.3 9.6,36.8 9.6,37.4 C9.6,38 10,38.5 10.7,38.5 C11.2,38.5 11.8,38 11.8,37.4 C11.8,36.8 11.4,36.3 10.7,36.3 L10.7,36.3 L10.7,36.3 Z" id="Shape" sketch:type="MSShapeGroup"></path>
      <path d="M13.9,36.3 C13.4,36.3 12.8,36.8 12.8,37.4 C12.8,38 13.2,38.5 13.9,38.5 C14.4,38.5 15,38 15,37.4 C15,36.8 14.6,36.3 13.9,36.3 L13.9,36.3 L13.9,36.3 Z" id="Shape" sketch:type="MSShapeGroup"></path>
      <path d="M17.1,36.3 C16.6,36.3 16,36.8 16,37.4 C16,38 16.4,38.5 17.1,38.5 C17.6,38.5 18.2,38 18.2,37.4 C18.2,36.8 17.7,36.3 17.1,36.3 L17.1,36.3 L17.1,36.3 Z" id="Shape" sketch:type="MSShapeGroup"></path>
      <path d="M20.3,36.3 C19.8,36.3 19.2,36.8 19.2,37.4 C19.2,38 19.6,38.5 20.3,38.5 C20.8,38.5 21.4,38 21.4,37.4 C21.3,36.8 20.9,36.3 20.3,36.3 L20.3,36.3 L20.3,36.3 Z" id="Shape" sketch:type="MSShapeGroup"></path>
      <path d="M23.4,36.3 C22.9,36.3 22.3,36.8 22.3,37.4 C22.3,38 22.7,38.5 23.4,38.5 C23.9,38.5 24.5,38 24.5,37.4 C24.5,36.8 24.1,36.3 23.4,36.3 L23.4,36.3 L23.4,36.3 Z" id="Shape" sketch:type="MSShapeGroup"></path>
      <path d="M26.6,36.3 C26.1,36.3 25.5,36.8 25.5,37.4 C25.5,38 25.9,38.5 26.6,38.5 C27.1,38.5 27.7,38 27.7,37.4 C27.7,36.8 27.2,36.3 26.6,36.3 L26.6,36.3 L26.6,36.3 Z" id="Shape" sketch:type="MSShapeGroup"></path>
      <path d="M7.6,39.5 C7.1,39.5 6.5,40 6.5,40.6 C6.5,41.2 6.9,41.7 7.6,41.7 C8.1,41.7 8.7,41.2 8.7,40.6 C8.7,39.9 8.2,39.5 7.6,39.5 L7.6,39.5 L7.6,39.5 Z" id="Shape" sketch:type="MSShapeGroup"></path>
      <path d="M10.7,39.5 C10.2,39.5 9.6,40 9.6,40.6 C9.6,41.2 10,41.7 10.7,41.7 C11.2,41.7 11.8,41.2 11.8,40.6 C11.8,39.9 11.4,39.5 10.7,39.5 L10.7,39.5 L10.7,39.5 Z" id="Shape" sketch:type="MSShapeGroup"></path>
      <path d="M13.9,39.5 C13.4,39.5 12.8,40 12.8,40.6 C12.8,41.2 13.2,41.7 13.9,41.7 C14.4,41.7 15,41.2 15,40.6 C15,39.9 14.6,39.5 13.9,39.5 L13.9,39.5 L13.9,39.5 Z" id="Shape" sketch:type="MSShapeGroup"></path>
      <path d="M17.1,39.5 C16.6,39.5 16,40 16,40.6 C16,41.2 16.4,41.7 17.1,41.7 C17.6,41.7 18.2,41.2 18.2,40.6 C18.2,39.9 17.7,39.5 17.1,39.5 L17.1,39.5 L17.1,39.5 Z" id="Shape" sketch:type="MSShapeGroup"></path>
      <path d="M20.3,39.5 C19.8,39.5 19.2,40 19.2,40.6 C19.2,41.2 19.6,41.7 20.3,41.7 C20.8,41.7 21.4,41.2 21.4,40.6 C21.3,39.9 20.9,39.5 20.3,39.5 L20.3,39.5 L20.3,39.5 Z" id="Shape" sketch:type="MSShapeGroup"></path>
      <path d="M23.4,39.5 C22.9,39.5 22.3,40 22.3,40.6 C22.3,41.2 22.7,41.7 23.4,41.7 C23.9,41.7 24.5,41.2 24.5,40.6 C24.5,39.9 24.1,39.5 23.4,39.5 L23.4,39.5 L23.4,39.5 Z" id="Shape" sketch:type="MSShapeGroup"></path>
      <path d="M26.6,39.5 C26.1,39.5 25.5,40 25.5,40.6 C25.5,41.2 25.9,41.7 26.6,41.7 C27.1,41.7 27.7,41.2 27.7,40.6 C27.7,39.9 27.2,39.5 26.6,39.5 L26.6,39.5 L26.6,39.5 Z" id="Shape" sketch:type="MSShapeGroup"></path>
      <path d="M10.7,42.7 C10.2,42.7 9.6,43.2 9.6,43.8 C9.6,44.4 10,44.9 10.7,44.9 C11.2,44.9 11.8,44.4 11.8,43.8 C11.8,43.1 11.4,42.7 10.7,42.7 L10.7,42.7 L10.7,42.7 Z" id="Shape" sketch:type="MSShapeGroup"></path>
      <path d="M13.9,42.7 C13.4,42.7 12.8,43.2 12.8,43.8 C12.8,44.4 13.2,44.9 13.9,44.9 C14.4,44.9 15,44.4 15,43.8 C15,43.1 14.6,42.7 13.9,42.7 L13.9,42.7 L13.9,42.7 Z" id="Shape" sketch:type="MSShapeGroup"></path>
      <path d="M17.1,42.7 C16.6,42.7 16,43.2 16,43.8 C16,44.4 16.4,44.9 17.1,44.9 C17.6,44.9 18.2,44.4 18.2,43.8 C18.2,43.1 17.7,42.7 17.1,42.7 L17.1,42.7 L17.1,42.7 Z" id="Shape" sketch:type="MSShapeGroup"></path>
      <path d="M20.3,42.7 C19.8,42.7 19.2,43.2 19.2,43.8 C19.2,44.4 19.6,44.9 20.3,44.9 C20.8,44.9 21.4,44.4 21.4,43.8 C21.3,43.1 20.9,42.7 20.3,42.7 L20.3,42.7 L20.3,42.7 Z" id="Shape" sketch:type="MSShapeGroup"></path>
      <path d="M23.4,42.7 C22.9,42.7 22.3,43.2 22.3,43.8 C22.3,44.4 22.7,44.9 23.4,44.9 C23.9,44.9 24.5,44.4 24.5,43.8 C24.5,43.1 24.1,42.7 23.4,42.7 L23.4,42.7 L23.4,42.7 Z" id="Shape" sketch:type="MSShapeGroup"></path>
      <path d="M13.9,45.8 C13.4,45.8 12.8,46.3 12.8,46.9 C12.8,47.5 13.2,48 13.9,48 C14.4,48 15,47.5 15,46.9 C15,46.3 14.6,45.8 13.9,45.8 L13.9,45.8 L13.9,45.8 Z" id="Shape" sketch:type="MSShapeGroup"></path>
      <path d="M17.1,45.8 C16.6,45.8 16,46.3 16,46.9 C16,47.5 16.4,48 17.1,48 C17.6,48 18.2,47.5 18.2,46.9 C18.2,46.3 17.7,45.8 17.1,45.8 L17.1,45.8 L17.1,45.8 Z" id="Shape" sketch:type="MSShapeGroup"></path>
      <path d="M20.3,45.8 C19.8,45.8 19.2,46.3 19.2,46.9 C19.2,47.5 19.6,48 20.3,48 C20.8,48 21.4,47.5 21.4,46.9 C21.3,46.3 20.9,45.8 20.3,45.8 L20.3,45.8 L20.3,45.8 Z" id="Shape" sketch:type="MSShapeGroup"></path>
      <path d="M21.9,4.8 L56.3,22.7 C57.9,22.8 59.3,24.1 59.3,25.8 L59.3,58.1 C59.3,59.8 57.8,61.2 56.1,61.2 L52.4,61.2 L52.4,63 C52.4,63.9 51.9,64.5 51.2,64.5 L49.1,64.5 C48.5,64.5 47.9,63.9 47.9,63 L47.9,61.2 L11.8,61.2 L11.8,63 C11.8,63.9 11.3,64.5 10.6,64.5 L8.4,64.5 C7.8,64.5 7.2,63.9 7.2,63 L7.2,61.2 L5.7,61.2 C4,61.2 2.7,59.8 2.7,58.1 L2.7,26 C2.7,24.3 4,22.9 5.7,22.9 L50.5,22.9 L20.8,7.3 L21.9,4.8 L21.9,4.8 Z M21.9,2.9 C21.3,2.9 20.5,3.3 20.2,4 L19,6.5 C18.5,7.5 18.9,8.6 19.9,9.1 L42.5,21 L5.5,21 C2.7,21 0.6,23.2 0.6,26 L0.6,58.3 C0.6,61.1 2.7,63.3 5.5,63.3 L5.1,63.3 C5.2,65.1 6.6,66.6 8.2,66.6 L10.4,66.6 C12.1,66.6 13.5,65.1 13.5,63.3 L45.9,63.3 C46,65.1 47.4,66.6 49,66.6 L51.2,66.6 C52.9,66.6 54.3,65.1 54.3,63.3 L56.1,63.3 C58.9,63.3 61.2,61.1 61.2,58.3 L61.2,26 C61.2,23.4 59.3,21.4 56.8,21 L22.7,3.2 C22.6,3 22.2,2.9 21.9,2.9 L21.9,2.9 L21.9,2.9 Z" id="Shape" sketch:type="MSShapeGroup"></path>
      <path d="M17.4,2.7 C17.6,2.7 17.8,2.7 18,2.8 L20.3,4 L19,6.5 L16.7,5.3 C16.1,5 15.7,4.1 16.2,3.5 C16.5,2.9 17,2.7 17.4,2.7 L17.4,2.7 L17.4,2.7 Z M17.4,0.6 C16.1,0.6 14.9,1.3 14.3,2.5 C13.4,4.2 14.1,6.3 15.8,7.2 L18.1,8.4 C18.4,8.5 18.7,8.6 19.1,8.6 C19.8,8.6 20.6,8.2 21,7.4 L22.3,5.1 C22.5,4.6 22.6,4 22.4,3.5 C22.2,3 21.9,2.5 21.3,2.2 L19,1 C18.6,0.7 18,0.6 17.4,0.6 L17.4,0.6 L17.4,0.6 Z" id="Shape" sketch:type="MSShapeGroup"></path>
  </g>
</svg>
