<svg id="ICONS_-_HOVER" data-name="ICONS - HOVER" xmlns="http://www.w3.org/2000/svg" xmlns:xlink="http://www.w3.org/1999/xlink" width="110" height="100" viewBox="0 0 110 100"><defs><linearGradient id="ARTS_GRADIENT_hover" x1="37.21" y1="65.2" x2="54.45" y2="35.32" gradientUnits="userSpaceOnUse"><stop offset="0" stop-color="#5265ff"/><stop offset="0.04" stop-color="#516fff"/><stop offset="0.27" stop-color="#4b9cfd"/><stop offset="0.48" stop-color="#46c0fc"/><stop offset="0.68" stop-color="#43dafb"/><stop offset="0.86" stop-color="#41eafa"/><stop offset="1" stop-color="#40effa"/></linearGradient><linearGradient id="ARTS_GRADIENT_hover-2" x1="41.93" y1="57.02" x2="49.73" y2="43.5" xlink:href="#ARTS_GRADIENT_hover"/><linearGradient id="ARTS_GRADIENT_hover-3" x1="24.77" y1="79.74" x2="32.85" y2="65.74" xlink:href="#ARTS_GRADIENT_hover"/><linearGradient id="ARTS_GRADIENT_hover-4" x1="58.34" y1="99.4" x2="84" y2="54.95" xlink:href="#ARTS_GRADIENT_hover"/></defs><title>ARTS ICONS</title><path d="M45.83,67.51A17.25,17.25,0,1,0,28.58,50.26,17.27,17.27,0,0,0,45.83,67.51Zm0-32.5A15.25,15.25,0,1,1,30.58,50.26,15.27,15.27,0,0,1,45.83,35Z" fill="url(#ARTS_GRADIENT_hover)"/><path d="M45.83,58.07A7.81,7.81,0,1,0,38,50.26,7.82,7.82,0,0,0,45.83,58.07Zm0-13.62A5.81,5.81,0,1,1,40,50.26,5.82,5.82,0,0,1,45.83,44.45Z" fill="url(#ARTS_GRADIENT_hover-2)"/><path d="M53.82,78.43a1,1,0,0,0-1-1H24.92L8.54,61.06a1,1,0,1,0-1.41,1.41L23.8,79.14a1,1,0,0,0,.71.29H52.82A1,1,0,0,0,53.82,78.43Z" fill="url(#ARTS_GRADIENT_hover-3)"/><path d="M103,66.06a1,1,0,0,0-1.38-.31l-33.42,21h-28a1,1,0,1,0,0,2H68.5a1,1,0,0,0,.53-.15L102.7,67.44A1,1,0,0,0,103,66.06Z" fill="url(#ARTS_GRADIENT_hover-4)"/></svg>