<svg id="top_master" data-name="top master" xmlns="http://www.w3.org/2000/svg" width="110" height="100" viewBox="0 0 110 100"><title>ARTS ICONS</title><path d="M38.95,76.82c-.2,0-.32-.14-.3-.48a1.43,1.43,0,0,1,.5-1C50.28,68.4,65,68.53,76.09,61.77l5.3-8.35a211.6,211.6,0,0,1,18-11.93.64.64,0,0,1,.85.17.61.61,0,0,1-.17.84A156.29,156.29,0,0,0,82.49,54.75L77.55,63.3C66,70.18,50.55,69.38,39.1,76.75A.53.53,0,0,1,38.95,76.82Z"/><path d="M25.81,71.67a1.18,1.18,0,0,1-.81-.41.46.46,0,0,1,0-.72C35.86,64,49.86,65.67,62.74,58.78c9-4.81,13.25-16.9,24-21.91a.76.76,0,0,1,.95.21.57.57,0,0,1-.32.79c-9.72,4.77-15.77,17.06-24.72,21.47C50,65.58,37.34,66.44,26,71.65A.46.46,0,0,1,25.81,71.67Z"/><path d="M14.61,63.41c-.18.06-.36-.1-.46-.41a1.11,1.11,0,0,1,.13-1C24.79,54,40.39,58.05,52.76,51.14,61.6,46.21,64,36.91,75.47,33c.35-.12.7-.06.75.18s-.22.59-.58.7C63.76,37.7,63,48.15,54.17,53c-12.71,7.09-28.24,1.77-39.46,10.29A.43.43,0,0,1,14.61,63.41Z"/><path d="M4.52,55.25c-.16.19-.29.18-.3-.09a1.87,1.87,0,0,1,.36-1.08c7.31-6,26.84-3.25,37.4-10,7.56-4.83,9.48-9.46,19.18-13.91a1.39,1.39,0,0,1,1.39.07c.27.26.09.65-.37.83-9.29,3.6-12.2,9.83-20,14.12C30.46,51.58,12,48.46,4.58,55.17A.84.84,0,0,0,4.52,55.25Z"/><path d="M69.72,72.1C43.32,66.45,22.48,56,6,40.11a1.8,1.8,0,0,0-2.5,2.59C20.48,59.06,41.89,69.83,69,75.62a1.8,1.8,0,0,0,.75-3.52Z"/><path d="M82,66.16c-33.09-7.41-53-20.91-61.85-28.3a1.2,1.2,0,0,0-1.53,1.85C27.65,47.23,47.87,61,81.45,68.5l.26,0A1.2,1.2,0,0,0,82,66.16Z"/><path d="M95.93,59.77C70.1,56.24,45.51,46.45,30.14,33.6a.6.6,0,1,0-.77.92C44.9,47.51,69.72,57.4,95.76,61h.08a.6.6,0,0,0,.08-1.19Z"/><path d="M106.65,52.77C80.6,49.82,60.15,42.71,44.13,31a.6.6,0,0,0-.71,1C59.61,43.8,80.25,51,106.52,54h.07a.6.6,0,0,0,.07-1.2Z"/></svg>