<svg id="top_master" data-name="top master" xmlns="http://www.w3.org/2000/svg" width="110" height="100" viewBox="0 0 110 100"><title>ARTS ICONS</title><path d="M55.87,79.58a33,33,0,0,1-20.65-7c-10-8-14.11-19.39-12.2-33.73a1.68,1.68,0,0,1,3.33.45C25.7,44.19,23.72,59,37.32,70c8.67,7,21.6,8.25,32.16,3.2a24.74,24.74,0,0,0,14.61-23c0-14.73-11-22.12-21.18-22.74-8.7-.54-18.11,4-19.49,15.35A14.83,14.83,0,0,0,53.12,59.1c5.52,2.1,11.19.95,13.8-2.81a8.79,8.79,0,0,0,.7-9.5,5.73,5.73,0,0,0-6-2.66,1.68,1.68,0,0,1-.49-3.33A9.07,9.07,0,0,1,70.48,45a12.06,12.06,0,0,1-.8,13.19c-3.5,5-10.8,6.69-17.76,4A18.3,18.3,0,0,1,40.1,42.39c1.19-9.74,8.75-19.16,23-18.3,12.1.74,24.35,9.94,24.33,26.1,0,11.5-6,21-16.53,26A35,35,0,0,1,55.87,79.58Z"/></svg>