<svg id="ICONS_-_HOVER" data-name="ICONS - HOVER" xmlns="http://www.w3.org/2000/svg" xmlns:xlink="http://www.w3.org/1999/xlink" width="110" height="100" viewBox="0 0 110 100"><defs><style>.cls-1{fill:url(#ARTS_GRADIENT_hover);}.cls-2{fill:url(#ARTS_GRADIENT_hover-2);}.cls-3{fill:url(#ARTS_GRADIENT_hover-3);}.cls-4{fill:url(#ARTS_GRADIENT_hover-4);}.cls-5{fill:url(#ARTS_GRADIENT_hover-5);}.cls-6{fill:url(#ARTS_GRADIENT_hover-6);}.cls-7{fill:url(#ARTS_GRADIENT_hover-7);}.cls-8{fill:url(#ARTS_GRADIENT_hover-8);}.cls-9{fill:url(#ARTS_GRADIENT_hover-9);}</style><linearGradient id="ARTS_GRADIENT_hover" x1="46.58" y1="49.4" x2="66.12" y2="15.55" gradientUnits="userSpaceOnUse"><stop offset="0" stop-color="#5265ff"/><stop offset="0.04" stop-color="#516fff"/><stop offset="0.27" stop-color="#4b9cfd"/><stop offset="0.48" stop-color="#46c0fc"/><stop offset="0.68" stop-color="#43dafb"/><stop offset="0.86" stop-color="#41eafa"/><stop offset="1" stop-color="#40effa"/></linearGradient><linearGradient id="ARTS_GRADIENT_hover-2" x1="53.81" y1="74.23" x2="58.89" y2="65.44" xlink:href="#ARTS_GRADIENT_hover"/><linearGradient id="ARTS_GRADIENT_hover-3" x1="68.17" y1="71.51" x2="72.78" y2="63.52" xlink:href="#ARTS_GRADIENT_hover"/><linearGradient id="ARTS_GRADIENT_hover-4" x1="81.22" y1="67.19" x2="85.83" y2="59.2" xlink:href="#ARTS_GRADIENT_hover"/><linearGradient id="ARTS_GRADIENT_hover-5" x1="26.87" y1="67.19" x2="31.48" y2="59.2" xlink:href="#ARTS_GRADIENT_hover"/><linearGradient id="ARTS_GRADIENT_hover-6" x1="39.92" y1="71.51" x2="44.53" y2="63.52" xlink:href="#ARTS_GRADIENT_hover"/><linearGradient id="ARTS_GRADIENT_hover-7" x1="54.62" y1="58.81" x2="58.08" y2="52.81" xlink:href="#ARTS_GRADIENT_hover"/><linearGradient id="ARTS_GRADIENT_hover-8" x1="68.74" y1="56.49" x2="72.21" y2="50.49" xlink:href="#ARTS_GRADIENT_hover"/><linearGradient id="ARTS_GRADIENT_hover-9" x1="40.49" y1="56.49" x2="43.95" y2="50.49" xlink:href="#ARTS_GRADIENT_hover"/></defs><title>ARTS ICONS</title><path class="cls-1" d="M93,31.28H19.67a1.2,1.2,0,1,0,0,2.4H93a1.2,1.2,0,1,0,0-2.4Z"/><circle class="cls-2" cx="56.35" cy="69.83" r="5.07"/><circle class="cls-3" cx="70.48" cy="67.51" r="4.61"/><circle class="cls-4" cx="83.52" cy="63.19" r="4.61"/><circle class="cls-5" cx="29.18" cy="63.19" r="4.61"/><circle class="cls-6" cx="42.22" cy="67.51" r="4.61"/><circle class="cls-7" cx="56.35" cy="55.81" r="3.47"/><circle class="cls-8" cx="70.48" cy="53.49" r="3.47"/><circle class="cls-9" cx="42.22" cy="53.49" r="3.47"/></svg>