<svg id="ICONS_-_HOVER" data-name="ICONS - HOVER" xmlns="http://www.w3.org/2000/svg" xmlns:xlink="http://www.w3.org/1999/xlink" width="110" height="100" viewBox="0 0 110 100"><defs><style>.cls-1{fill:url(#ARTS_GRADIENT_hover);}.cls-2{fill:url(#ARTS_GRADIENT_hover-2);}</style><linearGradient id="ARTS_GRADIENT_hover" x1="24.19" y1="66.36" x2="38.94" y2="40.82" gradientUnits="userSpaceOnUse"><stop offset="0" stop-color="#5265ff"/><stop offset="0.04" stop-color="#516fff"/><stop offset="0.27" stop-color="#4b9cfd"/><stop offset="0.48" stop-color="#46c0fc"/><stop offset="0.68" stop-color="#43dafb"/><stop offset="0.86" stop-color="#41eafa"/><stop offset="1" stop-color="#40effa"/></linearGradient><linearGradient id="ARTS_GRADIENT_hover-2" x1="71.59" y1="66.36" x2="86.34" y2="40.82" xlink:href="#ARTS_GRADIENT_hover"/></defs><title>ARTS ICONS</title><path class="cls-1" d="M31.57,39.55c-7.75,0-18.45,6.29-18.45,14s10.7,14,18.45,14S50,61.35,50,53.59,39.32,39.55,31.57,39.55Zm0,24.15A10.11,10.11,0,1,1,41.67,53.59,10.11,10.11,0,0,1,31.57,63.7Z"/><path class="cls-2" d="M79,39.55c-7.75,0-18.45,6.29-18.45,14s10.7,14,18.45,14,18.45-6.29,18.45-14S86.72,39.55,79,39.55ZM79,63.7A10.11,10.11,0,1,1,89.07,53.59,10.11,10.11,0,0,1,79,63.7Z"/></svg>