<?xml version="1.0" standalone="no"?><!DOCTYPE svg PUBLIC "-//W3C//DTD SVG 1.1//EN" "http://www.w3.org/Graphics/SVG/1.1/DTD/svg11.dtd"><svg width="100%" height="100%" viewBox="0 0 151 351" version="1.1" xmlns="http://www.w3.org/2000/svg" xmlns:xlink="http://www.w3.org/1999/xlink" xml:space="preserve" style="fill-rule:evenodd;clip-rule:evenodd;stroke-linecap:round;stroke-linejoin:round;stroke-miterlimit:1.41421;"><path d="M83.186,15.386l54.837,100.083" style="fill:none;stroke-width:0.28px;stroke:#000;"/><path d="M105.961,6.707l-41.045,59.591l-64.677,-19.956l5.058,63.599l137.756,40.326l7.186,-111.332l-44.278,-32.228Z" style="fill:none;stroke-width:0.28px;stroke:#000;"/><path d="M105.961,6.707l-105.722,39.635" style="fill:none;stroke-width:0.28px;stroke:#000;"/><path d="M48.139,122.489l2.57,9.674l41.017,28.635l52.847,-34.218" style="fill:none;stroke-width:0.28px;stroke:#000;"/><path d="M74.562,85.259l-69.265,24.682l27.806,-109.702l41.459,85.02l75.677,-46.324l-21.116,60.144l-27.667,13.736" style="fill:none;stroke-width:0.28px;stroke:#000;"/><path d="M91.726,160.798l18.795,-92.593" style="fill:none;stroke-width:0.28px;stroke:#000;"/><path d="M110.028,83.714l-10.53,51.271l-4.874,-1.001l10.531,-51.271l4.873,1.001Z" style="fill:#000;"/><path d="M66.353,68.399l-36.677,-37.507l3.565,-3.483l35.489,36.291l-2.377,4.699Z" style="fill:#231f20;fill-rule:nonzero;"/><path d="M144.024,121.303l-4.374,2.372l-47.678,-87.894l4.373,-2.372l47.679,87.894Z" style="fill:#000;"/><path d="M66.409,68.26l-3.041,-4.367l26.534,-38.502l4.091,2.82l-27.584,40.049Z" style="fill:#231f20;fill-rule:nonzero;"/><path d="M29.848,23.239l-17.772,70.121l-4.823,-1.222l17.772,-70.122l4.823,1.223Z" style="fill:#231f20;"/><path d="M74.562,85.259l-10.365,55.97" style="fill:none;stroke-width:0.28px;stroke:#000;"/><path d="M5.795,223.761l12.41,28.551l0.138,0l12.466,-28.551l1.658,0l0,30.32l-1.133,0l0,-28.358l-0.138,-0.055l-12.466,28.386l-0.884,0l-12.41,-28.193l-0.139,0.056l0,28.22l-1.133,0l0,-30.321l1.631,0l0,-0.055Z" style="fill:#000;fill-rule:nonzero;"/><path d="M41.588,224.479l-1.133,0l0,-2.874l1.133,0l0,2.874ZM41.588,254.109l-1.133,0l0,-22.554l1.133,0l0,22.554Z" style="fill:#000;fill-rule:nonzero;"/><path d="M49.935,231.555l0.139,4.643c0.691,-1.603 1.686,-2.846 2.985,-3.731c1.299,-0.884 2.929,-1.327 4.837,-1.327c2.459,0 4.311,0.774 5.527,2.322c1.217,1.548 1.852,4.008 1.852,7.352l0,13.267l-1.133,0l0,-13.294c0,-3.124 -0.553,-5.335 -1.686,-6.606c-1.106,-1.272 -2.626,-1.907 -4.56,-1.907c-2.433,0 -4.257,0.718 -5.501,2.183c-1.244,1.465 -2.017,3.317 -2.321,5.583l0,14.097l-1.134,0l0,-22.554l0.995,0l0,-0.028Z" style="fill:#000;fill-rule:nonzero;"/><path d="M73.733,224.479l-1.133,0l0,-2.874l1.133,0l0,2.874ZM73.733,254.109l-1.133,0l0,-22.554l1.133,0l0,22.554Z" style="fill:#000;fill-rule:nonzero;"/><path d="M94.933,248.581c0,-1.189 -0.498,-2.294 -1.521,-3.261c-1.022,-0.968 -2.791,-1.742 -5.334,-2.295c-2.681,-0.58 -4.616,-1.299 -5.832,-2.211c-1.189,-0.884 -1.797,-2.239 -1.797,-3.98c0,-1.603 0.691,-2.957 2.046,-4.063c1.354,-1.078 3.206,-1.631 5.5,-1.631c2.488,0 4.45,0.581 5.887,1.742c1.438,1.161 2.101,2.681 2.046,4.56l-0.056,0.138l-0.967,0c0,-1.464 -0.608,-2.736 -1.852,-3.759c-1.244,-1.022 -2.93,-1.547 -5.058,-1.547c-2.101,0 -3.704,0.442 -4.782,1.354c-1.078,0.912 -1.63,1.962 -1.63,3.151c0,1.188 0.47,2.183 1.382,3.013c0.912,0.829 2.736,1.575 5.445,2.183c2.515,0.581 4.422,1.382 5.721,2.377c1.299,0.995 1.935,2.405 1.935,4.229c0,1.769 -0.719,3.206 -2.156,4.284c-1.437,1.106 -3.372,1.659 -5.749,1.659c-2.626,0 -4.671,-0.581 -6.164,-1.769c-1.492,-1.161 -2.183,-2.599 -2.1,-4.285l0.055,-0.138l0.912,0c0.111,1.769 0.884,3.068 2.294,3.842c1.41,0.802 3.096,1.189 5.031,1.189c2.072,0 3.731,-0.498 4.947,-1.465c1.188,-0.912 1.797,-2.046 1.797,-3.317Z" style="fill:#000;fill-rule:nonzero;"/><path d="M104.689,225.474l0,6.081l5.528,0l0,1.133l-5.528,0l0,15.589c0,1.852 0.304,3.151 0.94,3.952c0.636,0.774 1.437,1.189 2.488,1.189c0.387,0 0.718,0 0.995,-0.055c0.304,-0.028 0.691,-0.083 1.216,-0.139l0.221,1.023c-0.359,0.111 -0.719,0.194 -1.078,0.221c-0.359,0.028 -0.802,0.056 -1.271,0.056c-1.521,0 -2.654,-0.498 -3.455,-1.493c-0.774,-0.995 -1.189,-2.571 -1.189,-4.782l0,-15.588l-4.173,0l0,-1.134l4.173,0l0,-6.08l1.133,0l0,0.027Z" style="fill:#000;fill-rule:nonzero;"/><path d="M125.474,232.384l-1.465,-0.138c-2.017,0 -3.648,0.636 -4.919,1.935c-1.244,1.299 -2.073,3.012 -2.46,5.141l0,14.759l-1.078,0l0,-22.554l0.912,0l0.221,3.925l0,0.774c0.636,-1.603 1.548,-2.874 2.792,-3.759c1.243,-0.884 2.763,-1.354 4.56,-1.354c0.332,0 0.608,0.027 0.885,0.083c0.276,0.055 0.497,0.11 0.691,0.166l-0.139,1.022Z" style="fill:#000;fill-rule:nonzero;"/><path d="M136.033,250.018l0.829,2.239l0.138,0l0.138,-0.332l7.795,-20.37l1.243,0l-10.033,26.285c-0.608,1.576 -1.327,2.875 -2.128,3.87c-0.802,0.995 -2.101,1.492 -3.897,1.492c-0.277,0 -0.553,-0.027 -0.885,-0.083c-0.331,-0.055 -0.553,-0.11 -0.718,-0.165l0.193,-1.051c0.166,0.056 0.387,0.083 0.691,0.138c0.304,0.056 0.553,0.056 0.719,0.056c1.271,0 2.266,-0.387 2.985,-1.133c0.718,-0.747 1.354,-1.852 1.907,-3.345l1.354,-3.676l-8.983,-22.416l1.217,0l7.435,18.491Z" style="fill:#000;fill-rule:nonzero;"/><path d="M5.325,302.202l0,-21.393l-3.925,0l0,-1.133l3.925,0l0,-3.704c0,-2.128 0.525,-3.759 1.548,-4.948c1.023,-1.161 2.487,-1.741 4.339,-1.741c0.47,0 0.912,0.028 1.355,0.083c0.442,0.055 0.884,0.138 1.299,0.276l-0.166,1.078c-0.442,-0.11 -0.829,-0.193 -1.189,-0.248c-0.331,-0.056 -0.774,-0.083 -1.299,-0.083c-1.492,0 -2.681,0.497 -3.51,1.492c-0.857,0.995 -1.271,2.35 -1.271,4.091l0,3.704l5.97,0l0,1.133l-5.97,0l0,21.393l-1.106,0Z" style="fill:#000;fill-rule:nonzero;"/><path d="M15.275,290.483c0,-3.317 0.912,-5.998 2.737,-8.099c1.824,-2.1 4.201,-3.151 7.103,-3.151c2.93,0 5.307,1.051 7.131,3.151c1.824,2.101 2.736,4.809 2.736,8.099l0,0.884c0,3.317 -0.912,6.025 -2.736,8.126c-1.824,2.101 -4.201,3.151 -7.103,3.151c-2.93,0 -5.307,-1.05 -7.159,-3.151c-1.824,-2.101 -2.736,-4.809 -2.736,-8.126l0,-0.884l0.027,0ZM16.409,291.367c0,2.847 0.801,5.224 2.377,7.186c1.575,1.963 3.703,2.958 6.384,2.958c2.626,0 4.754,-0.995 6.33,-2.958c1.575,-1.962 2.377,-4.367 2.377,-7.186l0,-0.884c0,-2.764 -0.802,-5.141 -2.405,-7.131c-1.603,-1.99 -3.704,-2.985 -6.357,-2.985c-2.653,0 -4.782,0.995 -6.357,2.985c-1.576,1.99 -2.377,4.367 -2.377,7.131l0,0.884l0.028,0Z" style="fill:#000;fill-rule:nonzero;"/><path d="M50.322,280.477l-1.465,-0.138c-2.017,0 -3.648,0.636 -4.919,1.935c-1.244,1.299 -2.073,3.012 -2.46,5.141l0,14.759l-1.134,0l0,-22.554l0.913,0l0.221,3.925l0,0.774c0.635,-1.603 1.547,-2.875 2.791,-3.759c1.244,-0.884 2.764,-1.354 4.561,-1.354c0.331,0 0.608,0.027 0.884,0.083c0.277,0.055 0.498,0.11 0.691,0.165l-0.083,1.023Z" style="fill:#000;fill-rule:nonzero;"/><path d="M67.1,273.567l0,6.081l5.527,0l0,1.133l-5.527,0l0,15.589c0,1.852 0.304,3.151 0.939,3.952c0.636,0.774 1.438,1.189 2.488,1.189c0.387,0 0.718,0 0.995,-0.055c0.304,-0.028 0.691,-0.083 1.216,-0.139l0.221,1.023c-0.359,0.111 -0.719,0.193 -1.078,0.221c-0.359,0.028 -0.801,0.055 -1.271,0.055c-1.52,0 -2.654,-0.497 -3.455,-1.492c-0.774,-0.995 -1.189,-2.571 -1.189,-4.782l0,-15.589l-4.173,0l0,-1.133l4.173,0l0,-6.08l1.134,0l0,0.027Z" style="fill:#000;fill-rule:nonzero;"/><path d="M79.095,284.402c0.691,-1.631 1.714,-2.902 3.068,-3.814c1.354,-0.912 2.985,-1.355 4.948,-1.355c2.349,0 4.118,0.747 5.334,2.239c1.216,1.493 1.824,3.814 1.824,7.021l0,13.709l-1.133,0l0,-13.737c0,-2.958 -0.553,-5.058 -1.631,-6.247c-1.078,-1.216 -2.543,-1.824 -4.367,-1.824c-2.432,0 -4.284,0.719 -5.583,2.184c-1.299,1.465 -2.101,3.316 -2.432,5.583l0,14.096l-1.161,0l0,-32.504l1.133,0l0,14.649Z" style="fill:#000;fill-rule:nonzero;"/><path d="M109.001,302.644c-2.57,0 -4.782,-1.05 -6.661,-3.123c-1.88,-2.073 -2.792,-4.644 -2.792,-7.739l0,-1.327c0,-3.234 0.912,-5.915 2.709,-8.043c1.797,-2.128 4.035,-3.179 6.689,-3.179c2.543,0 4.616,0.829 6.219,2.488c1.603,1.658 2.404,3.897 2.404,6.716l0,1.742l-16.887,0l0,1.603c0,2.708 0.801,5.03 2.404,6.91c1.603,1.879 3.566,2.819 5.943,2.819c1.686,0 3.095,-0.221 4.229,-0.691c1.133,-0.47 2.1,-1.133 2.902,-2.073l0.608,0.884c-0.885,0.995 -1.963,1.742 -3.234,2.239c-1.327,0.498 -2.819,0.774 -4.533,0.774ZM108.946,280.367c-2.239,0 -4.091,0.829 -5.583,2.459c-1.493,1.631 -2.322,3.676 -2.516,6.109l0.056,0.138l15.533,0l0,-0.691c0,-2.294 -0.691,-4.201 -2.073,-5.721c-1.409,-1.548 -3.206,-2.294 -5.417,-2.294Z" style="fill:#000;fill-rule:nonzero;"/><path d="M20.168,341.229l-14.843,0l-3.372,9.066l-1.216,0l11.332,-30.321l1.382,0l11.36,30.321l-1.216,0l-3.427,-9.066ZM5.767,340.096l14.014,0l-6.358,-17.082l-0.58,-1.713l-0.138,0l-0.553,1.713l-6.385,17.082Z" style="fill:#000;fill-rule:nonzero;"/><path d="M39.018,328.57l-1.465,-0.138c-2.018,0 -3.649,0.635 -4.92,1.935c-1.244,1.299 -2.073,3.012 -2.46,5.14l0,14.76l-1.133,0l0,-22.554l0.912,0l0.221,3.925l0,0.774c0.636,-1.603 1.548,-2.875 2.792,-3.759c1.243,-0.885 2.764,-1.354 4.56,-1.354c0.332,0 0.608,0.027 0.885,0.082c0.276,0.056 0.497,0.111 0.691,0.166l-0.083,1.023Z" style="fill:#000;fill-rule:nonzero;"/><path d="M45.928,321.66l0,6.081l5.528,0l0,1.133l-5.528,0l0,15.589c0,1.852 0.304,3.151 0.939,3.952c0.636,0.774 1.438,1.189 2.488,1.189c0.387,0 0.719,0 0.995,-0.056c0.276,-0.055 0.691,-0.083 1.216,-0.138l0.221,1.023c-0.359,0.11 -0.718,0.193 -1.078,0.221c-0.387,0.055 -0.801,0.055 -1.271,0.055c-1.52,0 -2.654,-0.497 -3.455,-1.492c-0.774,-0.995 -1.189,-2.571 -1.189,-4.782l0,-15.589l-4.173,0l0,-1.133l4.173,0l0,-6.081l1.134,0l0,0.028Z" style="fill:#000;fill-rule:nonzero;"/><path d="M70.61,344.767c0,-1.189 -0.498,-2.294 -1.52,-3.262c-1.023,-0.967 -2.792,-1.741 -5.335,-2.294c-2.681,-0.58 -4.616,-1.299 -5.832,-2.211c-1.188,-0.884 -1.796,-2.239 -1.796,-3.98c0,-1.603 0.691,-2.958 2.045,-4.063c1.354,-1.078 3.206,-1.631 5.5,-1.631c2.488,0 4.45,0.581 5.887,1.741c1.438,1.161 2.101,2.681 2.046,4.561l-0.056,0.138l-0.967,0c0,-1.465 -0.608,-2.736 -1.852,-3.759c-1.244,-1.022 -2.93,-1.548 -5.058,-1.548c-2.1,0 -3.704,0.443 -4.781,1.355c-1.078,0.912 -1.631,1.962 -1.631,3.151c0,1.188 0.47,2.183 1.382,3.012c0.912,0.83 2.736,1.576 5.445,2.184c2.515,0.58 4.422,1.382 5.721,2.377c1.299,0.995 1.935,2.405 1.935,4.229c0,1.769 -0.719,3.206 -2.156,4.284c-1.437,1.105 -3.372,1.658 -5.749,1.658c-2.626,0 -4.671,-0.58 -6.164,-1.769c-1.492,-1.161 -2.183,-2.598 -2.1,-4.284l0.055,-0.138l0.912,0c0.111,1.769 0.885,3.068 2.294,3.842c1.41,0.801 3.096,1.188 5.031,1.188c2.073,0 3.731,-0.497 4.947,-1.465c1.189,-0.912 1.797,-2.045 1.797,-3.316Z" style="fill:#000;fill-rule:nonzero;"/><path d="M146.36,201.009l0,-4.92l-142.261,0l0,4.92l142.261,0Z" style="fill:#000;"/></svg>