<svg id="top_master" data-name="top master" xmlns="http://www.w3.org/2000/svg" width="110" height="100" viewBox="0 0 110 100"><title>ARTS ICONS</title><path d="M31.57,39.55c-7.75,0-18.45,6.29-18.45,14s10.7,14,18.45,14S50,61.35,50,53.59,39.32,39.55,31.57,39.55Zm0,24.15A10.11,10.11,0,1,1,41.67,53.59,10.11,10.11,0,0,1,31.57,63.7Z"/><path d="M79,39.55c-7.75,0-18.45,6.29-18.45,14s10.7,14,18.45,14,18.45-6.29,18.45-14S86.72,39.55,79,39.55ZM79,63.7A10.11,10.11,0,1,1,89.07,53.59,10.11,10.11,0,0,1,79,63.7Z"/></svg>