<?xml version="1.0" encoding="utf-8"?>
<!-- Generator: Adobe Illustrator 16.0.0, SVG Export Plug-In . SVG Version: 6.00 Build 0)  -->
<!DOCTYPE svg PUBLIC "-//W3C//DTD SVG 1.1//EN" "http://www.w3.org/Graphics/SVG/1.1/DTD/svg11.dtd">
<svg version="1.1" id="Layer_1" xmlns="http://www.w3.org/2000/svg" xmlns:xlink="http://www.w3.org/1999/xlink" x="0px" y="0px"
	 width="107.499px" height="247.527px" viewBox="0 0 107.499 247.527" enable-background="new 0 0 107.499 247.527"
	 xml:space="preserve">
<line fill="none" stroke="#000000" stroke-width="0.5" stroke-linecap="round" stroke-linejoin="round" stroke-miterlimit="10" x1="56.973" y1="10.61" x2="94.457" y2="79.043"/>
<g>
	<defs>
		<rect id="SVGID_1_" width="107.499" height="247.527"/>
	</defs>
	<clipPath id="SVGID_2_">
		<use xlink:href="#SVGID_1_"  overflow="visible"/>
	</clipPath>
	
		<polygon clip-path="url(#SVGID_2_)" fill="none" stroke="#000000" stroke-width="0.5" stroke-linecap="round" stroke-linejoin="round" stroke-miterlimit="10" points="
		72.551,4.684 44.468,45.434 0.25,31.785 3.708,75.276 97.901,102.852 102.815,26.714 	"/>
	
		<line clip-path="url(#SVGID_2_)" fill="none" stroke="#000000" stroke-width="0.5" stroke-linecap="round" stroke-linejoin="round" stroke-miterlimit="10" x1="72.551" y1="4.684" x2="0.25" y2="31.785"/>
</g>
<polyline fill="none" stroke="#000000" stroke-width="0.5" stroke-linecap="round" stroke-linejoin="round" stroke-miterlimit="10" points="
	33.008,83.854 34.759,90.46 62.812,110.05 98.946,86.652 "/>
<g>
	<defs>
		<rect id="SVGID_3_" width="107.499" height="247.527"/>
	</defs>
	<clipPath id="SVGID_4_">
		<use xlink:href="#SVGID_3_"  overflow="visible"/>
	</clipPath>
	
		<polyline clip-path="url(#SVGID_4_)" fill="none" stroke="#000000" stroke-width="0.5" stroke-linecap="round" stroke-linejoin="round" stroke-miterlimit="10" points="
		51.08,58.401 3.708,75.277 22.725,0.25 51.08,58.401 102.815,26.715 88.384,67.845 69.467,77.237 	"/>
</g>
<line fill="none" stroke="#000000" stroke-width="0.5" stroke-linecap="round" stroke-linejoin="round" stroke-miterlimit="10" x1="62.812" y1="110.051" x2="75.655" y2="46.729"/>
<line fill="none" stroke="#000000" stroke-width="3.402" stroke-miterlimit="10" x1="73.653" y1="56.991" x2="66.457" y2="92.058"/>
<polygon fill="#231F20" points="45.454,46.864 20.376,21.216 22.808,18.837 47.077,43.657 "/>
<line fill="none" stroke="#000000" stroke-width="3.402" stroke-miterlimit="10" x1="64.479" y1="23.757" x2="97.064" y2="83.854"/>
<polygon fill="#231F20" points="45.49,46.777 43.423,43.78 61.566,17.455 64.367,19.386 "/>
<g>
	<defs>
		<rect id="SVGID_5_" width="107.499" height="247.527"/>
	</defs>
	<clipPath id="SVGID_6_">
		<use xlink:href="#SVGID_5_"  overflow="visible"/>
	</clipPath>
	
		<line clip-path="url(#SVGID_6_)" fill="none" stroke="#231F20" stroke-width="3.402" stroke-miterlimit="10" x1="6.692" y1="63.504" x2="18.844" y2="15.561"/>
</g>
<line fill="none" stroke="#000000" stroke-width="0.5" stroke-linecap="round" stroke-linejoin="round" stroke-miterlimit="10" x1="51.08" y1="58.401" x2="43.981" y2="96.656"/>
<g>
	<defs>
		<rect id="SVGID_7_" width="107.499" height="247.527"/>
	</defs>
	<clipPath id="SVGID_8_">
		<use xlink:href="#SVGID_7_"  overflow="visible"/>
	</clipPath>
	<g clip-path="url(#SVGID_8_)">
		<path d="M4.048,153.107l8.533,19.616l8.562-19.616h1.125v20.741h-0.77v-19.602l-8.604,19.602h-0.613l-8.562-19.502v19.502H2.952
			v-20.741H4.048z"/>
		<path d="M27.354,153.62c0-0.219,0.076-0.406,0.228-0.562c0.152-0.157,0.337-0.235,0.556-0.235c0.218,0,0.406,0.078,0.562,0.235
			c0.157,0.156,0.235,0.344,0.235,0.562s-0.079,0.403-0.235,0.556s-0.344,0.228-0.562,0.228c-0.219,0-0.404-0.075-0.556-0.228
			S27.354,153.838,27.354,153.62z M28.522,173.848h-0.77v-15.413h0.77V173.848z"/>
		<path d="M34.348,162.025c0.503-1.197,1.244-2.142,2.223-2.835c0.978-0.693,2.061-1.04,3.248-1.04c1.652,0,2.879,0.468,3.682,1.403
			c0.802,0.936,1.208,2.348,1.218,4.237v10.058h-0.77v-10.076c-0.009-1.65-0.347-2.872-1.011-3.665
			c-0.665-0.792-1.719-1.188-3.163-1.188c-1.33,0-2.481,0.472-3.455,1.416c-0.974,0.943-1.631,2.16-1.973,3.65v9.862h-0.769v-15.413
			h0.769V162.025z"/>
		<path d="M49.334,153.62c0-0.219,0.076-0.406,0.228-0.562c0.152-0.157,0.337-0.235,0.556-0.235c0.218,0,0.406,0.078,0.562,0.235
			c0.157,0.156,0.235,0.344,0.235,0.562s-0.079,0.403-0.235,0.556s-0.344,0.228-0.562,0.228c-0.219,0-0.404-0.075-0.556-0.228
			S49.334,153.838,49.334,153.62z M50.503,173.848h-0.77v-15.413h0.77V173.848z"/>
		<path d="M65.062,170.073c0-1.87-1.596-3.143-4.787-3.817c-1.918-0.408-3.253-0.933-4.003-1.574
			c-0.75-0.641-1.125-1.521-1.125-2.643c0-1.13,0.478-2.061,1.432-2.792s2.196-1.097,3.726-1.097c1.661,0,2.996,0.396,4.003,1.189
			c1.006,0.793,1.51,1.863,1.51,3.212h-0.783c0-1.035-0.438-1.899-1.311-2.593c-0.874-0.692-2.014-1.039-3.419-1.039
			c-1.349,0-2.417,0.294-3.206,0.883c-0.788,0.589-1.182,1.325-1.182,2.208c0,0.693,0.146,1.237,0.441,1.631
			c0.294,0.395,0.773,0.751,1.438,1.068c0.665,0.318,1.634,0.625,2.906,0.919c1.272,0.295,2.279,0.642,3.021,1.04
			c0.74,0.398,1.276,0.871,1.609,1.417c0.332,0.547,0.498,1.214,0.498,2.002c0,1.216-0.498,2.193-1.495,2.935
			c-0.997,0.74-2.304,1.111-3.918,1.111c-1.729,0-3.122-0.392-4.181-1.176c-1.06-0.783-1.589-1.792-1.589-3.027h0.77
			c0.076,1.083,0.554,1.926,1.432,2.529c0.879,0.603,2.068,0.904,3.568,0.904c1.377,0,2.495-0.32,3.355-0.962
			C64.632,171.761,65.062,170.985,65.062,170.073z"/>
		<path d="M71.8,154.275v4.16h3.505v0.769H71.8v10.951c0,1.094,0.178,1.902,0.534,2.425s0.952,0.784,1.788,0.784
			c0.418,0,0.926-0.043,1.524-0.128l0.128,0.727c-0.313,0.113-0.851,0.171-1.609,0.171c-1.121,0-1.924-0.312-2.408-0.935
			c-0.484-0.622-0.731-1.604-0.74-2.944v-11.051h-2.85v-0.769h2.85v-4.16H71.8z"/>
		<path d="M86.102,159.004l-0.997-0.085c-1.311,0-2.407,0.424-3.291,1.273c-0.883,0.849-1.462,2.037-1.737,3.564v10.091h-0.77
			v-15.413h0.77v3.205c0.418-1.073,1.044-1.924,1.88-2.55c0.836-0.627,1.886-0.94,3.148-0.94c0.446,0,0.808,0.053,1.083,0.159
			L86.102,159.004z"/>
		<path d="M94.014,172.652l0.101-0.285l5.327-13.932h0.854l-6.895,18.091l-0.342,0.855c-0.74,1.795-1.966,2.692-3.675,2.692
			c-0.552,0-0.932-0.054-1.14-0.16l-0.015-0.737c0.304,0.085,0.65,0.128,1.04,0.128c0.807,0,1.477-0.234,2.009-0.703
			c0.531-0.47,0.992-1.234,1.382-2.295l0.939-2.544l-6.14-15.327h0.841L94.014,172.652z"/>
	</g>
	<g clip-path="url(#SVGID_8_)">
		<path d="M3.721,206.728v-14.645H1.043v-0.769h2.678v-2.251c0.009-1.425,0.368-2.533,1.076-3.326s1.693-1.189,2.956-1.189
			c0.703,0,1.311,0.08,1.823,0.242l-0.114,0.74c-0.494-0.143-1.059-0.214-1.695-0.214c-1.016,0-1.816,0.33-2.4,0.99
			s-0.876,1.598-0.876,2.813v2.194h4.074v0.769H4.49v14.645H3.721z"/>
		<path d="M10.573,198.722c0-1.472,0.282-2.794,0.848-3.968c0.565-1.173,1.362-2.087,2.393-2.742
			c1.03-0.655,2.196-0.982,3.497-0.982c1.292,0,2.45,0.318,3.476,0.954c1.025,0.637,1.826,1.539,2.4,2.707
			c0.574,1.168,0.866,2.483,0.876,3.945v0.685c0,1.481-0.28,2.806-0.84,3.974c-0.561,1.169-1.356,2.08-2.386,2.735
			c-1.031,0.655-2.196,0.983-3.497,0.983c-1.301,0-2.467-0.323-3.498-0.969s-1.831-1.551-2.4-2.714s-0.859-2.472-0.869-3.925
			V198.722z M11.342,199.321c0,1.281,0.254,2.457,0.762,3.525c0.508,1.068,1.215,1.901,2.123,2.5
			c0.907,0.599,1.944,0.897,3.113,0.897c1.757,0,3.188-0.66,4.295-1.98c1.106-1.319,1.66-3.02,1.66-5.1v-0.441
			c0-1.263-0.257-2.431-0.77-3.505c-0.513-1.072-1.223-1.911-2.129-2.514c-0.907-0.604-1.936-0.904-3.084-0.904
			c-1.757,0-3.191,0.669-4.302,2.008c-1.111,1.34-1.667,3.025-1.667,5.058V199.321z"/>
		<path d="M34.59,191.884l-0.997-0.085c-1.311,0-2.407,0.424-3.291,1.273c-0.883,0.849-1.463,2.037-1.738,3.564v10.091h-0.769
			v-15.413h0.769v3.205c0.418-1.073,1.045-1.924,1.881-2.55c0.835-0.627,1.885-0.94,3.148-0.94c0.446,0,0.807,0.053,1.083,0.159
			L34.59,191.884z"/>
		<path d="M46.258,187.155v4.16h3.504v0.769h-3.504v10.951c0,1.094,0.178,1.902,0.534,2.425c0.356,0.522,0.952,0.784,1.788,0.784
			c0.417,0,0.926-0.043,1.524-0.128l0.128,0.727c-0.313,0.113-0.85,0.171-1.61,0.171c-1.121,0-1.923-0.312-2.407-0.935
			c-0.484-0.622-0.731-1.604-0.741-2.944v-11.051h-2.849v-0.769h2.849v-4.16H46.258z"/>
		<path d="M54.535,194.905c0.502-1.197,1.244-2.142,2.221-2.835c0.979-0.693,2.061-1.04,3.248-1.04c1.652,0,2.881,0.468,3.684,1.403
			s1.207,2.348,1.217,4.237v10.058h-0.768v-10.076c-0.01-1.65-0.348-2.872-1.012-3.665c-0.666-0.792-1.719-1.188-3.164-1.188
			c-1.328,0-2.48,0.472-3.453,1.416c-0.975,0.943-1.631,2.16-1.973,3.65v9.862h-0.77v-21.881h0.77V194.905z"/>
		<path d="M75.275,207.013c-1.244,0-2.386-0.335-3.426-1.005c-1.04-0.669-1.854-1.588-2.442-2.756
			c-0.59-1.168-0.884-2.465-0.884-3.89v-0.641c0-1.425,0.285-2.73,0.854-3.918c0.57-1.187,1.354-2.112,2.351-2.777
			s2.085-0.997,3.263-0.997c1.719,0,3.124,0.612,4.217,1.838c1.092,1.225,1.638,2.834,1.638,4.829v0.812H69.293v0.839
			c0,1.252,0.264,2.41,0.79,3.477c0.527,1.066,1.254,1.903,2.18,2.51c0.926,0.607,1.931,0.91,3.013,0.91
			c1.035,0,1.916-0.172,2.643-0.517c0.727-0.344,1.37-0.875,1.931-1.592l0.541,0.385C79.241,206.182,77.536,207.013,75.275,207.013z
			 M74.991,191.799c-1.501,0-2.773,0.558-3.818,1.674c-1.045,1.115-1.657,2.538-1.837,4.266h10.74v-0.185
			c0-1.045-0.221-2.016-0.662-2.913s-1.05-1.596-1.823-2.095C76.816,192.048,75.95,191.799,74.991,191.799z"/>
	</g>
	<g clip-path="url(#SVGID_8_)">
		<path d="M13.878,233.412H3.721l-2.308,6.196h-0.84l7.764-20.741h0.94l7.764,20.741H16.2L13.878,233.412z M4.006,232.642h9.587
			l-4.786-12.85L4.006,232.642z"/>
		<path d="M26.77,224.764l-0.997-0.085c-1.311,0-2.407,0.424-3.291,1.273c-0.883,0.849-1.463,2.037-1.738,3.564v10.091h-0.769
			v-15.413h0.769v3.205c0.418-1.073,1.045-1.924,1.881-2.55c0.835-0.627,1.885-0.94,3.148-0.94c0.446,0,0.807,0.053,1.083,0.159
			L26.77,224.764z"/>
		<path d="M31.69,220.035v4.16h3.504v0.769H31.69v10.951c0,1.094,0.178,1.902,0.534,2.425c0.356,0.522,0.952,0.784,1.788,0.784
			c0.417,0,0.926-0.043,1.524-0.128l0.128,0.727c-0.313,0.113-0.85,0.171-1.61,0.171c-1.121,0-1.923-0.312-2.407-0.935
			c-0.484-0.622-0.731-1.604-0.741-2.944v-11.051h-2.849v-0.769h2.849v-4.16H31.69z"/>
		<path d="M48.699,235.833c0-1.87-1.595-3.143-4.786-3.817c-1.918-0.408-3.253-0.933-4.003-1.574
			c-0.75-0.641-1.125-1.521-1.125-2.643c0-1.13,0.477-2.061,1.432-2.792s2.196-1.097,3.725-1.097c1.662,0,2.996,0.396,4.003,1.189
			s1.51,1.863,1.51,3.212H48.67c0-1.035-0.437-1.899-1.311-2.593c-0.874-0.692-2.014-1.039-3.419-1.039
			c-1.349,0-2.417,0.294-3.205,0.883c-0.789,0.589-1.183,1.325-1.183,2.208c0,0.693,0.147,1.237,0.442,1.631
			c0.294,0.395,0.774,0.751,1.438,1.068c0.665,0.318,1.633,0.625,2.906,0.919c1.272,0.295,2.279,0.642,3.02,1.04
			s1.277,0.871,1.61,1.417c0.332,0.547,0.499,1.214,0.499,2.002c0,1.216-0.499,2.193-1.496,2.935
			c-0.998,0.74-2.303,1.111-3.917,1.111c-1.729,0-3.123-0.392-4.181-1.176c-1.059-0.783-1.588-1.792-1.588-3.027h0.769
			c0.076,1.083,0.553,1.926,1.432,2.529c0.878,0.603,2.068,0.904,3.569,0.904c1.376,0,2.495-0.32,3.354-0.962
			C48.269,237.521,48.699,236.745,48.699,235.833z"/>
	</g>
</g>
<rect x="2.896" y="134.185" width="97.272" height="3.364"/>
</svg>
