<svg viewBox="0 0 116 131" preserveAspectRatio="xMidYMid meet" version="1.1" xmlns="http://www.w3.org/2000/svg" xmlns:xlink="http://www.w3.org/1999/xlink" xmlns:sketch="http://www.bohemiancoding.com/sketch/ns">
  <g id="sso" fill="#FFFFFF">
      <path d="M100.5,0 L15.2,0 C6.8,0 0,6.8 0,15.2 L0,100.4 C0,108.8 6.8,115.6 15.2,115.6 L64,115.6 C66.3,124.2 74.1,130.6 83.5,130.7 L88.8,130.7 L88.8,115.6 L100.5,115.6 C108.9,115.6 115.7,108.8 115.7,100.4 L115.7,15.2 C115.7,6.8 108.9,0 100.5,0 L100.5,0 Z M110.5,110.5 L88.9,110.5 L83.7,110.5 L83.7,125.6 C75.5,125.5 68.8,118.9 68.8,110.6 L68.8,110.5 L5.3,110.5 L5.3,5.3 L110.6,5.3 L110.6,110.5 L110.5,110.5 Z M26.3,43.2 C23.6,43.2 21.2,41.6 19.3,41.6 C17.6,41.6 16.5,42.9 16.5,44.6 C16.5,48.5 23.4,49.3 26.7,49.3 C32.5,49.3 37.4,45.6 37.4,39.6 C37.4,28.8 23.4,31.6 23.4,27.3 C23.4,25.5 25,24.6 26.8,24.6 C29.3,24.6 30.6,25.9 32.4,25.9 C34.1,25.9 35.2,24.4 35.2,22.8 C35.2,19.5 29.3,18.6 27,18.6 C21.4,18.6 16.6,22.2 16.6,28.1 C16.6,37.8 30.6,34.8 30.6,39.8 C30.6,41.7 29.1,43.2 26.3,43.2 L26.3,43.2 Z M40.5,24.7 L45.1,24.7 L45.1,45.7 C45.1,47.8 46.4,49 48.2,49 C50,49 51.3,47.8 51.3,45.7 L51.3,24.7 L55.9,24.7 C57.9,24.7 58.7,23.2 58.7,21.8 C58.7,20.3 57.7,18.9 55.9,18.9 L40.5,18.9 C38.7,18.9 37.7,20.3 37.7,21.8 C37.7,23.3 38.5,24.7 40.5,24.7 L40.5,24.7 Z M54.5,46.1 C54.5,47.8 55.9,49 57.6,49 C59.3,49 60.2,48.1 60.6,46.8 L61.9,42.9 L73.5,42.9 L74.8,46.8 C75.2,48.1 76.1,49 77.9,49 C79.4,49 80.8,47.9 80.8,46.2 C80.8,45.9 80.7,45.3 80.5,44.7 L72.3,21.9 C71.6,19.9 70,18.4 67.8,18.4 C65.7,18.4 64,19.9 63.3,21.9 L54.9,44.7 C54.7,44.9 54.5,45.4 54.5,46.1 L54.5,46.1 Z M67.6,25 L67.6,25 L71.6,37.1 L63.7,37.1 L67.6,25 L67.6,25 Z M85.8,34.8 L85.8,46 C85.8,47.5 86.7,49.1 88.9,49.1 C91.1,49.1 92,47.6 92,46 L92,34.8 L99.9,23.7 C100.3,23.2 100.5,22.5 100.5,21.8 C100.5,20.1 99.2,18.7 97.5,18.7 C96.4,18.7 95.5,19.2 94.9,20 L88.9,28.7 L82.9,20 C82.4,19.2 81.4,18.7 80.3,18.7 C78.5,18.7 77.3,20.1 77.3,21.8 C77.3,22.5 77.5,23.1 77.9,23.7 L85.8,34.8 L85.8,34.8 Z M23.9,72.6 C22.5,72.6 20.8,71.8 20.6,71.6 C20.4,71.4 19.9,71.1 19.7,71.1 C19.2,71.1 18.8,71.5 18.8,72.1 C18.8,73.2 21,74.5 24.3,74.5 C28.1,74.5 30.6,71.8 30.6,68.2 C30.6,61.8 21.2,63.6 21.2,59.2 C21.2,57.6 22.7,56.1 24.8,56.1 C26.9,56.1 27.6,57.5 28.6,57.5 C29,57.5 29.4,57.1 29.4,56.4 C29.4,55.5 27.1,54.2 24.9,54.2 C21.9,54.3 19.2,56.1 19.2,59.3 C19.2,65.3 28.6,63.5 28.6,68.3 C28.4,70.3 26.6,72.6 23.9,72.6 L23.9,72.6 Z M34.6,55.8 L32.2,71.7 C32.1,72.2 31.9,73.3 31.9,73.5 C31.9,74.3 32.4,74.4 32.8,74.4 C33.5,74.4 33.7,73.9 33.9,73.2 L36.4,56.4 L36.5,56.4 L41.6,73.3 C41.8,73.9 42,74.3 42.6,74.3 C43.2,74.3 43.5,74 43.8,73 L48.8,56.3 L48.9,56.3 L51.4,73.1 C51.5,73.8 51.7,74.3 52.5,74.3 C52.9,74.3 53.4,74.1 53.4,73.4 C53.4,73.1 53.2,72.1 53.1,71.6 L50.7,55.7 C50.5,54.4 49.6,54.1 48.7,54.1 C47.9,54.1 47.5,54.6 47.2,55.4 L42.7,70.8 L42.6,70.8 L38.2,55.4 C38,54.6 37.5,54.1 36.7,54.1 C35.7,54.2 34.8,54.5 34.6,55.8 L34.6,55.8 Z M70.7,72.8 L64.3,55.7 C64,55.1 63.7,54.3 62.7,54.3 C61.7,54.3 61.4,55.1 61.1,55.7 L54.7,72.8 C54.6,73.1 54.5,73.4 54.5,73.6 C54.5,74 54.8,74.4 55.4,74.4 C56.1,74.4 56.3,74 56.5,73.5 L57.8,69.9 L67.4,69.9 L68.7,73.5 C68.9,74 69.1,74.4 69.8,74.4 C70.4,74.4 70.7,74 70.7,73.6 C70.9,73.4 70.8,73.1 70.7,72.8 L70.7,72.8 Z M58.6,68.1 L62.7,56.9 L62.8,56.9 L66.9,68.1 L58.6,68.1 L58.6,68.1 Z M84.8,59.8 C84.8,57 82.7,54.4 78.8,54.4 L74.4,54.4 C73.5,54.4 73.1,54.8 73.1,55.5 L73.1,73.2 C73.1,74 73.5,74.5 74.1,74.5 C74.7,74.5 75.1,74.1 75.1,73.2 L75.1,65.5 L83,74 C83.3,74.3 83.6,74.4 83.9,74.4 C84.3,74.4 84.8,74.1 84.8,73.6 C84.8,73.2 84.7,73 84.4,72.7 L77.5,65.4 L79.3,65.4 C82.7,65.4 84.8,62.9 84.8,59.8 L84.8,59.8 Z M75.2,63.7 L75.2,56.2 L78.7,56.2 C81.4,56.2 82.8,57.5 82.8,60.1 C82.8,62.4 81.3,63.7 78.7,63.7 L75.2,63.7 L75.2,63.7 Z M90.7,73.1 C90.7,73.9 91.1,74.4 91.7,74.4 C92.3,74.4 92.7,74 92.7,73.1 L92.7,56.2 L96.5,56.2 C97.1,56.2 97.6,55.8 97.6,55.3 C97.6,54.8 97.2,54.4 96.5,54.4 L86.8,54.4 C86.2,54.4 85.7,54.8 85.7,55.3 C85.7,55.8 86.1,56.2 86.8,56.2 L90.6,56.2 L90.6,73.1 L90.7,73.1 Z M25.5,78.9 C20.2,78.9 16.6,83 16.6,88.4 C16.6,93.8 20.3,97.9 25.5,97.9 C30.8,97.9 34.4,93.7 34.4,88.4 C34.4,83.2 30.7,78.9 25.5,78.9 L25.5,78.9 Z M25.5,94.4 C22.2,94.4 20.6,91.6 20.6,88.4 C20.6,85.3 22.2,82.4 25.5,82.4 C28.7,82.4 30.4,85.2 30.4,88.4 C30.4,91.6 28.8,94.4 25.5,94.4 L25.5,94.4 Z M49.7,79.1 C48.6,79.1 47.8,79.8 47.8,81.1 L47.8,90.9 L47.7,90.9 L39.5,79.9 C39.2,79.4 38.4,79 37.9,79 C36.8,79 36,79.7 36,81 L36,95.7 C36,97 36.8,97.7 37.9,97.7 C39,97.7 39.8,97 39.8,95.7 L39.8,86 L39.9,86 L48,97 C48.4,97.5 49.1,97.9 49.6,97.9 C50.7,97.9 51.5,97.2 51.5,95.9 L51.5,81.1 C51.6,79.8 50.8,79.1 49.7,79.1 L49.7,79.1 Z M62.3,94.1 L57.7,94.1 L57.7,81.1 C57.7,79.8 56.9,79.1 55.8,79.1 C54.7,79.1 53.9,79.8 53.9,81.1 L53.9,95.5 C53.9,96.8 54.7,97.6 55.9,97.6 L62.4,97.6 C63.5,97.6 64.2,96.7 64.3,95.9 C64.2,95.1 63.6,94.1 62.3,94.1 L62.3,94.1 Z M66.8,79.1 C65.7,79.1 64.9,79.8 64.9,81.1 L64.9,95.8 C64.9,97.1 65.7,97.8 66.8,97.8 C67.9,97.8 68.7,97.1 68.7,95.8 L68.7,81.1 C68.7,79.8 67.9,79.1 66.8,79.1 L66.8,79.1 Z M84.7,79.1 C83.6,79.1 82.8,79.8 82.8,81.1 L82.8,90.9 L82.7,90.9 L74.5,79.9 C74.2,79.4 73.4,79 72.9,79 C71.8,79 71,79.7 71,81 L71,95.7 C71,97 71.8,97.7 72.9,97.7 C74,97.7 74.8,97 74.8,95.7 L74.8,86 L74.9,86 L83,97 C83.4,97.5 84.1,97.9 84.6,97.9 C85.7,97.9 86.5,97.2 86.5,95.9 L86.5,81.1 C86.6,79.8 85.8,79.1 84.7,79.1 L84.7,79.1 Z M97.5,94.1 L92.7,94.1 L92.7,90.2 L96.9,90.2 C98.1,90.2 98.8,89.3 98.8,88.4 C98.8,87.5 98.2,86.6 96.9,86.6 L92.7,86.6 L92.7,82.8 L97.3,82.8 C98.5,82.8 99.1,81.9 99.1,81 C99.1,80.1 98.5,79.2 97.3,79.2 L90.9,79.2 C89.5,79.2 88.9,80.2 88.9,81.5 L88.9,95.7 C88.9,96.9 89.8,97.6 90.9,97.6 L97.6,97.6 C98.8,97.6 99.4,96.7 99.4,95.8 C99.3,95 98.7,94.1 97.5,94.1 L97.5,94.1 Z" id="Shape" sketch:type="MSShapeGroup"></path>
  </g>
</svg>
