<?xml version="1.0" encoding="utf-8"?>
<!-- Generator: Adobe Illustrator 18.0.0, SVG Export Plug-In . SVG Version: 6.00 Build 0)  -->
<!DOCTYPE svg PUBLIC "-//W3C//DTD SVG 1.1//EN" "http://www.w3.org/Graphics/SVG/1.1/DTD/svg11.dtd">
<svg version="1.1" id="Calque_1" xmlns="http://www.w3.org/2000/svg" xmlns:xlink="http://www.w3.org/1999/xlink" x="0px" y="0px"
	 viewBox="460.5 709.4 133 133" enable-background="new 460.5 709.4 133 133" xml:space="preserve">
<path fill="#CC4C27" d="M527.1,709.4c-36.8,0-66.6,29.9-66.6,66.5s29.9,66.5,66.5,66.5c36.6,0,66.5-29.9,66.5-66.5
	C593.6,739.3,563.7,709.4,527.1,709.4z M527.1,836.2c-33.3,0-60.3-27.1-60.3-60.3c0-33.2,27-60.3,60.3-60.3
	c33.2,0,60.3,27,60.3,60.3S560.3,836.2,527.1,836.2z"/>
<path fill="#CC4C27" d="M572.3,777h-1.8c-0.6,0-1.1-0.6-1.1-1.1s0.6-1.1,1.1-1.1h1.8c0.6,0,1.1,0.6,1.1,1.1S572.9,777,572.3,777
	L572.3,777z"/>
<path fill="#CC4C27" d="M483.6,777h-1.8c-0.6,0-1.1-0.6-1.1-1.1s0.6-1.1,1.1-1.1h1.8c0.6,0,1.1,0.6,1.1,1.1S484.3,777,483.6,777
	L483.6,777z"/>
<path fill="#CC4C27" d="M484,791.1c-0.4,0-1-0.3-1.1-0.8c-0.1-0.5,0.1-1.2,0.7-1.4l1.8-0.6c0.6-0.1,1.2,0.1,1.4,0.7
	c0.1,0.6-0.1,1.2-0.7,1.4l-1.7,0.6C484.3,791.1,484.1,791.1,484,791.1L484,791.1z"/>
<path fill="#CC4C27" d="M490.5,803.6c-0.3,0-0.7-0.1-1-0.4c-0.4-0.6-0.3-1.2,0.3-1.5l1.5-1.1c0.6-0.4,1.2-0.3,1.5,0.3
	c0.4,0.6,0.3,1.2-0.3,1.5l-1.5,1.1C490.9,803.6,490.6,803.6,490.5,803.6L490.5,803.6z"/>
<path fill="#CC4C27" d="M552.6,741.9c-0.3,0-0.4,0-0.7-0.3c-0.6-0.4-0.6-1.1-0.3-1.5l1.1-1.5c0.4-0.6,1.1-0.6,1.5-0.3
	c0.6,0.4,0.6,1.1,0.3,1.5l-1.1,1.5C553.3,741.8,552.8,741.9,552.6,741.9L552.6,741.9z"/>
<path fill="#CC4C27" d="M501.5,741.9c-0.3,0-0.7-0.1-1-0.4l-1-1.5c-0.4-0.6-0.3-1.2,0.3-1.5c0.6-0.4,1.2-0.3,1.5,0.3l1.1,1.5
	c0.4,0.6,0.3,1.2-0.3,1.5C502,741.9,501.8,741.9,501.5,741.9L501.5,741.9z"/>
<path fill="#CC4C27" d="M563.6,803.6c-0.3,0-0.4,0-0.7-0.3l-1.5-1.1c-0.6-0.4-0.6-1.1-0.3-1.5c0.4-0.6,1.1-0.6,1.5-0.3l1.5,1.1
	c0.6,0.4,0.6,1.1,0.3,1.5C564.3,803.5,564,803.6,563.6,803.6L563.6,803.6z"/>
<path fill="#CC4C27" d="M570,791.1c-0.1,0-0.3,0-0.3,0l-1.8-0.6c-0.6-0.1-1-0.8-0.7-1.4c0.1-0.6,0.8-1,1.4-0.7l1.8,0.6
	c0.6,0.1,1,0.8,0.7,1.4C571,790.7,570.5,791.1,570,791.1L570,791.1z"/>
<path fill="#CC4C27" d="M568.3,763.7c-0.4,0-1-0.3-1.1-0.8c-0.1-0.5,0.1-1.2,0.7-1.4l1.8-0.6c0.6-0.1,1.2,0.1,1.4,0.7
	c0.1,0.6-0.1,1.2-0.7,1.4l-1.7,0.6C568.5,763.7,568.4,763.7,568.3,763.7L568.3,763.7z"/>
<path fill="#CC4C27" d="M562.2,751.6c-0.4,0-0.7-0.1-1-0.4c-0.4-0.6-0.3-1.2,0.3-1.5l1.5-1.1c0.6-0.4,1.2-0.3,1.5,0.3
	c0.4,0.6,0.3,1.2-0.3,1.5l-1.5,1.1C562.6,751.4,562.3,751.6,562.2,751.6L562.2,751.6z"/>
<path fill="#CC4C27" d="M540.4,735.7c-0.1,0-0.3,0-0.3,0c-0.6-0.1-1-0.8-0.7-1.4l0.6-1.8c0.1-0.6,0.8-1,1.4-0.7
	c0.6,0.3,1,0.8,0.7,1.4l-0.6,1.8C541.4,735.5,540.9,735.7,540.4,735.7L540.4,735.7z"/>
<path fill="#CC4C27" d="M527.1,733.7c-0.6,0-1.1-0.6-1.1-1.1v-1.8c0-0.6,0.6-1.1,1.1-1.1s1.1,0.6,1.1,1.1v1.8
	C528.2,733.1,527.6,733.7,527.1,733.7L527.1,733.7z"/>
<path fill="#CC4C27" d="M513.6,735.7c-0.4,0-1-0.3-1.1-0.8l-0.6-1.8c-0.1-0.6,0.1-1.2,0.7-1.4c0.6-0.1,1.2,0.1,1.4,0.7l0.6,1.8
	c0.1,0.6-0.1,1.2-0.7,1.4C513.9,735.7,513.7,735.7,513.6,735.7L513.6,735.7z"/>
<path fill="#CC4C27" d="M492,751.6c-0.3,0-0.4-0.1-0.7-0.3l-1.5-1.1c-0.6-0.4-0.6-1.1-0.3-1.5c0.4-0.6,1.1-0.6,1.5-0.3l1.5,1.1
	c0.6,0.4,0.6,1.1,0.3,1.5C492.7,751.4,492.3,751.6,492,751.6L492,751.6z"/>
<path fill="#CC4C27" d="M485.8,763.7c-0.1,0-0.3,0-0.3,0l-1.8-0.6c-0.6-0.1-1-0.8-0.7-1.4c0.3-0.6,0.8-1,1.4-0.7l1.8,0.6
	c0.6,0.1,1,0.8,0.7,1.4C486.6,763.4,486.2,763.7,485.8,763.7L485.8,763.7z"/>
<circle fill="#CC4C27" cx="506.2" cy="798.1" r="1.8"/>
<circle fill="none" stroke="#CC4C27" stroke-width="1.5" stroke-miterlimit="10" cx="527.1" cy="775.9" r="52.9"/>
<path fill="none" stroke="#CC4C27" stroke-width="1.5" stroke-linecap="round" stroke-miterlimit="10" d="M560.5,790.4
	c-1.1,2.6-2.6,5.1-4.3,7.4"/>
<path fill="none" stroke="#CC4C27" stroke-width="1.5" stroke-linecap="round" stroke-miterlimit="10" d="M561.5,788.1
	c-0.3,0.8-0.6,1.7-1,2.5"/>
<path fill="none" stroke="#CC4C27" stroke-width="1.5" stroke-linecap="round" stroke-miterlimit="10" d="M497.9,798.1
	c-4.7-6.2-7.4-13.8-7.4-22.2c0-20.2,16.4-36.6,36.6-36.6c20.2,0,36.6,16.4,36.6,36.6c0,0.4,0,0.7,0,1.1"/>
<path fill="#CC4C27" d="M521.9,778.8c0.8,1.5,2.2,2.6,3.9,2.9c1.9,0.4,3.9-0.3,5.1-1.8l39.8,5.1h0.3l0,0c0.3-0.1,0.4-0.3,0.4-0.6
	s0-0.6-0.3-0.7l0,0l-39.2-9.5c-0.7-1.8-2.2-3.2-4.1-3.4c-1.7-0.3-3.4,0.1-4.7,1.4l-12.8-3.2l-0.1,0.1c0,0-1.5,1.2-1.9,3.9
	c-0.6,2.6,0.4,4.1,0.6,4.1v0.1L521.9,778.8z M524.6,773.3c1.7-1.1,3.9-0.8,5,0.8c1.1,1.7,0.8,3.9-0.8,5c-1.6,1.1-3.9,0.8-5-0.8
	C522.7,776.8,523,774.6,524.6,773.3z"/>
</svg>
