<svg xmlns="http://www.w3.org/2000/svg" width="35" height="35" viewBox="0 0 35 35" preserveAspectRatio="xMidYMid meet">
  <path fill="#3B5897" d="M17.5 0C27.2 0 35 7.8 35 17.5S27.2 35 17.5 35 0 27.2 0 17.5 7.8 0 17.5 0z"/>
  <path fill="#FFF" d="M24.2 23.6c0 .2-.1.3-.2.5s-.2.2-.5.2h-1.4c-.2 0-.3-.1-.4-.2-.2-.1-.2-.2-.2-.4-.1-1.4-.4-2.7-1-3.9-.6-1.3-1.3-2.3-2.2-3.3-.9-.9-2-1.7-3.3-2.2s-2.5-.9-3.9-1c-.2 0-.3-.1-.4-.2-.2-.2-.2-.3-.2-.5v-1.3c0-.2.1-.3.2-.5.2-.1.3-.2.5-.2 1.7.1 3.3.5 4.8 1.1 1.5.7 2.9 1.6 4 2.8 1.2 1.2 2.1 2.5 2.9 4.1.9 1.8 1.3 3.3 1.3 5zm-4.9 0c0 .2-.1.3-.2.5-.1.1-.2.2-.5.2h-1.3c-.2 0-.3-.1-.4-.2-.1-.1-.2-.2-.2-.4-.2-1.4-.7-2.7-1.7-3.7s-2.3-1.6-3.7-1.7c-.2 0-.3-.1-.4-.2-.2-.2-.2-.3-.2-.5v-1.3c0-.2.1-.3.2-.5.1-.1.2-.2.4-.2h.1c1 .1 2 .3 2.9.8 1 .4 1.7 1 2.5 1.7s1.3 1.6 1.7 2.5c.5 1 .7 2 .8 3zm-5.4-2.5c.3.4.6.8.6 1.3s-.2 1-.6 1.3c-.4.3-.8.6-1.3.6s-1-.2-1.3-.6c-.4-.4-.6-.8-.6-1.3s.2-1 .6-1.3c.3-.4.8-.6 1.3-.6.5.1.9.3 1.3.6z"/>
</svg>
