<svg id="top_master" data-name="top master" xmlns="http://www.w3.org/2000/svg" width="110" height="100" viewBox="0 0 110 100"><title>ARTS ICONS</title><path d="M45.83,67.51A17.25,17.25,0,1,0,28.58,50.26,17.27,17.27,0,0,0,45.83,67.51Zm0-32.5A15.25,15.25,0,1,1,30.58,50.26,15.27,15.27,0,0,1,45.83,35Z"/><path d="M45.83,58.07A7.81,7.81,0,1,0,38,50.26,7.82,7.82,0,0,0,45.83,58.07Zm0-13.62A5.81,5.81,0,1,1,40,50.26,5.82,5.82,0,0,1,45.83,44.45Z"/><path d="M53.82,78.43a1,1,0,0,0-1-1H24.92L8.54,61.06a1,1,0,1,0-1.41,1.41L23.8,79.14a1,1,0,0,0,.71.29H52.82A1,1,0,0,0,53.82,78.43Z"/><path d="M103,66.06a1,1,0,0,0-1.38-.31l-33.42,21h-28a1,1,0,1,0,0,2H68.5a1,1,0,0,0,.53-.15L102.7,67.44A1,1,0,0,0,103,66.06Z"/></svg>