<svg id="ICONS_-_HOVER" data-name="ICONS - HOVER" xmlns="http://www.w3.org/2000/svg" xmlns:xlink="http://www.w3.org/1999/xlink" width="110" height="100" viewBox="0 0 110 100"><defs><style>.cls-1{fill:url(#ARTS_GRADIENT_hover);}</style><linearGradient id="ARTS_GRADIENT_hover" x1="33.63" y1="95.31" x2="80.13" y2="14.78" gradientUnits="userSpaceOnUse"><stop offset="0" stop-color="#5265ff"/><stop offset="0.04" stop-color="#516fff"/><stop offset="0.27" stop-color="#4b9cfd"/><stop offset="0.48" stop-color="#46c0fc"/><stop offset="0.68" stop-color="#43dafb"/><stop offset="0.86" stop-color="#41eafa"/><stop offset="1" stop-color="#40effa"/></linearGradient></defs><title>ARTS ICONS</title><path class="cls-1" d="M96,24.72l-50.13,0a4.35,4.35,0,0,0-4.6,4V47.25H10.92a2.67,2.67,0,0,0-2.54,2.83V79.32a2.31,2.31,0,0,0,2.54,2.39H59.49A2.73,2.73,0,0,0,62.22,79v-6.7l33.74,0a4.35,4.35,0,0,0,4.6-4V28.74A4.35,4.35,0,0,0,96,24.72Zm2.81,43.51A2.57,2.57,0,0,1,96,70.45l-33.74,0V50a2.73,2.73,0,0,0-2.72-2.74H43V28.78a2.57,2.57,0,0,1,2.81-2.22l50.13,0a2.57,2.57,0,0,1,2.81,2.22Z"/></svg>