<svg xmlns="http://www.w3.org/2000/svg" version="1.1" x="0" y="0" viewBox="0 0 2048 2048" enable-background="new 0 0 2048 2048" xml:space="preserve"><path fill="#00478C" d="M1792 1472v128c0 17.3-6.3 32.3-19 45s-27.7 19-45 19H320c-17.3 0-32.3-6.3-45-19s-19-27.7-19-45v-128c0-17.3 6.3-32.3 19-45s27.7-19 45-19h1408c17.3 0 32.3 6.3 45 19S1792 1454.7 1792 1472zM1792 960v128c0 17.3-6.3 32.3-19 45s-27.7 19-45 19H320c-17.3 0-32.3-6.3-45-19s-19-27.7-19-45V960c0-17.3 6.3-32.3 19-45 12.7-12.7 27.7-19 45-19h1408c17.3 0 32.3 6.3 45 19C1785.7 927.7 1792 942.7 1792 960zM1792 448v128c0 17.3-6.3 32.3-19 45 -12.7 12.7-27.7 19-45 19H320c-17.3 0-32.3-6.3-45-19 -12.7-12.7-19-27.7-19-45V448c0-17.3 6.3-32.3 19-45s27.7-19 45-19h1408c17.3 0 32.3 6.3 45 19S1792 430.7 1792 448z"/></svg>