<?xml version="1.0" encoding="utf-8"?>
<!-- Generator: Adobe Illustrator 16.0.0, SVG Export Plug-In . SVG Version: 6.00 Build 0)  -->
<!DOCTYPE svg PUBLIC "-//W3C//DTD SVG 1.1//EN" "http://www.w3.org/Graphics/SVG/1.1/DTD/svg11.dtd">
<svg version="1.1" id="Layer_1" xmlns="http://www.w3.org/2000/svg" xmlns:xlink="http://www.w3.org/1999/xlink" x="0px" y="0px"
	 width="15px" height="15px" viewBox="0 0 15 15" enable-background="new 0 0 15 15" xml:space="preserve">
<path fill="#00478c" d="M14.246,11.203c0,0.148-0.053,0.275-0.158,0.381l-1.39,1.381c-0.106,0.106-0.231,0.16-0.377,0.16
	s-0.271-0.054-0.376-0.16L7.5,8.521l-4.445,4.444c-0.106,0.106-0.231,0.16-0.376,0.16s-0.271-0.054-0.377-0.16l-1.389-1.381
	c-0.106-0.105-0.159-0.232-0.159-0.381c0-0.147,0.053-0.274,0.159-0.381L7.124,4.62C7.229,4.514,7.355,4.461,7.5,4.461
	S7.771,4.514,7.876,4.62l6.211,6.202C14.193,10.929,14.246,11.056,14.246,11.203z"/>
</svg>
