<svg xmlns="http://www.w3.org/2000/svg" version="1.1" x="0" y="0" viewBox="0 0 56.7 56.7" enable-background="new 0 0 56.7 56.7" xml:space="preserve"><path fill="#FFFFFF" d="M28.2 1C13.2 1 1 13.2 1 28.2c0 15 12.2 27.2 27.2 27.2s27.2-12.2 27.2-27.2C55.5 13.2 43.3 1 28.2 1zM49.1 35.7c-1.6 2.4-3.7 4.6-6.2 6.6 -0.2-0.5-0.4-0.9-0.7-1.4 -0.4-0.9-0.9-1.8-1.4-2.7 0 0 0 0 0 0 -0.7-1.2-1.4-2.5-2.2-3.8 0 0 0 0 0 0 -0.1-0.2-0.3-0.5-0.4-0.7 0.3-0.2 0.6-0.5 0.9-0.7 2.4-2 4.3-4.3 5.7-6.9 0.8 0.8 1.6 1.5 2.3 2.3l0 0c1.5 1.7 2.7 3.4 3.4 5.1C50 34.2 49.6 35 49.1 35.7zM15.6 9c0.9 0.5 1.9 1.3 3.1 2.3l0 0 0 0c0.5 0.5 1.1 1 1.6 1.5 -1.6-0.3-3.2-0.4-4.7-0.5 0 0 0 0 0 0s0 0 0 0c-0.8 0-1.5 0-2.2 0.1l0 0h0c-0.4 0-0.8 0.1-1.2 0.1 0.3-0.5 0.6-0.9 0.9-1.3l0 0C13.9 10.5 14.7 9.7 15.6 9zM34.9 8.2C34.9 8.2 34.9 8.2 34.9 8.2 36 8 37.1 7.9 38.2 7.9c0 0 0 0 0 0 1.5 0 2.8 0.2 4.1 0.6 0.6 0.7 1.2 1.4 1.7 2.2 0 0 0 0 0 0 0.9 1.4 1.5 2.9 1.8 4.6 -1.7-0.8-3.6-1.5-5.6-2h0c-1.4-0.4-2.9-0.6-4.5-0.8 -0.2-1.5-0.8-2.8-1.8-4C34.2 8.4 34.6 8.3 34.9 8.2zM27.5 19.1c-1.4-1.6-2.7-3.2-4-4.5 1.7 0.4 3.5 1 5.2 1.7 1.6 0.6 3.2 1.4 4.8 2.2 -0.7 1.3-1.8 2.6-3.1 3.7 -0.1 0.1-0.2 0.2-0.3 0.3C29.3 21.2 28.4 20.2 27.5 19.1zM34 17.5c-1.6-0.8-3.3-1.6-4.9-2.2 -1.6-0.6-3.2-1.1-4.8-1.6 1.2-0.2 2.4-0.4 3.6-0.5l0 0c2.3-0.2 4.6-0.2 6.9 0C34.9 14.7 34.6 16.1 34 17.5zM29.9 23.7c0.3 0.4 0.7 0.9 1 1.3 0 0 0 0 0 0 2.1 2.8 4.1 5.7 5.9 8.4 -1.1 0.8-2.2 1.5-3.3 2.1 0 0 0 0 0 0 -1.3 0.7-2.7 1.2-4 1.7 -0.7 0.2-1.4 0.4-2.1 0.6 -0.5-1.8-1-3.6-1.5-5.5 -0.5-2-1-4-1.4-6C26.4 25.7 28.3 24.9 29.9 23.7zM31.7 24.4L31.7 24.4c-0.3-0.4-0.7-0.9-1-1.3 0.1-0.1 0.2-0.2 0.3-0.3 1.4-1.2 2.5-2.5 3.3-4 2 1 3.9 2.2 5.7 3.5 0 0 0 0 0 0 1.4 1 2.7 2 3.9 3.1 -1.3 2.5-3.2 4.8-5.6 6.8 -0.3 0.2-0.5 0.4-0.8 0.6C35.9 30.1 33.8 27.2 31.7 24.4zM40.7 21.5C40.7 21.5 40.7 21.5 40.7 21.5c-1.8-1.3-3.8-2.5-5.8-3.5 0.7-1.5 1-3 0.9-4.6 1.4 0.2 2.8 0.4 4.1 0.7 0 0 0 0 0 0 2.2 0.6 4.2 1.3 6 2.3 0.1 1.4 0 2.8-0.2 4.2 -0.3 1.3-0.7 2.5-1.3 3.8C43.3 23.5 42 22.5 40.7 21.5zM32.8 8.7c0.9 1 1.6 2.3 1.8 3.6 -2.2-0.2-4.5-0.2-6.8 0l0 0 0 0c-1.2 0.1-2.5 0.3-3.7 0.5 1-0.7 2-1.3 3.1-1.8 0 0 0 0 0 0C29.1 10 31 9.2 32.8 8.7zM26.8 10.1C26.8 10.1 26.8 10.1 26.8 10.1c-1.1 0.6-2.3 1.3-3.4 2 0.6-1.1 1.3-2.1 1.9-3v0l0 0c0.3-0.4 0.6-0.8 0.9-1.1 0.6-0.7 1.3-1.4 1.9-1.9 1.5 0.4 2.8 1 3.9 1.9C30.3 8.4 28.5 9.1 26.8 10.1zM26.7 19.8c0.9 1 1.7 2.1 2.6 3.2 -1.5 1-3.2 1.8-5 2.3 -0.3-1.4-0.6-2.8-0.8-4.1 -0.4-2.1-0.7-4.1-0.9-6C23.9 16.5 25.3 18.1 26.7 19.8zM23.3 25.5c-0.8 0.2-1.6 0.3-2.3 0.3 -0.9 0-1.8 0-2.7-0.2 0.1-0.3 0.1-0.6 0.2-0.9 0.2-0.7 0.4-1.4 0.5-2 0 0 0 0 0 0 0.7-2.5 1.6-4.9 2.6-7.1 0.2 1.8 0.5 3.7 0.9 5.8C22.8 22.6 23 24 23.3 25.5zM18.1 22.3C18.1 22.3 18.1 22.3 18.1 22.3c-0.2 0.7-0.4 1.4-0.6 2.1 -0.1 0.3-0.1 0.6-0.2 1 -0.2 0-0.3-0.1-0.5-0.1h0c-1.4-0.4-2.6-1.1-3.5-2 1-1.5 2.2-2.9 3.4-4.2l0 0 0 0c1.2-1.3 2.5-2.5 3.9-3.6C19.6 17.6 18.8 19.9 18.1 22.3zM16 18.4L16 18.4c-1.2 1.3-2.4 2.7-3.4 4.2 -0.9-1.1-1.5-2.3-1.7-3.7 1.3-0.9 2.7-1.7 4.2-2.3 0 0 0 0 0 0 1.5-0.7 3-1.2 4.6-1.7C18.4 15.9 17.1 17.1 16 18.4zM13.6 13.5C13.6 13.5 13.6 13.5 13.6 13.5c0.7 0 1.4-0.1 2.1 0 1.2 0 2.6 0.2 3.9 0.4 -1.7 0.5-3.4 1.1-4.9 1.8h0c-1.4 0.6-2.7 1.3-3.9 2.1 0-0.1 0-0.2 0-0.3 0.1-1.2 0.4-2.4 0.9-3.7C12.3 13.6 12.9 13.5 13.6 13.5zM12 23.4c-1.2 1.8-2.2 3.6-3.1 5.5 -0.6 1.4-1.1 2.8-1.5 4.2 -1.3-1.5-2.3-3.3-2.8-5.2 -0.2-0.6-0.3-1.2-0.3-1.8 0.4-0.9 0.9-1.8 1.6-2.7 0.5-0.6 1-1.3 1.6-1.9 0 0 0 0 0 0 0.7-0.7 1.5-1.4 2.4-2C10.3 20.9 11 22.3 12 23.4zM9.8 29.3c0.8-1.7 1.8-3.5 2.9-5.2 1.1 0.9 2.3 1.7 3.8 2.1 0 0 0 0 0 0 0.2 0.1 0.4 0.1 0.5 0.1 -0.6 3-1 5.9-1.2 8.8 -0.1 0.9-0.1 1.9-0.1 2.8 -1.8-0.5-3.5-1.1-5-2 0 0 0 0 0 0 -0.9-0.6-1.8-1.3-2.6-2C8.6 32.4 9.1 30.8 9.8 29.3zM16.9 35.2c0.2-2.8 0.6-5.7 1.2-8.7 0.8 0.1 1.6 0.2 2.4 0.2 0.2 0 0.4 0 0.5 0 0 0 0 0 0 0 0 0 0 0 0 0 0.8 0 1.7-0.1 2.5-0.3 0.4 2 0.9 4.1 1.4 6.1 0.5 1.9 1 3.7 1.5 5.5 -1.2 0.3-2.4 0.4-3.6 0.5l0 0c-2.1 0.1-4.1 0-5.9-0.4C16.8 37.2 16.8 36.2 16.9 35.2zM21.1 39.6c0.6 0 1.1 0 1.7-0.1 0 0 0 0 0 0 1.3-0.1 2.6-0.3 3.8-0.5 0.2 0.8 0.5 1.7 0.8 2.5v0c0.3 1 0.7 2.1 1 3 0 0 0 0 0 0 0.3 0.8 0.6 1.6 0.9 2.3 0.2 0.5 0.4 1 0.6 1.5 -2.7 0.6-5.3 0.8-7.9 0.6 -1.2-0.1-2.3-0.2-3.4-0.5 -0.6-1.4-1.1-3.1-1.3-5.1 -0.2-1.3-0.3-2.7-0.4-4.1C18.2 39.4 19.7 39.6 21.1 39.6zM29.4 44.2C29.4 44.2 29.4 44.2 29.4 44.2c-0.3-1-0.7-2-1-3v0l0 0c-0.2-0.8-0.5-1.6-0.7-2.4 0.7-0.2 1.4-0.4 2.1-0.6 1.4-0.5 2.8-1.1 4.2-1.8 0 0 0 0 0 0 1.2-0.6 2.3-1.3 3.4-2.1 0.1 0.2 0.3 0.4 0.4 0.6 0 0 0 0 0 0 0.8 1.3 1.5 2.5 2.2 3.7 0 0 0 0 0 0 0.5 0.9 1 1.8 1.4 2.7 0.3 0.5 0.5 1.1 0.7 1.6 -0.4 0.3-0.9 0.6-1.3 0.9 -3.1 2-6.4 3.4-9.9 4.3 -0.2-0.5-0.4-1.1-0.7-1.6C29.9 45.7 29.7 45 29.4 44.2zM51 32.3c-0.8-1.5-1.8-3-3.2-4.6 0 0 0 0 0 0 -0.7-0.8-1.6-1.7-2.5-2.5 0.7-1.4 1.2-2.8 1.5-4.3 0.3-1.3 0.4-2.6 0.3-3.8 0.8 0.5 1.6 1 2.3 1.6 1.5 1.3 2.6 2.7 3.3 4.3 0.2 2 0.1 4-0.5 6.1C51.8 30.1 51.4 31.2 51 32.3zM48.8 13.9c0.4 0.5 0.9 1.3 1.2 1.8 0.4 0.6 1 1.8 1.4 2.8 0 0 0 0.1 0 0.1l0 0 0.1 0.1c0 0 0 0 0 0 0 0 0 0 0 0 0.2 0.4 0.3 0.9 0.5 1.3 -0.6-0.8-1.3-1.5-2.1-2.2 -0.9-0.8-1.9-1.5-3-2.1 -0.3-2.1-0.9-4-2-5.7 0 0 0 0 0 0 -0.2-0.3-0.3-0.5-0.5-0.7 0.8 0.5 1.5 1 2.1 1.6 0 0 0 0 0.1 0l0 0 0.1 0.1 0 0c0 0 0 0 0 0C47.3 12.1 48.2 13.1 48.8 13.9zM33.6 4C33.6 4 33.6 4 33.6 4 33.6 4 33.6 4 33.6 4 33.6 4 33.6 4 33.6 4 33.6 4 33.6 4 33.6 4L33.6 4C33.6 4 33.7 4 33.6 4 33.7 4 33.7 4 33.6 4 33.7 4 33.7 4 33.6 4c0.1 0 0.1 0 0.2 0 0 0 0 0 0 0v0c0 0 0 0 0 0 0 0 0 0 0 0 0.2 0 0.3 0.1 0.5 0.1 0 0 0 0 0.1 0 0 0 0 0 0.1 0l0 0 0.1 0c0 0 0 0 0 0s0 0 0 0c2.4 0.6 4.5 1.6 6.2 2.9 -0.8-0.1-1.6-0.2-2.5-0.2 0 0 0 0 0 0s0 0 0 0c0 0 0 0 0 0 -1.1 0-2.2 0.1-3.4 0.3h0c-0.5 0.1-1.1 0.2-1.6 0.4 -0.1-0.1-0.2-0.2-0.3-0.3l0 0c0 0 0 0 0 0 -1.1-0.9-2.3-1.6-3.8-2C30.6 4.2 32.2 3.7 33.6 4zM21.8 4.6c0.1 0 0.3-0.1 0.4-0.1 0 0 0 0 0 0 0.3-0.1 0.7-0.2 1-0.3h0c2.3-0.5 4.5-0.7 6.7-0.6 -0.7 0.3-1.5 0.8-2.2 1.4 -1.1-0.2-2.2-0.3-3.3-0.3 -0.9 0-1.8 0.2-2.8 0.4C21.8 4.9 21.8 4.7 21.8 4.6zM21.6 6.1c0.1 0 0.1 0 0.2-0.1 0 0 0 0 0 0 0.9-0.2 1.8-0.3 2.7-0.4 0.8 0 1.6 0 2.3 0.1 -0.5 0.5-1 0.9-1.4 1.5 -0.3 0.4-0.6 0.8-0.9 1.2 0 0 0 0 0 0 -0.8 1.1-1.6 2.3-2.4 3.7C21.9 10.4 21.5 8 21.6 6.1zM19.4 10.6L19.4 10.6c-1.1-0.9-2-1.7-2.9-2.2 1.3-0.9 2.7-1.5 4.1-2 -0.1 2 0.3 4.3 0.5 5.8C20.5 11.7 19.9 11.1 19.4 10.6zM20.7 4.9c0 0.1 0 0.3-0.1 0.4 -1.9 0.5-3.6 1.4-5.2 2.5 -0.2-0.1-0.3-0.2-0.5-0.2C16.8 6.5 18.7 5.6 20.7 4.9zM13 9C13 9 13 9 13 9L13 9c0.3-0.2 0.6-0.4 0.9-0.6 0.2 0 0.4 0.1 0.7 0.2 -0.8 0.6-1.5 1.3-2.1 2.1l0 0 0 0c-0.6 0.7-1 1.4-1.4 2.2 -1.2 0.3-2.2 0.6-3.1 1.1C9.4 12.1 11 10.4 13 9zM5.7 17.8L5.7 17.8c0.1-0.3 0.2-0.5 0.4-0.8 0.8-1.4 2.4-2.4 4.5-3 -0.4 1.1-0.7 2.2-0.7 3.3 0 0 0 0 0 0l0 0c0 0.3 0 0.7 0 1 -1.1 0.8-2.1 1.6-3 2.4 0 0 0 0 0 0 -0.6 0.6-1.2 1.3-1.7 2 -0.3 0.4-0.6 0.9-0.9 1.3C4.3 22 4.8 19.9 5.7 17.8zM3 28.2C3 27.1 3.1 26 3.2 25c0 0.3 0 0.7 0.1 1l0 0c0.1 0.7 0.2 1.4 0.4 2.1 0.6 2.3 1.8 4.4 3.5 6.1 -0.3 1.6-0.5 3.2-0.5 4.6 0 1.2 0.2 2.2 0.5 3.3C4.5 38.1 3 33.3 3 28.2zM8.6 43.3C8 42 7.7 40.5 7.7 38.8c0-1.2 0.1-2.5 0.3-3.8 0.7 0.6 1.5 1.2 2.3 1.7h0c1.6 1 3.5 1.8 5.6 2.2 0 1.6 0.2 3.1 0.4 4.5 0.3 1.7 0.7 3.3 1.2 4.6 -1.7-0.4-3.3-1.1-4.8-1.9C11.1 45.4 9.7 44.4 8.6 43.3zM10.4 46.1c0.5 0.4 1.1 0.7 1.7 1.1 1.7 1 3.7 1.7 5.8 2.1 0.1 0.2 0.2 0.4 0.3 0.6l0 0c0 0 0 0 0 0 0.4 0.8 0.8 1.4 1.3 2C16 50.6 12.9 48.6 10.4 46.1zM28.2 53.5c-2.2 0-4.3-0.3-6.3-0.8 -1.1-0.6-2.1-1.7-2.9-3.2 0.9 0.2 1.9 0.3 2.9 0.4 0.6 0 1.2 0.1 1.9 0.1 2.1 0 4.3-0.2 6.5-0.7 0.8 1.8 1.6 3.1 2.2 3.9C31.1 53.4 29.7 53.5 28.2 53.5zM43.6 48.3c-3 2.2-6.4 3.8-10 4.6 -0.4-0.3-1.2-1.3-2.4-3.9 3.6-0.9 7-2.3 10.1-4.4 0.4-0.3 0.8-0.5 1.2-0.8 0.1 0.2 0.2 0.4 0.2 0.5 0 0 0 0 0 0 0 0 0 0 0 0C43.6 46.7 43.7 47.8 43.6 48.3zM51.2 38.7c-1.5 3.4-3.8 6.4-6.6 8.8 -0.1-0.9-0.4-2.1-0.9-3.5 -0.1-0.2-0.2-0.5-0.3-0.8 2.7-2 4.9-4.4 6.6-7 0.3-0.5 0.6-1 0.9-1.6C51.4 36.1 51.5 37.5 51.2 38.7zM53.5 28.3c0 2.7-0.4 5.3-1.2 7.7 -0.1-0.7-0.3-1.4-0.6-2.1 -0.1-0.1-0.1-0.3-0.2-0.4 0.7-1.4 1.2-2.8 1.6-4.2 0.2-0.7 0.3-1.3 0.4-2 0 0.1 0 0.3 0 0.4 0 0.2 0 0.3 0 0.5C53.5 28.2 53.5 28.3 53.5 28.3z"/></svg>