<svg xmlns="http://www.w3.org/2000/svg" viewBox="0 0 60 60" preserveAspectRatio="xMidYMid meet" >
  <path fill="#7f7f7f" d="M41.5384615,25.3846154 C41.5384615,20.9387019 39.9591346,17.1346154 36.796875,13.9723558 C33.6346154,10.8100962 29.8305288,9.23076923 25.3846154,9.23076923 C20.9387019,9.23076923 17.1346154,10.8100962 13.9723558,13.9723558 C10.8100962,17.1346154 9.23076923,20.9387019 9.23076923,25.3846154 C9.23076923,29.8305288 10.8100962,33.6346154 13.9723558,36.796875 C17.1346154,39.9591346 20.9387019,41.5384615 25.3846154,41.5384615 C29.8305288,41.5384615 33.6346154,39.9591346 36.796875,36.796875 C39.9591346,33.6346154 41.5384615,29.8305288 41.5384615,25.3846154 L41.5384615,25.3846154 Z M60,55.3846154 C60,56.6358173 59.5420673,57.7175481 58.6298077,58.6298077 C57.7175481,59.5420673 56.6358173,60 55.3846154,60 C54.0865385,60 53.0048077,59.5420673 52.1394231,58.6298077 L39.7716346,46.2980769 C35.4699519,49.2800481 30.6742788,50.7692308 25.3846154,50.7692308 C21.9483173,50.7692308 18.6598558,50.1021635 15.5228365,48.7680288 C12.3858173,47.4338942 9.68149038,45.6310096 7.40985577,43.359375 C5.13822115,41.0877404 3.33533654,38.3834135 2.00120192,35.2463942 C0.667067308,32.109375 0,28.8209135 0,25.3846154 C0,21.9483173 0.667067308,18.6598558 2.00120192,15.5228365 C3.33533654,12.3858173 5.13822115,9.68149038 7.40985577,7.40985577 C9.68149038,5.13822115 12.3858173,3.33533654 15.5228365,2.00120192 C18.6598558,0.667067308 21.9483173,0 25.3846154,0 C28.8209135,0 32.109375,0.667067308 35.2463942,2.00120192 C38.3834135,3.33533654 41.0877404,5.13822115 43.359375,7.40985577 C45.6310096,9.68149038 47.4338942,12.3858173 48.7680288,15.5228365 C50.1021635,18.6598558 50.7692308,21.9483173 50.7692308,25.3846154 C50.7692308,30.6742788 49.2800481,35.4699519 46.2980769,39.7716346 L58.6658654,52.1394231 C59.5564904,53.0300481 60,54.1117788 60,55.3846154 L60,55.3846154 Z"></path>
</svg>
