<?xml version="1.0" encoding="utf-8"?>
<!-- Generator: Adobe Illustrator 18.0.0, SVG Export Plug-In . SVG Version: 6.00 Build 0)  -->
<!DOCTYPE svg PUBLIC "-//W3C//DTD SVG 1.1//EN" "http://www.w3.org/Graphics/SVG/1.1/DTD/svg11.dtd">
<svg version="1.1" id="Calque_1" xmlns="http://www.w3.org/2000/svg" xmlns:xlink="http://www.w3.org/1999/xlink" x="0px" y="0px"
	 viewBox="197.9 328.8 200 111.6" enable-background="new 197.9 328.8 200 111.6" xml:space="preserve">
<path fill="#CC4C27" d="M366.6,328.8H230.1c-4,0-7.3,3.3-7.3,7.3v86.1c0,1,0.8,2.1,2.1,2.1h146.9c1,0,2.1-0.8,2.1-2.1v-86.1
	C373.9,332.2,370.8,328.8,366.6,328.8z M368.7,419.3H228.2v-84.8h140.4L368.7,419.3L368.7,419.3z"/>
<rect x="232.4" y="340.5" fill="none" stroke="#CC4C27" stroke-linejoin="round" stroke-miterlimit="10" width="131.2" height="73.8"/>
<path fill="none" stroke="#CC4C27" stroke-linecap="round" stroke-miterlimit="10" d="M208.6,428.5h75.9c0.2,1.3,1.5,2.1,2.9,2.1
	h21.5c1.7,0,2.7-0.8,2.9-2.1h75.9"/>
<g>
	<path fill="#CC4C27" d="M390.6,425c1.7,0,2.9,1.3,2.9,2.9v5.4c0,1.7-1.3,2.9-2.9,2.9H205c-1.7,0-2.9-1.3-2.9-2.9v-5.4
		c0-1.7,1.3-2.9,2.9-2.9L390.6,425 M390.6,420.8H205c-4,0-7.1,3.1-7.1,7.1v5.4c0,4,3.1,7.1,7.1,7.1h185.8c4,0,7.1-3.1,7.1-7.1v-5.4
		C397.9,423.9,394.6,420.8,390.6,420.8L390.6,420.8z"/>
</g>
<path fill="#CC4C27" d="M346.5,364.2c0,2.1-1.7,3.8-3.8,3.8h-73.6c-2.1,0-3.8-1.7-3.8-3.8l0,0c0-2.1,1.7-3.8,3.8-3.8h73.6
	C344.9,360.4,346.5,362.1,346.5,364.2L346.5,364.2z"/>
<path fill="#CC4C27" d="M357.6,363.1c0-0.2-0.2-0.2-0.4-0.2l-1.9-0.2l-0.8-1.7c0-0.2-0.2-0.2-0.4-0.2s-0.4,0-0.4,0.2l-0.8,1.7
	l-1.9,0.2c-0.2,0-0.4,0.2-0.4,0.2c0,0.2,0,0.4,0.2,0.4l1.3,1.3l-0.2,1.9c0,0.2,0,0.4,0.2,0.4c0.2,0.2,0.4,0.2,0.4,0l1.7-0.8l1.7,0.8
	c0.2,0,0.4,0,0.4,0c0.2,0,0.2-0.2,0.2-0.4l-0.2-1.9l1.3-1.3C357.6,363.3,357.6,363.3,357.6,363.1z"/>
<path fill="#CC4C27" d="M247.3,360.8c0.4-0.4,0.8-0.4,1.3,0l2.3,2.3c0.4,0.4,0.4,0.8,0,1.3l-2.3,2.3c-0.4,0.4-0.8,0.4-1.3,0
	c-0.4-0.4-0.4-0.8,0-1.3l1-1h-2.7c-0.4,0-0.8-0.4-0.8-0.8s0.4-0.8,0.8-0.8h2.5l-1-1C246.8,361.6,246.8,361.2,247.3,360.8z"/>
<path fill="#CC4C27" d="M240.4,366.9c-0.4,0.4-0.8,0.4-1.3,0l-2.3-2.3c-0.4-0.4-0.4-0.8,0-1.3l2.3-2.3c0.4-0.4,0.8-0.4,1.3,0
	c0.4,0.4,0.4,0.8,0,1.3l-1,0.8h2.5c0.4,0,0.8,0.4,0.8,0.8s-0.4,0.8-0.8,0.8h-2.5l1,1C240.6,366,240.6,366.5,240.4,366.9z"/>
<path fill="#CC4C27" d="M260.6,364.4c-0.2,0-0.4,0-0.6,0s-0.2,0-0.2,0c-0.2,0-0.4,0-0.4,0.2c0,0.8-0.6,1.5-1.5,1.5
	c-0.8,0-1.5-0.8-1.5-1.7s0.6-1.7,1.5-1.7h0.2l-0.2,0.4c-0.2,0.2-0.2,0.4-0.2,0.6s0,0.4,0.2,0.6s0.8,0.4,1,0l1.7-1.5
	c0.2-0.2,0.2-0.4,0.2-0.6s0-0.4-0.2-0.6l-1.7-1.5c-0.2-0.2-0.8-0.2-1,0s-0.2,0.4-0.2,0.6s0,0.2,0.2,0.4h0.2h-0.2v0.2
	c-1.7,0-2.9,1.5-2.9,3.1c0,1.7,1.3,3.1,2.9,3.1c1.7,0,2.9-1.3,2.9-2.9C260.8,364.6,260.6,364.4,260.6,364.4z"/>
<path fill="#CC4C27" d="M232.4,340.5v13.6h131.2v-13.6H232.4z M343.8,349.7c-1.5,0-2.5-1-2.5-2.5c0-1.5,1-2.5,2.5-2.5
	c1.5,0,2.5,1,2.5,2.5C346.3,348.7,345.3,349.7,343.8,349.7z M350.3,349.7c-1.5,0-2.5-1-2.5-2.5c0-1.5,1-2.5,2.5-2.5
	c1.5,0,2.5,1,2.5,2.5C352.8,348.7,351.8,349.7,350.3,349.7z M356.8,349.7c-1.5,0-2.5-1-2.5-2.5c0-1.5,1-2.5,2.5-2.5
	c1.5,0,2.5,1,2.5,2.5C359.3,348.7,358.2,349.7,356.8,349.7z"/>
</svg>
