<svg version="1.1" id="Layer_1" xmlns:sketch="http://www.bohemiancoding.com/sketch/ns"
	 xmlns="http://www.w3.org/2000/svg" xmlns:xlink="http://www.w3.org/1999/xlink" x="0px" y="0px" viewBox="121.7 108 256.5 56.1" preserveAspectRatio="xMidYMid meet" enable-background="new 121.7 108 256.5 56.1" xml:space="preserve">
<g>
	<path fill="#FFFFFF" d="M140.1,137.3c-1.9,0-3.5-1.1-4.9-1.1c-1.2,0-1.9,0.9-1.9,2.1c0,2.7,4.8,3.3,7.1,3.3c4,0,7.4-2.6,7.4-6.7
		c0-7.5-9.7-5.6-9.7-8.6c0-1.3,1.1-1.9,2.4-1.9c1.7,0,2.6,0.9,3.9,0.9c1.2,0,1.9-1,1.9-2.2c0-2.3-4.1-2.9-5.7-2.9
		c-3.9,0-7.2,2.5-7.2,6.6c0,6.7,9.7,4.7,9.7,8.1C143.1,136.2,142,137.3,140.1,137.3L140.1,137.3z"/>
	<path fill="#FFFFFF" d="M149,124.4h3.2V139c0,1.5,0.9,2.3,2.2,2.3s2.2-0.8,2.2-2.3v-14.6h3.2c1.4,0,1.9-1,1.9-2c0-1-0.7-2-1.9-2
		H149c-1.3,0-1.9,1-1.9,2C147,123.4,147.6,124.4,149,124.4L149,124.4z"/>
	<path fill="#FFFFFF" d="M177.5,138.1l-5.7-15.9c-0.5-1.4-1.6-2.4-3.1-2.4c-1.5,0-2.6,1-3.1,2.4l-5.8,15.9c-0.1,0.1-0.3,0.5-0.3,1
		c0,1.2,1,2,2.2,2c1.2,0,1.8-0.6,2.1-1.5l0.9-2.7h8.1l0.9,2.7c0.3,0.9,0.9,1.5,2.2,1.5c1,0,2-0.8,2-1.9
		C177.8,138.9,177.7,138.5,177.5,138.1z M165.9,132.8l2.7-8.4l2.8,8.4H165.9z"/>
	<path fill="#FFFFFF" d="M181.1,131.4v7.8c0,1,0.6,2.2,2.2,2.2s2.2-1,2.2-2.2v-7.8l5.5-7.7c0.3-0.3,0.4-0.8,0.4-1.3
		c0-1.2-0.9-2.2-2.1-2.2c-0.8,0-1.4,0.3-1.8,0.9l-4.2,6.1l-4.2-6.1c-0.3-0.6-1-0.9-1.8-0.9c-1.3,0-2.1,1-2.1,2.2
		c0,0.5,0.1,0.9,0.4,1.3L181.1,131.4L181.1,131.4z"/>
</g>
<g>
	<path fill="#FFFFFF" d="M196.7,139.1c-1.5,0-3.2-0.8-3.4-1c-0.2-0.2-0.7-0.5-0.9-0.5c-0.5,0-0.9,0.4-0.9,1c0,1.1,2.3,2.5,5.7,2.5
		c4,0,6.6-2.8,6.6-6.6c0-6.7-9.8-4.8-9.8-9.4c0-1.7,1.6-3.2,3.8-3.2s2.9,1.5,4,1.5c0.4,0,0.8-0.4,0.8-1.1c0-0.9-2.4-2.3-4.7-2.3
		c-3.1,0.1-5.9,2-5.9,5.3c0,6.3,9.8,4.4,9.8,9.4C201.4,136.7,199.5,139.1,196.7,139.1L196.7,139.1z"/>
	<path fill="#FFFFFF" d="M207.8,121.5l-2.5,16.6c-0.1,0.5-0.3,1.7-0.3,1.9c0,0.8,0.5,0.9,0.9,0.9c0.7,0,0.9-0.5,1.1-1.3l2.6-17.5
		h0.1l5.3,17.6c0.2,0.6,0.4,1,1,1s0.9-0.3,1.3-1.4l5.2-17.4h0.1l2.6,17.5c0.1,0.7,0.3,1.3,1.1,1.3c0.4,0,0.9-0.2,0.9-0.9
		c0-0.3-0.2-1.4-0.3-1.9l-2.5-16.6c-0.2-1.4-1.1-1.7-2.1-1.7c-0.8,0-1.3,0.5-1.6,1.4l-4.7,16.1h-0.1l-4.6-16.1
		c-0.2-0.8-0.7-1.4-1.6-1.4C209,119.9,208,120.2,207.8,121.5L207.8,121.5z"/>
	<path fill="#FFFFFF" d="M245.4,139.3l-6.7-17.8c-0.3-0.6-0.6-1.5-1.7-1.5c-1,0-1.4,0.8-1.7,1.5l-6.7,17.8c-0.1,0.3-0.2,0.6-0.2,0.8
		c0,0.4,0.3,0.8,0.9,0.8c0.7,0,0.9-0.4,1.1-0.9l1.4-3.8h10l1.4,3.8c0.2,0.5,0.4,0.9,1.1,0.9c0.6,0,0.9-0.4,0.9-0.8
		C245.7,139.9,245.6,139.6,245.4,139.3z M232.8,134.4l4.3-11.7h0.1l4.3,11.7H232.8z"/>
	<path fill="#FFFFFF" d="M252.5,131.5h1.9c3.5,0,5.7-2.6,5.7-5.8c0-2.9-2.2-5.6-6.3-5.6h-4.6c-0.9,0-1.4,0.4-1.4,1.1v18.5
		c0,0.8,0.4,1.4,1,1.4c0.6,0,1-0.4,1-1.4v-8l8.2,8.9c0.3,0.3,0.6,0.4,0.9,0.4c0.4,0,0.9-0.3,0.9-0.8c0-0.4-0.1-0.6-0.4-0.9
		L252.5,131.5z M250.1,122h3.6c2.8,0,4.3,1.4,4.3,4.1c0,2.4-1.6,3.8-4.3,3.8h-3.6V122z"/>
	<path fill="#FFFFFF" d="M266.3,139.6c0,0.8,0.4,1.4,1,1.4s1-0.4,1-1.4V122h4c0.6,0,1.1-0.4,1.1-0.9s-0.4-0.9-1.1-0.9h-10.1
		c-0.6,0-1.1,0.4-1.1,0.9s0.4,0.9,1.1,0.9h4v17.6H266.3z"/>
</g>
<g>
	<path fill="#FFFFFF" d="M283.1,119.8c-6,0-10,4.6-10,10.7c0,6.1,4.2,10.7,10,10.7c6,0,10-4.7,10-10.7
		C293.2,124.6,289,119.8,283.1,119.8z M283.1,137.3c-3.7,0-5.5-3.2-5.5-6.8c0-3.5,1.8-6.8,5.5-6.8c3.6,0,5.5,3.2,5.5,6.8
		C288.7,134.1,286.9,137.3,283.1,137.3z"/>
	<path fill="#FFFFFF" d="M309.9,120c-1.2,0-2.1,0.8-2.1,2.3v11.1h-0.1l-9.3-12.4c-0.3-0.6-1.2-1-1.8-1c-1.2,0-2.1,0.8-2.1,2.3v16.6
		c0,1.5,0.9,2.3,2.1,2.3c1.2,0,2.1-0.8,2.1-2.3v-11h0.1l9.1,12.4c0.5,0.6,1.2,1,1.8,1c1.2,0,2.1-0.8,2.1-2.3v-16.7
		C312,120.8,311.1,120,309.9,120L309.9,120z"/>
	<path fill="#FFFFFF" d="M323.9,136.9h-5.2v-14.7c0-1.5-0.9-2.3-2.1-2.3s-2.1,0.8-2.1,2.3v16.3c0,1.5,0.9,2.4,2.3,2.4h7.3
		c1.2,0,2-1,2.1-1.9C326.1,138.1,325.4,136.9,323.9,136.9L323.9,136.9z"/>
	<path fill="#FFFFFF" d="M328.9,120c-1.2,0-2.1,0.8-2.1,2.3v16.6c0,1.5,0.9,2.3,2.1,2.3c1.2,0,2.1-0.8,2.1-2.3v-16.6
		C331.1,120.8,330.2,120,328.9,120L328.9,120z"/>
	<path fill="#FFFFFF" d="M348.9,120c-1.2,0-2.1,0.8-2.1,2.3v11.1h-0.1l-9.3-12.4c-0.3-0.6-1.2-1-1.8-1c-1.2,0-2.1,0.8-2.1,2.3v16.6
		c0,1.5,0.9,2.3,2.1,2.3s2.1-0.8,2.1-2.3v-11h0.1l9.1,12.4c0.5,0.6,1.2,1,1.8,1c1.2,0,2.1-0.8,2.1-2.3v-16.7
		C351,120.8,350.1,120,348.9,120L348.9,120z"/>
	<path fill="#FFFFFF" d="M363.8,136.9h-5.4v-4.4h4.7c1.4,0,2.1-1,2.1-2c0-1-0.7-2-2.1-2h-4.7v-4.3h5.2c1.4,0,2-1,2-2c0-1-0.7-2-2-2
		h-7.2c-1.6,0-2.3,1.1-2.3,2.6v16c0,1.4,1,2.1,2.3,2.1h7.6c1.4,0,2-1,2-2C365.8,137.9,365.1,136.9,363.8,136.9L363.8,136.9z"/>
</g>
<g id="sso">
	<path id="Shape" sketch:type="MSShapeGroup" fill="#FFFFFF" d="M368.1,108H131.9c-5.6,0-10.1,4.5-10.1,10.1v25.8
		c0,5.6,4.5,10.1,10.1,10.1h211.9c1.5,5.7,6.7,10,13,10.1h3.5V154h7.8c5.6,0,10.1-4.5,10.1-10.1v-25.8
		C378.2,112.5,373.7,108,368.1,108L368.1,108z M374.7,150.6h-14.4h-3.5v10.1c-5.5-0.1-9.9-4.5-9.9-10v-0.1H125.3v-39.1h249.5
		L374.7,150.6L374.7,150.6z"/>
</g>
</svg>
