<svg xmlns="http://www.w3.org/2000/svg" width="35" height="35" viewBox="0 0 35 35"><path fill="#DD4B39" d="M17.5 0C27.2 0 35 7.8 35 17.5S27.2 35 17.5 35 0 27.2 0 17.5 7.8 0 17.5 0z"/><path fill="#FFF" fill-rule="evenodd" d="M19.4 10.1H15c-.6 0-1.2.1-1.9.2-.7.2-1.3.5-2 1-.9.9-1.4 1.9-1.4 2.9 0 .9.3 1.7 1 2.3.6.7 1.5 1.1 2.7 1.1h.7c0 .1-.1.2-.1.4-.1.1-.1.3-.1.5 0 .3.1.6.2.8.1.2.3.5.4.7-.5 0-1.2.1-1.9.2-.8.1-1.5.4-2.3.8-.6.4-1.1.8-1.3 1.3-.3.5-.4 1-.4 1.4 0 .8.4 1.6 1.2 2.2.8.6 1.9 1 3.5 1 1.8 0 3.3-.5 4.2-1.3.9-.8 1.4-1.8 1.4-2.8 0-.8-.2-1.4-.5-1.8-.4-.5-.8-.9-1.2-1.3l-.8-.7c-.1-.1-.2-.2-.3-.4-.1-.2-.2-.3-.2-.6 0-.2.1-.4.2-.6.1-.2.2-.3.4-.5s.4-.4.7-.6c.2-.2.4-.4.5-.6.3-.5.5-1.1.5-1.9 0-.4 0-.8-.1-1.1-.1-.3-.3-.6-.4-.8-.2-.3-.3-.5-.5-.6-.2-.2-.3-.3-.5-.4H18l1.4-.8zm-2.4 12c.4.4.5.9.5 1.5 0 .7-.3 1.2-.8 1.7-.5.4-1.3.7-2.4.7-1.2 0-2.1-.3-2.7-.8-.7-.5-1.1-1.1-1.1-1.9 0-.4.1-.7.2-1 .1-.3.3-.5.5-.7.2-.2.4-.3.6-.4.2-.1.4-.2.5-.2l1.4-.3c.5 0 .8-.1.9 0h.5c.9.5 1.5 1 1.9 1.4zm-.7-6.5c-.1.3-.2.6-.4.9-.4.4-.9.6-1.5.6-.5 0-.9-.1-1.2-.4-.4-.3-.7-.6-.9-1-.5-.9-.7-1.7-.7-2.5 0-.6.1-1.1.5-1.6s.9-.7 1.5-.7c.5 0 .9.1 1.2.4.3.3.6.6.8 1 .4.9.7 1.8.7 2.6v.7zm10 1.4H24v-2.3h-1.4V17h-2.3v1.3h2.3v2.3H24v-2.3h2.4l-.1-1.3z" clip-rule="evenodd"/></svg>
