<svg width="36" height="36" viewBox="0 0 36 36" xmlns="http://www.w3.org/2000/svg"><g fill="none"><path d="M17.9.4c9.7 0 17.5 7.8 17.5 17.5s-7.8 17.5-17.5 17.5-17.5-7.8-17.5-17.5 7.8-17.5 17.5-17.5z" fill="#CA1C22"/><path d="M26.5 16.4v3c0 .3 0 .8-.1 1.3 0 .5-.1 1-.2 1.4-.1.5-.3.9-.7 1.2-.3.3-.7.5-1.2.6-1.4.2-3.6.2-6.5.2s-5.1-.1-6.5-.2c-.5-.1-.9-.2-1.2-.6-.3-.3-.6-.7-.7-1.2-.1-.4-.2-.9-.2-1.4 0-.5-.1-1-.1-1.3v-3c0-.4 0-.8.1-1.3 0-.5.1-1 .2-1.4.1-.5.3-.9.7-1.2.3-.3.7-.5 1.2-.6 1.4-.2 3.6-.2 6.5-.2s5.1.1 6.5.2c.5.1.9.2 1.2.6.3.3.6.7.7 1.2.1.4.2.9.2 1.4.1.5.1 1 .1 1.3zm-5.2 2c.2-.1.3-.3.3-.5s-.1-.4-.3-.5l-5-3.1c-.2-.1-.4-.1-.6 0-.2.1-.3.3-.3.5v6.2c0 .2.1.4.3.5.1.1.2.1.3.1.1 0 .2 0 .3-.1l5-3.1z" fill="#FFF"/></g></svg>