<?xml version="1.0" encoding="utf-8"?>
<!-- Generator: Adobe Illustrator 18.1.1, SVG Export Plug-In . SVG Version: 6.00 Build 0)  -->
<!DOCTYPE svg PUBLIC "-//W3C//DTD SVG 1.0//EN" "http://www.w3.org/TR/2001/REC-SVG-20010904/DTD/svg10.dtd">
<svg version="1.0" xmlns="http://www.w3.org/2000/svg" xmlns:xlink="http://www.w3.org/1999/xlink" x="0px" y="0px"
	 viewBox="0 0 278.9 53.5" enable-background="new 0 0 278.9 53.5" xml:space="preserve">
<g id="Layer_1">
</g>
<g id="Digital_regions_initiative">
	<g>
		<path fill-rule="evenodd" clip-rule="evenodd" d="M71.1,23.7h-2.7l-0.3,0.8c-0.1,0.2-0.2,0.5-0.2,0.6c0,0.2,0.1,0.4,0.3,0.5
			c0.1,0.1,0.4,0.1,0.8,0.1v0.2h-2.6v-0.2c0.3,0,0.5-0.2,0.7-0.3c0.2-0.2,0.4-0.6,0.7-1.2l2.8-6.2h0.1l2.8,6.3
			c0.3,0.6,0.5,1,0.7,1.1c0.1,0.1,0.3,0.2,0.5,0.2v0.2h-3.7v-0.2H71c0.3,0,0.5,0,0.6-0.1c0.1-0.1,0.1-0.1,0.1-0.3c0-0.1,0-0.1,0-0.2
			c0,0-0.1-0.2-0.2-0.4L71.1,23.7L71.1,23.7z M70.9,23.3l-1.2-2.7l-1.2,2.7H70.9L70.9,23.3z"/>
		<path d="M79.3,20.6v4.2c0,0.4,0,0.7,0.1,0.8c0.1,0.1,0.2,0.2,0.5,0.2v0.2h-2.2v-0.7c-0.3,0.3-0.5,0.5-0.8,0.7
			c-0.3,0.1-0.5,0.2-0.9,0.2c-0.3,0-0.6-0.1-0.8-0.3c-0.2-0.2-0.4-0.4-0.5-0.6c-0.1-0.2-0.1-0.7-0.1-1.3v-2.1c0-0.4,0-0.7-0.1-0.8
			c-0.1-0.1-0.2-0.2-0.5-0.2v-0.2h2.2v3.6c0,0.4,0,0.6,0.1,0.7c0,0.1,0.1,0.2,0.2,0.2c0.1,0.1,0.2,0.1,0.3,0.1c0.1,0,0.3,0,0.4-0.1
			c0.2-0.1,0.3-0.3,0.5-0.6v-2.8c0-0.4,0-0.7-0.1-0.8c-0.1-0.1-0.2-0.2-0.5-0.2v-0.2H79.3L79.3,20.6z"/>
		<path d="M83.6,20.4l0.1,1.8h-0.2c-0.2-0.5-0.5-0.9-0.7-1.1c-0.2-0.2-0.5-0.3-0.7-0.3c-0.2,0-0.3,0.1-0.4,0.2
			c-0.1,0.1-0.2,0.2-0.2,0.4c0,0.1,0,0.2,0.1,0.3c0.1,0.2,0.5,0.4,1,0.8c0.6,0.4,0.9,0.7,1.1,1c0.2,0.3,0.3,0.6,0.3,0.9
			c0,0.3-0.1,0.6-0.2,0.9c-0.1,0.3-0.4,0.5-0.6,0.7c-0.3,0.2-0.6,0.2-0.9,0.2c-0.3,0-0.6-0.1-1-0.2c-0.1,0-0.2-0.1-0.2-0.1
			c-0.1,0-0.2,0.1-0.3,0.3h-0.2l-0.1-1.9h0.2c0.2,0.5,0.4,0.9,0.7,1.1c0.3,0.3,0.6,0.4,0.8,0.4c0.2,0,0.3-0.1,0.4-0.2
			c0.1-0.1,0.2-0.2,0.2-0.4c0-0.2-0.1-0.3-0.2-0.5c-0.1-0.1-0.4-0.3-0.8-0.6c-0.6-0.4-1-0.7-1.1-0.9c-0.3-0.3-0.4-0.7-0.4-1
			c0-0.4,0.1-0.8,0.4-1.1c0.3-0.3,0.7-0.5,1.2-0.5c0.3,0,0.6,0.1,0.8,0.2c0.1,0.1,0.2,0.1,0.3,0.1c0.1,0,0.1,0,0.2,0
			c0,0,0.1-0.1,0.2-0.2H83.6L83.6,20.4z"/>
		<path d="M86.4,18.6v1.9h1.3v0.6h-1.3v3.3c0,0.3,0,0.5,0,0.6c0,0.1,0.1,0.2,0.2,0.2c0.1,0.1,0.1,0.1,0.2,0.1c0.2,0,0.5-0.2,0.7-0.6
			l0.2,0.1c-0.3,0.7-0.8,1.1-1.5,1.1c-0.3,0-0.6-0.1-0.9-0.3c-0.2-0.2-0.4-0.4-0.4-0.6c0-0.1-0.1-0.5-0.1-1v-2.9h-0.7v-0.2
			c0.5-0.3,0.9-0.7,1.2-1.1c0.3-0.4,0.6-0.8,0.9-1.2H86.4L86.4,18.6z"/>
		<path d="M90.3,20.6v1.2c0.4-0.6,0.7-0.9,0.9-1.1c0.3-0.2,0.5-0.3,0.8-0.3c0.2,0,0.4,0.1,0.5,0.2c0.1,0.1,0.2,0.3,0.2,0.6
			c0,0.3-0.1,0.5-0.2,0.6c-0.1,0.1-0.3,0.2-0.4,0.2c-0.2,0-0.4-0.1-0.5-0.2c-0.1-0.1-0.2-0.2-0.3-0.2c0,0-0.1,0-0.1,0
			c-0.1,0-0.2,0-0.3,0.1c-0.2,0.1-0.3,0.3-0.4,0.6c-0.1,0.4-0.2,0.8-0.2,1.2v1.2l0,0.3c0,0.2,0,0.4,0,0.4c0,0.1,0.1,0.2,0.2,0.2
			c0.1,0,0.2,0.1,0.5,0.1v0.2h-2.9v-0.2c0.2,0,0.4-0.1,0.5-0.2c0.1-0.1,0.1-0.4,0.1-0.9v-2.9c0-0.3,0-0.5,0-0.6
			c0-0.1-0.1-0.2-0.2-0.2c-0.1,0-0.2-0.1-0.4-0.1v-0.2H90.3L90.3,20.6z"/>
		<path fill-rule="evenodd" clip-rule="evenodd" d="M95.6,25.1C95,25.7,94.4,26,93.9,26c-0.3,0-0.6-0.1-0.8-0.3
			c-0.2-0.2-0.3-0.5-0.3-0.8c0-0.4,0.2-0.8,0.5-1.1c0.3-0.3,1.1-0.8,2.3-1.3V22c0-0.4,0-0.7-0.1-0.8c0-0.1-0.1-0.2-0.2-0.3
			c-0.1-0.1-0.3-0.1-0.4-0.1c-0.2,0-0.5,0.1-0.6,0.2c-0.1,0.1-0.1,0.1-0.1,0.2c0,0.1,0.1,0.2,0.2,0.3c0.1,0.2,0.2,0.3,0.2,0.5
			c0,0.2-0.1,0.3-0.2,0.5c-0.1,0.1-0.3,0.2-0.5,0.2c-0.2,0-0.4-0.1-0.6-0.2c-0.2-0.1-0.2-0.3-0.2-0.5c0-0.3,0.1-0.5,0.3-0.8
			c0.2-0.2,0.5-0.4,0.9-0.6c0.4-0.1,0.8-0.2,1.2-0.2c0.5,0,0.9,0.1,1.2,0.3c0.3,0.2,0.5,0.4,0.6,0.7c0.1,0.2,0.1,0.5,0.1,1.1v2.1
			c0,0.2,0,0.4,0,0.5c0,0.1,0,0.1,0.1,0.1c0,0,0.1,0,0.1,0c0.1,0,0.2-0.1,0.3-0.2l0.2,0.1c-0.2,0.3-0.4,0.5-0.6,0.6
			c-0.2,0.1-0.4,0.2-0.7,0.2c-0.3,0-0.5-0.1-0.7-0.2C95.8,25.6,95.7,25.4,95.6,25.1L95.6,25.1z M95.6,24.7v-1.8
			c-0.5,0.3-0.8,0.6-1,0.9c-0.1,0.2-0.2,0.4-0.2,0.6c0,0.2,0.1,0.3,0.2,0.5C94.7,25,94.8,25,95,25C95.2,25,95.4,24.9,95.6,24.7
			L95.6,24.7z"/>
		<path d="M100.3,18.2v6.6c0,0.4,0,0.6,0.1,0.7c0.1,0.1,0.3,0.2,0.5,0.2v0.2H98v-0.2c0.2,0,0.4-0.1,0.5-0.2c0.1-0.1,0.1-0.3,0.1-0.7
			v-5.5c0-0.4,0-0.6-0.1-0.7c-0.1-0.1-0.3-0.2-0.5-0.2v-0.2H100.3L100.3,18.2z"/>
		<path fill-rule="evenodd" clip-rule="evenodd" d="M102.7,18c0.2,0,0.5,0.1,0.6,0.3c0.2,0.2,0.3,0.4,0.3,0.6c0,0.2-0.1,0.4-0.3,0.6
			c-0.2,0.2-0.4,0.3-0.6,0.3c-0.2,0-0.4-0.1-0.6-0.3c-0.2-0.2-0.3-0.4-0.3-0.6c0-0.2,0.1-0.4,0.3-0.6C102.2,18.1,102.5,18,102.7,18
			L102.7,18z M103.5,20.6v4.2c0,0.4,0,0.6,0.1,0.7c0.1,0.1,0.3,0.2,0.5,0.2v0.2h-2.9v-0.2c0.2,0,0.4-0.1,0.5-0.2
			c0.1-0.1,0.1-0.3,0.1-0.7v-3.1c0-0.4,0-0.6-0.1-0.7c-0.1-0.1-0.3-0.2-0.5-0.2v-0.2H103.5L103.5,20.6z"/>
		<path fill-rule="evenodd" clip-rule="evenodd" d="M107.2,25.1c-0.6,0.6-1.2,0.9-1.7,0.9c-0.3,0-0.6-0.1-0.8-0.3
			c-0.2-0.2-0.3-0.5-0.3-0.8c0-0.4,0.2-0.8,0.5-1.1c0.3-0.3,1.1-0.8,2.3-1.3V22c0-0.4,0-0.7-0.1-0.8c0-0.1-0.1-0.2-0.2-0.3
			c-0.1-0.1-0.3-0.1-0.4-0.1c-0.2,0-0.5,0.1-0.6,0.2c-0.1,0.1-0.1,0.1-0.1,0.2c0,0.1,0.1,0.2,0.2,0.3c0.1,0.2,0.2,0.3,0.2,0.5
			c0,0.2-0.1,0.3-0.2,0.5c-0.1,0.1-0.3,0.2-0.5,0.2c-0.2,0-0.4-0.1-0.6-0.2c-0.2-0.1-0.2-0.3-0.2-0.5c0-0.3,0.1-0.5,0.3-0.8
			c0.2-0.2,0.5-0.4,0.9-0.6c0.4-0.1,0.8-0.2,1.2-0.2c0.5,0,0.9,0.1,1.2,0.3c0.3,0.2,0.5,0.4,0.6,0.7c0.1,0.2,0.1,0.5,0.1,1.1v2.1
			c0,0.2,0,0.4,0,0.5c0,0.1,0,0.1,0.1,0.1c0,0,0.1,0,0.1,0c0.1,0,0.2-0.1,0.3-0.2l0.2,0.1c-0.2,0.3-0.4,0.5-0.6,0.6
			c-0.2,0.1-0.4,0.2-0.7,0.2c-0.3,0-0.5-0.1-0.7-0.2C107.4,25.6,107.3,25.4,107.2,25.1L107.2,25.1z M107.2,24.7v-1.8
			c-0.5,0.3-0.8,0.6-1,0.9c-0.1,0.2-0.2,0.4-0.2,0.6c0,0.2,0.1,0.3,0.2,0.5c0.1,0.1,0.2,0.2,0.4,0.2C106.8,25,107,24.9,107.2,24.7
			L107.2,24.7z"/>
		<path d="M111.8,20.6v0.7c0.3-0.3,0.5-0.5,0.8-0.6c0.3-0.1,0.5-0.2,0.8-0.2c0.3,0,0.6,0.1,0.9,0.3c0.2,0.2,0.4,0.4,0.5,0.7
			c0.1,0.2,0.1,0.6,0.1,1.2v2.1c0,0.4,0,0.7,0.1,0.8c0.1,0.1,0.2,0.2,0.5,0.2v0.2h-2.7v-0.2c0.2,0,0.3-0.1,0.4-0.3
			c0.1-0.1,0.1-0.3,0.1-0.7v-2.4c0-0.4,0-0.7-0.1-0.8c0-0.1-0.1-0.2-0.2-0.3c-0.1-0.1-0.2-0.1-0.3-0.1c-0.3,0-0.6,0.2-0.9,0.7v2.9
			c0,0.4,0,0.7,0.1,0.8c0.1,0.1,0.2,0.2,0.4,0.2v0.2h-2.7v-0.2c0.2,0,0.4-0.1,0.5-0.2c0.1-0.1,0.1-0.3,0.1-0.7v-3
			c0-0.4,0-0.7-0.1-0.8c-0.1-0.1-0.2-0.2-0.5-0.2v-0.2H111.8L111.8,20.6z"/>
		<path d="M125.9,18v2.7h-0.2c-0.3-0.7-0.6-1.3-1.1-1.7c-0.5-0.4-1.1-0.6-1.7-0.6c-0.6,0-1.1,0.2-1.4,0.5c-0.4,0.3-0.7,0.8-0.8,1.4
			c-0.2,0.6-0.2,1.2-0.2,1.8c0,0.7,0.1,1.4,0.3,1.9c0.2,0.6,0.5,1,0.8,1.2c0.4,0.3,0.9,0.4,1.4,0.4c0.2,0,0.4,0,0.6-0.1
			c0.2,0,0.4-0.1,0.6-0.2v-1.6c0-0.3,0-0.5-0.1-0.6c0-0.1-0.1-0.2-0.3-0.2c-0.1-0.1-0.3-0.1-0.5-0.1h-0.2v-0.2h3.8v0.2
			c-0.3,0-0.5,0.1-0.6,0.1c-0.1,0.1-0.2,0.2-0.3,0.3c0,0.1-0.1,0.2-0.1,0.5v1.6c-0.5,0.2-1,0.4-1.5,0.5c-0.5,0.1-1.1,0.2-1.7,0.2
			c-0.7,0-1.3-0.1-1.8-0.3c-0.5-0.2-0.9-0.5-1.3-0.8c-0.4-0.3-0.7-0.7-0.9-1.1c-0.3-0.5-0.4-1.1-0.4-1.8c0-1.2,0.4-2.1,1.2-2.9
			c0.8-0.8,1.8-1.2,3.1-1.2c0.4,0,0.7,0,1,0.1c0.2,0,0.4,0.1,0.8,0.3c0.4,0.1,0.6,0.2,0.7,0.2c0.1,0,0.2,0,0.3-0.1
			c0.1-0.1,0.2-0.2,0.2-0.4H125.9L125.9,18z"/>
		<path fill-rule="evenodd" clip-rule="evenodd" d="M129.6,20.4c0.5,0,0.9,0.1,1.3,0.4c0.4,0.2,0.7,0.6,0.9,1
			c0.2,0.4,0.3,0.9,0.3,1.4c0,0.8-0.2,1.4-0.6,1.9c-0.5,0.6-1.1,0.9-1.9,0.9c-0.8,0-1.4-0.3-1.9-0.8c-0.4-0.6-0.6-1.2-0.6-2
			c0-0.8,0.2-1.4,0.7-2C128.2,20.7,128.8,20.4,129.6,20.4L129.6,20.4z M129.6,20.8c-0.2,0-0.4,0.1-0.5,0.2c-0.1,0.1-0.2,0.4-0.3,0.9
			c0,0.4-0.1,1-0.1,1.8c0,0.4,0,0.8,0.1,1.1c0,0.3,0.1,0.5,0.3,0.6c0.1,0.1,0.3,0.2,0.5,0.2c0.2,0,0.3,0,0.4-0.1
			c0.1-0.1,0.2-0.3,0.3-0.5c0.1-0.4,0.1-1.1,0.1-2.2c0-0.6,0-1.1-0.1-1.3c-0.1-0.2-0.2-0.4-0.3-0.5
			C129.9,20.9,129.8,20.8,129.6,20.8L129.6,20.8z"/>
		<path d="M134.6,26.1l-1.8-4.1c-0.2-0.5-0.4-0.8-0.5-0.9c-0.1-0.1-0.2-0.2-0.4-0.2v-0.2h2.8v0.2c-0.2,0-0.3,0-0.4,0.1
			c-0.1,0.1-0.1,0.2-0.1,0.3c0,0.1,0.1,0.4,0.3,0.8l0.9,2l0.7-1.7c0.2-0.5,0.3-0.8,0.3-1c0-0.1,0-0.2-0.1-0.3
			c-0.1-0.1-0.2-0.1-0.4-0.1v-0.2h1.7v0.2c-0.2,0-0.3,0.1-0.4,0.2c-0.1,0.1-0.3,0.4-0.5,0.9l-1.8,4.2H134.6L134.6,26.1z"/>
		<path fill-rule="evenodd" clip-rule="evenodd" d="M141.8,23.1h-2.9c0,0.7,0.2,1.3,0.6,1.7c0.3,0.3,0.6,0.5,0.9,0.5
			c0.2,0,0.4-0.1,0.6-0.2c0.2-0.1,0.4-0.4,0.6-0.7l0.2,0.1c-0.3,0.6-0.6,1-1,1.3c-0.3,0.2-0.8,0.4-1.2,0.4c-0.8,0-1.4-0.3-1.8-0.9
			c-0.3-0.5-0.5-1.1-0.5-1.8c0-0.9,0.2-1.6,0.7-2.1c0.5-0.5,1-0.8,1.7-0.8c0.5,0,1,0.2,1.4,0.7C141.5,21.5,141.7,22.2,141.8,23.1
			L141.8,23.1z M140.4,22.7c0-0.6,0-1-0.1-1.3c-0.1-0.2-0.2-0.4-0.3-0.5c-0.1-0.1-0.2-0.1-0.3-0.1c-0.2,0-0.4,0.1-0.5,0.3
			c-0.2,0.3-0.3,0.8-0.3,1.4v0.2H140.4L140.4,22.7z"/>
		<path d="M144.3,20.6v1.2c0.4-0.6,0.7-0.9,0.9-1.1c0.3-0.2,0.5-0.3,0.8-0.3c0.2,0,0.4,0.1,0.5,0.2c0.1,0.1,0.2,0.3,0.2,0.6
			c0,0.3-0.1,0.5-0.2,0.6c-0.1,0.1-0.3,0.2-0.4,0.2c-0.2,0-0.4-0.1-0.5-0.2c-0.1-0.1-0.2-0.2-0.3-0.2c0,0-0.1,0-0.1,0
			c-0.1,0-0.2,0-0.3,0.1c-0.2,0.1-0.3,0.3-0.4,0.6c-0.1,0.4-0.2,0.8-0.2,1.2v1.2l0,0.3c0,0.2,0,0.4,0,0.4c0,0.1,0.1,0.2,0.2,0.2
			c0.1,0,0.2,0.1,0.5,0.1v0.2h-2.9v-0.2c0.2,0,0.4-0.1,0.5-0.2c0.1-0.1,0.1-0.4,0.1-0.9v-2.9c0-0.3,0-0.5,0-0.6
			c0-0.1-0.1-0.2-0.2-0.2c-0.1,0-0.2-0.1-0.4-0.1v-0.2H144.3L144.3,20.6z"/>
		<path d="M149.2,20.6v0.7c0.3-0.3,0.5-0.5,0.8-0.6c0.2-0.1,0.5-0.2,0.8-0.2c0.3,0,0.6,0.1,0.9,0.3c0.2,0.2,0.4,0.4,0.5,0.7
			c0.1,0.2,0.1,0.6,0.1,1.2v2.1c0,0.4,0,0.7,0.1,0.8c0.1,0.1,0.2,0.2,0.5,0.2v0.2h-2.7v-0.2c0.2,0,0.3-0.1,0.4-0.3
			c0.1-0.1,0.1-0.3,0.1-0.7v-2.4c0-0.4,0-0.7-0.1-0.8c0-0.1-0.1-0.2-0.2-0.3c-0.1-0.1-0.2-0.1-0.3-0.1c-0.3,0-0.6,0.2-0.9,0.7v2.9
			c0,0.4,0,0.7,0.1,0.8c0.1,0.1,0.2,0.2,0.4,0.2v0.2H147v-0.2c0.2,0,0.4-0.1,0.5-0.2c0.1-0.1,0.1-0.3,0.1-0.7v-3
			c0-0.4,0-0.7-0.1-0.8c-0.1-0.1-0.2-0.2-0.5-0.2v-0.2H149.2L149.2,20.6z"/>
		<path d="M155.4,20.6v0.7c0.3-0.3,0.6-0.5,0.8-0.7c0.3-0.1,0.5-0.2,0.8-0.2c0.3,0,0.6,0.1,0.9,0.2c0.2,0.2,0.4,0.4,0.5,0.7
			c0.3-0.3,0.6-0.6,0.9-0.7c0.3-0.2,0.6-0.2,0.9-0.2c0.4,0,0.7,0.1,0.9,0.3c0.2,0.2,0.4,0.4,0.5,0.6c0.1,0.3,0.1,0.7,0.1,1.2v2.2
			c0,0.4,0,0.7,0.1,0.8c0.1,0.1,0.2,0.2,0.5,0.2v0.2h-2.8v-0.2c0.2,0,0.4-0.1,0.5-0.3c0.1-0.1,0.1-0.3,0.1-0.7v-2.3
			c0-0.5,0-0.8-0.1-0.9c0-0.1-0.1-0.2-0.2-0.3c-0.1-0.1-0.2-0.1-0.3-0.1c-0.2,0-0.3,0.1-0.5,0.2c-0.2,0.1-0.3,0.3-0.5,0.5v2.9
			c0,0.4,0,0.6,0.1,0.7c0.1,0.1,0.3,0.2,0.5,0.2v0.2h-2.8v-0.2c0.1,0,0.3,0,0.3-0.1c0.1-0.1,0.1-0.1,0.2-0.2c0-0.1,0-0.3,0-0.6v-2.3
			c0-0.5,0-0.8-0.1-0.9c0-0.1-0.1-0.2-0.2-0.3c-0.1-0.1-0.2-0.1-0.3-0.1c-0.2,0-0.3,0-0.4,0.1c-0.2,0.1-0.4,0.3-0.6,0.6v2.9
			c0,0.4,0,0.6,0.1,0.7c0.1,0.1,0.2,0.2,0.5,0.2v0.2h-2.7v-0.2c0.2,0,0.4-0.1,0.5-0.2c0.1-0.1,0.1-0.3,0.1-0.7v-3
			c0-0.4,0-0.7-0.1-0.8c-0.1-0.1-0.2-0.2-0.5-0.2v-0.2H155.4L155.4,20.6z"/>
		<path fill-rule="evenodd" clip-rule="evenodd" d="M166.9,23.1H164c0,0.7,0.2,1.3,0.6,1.7c0.3,0.3,0.6,0.5,0.9,0.5
			c0.2,0,0.4-0.1,0.6-0.2c0.2-0.1,0.4-0.4,0.6-0.7l0.2,0.1c-0.3,0.6-0.6,1-1,1.3c-0.3,0.2-0.8,0.4-1.2,0.4c-0.8,0-1.4-0.3-1.8-0.9
			c-0.3-0.5-0.5-1.1-0.5-1.8c0-0.9,0.2-1.6,0.7-2.1c0.5-0.5,1-0.8,1.7-0.8c0.5,0,1,0.2,1.4,0.7C166.7,21.5,166.9,22.2,166.9,23.1
			L166.9,23.1z M165.5,22.7c0-0.6,0-1-0.1-1.3c-0.1-0.2-0.2-0.4-0.3-0.5c-0.1-0.1-0.2-0.1-0.3-0.1c-0.2,0-0.4,0.1-0.5,0.3
			c-0.2,0.3-0.3,0.8-0.3,1.4v0.2H165.5L165.5,22.7z"/>
		<path d="M169.3,20.6v0.7c0.3-0.3,0.5-0.5,0.8-0.6c0.2-0.1,0.5-0.2,0.8-0.2c0.3,0,0.6,0.1,0.9,0.3c0.2,0.2,0.4,0.4,0.5,0.7
			c0.1,0.2,0.1,0.6,0.1,1.2v2.1c0,0.4,0,0.7,0.1,0.8c0.1,0.1,0.2,0.2,0.5,0.2v0.2h-2.7v-0.2c0.2,0,0.3-0.1,0.4-0.3
			c0.1-0.1,0.1-0.3,0.1-0.7v-2.4c0-0.4,0-0.7-0.1-0.8c0-0.1-0.1-0.2-0.2-0.3c-0.1-0.1-0.2-0.1-0.3-0.1c-0.3,0-0.6,0.2-0.9,0.7v2.9
			c0,0.4,0,0.7,0.1,0.8c0.1,0.1,0.2,0.2,0.4,0.2v0.2h-2.7v-0.2c0.2,0,0.4-0.1,0.5-0.2c0.1-0.1,0.1-0.3,0.1-0.7v-3
			c0-0.4,0-0.7-0.1-0.8c-0.1-0.1-0.2-0.2-0.5-0.2v-0.2H169.3L169.3,20.6z"/>
		<path d="M175.1,18.6v1.9h1.3v0.6h-1.3v3.3c0,0.3,0,0.5,0,0.6c0,0.1,0.1,0.2,0.2,0.2c0.1,0.1,0.1,0.1,0.2,0.1
			c0.2,0,0.5-0.2,0.7-0.6l0.2,0.1c-0.3,0.7-0.8,1.1-1.5,1.1c-0.3,0-0.6-0.1-0.9-0.3c-0.2-0.2-0.4-0.4-0.4-0.6c0-0.1-0.1-0.5-0.1-1
			v-2.9h-0.7v-0.2c0.5-0.3,0.9-0.7,1.2-1.1c0.3-0.4,0.6-0.8,0.9-1.2H175.1L175.1,18.6z"/>
	</g>
	<g>
		<path d="M23.4,38.8c0,0.1-0.1,0.1-0.1,0.1"/>
		<path d="M24.7,28.4c0.2,0,0.3-0.1,0.3-0.3c0-0.2-0.1-0.3-0.3-0.3c-0.2,0-0.3,0.1-0.3,0.3C24.4,28.3,24.5,28.4,24.7,28.4L24.7,28.4
			z"/>
		<path d="M37.6,16.6L37.6,16.6l-10,0v0h0l0,8.1c0,0.8,0.3,1.5,0.8,1.7l3.9,2.3c0.1,0.1,0.2,0.2,0.4,0.2c0.1,0,0.2,0,0.3-0.1
			l3.9-2.3c0.5-0.2,0.8-0.9,0.8-1.7L37.6,16.6L37.6,16.6L37.6,16.6z M30.9,19H30v-2.1h0.9V19L30.9,19z M30.3,19.7l0.1-0.1l-0.1-0.1
			l0.2,0l0.1-0.2l0.1,0.2l0.2,0l-0.1,0.1l0.1,0.1l-0.2,0v0.2l-0.1-0.1l-0.1,0.1v-0.2L30.3,19.7L30.3,19.7z M27.9,22.3v-2h1.1v2H27.9
			L27.9,22.3z M28,19.4l0.2,0l0.1-0.2l0.1,0.2l0.2,0l-0.1,0.1l0.1,0.1l-0.2,0v0.2l-0.1-0.1l-0.1,0.1v-0.2l-0.2,0l0.1-0.1L28,19.4
			L28,19.4z M29.2,21.4l0.2,0l0.1-0.2l0.1,0.2l0.2,0l-0.1,0.1l0.1,0.1l-0.2,0v0.2l-0.1-0.1l-0.1,0.1v-0.2l-0.2,0l0.1-0.1L29.2,21.4
			L29.2,21.4z M29.9,19.8c0-0.1-0.1-0.1-0.1-0.1c-0.1,0-0.1,0.2-0.2,0.2c-0.1,0-0.1,0-0.1-0.1c0-0.1,0.1-0.1,0.2-0.1
			C29,19.7,29,20,28.9,20c-0.2,0,0.1-0.3,0.2-0.4c-0.1,0-0.2-0.2-0.4-0.3c0.1-0.1,0.1-0.1,0.2,0c0-0.1,0.1-0.1,0.2-0.1
			c0.3,0,0.2,0.3,0.3,0.3c0,0,0-0.3,0.2-0.3c0.3,0,0.7,0.7,0.3,0.7C29.8,20,29.9,19.9,29.9,19.8L29.9,19.8z M29.2,17.7l0.1-0.1
			l-0.1-0.1l0.2,0l0.1-0.2l0.1,0.2l0.2,0l-0.1,0.1l0.1,0.1l-0.2,0v0.2l-0.1-0.1l-0.1,0.1v-0.2L29.2,17.7L29.2,17.7z M28.9,16.9V19
			h-1.1v-2.1H28.9L28.9,16.9z M30.9,27.6l-2.4-1.4c-0.4-0.3-0.6-0.8-0.7-1.3v-2.3h3.1V27.6L30.9,27.6z M30,22.3v-2h0.9v2H30L30,22.3
			z M34,27.8l-1.1,0.7h0c-0.1,0.1-0.2,0.1-0.3,0.1c-0.1,0-0.2,0-0.3-0.1l-1.1-0.7v-5.2H34V27.8L34,27.8z M34,22.3h-2.8v-5.4H34V22.3
			L34,22.3z M37.3,24.8c-0.1,0.6-0.2,1.1-0.7,1.3l-2.4,1.4v-5.1h3.1V24.8L37.3,24.8z M37.3,22.3h-3.1v-5.4h3.1V22.3L37.3,22.3z"/>
		<path d="M30.7,24.4c0,0-0.4,0.1-0.3,0.1c0-0.1,0.2-0.3,0.3-0.4c0-0.1-0.2,0-0.4,0.1c0.6-0.8,0.2-0.5-0.1-0.4
			c0.5-0.6,0.4-0.5,0-0.4c0.3-0.2,0.4-0.5,0.3-0.6c-0.3,0.4-0.5,0.3-0.5,0.7c0,0.2-0.1,0.6-0.2,0.7c-0.1,0.2,0-0.6-0.4-0.6
			c-0.1,0-0.4,0-0.5,0.1c0.1,0,0.2,0.2,0.2,0.3c0,0.1,0.1,0.3-0.1,0.3c-0.1,0-0.3-0.3-0.3-0.4s0-0.1,0-0.3c0-0.3-0.5-0.8-0.7-0.8
			c0,0.2,0.3,0.3,0.3,0.6c-0.1,0-0.3-0.2-0.3-0.1s0.2,0.2,0.2,0.3c0,0.1-0.2,0-0.2,0.1c0,0.1,0.1,0.1,0.1,0.2c-0.1,0-0.2,0-0.2,0
			c0,0,0,0.1,0.1,0.1c0,0-0.1,0.1-0.1,0.3c0,0.6,0.4,0.9,0.7,0.9c0.2,0,0.2-0.1,0.2-0.2c0,0.1,0.1-0.1,0.1,0.1
			c0,0.2-0.2,0.1-0.2,0.3c0,0.2,0.3,0,0.3,0.2c0,0.3,0,0.3,0,0.4c0,0.1,0.3-0.1,0.3-0.1c0.1,0,0.1,0.3,0.2,0.3
			c0.1,0,0.1-0.2,0.2-0.3c0,0,0.3,0.2,0.3,0.1c0-0.3-0.1-0.2-0.1-0.4c0-0.2,0.4-0.2,0.3-0.2c-0.1-0.1-0.1,0-0.1-0.2
			c0,0-0.3-0.5,0.1-0.2C30.7,25.4,30.8,24.5,30.7,24.4L30.7,24.4z"/>
		<path d="M41.5,26.5c0.2,0,0.3-0.1,0.3-0.3c0-0.2-0.1-0.3-0.3-0.3c-0.2,0-0.3,0.1-0.3,0.3C41.1,26.4,41.3,26.5,41.5,26.5L41.5,26.5
			z"/>
		<path d="M40.1,27.3c0.2,0,0.3-0.1,0.3-0.3c0-0.2-0.1-0.3-0.3-0.3c-0.2,0-0.3,0.1-0.3,0.3C39.8,27.2,39.9,27.3,40.1,27.3L40.1,27.3
			z"/>
		<path d="M24.2,29.2c0.2,0,0.3-0.1,0.3-0.3c0-0.2-0.1-0.3-0.3-0.3c-0.2,0-0.3,0.1-0.3,0.3C23.9,29,24.1,29.2,24.2,29.2L24.2,29.2z"
			/>
		<path d="M25.3,29.2c0.2,0,0.3-0.1,0.3-0.3c0-0.2-0.1-0.3-0.3-0.3s-0.3,0.1-0.3,0.3C24.9,29.1,25.1,29.2,25.3,29.2L25.3,29.2z"/>
		<path d="M53.9,15.4c0.5,0.6,0.6,1.5,0.2,2.2c-0.2,0-0.2-0.3-0.2-0.4c-0.4-0.7-0.6-1.5-0.3-2.2C53.8,15,53.7,15.3,53.9,15.4
			L53.9,15.4z"/>
		<path d="M11.9,16.2c-0.1,0.4-0.1,1,0,1.4c-0.1,0.1-0.1-0.1-0.2-0.1c-0.7-0.5-0.4-1.5-0.5-2.2c0-0.1,0.1-0.1,0.2,0
			C11.7,15.5,11.8,15.8,11.9,16.2L11.9,16.2z"/>
		<path d="M55.4,16.2c0.1,0.2-0.1,0.4-0.2,0.5c-0.2,0-0.3-0.1-0.4-0.2c-0.1-0.2,0.1-0.4,0.2-0.5C55.1,16,55.3,16.1,55.4,16.2
			L55.4,16.2z"/>
		<path d="M10.8,17c0,0.2-0.1,0.3-0.2,0.4c-0.1,0-0.3,0-0.3-0.1c-0.1-0.1-0.1-0.2-0.1-0.4c0.1-0.1,0.2-0.1,0.3-0.2
			C10.7,16.8,10.8,16.9,10.8,17L10.8,17z"/>
		<path d="M56.1,17.3c0,0.1,0,0.2,0,0.3c-0.1,0.2-0.3,0.2-0.5,0.2c-0.1-0.1-0.2-0.2-0.2-0.3c0-0.1,0.2-0.3,0.3-0.3
			C55.9,17.1,56,17.2,56.1,17.3L56.1,17.3z"/>
		<path d="M55.1,17.3c0.1,0.1,0,0.2,0,0.4c-0.1,0.1-0.2,0.2-0.4,0.2c-0.1-0.1-0.2-0.1-0.2-0.2c0-0.2,0.1-0.4,0.2-0.4
			C54.9,17.2,55,17.3,55.1,17.3L55.1,17.3z"/>
		<path d="M53.8,17.6c0,0.2,0,0.4-0.2,0.5c-0.2,0.1-0.4-0.1-0.4-0.2c0-0.2,0.1-0.4,0.3-0.4C53.6,17.4,53.7,17.5,53.8,17.6L53.8,17.6
			z"/>
		<path d="M12.8,17.7c0.1,0.2-0.1,0.3-0.2,0.4c-0.1,0-0.3-0.1-0.4-0.2c-0.1-0.1,0-0.2,0.1-0.3C12.4,17.4,12.7,17.5,12.8,17.7
			L12.8,17.7z"/>
		<path d="M11.7,17.7c0,0.1-0.1,0.3-0.2,0.3c-0.1,0.1-0.3-0.1-0.4-0.2c-0.1-0.2,0-0.3,0.2-0.4C11.5,17.4,11.6,17.6,11.7,17.7
			L11.7,17.7z"/>
		<path d="M49.5,17.8c0.2,0.4,0.3,0.8,0.4,1.3c-0.1,0.3,0.1,0.8-0.2,1c-0.2-0.1-0.3-0.4-0.4-0.5c-0.3-0.6,0-1.3,0.1-1.9
			C49.5,17.5,49.5,17.7,49.5,17.8L49.5,17.8z"/>
		<path d="M10.9,18c0.1,0.2-0.1,0.3-0.2,0.4c-0.2,0.1-0.4-0.1-0.4-0.2c0-0.2,0.1-0.4,0.2-0.4C10.6,17.8,10.8,17.9,10.9,18L10.9,18z"
			/>
		<path d="M52.3,18.5c0.2,0.5,0.2,1.1,0.1,1.7l-0.1,0.1c-0.2-0.5-0.6-0.9-0.7-1.4c0-0.4,0.1-0.7,0.2-1c0.1-0.1,0.2,0,0.2,0.1
			C52,18.2,52.1,18.4,52.3,18.5L52.3,18.5z"/>
		<path d="M54.5,18.2c0,0.2-0.1,0.4-0.3,0.4c-0.2,0-0.4,0-0.4-0.2c-0.1-0.2,0.1-0.3,0.2-0.4C54.2,17.9,54.4,18.1,54.5,18.2
			L54.5,18.2z"/>
		<path d="M11.7,18.8c0,0.1-0.1,0.3-0.3,0.3c-0.1,0.1-0.2-0.1-0.4-0.1c-0.1-0.1-0.1-0.3,0-0.4c0.1-0.1,0.2-0.1,0.3-0.1
			C11.5,18.5,11.7,18.6,11.7,18.8L11.7,18.8z"/>
		<path d="M12.5,18.7c0.1,0.2-0.1,0.3-0.2,0.4c-0.2,0.1-0.3-0.1-0.4-0.2c0-0.2,0.1-0.3,0.2-0.4C12.3,18.4,12.4,18.5,12.5,18.7
			L12.5,18.7z"/>
		<path d="M55,18.6c0,0.2-0.4,0.5-0.4,0.7c-0.2,0.5-0.6,0.8-1.1,1c-0.1,0.1-0.2,0.2-0.4,0.2c0-0.4,0.3-0.7,0.5-1
			C54,19.1,54.5,18.8,55,18.6L55,18.6z"/>
		<path d="M11.4,19.4c0.3,0.3,0.4,0.6,0.7,0.8c0,0.1,0,0.2-0.1,0.2c-0.9-0.1-1.4-0.9-1.9-1.6c0.1-0.2,0.3,0,0.4-0.1
			C10.8,19,11.1,19.1,11.4,19.4L11.4,19.4z"/>
		<path d="M55.3,19.6c0,0.8-0.4,1.5-1.1,1.9c-0.2,0.1-0.4,0.3-0.6,0.1c0.4-0.8,0.9-1.4,1.5-2H55.3L55.3,19.6z"/>
		<path d="M51.9,20.1c0.1,0.3-0.1,0.4-0.3,0.5c-0.2,0-0.3-0.1-0.4-0.3c0-0.2,0.1-0.3,0.2-0.4c0.1-0.1,0.1-0.1,0.2-0.1
			C51.7,19.9,51.8,20,51.9,20.1L51.9,20.1z"/>
		<path d="M10.4,20.3c0.3,0.2,0.6,0.5,0.9,0.8c-0.2,0.2-0.5,0-0.8,0c-0.6-0.2-1-0.7-1.6-0.9C9,20,9.2,20.1,9.3,20
			C9.7,20,10,20.2,10.4,20.3L10.4,20.3z"/>
		<path d="M29.2,15c-1-0.4-1.6,0.6-2.6,0.5c-0.1,0.1-0.1,0.2-0.2,0.3c-0.1,0.1-0.1,0-0.2,0c-0.1-0.4-0.2-0.8-0.2-1.2
			c-0.1-0.2-0.1-0.4-0.1-0.6c-0.6-1.5,1.4-0.4,1.8-1.3c0.3-0.8-0.6-0.9-0.9-1.4v-0.2c-0.3-0.3-0.6-0.4-0.8-0.7C26,9.9,26,9.4,25.9,9
			c0-0.1-0.1-0.2-0.2-0.2c-0.3,0.5-0.6,0.8-0.9,1.3c-0.3-0.2-0.6-0.6-1-0.8c-0.3,0-0.5-0.3-0.8-0.2c-0.1,0.1,0,0.2,0.1,0.3
			c0,0.7,0.4,1.2,0.9,1.7l0.1,0.3c-0.3,0.7-0.2,1.6-0.3,2.3c-0.8,2-2.1,4-3.8,5.3c-1,1.1-2.2,2.2-2.3,3.8c-0.1,0.2,0,0.5-0.2,0.7
			c-0.6-0.2-1.2-0.5-1.6-0.9c-0.8-0.6-2-0.5-2.5-1.5c-0.2-0.4,0.1-0.8,0.2-1.1c0.6-0.6,0.5-1.6,0.2-2.3c-0.1,0-0.1,0.1-0.1,0.1
			c-0.1,1-0.9,1.8-0.6,2.9c0.1,0.3,0.2,0.5,0.3,0.9c-0.1,0-0.3,0-0.4-0.1c-0.4-0.1-0.8-0.2-1.2-0.2c-0.8,0.4-1.9-0.1-2.6,0.7
			c-0.1,0-0.2,0-0.2,0.2c0.4,0,0.8,0.1,1.1,0.1c0.6,0.1,1-0.4,1.4-0.6h0.1c0.2-0.2,0.5-0.1,0.7-0.1c1.1,0.1,2,0.7,2.9,1.2v0.1
			c-0.4,0.2-0.8,0.3-1.1,0.5c-0.4,0.3-0.9,0.7-1,1.2c-0.3,0.4,0.1,0.8,0.3,1.2c0,0.2,0,0.4,0.2,0.5c0.6-0.6,0-1.3,0.1-2
			c0.1-0.5,0.6-0.8,1.1-0.9c1-0.4,1.7,0.4,2.5,0.8c0,0.8,0.1,1.6-0.1,2.4c-0.2,0.1-0.6,0.1-0.8,0.1c-1.4,0.1-2.5,0.9-3.7,1.3
			c-0.6,0.2-1.2,0.2-1.8,0.4c0.4,0.1,0.9,0,1.3-0.1c1.7-0.2,3-1.6,4.9-1.3l0,0.1c-0.2,0.4-0.5,0.8-0.8,1.1c-0.1-0.2-0.1-0.4-0.2-0.5
			c-0.1-0.1-0.3,0-0.4,0.1c-0.1,0.1-0.1,0.2,0,0.3c0.1,0.2,0.2,0.2,0.4,0.2c0,0.2-0.2,0.2-0.3,0.4c-0.5,0.8-1.5,0.5-2.1,1.1
			c-0.1,0.1-0.4,0.2-0.3,0.4c0.7,0.1,1.3-0.1,1.8-0.5c0.6-0.7,1.3-1.4,2-2.1c0.1,0.6-0.1,1.1-0.4,1.6c-0.2-0.1-0.3-0.2-0.5-0.3
			c-0.2,0-0.3,0.2-0.3,0.4c0.1,0.1,0.1,0.3,0.3,0.4c-0.6,0.4-1.3,0.5-2,0.7c-1.3,0.2-2.5,0.3-3.8,0.3c-0.6,0-1.3,0.2-1.9,0
			c-0.7,0.1-1.4-0.1-1.9,0.3c-0.1,0.1,0,0.2,0,0.3c0.8,0.5,1.9,0.1,2.8,0.3h6.9c0.5,0,1,0,1.4-0.3c0.9-0.5,1.4-1.4,1.8-2.3
			c0.2-0.3,0.3-0.7,0.4-1.1c0.2-0.6,0.7-1,1.3-1.1c0.1,0.9-0.1,1.8-0.3,2.7c-0.1,0.6-0.5,1.1-0.2,1.7c0.1,0.3,0.4,0.3,0.6,0.3
			c2.1,0,4.2-0.1,6.5,0c0.4,0.1,0.8,0.2,1.2,0.2c0-0.1,0.2-0.1,0.1-0.2c-0.1-0.2-0.2-0.4-0.4-0.5c0-0.1-0.2-0.1-0.2-0.1
			c-1.1-0.6-2.5-0.3-3.8-0.3c-0.7,0.1-1.4,0.2-1.9-0.2c-0.3-0.3-0.1-1.3-0.1-1.3c0-0.4,1-3.2,1.1-3.4c0-0.3,0.1-0.5,0.1-0.8
			c0.1-0.4,0.1-0.8,0.1-1.2c0.1-0.6,0.4-1.1,0.5-1.6c0.1-0.3,0.2-0.5,0.3-0.8c0.1-0.3,0.1-0.7,0.4-0.9c0.6,0.4,1.1,0.4,1.4,1
			l0.2,1.5c0,0.1,0.1,0.3,0.2,0.2c0.5-0.3,0.3-1,0.3-1.4c0.1-0.5-0.3-0.8-0.4-1.3c-0.1-0.1-0.3-0.5-0.3-0.5
			c-0.1-0.4-0.9-0.7-0.7-1.1c0.1-0.4,0.2-0.8,0.6-1c0.1,0,0.1,0.1,0.1,0.1l0.2-0.1l0-1.5c0.6,0,1.4,0.1,2,0.1
			c0.2,0.1,0.3,0.2,0.5,0.2l0.1-0.2l1.4-0.3C30.1,15.7,29.7,15,29.2,15L29.2,15z"/>
		<path fill="#FFFFFF" d="M30.7,15.7c0,0,0.1,0,0.1,0L30.7,15.7L30.7,15.7z"/>
		<path d="M15.5,20.6c0,0.2-0.1,0.3-0.3,0.4c-0.1-0.1-0.2-0.1-0.3-0.2c-0.1-0.2,0.1-0.3,0.2-0.4C15.2,20.4,15.4,20.4,15.5,20.6
			L15.5,20.6z"/>
		<path d="M14.3,20.6c0.1,0.1,0.1,0.3,0.1,0.4c-0.1,0.1-0.3,0.2-0.4,0.1c-0.1-0.1-0.2-0.2-0.1-0.4C14,20.6,14.2,20.4,14.3,20.6
			L14.3,20.6z"/>
		<path fill="#FFFFFF" d="M38.7,20.8C38.7,20.8,38.7,20.8,38.7,20.8"/>
		<path d="M52.1,21.1c0.1,0.2-0.1,0.3-0.2,0.4c-0.2-0.1-0.4-0.1-0.4-0.3c0-0.1,0.1-0.2,0.3-0.3C51.9,20.9,52,21,52.1,21.1L52.1,21.1
			z"/>
		<path d="M53,21c0.1,0.1,0.2,0.2,0,0.3c-0.1,0.1-0.1,0.1-0.2,0.1c-0.2,0-0.4,0-0.4-0.2c0-0.2,0.1-0.3,0.3-0.4
			C52.8,20.9,52.9,21,53,21L53,21z"/>
		<path d="M9.9,21.3c-0.1,0.2-0.2,0.3-0.5,0.2c-0.1-0.1-0.1-0.1-0.1-0.2c0-0.1,0.1-0.2,0.2-0.3C9.7,21,9.9,21.1,9.9,21.3L9.9,21.3z"
			/>
		<path d="M15.8,21.6c0,0.1-0.2,0.3-0.3,0.3c-0.2,0-0.3-0.1-0.4-0.2c0-0.1,0.1-0.3,0.2-0.4C15.5,21.2,15.7,21.4,15.8,21.6L15.8,21.6
			z"/>
		<path d="M14.8,21.4c0.1,0.1,0.1,0.2,0.1,0.3c-0.1,0.1-0.3,0.2-0.4,0.1c-0.1-0.1-0.2-0.2-0.2-0.3c0.1-0.1,0.2-0.2,0.3-0.2
			C14.6,21.3,14.7,21.4,14.8,21.4L14.8,21.4z"/>
		<path d="M55.7,21.6c0,0.1-0.1,0.3-0.2,0.3c-0.1,0.1-0.3,0-0.4-0.1c-0.1,0-0.1-0.2-0.1-0.3c0.1-0.1,0.2-0.2,0.3-0.2
			C55.5,21.4,55.6,21.5,55.7,21.6L55.7,21.6z"/>
		<path d="M56.8,21.8c-0.1,0.2-0.2,0.3-0.3,0.3c-0.1,0-0.3-0.1-0.3-0.2c0-0.1,0.1-0.2,0.2-0.3C56.5,21.5,56.7,21.6,56.8,21.8
			L56.8,21.8z"/>
		<path d="M11.9,22.1c0,0.2,0,0.4-0.2,0.4c-0.1,0.1-0.2,0-0.3-0.1c-0.1-0.1-0.2-0.2-0.1-0.4c0-0.2,0.2-0.1,0.3-0.2
			C11.7,21.9,11.8,21.9,11.9,22.1L11.9,22.1z"/>
		<path d="M12.8,22.2c0.1,0.1-0.1,0.2-0.1,0.3c-0.1,0.1-0.2,0.1-0.3,0c-0.1-0.1-0.3-0.3-0.1-0.4C12.3,21.9,12.7,22,12.8,22.2
			L12.8,22.2z"/>
		<path d="M54.6,22.1c0,0.2-0.1,0.3-0.2,0.4c-0.2,0-0.3-0.1-0.4-0.2c0-0.1,0.1-0.2,0.2-0.3C54.4,22,54.6,22,54.6,22.1L54.6,22.1z"/>
		<path d="M56.1,22.4c0,0.2,0,0.3-0.2,0.4c-0.1,0-0.3,0-0.4-0.1c-0.1-0.1-0.1-0.2-0.1-0.4c0.1-0.1,0.2-0.2,0.4-0.2
			C55.9,22.3,56,22.4,56.1,22.4L56.1,22.4z"/>
		<path d="M11.2,22.8c0.1,0.1-0.1,0.2-0.1,0.2c-0.1,0.1-0.2,0-0.4,0c-0.1-0.1-0.1-0.2-0.1-0.3C10.9,22.4,11.2,22.6,11.2,22.8
			L11.2,22.8z"/>
		<path d="M55,23.1c0.1,0,0,0.1,0,0.2c-0.4,0.2-1.1,0.3-1.4-0.1c-0.2-0.2-0.5-0.2-0.7-0.4c0.1-0.2,0.4-0.2,0.6-0.3
			C54,22.6,54.4,23.1,55,23.1L55,23.1z"/>
		<path d="M12.1,23c0,0.1-0.1,0.2-0.1,0.3c-0.1,0.1-0.2,0.1-0.3,0c-0.2-0.1-0.2-0.3-0.1-0.4C11.8,22.7,12,22.8,12.1,23L12.1,23z"/>
		<path d="M13.6,23.1c0.1,0.2,0,0.3-0.2,0.4c-0.1,0.1-0.2,0-0.3-0.1C13,23.3,12.9,23.1,13,23C13.2,22.7,13.5,22.9,13.6,23.1
			L13.6,23.1z"/>
		<path d="M33.9,23.8c0,0.4-0.6-0.1-0.5,0.4c0.1,0.3,0.2,0.7,0.4,1c0.2,0.2,0.1,0.6,0.1,0.9c-0.2,0.3-0.4,0.4-0.7,0.6
			c-0.5-0.1-1.2,0.3-1.5-0.4c-0.1-0.3-0.3-0.5-0.3-0.8c0.1,0,0.1,0,0.2-0.1c0-0.1-0.1-0.2-0.1-0.3c0.6-0.1-0.2-0.6,0.2-0.6
			c0.4,0.4,1,0.3,1.4,0.7c0.1,0.1,0.1,0.2,0.2,0.2C33.2,25,33,24.6,33,24.1c-0.1-0.2,0-0.5,0.2-0.6C33.5,23.3,33.7,23.6,33.9,23.8
			L33.9,23.8z"/>
		<path d="M15.2,23.7c0.1,0.2-0.1,0.3-0.2,0.4c-0.2,0.1-0.2-0.1-0.3-0.2c-0.1-0.2,0.1-0.3,0.2-0.4C15,23.5,15.1,23.6,15.2,23.7
			L15.2,23.7z"/>
		<path d="M26,23.9c0.2,0.7,0.1,1.4-0.2,2c0,0.1,0,0.4-0.2,0.4c-0.5-0.7-0.1-1.6,0.1-2.3C25.7,23.8,25.9,23.7,26,23.9L26,23.9z"/>
		<path d="M41,24.2c0.2,0.5,0.3,1.1,0,1.6L40.9,26c-0.2-0.4-0.4-0.8-0.4-1.3c0.1-0.3,0.2-0.6,0.2-0.9C40.9,23.7,40.9,24.1,41,24.2
			L41,24.2z"/>
		<path d="M16.5,24.4c-0.1,0.2-0.4,0.3-0.6,0.4c-0.4,0.3-1,0.4-1.6,0.3c0.5-0.6,1.2-1,2-0.8C16.4,24.3,16.5,24.3,16.5,24.4
			L16.5,24.4z"/>
		<path d="M9.3,25c0.6,0.5,0.8,1.1,1.2,1.7c0.1,0.1,0.2,0.1,0.2,0.2c-0.1,0.1-0.3-0.1-0.5-0.1c-0.7-0.3-1.1-1-1.1-1.8
			C9.2,25,9.3,25,9.3,25L9.3,25z"/>
		<path d="M40.3,25.6c0,0.2,0,0.4-0.2,0.4c-0.2,0.1-0.4-0.1-0.4-0.2c-0.1-0.1,0.1-0.2,0.1-0.3C40,25.4,40.2,25.4,40.3,25.6
			L40.3,25.6z"/>
		<path d="M47.7,26.5c0-0.3,0.1-0.7,0.1-1c0.1-0.1,0.1-0.2,0.1-0.4c0.4-0.6,1.3-0.4,1.9-0.3c0.3,0.1,0.6,0.1,0.9,0.2
			c0.1-0.1,0.3-0.1,0.4-0.1c0.6-0.3,0.2-1,0.2-1.5L51.2,23c-0.1-0.1-0.1-0.2-0.1-0.4c-0.1-0.1-0.2-0.4-0.3-0.5
			c-0.3-0.8-0.9-1.2-1.4-1.8c-0.9-1.2-2.3-1.8-3.7-2.3c-1.4-0.5-2.8,0.1-4,0.6c-0.4-0.1-0.6-0.4-0.7-0.7c-0.1-0.7,0.1-1.3,0.3-1.9
			c0.1-0.4,0.3-0.8,0.5-1.2c0.3-1,0.6-2,0.7-3c0-0.7-0.5-1.1-0.9-1.4c-0.3-0.1-0.7-0.1-1,0.2c-0.2,0.5-0.7,0.8-1.1,1
			c0,0.3,0.3,0.1,0.5,0.2c0.4,0.1,0.8-0.1,1.1,0.2c0,0.7-0.4,1.3-0.7,1.8c-0.6,0.9-1.2,1.8-1.6,2.8l-0.1-0.1l0.1,4.3
			c0.6,0.9,1.3,2,2.3,2.3c0.6,0.5,1.3,1,2,0.6c0.4-0.1,0.4,0.4,0.6,0.7c0.2,0.7-0.3,1.1-0.3,1.7l-0.5,1c-0.5,1-1,2.1-1.8,3
			c-0.3,0-0.4,0.3-0.7,0.3c-0.1,0.2-0.4,0.1-0.6,0.1c-0.5,0.2-1.3,0.1-1.7,0.6c0,0.1,0.1,0.1,0.1,0.1c1.1,0,2.3,0.1,3.4,0
			c0.1-0.1,0.3-0.2,0.3-0.3c-0.2-0.3,0.1-0.6,0.2-0.8c0.1-0.4,0.4-0.7,0.5-1.1c0.4-0.7,0.8-1.4,1.2-2.2l0.5-0.9
			c0.1-0.3,0.3-0.7,0.5-1c0.1-0.1,0.2-0.3,0.3-0.5c0-0.2-0.1-0.2-0.2-0.4c0.1-0.1,0.3-0.1,0.5-0.1c0.4,0.3,0.9,0.7,1,1.2l0.2,0.5
			l0.1,0.2l0,0.6l0.1,0.5c0.1,0.8-0.1,1.7-0.2,2.6c-0.3,1-1.5,0.9-2.3,1.1c-0.2,0.1-0.6,0.1-0.6,0.4c1,0.2,2.2,0.1,3.3,0.1
			c0.2-0.1,0.2-0.2,0.3-0.4c0-0.2,0.3-0.4,0.2-0.7c-0.2-0.2,0-0.6-0.1-1c0-0.1,0-0.2,0-0.3c0.1-0.5,0.1-1.1,0.2-1.6L47.7,26.5
			L47.7,26.5z"/>
		<path d="M56.3,25.8c-0.6,0.8-1.2,1.7-2.1,2c-0.1,0-0.1,0-0.2-0.1c0.6-0.6,0.9-1.6,1.8-1.9C56,25.8,56.2,25.8,56.3,25.8L56.3,25.8z
			"/>
		<path d="M8.5,26.7c-0.1,0.1,0,0.2-0.2,0.2c-0.1,0.1-0.3,0-0.4-0.2c-0.1-0.2,0.1-0.4,0.2-0.4C8.3,26.5,8.4,26.5,8.5,26.7L8.5,26.7z
			"/>
		<path d="M13.5,26.9c0.1,0.2-0.1,0.2-0.2,0.2c-0.7,0.3-1.5,0-2-0.5c0-0.1,0-0.1,0.1-0.2C12.1,26.6,12.9,26.5,13.5,26.9L13.5,26.9z"
			/>
		<path d="M9.4,26.7c0,0.1,0.1,0.2,0,0.3c-0.1,0.2-0.3,0.2-0.4,0.2c-0.1-0.1-0.2-0.1-0.2-0.2c0-0.2,0.2-0.3,0.3-0.3
			C9.2,26.6,9.4,26.6,9.4,26.7L9.4,26.7z"/>
		<path d="M25.9,26.8c0,0.2-0.1,0.3-0.2,0.3c-0.2,0-0.3,0-0.4-0.1c-0.1-0.1,0-0.3,0.1-0.3C25.6,26.6,25.8,26.6,25.9,26.8L25.9,26.8z
			"/>
		<path d="M57,26.9c0.1,0.2-0.1,0.3-0.2,0.4c-0.1,0.1-0.2,0-0.3-0.1c0-0.1-0.1-0.2-0.1-0.3c0.1-0.2,0.2-0.2,0.4-0.2
			C56.8,26.8,56.9,26.8,57,26.9L57,26.9z"/>
		<path d="M58.1,26.8c0.1,0.2,0,0.3-0.1,0.4c-0.1,0.1-0.2,0.2-0.3,0.1c-0.1-0.1-0.2-0.2-0.3-0.3c0-0.1,0.2-0.2,0.3-0.3
			C57.9,26.6,58,26.8,58.1,26.8L58.1,26.8z"/>
		<path d="M7.7,27.3c0,0.1-0.1,0.2-0.1,0.3c-0.1,0-0.2,0.1-0.3,0.1c-0.1-0.1-0.2-0.2-0.3-0.3c0-0.2,0.1-0.3,0.3-0.4
			C7.5,27.1,7.7,27.2,7.7,27.3L7.7,27.3z"/>
		<path d="M44.7,27.3c0,0.1,0,0.2,0,0.2c-0.1,0.1-0.2,0.3-0.4,0.2c-0.1-0.1-0.2-0.2-0.2-0.4C44.2,27.2,44.5,27.1,44.7,27.3
			L44.7,27.3z"/>
		<path d="M10.6,27.6c0,0.1-0.1,0.2-0.2,0.3c-0.2,0-0.2-0.1-0.3-0.2c0-0.2,0-0.3,0.1-0.4C10.4,27.2,10.6,27.3,10.6,27.6L10.6,27.6z"
			/>
		<path d="M8.9,27.6c0.1,0.2-0.1,0.3-0.2,0.4c-0.2,0.1-0.4-0.1-0.5-0.2c0-0.2,0.1-0.4,0.3-0.4C8.7,27.3,8.8,27.5,8.9,27.6L8.9,27.6z
			"/>
		<path d="M45.8,27.6c0,0.2,0,0.4-0.2,0.4c-0.2,0.1-0.4-0.1-0.5-0.2c0.1-0.1,0.1-0.3,0.3-0.4C45.6,27.4,45.7,27.5,45.8,27.6
			L45.8,27.6z"/>
		<path d="M9.7,27.6c0.1,0.1-0.1,0.2-0.1,0.3c-0.1,0-0.1,0.1-0.2,0.1c-0.1-0.1-0.2-0.1-0.2-0.2c0-0.2,0.1-0.3,0.2-0.3
			C9.5,27.4,9.6,27.5,9.7,27.6L9.7,27.6z"/>
		<path d="M56,27.8c-0.1,0.1-0.2,0.2-0.3,0.3c-0.1,0-0.2-0.1-0.3-0.1c-0.1-0.1-0.1-0.2,0-0.3C55.6,27.3,56,27.5,56,27.8L56,27.8z"/>
		<path d="M57.4,27.9c-0.1,0.2-0.2,0.3-0.4,0.3c-0.2-0.1-0.3-0.2-0.2-0.4c0.1-0.1,0.1-0.1,0.2-0.2C57.1,27.5,57.3,27.7,57.4,27.9
			L57.4,27.9z"/>
		<path d="M49,28c0.1,0.2-0.1,0.3-0.3,0.4c-0.1,0-0.2-0.1-0.3-0.1c0-0.2,0.1-0.4,0.2-0.5C48.8,27.8,48.9,27.9,49,28L49,28z"/>
		<path d="M44.2,28.2c0.1,0,0.1,0.2,0,0.2c-0.1,0.1-0.2,0.2-0.4,0.1c-0.1-0.1-0.2-0.2-0.2-0.3C43.8,28,44.1,28,44.2,28.2L44.2,28.2z
			"/>
		<path d="M45.2,28.3c0,0.1,0,0.2-0.1,0.3c-0.1,0.1-0.3,0-0.4-0.1c0-0.1-0.1-0.2,0-0.3c0.1-0.1,0.1-0.1,0.2-0.1
			C45,28.2,45.1,28.2,45.2,28.3L45.2,28.3z"/>
		<path d="M15.5,28.3c0.1,0.1,0,0.2,0,0.3c-0.1,0.1-0.3,0.2-0.4,0.1c-0.2-0.1-0.2-0.3-0.1-0.4c0.1,0,0.1-0.2,0.2-0.2
			C15.3,28.2,15.3,28.2,15.5,28.3L15.5,28.3z"/>
		<path d="M50.9,28.4c0,0.2-0.1,0.2-0.3,0.3c-0.2,0.1-0.3-0.1-0.4-0.2c0-0.1,0.1-0.2,0.1-0.3C50.6,28.1,50.8,28.3,50.9,28.4
			L50.9,28.4z"/>
		<path d="M50,28.4c0.1,0.2-0.1,0.3-0.2,0.4c-0.1,0.1-0.3,0-0.4-0.1c-0.1-0.1-0.1-0.2-0.1-0.3c0.1-0.1,0.2-0.2,0.3-0.2
			C49.7,28.2,49.9,28.3,50,28.4L50,28.4z"/>
		<path d="M57.9,28.6c0,0.2-0.3,0.1-0.4,0.2c-0.7,0.4-1.7,0.1-2.4-0.2c0.1-0.2,0.3-0.1,0.5-0.2C56.3,27.9,57.1,28.5,57.9,28.6
			L57.9,28.6L57.9,28.6z"/>
		<path d="M9.9,28.4l-0.1,0.1c-0.6,0.4-1.5,0.7-2.3,0.4l-0.1-0.1C8.1,28.4,9,28.2,9.9,28.4L9.9,28.4L9.9,28.4z"/>
		<path d="M52.7,28.5c0,0.1-0.1,0.3-0.2,0.3c-0.2,0.1-0.4,0-0.5-0.2c-0.1-0.1,0.1-0.3,0.2-0.3C52.4,28.3,52.6,28.4,52.7,28.5
			L52.7,28.5z"/>
		<path d="M13,28.6c-0.1,0.1,0,0.3-0.2,0.4c-0.2,0.1-0.4-0.1-0.4-0.2c-0.1-0.2,0.1-0.2,0.2-0.3C12.8,28.3,12.9,28.4,13,28.6L13,28.6
			z"/>
		<path d="M11.8,28.7c0.1,0.1-0.1,0.2-0.1,0.3c-0.1,0.1-0.2,0.1-0.4,0.1c-0.1-0.1-0.2-0.2-0.2-0.4c0.1-0.1,0.2-0.1,0.3-0.2
			C11.6,28.4,11.8,28.5,11.8,28.7L11.8,28.7z"/>
		<path d="M53.9,29.1c0,0.2-0.1,0.3-0.3,0.3c-0.1,0-0.3-0.1-0.3-0.2c-0.1-0.1,0-0.2,0.1-0.3c0-0.1,0.2-0.1,0.2-0.1
			C53.8,28.8,53.9,29,53.9,29.1L53.9,29.1z"/>
		<path d="M10.5,28.9c0.1,0.1-0.1,0.2-0.1,0.3c-0.1,0.3-0.2,0.5-0.4,0.8c-0.3,0.4-0.8,0.4-1.3,0.5l-0.1-0.1
			C9.2,29.7,9.7,29.2,10.5,28.9L10.5,28.9L10.5,28.9z"/>
		<path d="M53,29.3c0,0.2-0.1,0.2-0.3,0.3c-0.2,0-0.3-0.1-0.4-0.2c-0.1-0.2,0.1-0.3,0.2-0.4C52.8,29,53,29.2,53,29.3L53,29.3z"/>
		<path d="M12.5,29.3C12.5,29.3,12.5,29.4,12.5,29.3c0,0.3-0.1,0.3-0.2,0.4c-0.2,0-0.3-0.1-0.4-0.2c-0.1-0.2,0-0.4,0.2-0.4
			C12.2,29.1,12.5,29.1,12.5,29.3L12.5,29.3z"/>
		<path d="M56.3,29.8c0.2,0,0.2-0.2,0.4-0.3c0.2,0,0.3,0.1,0.4,0.2c0.1,0.2-0.1,0.3-0.2,0.4c-0.1,0.1-0.4-0.1-0.4,0.1
			c0.1,0.1,0.2,0.2,0.2,0.4c0,0.1-0.2,0.1-0.2,0c-0.5-0.2-1.1-0.6-1.3-1.1c-0.1-0.2-0.4-0.3-0.2-0.4C55.6,29.1,56,29.5,56.3,29.8
			L56.3,29.8z"/>
		<path d="M58,29.3c0.1,0.1,0.1,0.2,0,0.3c-0.1,0.2-0.4,0.1-0.5,0.1c-0.1-0.1-0.2-0.2-0.1-0.3c0.1-0.1,0.1-0.2,0.3-0.2
			C57.7,29.1,57.8,29.2,58,29.3L58,29.3z"/>
		<path d="M51.6,30.2c0.2,0.2,0.3,0.5,0.4,0.7c0,0.1-0.1,0-0.2,0c-0.6-0.3-1.4-0.7-1.6-1.4c-0.1-0.1-0.2-0.2-0.2-0.3
			c0.5-0.1,0.9,0.2,1.2,0.5C51.4,29.9,51.5,30,51.6,30.2L51.6,30.2z"/>
		<path d="M11.5,29.6c0.1,0.2-0.1,0.3-0.2,0.4c-0.2,0-0.3,0-0.4-0.1c-0.1-0.2,0.1-0.4,0.2-0.4C11.3,29.3,11.4,29.5,11.5,29.6
			L11.5,29.6z"/>
		<path d="M53.8,30c0,0.1-0.1,0.2-0.2,0.2c-0.1,0-0.3,0.1-0.4-0.1c0-0.1-0.1-0.2,0-0.3C53.4,29.6,53.7,29.8,53.8,30L53.8,30z"/>
		<path d="M58.1,30.2c0.1,0.2-0.1,0.4-0.2,0.4c-0.2,0.1-0.3-0.1-0.4-0.2c-0.1-0.1,0-0.2,0-0.3c0.1-0.1,0.3-0.2,0.5-0.1
			C58,30.1,58.1,30.1,58.1,30.2L58.1,30.2z"/>
		<path d="M46,32.6c0,0.2-0.4,0.2-0.5,0.3c-0.5,0.3-1.2,0.3-1.8,0.3v-0.1C44.3,32.6,45.2,32.4,46,32.6L46,32.6z"/>
		<path d="M20.4,33.4c0,0.2-0.1,0.2-0.3,0.3c-0.1,0-0.2-0.1-0.3-0.2c-0.1-0.2,0.1-0.3,0.2-0.4C20.3,33.2,20.4,33.3,20.4,33.4
			L20.4,33.4z"/>
		<path d="M45.7,33.6c0,0.2-0.1,0.3-0.3,0.4c-0.2,0-0.3-0.1-0.4-0.1c-0.1-0.1,0-0.2-0.1-0.3C45.1,33.3,45.6,33.3,45.7,33.6
			L45.7,33.6z"/>
		<path d="M49.2,33.7c-0.4,0.3-0.9,0.6-1.5,0.6l-0.9,0l-0.1-0.1c0.6-0.7,1.6-0.7,2.5-0.6V33.7L49.2,33.7z"/>
		<path d="M15.6,34.1c0,0.2-0.1,0.3-0.2,0.3c-0.2,0-0.3,0-0.4-0.2c-0.1-0.2,0-0.3,0.1-0.4C15.4,33.7,15.6,34,15.6,34.1L15.6,34.1z"
			/>
		<path d="M16.5,34.3c0.1,0.1,0,0.1-0.1,0.2c-0.1,0.1-0.2,0.1-0.3,0C16,34.4,16,34.3,16,34.2c0.1-0.1,0.2-0.1,0.2-0.2
			C16.3,34.1,16.5,34.1,16.5,34.3L16.5,34.3z"/>
		<path d="M9.8,36.1c-0.2,0.2-0.5-0.1-0.6-0.2c-0.6-0.4-0.6-1-1.2-1.4c0.1-0.2,0.2,0,0.4,0c0.1,0.1,0.2,0.1,0.4,0.2
			C9.3,35,9.4,35.5,9.8,36.1L9.8,36.1z"/>
		<path d="M60.9,29.2c-0.3-0.5-0.8-0.7-1.3-0.7c-0.5,0-0.8,0.3-1,0.7c-0.1,0.4,0,0.7,0.3,1c0.1,0.1,0.3,0,0.4-0.1
			c0.1-0.2-0.2-0.2-0.2-0.4c-0.1-0.2,0-0.5,0.2-0.6c0.2-0.2,0.5-0.1,0.7-0.1c0.2,0.1,0.4,0.3,0.5,0.5c0.1,0.3,0.1,0.6,0,0.9
			c-0.2,0.4-0.6,0.8-1.1,0.9C58,31.5,42,31.4,42,31.4c-1.9,0.2-4-0.4-5.6,0.6c-0.7,0.4-1.1,1.2-1.3,1.9c-0.5,0.4-1,0.9-1.4,1.4
			l-0.1-0.1c0.1-0.4,0.3-0.8,0.4-1.2c0.3-0.4,0.3-0.8,0.5-1.2c0.7-1.1,1.3-2.2,2.3-2.9c0.4-0.6,1.2-0.5,1.9-0.5
			c0.7,0.3,1.6,0.4,2.4,0.4c0,0,0.1-0.1,0.1-0.1c-0.2-0.2-0.6-0.3-0.9-0.5c-0.7-0.3-1.4,0.1-2.1,0.1c0,0-0.1-0.1-0.1-0.1
			c0.7-0.5,1.4-0.8,2.2-1.2c0.6-0.3,1.3-0.5,1.9-0.8c0.3,0,0.5-0.2,0.8-0.1l0.9-0.2c0,0,0.1,0.1,0.1,0.1c0.8-0.3,1.8,0,2.7,0
			l0.1,0.1l0.8,0.2c0.3,0,0.5,0.4,0.8,0.4c0.2-0.2-0.2-0.4-0.3-0.5c0.4-0.1,0.8,0,1.2,0.2l-0.2,0.2c-0.1,0.2,0.1,0.3,0.2,0.4
			c0.1,0,0.2-0.1,0.3-0.1c0.2-0.2,0-0.3,0.1-0.5c1.3,0.2,2.5,0.5,3.7,1.1c0.3,0.1,0.6,0.4,1,0.3c-0.4-0.3-0.9-0.5-1.3-0.7
			c-0.3-0.2-0.7-0.2-0.9-0.4c0.1-0.1,0.2-0.1,0.2-0.1c0.6-0.1,1.1-0.5,1.5-1c0-0.1,0.2-0.1,0.2-0.2c-0.2-0.2-0.4,0.1-0.6,0
			c-0.7,0.1-1.1,1-1.8,1.2c-0.9-0.2-1.8-0.4-2.7-0.7c-0.4-0.1-0.9-0.1-1.3-0.3l-1-0.1h-1.8c0,0-0.1-0.1-0.1-0.1
			c0.6-0.2,1.2-0.5,1.8-0.7l4.7-2.2c0.5-0.4,0.9-0.9,1.3-1.4c0-0.1-0.1-0.3-0.2-0.3c-0.1-0.1-0.3,0-0.4,0.1c-0.2,0.2,0,0.4,0,0.5
			c-0.2,0.3-0.5,0.5-0.8,0.7c-0.1,0-4.8,2.2-4.8,2.2c-0.7,0.3-1.4,0.6-2.1,0.8l-1,0.2c-0.1,0.2-0.2,0.3-0.4,0.4
			c-0.3,0.1-0.5,0.2-0.8,0.2c-2.3,0.9-4.6,1.8-6.4,3.6c0.1-0.2,0.2-0.5,0.2-0.7c0-0.3,0-0.6-0.2-0.8c0-0.1-0.2-0.4-0.1-0.5l-0.3,0.2
			c-0.2,0.4-0.3,1.1-0.1,1.5c0.1,0.3,0.3,0.7,0.1,1c-0.8,1-1.3,2.3-1.9,3.4c-0.2,0-0.3-0.2-0.4-0.4c0.6-0.8,1.1-1.6,1.2-2.6
			c0.1-0.1,0-0.3,0.2-0.4c0-0.3,0.2-0.6,0-0.8c0.1-0.4-0.5-0.7-0.1-1l-0.3,0.2c-0.8,1,0.4,2.5-0.5,3.4v0.1c-0.2,0.3-0.4,0.6-0.7,0.8
			c-0.4-0.2-0.6-0.7-0.8-1c-0.4-0.4-0.4-1.1-0.2-1.6c0.2-0.5-0.1-1-0.2-1.4l-0.2-0.1c-0.4,0.5-0.6,1.4-0.2,2.1
			c0.2,0.3,0.2,0.8,0.5,1c0.2,0.5,0.5,0.8,0.8,1.3c0.1,0.2-0.1,0.2-0.2,0.3c-0.2-0.1-0.2-0.4-0.3-0.5c-0.6-1.2-1.3-2.2-2.2-3.2
			c0-0.2-0.2-0.3-0.1-0.5c0.3-0.3,0.4-0.9,0.2-1.3c0-0.1-0.1-0.2-0.1-0.3l-0.3-0.2c0,0.6-0.4,1.2-0.2,1.8v0
			c-1.8-1.4-3.8-2.6-5.8-3.5L23.2,27c0.5,0.1,1.9,1,1.9,1c0.6,0.2,1.2,0.6,1.8,0.9c2.4,1.3,4,3.5,5,5.9c0,0.2,0.2,0.4,0.1,0.6
			c-0.4-0.6-0.9-0.9-1.3-1.3c-0.1-0.8-0.6-1.6-1.3-2c-0.3-0.4-0.8-0.4-1.3-0.5l-6.4,0c-5.2-0.1-9.9,0.2-15.1,0.1
			c-0.7-0.1-1.6-0.3-1.8-1.1c-0.1-0.3-0.1-0.7,0-1c0.2-0.3,0.5-0.4,0.9-0.5c0.3,0,0.5,0.3,0.6,0.5c0,0.2-0.2,0.4-0.3,0.6
			c0,0.1,0.1,0.2,0.2,0.2c0.2-0.1,0.4-0.3,0.5-0.6c0-0.1,0.1-0.3-0.1-0.4C6.4,29,6,28.8,5.7,28.7c-0.4,0-0.9,0.1-1.2,0.4
			c-0.4,0.4-0.4,1-0.3,1.5c0.3,0.8,1.1,1.3,1.9,1.4l17.1,0.1c1.7,0.1,3.5-0.2,5.2,0.1c0.6,0.2,1.3,0.7,1.4,1.3c0,0-0.1,0-0.1,0
			c-1.4-0.9-3.2-1.2-5-1c-0.7,0-1.3,0.2-2,0.4c-0.3,0.1-0.6-0.1-0.9-0.3c-0.6-0.6-1.7-0.5-2.5-0.3c0,0.1,0,0.1,0,0.1
			c0.9-0.1,1.4,0.7,2.1,0.8c0.2,0,0.3-0.2,0.5,0c-0.8,0.4-1.6,0.8-2.4,1.1c-0.3-0.1-0.4-0.3-0.6-0.4c-0.3-0.4-0.9-0.2-1.4-0.2
			c-0.2,0-0.3-0.1-0.4,0c0.1,0.3,0.5,0.4,0.8,0.6c0.4,0.2,0.9,0,1.3,0.2c-0.1,0.1-0.2,0.2-0.4,0.2c-0.8,0.3-1.5,1.1-2.4,1
			c-1,0.1-1.9-0.2-2.6-0.8c-0.3-0.7-1-1.1-1.8-1c-0.1,0-0.1,0-0.1,0.1c0.4,0.2,0.7,0.7,1.1,1c0.2,0.3,0.7,0,0.9,0.3
			c0.3,0.2,0.8,0.4,1.1,0.5c0.3,0.1,0.6,0.2,0.9,0.2l-0.1,0.1c-1.6,0.5-3.4,0.6-5.2,0.5c-0.5,0-1-0.2-1.6-0.2
			c0.1,0.1,0.3,0.2,0.4,0.2c-0.1,0.1-0.3,0.1-0.5,0.1c-0.2,0.1-0.5,0.1-0.7,0.2c-0.3,0-0.5,0.1-0.8,0.2c-0.3,0.3-0.6,0.7-1,0.8
			c0,0.1,0,0.2,0.1,0.2c0.3-0.1,0.8,0,1.1-0.2c0.6-0.1,0.9-0.7,1.4-1c0.5-0.4,1.2-0.3,1.8-0.2c0.4,0.1,0,0.2,0.1,0.5
			c0.1,0.1,0.3,0.3,0.5,0.2c0,0,0.1-0.1,0.1-0.1c0.1-0.1,0.1-0.3,0-0.4c0.2-0.2,0.6,0,0.8-0.1c0.7,0,1.3-0.2,2-0.2
			c0.1,0,0.2-0.1,0.3,0c-0.1,0.1-0.2,0.2-0.2,0.4c0,0.2,0.2,0.2,0.4,0.3c0.2-0.1,0.3-0.2,0.3-0.4c0-0.1-0.2-0.1-0.3-0.2
			c0.4-0.2,0.8-0.2,1.2-0.4c0.3-0.1,0.5-0.1,0.7-0.2c0.2,0,0.4-0.2,0.6-0.1c-0.1,0.3-0.2,0.6-0.4,0.8c-0.3,0.9-0.5,2.2,0,3.1
			c0.1,0,0.1,0,0.1,0c-0.4-0.9-0.2-2,0.2-2.9c0.2-1.5,1.8-1.9,2.9-2.5l0.1,0.1c-0.3,0.8-0.7,1.5-0.7,2.5c0,0.2-0.1,0.3,0,0.4
			c0.3-0.2,0.5-0.5,0.6-0.8c0.1-0.8-0.3-1.8,0.5-2.4c1.4-0.6,2.8-1.3,4.5-1.3c0.1,0.1,0.2,0,0.2,0.1c-0.4,0.4-0.9,0.8-1,1.2
			c-0.6,0.8-0.5,2.1-0.3,3.1c0.2,0.5-0.3,0.8-0.5,1.3c-0.1,0.1-0.1,0.4-0.2,0.6l0.3,0c0.3-0.3,0.6-0.7,0.6-1.2
			c0,0.2,0.2,0.3,0.3,0.4c0.1-0.2-0.1-0.3-0.1-0.5c0.3-0.2,0.4,0.2,0.6,0.3c0.4,0.1,0.7,0.2,1.1,0.2l0.1-0.1
			c-0.4-0.6-1.2-0.7-1.8-0.7c-0.4-0.6-0.4-1.3-0.3-2c0.1-0.4,0.1-0.8,0.4-1.1c0.1-0.2,0.3-0.5,0.5-0.7c0.3-0.3,0.7-0.5,1.1-0.6h0.1
			c0,0,0,0.1,0,0.1c-0.5,0.4-0.5,0.9-0.8,1.3c-0.3,0.4-0.4,1-0.2,1.5c0.1,0.2,0.1,0.6,0.3,0.7c0.2-0.3,0.2-0.7,0.4-1.1
			c-0.1-0.6-0.4-1.1-0.1-1.7c0.2-0.4,0.5-0.6,0.9-0.8c1-0.1,1.8,0.4,2.6,0.8c0.2,0.1,0.5,0.2,0.5,0.5c0,0.5-0.3,1-0.6,1.2
			c-0.5,0.3-1.2,0.3-1.6,0c-0.3-0.3-0.4-0.7-0.3-1.1c0.2-0.2,0.5-0.4,0.8-0.3c0.2,0.1,0.3,0.3,0.6,0.2c0.1-0.1,0.1-0.2,0.1-0.3
			c-0.2-0.1-0.3-0.4-0.5-0.4c-0.3-0.1-0.7,0-1,0.2c-0.4,0.3-0.5,0.8-0.4,1.2c0.1,0.6,0.5,1,1.1,1.1c0.8,0.2,1.6-0.1,2.2-0.7
			c0.2-0.2,0.3-0.5,0.4-0.8c0.8,0.5,1.5,1.4,1.8,2.3c0,0.3,0.1,0.6,0,0.9l0.6,0.1c-0.1-0.1,0-0.3,0.1-0.4c0.2-1.2,0.9-2.1,1.8-2.9
			c0.3-0.2,0.2,0.2,0.3,0.4c0.3,0.7,0.9,1.1,1.5,1.3c0.7,0.1,1.4-0.1,1.9-0.6c0.2-0.4,0.5-1,0.1-1.5c-0.2-0.3-0.6-0.5-1-0.5
			c-0.5,0-0.7,0.3-1,0.7c0,0.1,0,0.3,0.1,0.4c0.1,0,0.2,0,0.3-0.1c0-0.3,0.3-0.4,0.5-0.5c0.2-0.1,0.4,0,0.6,0.1
			c0.2,0.2,0.2,0.4,0.2,0.7c0,0.3-0.3,0.7-0.6,0.8c-0.5,0.3-1.2,0.1-1.7-0.2c-0.2-0.2-0.3-0.5-0.5-0.8c0-0.3-0.1-0.5,0-0.8
			c0.8-0.5,1.6-0.8,2.5-0.9c0.4,0.1,0.7,0.3,0.9,0.6c0.8,0.8-0.2,2,0.4,2.9c0.2,0,0.2-0.3,0.3-0.5c0.3-0.6-0.1-1.3-0.2-1.9
			c-0.2-0.4-0.3-0.7-0.7-1c0.1,0,0.1,0,0.2,0c0.4,0.2,0.8,0.5,1.1,0.9c0.5,0.8,0.8,1.8,0.7,2.9c-0.1,0.5-0.7,0.8-1.1,1
			c-0.2,0.1-0.4,0.4-0.5,0.6c0.2,0.1,0.5,0,0.7-0.1c0.3-0.1,0.5-0.5,0.8-0.7c0,0,0,0.1,0,0.1c0,0.2-0.1,0.5,0.1,0.5
			c0.1-0.2,0.1-0.6,0.2-0.9c0.2,0.2,0.3,0.6,0.3,0.9c0.2,0.3,0.4,0.7,0.8,0.8c0.1-0.2,0-0.3-0.1-0.5c-0.1-0.4-0.4-0.7-0.7-1
			c-0.6-0.8-0.3-2.2-0.8-3.1c-0.2-0.5-0.5-0.9-0.9-1.3l0.1-0.1c0.9,0,1.6,0.3,2.4,0.4c1,0.5,2.4,0.4,2.8,1.6c0.2,0.7,0.5,1.4,1,1.9
			l0.1,0c0.1-0.2,0.1-0.5,0-0.7c-0.1-0.9-0.9-1.1-1.3-1.8l0.1-0.1c0.4,0.1,0.9,0.2,1.3,0.4c1.4,0.4,2.4,1.8,2.6,3.2
			c0,1.1-0.2,2.1-0.6,3c-0.1,0.1-0.3,0.3-0.1,0.4c0.2-0.1,0.2-0.4,0.3-0.5c0.6-1,0.9-2.3,0.6-3.5c0-0.2-0.3-0.4-0.2-0.6
			c0.1,0.1,0.2,0.1,0.3,0.2c0.1-0.1,0.3-0.1,0.3-0.2c0-0.1,0.1-0.2,0-0.3c-0.1-0.2-0.3-0.2-0.5-0.1c-0.1,0.1-0.2,0.2-0.2,0.4
			c-0.2-0.3-0.4-0.7-0.6-0.9l0-0.1c0.8,0.3,1.5,0.7,2.3,0.9c0.2,0.1,0.4,0.2,0.6,0.2c0.7,0.3,1.4,0.4,2.2,0.5c0.5-0.1,1,0.2,1.5,0.1
			v0l0,0c-0.2-0.2-0.6,0-0.8-0.2c-1.2-0.1-2.4-0.4-3.5-0.9c0-0.1,0.1,0,0.1,0c0.2-0.1,0.3-0.2,0.3-0.4c-0.1-0.1-0.2-0.2-0.4-0.2
			c-0.1,0.1-0.2,0.2-0.3,0.3c0,0.1,0.1,0.3,0.3,0.3c0,0-0.1,0-0.2,0c-0.5-0.2-1.1-0.5-1.6-0.7c-0.2,0-0.4-0.2-0.5-0.2
			c-0.4-0.2-0.8-0.4-1.2-0.5c-1.1-0.6-2.4-0.9-3.6-1.3c-0.3-0.1-0.5-0.1-0.8-0.2c-0.4-0.1-0.9-0.2-1.3-0.4c-1.5-0.4-3.5-0.4-4.8,0.4
			c-0.2-0.1-0.3,0.3-0.4,0.1c0.4-1,1.4-1.3,2.4-1.3c7-0.1,13.6-0.1,20.5-0.2c0.8,0,1.6-0.3,2-1C61.1,30.4,61.1,29.7,60.9,29.2
			L60.9,29.2z M33,35.7c-0.1,0.2-0.2,0.4-0.2,0.6l-0.1,0c0.1-0.3-0.2-0.4-0.1-0.7c-0.1-0.2-0.1-0.5-0.3-0.7
			c-0.2-0.3,0.1-0.4,0.3-0.6c0.2,0.1,0.3,0.3,0.5,0.5C33.2,35.2,33,35.4,33,35.7L33,35.7z"/>
		<path d="M52,34.6c0,0.1,0.1,0.1,0.1,0.2c-0.6,0.5-1.5,0.7-2.3,0.7c-0.1,0-0.1,0.1-0.2,0.1c-0.1,0-0.1-0.1,0-0.1
			C50.1,34.7,51.1,34.4,52,34.6L52,34.6z"/>
		<path d="M49.2,34.9c0.1,0.2-0.1,0.4-0.3,0.5c-0.2,0-0.3-0.1-0.4-0.3c-0.1-0.1,0.1-0.2,0.1-0.3C48.8,34.6,49.2,34.6,49.2,34.9
			L49.2,34.9z"/>
		<path d="M15.9,34.9c0,0.1,0,0.3-0.1,0.4c-0.1,0.1-0.2,0.1-0.3,0.1c-0.1,0-0.2-0.2-0.2-0.3c0-0.2,0.1-0.2,0.2-0.3
			C15.6,34.8,15.8,34.8,15.9,34.9L15.9,34.9z"/>
		<path d="M12.8,36.1v0.1c-0.4,0.1-0.8,0-1.1-0.3c-0.2-0.4-0.5-0.7-0.9-0.9c0-0.1-0.1-0.1,0-0.2C11.6,34.9,12.1,35.6,12.8,36.1
			L12.8,36.1z"/>
		<path d="M54.7,34.9c-0.4,0.6-0.8,1.3-1.5,1.6c-0.1,0-0.2,0.2-0.3,0.1c0.3-0.7,0.9-1.4,1.6-1.7C54.5,34.9,54.6,34.9,54.7,34.9
			L54.7,34.9z"/>
		<path d="M16.9,35.1c0,0.2-0.1,0.2-0.2,0.3c-0.1,0-0.2-0.1-0.3-0.2c-0.1-0.2,0.1-0.2,0.2-0.3C16.7,34.9,16.9,35,16.9,35.1
			L16.9,35.1z"/>
		<path d="M56.9,35.2c-0.2,0.2-0.1,0.6-0.2,0.8c-0.4,0.4-0.6,0.9-1.2,1c-0.1-0.2,0.1-0.4,0.2-0.5c0.2-0.5,0.6-1.1,1.2-1.4L56.9,35.2
			L56.9,35.2z"/>
		<path d="M7.3,35.4c0.1,0.1,0.1,0.2,0,0.4c-0.1,0.1-0.3,0.1-0.4,0.1c-0.2-0.1-0.2-0.3-0.1-0.4C6.9,35.3,7.2,35.2,7.3,35.4L7.3,35.4
			z"/>
		<path d="M6.3,35.6c0,0.1,0.1,0.2,0.1,0.2c-0.1,0.1-0.1,0.2-0.2,0.2c-0.2,0-0.3-0.1-0.4-0.2c0-0.2,0-0.3,0.2-0.4
			C6.1,35.4,6.2,35.5,6.3,35.6L6.3,35.6z"/>
		<path d="M8.4,35.7c0,0.1,0.1,0.4-0.1,0.4c-0.2,0.1-0.4-0.1-0.5-0.2c0-0.2,0.1-0.3,0.2-0.4C8.1,35.5,8.3,35.6,8.4,35.7L8.4,35.7z"
			/>
		<path d="M11.3,35.9c0,0.1,0,0.3-0.1,0.3c-0.1,0.1-0.2,0.1-0.3,0c0-0.1-0.2-0.2-0.1-0.3c0.1-0.1,0.1-0.1,0.2-0.2
			C11.1,35.8,11.2,35.8,11.3,35.9L11.3,35.9z"/>
		<path d="M58.6,36.1c-0.1,0.1-0.1,0.3-0.3,0.3c-0.2,0-0.3,0-0.4-0.2c-0.1-0.2,0.1-0.3,0.2-0.4C58.3,35.8,58.6,35.9,58.6,36.1
			L58.6,36.1z"/>
		<path d="M55.4,36.1c0,0.1-0.1,0.2-0.2,0.3c-0.2,0.1-0.5-0.1-0.5-0.3c0-0.2,0.2-0.3,0.3-0.3C55.2,35.8,55.3,36,55.4,36.1L55.4,36.1
			z"/>
		<path d="M57.6,36.1c0,0.1-0.1,0.2-0.2,0.3c-0.1,0.1-0.3,0-0.4-0.1c-0.2-0.1,0-0.3,0.1-0.4C57.2,35.9,57.5,35.9,57.6,36.1
			L57.6,36.1z"/>
		<path d="M6.9,36.4c0,0.2,0,0.4-0.2,0.4c-0.2,0-0.3-0.1-0.4-0.2c0-0.2,0-0.3,0.2-0.4C6.6,36.2,6.8,36.3,6.9,36.4L6.9,36.4z"/>
		<path d="M54.5,36.6c0.1,0.2-0.1,0.4-0.2,0.5c-0.1,0-0.2,0-0.3-0.1c-0.1-0.1-0.2-0.3,0-0.4C54.1,36.3,54.4,36.4,54.5,36.6
			L54.5,36.6z"/>
		<path d="M16.3,36.8c0.1,0.2-0.1,0.2-0.2,0.3c-0.1,0-0.2,0.1-0.3,0c-0.1-0.1-0.2-0.2-0.1-0.4c0.1-0.1,0.1-0.1,0.2-0.2
			C16.1,36.5,16.2,36.7,16.3,36.8L16.3,36.8z"/>
		<path d="M58.3,36.9c0,0.1-0.1,0.2-0.1,0.3c-0.1,0.1-0.3,0.1-0.4,0.1c-0.2-0.1-0.2-0.2-0.2-0.4c0.1-0.1,0.1-0.2,0.2-0.2
			C58,36.7,58.2,36.7,58.3,36.9L58.3,36.9z"/>
		<path d="M57.2,37c0.1,0.2-0.1,0.3-0.3,0.4c-0.1,0-0.2,0-0.2,0.1c0.5,0.2,0.7,0.6,1.1,0.9v0.1c-0.6,0-1.3-0.2-1.7-0.7
			c-0.1-0.1-0.3-0.1-0.5-0.2c0.2-0.2,0.6-0.1,1-0.2c0.2-0.2-0.3-0.4,0-0.6c0.1,0,0.2-0.1,0.3-0.1C57.1,36.8,57.1,36.9,57.2,37
			L57.2,37z"/>
		<path d="M50,37c0,0.1-0.1,0.2-0.1,0.3c-0.1,0.1-0.3,0.1-0.4,0.1c-0.1-0.1-0.2-0.2-0.2-0.4C49.5,36.7,50,36.7,50,37L50,37z"/>
		<path d="M10.8,37.6c-0.1,0.2-0.1,0.3-0.3,0.3c-0.1,0-0.3-0.1-0.3-0.2c0-0.1,0.1-0.2,0.1-0.3C10.5,37.2,10.9,37.3,10.8,37.6
			L10.8,37.6z"/>
		<path d="M12.3,37.4c0,0.2-0.3,0.4-0.4,0.6c-0.3,0.6-0.7,1.1-1.4,1.2c-0.1-0.2,0.2-0.4,0.3-0.5c0.3-0.6,0.8-0.9,1.3-1.3H12.3
			L12.3,37.4z"/>
		<path d="M49.6,37.6c0,0.2-0.2,0.3-0.3,0.4c-0.2,0.1-0.3-0.1-0.4-0.1c-0.1-0.1-0.1-0.3,0-0.4C49.2,37.3,49.5,37.4,49.6,37.6
			L49.6,37.6z"/>
		<path d="M50.7,37.7c0,0.2-0.1,0.3-0.3,0.4c0-0.1-0.1,0-0.2,0C50.1,38,50,37.9,50,37.8c0.1-0.1,0.1-0.2,0.2-0.2
			C50.4,37.5,50.6,37.5,50.7,37.7L50.7,37.7z"/>
		<path d="M15,37.7c0,0.2-0.1,0.3-0.3,0.4c-0.2,0-0.3-0.1-0.3-0.2c0-0.2,0.1-0.3,0.2-0.4C14.8,37.5,14.9,37.6,15,37.7L15,37.7z"/>
		<path d="M16.2,37.8c-0.1,0.2-0.2,0.3-0.3,0.3c-0.1,0-0.3-0.1-0.3-0.2c0-0.2,0.1-0.3,0.2-0.4C16,37.5,16.2,37.6,16.2,37.8
			L16.2,37.8z"/>
		<path d="M54.5,39c0.1,0.1,0.2,0.2,0.2,0.3c-0.3,0.1-0.5-0.2-0.8-0.2c-0.4-0.4-0.7-0.9-0.9-1.4c0.2-0.2,0.3,0,0.5,0.1
			C53.9,38.1,54.3,38.5,54.5,39L54.5,39z"/>
		<path d="M55.1,37.8c0.1,0.1,0,0.3,0,0.4c-0.1,0.2-0.3,0.1-0.5,0.1c-0.1-0.1-0.2-0.2-0.1-0.4c0.1-0.1,0.2-0.2,0.3-0.2
			C54.9,37.6,55,37.7,55.1,37.8L55.1,37.8z"/>
		<path d="M17.8,38.3c0,0.1,0.1,0.4-0.1,0.4c-0.2,0-0.4,0-0.4-0.2c-0.1-0.2,0.1-0.2,0.2-0.4C17.6,38.1,17.7,38.2,17.8,38.3
			L17.8,38.3z"/>
		<path d="M50.6,39.4c0.2,0.4,0.4,0.8,0.5,1.3c-0.1,0.1,0.1,0.2,0,0.3H51c-0.8-0.6-1-1.4-1.3-2.2c-0.1,0-0.1-0.1-0.1-0.2
			c0.2-0.2,0.3,0.2,0.5,0.2L50.6,39.4L50.6,39.4z"/>
		<path d="M20.1,38.8C20.1,38.8,20.1,38.8,20.1,38.8c-0.7,0.5-1.7,0.8-2.5,0.4c0-0.1,0-0.1,0.1-0.2c0.5-0.2,1-0.4,1.5-0.3L20.1,38.8
			L20.1,38.8z"/>
		<path d="M16.1,38.9c-0.6,0.4-1.1,1.1-1.9,1.3c-0.1,0.1-0.2,0.2-0.4,0.1c0.3-1,1.3-1.5,2.3-1.6V38.9L16.1,38.9z"/>
		<path d="M49.6,39.7c0.1,0.1,0,0.3-0.1,0.4c-0.1,0.1-0.3,0.1-0.3,0C49,40,49,39.8,49,39.7c0.1-0.1,0.2-0.1,0.3-0.2
			C49.4,39.5,49.5,39.5,49.6,39.7L49.6,39.7z"/>
		<path d="M48.2,39.8c-0.1,0.2-0.4,0.4-0.6,0.5c-0.6,0.2-1.1-0.1-1.7-0.2c0-0.1,0.2-0.1,0.3-0.2c0.6-0.1,1.2-0.2,1.8-0.1
			C48,39.7,48.1,39.7,48.2,39.8L48.2,39.8z"/>
		<path d="M16.1,40.3c-0.1,0.1-0.1,0.2-0.2,0.3c-0.1,0.1-0.2,0-0.3-0.1c0-0.1-0.2-0.2-0.1-0.3c0-0.1,0.2-0.2,0.3-0.2
			C15.9,40,16,40.1,16.1,40.3L16.1,40.3z"/>
		<path d="M17.1,40.4c-0.1,0.1-0.1,0.3-0.2,0.3c-0.1,0-0.2,0-0.4-0.1c-0.1-0.1-0.1-0.2-0.1-0.4c0-0.1,0.2-0.1,0.2-0.2
			C16.9,40.1,17,40.3,17.1,40.4L17.1,40.4z"/>
		<path d="M49.3,40.6c0,0.1-0.1,0.2-0.1,0.3c-0.1,0.1-0.3,0.1-0.4,0.1c-0.1,0-0.2-0.2-0.2-0.2c-0.1-0.1,0.1-0.2,0.1-0.4
			C48.9,40.3,49.2,40.4,49.3,40.6L49.3,40.6z"/>
		<path d="M50,40.6c0,0.1,0.1,0.2,0,0.2c-0.1,0.1-0.2,0.3-0.4,0.2c-0.1,0-0.2-0.1-0.2-0.1c-0.1-0.2,0-0.4,0.2-0.5
			C49.9,40.4,50,40.5,50,40.6L50,40.6z"/>
		<path d="M16.5,41.1c0,0.2,0,0.4-0.2,0.5c-0.2,0-0.4,0-0.5-0.2c0-0.2,0-0.4,0.2-0.5C16.2,40.9,16.4,40.9,16.5,41.1L16.5,41.1z"/>
		<path d="M17.5,41c0,0.5-0.1,1.1-0.6,1.4c-0.3,0.1-0.6,0.3-0.8,0.1v-0.1C16.4,41.9,17,41.5,17.5,41L17.5,41z"/>
		<path d="M46.5,41.4c0.1,0.1-0.1,0.2-0.1,0.3c-0.1,0.1-0.3,0.1-0.4,0c-0.1-0.1-0.1-0.2-0.1-0.4c0-0.1,0.1-0.2,0.2-0.2
			C46.3,41.2,46.4,41.3,46.5,41.4L46.5,41.4z"/>
		<path d="M19.2,42.2c0.2,0.4,0.1,1,0.2,1.4c-0.3,0-0.4-0.3-0.6-0.5c-0.4-0.5-0.3-1.2-0.5-1.9c0-0.1,0.1-0.1,0.1,0
			c0.3,0.2,0.5,0.5,0.7,0.7C19.1,42.1,19.3,42.1,19.2,42.2L19.2,42.2z"/>
		<path d="M47.4,41.6c0,0.1-0.2,0.2-0.2,0.3c-0.1,0-0.2-0.1-0.3-0.2c-0.1-0.2,0.1-0.2,0.2-0.3C47.2,41.3,47.3,41.4,47.4,41.6
			L47.4,41.6z"/>
		<path d="M49.5,43.1c0,0.1,0,0.2-0.1,0.1h-0.1c-0.5-0.5-1-1-0.9-1.7l0.1,0C48.9,42,49.5,42.4,49.5,43.1L49.5,43.1z"/>
		<path d="M48.2,42.6c0,0.1-0.1,0.2-0.2,0.3c-0.2,0.1-0.5,0-0.5-0.2c0-0.2,0.2-0.3,0.3-0.4C48,42.3,48.1,42.4,48.2,42.6L48.2,42.6z"
			/>
		<path d="M47,43c-0.2,0.7-0.9,1-1.4,1.5c-0.1-0.1-0.1-0.2,0-0.3c0.2-0.7,0.7-1.3,1.3-1.6C47.2,42.6,47,42.8,47,43L47,43z"/>
		<path d="M48.3,43.5c0,0.2-0.2,0.2-0.2,0.3c-0.1,0-0.3-0.1-0.4-0.2c0-0.2,0.1-0.2,0.2-0.3C48.1,43.3,48.3,43.3,48.3,43.5L48.3,43.5
			z"/>
		<path d="M35.3,11.4c0.2,0,0.4,0.2,0.4,0.4c0,0.2-0.2,0.4-0.4,0.4h-5.2c-0.2,0-0.4-0.2-0.4-0.4c0-0.2,0.2-0.4,0.4-0.4H35.3
			L35.3,11.4z M31.6,12.2c0.5,0,0-0.6-0.2-0.6h-0.5c-0.5,0,0,0.6,0.2,0.6H31.6L31.6,12.2z M33.7,12.2c0.5,0,0-0.6-0.2-0.6H33
			c-0.5,0,0,0.6,0.2,0.6H33.7L33.7,12.2z M35.3,11.6h-0.2c-0.5,0-0.1,0.6,0.2,0.6C35.7,12.2,35.7,11.6,35.3,11.6L35.3,11.6z"/>
		<path d="M34.8,17.4l1,0.4l1-0.4l-0.4,1.5l0.8-0.2l-0.3,0.9l0.3,0.8l-0.7-0.2l0.3,1.6l-1-0.4l-1,0.4l0.4-1.6l-0.8,0.2l0.2-0.9
			l-0.2-0.9l0.8,0.1L34.8,17.4L34.8,17.4z M36.3,20c0.2,0,0.2-0.3,0.2-0.6c0-0.6-0.5,0-0.7-0.6c-0.2,0.5-0.7,0-0.7,0.5
			c0,0.4,0,0.6,0.3,0.6H36.3L36.3,20z M35.3,19.5c0,0.2,0.3,0.1,0.5,0.1c0.2,0,0.5,0.2,0.5-0.1c0-0.3-0.3-0.2-0.5-0.2
			C35.6,19.3,35.3,19.2,35.3,19.5L35.3,19.5z"/>
		<polygon points="32.5,19.5 32.5,19.4 32.3,19.3 32.5,19.2 32.4,19 32.6,19.1 32.7,18.9 32.8,19.1 32.9,19 32.9,19.2 33,19.3 
			32.8,19.4 32.8,19.5 32.7,19.4 32.5,19.5 		"/>
		<polygon points="31.7,20.5 31.7,20.4 31.6,20.3 31.7,20.2 31.6,20 31.8,20.1 31.9,19.9 32,20.1 32.2,20 32.1,20.2 32.2,20.3 
			32.1,20.4 32.1,20.5 31.9,20.4 31.7,20.5 		"/>
		<polygon points="33,20.4 33,20.2 32.9,20.2 33,20.1 32.9,19.9 33.1,19.9 33.2,19.8 33.3,19.9 33.5,19.9 33.4,20.1 33.5,20.2 
			33.4,20.2 33.4,20.4 33.2,20.3 33,20.4 		"/>
		<polygon points="33.2,21.2 33.2,21.1 33.1,21 33.2,21 33.1,20.9 33.2,20.9 33.3,20.8 33.3,20.9 33.4,20.9 33.4,21 33.5,21 
			33.4,21.1 33.4,21.2 33.3,21.1 33.2,21.2 		"/>
		<polygon points="32,22 32,21.7 31.7,21.6 31.9,21.4 31.8,21.1 32.1,21.2 32.3,20.9 32.4,21.2 32.7,21.1 32.6,21.4 32.8,21.6 
			32.5,21.7 32.5,22 32.3,21.8 32,22 		"/>
		<polygon points="32.6,5.4 33.2,6.9 34.8,6.4 34,7.8 35.3,8.8 33.7,9.1 33.8,10.7 32.6,9.6 31.4,10.7 31.5,9.1 29.9,8.8 31.2,7.8 
			30.4,6.4 32,6.9 32.6,5.4 		"/>
		<path d="M26.9,39.4c-0.2,0.1-0.3,0.1-0.2,0.3l0.2,0.9c0,0.2,0.1,0.4-0.1,0.6c-0.1,0.2-0.4,0.3-0.6,0.4c-0.2,0-0.5,0.1-0.7,0
			c-0.2-0.1-0.3-0.2-0.4-0.5l-0.2-1c-0.1-0.2-0.1-0.2-0.3-0.2l0-0.1l1.2-0.3l0,0.1c-0.2,0.1-0.3,0.1-0.3,0.3l0.2,1
			c0,0.2,0.1,0.6,0.6,0.4c0.6-0.1,0.5-0.6,0.5-0.8l-0.2-0.9c0-0.2-0.1-0.3-0.4-0.2l0-0.1L26.9,39.4L26.9,39.4L26.9,39.4z"/>
		<path d="M28.7,39.6c-0.1-0.2-0.4-0.5-0.8-0.4c-0.2,0-0.4,0.2-0.3,0.4c0,0.2,0.1,0.2,0.4,0.3l0.6,0.1c0.1,0,0.4,0.1,0.5,0.5
			c0.1,0.3-0.1,0.7-0.7,0.8c-0.3,0.1-0.5,0-0.6,0c-0.1,0-0.1,0.1-0.1,0.1l-0.1,0l-0.2-0.7l0.1,0c0.1,0.3,0.4,0.6,0.9,0.5
			c0.4-0.1,0.4-0.4,0.4-0.4c0-0.2-0.2-0.2-0.5-0.3l-0.3,0c-0.6-0.1-0.7-0.4-0.7-0.5c0-0.2,0-0.6,0.6-0.7c0.3-0.1,0.5,0,0.6,0
			c0.1,0,0.1-0.1,0.1-0.1l0.1,0L28.7,39.6L28.7,39.6L28.7,39.6z"/>
		<path d="M31,40.7l-1.3,0.1l0-0.1c0.3,0,0.3-0.1,0.3-0.3l-0.1-1.6c-0.2,0-0.6,0.1-0.6,0.6l-0.1,0l0-0.6l2.1-0.2l0.1,0.6l-0.1,0
			c-0.1-0.5-0.5-0.4-0.7-0.4l0.1,1.6C30.6,40.7,30.7,40.7,31,40.7L31,40.7L31,40.7z"/>
		<path d="M34,40.7l-0.7,0l-0.7-1l-0.1,0l0,0.6c0,0.2,0.1,0.2,0.3,0.3l0,0.1l-1.2,0l0-0.1c0.2,0,0.3,0,0.3-0.3l0-1.3
			c0-0.3-0.1-0.3-0.3-0.3l0-0.1l1.2,0c0.2,0,1,0,1,0.5c0,0.4-0.4,0.5-0.6,0.5l0.7,0.9C33.9,40.7,33.9,40.7,34,40.7L34,40.7L34,40.7z
			 M32.4,39.7c0.5,0,0.7-0.1,0.7-0.4c0-0.3-0.1-0.4-0.4-0.4c-0.2,0-0.2,0-0.2,0.1L32.4,39.7L32.4,39.7z"/>
		<path d="M36.3,41l-1.1-0.1l0-0.1c0.2,0,0.3,0,0.3-0.1c0-0.1-0.1-0.3-0.1-0.4l-0.8-0.1c-0.1,0.2-0.2,0.3-0.2,0.4
			c0,0.1,0.2,0.1,0.3,0.2l0,0.1l-0.7-0.1l0-0.1c0.2,0,0.3-0.1,0.4-0.3l1-1.5l0.1,0l0.6,1.7C36.1,40.8,36.2,41,36.3,41L36.3,41
			L36.3,41z M35.3,40.2l-0.3-0.8l-0.4,0.7L35.3,40.2L35.3,40.2z"/>
		<path d="M38.4,41.5l-2-0.4l0-0.1c0.2,0,0.3,0,0.3-0.2l0.3-1.4c0-0.2-0.1-0.2-0.3-0.3l0-0.1l1.2,0.2l0,0.1c-0.2,0-0.4-0.1-0.4,0.2
			L37.3,41c0,0.1,0,0.2,0.3,0.2c0.5,0.1,0.8-0.1,1-0.4l0.1,0L38.4,41.5L38.4,41.5z"/>
		<path d="M39.8,41.8l-1.2-0.3l0-0.1c0.2,0,0.3,0,0.4-0.1l0.3-1.4c0-0.2-0.1-0.2-0.3-0.3l0-0.1l1.2,0.3l0,0.1
			c-0.2,0-0.3-0.1-0.4,0.1l-0.3,1.4C39.4,41.6,39.6,41.6,39.8,41.8L39.8,41.8L39.8,41.8z"/>
		<path d="M42.2,42.1L41.1,42l0-0.1c0.2,0,0.3,0,0.3-0.1c0-0.1-0.1-0.3-0.1-0.4l-0.8-0.1c-0.1,0.2-0.2,0.3-0.2,0.4
			c0,0.1,0.2,0.1,0.3,0.2l0,0.1l-0.7-0.1l0-0.1c0.2,0,0.3-0.1,0.4-0.3l1-1.6l0.1,0l0.6,1.7C42,41.9,42.1,42,42.2,42.1L42.2,42.1
			L42.2,42.1z M41.2,41.3l-0.3-0.8l-0.4,0.7L41.2,41.3L41.2,41.3z"/>
		<path d="M33.1,17.9c0-0.7-0.4,0-0.6-0.7c-0.2,0.5-0.6,0.1-0.6,0.6c0,0.2,0.1,0.3,0.2,0.4v0.2c0,0.1,0,0.1,0.1,0.1h0.8
			c0.1,0,0.1,0,0.1-0.1v-0.2C33,18.2,33.1,18,33.1,17.9L33.1,17.9z M32.5,18c-0.2,0-0.5,0.1-0.5-0.1c0-0.4,0.2-0.3,0.4-0.3
			c0.2,0,0.5-0.1,0.5,0.3C33,18.2,32.7,18,32.5,18L32.5,18z"/>
		<path d="M39.4,26.7c0.2,0,0.3-0.1,0.3-0.3c0-0.2-0.1-0.3-0.3-0.3c-0.2,0-0.3,0.1-0.3,0.3C39,26.6,39.2,26.7,39.4,26.7L39.4,26.7z"
			/>
		<path d="M37.8,16.1c0,0-0.2,0.3-0.2,0.3c0,0.1,0.1,0.2,0.2,0.2c0.1,0,0.2-0.1,0.2-0.2C38,16.4,37.8,16.1,37.8,16.1L37.8,16.1z"/>
		<path d="M27.2,16.1c0,0-0.2,0.3-0.2,0.3c0,0.1,0.1,0.2,0.2,0.2c0.1,0,0.2-0.1,0.2-0.2C27.4,16.4,27.2,16.1,27.2,16.1L27.2,16.1z"
			/>
		<path d="M29.9,16.1c0,0-0.2,0.3-0.2,0.3c0,0.1,0.1,0.2,0.2,0.2c0.1,0,0.2-0.1,0.2-0.2C30,16.4,29.9,16.1,29.9,16.1L29.9,16.1z"/>
		<path d="M32.5,16.1c0,0-0.2,0.3-0.2,0.3c0,0.1,0.1,0.2,0.2,0.2c0.1,0,0.2-0.1,0.2-0.2C32.7,16.4,32.5,16.1,32.5,16.1L32.5,16.1z"
			/>
		<path d="M35.2,16.1c0,0-0.2,0.3-0.2,0.3c0,0.1,0.1,0.2,0.2,0.2c0.1,0,0.2-0.1,0.2-0.2C35.3,16.4,35.2,16.1,35.2,16.1L35.2,16.1z"
			/>
		<path d="M27.2,19.7c0,0,0.2,0.3,0.2,0.3c0,0.1-0.1,0.2-0.2,0.2c-0.1,0-0.2-0.1-0.2-0.2C27.1,20,27.2,19.7,27.2,19.7L27.2,19.7z"/>
		<path d="M27.2,23.2c0,0,0.2,0.3,0.2,0.3c0,0.1-0.1,0.2-0.2,0.2c-0.1,0-0.2-0.1-0.2-0.2C27.1,23.5,27.2,23.2,27.2,23.2L27.2,23.2z"
			/>
		<path d="M27.7,26c0,0,0.2,0.3,0.2,0.3c0,0.1-0.1,0.2-0.2,0.2c-0.1,0-0.2-0.1-0.2-0.2C27.5,26.3,27.7,26,27.7,26L27.7,26z"/>
		<path d="M29.9,27.5c0,0,0.2,0.3,0.2,0.3c0,0.1-0.1,0.2-0.2,0.2c-0.1,0-0.2-0.1-0.2-0.2C29.7,27.8,29.9,27.5,29.9,27.5L29.9,27.5z"
			/>
		<path d="M37.9,19.7c0,0-0.2,0.3-0.2,0.3c0,0.1,0.1,0.2,0.2,0.2c0.1,0,0.2-0.1,0.2-0.2C38.1,20,37.9,19.7,37.9,19.7L37.9,19.7z"/>
		<path d="M37.9,23.2c0,0-0.2,0.3-0.2,0.3c0,0.1,0.1,0.2,0.2,0.2c0.1,0,0.2-0.1,0.2-0.2C38.1,23.5,37.9,23.2,37.9,23.2L37.9,23.2z"
			/>
		<path d="M37.5,26c0,0-0.2,0.3-0.2,0.3c0,0.1,0.1,0.2,0.2,0.2c0.1,0,0.2-0.1,0.2-0.2C37.7,26.3,37.5,26,37.5,26L37.5,26z"/>
		<path d="M35.3,27.5c0,0-0.2,0.3-0.2,0.3c0,0.1,0.1,0.2,0.2,0.2c0.1,0,0.2-0.1,0.2-0.2C35.5,27.8,35.3,27.5,35.3,27.5L35.3,27.5z"
			/>
		<path d="M32.6,29.1c0,0-0.2,0.3-0.2,0.3c0,0.1,0.1,0.2,0.2,0.2c0.1,0,0.2-0.1,0.2-0.2C32.8,29.4,32.6,29.1,32.6,29.1L32.6,29.1z"
			/>
		<path d="M36.9,23.8c0,0.1,0.1,0.1,0.2,0l0.1-0.3c0,0-0.1-0.1-0.2-0.1c-0.3,0.1-0.6,0.1-0.7,0.4c0,0.2,0.1,0.4,0.3,0.4
			c0.1,0,0.1,0.1,0.2,0.1c0,0.1,0,0.2-0.1,0.2c-0.2-0.2-0.5,0.1-0.7-0.2c0.1-0.2,0.2-0.5,0-0.8c0,0,0.1-0.1,0-0.2
			c-0.1-0.2-0.3-0.1-0.5-0.1c-0.2,0-0.4,0.1-0.6,0.3c0,0.1,0,0.2,0.1,0.3c0.1,0,0.1,0,0.1,0.1L35,24.1c0,0,0,0.1,0.1,0.2
			c-0.1,0.1-0.2-0.1-0.3-0.2c0-0.1,0-0.4-0.2-0.4c0,0-0.1,0-0.1,0c0,0.1-0.1,0.2-0.1,0.3c0,0.1,0.1,0.3,0.1,0.3s0.5,0.4,0.6,0.6
			c-0.1,0.3-0.1,0.7-0.5,0.9c-0.1,0.1-0.1,0.2-0.1,0.3l0.1,0.1c0.2-0.1,0.6-0.2,0.6-0.5c0.1-0.2,0.2-0.3,0.3-0.4
			c0.2,0,0.3,0.1,0.4,0.2c0,0.3-0.2,0.4-0.4,0.5c0,0,0,0.1,0,0.1c0.1,0.1,0.2,0.1,0.3,0.1c0.3-0.2,0.4-0.5,0.6-0.6
			c0,0.2-0.3,0.2-0.1,0.4c0.1,0,0.4,0,0.4-0.2c-0.1-0.3,0.4-0.4,0.1-0.7c0-0.3,0.3-0.4,0.2-0.6c-0.1-0.3-0.4-0.3-0.5-0.5
			C36.7,23.7,36.8,23.8,36.9,23.8L36.9,23.8z"/>
		<path d="M24.7,26.9c0.2,0,0.3-0.1,0.3-0.3c0-0.2-0.1-0.3-0.3-0.3c-0.2,0-0.3,0.1-0.3,0.3C24.4,26.7,24.6,26.9,24.7,26.9L24.7,26.9
			z"/>
		<path d="M7.6,36.9c0.2,0,0.3-0.1,0.3-0.3c0-0.2-0.1-0.3-0.3-0.3c-0.2,0-0.3,0.1-0.3,0.3C7.3,36.7,7.4,36.9,7.6,36.9L7.6,36.9z"/>
		<path d="M18.5,39.3L18.5,39.3L18.5,39.3L18.5,39.3L18.5,39.3C18.5,39.3,18.5,39.3,18.5,39.3L18.5,39.3L18.5,39.3L18.5,39.3
			C18.4,39.3,18.4,39.3,18.5,39.3L18.5,39.3C18.4,39.3,18.4,39.3,18.5,39.3L18.5,39.3L18.5,39.3C18.5,39.3,18.5,39.3,18.5,39.3
			C18.5,39.3,18.5,39.3,18.5,39.3L18.5,39.3C18.5,39.3,18.5,39.3,18.5,39.3L18.5,39.3L18.5,39.3z M18.5,39.3
			C18.5,39.3,18.5,39.3,18.5,39.3C18.5,39.3,18.5,39.3,18.5,39.3C18.5,39.3,18.5,39.3,18.5,39.3L18.5,39.3L18.5,39.3z"/>
		<path d="M18.6,39.3C18.6,39.3,18.5,39.3,18.6,39.3C18.5,39.3,18.5,39.3,18.6,39.3C18.5,39.3,18.5,39.3,18.6,39.3L18.6,39.3
			C18.6,39.3,18.6,39.3,18.6,39.3C18.6,39.3,18.6,39.3,18.6,39.3C18.5,39.3,18.5,39.3,18.6,39.3C18.5,39.3,18.5,39.3,18.6,39.3
			L18.6,39.3L18.6,39.3L18.6,39.3C18.5,39.3,18.5,39.3,18.6,39.3C18.5,39.3,18.5,39.3,18.6,39.3C18.5,39.3,18.5,39.3,18.6,39.3
			L18.6,39.3C18.5,39.3,18.5,39.3,18.6,39.3C18.5,39.3,18.5,39.3,18.6,39.3C18.5,39.3,18.5,39.3,18.6,39.3
			C18.6,39.3,18.6,39.3,18.6,39.3L18.6,39.3L18.6,39.3L18.6,39.3L18.6,39.3z"/>
		<path d="M18.7,39.3C18.7,39.3,18.7,39.3,18.7,39.3L18.7,39.3L18.7,39.3L18.7,39.3L18.7,39.3L18.7,39.3L18.7,39.3L18.7,39.3
			c-0.1,0-0.1,0-0.1,0v0L18.7,39.3L18.7,39.3C18.6,39.3,18.6,39.3,18.7,39.3L18.7,39.3L18.7,39.3L18.7,39.3L18.7,39.3L18.7,39.3
			C18.6,39.3,18.6,39.3,18.7,39.3L18.7,39.3L18.7,39.3L18.7,39.3C18.6,39.3,18.6,39.3,18.7,39.3C18.6,39.3,18.6,39.3,18.7,39.3
			L18.7,39.3L18.7,39.3L18.7,39.3C18.7,39.3,18.7,39.3,18.7,39.3C18.7,39.3,18.6,39.3,18.7,39.3L18.7,39.3L18.7,39.3L18.7,39.3
			L18.7,39.3z"/>
		<path d="M18.7,39.3C18.7,39.3,18.7,39.3,18.7,39.3C18.7,39.3,18.7,39.3,18.7,39.3C18.7,39.3,18.7,39.3,18.7,39.3
			C18.7,39.3,18.7,39.3,18.7,39.3C18.7,39.3,18.7,39.3,18.7,39.3C18.7,39.3,18.7,39.3,18.7,39.3C18.7,39.3,18.7,39.3,18.7,39.3
			L18.7,39.3L18.7,39.3z M18.7,39.3C18.7,39.3,18.7,39.3,18.7,39.3C18.7,39.3,18.7,39.3,18.7,39.3C18.7,39.3,18.7,39.3,18.7,39.3
			C18.7,39.3,18.7,39.3,18.7,39.3C18.7,39.3,18.7,39.3,18.7,39.3L18.7,39.3z"/>
		<path d="M18.7,39.3C18.7,39.3,18.7,39.3,18.7,39.3C18.8,39.3,18.8,39.3,18.7,39.3C18.8,39.3,18.7,39.3,18.7,39.3
			C18.7,39.3,18.7,39.3,18.7,39.3C18.7,39.3,18.7,39.3,18.7,39.3C18.7,39.3,18.7,39.3,18.7,39.3C18.7,39.3,18.8,39.3,18.7,39.3
			C18.8,39.3,18.7,39.3,18.7,39.3C18.7,39.3,18.7,39.3,18.7,39.3L18.7,39.3L18.7,39.3L18.7,39.3L18.7,39.3L18.7,39.3L18.7,39.3z"/>
		<path d="M38.7,15.6L38.7,15.6l-12.2,0v0h0l0,9.3c0,1,0.4,1.8,1,2l4.7,3c0.1,0.1,0.3,0.2,0.4,0.2c0.1,0,0.3-0.1,0.4-0.1l4.8-3
			c0.6-0.3,1-1.1,1-2L38.7,15.6L38.7,15.6L38.7,15.6z M38.4,25.1c-0.1,0.7-0.3,1.3-0.8,1.6L33,29.6h0c-0.1,0.1-0.2,0.1-0.4,0.1
			c-0.1,0-0.3-0.1-0.4-0.1l-4.6-2.9c-0.5-0.3-0.7-0.9-0.8-1.6V16h11.5V25.1L38.4,25.1z"/>
		<path d="M34.2,29.2l0.1-0.1C34.3,29.2,34.3,29.2,34.2,29.2L34.2,29.2z"/>
		<path d="M25,42l-1.2,0.1l0-0.1c0.2,0,0.3-0.1,0.3-0.1c0-0.1-0.1-0.3-0.2-0.4l-0.8,0.1C23,41.8,23,42,23,42c0,0.1,0.2,0.1,0.3,0.1
			l0,0.1l-0.7,0.1l0-0.1c0.2,0,0.2-0.2,0.3-0.4l0.6-1.7l0.1,0l1,1.5C24.8,41.9,24.8,41.9,25,42L25,42L25,42z M23.9,41.4l-0.4-0.7
			l-0.3,0.8L23.9,41.4L23.9,41.4z"/>
		<path d="M45.2,37.6c-0.2-0.5-0.6-0.9-1.2-1.1c-0.6-0.1-1.2,0-1.5,0.4c-0.6,0.5-0.2,1.4-0.2,2c0,0.1,0,0.2-0.1,0.3
			c-2.5-0.2-4.9-0.9-7.4-1.1c-0.6-0.1-1.2-0.1-1.7-0.2l-0.7-0.1c-2.2,0.1-4.4,0.2-6.4,0.7c-0.4,0.1-0.9,0.2-1.4,0.3
			c-0.3-0.1-0.6,0.2-0.9,0.1l-0.6,0.1c-0.1,0-0.1,0-0.2,0c-0.3-0.7,0.6-1.2,0.3-1.9c-0.2-0.4-0.7-0.8-1.2-0.7
			c-0.6-0.1-1.1,0.3-1.4,0.7c-0.4,0.9,0.1,1.8,0.3,2.7c0,0.3,0.3,0.6,0,0.8c-0.6-0.4-1.3-0.6-2-0.4c-0.2,0.1-0.6,0-0.7,0.2
			c0.8,0.4,1.7,0.4,2.6,0.3c0.1,0,0.2-0.1,0.3,0c0.1,0.5-0.1,1.1,0.2,1.5c0.3,0.4,0.8,0.5,1.3,0.6c1.6-0.1,3-0.5,4.5-0.9
			c0.2,0,0.4-0.1,0.6-0.1c0.8-0.2,1.6-0.3,2.5-0.3c-0.4,0.5-0.6,1-0.7,1.6c-0.2,0.5,0.4,0.5,0.5,0.8c-0.5,0.2-0.9,0.5-1.4,0.7
			c-1.1,0-2.1,0.4-3.1,0.5c0,0.2,0.4,0.2,0.4,0.4c-0.1,0.2-0.2,0.2-0.3,0.3c0,0.1,0,0.1,0.1,0.1c0.1-0.1,0.3,0,0.4-0.2
			c0.4,0,0.6-0.1,1-0.1c0.3-0.1,0.6-0.1,0.9-0.4c0.4-0.1,0.6-0.4,1-0.5c0.5,0,1-0.2,1.5-0.2v0.1c-0.4,0.7-0.8,1.3-1.2,1.9
			c-0.1,0.1,0,0.2,0.1,0.3c0.2,0.1,0.5,0,0.7-0.1c0.4-0.6,0.7-1.2,1-1.9c0.1-0.6,0.6-0.9,1-1.3c0.1,0,0.2-0.1,0.2,0
			c-0.4,0.4-0.6,0.8-0.8,1.2c-0.1,0.5-0.2,1.1,0.3,1.5c0.2,0.2,0.5,0.1,0.8,0.1c0.7-0.4,1.6,0.2,2.1-0.5c0.3-0.1,0.4,0.3,0.5,0.5
			c0.3,0.1,0.6,0.4,0.9,0.2c0-0.2-0.2-0.4-0.3-0.5c-0.2-0.4-0.5-0.7-0.7-1c-0.1-0.2-0.2-0.4-0.3-0.7c0.3,0.1,0.6,0.3,0.9,0.4
			c0.3,0.1,0.7,0.1,0.9,0.3c0.2,0.3,0.6,0.5,0.9,0.7c0.4,0.2,0.9,0.2,1.4,0.4c0.2,0,0.4,0.2,0.6,0c-0.1-0.1-0.2-0.1-0.3-0.2
			c-0.1-0.2,0.3-0.1,0.4-0.3c0-0.1-0.1-0.1-0.2-0.1c-0.3-0.1-0.9-0.2-1-0.3c-0.2,0-0.4-0.1-0.6-0.2c-1.1,0-1.6-1-2.5-1.3
			c0.2-0.2,0.5-0.3,0.6-0.6c0.2-0.2,0.2-0.7,0.1-0.9c-0.2-0.5-0.9-0.5-1.3-0.8l0.1-0.1c0.7,0,1.3,0.1,1.9,0.2c1.7,0.2,3.2,0.9,5,0.9
			c1,0,2.2,0.1,2.6-0.9c0.1-0.5,0.2-1.1,0.3-1.6C44.8,39.4,45.3,38.6,45.2,37.6L45.2,37.6z M26.3,45.7l-0.2-0.2
			c0.1-0.2,0.4-0.1,0.6-0.2c0.5-0.1,1-0.3,1.5-0.2C27.6,45.5,26.9,45.5,26.3,45.7L26.3,45.7z M37.3,45.4c0.4,0.2,1.3,0.4,1.9,0.4
			c-0.1,0.2-0.5,0-0.4,0.4c-0.5-0.2-1.2-0.3-1.6-0.7C37.2,45.4,37.2,45.4,37.3,45.4L37.3,45.4z M20.8,37.9c0.1-0.3,0.1-0.7,0.4-0.9
			c0.4-0.2,1-0.2,1.4,0.1c0.1,0.1,0.2,0.2,0.3,0.3c0.1,0.3-0.1,0.6-0.3,0.8h-0.2c0-0.3,0-0.6,0.1-0.8c0-0.2-0.2-0.2-0.3-0.3
			c-0.3-0.1-0.6,0.1-0.8,0.2c-0.2,0.2-0.3,0.5-0.2,0.8c0.1,0.2,0,0.5,0.1,0.7l-0.1,0.1C21,38.5,20.8,38.3,20.8,37.9L20.8,37.9z
			 M21.6,38.4c0.3,0.2,0.6,0.1,0.9,0.2c0.1,0.2,0.1,0.4-0.1,0.6c-0.3-0.1-0.7,0-0.8-0.3C21.7,38.7,21.6,38.5,21.6,38.4L21.6,38.4z
			 M21.6,37.8c0.1-0.1,0-0.4,0.2-0.4c0.1,0,0.3,0,0.3,0.1c0,0.2,0,0.4-0.1,0.6C21.8,38.2,21.7,38,21.6,37.8L21.6,37.8z M29.8,43.5
			c-0.1-0.6,0.2-1.1,0.6-1.6c0.2-0.1,0.5-0.1,0.8,0c-0.5,0.1-1,0.2-1.1,0.8c0,0.2-0.1,0.4,0.1,0.5c0.2,0.3,0.6,0.2,0.9,0.5
			c0,0.1-0.1,0.2-0.2,0.2C30.5,43.8,30.1,43.7,29.8,43.5L29.8,43.5z M29.2,44.7c0.4-0.2,0.9-0.5,1.3-0.4
			C30.2,44.6,29.6,44.7,29.2,44.7L29.2,44.7z M30.8,44.9c-0.2,0.6-0.5,1.1-0.9,1.7c0,0.1-0.2,0.1-0.3,0.1c0-0.2,0.2-0.4,0.4-0.7
			c0.4-0.5,0.5-1,0.9-1.4C31,44.6,30.8,44.7,30.8,44.9L30.8,44.9z M31.3,43.8L31.3,43.8L31.3,43.8L31.3,43.8L31.3,43.8L31.3,43.8
			C31.3,43.8,31.3,43.8,31.3,43.8L31.3,43.8L31.3,43.8z M31.1,43.4c-0.3,0-0.6-0.1-0.8-0.2c-0.2-0.2,0-0.4,0-0.6
			c0.2-0.4,0.9-0.6,1.3-0.2C31.5,42.7,31.4,43.1,31.1,43.4L31.1,43.4z M31.5,43.4c0.1-0.2,0.2-0.5,0.3-0.7
			C31.8,42.8,31.7,43.2,31.5,43.4L31.5,43.4z M31.7,41.9c-0.2-0.1-0.4-0.3-0.6-0.3c0.2-0.1,0.4-0.1,0.7,0
			C31.9,41.7,31.7,41.8,31.7,41.9L31.7,41.9z M31.9,42.5L31.9,42.5l0-0.2h0V42.5L31.9,42.5z M31.9,43.3c0-0.1,0-0.2,0.1-0.2
			c0.1-0.1,0.2,0.1,0.2,0.1C32.1,43.2,32,43.3,31.9,43.3L31.9,43.3z M32.2,42.2c0.1-0.2,0.1-0.5,0.3-0.7c0.2,0,0.3,0,0.5,0.1
			c0,0.4,0.5,0.8,0,1.1c-0.2,0.1-0.4,0.2-0.6,0.1C32.1,42.6,32.1,42.4,32.2,42.2L32.2,42.2z M33.5,41.7c0-0.2,0.2,0,0.2-0.1l0.5,0
			C34,41.6,33.6,42.2,33.5,41.7L33.5,41.7z M34.3,41.9c-0.2,0.1-0.4,0.3-0.6,0.4C33.9,42.1,34.1,41.9,34.3,41.9L34.3,41.9z M33.6,43
			L33.6,43L33.6,43L33.6,43L33.6,43L33.6,43z M33.6,44.1c0,0,0,0.1,0,0.1l-0.4-0.3C33.4,43.9,33.5,43.9,33.6,44.1L33.6,44.1z
			 M33.2,43.5c0,0,0.1,0,0.2,0H33.2L33.2,43.5z M32.9,43.3c0.1-0.1,0.2-0.3,0.3-0.3c0,0,0,0,0,0.1C33.1,43.1,33,43.2,32.9,43.3
			L32.9,43.3z M32.5,43.2L32.5,43.2l0-0.1C32.6,43.2,32.5,43.2,32.5,43.2L32.5,43.2z M32.6,43.9c0.2-0.2,0.4,0.1,0.5,0.3
			c0.3,0.4,0.9,0.7,0.7,1.3c-0.3,0.3-0.9,0-1.2,0.2c-0.2,0-0.5,0-0.6-0.2C32.1,45,32.3,44.4,32.6,43.9L32.6,43.9z M32.1,44.2
			l0.1-0.1c-0.1,0.4-0.4,0.9-0.6,1.3C31.5,44.9,31.9,44.6,32.1,44.2L32.1,44.2z M32.9,46.3c-0.3,0-0.8,0.2-1.2-0.1
			c0-0.1-0.1-0.2-0.1-0.4c0.3-0.1,0.5,0.2,0.8,0c0.4,0,0.8-0.1,1.2,0c0.2,0.1,0.5-0.3,0.5,0.1C34,46.6,33.3,46.2,32.9,46.3
			L32.9,46.3z M33.9,43.8L33.9,43.8L33.9,43.8L33.9,43.8L33.9,43.8L33.9,43.8z M34,44.9c0,0.2,0.2,0.2,0.1,0.4
			C34,45.2,33.9,45.1,34,44.9L34,44.9z M34.5,46L34.5,46c-0.2,0-0.1-0.2-0.1-0.3C34.4,45.7,34.5,45.8,34.5,46L34.5,46z M35.3,46.4
			c0,0.1-0.1,0.1-0.1,0c-0.5-0.7-0.8-1.4-1.1-2.1l0.1,0C34.6,45,34.9,45.7,35.3,46.4L35.3,46.4z M36,44.8C36,44.8,36,44.8,36,44.8
			c-0.5,0.1-0.9-0.2-1.3-0.5l0-0.1C35.2,44.2,35.6,44.5,36,44.8L36,44.8z M35.5,42.4c0.2,0.1,0.2,0.3,0.2,0.5c0,0.4-0.2,0.7-0.6,0.9
			c-0.2,0.1-0.5,0.1-0.7,0.1c0.4,0,0.9-0.2,1.1-0.6L35.5,42.4L35.5,42.4z M35.2,42.4c0.1,0.2,0.2,0.5,0.2,0.8
			c-0.2,0.3-0.5,0.3-0.8,0.4c-0.2,0-0.3,0-0.4-0.1c0-0.1,0-0.1-0.1-0.2c0.1-0.2-0.4-0.5-0.1-0.7C34.2,42.3,34.9,41.7,35.2,42.4
			L35.2,42.4z M44.1,41.1c-0.1,0.2,0,0.5-0.2,0.6c0,0.3-0.3,0.5-0.5,0.6c-2.1,0.5-4.1-0.2-6.2-0.6c-2.8-0.6-6.1-0.8-9-0.1
			c-1.3,0.2-2.7,0.6-4,0.9c-0.8,0.1-1.7,0.2-2.5,0c-0.6-0.3-0.4-1.1-0.6-1.7c0-0.4-0.1-0.8-0.1-1.2c-0.1-0.1-0.1-0.3-0.1-0.5
			c0.3,0,0.5,0.2,0.8,0.3c1.5,0.3,2.8-0.2,4.2-0.4c1.3-0.3,2.7-0.5,4-0.6c1.6,0,3.2-0.1,4.7,0.2c0.5,0,0.9,0.1,1.4,0.2
			c1,0.1,1.9,0.4,2.9,0.5c0.2,0.1,0.4,0.1,0.5,0.1c1.6,0.2,3.3,0.7,4.9,0C44.4,39.9,44.1,40.4,44.1,41.1L44.1,41.1z M43.6,38.9
			c0,0.3-0.2,0.2-0.4,0.3h-0.4c-0.1-0.1-0.1-0.4-0.1-0.5C43,38.8,43.3,38.8,43.6,38.9L43.6,38.9z M43.4,38.5
			c0.2-0.2-0.1-1.3,0.5-0.6c0,0.1,0,0.4-0.1,0.5C43.7,38.4,43.5,38.6,43.4,38.5L43.4,38.5z M44.8,38.3c-0.2,0.3-0.4,0.5-0.8,0.6
			c0-0.4,0.4-0.7,0.3-1.2c-0.2-0.3-0.7-0.4-1.1-0.4c-0.2,0.1-0.1,0.3-0.1,0.4L43,38.4c-0.4,0-0.4-0.3-0.5-0.6c0-0.4,0.2-0.7,0.5-0.9
			c0.3-0.1,0.7-0.1,1,0c0.2,0.1,0.5,0.2,0.6,0.4C44.9,37.5,44.8,38,44.8,38.3L44.8,38.3z"/>
	</g>
	<line fill="none" stroke="#000000" stroke-width="0.5" x1="66.8" y1="31.8" x2="273.7" y2="31.8"/>
	<g>
		<path d="M65.8,44.4v-0.2h0.2c0.2,0,0.4,0,0.5-0.1c0.1-0.1,0.2-0.2,0.2-0.3c0-0.1,0-0.3,0-0.7v-4.8c0-0.4,0-0.6-0.1-0.7
			c0-0.1-0.1-0.2-0.2-0.2c-0.1-0.1-0.3-0.1-0.5-0.1h-0.2v-0.2H69c0.9,0,1.5,0.1,2.1,0.4c0.6,0.3,1.1,0.7,1.4,1.3
			c0.3,0.6,0.5,1.3,0.5,2c0,0.5-0.1,1-0.2,1.4c-0.2,0.4-0.4,0.8-0.6,1.1c-0.3,0.3-0.6,0.5-0.9,0.7c-0.3,0.2-0.7,0.3-1.2,0.4
			c-0.2,0-0.6,0.1-1,0.1H65.8z M68.5,37.6v5.7c0,0.3,0,0.5,0,0.6c0,0.1,0.1,0.1,0.1,0.2C68.8,44,69,44,69.1,44c0.6,0,1-0.2,1.3-0.6
			c0.4-0.6,0.6-1.4,0.6-2.6c0-0.9-0.1-1.7-0.4-2.2c-0.2-0.4-0.5-0.7-0.9-0.9C69.5,37.6,69.1,37.6,68.5,37.6z"/>
		<path d="M78,41.7h-2.7c0,0.7,0.2,1.2,0.5,1.6c0.2,0.3,0.5,0.4,0.9,0.4c0.2,0,0.4-0.1,0.6-0.2c0.2-0.1,0.4-0.3,0.6-0.6l0.2,0.1
			c-0.3,0.6-0.6,0.9-0.9,1.2c-0.3,0.2-0.7,0.3-1.1,0.3c-0.7,0-1.3-0.3-1.7-0.9c-0.3-0.5-0.5-1-0.5-1.7c0-0.8,0.2-1.5,0.7-2
			c0.4-0.5,1-0.7,1.6-0.7c0.5,0,0.9,0.2,1.3,0.6C77.8,40.3,78,40.9,78,41.7z M76.7,41.4c0-0.6,0-1-0.1-1.2c-0.1-0.2-0.2-0.4-0.3-0.5
			c-0.1-0.1-0.2-0.1-0.3-0.1c-0.2,0-0.3,0.1-0.4,0.3c-0.2,0.3-0.3,0.8-0.3,1.3v0.2H76.7z"/>
		<path d="M80.5,43.9v1.9c0,0.3,0,0.4,0.1,0.5c0,0.1,0.1,0.2,0.2,0.2s0.2,0.1,0.5,0.1v0.2h-2.8v-0.2c0.2,0,0.4-0.1,0.5-0.2
			c0.1-0.1,0.1-0.3,0.1-0.6v-5.3c0-0.4,0-0.6-0.1-0.7c-0.1-0.1-0.2-0.2-0.5-0.2v-0.2h2.1v0.7c0.2-0.3,0.3-0.4,0.5-0.6
			c0.3-0.2,0.5-0.3,0.8-0.3c0.4,0,0.7,0.1,1,0.3c0.3,0.2,0.5,0.6,0.7,1s0.2,0.9,0.2,1.3c0,0.5-0.1,1-0.2,1.4c-0.2,0.4-0.4,0.7-0.7,1
			c-0.3,0.2-0.6,0.3-1,0.3c-0.3,0-0.5-0.1-0.8-0.2C80.9,44.3,80.7,44.1,80.5,43.9z M80.5,43.4c0.3,0.4,0.6,0.7,1,0.7
			c0.2,0,0.3-0.1,0.5-0.3c0.2-0.3,0.3-0.9,0.3-1.7c0-0.9-0.1-1.5-0.3-1.8c-0.1-0.2-0.3-0.3-0.5-0.3c-0.4,0-0.6,0.3-0.9,0.8V43.4z"/>
		<path d="M87.3,43.7c-0.6,0.5-1.1,0.8-1.6,0.8c-0.3,0-0.5-0.1-0.7-0.3c-0.2-0.2-0.3-0.4-0.3-0.7c0-0.4,0.2-0.7,0.5-1
			c0.3-0.3,1-0.7,2.1-1.2v-0.5c0-0.4,0-0.6-0.1-0.7c0-0.1-0.1-0.2-0.2-0.3c-0.1-0.1-0.2-0.1-0.4-0.1c-0.2,0-0.4,0.1-0.6,0.2
			C86,39.9,85.9,40,85.9,40c0,0.1,0,0.2,0.1,0.3c0.1,0.2,0.2,0.3,0.2,0.4c0,0.2-0.1,0.3-0.2,0.4c-0.1,0.1-0.3,0.2-0.5,0.2
			c-0.2,0-0.4-0.1-0.6-0.2c-0.1-0.1-0.2-0.3-0.2-0.5c0-0.3,0.1-0.5,0.3-0.7c0.2-0.2,0.5-0.4,0.8-0.5s0.7-0.2,1.1-0.2
			c0.5,0,0.8,0.1,1.1,0.3c0.3,0.2,0.4,0.4,0.5,0.7c0,0.2,0.1,0.5,0.1,1v1.9c0,0.2,0,0.4,0,0.4c0,0.1,0,0.1,0.1,0.1c0,0,0.1,0,0.1,0
			c0.1,0,0.2-0.1,0.3-0.2l0.2,0.1c-0.2,0.3-0.4,0.5-0.5,0.6c-0.2,0.1-0.4,0.2-0.6,0.2c-0.3,0-0.5-0.1-0.7-0.2
			C87.4,44.2,87.4,44,87.3,43.7z M87.3,43.3v-1.7c-0.4,0.3-0.7,0.5-0.9,0.8c-0.1,0.2-0.2,0.4-0.2,0.6c0,0.2,0.1,0.3,0.2,0.4
			c0.1,0.1,0.2,0.1,0.4,0.1C86.9,43.6,87.1,43.5,87.3,43.3z"/>
		<path d="M92,39.4v1.1c0.3-0.5,0.6-0.9,0.9-1c0.2-0.2,0.5-0.3,0.7-0.3c0.2,0,0.4,0.1,0.5,0.2c0.1,0.1,0.2,0.3,0.2,0.5
			c0,0.2-0.1,0.4-0.2,0.6c-0.1,0.1-0.3,0.2-0.4,0.2c-0.2,0-0.3-0.1-0.5-0.2s-0.2-0.2-0.2-0.2c0,0-0.1,0-0.1,0c-0.1,0-0.2,0-0.3,0.1
			c-0.1,0.1-0.3,0.3-0.3,0.5c-0.1,0.3-0.2,0.7-0.2,1.2v1.2l0,0.3c0,0.2,0,0.3,0,0.4c0,0.1,0.1,0.2,0.2,0.2c0.1,0,0.2,0.1,0.4,0.1
			v0.2H90v-0.2c0.2,0,0.4-0.1,0.4-0.2c0.1-0.1,0.1-0.4,0.1-0.8v-2.8c0-0.3,0-0.5,0-0.5c0-0.1-0.1-0.2-0.2-0.2
			c-0.1,0-0.2-0.1-0.4-0.1v-0.2H92z"/>
		<path d="M96.7,37.6v1.8h1.2v0.5h-1.2V43c0,0.3,0,0.5,0,0.6c0,0.1,0.1,0.2,0.1,0.2s0.1,0.1,0.2,0.1c0.2,0,0.4-0.2,0.6-0.5l0.2,0.1
			c-0.3,0.7-0.7,1-1.4,1c-0.3,0-0.6-0.1-0.8-0.3c-0.2-0.2-0.4-0.4-0.4-0.6c0-0.1-0.1-0.5-0.1-1v-2.7h-0.6v-0.2
			c0.4-0.3,0.8-0.7,1.1-1s0.6-0.7,0.8-1.2H96.7z"/>
		<path d="M100.4,39.4v0.7c0.3-0.3,0.5-0.5,0.8-0.6c0.2-0.1,0.5-0.2,0.8-0.2c0.3,0,0.6,0.1,0.8,0.2c0.2,0.2,0.4,0.4,0.5,0.7
			c0.3-0.3,0.5-0.6,0.8-0.7c0.3-0.1,0.5-0.2,0.8-0.2c0.3,0,0.6,0.1,0.8,0.2c0.2,0.2,0.3,0.4,0.4,0.6c0.1,0.2,0.1,0.6,0.1,1.2v2.1
			c0,0.4,0,0.6,0.1,0.7s0.2,0.2,0.4,0.2v0.2h-2.5v-0.2c0.2,0,0.3-0.1,0.4-0.2c0.1-0.1,0.1-0.3,0.1-0.7v-2.2c0-0.4,0-0.7-0.1-0.9
			c0-0.1-0.1-0.2-0.2-0.3c-0.1-0.1-0.2-0.1-0.3-0.1c-0.2,0-0.3,0.1-0.5,0.2c-0.2,0.1-0.3,0.3-0.5,0.5v2.7c0,0.4,0,0.6,0.1,0.7
			c0.1,0.1,0.2,0.2,0.5,0.2v0.2h-2.5v-0.2c0.1,0,0.2,0,0.3-0.1c0.1-0.1,0.1-0.1,0.2-0.2c0-0.1,0-0.3,0-0.6v-2.2c0-0.5,0-0.7-0.1-0.9
			c0-0.1-0.1-0.2-0.2-0.3c-0.1-0.1-0.2-0.1-0.3-0.1c-0.1,0-0.3,0-0.4,0.1c-0.2,0.1-0.3,0.3-0.5,0.6v2.7c0,0.4,0,0.6,0.1,0.7
			c0.1,0.1,0.2,0.2,0.4,0.2v0.2h-2.5v-0.2c0.2,0,0.4-0.1,0.4-0.2c0.1-0.1,0.1-0.3,0.1-0.7v-2.8c0-0.4,0-0.6-0.1-0.7
			s-0.2-0.2-0.4-0.2v-0.2H100.4z"/>
		<path d="M111.5,41.7h-2.7c0,0.7,0.2,1.2,0.5,1.6c0.2,0.3,0.5,0.4,0.9,0.4c0.2,0,0.4-0.1,0.6-0.2c0.2-0.1,0.4-0.3,0.6-0.6l0.2,0.1
			c-0.3,0.6-0.6,0.9-0.9,1.2c-0.3,0.2-0.7,0.3-1.1,0.3c-0.7,0-1.3-0.3-1.7-0.9c-0.3-0.5-0.5-1-0.5-1.7c0-0.8,0.2-1.5,0.7-2
			c0.4-0.5,1-0.7,1.6-0.7c0.5,0,0.9,0.2,1.3,0.6C111.3,40.3,111.5,40.9,111.5,41.7z M110.2,41.4c0-0.6,0-1-0.1-1.2
			c-0.1-0.2-0.2-0.4-0.3-0.5c-0.1-0.1-0.2-0.1-0.3-0.1c-0.2,0-0.3,0.1-0.4,0.3c-0.2,0.3-0.3,0.8-0.3,1.3v0.2H110.2z"/>
		<path d="M114.1,39.4v0.6c0.3-0.3,0.5-0.5,0.7-0.6c0.2-0.1,0.5-0.2,0.7-0.2c0.3,0,0.6,0.1,0.8,0.3c0.2,0.2,0.4,0.4,0.4,0.7
			c0.1,0.2,0.1,0.6,0.1,1.2v2c0,0.4,0,0.6,0.1,0.7c0.1,0.1,0.2,0.2,0.4,0.2v0.2H115v-0.2c0.2,0,0.3-0.1,0.4-0.2
			c0.1-0.1,0.1-0.3,0.1-0.7v-2.2c0-0.4,0-0.7,0-0.8s-0.1-0.2-0.2-0.2c-0.1-0.1-0.2-0.1-0.2-0.1c-0.3,0-0.6,0.2-0.8,0.7v2.7
			c0,0.4,0,0.6,0.1,0.7c0.1,0.1,0.2,0.2,0.4,0.2v0.2h-2.5v-0.2c0.2,0,0.4-0.1,0.4-0.2c0.1-0.1,0.1-0.3,0.1-0.7v-2.8
			c0-0.4,0-0.6-0.1-0.7s-0.2-0.2-0.4-0.2v-0.2H114.1z"/>
		<path d="M120.1,37.6v1.8h1.2v0.5h-1.2V43c0,0.3,0,0.5,0,0.6c0,0.1,0.1,0.2,0.1,0.2s0.1,0.1,0.2,0.1c0.2,0,0.4-0.2,0.6-0.5l0.2,0.1
			c-0.3,0.7-0.7,1-1.4,1c-0.3,0-0.6-0.1-0.8-0.3c-0.2-0.2-0.4-0.4-0.4-0.6c0-0.1-0.1-0.5-0.1-1v-2.7H118v-0.2c0.4-0.3,0.8-0.7,1.1-1
			s0.6-0.7,0.8-1.2H120.1z"/>
		<path d="M126.7,39.3c0.4,0,0.8,0.1,1.2,0.3c0.4,0.2,0.6,0.5,0.8,1c0.2,0.4,0.3,0.9,0.3,1.4c0,0.7-0.2,1.3-0.5,1.8
			c-0.4,0.6-1,0.9-1.8,0.9c-0.7,0-1.3-0.3-1.7-0.8s-0.6-1.1-0.6-1.8c0-0.7,0.2-1.3,0.6-1.9C125.5,39.5,126,39.3,126.7,39.3z
			 M126.8,39.6c-0.2,0-0.3,0.1-0.5,0.2c-0.1,0.1-0.2,0.4-0.3,0.8s-0.1,1-0.1,1.7c0,0.4,0,0.7,0.1,1.1c0,0.3,0.1,0.4,0.2,0.6
			s0.3,0.2,0.4,0.2c0.2,0,0.3,0,0.4-0.1c0.1-0.1,0.2-0.3,0.3-0.5c0.1-0.3,0.1-1,0.1-2.1c0-0.6,0-1-0.1-1.3c-0.1-0.2-0.2-0.4-0.3-0.5
			C127,39.7,126.9,39.6,126.8,39.6z"/>
		<path d="M132,39.9v3.5c0,0.3,0,0.5,0.1,0.6c0.1,0.1,0.3,0.2,0.6,0.2v0.2h-2.9v-0.2c0.2,0,0.4,0,0.5-0.1c0.1,0,0.2-0.1,0.2-0.2
			s0.1-0.3,0.1-0.5v-3.5h-0.7v-0.5h0.7V39l0-0.3c0-0.5,0.2-0.9,0.6-1.3c0.4-0.3,0.9-0.5,1.5-0.5c0.4,0,0.8,0.1,1,0.2
			c0.2,0.2,0.3,0.3,0.3,0.5c0,0.2-0.1,0.3-0.2,0.4c-0.1,0.1-0.3,0.2-0.5,0.2c-0.2,0-0.3,0-0.4-0.1c-0.1-0.1-0.2-0.2-0.2-0.3
			c0,0,0-0.1,0-0.2c0-0.1,0-0.1,0-0.2c0-0.1,0-0.1-0.1-0.2c-0.1-0.1-0.1-0.1-0.2-0.1c-0.1,0-0.2,0-0.3,0.1s-0.1,0.2-0.1,0.4l0,0.9
			v0.6h0.7v0.5H132z"/>
		<path d="M142.9,37v2.5h-0.2c-0.2-0.7-0.4-1.2-0.9-1.5c-0.4-0.4-0.9-0.5-1.4-0.5c-0.4,0-0.9,0.1-1.2,0.4s-0.6,0.6-0.8,1
			c-0.2,0.5-0.3,1.1-0.3,1.8c0,0.7,0.1,1.2,0.2,1.8s0.4,0.9,0.8,1.2c0.3,0.3,0.8,0.4,1.3,0.4c0.4,0,0.9-0.1,1.2-0.3
			c0.4-0.2,0.8-0.5,1.2-1v0.6c-0.4,0.4-0.8,0.7-1.2,0.9s-0.9,0.3-1.5,0.3c-0.8,0-1.4-0.2-2-0.5s-1-0.8-1.4-1.3
			c-0.3-0.6-0.5-1.2-0.5-1.9c0-0.7,0.2-1.4,0.5-2c0.4-0.6,0.8-1.1,1.4-1.4s1.2-0.5,1.9-0.5c0.5,0,1,0.1,1.6,0.3
			c0.3,0.1,0.5,0.2,0.6,0.2c0.1,0,0.2,0,0.3-0.1c0.1-0.1,0.1-0.2,0.2-0.4H142.9z"/>
		<path d="M146.2,39.3c0.4,0,0.8,0.1,1.2,0.3c0.4,0.2,0.6,0.5,0.8,1c0.2,0.4,0.3,0.9,0.3,1.4c0,0.7-0.2,1.3-0.5,1.8
			c-0.4,0.6-1,0.9-1.8,0.9c-0.7,0-1.3-0.3-1.7-0.8c-0.4-0.5-0.6-1.1-0.6-1.8c0-0.7,0.2-1.3,0.6-1.9S145.5,39.3,146.2,39.3z
			 M146.2,39.6c-0.2,0-0.3,0.1-0.5,0.2c-0.1,0.1-0.2,0.4-0.3,0.8c0,0.4-0.1,1-0.1,1.7c0,0.4,0,0.7,0.1,1.1c0,0.3,0.1,0.4,0.2,0.6
			s0.3,0.2,0.4,0.2c0.2,0,0.3,0,0.4-0.1c0.1-0.1,0.2-0.3,0.3-0.5c0.1-0.3,0.1-1,0.1-2.1c0-0.6,0-1-0.1-1.3c-0.1-0.2-0.2-0.4-0.3-0.5
			C146.5,39.7,146.4,39.6,146.2,39.6z"/>
		<path d="M151.3,39.4v0.7c0.3-0.3,0.5-0.5,0.8-0.6c0.2-0.1,0.5-0.2,0.8-0.2c0.3,0,0.6,0.1,0.8,0.2c0.2,0.2,0.4,0.4,0.5,0.7
			c0.3-0.3,0.5-0.6,0.8-0.7c0.3-0.1,0.5-0.2,0.8-0.2c0.3,0,0.6,0.1,0.8,0.2c0.2,0.2,0.3,0.4,0.4,0.6c0.1,0.2,0.1,0.6,0.1,1.2v2.1
			c0,0.4,0,0.6,0.1,0.7s0.2,0.2,0.4,0.2v0.2h-2.5v-0.2c0.2,0,0.3-0.1,0.4-0.2c0.1-0.1,0.1-0.3,0.1-0.7v-2.2c0-0.4,0-0.7-0.1-0.9
			c0-0.1-0.1-0.2-0.2-0.3c-0.1-0.1-0.2-0.1-0.3-0.1c-0.2,0-0.3,0.1-0.5,0.2c-0.2,0.1-0.3,0.3-0.5,0.5v2.7c0,0.4,0,0.6,0.1,0.7
			c0.1,0.1,0.2,0.2,0.5,0.2v0.2h-2.5v-0.2c0.1,0,0.2,0,0.3-0.1c0.1-0.1,0.1-0.1,0.2-0.2c0-0.1,0-0.3,0-0.6v-2.2c0-0.5,0-0.7-0.1-0.9
			c0-0.1-0.1-0.2-0.2-0.3c-0.1-0.1-0.2-0.1-0.3-0.1c-0.1,0-0.3,0-0.4,0.1c-0.2,0.1-0.3,0.3-0.5,0.6v2.7c0,0.4,0,0.6,0.1,0.7
			c0.1,0.1,0.2,0.2,0.4,0.2v0.2h-2.5v-0.2c0.2,0,0.4-0.1,0.4-0.2c0.1-0.1,0.1-0.3,0.1-0.7v-2.8c0-0.4,0-0.6-0.1-0.7
			s-0.2-0.2-0.4-0.2v-0.2H151.3z"/>
		<path d="M160.3,39.4v0.7c0.3-0.3,0.5-0.5,0.8-0.6c0.2-0.1,0.5-0.2,0.8-0.2c0.3,0,0.6,0.1,0.8,0.2c0.2,0.2,0.4,0.4,0.5,0.7
			c0.3-0.3,0.6-0.6,0.8-0.7c0.3-0.1,0.5-0.2,0.8-0.2c0.3,0,0.6,0.1,0.8,0.2c0.2,0.2,0.3,0.4,0.4,0.6c0.1,0.2,0.1,0.6,0.1,1.2v2.1
			c0,0.4,0,0.6,0.1,0.7s0.2,0.2,0.4,0.2v0.2H164v-0.2c0.2,0,0.3-0.1,0.4-0.2c0.1-0.1,0.1-0.3,0.1-0.7v-2.2c0-0.4,0-0.7-0.1-0.9
			c0-0.1-0.1-0.2-0.2-0.3c-0.1-0.1-0.2-0.1-0.3-0.1c-0.2,0-0.3,0.1-0.5,0.2c-0.2,0.1-0.3,0.3-0.5,0.5v2.7c0,0.4,0,0.6,0.1,0.7
			c0.1,0.1,0.2,0.2,0.5,0.2v0.2h-2.5v-0.2c0.1,0,0.2,0,0.3-0.1c0.1-0.1,0.1-0.1,0.2-0.2s0-0.3,0-0.6v-2.2c0-0.5,0-0.7-0.1-0.9
			c0-0.1-0.1-0.2-0.2-0.3s-0.2-0.1-0.3-0.1c-0.1,0-0.3,0-0.4,0.1c-0.2,0.1-0.3,0.3-0.5,0.6v2.7c0,0.4,0,0.6,0.1,0.7
			c0.1,0.1,0.2,0.2,0.4,0.2v0.2h-2.5v-0.2c0.2,0,0.4-0.1,0.4-0.2c0.1-0.1,0.1-0.3,0.1-0.7v-2.8c0-0.4,0-0.6-0.1-0.7
			s-0.2-0.2-0.4-0.2v-0.2H160.3z"/>
		<path d="M172,39.4v3.9c0,0.4,0,0.6,0.1,0.7c0.1,0.1,0.2,0.2,0.4,0.2v0.2h-2v-0.7c-0.2,0.3-0.5,0.5-0.7,0.6
			c-0.2,0.1-0.5,0.2-0.8,0.2c-0.3,0-0.5-0.1-0.7-0.3c-0.2-0.2-0.4-0.4-0.4-0.6c-0.1-0.2-0.1-0.6-0.1-1.2v-2c0-0.4,0-0.6-0.1-0.7
			s-0.2-0.2-0.4-0.2v-0.2h2v3.4c0,0.4,0,0.6,0,0.7c0,0.1,0.1,0.2,0.2,0.2c0.1,0.1,0.2,0.1,0.2,0.1c0.1,0,0.2,0,0.3-0.1
			c0.1-0.1,0.3-0.3,0.5-0.6v-2.7c0-0.4,0-0.6-0.1-0.7c-0.1-0.1-0.2-0.2-0.4-0.2v-0.2H172z"/>
		<path d="M175.2,39.4v0.6c0.3-0.3,0.5-0.5,0.7-0.6c0.2-0.1,0.5-0.2,0.7-0.2c0.3,0,0.6,0.1,0.8,0.3c0.2,0.2,0.4,0.4,0.4,0.7
			c0.1,0.2,0.1,0.6,0.1,1.2v2c0,0.4,0,0.6,0.1,0.7c0.1,0.1,0.2,0.2,0.4,0.2v0.2H176v-0.2c0.2,0,0.3-0.1,0.4-0.2
			c0.1-0.1,0.1-0.3,0.1-0.7v-2.2c0-0.4,0-0.7,0-0.8c0-0.1-0.1-0.2-0.2-0.2c-0.1-0.1-0.2-0.1-0.2-0.1c-0.3,0-0.6,0.2-0.8,0.7v2.7
			c0,0.4,0,0.6,0.1,0.7c0.1,0.1,0.2,0.2,0.4,0.2v0.2h-2.5v-0.2c0.2,0,0.4-0.1,0.4-0.2c0.1-0.1,0.1-0.3,0.1-0.7v-2.8
			c0-0.4,0-0.6-0.1-0.7s-0.2-0.2-0.4-0.2v-0.2H175.2z"/>
		<path d="M181.1,39.4v4c0,0.4,0,0.6,0.1,0.7c0.1,0.1,0.2,0.2,0.5,0.2v0.2h-2.7v-0.2c0.2,0,0.4-0.1,0.5-0.2c0.1-0.1,0.1-0.3,0.1-0.7
			v-2.9c0-0.4,0-0.6-0.1-0.7c-0.1-0.1-0.2-0.2-0.5-0.2v-0.2H181.1z M180.4,37c0.2,0,0.4,0.1,0.6,0.2c0.2,0.2,0.2,0.4,0.2,0.6
			c0,0.2-0.1,0.4-0.2,0.6c-0.2,0.2-0.4,0.2-0.6,0.2s-0.4-0.1-0.6-0.2s-0.2-0.4-0.2-0.6c0-0.2,0.1-0.4,0.2-0.6
			C180,37.1,180.2,37,180.4,37z"/>
		<path d="M186.2,43.1l0.2,0.1c-0.2,0.4-0.5,0.8-0.9,1c-0.3,0.2-0.7,0.3-1.1,0.3c-0.7,0-1.2-0.3-1.6-0.8c-0.4-0.5-0.6-1.1-0.6-1.8
			c0-0.7,0.2-1.3,0.5-1.8c0.4-0.6,1-0.9,1.8-0.9c0.5,0,0.9,0.1,1.2,0.4c0.3,0.3,0.4,0.6,0.4,0.9c0,0.2-0.1,0.4-0.2,0.5
			s-0.3,0.2-0.5,0.2c-0.2,0-0.4-0.1-0.5-0.2c-0.1-0.1-0.2-0.4-0.2-0.7c0-0.2-0.1-0.4-0.2-0.5c-0.1-0.1-0.2-0.1-0.3-0.1
			c-0.2,0-0.3,0.1-0.4,0.3c-0.2,0.3-0.3,0.7-0.3,1.3c0,0.5,0.1,0.9,0.2,1.4c0.1,0.4,0.3,0.8,0.6,1c0.2,0.2,0.4,0.2,0.7,0.2
			c0.2,0,0.3,0,0.5-0.1S186,43.4,186.2,43.1z"/>
		<path d="M189.7,43.7c-0.6,0.5-1.1,0.8-1.6,0.8c-0.3,0-0.5-0.1-0.7-0.3c-0.2-0.2-0.3-0.4-0.3-0.7c0-0.4,0.2-0.7,0.5-1
			c0.3-0.3,1-0.7,2.1-1.2v-0.5c0-0.4,0-0.6-0.1-0.7c0-0.1-0.1-0.2-0.2-0.3c-0.1-0.1-0.2-0.1-0.4-0.1c-0.2,0-0.4,0.1-0.6,0.2
			c-0.1,0.1-0.1,0.1-0.1,0.2c0,0.1,0,0.2,0.1,0.3c0.1,0.2,0.2,0.3,0.2,0.4c0,0.2-0.1,0.3-0.2,0.4c-0.1,0.1-0.3,0.2-0.5,0.2
			c-0.2,0-0.4-0.1-0.6-0.2c-0.1-0.1-0.2-0.3-0.2-0.5c0-0.3,0.1-0.5,0.3-0.7c0.2-0.2,0.5-0.4,0.8-0.5c0.4-0.1,0.7-0.2,1.1-0.2
			c0.5,0,0.8,0.1,1.1,0.3c0.3,0.2,0.4,0.4,0.5,0.7c0,0.2,0.1,0.5,0.1,1v1.9c0,0.2,0,0.4,0,0.4c0,0.1,0,0.1,0.1,0.1c0,0,0.1,0,0.1,0
			c0.1,0,0.2-0.1,0.3-0.2l0.2,0.1c-0.2,0.3-0.4,0.5-0.5,0.6c-0.2,0.1-0.4,0.2-0.6,0.2c-0.3,0-0.5-0.1-0.7-0.2
			C189.8,44.2,189.7,44,189.7,43.7z M189.7,43.3v-1.7c-0.4,0.3-0.7,0.5-0.9,0.8c-0.1,0.2-0.2,0.4-0.2,0.6c0,0.2,0.1,0.3,0.2,0.4
			c0.1,0.1,0.2,0.1,0.4,0.1C189.3,43.6,189.5,43.5,189.7,43.3z"/>
		<path d="M194.3,37.6v1.8h1.2v0.5h-1.2V43c0,0.3,0,0.5,0,0.6c0,0.1,0.1,0.2,0.1,0.2c0.1,0.1,0.1,0.1,0.2,0.1c0.2,0,0.4-0.2,0.6-0.5
			l0.2,0.1c-0.3,0.7-0.7,1-1.4,1c-0.3,0-0.6-0.1-0.8-0.3c-0.2-0.2-0.4-0.4-0.4-0.6c0-0.1-0.1-0.5-0.1-1v-2.7h-0.6v-0.2
			c0.4-0.3,0.8-0.7,1.1-1s0.6-0.7,0.8-1.2H194.3z"/>
		<path d="M197.9,39.4v4c0,0.4,0,0.6,0.1,0.7c0.1,0.1,0.2,0.2,0.5,0.2v0.2h-2.7v-0.2c0.2,0,0.4-0.1,0.5-0.2c0.1-0.1,0.1-0.3,0.1-0.7
			v-2.9c0-0.4,0-0.6-0.1-0.7c-0.1-0.1-0.2-0.2-0.5-0.2v-0.2H197.9z M197.2,37c0.2,0,0.4,0.1,0.6,0.2c0.2,0.2,0.2,0.4,0.2,0.6
			c0,0.2-0.1,0.4-0.2,0.6c-0.2,0.2-0.4,0.2-0.6,0.2s-0.4-0.1-0.6-0.2s-0.2-0.4-0.2-0.6c0-0.2,0.1-0.4,0.2-0.6
			C196.7,37.1,196.9,37,197.2,37z"/>
		<path d="M201.3,39.3c0.4,0,0.8,0.1,1.2,0.3c0.4,0.2,0.6,0.5,0.8,1c0.2,0.4,0.3,0.9,0.3,1.4c0,0.7-0.2,1.3-0.5,1.8
			c-0.4,0.6-1,0.9-1.8,0.9c-0.7,0-1.3-0.3-1.7-0.8c-0.4-0.5-0.6-1.1-0.6-1.8c0-0.7,0.2-1.3,0.6-1.9C200,39.5,200.6,39.3,201.3,39.3z
			 M201.3,39.6c-0.2,0-0.3,0.1-0.5,0.2c-0.1,0.1-0.2,0.4-0.3,0.8c0,0.4-0.1,1-0.1,1.7c0,0.4,0,0.7,0.1,1.1c0,0.3,0.1,0.4,0.2,0.6
			c0.1,0.1,0.3,0.2,0.4,0.2c0.2,0,0.3,0,0.4-0.1c0.1-0.1,0.2-0.3,0.3-0.5c0.1-0.3,0.1-1,0.1-2.1c0-0.6,0-1-0.1-1.3
			c-0.1-0.2-0.2-0.4-0.3-0.5C201.6,39.7,201.5,39.6,201.3,39.6z"/>
		<path d="M206.4,39.4v0.6c0.3-0.3,0.5-0.5,0.7-0.6c0.2-0.1,0.5-0.2,0.7-0.2c0.3,0,0.6,0.1,0.8,0.3s0.4,0.4,0.4,0.7
			c0.1,0.2,0.1,0.6,0.1,1.2v2c0,0.4,0,0.6,0.1,0.7c0.1,0.1,0.2,0.2,0.4,0.2v0.2h-2.5v-0.2c0.2,0,0.3-0.1,0.4-0.2
			c0.1-0.1,0.1-0.3,0.1-0.7v-2.2c0-0.4,0-0.7,0-0.8c0-0.1-0.1-0.2-0.2-0.2c-0.1-0.1-0.2-0.1-0.2-0.1c-0.3,0-0.6,0.2-0.8,0.7v2.7
			c0,0.4,0,0.6,0.1,0.7c0.1,0.1,0.2,0.2,0.4,0.2v0.2h-2.5v-0.2c0.2,0,0.4-0.1,0.4-0.2c0.1-0.1,0.1-0.3,0.1-0.7v-2.8
			c0-0.4,0-0.6-0.1-0.7s-0.2-0.2-0.4-0.2v-0.2H206.4z"/>
		<path d="M213.5,39.3l0.1,1.7h-0.2c-0.2-0.5-0.4-0.9-0.7-1s-0.5-0.3-0.7-0.3c-0.1,0-0.3,0-0.4,0.1s-0.2,0.2-0.2,0.3
			c0,0.1,0,0.2,0.1,0.3c0.1,0.1,0.4,0.4,0.9,0.8c0.5,0.4,0.9,0.7,1,0.9c0.2,0.2,0.2,0.5,0.2,0.8c0,0.3-0.1,0.6-0.2,0.8
			c-0.1,0.3-0.3,0.5-0.6,0.6s-0.5,0.2-0.8,0.2c-0.2,0-0.5-0.1-0.9-0.2c-0.1,0-0.2-0.1-0.2-0.1c-0.1,0-0.2,0.1-0.3,0.3h-0.2l-0.1-1.8
			h0.2c0.2,0.5,0.4,0.8,0.7,1.1s0.5,0.4,0.8,0.4c0.2,0,0.3-0.1,0.4-0.2c0.1-0.1,0.2-0.2,0.2-0.4c0-0.2-0.1-0.3-0.2-0.4
			c-0.1-0.1-0.3-0.3-0.7-0.6c-0.5-0.4-0.9-0.7-1-0.9c-0.2-0.3-0.3-0.6-0.3-1c0-0.4,0.1-0.7,0.4-1s0.6-0.5,1.1-0.5
			c0.3,0,0.5,0.1,0.8,0.2c0.1,0.1,0.2,0.1,0.2,0.1c0.1,0,0.1,0,0.2,0c0,0,0.1-0.1,0.2-0.2H213.5z"/>
		<path d="M220,43.7c-0.6,0.5-1.1,0.8-1.6,0.8c-0.3,0-0.5-0.1-0.7-0.3c-0.2-0.2-0.3-0.4-0.3-0.7c0-0.4,0.2-0.7,0.5-1
			c0.3-0.3,1-0.7,2.1-1.2v-0.5c0-0.4,0-0.6-0.1-0.7c0-0.1-0.1-0.2-0.2-0.3c-0.1-0.1-0.2-0.1-0.4-0.1c-0.2,0-0.4,0.1-0.6,0.2
			c-0.1,0.1-0.1,0.1-0.1,0.2c0,0.1,0,0.2,0.1,0.3c0.1,0.2,0.2,0.3,0.2,0.4c0,0.2-0.1,0.3-0.2,0.4c-0.1,0.1-0.3,0.2-0.5,0.2
			c-0.2,0-0.4-0.1-0.6-0.2c-0.1-0.1-0.2-0.3-0.2-0.5c0-0.3,0.1-0.5,0.3-0.7c0.2-0.2,0.5-0.4,0.8-0.5s0.7-0.2,1.1-0.2
			c0.5,0,0.8,0.1,1.1,0.3c0.3,0.2,0.4,0.4,0.5,0.7c0,0.2,0.1,0.5,0.1,1v1.9c0,0.2,0,0.4,0,0.4c0,0.1,0,0.1,0.1,0.1c0,0,0.1,0,0.1,0
			c0.1,0,0.2-0.1,0.3-0.2l0.2,0.1c-0.2,0.3-0.4,0.5-0.5,0.6s-0.4,0.2-0.6,0.2c-0.3,0-0.5-0.1-0.7-0.2C220.1,44.2,220,44,220,43.7z
			 M220,43.3v-1.7c-0.4,0.3-0.7,0.5-0.9,0.8c-0.1,0.2-0.2,0.4-0.2,0.6c0,0.2,0.1,0.3,0.2,0.4c0.1,0.1,0.2,0.1,0.4,0.1
			C219.5,43.6,219.7,43.5,220,43.3z"/>
		<path d="M224.6,39.4v0.6c0.3-0.3,0.5-0.5,0.7-0.6c0.2-0.1,0.5-0.2,0.7-0.2c0.3,0,0.6,0.1,0.8,0.3s0.4,0.4,0.4,0.7
			c0.1,0.2,0.1,0.6,0.1,1.2v2c0,0.4,0,0.6,0.1,0.7c0.1,0.1,0.2,0.2,0.4,0.2v0.2h-2.5v-0.2c0.2,0,0.3-0.1,0.4-0.2
			c0.1-0.1,0.1-0.3,0.1-0.7v-2.2c0-0.4,0-0.7,0-0.8s-0.1-0.2-0.2-0.2c-0.1-0.1-0.2-0.1-0.2-0.1c-0.3,0-0.6,0.2-0.8,0.7v2.7
			c0,0.4,0,0.6,0.1,0.7c0.1,0.1,0.2,0.2,0.4,0.2v0.2h-2.5v-0.2c0.2,0,0.4-0.1,0.4-0.2c0.1-0.1,0.1-0.3,0.1-0.7v-2.8
			c0-0.4,0-0.6-0.1-0.7s-0.2-0.2-0.4-0.2v-0.2H224.6z"/>
		<path d="M233.4,37.1v5.8c0,0.4,0,0.6,0,0.7c0,0.1,0.1,0.2,0.2,0.3c0.1,0.1,0.2,0.1,0.4,0.1v0.2l-2.1,0.4v-0.8
			c-0.2,0.3-0.5,0.5-0.7,0.6c-0.2,0.1-0.4,0.2-0.7,0.2c-0.6,0-1.1-0.3-1.5-0.9c-0.3-0.5-0.4-1-0.4-1.7c0-0.5,0.1-1,0.3-1.5
			c0.2-0.4,0.4-0.8,0.8-1c0.3-0.2,0.7-0.3,1-0.3c0.2,0,0.4,0,0.6,0.1c0.2,0.1,0.4,0.3,0.6,0.5v-1.5c0-0.4,0-0.6,0-0.7
			c0-0.1-0.1-0.2-0.2-0.2c-0.1-0.1-0.2-0.1-0.5-0.1v-0.2H233.4z M231.9,40.5c-0.3-0.5-0.6-0.8-1-0.8c-0.1,0-0.2,0-0.3,0.1
			c-0.1,0.1-0.2,0.3-0.3,0.6c-0.1,0.3-0.1,0.7-0.1,1.3c0,0.6,0,1.1,0.1,1.4c0.1,0.3,0.2,0.5,0.4,0.7c0.1,0.1,0.2,0.1,0.3,0.1
			c0.3,0,0.6-0.2,0.9-0.7V40.5z"/>
		<path d="M239.3,37.6v1.8h1.2v0.5h-1.2V43c0,0.3,0,0.5,0,0.6c0,0.1,0.1,0.2,0.1,0.2s0.1,0.1,0.2,0.1c0.2,0,0.4-0.2,0.6-0.5l0.2,0.1
			c-0.3,0.7-0.7,1-1.4,1c-0.3,0-0.6-0.1-0.8-0.3c-0.2-0.2-0.4-0.4-0.4-0.6c0-0.1-0.1-0.5-0.1-1v-2.7h-0.6v-0.2
			c0.4-0.3,0.8-0.7,1.1-1s0.6-0.7,0.8-1.2H239.3z"/>
		<path d="M242.9,37.1V40c0.3-0.3,0.5-0.5,0.7-0.6c0.2-0.1,0.5-0.2,0.7-0.2c0.3,0,0.6,0.1,0.8,0.3c0.2,0.2,0.4,0.4,0.4,0.6
			c0.1,0.2,0.1,0.6,0.1,1.2v2c0,0.4,0,0.6,0.1,0.7c0.1,0.1,0.2,0.2,0.4,0.2v0.2h-2.5v-0.2c0.2,0,0.3-0.1,0.4-0.2
			c0.1-0.1,0.1-0.3,0.1-0.7v-2.2c0-0.4,0-0.7,0-0.8s-0.1-0.2-0.2-0.2c-0.1-0.1-0.2-0.1-0.3-0.1c-0.1,0-0.3,0-0.4,0.1
			c-0.1,0.1-0.3,0.3-0.4,0.5v2.7c0,0.4,0,0.6,0.1,0.7c0.1,0.1,0.2,0.2,0.4,0.2v0.2h-2.5v-0.2c0.2,0,0.4-0.1,0.4-0.2
			c0.1-0.1,0.1-0.3,0.1-0.7v-5.1c0-0.4,0-0.6-0.1-0.7c-0.1-0.1-0.2-0.2-0.4-0.2v-0.2H242.9z"/>
		<path d="M251.1,41.7h-2.7c0,0.7,0.2,1.2,0.5,1.6c0.2,0.3,0.5,0.4,0.9,0.4c0.2,0,0.4-0.1,0.6-0.2c0.2-0.1,0.4-0.3,0.6-0.6l0.2,0.1
			c-0.3,0.6-0.6,0.9-0.9,1.2c-0.3,0.2-0.7,0.3-1.1,0.3c-0.7,0-1.3-0.3-1.7-0.9c-0.3-0.5-0.5-1-0.5-1.7c0-0.8,0.2-1.5,0.7-2
			c0.4-0.5,1-0.7,1.6-0.7c0.5,0,0.9,0.2,1.3,0.6C250.8,40.3,251,40.9,251.1,41.7z M249.8,41.4c0-0.6,0-1-0.1-1.2s-0.2-0.4-0.3-0.5
			c-0.1-0.1-0.2-0.1-0.3-0.1c-0.2,0-0.3,0.1-0.4,0.3c-0.2,0.3-0.3,0.8-0.3,1.3v0.2H249.8z"/>
		<path d="M257.9,42.4h-2.5l-0.3,0.7c-0.1,0.2-0.1,0.4-0.1,0.6c0,0.2,0.1,0.4,0.2,0.5c0.1,0.1,0.3,0.1,0.7,0.1v0.2h-2.4v-0.2
			c0.3,0,0.5-0.1,0.6-0.3c0.2-0.2,0.4-0.5,0.6-1.1l2.6-5.8h0.1l2.6,6c0.2,0.6,0.4,0.9,0.6,1.1c0.1,0.1,0.3,0.2,0.5,0.2v0.2h-3.5
			v-0.2h0.1c0.3,0,0.5,0,0.6-0.1c0.1-0.1,0.1-0.1,0.1-0.2c0-0.1,0-0.1,0-0.2c0,0-0.1-0.2-0.2-0.4L257.9,42.4z M257.7,42l-1.1-2.5
			l-1.1,2.5H257.7z"/>
		<path d="M263.6,39.4v1.1c0.3-0.5,0.6-0.9,0.9-1c0.2-0.2,0.5-0.3,0.7-0.3c0.2,0,0.4,0.1,0.5,0.2c0.1,0.1,0.2,0.3,0.2,0.5
			c0,0.2-0.1,0.4-0.2,0.6c-0.1,0.1-0.3,0.2-0.4,0.2c-0.2,0-0.3-0.1-0.5-0.2s-0.2-0.2-0.2-0.2c0,0-0.1,0-0.1,0c-0.1,0-0.2,0-0.3,0.1
			c-0.1,0.1-0.3,0.3-0.3,0.5c-0.1,0.3-0.2,0.7-0.2,1.2v1.2l0,0.3c0,0.2,0,0.3,0,0.4c0,0.1,0.1,0.2,0.2,0.2c0.1,0,0.2,0.1,0.4,0.1
			v0.2h-2.7v-0.2c0.2,0,0.4-0.1,0.4-0.2c0.1-0.1,0.1-0.4,0.1-0.8v-2.8c0-0.3,0-0.5,0-0.5c0-0.1-0.1-0.2-0.2-0.2s-0.2-0.1-0.4-0.1
			v-0.2H263.6z"/>
		<path d="M268.3,37.6v1.8h1.2v0.5h-1.2V43c0,0.3,0,0.5,0,0.6c0,0.1,0.1,0.2,0.1,0.2s0.1,0.1,0.2,0.1c0.2,0,0.4-0.2,0.6-0.5l0.2,0.1
			c-0.3,0.7-0.7,1-1.4,1c-0.3,0-0.6-0.1-0.8-0.3c-0.2-0.2-0.4-0.4-0.4-0.6c0-0.1-0.1-0.5-0.1-1v-2.7h-0.6v-0.2
			c0.4-0.3,0.8-0.7,1.1-1s0.6-0.7,0.8-1.2H268.3z"/>
		<path d="M273.1,39.3l0.1,1.7H273c-0.2-0.5-0.4-0.9-0.7-1c-0.2-0.2-0.5-0.3-0.7-0.3c-0.1,0-0.3,0-0.4,0.1c-0.1,0.1-0.2,0.2-0.2,0.3
			c0,0.1,0,0.2,0.1,0.3c0.1,0.1,0.4,0.4,0.9,0.8s0.9,0.7,1,0.9c0.2,0.2,0.2,0.5,0.2,0.8c0,0.3-0.1,0.6-0.2,0.8
			c-0.1,0.3-0.3,0.5-0.6,0.6c-0.2,0.1-0.5,0.2-0.8,0.2c-0.2,0-0.5-0.1-0.9-0.2c-0.1,0-0.2-0.1-0.2-0.1c-0.1,0-0.2,0.1-0.3,0.3h-0.2
			l-0.1-1.8h0.2c0.2,0.5,0.4,0.8,0.7,1.1s0.5,0.4,0.8,0.4c0.2,0,0.3-0.1,0.4-0.2c0.1-0.1,0.2-0.2,0.2-0.4c0-0.2-0.1-0.3-0.2-0.4
			c-0.1-0.1-0.3-0.3-0.7-0.6c-0.5-0.4-0.9-0.7-1-0.9c-0.2-0.3-0.3-0.6-0.3-1c0-0.4,0.1-0.7,0.4-1s0.6-0.5,1.1-0.5
			c0.3,0,0.5,0.1,0.8,0.2c0.1,0.1,0.2,0.1,0.2,0.1c0.1,0,0.1,0,0.2,0c0,0,0.1-0.1,0.2-0.2H273.1z"/>
	</g>
</g>
</svg>
