<svg xmlns="http://www.w3.org/2000/svg" version="1.1" x="0" y="0" viewBox="0.1 52.5 255 50.8" enable-background="new 0.1 52.5 255 50.8" xml:space="preserve"><path d="M81.5 74.9h-3.3l-0.4 0.9c-0.1 0.3-0.2 0.5-0.2 0.8 0 0.3 0.1 0.4 0.3 0.6 0.1 0.1 0.4 0.1 0.9 0.2v0.2h-3.1v-0.3c0.3-0.1 0.6-0.2 0.8-0.4 0.2-0.2 0.5-0.7 0.8-1.4l3.4-7.5h0.1l3.4 7.7c0.3 0.7 0.6 1.2 0.8 1.4 0.2 0.2 0.4 0.2 0.7 0.3v0.3h-4.6v-0.3h0.2c0.4 0 0.6-0.1 0.8-0.2 0.1-0.1 0.2-0.2 0.2-0.3 0-0.1 0-0.2-0.1-0.3 0-0.1-0.1-0.2-0.2-0.5L81.5 74.9 81.5 74.9zM81.3 74.3l-1.4-3.3 -1.5 3.3H81.3L81.3 74.3zM91.5 71.1v5.1c0 0.5 0.1 0.8 0.2 0.9s0.3 0.2 0.5 0.2v0.3h-2.7v-0.9c-0.3 0.4-0.6 0.7-0.9 0.8s-0.7 0.3-1 0.3 -0.7-0.1-1-0.3c-0.3-0.2-0.5-0.5-0.5-0.8 -0.1-0.3-0.2-0.8-0.2-1.6v-2.6c0-0.5-0.1-0.8-0.2-0.9 -0.1-0.1-0.3-0.2-0.5-0.2v-0.3h2.7v4.4c0 0.5 0 0.8 0.1 0.9s0.1 0.2 0.2 0.3c0.1 0.1 0.2 0.1 0.3 0.1 0.2 0 0.3-0.1 0.4-0.1 0.2-0.1 0.4-0.4 0.7-0.7v-3.5c0-0.5-0.1-0.8-0.2-0.9 -0.1-0.1-0.3-0.2-0.5-0.2v-0.3H91.5L91.5 71.1zM96.7 70.9l0.1 2.2h-0.2c-0.3-0.7-0.6-1.1-0.9-1.4 -0.3-0.2-0.6-0.4-0.9-0.4 -0.2 0-0.3 0.1-0.5 0.2 -0.1 0.1-0.2 0.3-0.2 0.4 0 0.1 0.1 0.3 0.2 0.4 0.2 0.2 0.5 0.5 1.3 1 0.7 0.4 1.1 0.9 1.4 1.2s0.3 0.7 0.3 1.1c0 0.4-0.1 0.7-0.3 1s-0.4 0.6-0.8 0.8c-0.3 0.2-0.7 0.3-1.1 0.3 -0.3 0-0.7-0.1-1.3-0.3 -0.2-0.1-0.2-0.1-0.3-0.1 -0.2 0-0.3 0.1-0.4 0.3H93l-0.1-2.3h0.2c0.2 0.6 0.5 1.1 0.9 1.4 0.4 0.3 0.7 0.4 1 0.4 0.2 0 0.4-0.1 0.5-0.2 0.2-0.2 0.2-0.3 0.2-0.5 0-0.2-0.1-0.4-0.2-0.6 -0.2-0.2-0.4-0.4-0.9-0.8 -0.7-0.5-1.1-0.9-1.4-1.1 -0.3-0.4-0.4-0.8-0.4-1.3 0-0.5 0.2-0.9 0.5-1.4 0.3-0.4 0.9-0.6 1.5-0.6 0.3 0 0.7 0.1 1 0.3 0.1 0.1 0.2 0.1 0.3 0.1 0.1 0 0.2 0 0.2-0.1 0.1-0.1 0.1-0.2 0.2-0.3L96.7 70.9 96.7 70.9zM100.1 68.7v2.4h1.5v0.7h-1.5v4c0 0.4 0 0.6 0.1 0.7 0.1 0.1 0.1 0.2 0.2 0.3 0.1 0.1 0.2 0.1 0.2 0.1 0.3 0 0.6-0.2 0.9-0.7l0.2 0.2c-0.4 0.9-1 1.3-1.8 1.3 -0.4 0-0.8-0.1-1-0.3s-0.5-0.5-0.5-0.8c-0.1-0.2-0.1-0.6-0.1-1.3v-3.5h-0.8v-0.2c0.6-0.4 1.1-0.9 1.5-1.3 0.4-0.4 0.8-1 1.1-1.5h0.2V68.7zM104.9 71.1v1.5c0.4-0.7 0.8-1.1 1.1-1.3s0.7-0.3 0.9-0.3c0.3 0 0.5 0.1 0.6 0.2 0.2 0.2 0.2 0.4 0.2 0.7 0 0.3-0.1 0.5-0.2 0.7 -0.2 0.2-0.3 0.3-0.5 0.3 -0.3 0-0.4-0.1-0.7-0.2 -0.2-0.2-0.3-0.3-0.3-0.3s-0.1-0.1-0.2-0.1c-0.1 0-0.3 0.1-0.4 0.2 -0.2 0.2-0.3 0.4-0.4 0.7 -0.2 0.4-0.2 0.9-0.2 1.5V76v0.4c0 0.3 0 0.4 0.1 0.5 0.1 0.1 0.2 0.2 0.2 0.3 0.1 0.1 0.3 0.1 0.5 0.1v0.3h-3.5v-0.3c0.3 0 0.5-0.1 0.5-0.2 0.1-0.1 0.2-0.5 0.2-1v-3.6c0-0.4 0-0.6-0.1-0.7 -0.1-0.1-0.1-0.2-0.2-0.3 -0.1-0.1-0.2-0.1-0.5-0.1v-0.3H104.9L104.9 71.1zM111.3 76.6c-0.8 0.7-1.5 1-2.1 1 -0.4 0-0.7-0.1-0.9-0.4 -0.2-0.3-0.4-0.5-0.4-0.9 0-0.5 0.2-0.9 0.7-1.3 0.4-0.4 1.4-0.9 2.8-1.6v-0.7c0-0.5-0.1-0.8-0.1-0.9 -0.1-0.1-0.2-0.2-0.3-0.3 -0.2-0.1-0.3-0.2-0.5-0.2 -0.3 0-0.5 0.1-0.8 0.2 -0.1 0.1-0.2 0.2-0.2 0.3 0 0.1 0.1 0.2 0.2 0.4 0.2 0.2 0.3 0.4 0.3 0.6s-0.1 0.4-0.3 0.6c-0.2 0.2-0.4 0.2-0.7 0.2 -0.3 0-0.5-0.1-0.8-0.3s-0.3-0.4-0.3-0.6c0-0.3 0.1-0.7 0.4-0.9 0.3-0.3 0.7-0.5 1.1-0.7 0.5-0.2 1-0.2 1.5-0.2 0.6 0 1.1 0.1 1.5 0.4 0.4 0.3 0.6 0.5 0.7 0.9 0.1 0.2 0.1 0.7 0.1 1.4V76c0 0.3 0 0.5 0.1 0.5 0 0.1 0.1 0.1 0.1 0.2 0.1 0.1 0.1 0.1 0.2 0.1 0.1 0 0.2-0.1 0.4-0.3l0.2 0.2c-0.2 0.3-0.5 0.6-0.7 0.8 -0.3 0.2-0.5 0.2-0.8 0.2 -0.4 0-0.7-0.1-0.9-0.3C111.5 77.2 111.4 76.9 111.3 76.6L111.3 76.6zM111.3 76.1v-2.2c-0.5 0.3-1 0.7-1.3 1 -0.2 0.3-0.3 0.5-0.3 0.8 0 0.2 0.1 0.4 0.2 0.5 0.1 0.1 0.3 0.2 0.5 0.2C110.7 76.5 111 76.4 111.3 76.1L111.3 76.1zM116.9 68.1v8c0 0.4 0.1 0.8 0.2 0.9 0.1 0.1 0.3 0.2 0.6 0.2v0.3h-3.5v-0.3c0.3 0 0.5-0.1 0.7-0.3 0.1-0.1 0.2-0.4 0.2-0.9v-6.6c0-0.4-0.1-0.8-0.2-0.9 -0.1-0.1-0.3-0.2-0.6-0.2v-0.3H116.9L116.9 68.1zM119.9 67.9c0.3 0 0.5 0.1 0.8 0.3 0.2 0.2 0.3 0.4 0.3 0.8 0 0.3-0.1 0.5-0.3 0.8 -0.2 0.2-0.4 0.3-0.8 0.3 -0.3 0-0.5-0.1-0.8-0.3 -0.2-0.2-0.3-0.4-0.3-0.8 0-0.3 0.1-0.5 0.3-0.8C119.4 68 119.6 67.9 119.9 67.9L119.9 67.9zM120.9 71.1v5.1c0 0.4 0.1 0.8 0.2 0.9 0.1 0.1 0.3 0.2 0.6 0.2v0.3h-3.5v-0.3c0.3 0 0.5-0.1 0.7-0.3 0.1-0.1 0.2-0.4 0.2-0.9v-3.8c0-0.4-0.1-0.8-0.2-0.9 -0.1-0.1-0.3-0.2-0.6-0.2V71h2.7V71.1zM125.5 76.6c-0.8 0.7-1.5 1-2.1 1 -0.4 0-0.7-0.1-0.9-0.4 -0.3-0.3-0.4-0.5-0.4-0.9 0-0.5 0.2-0.9 0.7-1.3 0.4-0.4 1.4-0.9 2.8-1.6v-0.7c0-0.5-0.1-0.8-0.1-0.9 -0.1-0.1-0.2-0.2-0.3-0.3 -0.2-0.1-0.3-0.2-0.5-0.2 -0.3 0-0.5 0.1-0.8 0.2 -0.1 0.1-0.2 0.2-0.2 0.3 0 0.1 0.1 0.2 0.2 0.4 0.2 0.2 0.3 0.4 0.3 0.6s-0.1 0.4-0.3 0.6c-0.2 0.2-0.4 0.2-0.7 0.2 -0.3 0-0.5-0.1-0.8-0.3s-0.3-0.4-0.3-0.6c0-0.3 0.1-0.7 0.4-0.9 0.3-0.3 0.7-0.5 1.1-0.7 0.5-0.2 1-0.2 1.5-0.2 0.6 0 1.1 0.1 1.5 0.4 0.4 0.3 0.6 0.5 0.7 0.9 0.1 0.2 0.1 0.7 0.1 1.4V76c0 0.3 0 0.5 0.1 0.5 0 0.1 0.1 0.1 0.1 0.2s0.1 0.1 0.2 0.1c0.1 0 0.2-0.1 0.4-0.3l0.2 0.2c-0.2 0.3-0.5 0.6-0.7 0.8 -0.3 0.2-0.5 0.2-0.8 0.2 -0.4 0-0.7-0.1-0.9-0.3C125.6 77.2 125.5 76.9 125.5 76.6L125.5 76.6zM125.5 76.1v-2.2c-0.5 0.3-1 0.7-1.3 1 -0.2 0.3-0.3 0.5-0.3 0.8 0 0.2 0.1 0.4 0.2 0.5 0.1 0.1 0.3 0.2 0.5 0.2C124.9 76.5 125.1 76.4 125.5 76.1L125.5 76.1zM131.1 71.1v0.8c0.3-0.4 0.7-0.6 1-0.8 0.3-0.2 0.7-0.3 1-0.3 0.4 0 0.8 0.1 1 0.4 0.3 0.2 0.4 0.5 0.5 0.9 0.1 0.3 0.1 0.8 0.1 1.5v2.5c0 0.5 0.1 0.8 0.1 0.9 0.1 0.1 0.3 0.2 0.5 0.2v0.3h-3.3v-0.3c0.3-0.1 0.4-0.1 0.5-0.3 0.1-0.1 0.1-0.4 0.1-0.9v-2.9c0-0.5 0-0.9-0.1-1 -0.1-0.2-0.1-0.2-0.2-0.3 -0.1-0.1-0.2-0.1-0.3-0.1 -0.4 0-0.8 0.3-1.1 0.9v3.5c0 0.5 0.1 0.8 0.1 0.9 0.1 0.1 0.3 0.2 0.5 0.2v0.3h-3.3v-0.3c0.3-0.1 0.5-0.1 0.6-0.3 0.1-0.1 0.1-0.4 0.1-0.9v-3.6c0-0.5-0.1-0.8-0.2-0.9 -0.1-0.1-0.3-0.2-0.5-0.2V71L131.1 71.1 131.1 71.1zM148.1 67.9v3.3h-0.2c-0.3-0.9-0.8-1.6-1.4-2.1 -0.6-0.5-1.3-0.7-2-0.7 -0.7 0-1.3 0.2-1.7 0.6 -0.5 0.4-0.8 0.9-1 1.6 -0.2 0.7-0.3 1.4-0.3 2.2 0 0.9 0.1 1.7 0.3 2.4 0.2 0.7 0.5 1.2 1 1.5 0.5 0.3 1 0.5 1.7 0.5 0.2 0 0.4 0 0.7-0.1 0.2-0.1 0.5-0.1 0.8-0.2v-2c0-0.4 0-0.6-0.1-0.7 -0.1-0.1-0.2-0.2-0.3-0.3 -0.2-0.1-0.3-0.1-0.6-0.1h-0.2v-0.3h4.6V74c-0.3 0-0.6 0.1-0.7 0.2 -0.1 0.1-0.2 0.2-0.3 0.4 -0.1 0.1-0.1 0.3-0.1 0.7v2c-0.6 0.3-1.3 0.5-1.9 0.6 -0.7 0.2-1.3 0.2-2 0.2 -0.9 0-1.6-0.1-2.2-0.4 -0.6-0.3-1.1-0.5-1.6-1 -0.4-0.4-0.8-0.9-1-1.4 -0.3-0.7-0.5-1.4-0.5-2.1 0-1.4 0.5-2.6 1.5-3.6 1-1 2.2-1.5 3.8-1.5 0.5 0 0.9 0.1 1.3 0.1 0.2 0.1 0.5 0.2 1 0.3 0.4 0.2 0.7 0.3 0.8 0.3s0.3-0.1 0.4-0.2c0.1-0.1 0.2-0.3 0.3-0.5h0.1V67.9zM152.6 70.9c0.5 0 1.1 0.2 1.6 0.4 0.5 0.3 0.9 0.7 1.1 1.3 0.3 0.5 0.4 1.1 0.4 1.7 0 0.9-0.2 1.7-0.7 2.3 -0.5 0.8-1.4 1.1-2.3 1.1 -1 0-1.7-0.3-2.2-1 -0.5-0.7-0.8-1.5-0.8-2.4 0-0.9 0.3-1.7 0.8-2.4C151 71.2 151.7 70.9 152.6 70.9L152.6 70.9zM152.7 71.4c-0.2 0-0.4 0.1-0.6 0.3s-0.3 0.5-0.3 1c-0.1 0.5-0.1 1.3-0.1 2.2 0 0.5 0.1 1 0.1 1.4 0.1 0.3 0.2 0.6 0.3 0.8s0.4 0.3 0.5 0.3c0.2 0 0.4-0.1 0.5-0.2 0.2-0.2 0.3-0.4 0.4-0.7 0.1-0.4 0.2-1.3 0.2-2.7 0-0.8-0.1-1.3-0.1-1.6 -0.1-0.3-0.2-0.5-0.4-0.7C153 71.4 152.9 71.4 152.7 71.4L152.7 71.4zM158.8 77.8l-2.2-5c-0.3-0.6-0.5-1-0.6-1.1 -0.1-0.1-0.3-0.2-0.5-0.2v-0.3h3.4v0.3c-0.2 0-0.4 0.1-0.4 0.1 -0.1 0.1-0.2 0.2-0.2 0.4s0.1 0.5 0.3 1l1.1 2.4 0.9-2.1c0.3-0.6 0.4-1 0.4-1.3 0-0.2-0.1-0.3-0.2-0.3 -0.1-0.1-0.3-0.2-0.5-0.2v-0.3h2.1v0.3c-0.2 0-0.4 0.1-0.5 0.2s-0.3 0.5-0.6 1.1l-2.2 5.1h-0.4V77.8zM167.4 74.1h-3.5c0.1 0.9 0.3 1.5 0.7 2 0.3 0.4 0.7 0.6 1.1 0.6 0.3 0 0.5-0.1 0.8-0.2s0.5-0.4 0.7-0.8l0.2 0.2c-0.3 0.7-0.8 1.3-1.1 1.5 -0.4 0.3-0.9 0.4-1.5 0.4 -1 0-1.7-0.4-2.2-1.1 -0.4-0.6-0.6-1.4-0.6-2.2 0-1.1 0.3-2 0.9-2.6 0.6-0.7 1.3-1 2.1-1 0.7 0 1.3 0.3 1.7 0.8C167.2 72.2 167.4 73 167.4 74.1L167.4 74.1zM165.7 73.6c0-0.8-0.1-1.3-0.1-1.5 -0.1-0.3-0.2-0.5-0.4-0.7 -0.1-0.1-0.2-0.1-0.4-0.1 -0.2 0-0.4 0.1-0.6 0.4 -0.3 0.4-0.4 1-0.4 1.7v0.2H165.7L165.7 73.6zM170.5 71.1v1.5c0.4-0.7 0.8-1.1 1.1-1.3s0.7-0.3 0.9-0.3c0.3 0 0.5 0.1 0.6 0.2 0.2 0.2 0.2 0.4 0.2 0.7 0 0.3-0.1 0.5-0.2 0.7 -0.2 0.2-0.3 0.3-0.5 0.3 -0.3 0-0.4-0.1-0.7-0.2 -0.2-0.2-0.3-0.3-0.3-0.3s-0.1-0.1-0.2-0.1c-0.1 0-0.3 0.1-0.4 0.2 -0.2 0.2-0.3 0.4-0.4 0.7 -0.2 0.4-0.2 0.9-0.2 1.5V76v0.4c0 0.3 0 0.4 0.1 0.5 0.1 0.1 0.2 0.2 0.2 0.3 0.1 0.1 0.3 0.1 0.5 0.1v0.3h-3.5v-0.3c0.3 0 0.5-0.1 0.5-0.2 0.1-0.1 0.2-0.5 0.2-1v-3.6c0-0.4 0-0.6-0.1-0.7s-0.1-0.2-0.2-0.3c-0.1-0.1-0.2-0.1-0.5-0.1v-0.3H170.5L170.5 71.1zM176.5 71.1v0.8c0.3-0.4 0.7-0.6 1-0.8 0.3-0.2 0.7-0.3 1-0.3 0.4 0 0.8 0.1 1 0.4 0.3 0.2 0.4 0.5 0.5 0.9 0.1 0.3 0.1 0.8 0.1 1.5v2.5c0 0.5 0.1 0.8 0.1 0.9 0.1 0.1 0.3 0.2 0.5 0.2v0.3h-3.3v-0.3c0.3-0.1 0.4-0.1 0.5-0.3 0.1-0.1 0.1-0.4 0.1-0.9v-2.9c0-0.5 0-0.9-0.1-1 -0.1-0.2-0.1-0.2-0.2-0.3 -0.1-0.1-0.2-0.1-0.3-0.1 -0.4 0-0.8 0.3-1.1 0.9v3.5c0 0.5 0.1 0.8 0.1 0.9 0.1 0.1 0.3 0.2 0.5 0.2v0.3h-3.3v-0.3c0.3-0.1 0.5-0.1 0.6-0.3 0.1-0.1 0.1-0.4 0.1-0.9v-3.6c0-0.5-0.1-0.8-0.2-0.9 -0.1-0.1-0.3-0.2-0.5-0.2V71L176.5 71.1 176.5 71.1zM184 71.1v0.9c0.4-0.4 0.7-0.7 1-0.8 0.3-0.2 0.7-0.2 1-0.2 0.4 0 0.8 0.1 1 0.3 0.3 0.2 0.5 0.5 0.7 0.9 0.4-0.4 0.7-0.7 1-0.9 0.3-0.2 0.7-0.3 1.1-0.3 0.4 0 0.8 0.1 1.1 0.3 0.3 0.2 0.4 0.5 0.5 0.8 0.1 0.3 0.2 0.8 0.2 1.5v2.7c0 0.5 0.1 0.8 0.1 0.9 0.1 0.1 0.3 0.2 0.5 0.2v0.3h-3.4v-0.3c0.3 0 0.4-0.1 0.6-0.3 0.1-0.1 0.1-0.4 0.1-0.9v-2.8c0-0.6 0-0.9-0.1-1.1s-0.1-0.3-0.2-0.3c-0.1-0.1-0.2-0.1-0.3-0.1 -0.2 0-0.4 0.1-0.6 0.2 -0.2 0.2-0.4 0.4-0.6 0.7v3.5c0 0.5 0.1 0.8 0.1 0.9 0.1 0.2 0.3 0.3 0.6 0.3v0.3h-3.4v-0.3c0.2 0 0.3-0.1 0.4-0.1 0.1-0.1 0.2-0.2 0.2-0.3 0.1-0.1 0.1-0.4 0.1-0.8v-2.8c0-0.6 0-1-0.1-1.1 -0.1-0.2-0.1-0.3-0.2-0.3 -0.1-0.1-0.2-0.1-0.3-0.1 -0.2 0-0.4 0.1-0.5 0.2 -0.2 0.2-0.4 0.4-0.7 0.8v3.5c0 0.4 0.1 0.8 0.1 0.9 0.1 0.2 0.3 0.2 0.5 0.3v0.1h-3.3v-0.3c0.3-0.1 0.5-0.1 0.6-0.3 0.1-0.1 0.1-0.4 0.1-0.9v-3.6c0-0.5-0.1-0.8-0.2-0.9 -0.1-0.1-0.3-0.2-0.5-0.2V71L184 71.1 184 71.1zM198 74.1h-3.5c0.1 0.9 0.3 1.5 0.7 2 0.3 0.4 0.7 0.6 1.1 0.6 0.3 0 0.5-0.1 0.8-0.2s0.5-0.4 0.7-0.8l0.2 0.2c-0.3 0.7-0.8 1.3-1.1 1.5 -0.4 0.3-0.9 0.4-1.5 0.4 -1 0-1.7-0.4-2.2-1.1 -0.4-0.6-0.6-1.4-0.6-2.2 0-1.1 0.3-2 0.9-2.6 0.6-0.7 1.3-1 2.1-1 0.7 0 1.3 0.3 1.7 0.8C197.8 72.2 198 73 198 74.1L198 74.1zM196.4 73.6c0-0.8-0.1-1.3-0.1-1.5 -0.1-0.3-0.2-0.5-0.4-0.7 -0.1-0.1-0.2-0.1-0.4-0.1 -0.2 0-0.4 0.1-0.6 0.4 -0.3 0.4-0.4 1-0.4 1.7v0.2H196.4L196.4 73.6zM200.9 71.1v0.8c0.3-0.4 0.7-0.6 1-0.8 0.3-0.2 0.7-0.3 1-0.3 0.4 0 0.8 0.1 1 0.4 0.3 0.2 0.5 0.5 0.5 0.9 0.1 0.3 0.1 0.8 0.1 1.5v2.5c0 0.5 0.1 0.8 0.1 0.9 0.1 0.1 0.3 0.2 0.5 0.2v0.3H202v-0.3c0.2-0.1 0.4-0.1 0.5-0.3 0.1-0.1 0.1-0.4 0.1-0.9v-2.9c0-0.5 0-0.9-0.1-1 -0.1-0.2-0.1-0.2-0.2-0.3 -0.1-0.1-0.2-0.1-0.3-0.1 -0.4 0-0.8 0.3-1.1 0.9v3.5c0 0.5 0.1 0.8 0.1 0.9 0.1 0.1 0.3 0.2 0.5 0.2v0.3h-3.3v-0.3c0.3-0.1 0.5-0.1 0.6-0.3 0.1-0.1 0.1-0.4 0.1-0.9v-3.6c0-0.5-0.1-0.8-0.2-0.9 -0.1-0.1-0.3-0.2-0.5-0.2V71L200.9 71.1 200.9 71.1zM208 68.7v2.4h1.5v0.7H208v4c0 0.4 0 0.6 0.1 0.7 0.1 0.1 0.1 0.2 0.2 0.3 0.1 0.1 0.2 0.1 0.2 0.1 0.3 0 0.6-0.2 0.9-0.7l0.2 0.2c-0.4 0.9-1 1.3-1.8 1.3 -0.4 0-0.8-0.1-1-0.3 -0.3-0.2-0.4-0.5-0.5-0.8 -0.1-0.2-0.1-0.6-0.1-1.3v-3.5h-0.9v-0.2c0.6-0.4 1.1-0.9 1.5-1.3 0.4-0.4 0.8-1 1.1-1.5h0.3V68.7z"/><path d="M32.3 65.1c0.1 0 0.1 0 0.2-0.1L32.3 65.1 32.3 65.1zM42.1 71.3C42.1 71.3 42.1 71.4 42.1 71.3M36.6 81.6l0.2-0.1C36.7 81.5 36.7 81.6 36.6 81.6L36.6 81.6z"/><path d="M13.8 71.1c0 0.3-0.1 0.4-0.3 0.5 -0.2-0.1-0.3-0.1-0.4-0.3 -0.1-0.2 0.1-0.4 0.3-0.5C13.5 70.9 13.8 70.9 13.8 71.1L13.8 71.1zM12.4 71.1c0.1 0.1 0.2 0.3 0.1 0.5 -0.2 0.1-0.4 0.2-0.5 0.1 -0.1-0.1-0.3-0.3-0.2-0.4C12 71 12.2 70.9 12.4 71.1L12.4 71.1zM14.2 72.3c0 0.2-0.2 0.3-0.4 0.4 -0.2 0-0.4-0.2-0.5-0.3 0-0.2 0.1-0.4 0.3-0.4C13.9 71.8 14.1 72 14.2 72.3L14.2 72.3zM13 72.1c0.1 0.1 0.1 0.2 0.1 0.3 -0.1 0.1-0.3 0.3-0.5 0.2 -0.1-0.1-0.3-0.2-0.2-0.4 0.1-0.1 0.2-0.2 0.3-0.3C12.8 71.9 12.8 72 13 72.1L13 72.1zM13.4 74.8c0.1 0.2-0.1 0.3-0.2 0.4 -0.2 0.1-0.3-0.1-0.4-0.2 -0.1-0.2 0.1-0.3 0.2-0.4C13.2 74.6 13.4 74.7 13.4 74.8L13.4 74.8zM15.1 75.7C15 76 14.6 76 14.4 76.2c-0.5 0.4-1.3 0.5-1.9 0.4 0.5-0.8 1.4-1.3 2.4-1C14.9 75.6 15.1 75.6 15.1 75.7L15.1 75.7z"/><path d="M6.4 76.5c0.8 0.5 1 1.3 1.5 2.1 0.1 0.1 0.3 0.1 0.2 0.3 -0.2 0.1-0.3-0.1-0.6-0.1 -0.8-0.4-1.3-1.3-1.3-2.2C6.1 76.5 6.3 76.5 6.4 76.5L6.4 76.5zM5.3 78.5c-0.1 0.1 0 0.3-0.2 0.3 -0.2 0.1-0.4 0-0.4-0.2 -0.1-0.2 0.1-0.4 0.3-0.5C5.1 78.2 5.3 78.3 5.3 78.5L5.3 78.5zM11.5 78.8c0.1 0.2-0.2 0.2-0.3 0.2 -0.9 0.3-1.8 0-2.4-0.6 0-0.1 0-0.2 0.1-0.2C9.7 78.4 10.7 78.3 11.5 78.8L11.5 78.8zM6.5 78.5c0.1 0.1 0.1 0.2 0.1 0.3 -0.1 0.2-0.3 0.2-0.5 0.2 -0.1-0.1-0.2-0.2-0.3-0.3 0-0.2 0.2-0.3 0.4-0.4C6.3 78.4 6.4 78.4 6.5 78.5L6.5 78.5zM4.4 79.2c0 0.2-0.1 0.2-0.2 0.4 -0.1 0.1-0.2 0.1-0.3 0.1 -0.2-0.1-0.3-0.2-0.3-0.3C3.6 79.2 3.8 79 4 79 4.1 79 4.3 79.1 4.4 79.2L4.4 79.2zM7.8 79.6c-0.1 0.2-0.1 0.3-0.3 0.3 -0.2 0-0.3-0.2-0.4-0.2 0-0.2 0-0.4 0.2-0.5C7.6 79.1 7.8 79.3 7.8 79.6L7.8 79.6zM5.8 79.6c0.1 0.2-0.1 0.4-0.2 0.5C5.3 80.2 5.1 80 5 79.8c0-0.2 0.2-0.4 0.4-0.5C5.6 79.3 5.7 79.5 5.8 79.6L5.8 79.6zM6.8 79.7c0.1 0.2-0.1 0.2-0.1 0.3 -0.1 0-0.2 0.1-0.3 0.1 -0.1-0.1-0.3-0.2-0.3-0.3 0-0.2 0.1-0.3 0.3-0.4C6.6 79.3 6.7 79.5 6.8 79.7L6.8 79.7zM7 80.6l-0.1 0.2c-0.8 0.5-1.8 0.8-2.8 0.5L4 81.1c0.8-0.6 1.8-0.7 2.9-0.6L7 80.6 7 80.6zM10.9 80.8c-0.1 0.2-0.1 0.3-0.3 0.4s-0.5-0.1-0.5-0.3c-0.1-0.2 0.1-0.3 0.2-0.4C10.5 80.4 10.7 80.6 10.9 80.8L10.9 80.8zM9.4 80.9c0.1 0.2-0.1 0.2-0.1 0.3 -0.1 0.1-0.3 0.1-0.4 0.1 -0.2-0.1-0.3-0.3-0.2-0.5 0.1-0.1 0.2-0.2 0.3-0.2C9.1 80.6 9.3 80.7 9.4 80.9L9.4 80.9zM7.8 81.2c0.1 0.2-0.1 0.2-0.1 0.4 -0.1 0.4-0.3 0.6-0.5 0.9 -0.4 0.5-1 0.5-1.6 0.7L5.5 83c0.6-0.8 1.3-1.4 2.2-1.8H7.8L7.8 81.2zM10.2 81.7c0 0.1 0 0.1 0.1 0.1 0 0.2-0.2 0.3-0.3 0.4 -0.2 0-0.3-0.1-0.5-0.2 -0.1-0.2 0-0.4 0.2-0.5C9.9 81.5 10.2 81.5 10.2 81.7L10.2 81.7zM9 82c0.1 0.2-0.1 0.3-0.2 0.4 -0.2 0.1-0.4-0.1-0.5-0.2 -0.2-0.2 0.1-0.4 0.3-0.5C8.8 81.7 8.9 81.9 9 82L9 82z"/><path d="M60.5 64.7c0.6 0.7 0.7 1.8 0.3 2.7 -0.2 0-0.2-0.3-0.2-0.5 -0.4-0.8-0.8-1.8-0.4-2.7C60.5 64.2 60.4 64.6 60.5 64.7L60.5 64.7zM62.4 65.8c0.1 0.2-0.1 0.5-0.3 0.6 -0.2 0.1-0.4-0.1-0.5-0.2 -0.1-0.2 0.1-0.4 0.3-0.5C62 65.5 62.2 65.6 62.4 65.8L62.4 65.8zM63.2 67.1c0.1 0.1 0.1 0.2 0 0.3 -0.2 0.2-0.4 0.3-0.6 0.2 -0.2-0.1-0.2-0.2-0.2-0.4 0.1-0.2 0.2-0.3 0.4-0.4C63 66.8 63.1 67 63.2 67.1L63.2 67.1zM62 67.1c0.2 0.1 0.1 0.3 0 0.4 -0.1 0.1-0.3 0.3-0.4 0.2 -0.1-0.1-0.2-0.1-0.3-0.3 0-0.2 0.1-0.4 0.3-0.5C61.8 66.9 61.9 67.1 62 67.1L62 67.1zM60.4 67.4c0 0.2 0 0.5-0.3 0.6 -0.3 0.1-0.4-0.1-0.5-0.3 0-0.2 0.1-0.4 0.3-0.5C60.2 67.2 60.3 67.3 60.4 67.4L60.4 67.4zM55.3 67.7c0.2 0.4 0.4 1 0.4 1.5 -0.1 0.4 0.1 0.9-0.2 1.3 -0.3-0.1-0.3-0.5-0.5-0.7 -0.4-0.8-0.1-1.6 0.1-2.3C55.2 67.4 55.2 67.6 55.3 67.7L55.3 67.7zM58.7 68.6c0.3 0.6 0.3 1.4 0.1 2.1l-0.1 0.1c-0.3-0.6-0.7-1.1-0.9-1.7 0-0.4 0.1-0.9 0.3-1.3 0.2-0.1 0.2 0 0.3 0.2C58.3 68.1 58.4 68.4 58.7 68.6L58.7 68.6zM61.3 68.2c0 0.2-0.1 0.4-0.3 0.5 -0.2 0.1-0.4 0-0.5-0.3 -0.1-0.2 0.1-0.4 0.2-0.5C61 67.8 61.2 68 61.3 68.2L61.3 68.2zM61.9 68.7c0 0.3-0.4 0.5-0.5 0.8 -0.2 0.6-0.8 1-1.3 1.2C60 70.8 59.9 71 59.6 71c-0.1-0.4 0.3-0.8 0.6-1.2C60.6 69.2 61.3 68.8 61.9 68.7L61.9 68.7zM62.2 69.9c-0.1 0.9-0.5 1.8-1.3 2.3 -0.2 0.1-0.5 0.3-0.7 0.2 0.4-0.9 1.1-1.7 1.9-2.5H62.2L62.2 69.9zM58.1 70.5c0.1 0.3-0.1 0.5-0.4 0.6 -0.2 0-0.4-0.2-0.5-0.3 0-0.2 0.1-0.4 0.3-0.5 0.1-0.1 0.2-0.1 0.3-0.1C57.9 70.3 58 70.4 58.1 70.5L58.1 70.5zM58.3 71.7c0.1 0.2-0.1 0.4-0.3 0.5 -0.2-0.1-0.5-0.1-0.5-0.4 0-0.2 0.2-0.3 0.3-0.3C58.1 71.4 58.2 71.6 58.3 71.7L58.3 71.7zM59.5 71.6c0.1 0.1 0.2 0.3 0.1 0.4 -0.1 0.1-0.2 0.1-0.2 0.2 -0.2 0.1-0.4-0.1-0.5-0.3 -0.1-0.2 0.2-0.3 0.3-0.4C59.3 71.5 59.4 71.6 59.5 71.6L59.5 71.6zM62.7 72.4c0 0.2-0.2 0.3-0.3 0.4 -0.2 0.1-0.4 0-0.5-0.1 -0.1-0.1-0.1-0.2-0.1-0.3 0.1-0.2 0.3-0.2 0.4-0.3C62.5 72.1 62.6 72.2 62.7 72.4L62.7 72.4zM64.1 72.5c-0.1 0.2-0.2 0.4-0.4 0.4 -0.1 0-0.4-0.1-0.3-0.3 0-0.2 0.1-0.3 0.2-0.3C63.8 72.2 64 72.3 64.1 72.5L64.1 72.5zM61.5 72.9c0 0.2-0.2 0.4-0.3 0.5 -0.2 0.1-0.4-0.1-0.4-0.3 0-0.2 0.1-0.3 0.2-0.4C61.2 72.8 61.4 72.8 61.5 72.9L61.5 72.9zM63.2 73.3c-0.1 0.2 0 0.4-0.2 0.5 -0.2 0.1-0.4 0-0.5-0.1 -0.1-0.1-0.2-0.3-0.1-0.4 0.1-0.2 0.3-0.3 0.5-0.3C63.1 73.1 63.1 73.2 63.2 73.3L63.2 73.3zM61.9 74.1c0.1 0 0.1 0.2 0 0.2 -0.5 0.3-1.3 0.3-1.7-0.1 -0.3-0.2-0.6-0.3-0.9-0.5 0.1-0.3 0.5-0.3 0.8-0.3C60.7 73.5 61.2 74.1 61.9 74.1L61.9 74.1zM63.5 77.4c-0.7 1-1.4 2.1-2.6 2.4 -0.1 0-0.2 0.1-0.2-0.1 0.7-0.8 1.1-2 2.2-2.3C63.1 77.4 63.3 77.4 63.5 77.4L63.5 77.4zM64.3 78.7c0.1 0.2-0.1 0.3-0.3 0.4 -0.1 0.1-0.3 0-0.4-0.1 0-0.1-0.2-0.2-0.1-0.3 0.1-0.2 0.3-0.3 0.5-0.3C64.1 78.6 64.2 78.6 64.3 78.7L64.3 78.7zM65.7 78.6c0.1 0.2 0 0.3-0.1 0.5 -0.1 0.2-0.3 0.2-0.4 0.1 -0.1-0.1-0.3-0.2-0.3-0.4 0-0.2 0.2-0.3 0.3-0.4C65.5 78.4 65.6 78.6 65.7 78.6L65.7 78.6zM63.2 79.8c-0.1 0.2-0.2 0.3-0.4 0.3S62.5 80 62.4 80c-0.1-0.1-0.1-0.3 0-0.4C62.6 79.2 63.2 79.4 63.2 79.8L63.2 79.8zM64.7 79.9c-0.1 0.2-0.3 0.3-0.5 0.4 -0.2-0.1-0.4-0.2-0.3-0.5 0.1-0.1 0.1-0.2 0.3-0.2C64.5 79.5 64.7 79.7 64.7 79.9L64.7 79.9zM54.6 80c0.1 0.3-0.2 0.4-0.3 0.5 -0.2 0-0.3-0.1-0.4-0.2 -0.1-0.2 0.1-0.4 0.3-0.5C54.4 79.8 54.5 79.9 54.6 80L54.6 80zM56.9 80.6c0.1 0.2-0.2 0.3-0.3 0.3 -0.3 0.1-0.4-0.1-0.5-0.3 0-0.1 0.1-0.2 0.2-0.3C56.6 80.2 56.8 80.4 56.9 80.6L56.9 80.6zM55.8 80.6c0.1 0.2-0.2 0.3-0.2 0.4 -0.2 0.1-0.3 0.1-0.5-0.1C55 80.9 55 80.7 55 80.6c0.1-0.1 0.2-0.2 0.3-0.3C55.5 80.3 55.7 80.4 55.8 80.6L55.8 80.6zM65.4 80.9c0.1 0.3-0.3 0.2-0.5 0.2 -0.9 0.5-2.1 0.1-2.9-0.2 0.1-0.3 0.4-0.2 0.5-0.3 0.9-0.6 1.8 0.1 2.8 0.2L65.4 80.9 65.4 80.9zM59.1 80.8c0 0.2-0.1 0.3-0.2 0.4 -0.2 0.1-0.5 0-0.5-0.2 -0.1-0.2 0.1-0.3 0.3-0.4C58.8 80.5 59 80.5 59.1 80.8L59.1 80.8zM60.6 81.4c0 0.2-0.2 0.3-0.3 0.4 -0.2 0-0.3-0.1-0.4-0.2 -0.1-0.1-0.1-0.3 0.1-0.4 0.1-0.1 0.2-0.1 0.3-0.1C60.4 81.1 60.6 81.2 60.6 81.4L60.6 81.4zM59.5 81.7c0.1 0.3-0.2 0.3-0.3 0.4 -0.2 0-0.3-0.1-0.4-0.3 -0.1-0.2 0.2-0.3 0.3-0.4C59.3 81.4 59.5 81.5 59.5 81.7L59.5 81.7zM63.4 82.3c0.2 0 0.3-0.3 0.5-0.3 0.2-0.1 0.4 0.1 0.5 0.2 0.1 0.3-0.1 0.4-0.3 0.5 -0.2 0.1-0.5-0.1-0.4 0.2 0.2 0.1 0.3 0.3 0.3 0.4 -0.1 0.1-0.2 0.1-0.3 0 -0.6-0.3-1.3-0.7-1.5-1.3 -0.1-0.2-0.5-0.3-0.3-0.5C62.6 81.4 63.1 81.9 63.4 82.3L63.4 82.3zM65.5 81.6c0.1 0.1 0.1 0.3 0 0.4 -0.1 0.2-0.4 0.1-0.6 0.1 -0.1-0.1-0.2-0.2-0.2-0.4 0.1-0.1 0.2-0.2 0.3-0.3C65.2 81.5 65.3 81.5 65.5 81.6L65.5 81.6zM57.7 82.8c0.2 0.2 0.4 0.6 0.5 0.9 -0.1 0.1-0.2 0.1-0.2 0.1 -0.7-0.4-1.7-0.9-2-1.7 -0.1-0.1-0.2-0.2-0.2-0.3 0.5-0.1 1.1 0.3 1.5 0.6C57.5 82.4 57.7 82.5 57.7 82.8L57.7 82.8zM60.4 82.5c0 0.1-0.2 0.2-0.2 0.3 -0.2 0-0.3 0.1-0.5-0.1 -0.1-0.1-0.2-0.3 0-0.4C59.9 82 60.3 82.3 60.4 82.5L60.4 82.5zM65.7 82.8c0.1 0.3-0.1 0.4-0.3 0.5 -0.2 0.1-0.4-0.1-0.5-0.2 -0.1-0.1 0-0.3 0-0.4 0.2-0.1 0.3-0.2 0.5-0.2C65.6 82.6 65.7 82.7 65.7 82.8L65.7 82.8z"/><path d="M9.5 65.7c-0.1 0.5-0.1 1.3 0 1.7 -0.1 0.1-0.1-0.1-0.2-0.1 -0.8-0.6-0.4-1.8-0.7-2.6 0.1-0.1 0.2-0.1 0.2-0.1C9.2 64.9 9.4 65.3 9.5 65.7L9.5 65.7zM8.2 66.7c-0.1 0.2-0.1 0.4-0.3 0.5 -0.1 0-0.3 0-0.4-0.1 -0.1-0.1-0.2-0.3-0.1-0.4 0.1-0.2 0.3-0.2 0.4-0.2C8 66.5 8.1 66.6 8.2 66.7L8.2 66.7zM10.5 67.5c0.1 0.2-0.2 0.3-0.3 0.4 -0.2 0.1-0.3-0.1-0.4-0.2 -0.2-0.2 0.1-0.3 0.1-0.4C10.1 67.2 10.4 67.3 10.5 67.5L10.5 67.5zM9.2 67.6c0 0.2-0.1 0.3-0.2 0.4 -0.2 0.1-0.3-0.1-0.4-0.2 -0.1-0.2 0-0.4 0.2-0.5C9 67.2 9.1 67.4 9.2 67.6L9.2 67.6zM8.2 67.9c0.1 0.3-0.1 0.4-0.3 0.5 -0.3 0.1-0.4-0.1-0.5-0.3 0-0.2 0.1-0.4 0.3-0.5C7.9 67.7 8.1 67.8 8.2 67.9L8.2 67.9zM9.2 68.8c0 0.2-0.2 0.4-0.3 0.4 -0.2 0.1-0.3-0.1-0.4-0.2 -0.1-0.2-0.1-0.3 0-0.5 0.1-0.1 0.2-0.1 0.3-0.2C9 68.5 9.2 68.6 9.2 68.8L9.2 68.8zM10.2 68.7c0.1 0.2-0.2 0.3-0.2 0.4 -0.3 0.1-0.4-0.1-0.5-0.3 -0.1-0.2 0.1-0.3 0.2-0.5C9.9 68.4 10.1 68.5 10.2 68.7L10.2 68.7zM8.8 69.6c0.3 0.4 0.5 0.7 0.9 1 0 0.1-0.1 0.2-0.2 0.2 -1-0.1-1.7-1.1-2.3-1.9 0.1-0.2 0.3-0.1 0.5-0.1C8.2 69.1 8.5 69.2 8.8 69.6L8.8 69.6zM7.7 70.7c0.4 0.3 0.8 0.7 1.1 1 -0.3 0.2-0.6 0-0.9 0 -0.7-0.3-1.2-0.9-2-1.1 0-0.2 0.3-0.2 0.4-0.2C6.8 70.4 7.2 70.6 7.7 70.7L7.7 70.7zM7.1 71.9c-0.1 0.3-0.3 0.4-0.6 0.3 -0.1-0.1-0.1-0.2-0.2-0.3 0-0.2 0.1-0.3 0.2-0.4C6.8 71.6 7 71.7 7.1 71.9L7.1 71.9zM9.5 72.9c0.1 0.3-0.1 0.4-0.3 0.5 -0.2 0.1-0.3 0-0.4-0.1 -0.1-0.1-0.2-0.3-0.1-0.4 0.1-0.2 0.2-0.2 0.4-0.2C9.3 72.6 9.4 72.7 9.5 72.9L9.5 72.9zM10.5 73c0.1 0.2-0.1 0.2-0.2 0.4 -0.1 0.1-0.3 0.1-0.4 0.1 -0.2-0.1-0.3-0.3-0.2-0.5C10 72.6 10.4 72.8 10.5 73L10.5 73zM8.7 73.7c0.1 0.2-0.1 0.2-0.2 0.3 -0.2 0.1-0.3 0-0.4-0.1C7.9 73.9 8 73.7 8 73.6 8.2 73.2 8.6 73.5 8.7 73.7L8.7 73.7zM9.7 74c0.1 0.2-0.1 0.2-0.1 0.4 -0.1 0.1-0.3 0.1-0.4 0.1C9 74.3 8.9 74 9 73.9 9.3 73.6 9.6 73.7 9.7 74L9.7 74zM11.6 74.1c0.1 0.2-0.1 0.4-0.2 0.5s-0.3-0.1-0.4-0.1c-0.1-0.2-0.3-0.3-0.1-0.5C11 73.7 11.4 73.9 11.6 74.1L11.6 74.1z"/><path d="M30.5 64.3c-1.2-0.5-2 0.8-3.2 0.6 -0.2 0.1-0.1 0.2-0.2 0.3 -0.1 0.1-0.2 0-0.2 0 -0.1-0.5-0.2-1-0.3-1.5 -0.1-0.2-0.1-0.5-0.2-0.7 -0.7-1.8 1.7-0.4 2.1-1.5 0.4-0.9-0.8-1-1.1-1.7v-0.3c-0.3-0.3-0.7-0.4-0.9-0.9 0.2-0.5 0.2-1.1 0.1-1.6 0-0.1-0.1-0.3-0.3-0.2 -0.4 0.5-0.7 1-1.1 1.5 -0.4-0.3-0.8-0.7-1.3-0.9 -0.3-0.1-0.6-0.4-1-0.2 -0.1 0.1 0 0.2 0.1 0.3 0 0.8 0.4 1.5 1 2.1l0.1 0.3c-0.4 0.9-0.3 1.9-0.4 2.8 -1 2.4-2.5 4.8-4.6 6.5 -1.2 1.4-2.7 2.7-2.9 4.6 -0.1 0.3 0.1 0.7-0.2 0.9 -0.7-0.3-1.4-0.6-2-1 -1-0.7-2.4-0.6-3-1.8 -0.3-0.5 0.1-1 0.3-1.4 0.7-0.7 0.6-1.9 0.2-2.8 -0.1 0-0.1 0.1-0.2 0.1 -0.1 1.3-1.1 2.2-0.7 3.5 0.1 0.4 0.3 0.7 0.4 1 -0.2-0.1-0.4-0.1-0.5-0.1 -0.5-0.1-0.9-0.3-1.4-0.2 -1 0.4-2.3-0.1-3.1 0.8 -0.1 0-0.3 0.1-0.3 0.2 0.5 0 0.9 0.1 1.4 0.1 0.8 0.1 1.3-0.5 1.7-0.8h0.1c0.2-0.2 0.6-0.1 0.9-0.1 1.4 0.2 2.4 0.8 3.5 1.5V74c-0.4 0.2-0.9 0.3-1.4 0.5 -0.5 0.4-1 0.8-1.2 1.4 -0.3 0.5 0.1 1 0.3 1.5 0 0.2 0.1 0.5 0.2 0.5 0.7-0.7 0.1-1.6 0.2-2.4 0.2-0.7 0.8-0.9 1.4-1.1 1.2-0.5 2.1 0.5 3 1 0 1 0.1 2-0.1 2.9 -0.3 0.1-0.7 0.2-1 0.2 -1.7 0.1-3 1-4.5 1.6 -0.7 0.2-1.5 0.2-2.2 0.5 0.5 0.2 1.1-0.1 1.6-0.1 2.1-0.3 3.7-1.9 5.9-1.6l0.1 0.1c-0.3 0.5-0.6 1-1 1.4 -0.1-0.2-0.1-0.4-0.3-0.5 -0.2-0.1-0.4 0-0.5 0.2 -0.1 0.1-0.1 0.2 0 0.3 0.1 0.2 0.3 0.2 0.5 0.3 -0.1 0.2-0.3 0.3-0.4 0.4 -0.6 1-1.8 0.6-2.5 1.3 -0.1 0.2-0.5 0.2-0.3 0.5 0.8 0.1 1.6-0.1 2.2-0.5 0.8-0.9 1.6-1.7 2.4-2.6 0.1 0.7-0.1 1.4-0.5 2 -0.2-0.1-0.3-0.3-0.6-0.3 -0.2 0.1-0.4 0.3-0.4 0.4 0.1 0.2 0.2 0.3 0.3 0.4C14 82.7 13 82.7 12.2 83c-1.6 0.2-3 0.3-4.6 0.3 -0.8-0.1-1.6 0.2-2.3 0 -0.8 0.2-1.7-0.1-2.3 0.3 -0.1 0.1 0 0.2 0 0.3 1 0.7 2.3 0.1 3.4 0.3h8.4c0.6 0 1.3-0.1 1.7-0.3 1.1-0.6 1.7-1.7 2.2-2.8 0.2-0.4 0.4-0.8 0.4-1.3 0.2-0.7 0.9-1.3 1.6-1.3 0.1 1.1-0.1 2.2-0.4 3.3 -0.1 0.7-0.6 1.4-0.3 2.1 0.1 0.3 0.4 0.3 0.7 0.4 2.6-0.1 5.2-0.2 7.9 0.1 0.5 0.1 0.9 0.2 1.5 0.2 0.1-0.1 0.2-0.1 0.1-0.2 -0.1-0.2-0.2-0.5-0.5-0.6 -0.1-0.1-0.2-0.1-0.3-0.2 -1.4-0.8-3-0.4-4.6-0.3 -0.8 0.1-1.7 0.2-2.4-0.2 -0.3-0.4-0.1-1.6-0.1-1.6 0-0.5 1.2-3.9 1.3-4.1 0.1-0.3 0.2-0.6 0.1-1 0.2-0.4 0.1-1 0.1-1.5 0.1-0.7 0.4-1.3 0.7-2 0.1-0.3 0.2-0.7 0.4-1 0.1-0.4 0.2-0.8 0.4-1.1 0.7 0.4 1.4 0.4 1.7 1.2l0.3 1.8c0 0.1 0.1 0.3 0.2 0.2 0.5-0.4 0.4-1.2 0.4-1.7 0.1-0.7-0.3-1-0.5-1.6 -0.2-0.1-0.4-0.6-0.4-0.6 -0.1-0.5-1.1-0.8-0.9-1.4 0.1-0.5 0.3-0.9 0.7-1.3 0.1 0.1 0.1 0.1 0.1 0.2l0.3-0.2v-1.8c0.7 0 1.7 0.1 2.4 0.1 0.2 0.1 0.3 0.2 0.5 0.2l0.2-0.2 1.7-0.3C31.6 65.2 31.2 64.3 30.5 64.3L30.5 64.3zM53 78.3c0-0.4 0.1-0.8 0.2-1.2 0.1-0.1 0.1-0.3 0.1-0.4 0.5-0.7 1.6-0.5 2.4-0.4 0.3 0.2 0.7 0.2 1.1 0.2 0.2-0.1 0.4-0.1 0.5-0.1 0.7-0.4 0.2-1.1 0.3-1.8l-0.3-0.7c-0.1-0.1-0.1-0.3-0.2-0.4 -0.1-0.2-0.2-0.4-0.3-0.6 -0.4-0.9-1.1-1.5-1.7-2.2 -1.1-1.4-2.8-2.2-4.5-2.8 -1.7-0.6-3.4 0.2-4.9 0.7 -0.5-0.1-0.7-0.5-0.8-0.9 -0.1-0.8 0.1-1.6 0.4-2.3 0.1-0.5 0.4-0.9 0.6-1.4 0.4-1.2 0.8-2.4 0.9-3.7 0.1-0.8-0.5-1.4-1.1-1.7 -0.4-0.1-0.9-0.1-1.2 0.2 -0.3 0.6-0.9 1-1.4 1.3 -0.1 0.4 0.4 0.1 0.5 0.3 0.5 0.1 1-0.1 1.4 0.2 0.1 0.9-0.4 1.6-0.9 2.2 -0.7 1.1-1.5 2.2-2 3.4L42.1 66l0.1 5.3c0.7 1.1 1.5 2.4 2.8 2.8 0.7 0.5 1.5 1.3 2.4 0.7 0.5-0.2 0.5 0.5 0.8 0.8 0.3 0.8-0.3 1.4-0.4 2.1l-0.5 1.2c-0.7 1.3-1.2 2.6-2.2 3.6 -0.3 0-0.5 0.3-0.8 0.4 -0.2 0.2-0.5 0.1-0.7 0.2 -0.7 0.3-1.6 0.1-2.1 0.7 0.1 0.1 0.1 0.1 0.2 0.1 1.3 0 2.8 0.1 4.1 0.1 0.2-0.1 0.3-0.2 0.3-0.4 -0.2-0.4 0.1-0.7 0.2-1 0.1-0.5 0.4-0.8 0.6-1.4 0.4-0.9 1-1.7 1.5-2.6l0.7-1.1c0.2-0.4 0.4-0.8 0.7-1.2 0.2-0.2 0.3-0.4 0.4-0.6 0-0.2-0.1-0.3-0.2-0.4 0.2-0.2 0.4-0.1 0.6-0.2 0.5 0.3 1.1 0.8 1.2 1.4l0.2 0.5 0.1 0.3 -0.1 0.7 0.1 0.7c0.1 1-0.1 2.1-0.2 3.1 -0.4 1.3-1.8 1.1-2.8 1.4 -0.3 0.2-0.8 0.1-0.8 0.5 1.3 0.3 2.7 0.1 4 0.1 0.2-0.1 0.3-0.3 0.4-0.5 0.1-0.3 0.3-0.5 0.2-0.8 -0.2-0.3 0-0.8-0.1-1.2 0.1-0.1 0.1-0.3 0-0.4 0.2-0.6 0.1-1.4 0.3-2L53 78.3 53 78.3zM37.9 59.9c0.3 0 0.5 0.2 0.5 0.5 0 0.3-0.2 0.5-0.5 0.5h-6.4c-0.3 0-0.5-0.2-0.5-0.5 0-0.3 0.2-0.5 0.5-0.5H37.9L37.9 59.9zM33.4 60.9c0.6 0 0.1-0.8-0.3-0.8h-0.6c-0.6 0-0.1 0.8 0.3 0.8H33.4L33.4 60.9zM36 60.9c0.6 0 0.1-0.8-0.3-0.8h-0.6c-0.6 0-0.1 0.8 0.3 0.8H36L36 60.9zM37.9 60.1h-0.2c-0.6 0-0.1 0.8 0.2 0.8C38.4 60.9 38.4 60.1 37.9 60.1L37.9 60.1z"/><polygon points="34.7 52.5 35.4 54.4 37.3 53.8 36.4 55.6 37.9 56.7 36 57.1 36.2 59.1 34.7 57.7 33.2 59.1 33.3 57.1 31.4 56.7 33 55.6 32 53.8 33.9 54.4 "/><polygon points="34.5 69.8 34.5 69.6 34.4 69.6 34.5 69.4 34.4 69.2 34.6 69.2 34.7 69 34.8 69.2 35.1 69.2 35 69.4 35.1 69.6 34.9 69.6 34.9 69.8 34.7 69.7 "/><polygon points="33.6 71 33.6 70.8 33.4 70.8 33.5 70.6 33.5 70.4 33.7 70.4 33.8 70.2 33.9 70.4 34.1 70.4 34 70.6 34.2 70.8 34 70.8 34 71 33.8 70.9 "/><polygon points="35.2 70.9 35.2 70.6 35 70.6 35.2 70.4 35.1 70.3 35.3 70.3 35.4 70 35.5 70.3 35.7 70.3 35.6 70.4 35.8 70.6 35.6 70.6 35.6 70.9 35.4 70.7 "/><polygon points="35.4 71.8 35.4 71.6 35.3 71.6 35.3 71.5 35.3 71.4 35.4 71.5 35.5 71.3 35.6 71.4 35.7 71.4 35.6 71.5 35.7 71.6 35.6 71.6 35.6 71.8 35.5 71.7 "/><polygon points="33.9 72.8 33.9 72.4 33.5 72.3 33.8 72.1 33.7 71.7 34 71.8 34.2 71.4 34.5 71.8 34.8 71.7 34.6 72.1 34.9 72.3 34.6 72.4 34.6 72.8 34.2 72.5 "/><path d="M35.3 67.8c0-0.9-0.5-0.1-0.8-0.8 -0.2 0.7-0.8 0.1-0.8 0.8 0 0.3 0.1 0.4 0.2 0.5v0.3c0 0.1 0.1 0.1 0.1 0.1H35c0.1 0 0.1-0.1 0.1-0.1v-0.3C35.2 68.1 35.3 68 35.3 67.8L35.3 67.8zM34.5 68c-0.3 0-0.6 0.2-0.6-0.1 0-0.4 0.3-0.3 0.5-0.3s0.7-0.1 0.7 0.3C35.1 68.1 34.7 68 34.5 68L34.5 68z"/><path d="M45.4 78.3c0.2 0 0.4-0.2 0.4-0.4 0-0.2-0.2-0.4-0.4-0.4s-0.4 0.2-0.4 0.4C45 78.1 45.2 78.3 45.4 78.3L45.4 78.3zM43.8 79.3c0.2 0 0.4-0.2 0.4-0.4 0-0.2-0.2-0.4-0.4-0.4 -0.2 0-0.4 0.2-0.4 0.4C43.4 79.1 43.6 79.3 43.8 79.3L43.8 79.3zM44.8 75.5c0.3 0.6 0.3 1.4 0.1 2l-0.2 0.2c-0.2-0.5-0.4-1-0.5-1.5 0.1-0.4 0.2-0.7 0.3-1.1C44.8 74.9 44.8 75.3 44.8 75.5L44.8 75.5zM44 77.2c0 0.2 0 0.4-0.2 0.5 -0.2 0.1-0.4-0.1-0.5-0.3 -0.1-0.2 0.1-0.2 0.1-0.3C43.6 76.9 43.9 76.9 44 77.2L44 77.2zM49.3 79.2c0.1 0.1 0 0.2 0 0.3 -0.1 0.2-0.3 0.3-0.5 0.2 -0.1-0.1-0.3-0.3-0.2-0.4C48.8 79.1 49.1 79 49.3 79.2L49.3 79.2zM50.7 79.6c0.1 0.2 0 0.4-0.2 0.5 -0.3 0.1-0.5-0.1-0.6-0.3 0.1-0.2 0.1-0.4 0.4-0.4C50.5 79.3 50.6 79.4 50.7 79.6L50.7 79.6zM48.8 80.3c0.1 0.1 0.1 0.2 0.1 0.3 -0.1 0.1-0.3 0.3-0.5 0.2 -0.2-0.1-0.3-0.2-0.2-0.4C48.2 80.1 48.7 80.1 48.8 80.3L48.8 80.3zM50 80.5c0 0.2 0 0.3-0.2 0.3 -0.2 0.2-0.3 0-0.5-0.1 -0.1-0.1-0.1-0.2 0-0.3 0.1-0.1 0.2-0.2 0.3-0.2C49.7 80.3 49.9 80.3 50 80.5L50 80.5zM51 85.8c0 0.3-0.5 0.2-0.7 0.4 -0.7 0.3-1.5 0.3-2.2 0.3v-0.1C48.8 85.7 50 85.4 51 85.8L51 85.8zM50.6 86.9c-0.1 0.2-0.1 0.4-0.3 0.5 -0.2 0.1-0.3-0.1-0.5-0.2 -0.1-0.1-0.1-0.2-0.1-0.3C49.9 86.5 50.4 86.5 50.6 86.9L50.6 86.9zM54.9 87c-0.5 0.3-1.1 0.8-1.8 0.8h-1.1l-0.1-0.1c0.7-0.9 2-0.9 3.1-0.8V87L54.9 87zM42.9 78.5c0.2 0 0.4-0.2 0.4-0.4 0-0.2-0.2-0.4-0.4-0.4 -0.2 0-0.4 0.2-0.4 0.4C42.5 78.4 42.7 78.5 42.9 78.5L42.9 78.5z"/><path d="M32.4 75.7c0-0.1-0.5 0.2-0.3 0.2 0-0.1 0.3-0.4 0.4-0.5 0-0.2-0.2 0-0.4 0.1 0.7-1 0.3-0.6-0.2-0.5 0.6-0.7 0.4-0.7 0-0.4 0.4-0.3 0.4-0.7 0.4-0.7 -0.3 0.4-0.7 0.4-0.7 0.8 0 0.3-0.1 0.7-0.2 0.9 -0.2 0.2-0.1-0.8-0.5-0.8 -0.2 0-0.5 0-0.6 0.2 0.1 0 0.2 0.3 0.2 0.3 0 0.1 0.1 0.4-0.1 0.4 -0.2 0-0.3-0.3-0.3-0.5s0-0.1 0-0.4c0-0.4-0.7-0.9-0.9-0.9 0 0.3 0.4 0.3 0.4 0.7 -0.2 0-0.4-0.3-0.4-0.1s0.2 0.2 0.2 0.4c0 0.2-0.3-0.1-0.3 0.1s0.2 0.1 0.2 0.3c-0.1-0.1-0.2 0-0.2 0.1s0.1 0.1 0.1 0.2c-0.1 0.1-0.1 0.1-0.1 0.3 0 0.8 0.5 1.1 0.9 1.1 0.3 0 0.2-0.2 0.3-0.3 0 0.1 0.2-0.1 0.2 0.2 0 0.2-0.3 0.1-0.3 0.3 0 0.3 0.4 0 0.4 0.3 0 0.4-0.1 0.4-0.1 0.5 0 0.1 0.4-0.1 0.4-0.2 0.1 0.1 0.1 0.3 0.3 0.3 0.1 0 0.2-0.3 0.2-0.3 -0.1 0 0.4 0.3 0.4 0.2 0-0.4-0.2-0.2-0.2-0.4s0.5-0.2 0.4-0.3c-0.1-0.1-0.1-0.1-0.2-0.2 0 0.1-0.4-0.6 0.1-0.3C32.3 76.9 32.4 75.8 32.4 75.7L32.4 75.7zM36.2 75c-0.1 0.4-0.8-0.1-0.7 0.5 0.1 0.4 0.2 0.9 0.4 1.2 0.2 0.3 0.1 0.8 0.1 1.1 -0.2 0.3-0.5 0.5-0.8 0.7 -0.6-0.1-1.5 0.3-1.8-0.4 -0.1-0.3-0.3-0.7-0.3-1 0.1-0.1 0.2-0.1 0.2-0.1 0-0.2-0.2-0.2-0.2-0.4 0.7-0.1-0.3-0.8 0.3-0.8 0.5 0.5 1.3 0.3 1.7 0.9 0.1 0.1 0.2 0.2 0.3 0.3 -0.1-0.5-0.3-1-0.4-1.6 -0.1-0.3 0.1-0.5 0.2-0.7C35.7 74.3 36 74.8 36.2 75L36.2 75zM37.3 67.2l1.2 0.5 1.2-0.5L39.2 69l0.9-0.2 -0.3 1.1 0.3 1 -0.8-0.2 0.4 1.9 -1.1-0.5 -1.2 0.5 0.5-1.9 -1 0.3 0.3-1.1 -0.3-1 0.9 0.2L37.3 67.2 37.3 67.2zM39.1 70.4c0.3 0 0.3-0.4 0.3-0.7 0-0.8-0.6 0-0.9-0.7 -0.2 0.6-0.8 0.1-0.8 0.7 0 0.4 0 0.7 0.4 0.7L39.1 70.4 39.1 70.4zM37.9 69.7c0 0.3 0.4 0.1 0.7 0.1s0.7 0.2 0.7-0.1c0-0.4-0.4-0.3-0.7-0.3C38.3 69.5 37.9 69.3 37.9 69.7L37.9 69.7zM39.9 75C40 75 40.1 75 40.2 75l0.1-0.3c0 0-0.2-0.2-0.2-0.2 -0.3 0.1-0.7 0.1-0.9 0.4 0 0.2 0.2 0.4 0.3 0.5 0.1-0.1 0.2 0.1 0.2 0.2 0 0.1-0.1 0.2-0.2 0.2 -0.2-0.3-0.7 0.1-0.9-0.2 0.1-0.3 0.2-0.7 0-0.9 0-0.1 0.1-0.1 0.1-0.2 -0.1-0.3-0.4-0.1-0.6-0.1 -0.3-0.1-0.5 0.1-0.7 0.4 0 0.1 0.1 0.2 0.2 0.3 0.1 0 0.1 0 0.2 0.1l-0.2 0.1c0.1 0.1 0.1 0.2 0.1 0.2 -0.2 0.1-0.3-0.2-0.3-0.3 0-0.2 0-0.4-0.2-0.5 -0.1 0-0.2 0.1-0.2 0.1 -0.1 0.1-0.1 0.2-0.1 0.3s0.1 0.4 0.1 0.4 0.6 0.5 0.8 0.8c-0.2 0.4-0.2 0.9-0.6 1.1 -0.1 0.1-0.1 0.2-0.1 0.3l0.1 0.1c0.3-0.2 0.8-0.2 0.7-0.7 0.1-0.2 0.2-0.4 0.4-0.5 0.2-0.1 0.4 0.1 0.5 0.2 -0.1 0.3-0.3 0.5-0.5 0.6 -0.1 0.1 0 0.1 0 0.2 0.1 0.2 0.3 0.1 0.4 0.1 0.3-0.2 0.5-0.7 0.8-0.8 0.1 0.2-0.4 0.3-0.1 0.5 0.2-0.1 0.4 0 0.5-0.2 -0.2-0.3 0.5-0.5 0.1-0.8 0-0.3 0.3-0.4 0.3-0.8 -0.1-0.3-0.5-0.3-0.6-0.7C39.6 74.9 39.8 74.9 39.9 75L39.9 75z"/><path d="M25.1 80.6c0.2 0 0.3-0.2 0.3-0.3 0-0.2-0.2-0.3-0.3-0.3 -0.2 0-0.3 0.2-0.3 0.3C24.7 80.4 24.8 80.6 25.1 80.6L25.1 80.6zM24.5 81.5c0.2 0 0.4-0.2 0.4-0.4 0-0.2-0.2-0.4-0.4-0.4 -0.2 0-0.4 0.2-0.4 0.4C24.1 81.4 24.2 81.5 24.5 81.5L24.5 81.5zM25.8 81.6c0.2 0 0.4-0.2 0.4-0.4s-0.2-0.4-0.4-0.4c-0.2 0-0.4 0.2-0.4 0.4C25.3 81.5 25.5 81.6 25.8 81.6L25.8 81.6zM26.6 75c0.3 0.8 0.2 1.7-0.3 2.4 0 0.2 0.1 0.4-0.2 0.4 -0.6-0.8-0.2-1.9 0.1-2.8C26.3 74.9 26.5 74.8 26.6 75L26.6 75zM26.5 78.6c0.1 0.2-0.1 0.3-0.3 0.4 -0.2 0.1-0.4-0.1-0.4-0.2 -0.1-0.2 0-0.4 0.2-0.4C26.1 78.4 26.4 78.4 26.5 78.6L26.5 78.6zM13.8 80.5c0.1 0.1 0 0.3-0.1 0.4 -0.1 0.1-0.3 0.2-0.5 0.1S13 80.6 13 80.5c0.1-0.1 0.1-0.2 0.3-0.2C13.5 80.3 13.6 80.4 13.8 80.5L13.8 80.5zM19.9 86.7c0 0.2-0.1 0.3-0.3 0.4 -0.2 0-0.3-0.1-0.4-0.2 -0.1-0.3 0.1-0.4 0.3-0.5C19.7 86.4 19.8 86.5 19.9 86.7L19.9 86.7zM25.1 78.7c0.2 0 0.4-0.2 0.4-0.4 0-0.2-0.2-0.4-0.4-0.4 -0.2 0-0.4 0.2-0.4 0.4C24.7 78.5 24.9 78.7 25.1 78.7L25.1 78.7z"/><path d="M40.8 66.2L40.8 66.2H28.5l0 0 0 0v9.9c0 1 0.4 1.8 1 2.1l4.7 2.8c0.1 0.1 0.3 0.2 0.4 0.2s0.3-0.1 0.4-0.2l4.8-2.8c0.5-0.3 1-1.1 1-2.1L40.8 66.2 40.8 66.2 40.8 66.2zM32.6 69.1h-1v-2.6h1V69.1L32.6 69.1zM31.8 70l0.2-0.2 -0.1-0.2h0.2l0.1-0.2 0.1 0.2h0.2l-0.1 0.2 0.2 0.2L32.3 70v0.2l-0.2-0.1L32 70.3V70L31.8 70 31.8 70zM28.9 73.1v-2.4h1.3v2.4H28.9L28.9 73.1zM29.1 69.7h0.2l0.1-0.2 0.1 0.2h0.2l-0.1 0.2 0.2 0.2L29.6 70v0.2l-0.2-0.2 -0.2 0.1V70L29 69.9l0.2-0.2L29.1 69.7 29.1 69.7zM30.6 72.1h0.2l0.1-0.2 0.1 0.2h0.2l-0.1 0.2 0.2 0.2H31v0.2l-0.2-0.1 -0.2 0.1v-0.2h-0.2l0.2-0.2L30.6 72.1 30.6 72.1zM31.4 70.2c0-0.1-0.1-0.1-0.1-0.1 -0.1 0-0.2 0.2-0.3 0.2 -0.1 0-0.1 0-0.1-0.1s0.2-0.1 0.2-0.2c-0.8 0-0.8 0.4-0.9 0.4 -0.2 0 0.2-0.4 0.3-0.5 -0.2 0-0.3-0.2-0.4-0.3 0.1-0.1 0.1-0.1 0.2 0 0-0.1 0.1-0.2 0.3-0.2 0.4 0 0.3 0.3 0.3 0.3s0-0.3 0.2-0.3c0.3 0 0.8 0.9 0.4 0.9C31.3 70.3 31.4 70.2 31.4 70.2L31.4 70.2zM30.5 67.5l0.2-0.2 -0.1-0.2h0.2l0.1-0.2 0.1 0.2h0.2l-0.1 0.2 0.2 0.2L31 67.5v0.2l-0.2-0.1 -0.2 0.1v-0.2L30.5 67.5 30.5 67.5zM30.2 66.6v2.6h-1.3v-2.6H30.2L30.2 66.6zM32.6 79.6l-2.9-1.7c-0.5-0.3-0.7-0.9-0.8-1.6v-2.8h3.7L32.6 79.6 32.6 79.6zM31.5 73.1v-2.4h1v2.4H31.5L31.5 73.1zM36.4 79.8L35 80.6l0 0c-0.1 0.1-0.2 0.1-0.4 0.1s-0.3-0.1-0.4-0.1l-1.4-0.8v-6.4h3.4L36.4 79.8 36.4 79.8zM36.4 73.1h-3.4v-6.6h3.4V73.1L36.4 73.1zM40.4 76.2c-0.1 0.7-0.3 1.3-0.8 1.6l-2.9 1.7v-6.1h3.7L40.4 76.2 40.4 76.2zM40.4 73.1h-3.7v-6.6h3.7V73.1L40.4 73.1zM41 65.5c0 0-0.2 0.3-0.2 0.4 0 0.1 0.1 0.2 0.2 0.2 0.1 0 0.2-0.1 0.2-0.2C41.2 65.9 41 65.5 41 65.5L41 65.5zM28.1 65.5c0 0-0.2 0.3-0.2 0.4 0 0.1 0.1 0.2 0.2 0.2s0.2-0.1 0.2-0.2C28.3 65.9 28.1 65.5 28.1 65.5L28.1 65.5zM31.4 65.5c0 0-0.2 0.3-0.2 0.4 0 0.1 0.1 0.2 0.2 0.2 0.1 0 0.2-0.1 0.2-0.2C31.5 65.9 31.4 65.5 31.4 65.5L31.4 65.5zM34.6 65.5c0 0-0.2 0.3-0.2 0.4 0 0.1 0.1 0.2 0.2 0.2 0.1 0 0.2-0.1 0.2-0.2C34.7 65.9 34.6 65.5 34.6 65.5L34.6 65.5zM37.8 65.5c0 0-0.2 0.3-0.2 0.4 0 0.1 0.1 0.2 0.2 0.2 0.1 0 0.2-0.1 0.2-0.2C38 65.9 37.8 65.5 37.8 65.5L37.8 65.5zM28.1 70c0 0 0.2 0.3 0.2 0.4 0 0.1-0.1 0.2-0.2 0.2 -0.1 0-0.2-0.1-0.2-0.2C27.9 70.4 28.1 70 28.1 70L28.1 70zM28.1 74.3c0 0 0.2 0.3 0.2 0.4 0 0.1-0.1 0.2-0.2 0.2 -0.1 0-0.2-0.1-0.2-0.2C27.9 74.7 28.1 74.3 28.1 74.3L28.1 74.3zM28.6 77.7c0 0 0.2 0.3 0.2 0.4 0 0.1-0.1 0.2-0.2 0.2 -0.1 0-0.2-0.1-0.2-0.2C28.4 78 28.6 77.7 28.6 77.7L28.6 77.7zM31.4 79.5c0 0 0.2 0.3 0.2 0.4 0 0.1-0.1 0.2-0.2 0.2 -0.1 0-0.2-0.1-0.2-0.2C31.1 79.8 31.4 79.5 31.4 79.5L31.4 79.5zM41.2 70c0 0-0.2 0.3-0.2 0.4 0 0.1 0.1 0.2 0.2 0.2 0.1 0 0.2-0.1 0.2-0.2C41.4 70.4 41.2 70 41.2 70L41.2 70zM41.2 74.3c0 0-0.2 0.3-0.2 0.4 0 0.1 0.1 0.2 0.2 0.2 0.1 0 0.2-0.1 0.2-0.2C41.4 74.7 41.2 74.3 41.2 74.3L41.2 74.3zM40.7 77.7c0 0-0.2 0.3-0.2 0.4 0 0.1 0.1 0.2 0.2 0.2 0.1 0 0.2-0.1 0.2-0.2C40.8 78 40.7 77.7 40.7 77.7L40.7 77.7zM37.9 79.5c0 0-0.2 0.3-0.2 0.4 0 0.1 0.1 0.2 0.2 0.2 0.1 0 0.2-0.1 0.2-0.2C38.2 79.8 37.9 79.5 37.9 79.5L37.9 79.5zM34.7 81.4c0 0-0.2 0.3-0.2 0.4 0 0.1 0.1 0.2 0.2 0.2s0.2-0.1 0.2-0.2C34.8 81.8 34.7 81.4 34.7 81.4L34.7 81.4zM42.1 65L42.1 65H27.2l0 0 0 0v11.4c0 1.1 0.5 2.2 1.1 2.5l5.7 3.6c0.1 0.2 0.3 0.2 0.5 0.2 0.2 0 0.3-0.1 0.5-0.2l5.8-3.7c0.7-0.3 1.1-1.3 1.1-2.5L42.1 65 42.1 65 42.1 65zM41.6 76.6c-0.1 0.9-0.4 1.6-1 2l-5.6 3.6H35c-0.1 0.1-0.3 0.2-0.4 0.2 -0.2 0-0.3-0.1-0.4-0.2l-5.6-3.5c-0.6-0.4-0.9-1.1-1-2V65.4h14L41.6 76.6 41.6 76.6z"/><path d="M14 87.5c0 0.2-0.1 0.3-0.3 0.4 -0.2 0.1-0.4-0.1-0.4-0.2 -0.1-0.2 0-0.4 0.2-0.5C13.7 87.1 13.9 87.3 14 87.5L14 87.5zM15.1 87.7c0.1 0.1-0.1 0.2-0.1 0.3 -0.1 0.1-0.3 0.1-0.4 0 -0.2-0.1-0.2-0.2-0.1-0.4 0.1-0.1 0.2-0.1 0.3-0.2C14.9 87.5 15 87.5 15.1 87.7L15.1 87.7zM6.9 89.9c-0.2 0.3-0.5-0.1-0.8-0.2 -0.8-0.4-0.7-1.3-1.5-1.7 0.1-0.3 0.3 0 0.4 0 0.1 0.1 0.3 0.2 0.4 0.2C6.3 88.5 6.4 89.2 6.9 89.9L6.9 89.9zM69.1 81.6c-0.3-0.6-0.9-0.9-1.6-0.9 -0.5 0.1-1 0.4-1.2 0.9 -0.1 0.5 0.1 0.9 0.4 1.2 0.2 0.1 0.3 0.1 0.4-0.1 0.1-0.3-0.2-0.3-0.2-0.5 -0.1-0.3 0-0.5 0.2-0.8 0.2-0.2 0.6-0.1 0.8-0.1 0.3 0.2 0.5 0.3 0.7 0.6 0.1 0.4 0.1 0.8 0 1.1 -0.2 0.5-0.8 1-1.3 1.1 -1.8 0.3-21.2 0.2-21.2 0.2 -2.3 0.2-4.9-0.4-6.8 0.8 -0.9 0.4-1.4 1.4-1.6 2.3 -0.6 0.5-1.2 1.1-1.7 1.7L35.9 89c0.1-0.5 0.3-1 0.4-1.5 0.3-0.4 0.3-1 0.5-1.5 0.8-1.3 1.6-2.7 2.8-3.6 0.5-0.7 1.5-0.6 2.3-0.6 0.9 0.4 1.9 0.5 3 0.4 0.1-0.1 0.1-0.1 0.1-0.2 -0.3-0.3-0.8-0.4-1.1-0.7 -0.9-0.4-1.7 0.1-2.6 0.1 -0.1-0.1-0.1-0.1-0.1-0.1 0.8-0.6 1.7-1 2.7-1.4 0.8-0.4 1.5-0.6 2.3-0.9 0.3 0 0.6-0.3 0.9-0.1l1.1-0.3c0.1 0 0.1 0.1 0.2 0.1 1-0.3 2.2 0 3.3-0.1l0.2 0.1 1 0.3c0.4 0.1 0.5 0.5 1 0.5 0.2-0.3-0.2-0.4-0.3-0.6 0.5-0.1 1 0 1.4 0.2l-0.2 0.2c-0.1 0.2 0.1 0.4 0.3 0.5 0.2 0.1 0.3-0.1 0.4-0.1 0.3-0.2 0-0.4 0.1-0.5 1.6 0.3 3.1 0.7 4.6 1.3 0.4 0.1 0.8 0.4 1.3 0.4 -0.4-0.4-1.1-0.6-1.6-0.9 -0.4-0.2-0.9-0.2-1.1-0.5 0.1-0.1 0.2-0.1 0.3-0.2 0.7-0.1 1.4-0.6 1.8-1.2C60.8 78 61 78 61 77.9c-0.2-0.2-0.5 0.1-0.8 0.1 -0.9 0.2-1.3 1.3-2.2 1.4 -1.1-0.3-2.2-0.5-3.3-0.8 -0.5-0.1-1.1-0.1-1.6-0.3L52 78.1h-2.2c0-0.1-0.1-0.1-0.1-0.1 0.8-0.2 1.4-0.7 2.2-0.8l5.7-2.6c0.6-0.5 1.1-1.1 1.6-1.7 0-0.2-0.1-0.3-0.2-0.4 -0.2-0.1-0.3-0.1-0.4 0.1 -0.3 0.2 0 0.4 0 0.7 -0.3 0.3-0.7 0.7-1 0.8 -0.1 0-5.9 2.7-5.9 2.7 -0.9 0.4-1.7 0.8-2.6 1l-1.3 0.2c-0.1 0.3-0.3 0.4-0.5 0.5 -0.3 0.1-0.6 0.3-1 0.3 -2.8 1.1-5.7 2.2-7.8 4.4 0.1-0.3 0.2-0.6 0.2-0.9 -0.1-0.3 0-0.7-0.2-0.9 -0.1-0.1-0.2-0.5-0.2-0.6l-0.3 0.2c-0.2 0.5-0.4 1.3-0.2 1.8 0.1 0.4 0.4 0.8 0.1 1.2 -1 1.3-1.6 2.8-2.3 4.2 -0.3-0.1-0.4-0.3-0.5-0.5 0.7-0.9 1.3-2 1.5-3.2 0.2-0.1 0.1-0.4 0.2-0.5 -0.1-0.3 0.2-0.7 0-1 0.2-0.5-0.6-0.9-0.2-1.2l-0.4 0.2c-0.9 1.2 0.5 3-0.5 4.2v0.1c-0.3 0.4-0.4 0.8-0.9 1 -0.5-0.2-0.7-0.8-1-1.3 -0.5-0.4-0.5-1.4-0.2-2 0.2-0.6-0.1-1.1-0.2-1.7L33.2 82c-0.5 0.7-0.7 1.7-0.3 2.5 0.2 0.4 0.2 0.9 0.5 1.3 0.2 0.6 0.6 1 0.9 1.6 0.1 0.2-0.1 0.3-0.2 0.4 -0.2-0.2-0.2-0.5-0.4-0.7 -0.7-1.5-1.6-2.7-2.7-3.9 -0.1-0.2-0.2-0.4-0.1-0.6 0.4-0.4 0.5-1.1 0.3-1.6 -0.1-0.1-0.2-0.2-0.2-0.3l-0.3-0.3c0.1 0.8-0.4 1.4-0.2 2.2v0.1c-2.2-1.6-4.6-3.2-7.1-4.3l-0.2 0.5c0.6 0.2 2.3 1.1 2.3 1.1 0.8 0.3 1.4 0.7 2.1 1.1 2.9 1.6 4.8 4.3 6.1 7.2 0 0.2 0.2 0.5 0.1 0.7 -0.4-0.7-1.1-1.1-1.6-1.6 -0.2-1-0.8-2-1.6-2.4 -0.3-0.5-1-0.5-1.5-0.7h-7.8c-6.3-0.1-12.1 0.2-18.3 0.1 -0.9-0.1-2-0.4-2.2-1.3 -0.2-0.3-0.2-0.9 0-1.2 0.2-0.4 0.7-0.5 1.1-0.6 0.3 0.1 0.6 0.4 0.7 0.6 0 0.3-0.2 0.5-0.3 0.8 0 0.1 0.1 0.3 0.3 0.2C2.8 82.9 3 82.6 3 82.3c0-0.2 0.1-0.4-0.1-0.5 -0.1-0.4-0.6-0.8-1-0.9 -0.5-0.1-1.1 0.1-1.5 0.5 -0.5 0.4-0.5 1.2-0.3 1.8 0.3 0.9 1.4 1.6 2.3 1.7L23.3 85c2 0.1 4.3-0.2 6.4 0.2 0.8 0.2 1.5 0.8 1.7 1.6 0 0.1-0.1 0-0.2 0 -1.7-1.1-3.9-1.5-6-1.3 -0.9-0.1-1.6 0.3-2.4 0.5 -0.4 0.1-0.8-0.1-1-0.3 -0.8-0.7-2.1-0.7-3.1-0.4 0 0.1 0 0.1 0 0.2 1-0.1 1.7 0.8 2.6 0.9 0.2 0.1 0.4-0.2 0.6 0 -1 0.5-1.9 1-3 1.3 -0.3-0.1-0.5-0.4-0.8-0.5 -0.4-0.4-1.1-0.3-1.7-0.3 -0.2 0.1-0.4-0.1-0.5 0 0.2 0.3 0.5 0.5 0.9 0.7 0.5 0.2 1.1 0 1.6 0.3 -0.1 0.2-0.3 0.2-0.4 0.3 -1 0.4-1.8 1.3-2.9 1.3 -1.2 0.1-2.4-0.2-3.2-1 -0.3-0.8-1.2-1.3-2.2-1.3 -0.1 0.1-0.2 0.1-0.1 0.2 0.5 0.3 0.8 0.8 1.3 1.1 0.3 0.4 0.9 0 1.1 0.4 0.4 0.3 0.9 0.5 1.4 0.6 0.3 0.2 0.7 0.2 1.1 0.3L14.5 90c-2 0.7-4.2 0.7-6.4 0.6 -0.7 0-1.3-0.2-1.9-0.2 0.1 0.1 0.3 0.2 0.5 0.3 -0.2 0.1-0.4 0.2-0.6 0.2 -0.3 0.1-0.5 0.1-0.8 0.2 -0.3 0-0.7 0.1-0.9 0.2 -0.4 0.4-0.8 0.8-1.2 1 0 0.1 0 0.2 0.1 0.2 0.3-0.3 0.9-0.1 1.3-0.3 0.7-0.1 1.1-0.8 1.7-1.1 0.6-0.5 1.5-0.4 2.2-0.3 0.4 0.1-0.1 0.3 0.1 0.5 0.2 0.2 0.3 0.3 0.5 0.3 0.1-0.1 0.1-0.1 0.2-0.1 0.1-0.2 0.1-0.4 0-0.5 0.3-0.2 0.7 0 1-0.1 0.8 0 1.6-0.2 2.4-0.2 0.1 0 0.3-0.2 0.4 0 -0.1 0.2-0.3 0.2-0.2 0.4 0.1 0.2 0.3 0.3 0.4 0.3 0.2-0.1 0.4-0.2 0.3-0.5 -0.1-0.2-0.2-0.2-0.3-0.2 0.4-0.2 1-0.3 1.4-0.5 0.3-0.1 0.6-0.2 0.9-0.3 0.3 0 0.5-0.3 0.8-0.2 -0.1 0.4-0.3 0.7-0.4 1 -0.3 1.1-0.6 2.7 0 3.8 0.1 0 0.1 0 0.1-0.1 -0.4-1.1-0.2-2.4 0.2-3.5 0.3-1.8 2.2-2.3 3.5-3l0.1 0.1c-0.4 0.9-0.9 1.8-0.8 3 0.1 0.2-0.1 0.4 0 0.5 0.4-0.2 0.6-0.6 0.8-1 0.2-1-0.4-2.2 0.6-2.9 1.7-0.7 3.4-1.6 5.4-1.6 0.1 0.1 0.2-0.1 0.2 0.1 -0.4 0.5-1 0.9-1.3 1.5 -0.7 0.9-0.7 2.6-0.4 3.7 0.2 0.7-0.4 1-0.7 1.5 -0.1 0.2-0.2 0.5-0.3 0.7l0.4 0.1c0.4-0.4 0.7-0.9 0.7-1.4 0.1 0.2 0.2 0.4 0.4 0.4 0.2-0.2-0.1-0.4-0.2-0.7 0.3-0.2 0.5 0.2 0.8 0.3 0.4 0.1 0.8 0.3 1.3 0.3l0.2-0.2c-0.5-0.7-1.4-0.9-2.2-0.9 -0.4-0.7-0.4-1.6-0.4-2.4 0.1-0.4 0.2-0.9 0.4-1.3 0.1-0.3 0.4-0.6 0.6-0.8 0.4-0.4 0.9-0.6 1.4-0.7h0.1c0 0.1 0 0.1 0 0.1 -0.6 0.4-0.7 1.1-1 1.6 -0.4 0.5-0.5 1.3-0.2 1.8 0.1 0.3 0.1 0.7 0.4 0.9 0.3-0.4 0.3-0.9 0.4-1.3 -0.1-0.7-0.5-1.4-0.1-2.1 0.2-0.5 0.7-0.8 1.1-0.9 1.2-0.1 2.2 0.5 3.2 0.9 0.2 0.2 0.6 0.3 0.6 0.6 0 0.6-0.3 1.1-0.8 1.4 -0.6 0.3-1.4 0.4-2 0 -0.3-0.3-0.4-0.9-0.3-1.3 0.2-0.3 0.5-0.5 0.9-0.3 0.2 0.1 0.4 0.3 0.7 0.2 0.1-0.1 0.2-0.2 0.1-0.3 -0.2-0.1-0.3-0.4-0.7-0.5 -0.4-0.1-0.9-0.1-1.2 0.2 -0.4 0.4-0.6 1-0.5 1.5 0.2 0.7 0.7 1.2 1.3 1.4 1 0.2 2-0.1 2.6-0.9 0.3-0.3 0.3-0.6 0.5-0.9 1 0.6 1.8 1.7 2.2 2.8 0 0.4 0.1 0.8 0 1.1l0.8 0.1c-0.1-0.2 0-0.4 0.1-0.5 0.3-1.4 1.1-2.6 2.2-3.5 0.4-0.2 0.3 0.3 0.4 0.4 0.3 0.8 1.1 1.4 1.8 1.6 0.9 0.2 1.7-0.1 2.3-0.8 0.3-0.5 0.6-1.3 0.2-1.8 -0.3-0.4-0.7-0.5-1.2-0.5 -0.5 0-0.9 0.4-1.2 0.8 0 0.2 0 0.4 0.1 0.4 0.1 0 0.3 0 0.3-0.1 0.1-0.3 0.3-0.5 0.6-0.7 0.2-0.1 0.5 0 0.7 0.1 0.2 0.2 0.3 0.5 0.3 0.8 -0.1 0.4-0.3 0.8-0.7 1 -0.6 0.3-1.5 0.2-2.1-0.2 -0.3-0.3-0.4-0.6-0.6-0.9 -0.1-0.3-0.2-0.7 0-1 0.9-0.5 1.9-1 3-1.1 0.4 0.1 0.8 0.4 1.1 0.7 1 1-0.2 2.4 0.5 3.6 0.3-0.1 0.3-0.4 0.4-0.6 0.3-0.8-0.1-1.6-0.3-2.3 -0.3-0.5-0.4-0.9-0.8-1.3 0.1-0.1 0.2-0.1 0.3-0.1 0.4 0.3 0.9 0.7 1.3 1.1 0.6 1 0.9 2.2 0.8 3.5 -0.2 0.7-0.9 0.9-1.4 1.2 -0.2 0.2-0.5 0.4-0.6 0.7 0.3 0.2 0.6 0 0.9-0.1 0.4-0.2 0.7-0.7 0.9-0.9 0.1 0 0 0.1 0.1 0.1 0 0.2-0.1 0.5 0.1 0.6 0.1-0.3 0.1-0.7 0.2-1.1 0.3 0.3 0.3 0.7 0.4 1.1 0.2 0.4 0.5 0.9 1 1 0.1-0.2 0-0.4-0.1-0.5 -0.1-0.5-0.5-0.8-0.8-1.2 -0.8-1-0.4-2.7-1-3.8 -0.2-0.6-0.7-1.1-1.1-1.6l0.1-0.1c1 0 1.9 0.3 2.9 0.5 1.2 0.6 2.9 0.4 3.4 2 0.2 0.9 0.6 1.6 1.2 2.3l0.1-0.1c0.1-0.2 0.1-0.6 0-0.8 -0.1-1.1-1.1-1.3-1.6-2.2l0.1-0.1c0.5 0.2 1 0.3 1.6 0.5 1.7 0.5 2.9 2.2 3.1 3.9 0 1.4-0.3 2.5-0.8 3.7 -0.1 0.2-0.4 0.4-0.2 0.5 0.2-0.2 0.3-0.4 0.4-0.7 0.7-1.2 1.1-2.8 0.7-4.3 0-0.3-0.3-0.5-0.2-0.8 0.1 0.1 0.2 0.2 0.4 0.2 0.1-0.1 0.3-0.1 0.4-0.2 0-0.1 0.1-0.3 0-0.4 -0.1-0.2-0.4-0.2-0.6-0.2 -0.1 0.1-0.2 0.3-0.3 0.5 -0.2-0.4-0.4-0.8-0.8-1.1l0.1-0.1c1 0.3 1.8 0.8 2.8 1 0.2 0.1 0.4 0.2 0.8 0.2 0.8 0.3 1.7 0.4 2.6 0.7 0.7-0.1 1.2 0.2 1.8 0.1v-0.1l0 0c-0.2-0.3-0.8 0-1-0.2 -1.5-0.2-2.9-0.5-4.2-1 0-0.1 0.1-0.1 0.2-0.1 0.2-0.1 0.4-0.3 0.3-0.5 -0.1-0.2-0.3-0.2-0.5-0.2 -0.1 0.1-0.3 0.2-0.3 0.4 0 0.2 0.2 0.4 0.3 0.4 -0.1 0.1-0.1 0-0.2 0 -0.7-0.3-1.3-0.6-2-0.9 -0.2-0.1-0.4-0.2-0.7-0.3 -0.5-0.2-1-0.5-1.5-0.7C50 88 48.5 87.6 47 87.1c-0.3-0.1-0.6-0.2-0.9-0.3 -0.5-0.2-1.1-0.3-1.6-0.4 -1.8-0.4-4.2-0.5-5.8 0.5 -0.3-0.1-0.4 0.3-0.5 0.1 0.4-1.2 1.7-1.6 2.9-1.6 8.5-0.1 16.6-0.2 25-0.3 1 0 2-0.3 2.4-1.3C69.3 83 69.4 82.1 69.1 81.6L69.1 81.6zM35.2 89.5c-0.1 0.3-0.3 0.5-0.2 0.8l-0.1 0.1c0.1-0.3-0.3-0.5-0.2-0.9 -0.2-0.3-0.2-0.6-0.3-0.9 -0.2-0.3 0.2-0.5 0.3-0.7 0.3 0.1 0.4 0.4 0.6 0.7C35.4 88.9 35.2 89.1 35.2 89.5L35.2 89.5zM58.3 88.1c0 0.1 0.1 0.1 0.1 0.2 -0.8 0.7-1.8 0.9-2.9 0.9 -0.1 0-0.2 0.1-0.3 0.1 -0.1-0.1-0.1-0.1-0.1-0.2C56 88.3 57.1 87.9 58.3 88.1L58.3 88.1zM54.9 88.5c0.1 0.3-0.1 0.5-0.3 0.6 -0.2 0-0.4-0.2-0.5-0.3 -0.1-0.2 0.1-0.3 0.2-0.4C54.4 88.1 54.8 88.1 54.9 88.5L54.9 88.5zM14.4 88.5c0.1 0.2 0 0.3-0.1 0.4 -0.1 0.1-0.3 0.1-0.4 0.1 -0.2 0-0.2-0.2-0.3-0.3 0-0.2 0.1-0.3 0.3-0.4C14 88.4 14.2 88.3 14.4 88.5L14.4 88.5zM10.5 89.9v0.2c-0.5 0.1-1 0-1.4-0.3 -0.3-0.4-0.7-0.9-1.1-1.1 0-0.1-0.1-0.2 0-0.2C9.1 88.5 9.7 89.3 10.5 89.9L10.5 89.9zM61.5 88.5c-0.5 0.7-0.9 1.6-1.8 2 -0.2 0-0.3 0.2-0.4 0.1 0.3-0.8 1.1-1.7 1.9-2.1C61.3 88.5 61.5 88.5 61.5 88.5L61.5 88.5zM15.6 88.7c0 0.2-0.2 0.3-0.3 0.4 -0.2 0-0.3-0.1-0.4-0.2 -0.1-0.2 0.1-0.3 0.2-0.4C15.3 88.5 15.5 88.6 15.6 88.7L15.6 88.7zM64.3 88.9c-0.2 0.3-0.1 0.7-0.3 1 -0.4 0.5-0.8 1-1.5 1.1 -0.1-0.2 0.2-0.4 0.3-0.6 0.3-0.7 0.7-1.4 1.4-1.6L64.3 88.9 64.3 88.9zM3.9 89.1c0.1 0.2 0.1 0.3 0 0.5 -0.1 0.1-0.3 0.2-0.5 0.1 -0.2-0.1-0.3-0.3-0.2-0.5C3.4 88.9 3.8 88.8 3.9 89.1L3.9 89.1zM2.7 89.3c0 0.1 0.1 0.2 0.1 0.3 -0.1 0.1-0.2 0.2-0.3 0.3 -0.2 0.1-0.4-0.1-0.5-0.3 0-0.2 0.1-0.4 0.2-0.4C2.4 89.1 2.6 89.2 2.7 89.3L2.7 89.3zM5.2 89.5c0.1 0.2 0.1 0.5-0.2 0.5 -0.3 0.1-0.5-0.1-0.7-0.3 0-0.2 0.1-0.3 0.3-0.4C4.9 89.3 5.1 89.3 5.2 89.5L5.2 89.5zM8.7 89.7c0 0.2 0 0.4-0.2 0.4 -0.1 0.1-0.3 0.1-0.4 0.1C8.1 90.1 7.9 90 8 89.8c0.1-0.1 0.2-0.2 0.3-0.2C8.4 89.6 8.6 89.6 8.7 89.7L8.7 89.7zM66.3 89.9c-0.1 0.2-0.2 0.3-0.3 0.3 -0.2 0-0.4-0.1-0.5-0.2 -0.1-0.2 0.1-0.4 0.3-0.4C65.9 89.6 66.3 89.7 66.3 89.9L66.3 89.9zM62.4 90c0 0.2-0.2 0.3-0.3 0.4 -0.3 0.1-0.5-0.1-0.7-0.3 0.1-0.2 0.2-0.3 0.4-0.4C62.1 89.6 62.2 89.8 62.4 90L62.4 90zM65 89.9c0 0.2-0.1 0.3-0.2 0.4 -0.2 0.1-0.4 0.1-0.5-0.1 -0.2-0.2-0.1-0.3 0.1-0.4C64.6 89.7 65 89.7 65 89.9L65 89.9zM3.4 90.3c0.1 0.2-0.1 0.4-0.3 0.5 -0.2 0-0.4-0.1-0.5-0.3 0-0.2 0.1-0.4 0.2-0.4C3 90.1 3.3 90.2 3.4 90.3L3.4 90.3zM61.3 90.5c0.1 0.2-0.1 0.4-0.3 0.5 -0.2 0.1-0.3-0.1-0.4-0.2s-0.2-0.3 0-0.4C60.8 90.2 61.2 90.3 61.3 90.5L61.3 90.5zM14.8 90.8c0.1 0.2-0.2 0.3-0.2 0.4 -0.1 0.1-0.3 0.1-0.3 0 -0.1-0.1-0.2-0.3-0.2-0.4 0.1-0.1 0.2-0.2 0.3-0.2C14.6 90.4 14.7 90.6 14.8 90.8L14.8 90.8zM65.9 90.9c0.1 0.2-0.1 0.2-0.1 0.3 -0.1 0.1-0.3 0.1-0.5 0.1 -0.2-0.1-0.2-0.3-0.2-0.5 0.1-0.1 0.2-0.2 0.3-0.2C65.6 90.6 65.8 90.7 65.9 90.9L65.9 90.9zM64.6 91c0.1 0.3-0.2 0.4-0.3 0.4 -0.1 0-0.2-0.1-0.2 0.1 0.5 0.3 0.9 0.7 1.3 1.1v0.2c-0.8 0-1.6-0.2-2.1-0.8 -0.2-0.1-0.4-0.1-0.6-0.3 0.3-0.3 0.8-0.2 1.2-0.2 0.3-0.3-0.3-0.5 0.1-0.8 0.1 0 0.2-0.2 0.4-0.1C64.4 90.8 64.5 90.9 64.6 91L64.6 91zM55.9 91c0.1 0.1-0.1 0.2-0.1 0.3 -0.1 0.1-0.3 0.2-0.5 0.1 -0.1-0.2-0.3-0.3-0.2-0.5C55.2 90.6 55.8 90.7 55.9 91L55.9 91zM8.2 91.8C8.2 92 8 92.1 7.8 92.1c-0.2 0-0.3-0.1-0.4-0.3 0-0.2 0.1-0.2 0.1-0.3C7.8 91.3 8.2 91.5 8.2 91.8L8.2 91.8zM9.9 91.5c0 0.3-0.3 0.5-0.4 0.8 -0.3 0.7-0.9 1.4-1.7 1.4 -0.1-0.2 0.3-0.4 0.4-0.6 0.3-0.7 1-1.1 1.6-1.6H9.9L9.9 91.5zM55.3 91.8c0 0.2-0.2 0.4-0.4 0.5 -0.2 0.1-0.3-0.1-0.4-0.2 -0.2-0.2-0.1-0.3 0-0.5C54.8 91.4 55.2 91.6 55.3 91.8L55.3 91.8zM56.6 92c0 0.2-0.2 0.4-0.4 0.5 -0.1-0.1-0.2 0-0.2-0.1 -0.2-0.1-0.3-0.2-0.3-0.4 0.1-0.1 0.2-0.3 0.3-0.3C56.3 91.7 56.6 91.7 56.6 92L56.6 92zM13.2 91.9c0 0.2-0.2 0.4-0.3 0.4 -0.2 0-0.3-0.1-0.4-0.3 -0.1-0.2 0.2-0.3 0.3-0.4C13 91.6 13 91.8 13.2 91.9L13.2 91.9zM14.7 92c-0.1 0.2-0.2 0.3-0.4 0.4 -0.2-0.1-0.3-0.1-0.4-0.3 0-0.2 0.2-0.3 0.3-0.4C14.4 91.7 14.6 91.8 14.7 92L14.7 92zM61.3 93.5c0.1 0.1 0.3 0.2 0.3 0.3 -0.3 0.2-0.6-0.2-0.9-0.3 -0.5-0.5-0.9-1.1-1.1-1.7 0.2-0.2 0.4 0.1 0.6 0.1C60.5 92.3 61 92.9 61.3 93.5L61.3 93.5zM62 92c0.1 0.2 0.1 0.3-0.1 0.5 -0.1 0.2-0.4 0.2-0.6 0.1 -0.1-0.1-0.3-0.3-0.2-0.5 0.1-0.2 0.3-0.2 0.4-0.3C61.8 91.8 61.9 92 62 92L62 92zM16.6 92.6c0 0.2 0.1 0.4-0.2 0.5 -0.2 0.1-0.4 0-0.5-0.3 -0.1-0.3 0.1-0.3 0.3-0.4C16.4 92.4 16.5 92.4 16.6 92.6L16.6 92.6zM56.6 94c0.3 0.4 0.5 1 0.5 1.5 -0.1 0.2 0.1 0.3 0 0.4H57c-1-0.7-1.2-1.6-1.5-2.6 -0.1-0.1-0.1-0.1-0.1-0.2 0.2-0.2 0.4 0.2 0.6 0.3L56.6 94 56.6 94zM19.4 93.3L19.4 93.3c-0.8 0.7-2 1-3 0.4 0-0.1 0-0.2 0.1-0.2 0.6-0.2 1.2-0.5 1.9-0.4L19.4 93.3 19.4 93.3zM14.6 93.4c-0.7 0.4-1.4 1.3-2.3 1.5 -0.2 0.1-0.3 0.3-0.5 0.2 0.4-1.1 1.6-1.8 2.8-1.9V93.4L14.6 93.4zM55.3 94.3c0.1 0.2 0 0.4-0.2 0.4 -0.1 0.1-0.3 0.1-0.4 0 -0.2-0.1-0.2-0.3-0.2-0.4 0.1-0.2 0.2-0.2 0.3-0.2C55.1 94.1 55.2 94.1 55.3 94.3L55.3 94.3zM53.6 94.4c-0.1 0.3-0.5 0.5-0.8 0.5 -0.7 0.3-1.4-0.1-2-0.3 0-0.2 0.2-0.1 0.3-0.2 0.7-0.2 1.4-0.3 2.2-0.1C53.4 94.3 53.5 94.3 53.6 94.4L53.6 94.4zM14.6 95.1c-0.1 0.1-0.1 0.3-0.3 0.3s-0.3 0-0.4-0.1c-0.1-0.1-0.2-0.2-0.1-0.4 0.1-0.2 0.2-0.2 0.3-0.2C14.4 94.7 14.5 94.8 14.6 95.1L14.6 95.1zM15.8 95.2c-0.1 0.1-0.1 0.3-0.3 0.4 -0.2 0.1-0.3-0.1-0.4-0.2 -0.1-0.1-0.1-0.3-0.1-0.4 0.1-0.1 0.2-0.1 0.3-0.2C15.5 94.8 15.7 95.1 15.8 95.2L15.8 95.2zM55 95.4c0 0.2-0.1 0.3-0.2 0.4C54.7 96 54.5 96 54.3 96c-0.2 0-0.2-0.2-0.3-0.3 -0.1-0.2 0.1-0.3 0.2-0.4C54.5 95 54.9 95.1 55 95.4L55 95.4zM55.9 95.4c0 0.1 0.1 0.2 0.1 0.3 -0.1 0.1-0.2 0.4-0.5 0.3 -0.1 0.1-0.2-0.1-0.3-0.2 -0.1-0.2 0-0.5 0.3-0.6C55.7 95.2 55.8 95.3 55.9 95.4L55.9 95.4zM15.1 96c0.1 0.2-0.1 0.4-0.2 0.6 -0.2 0.1-0.5 0.1-0.6-0.2 0-0.2 0-0.5 0.3-0.6C14.7 95.7 14.9 95.8 15.1 96L15.1 96zM16.3 95.9c-0.1 0.6-0.2 1.3-0.8 1.7 -0.3 0.1-0.7 0.4-1 0.2v-0.1C14.9 97 15.7 96.5 16.3 95.9L16.3 95.9zM51.6 96.4c0.1 0.1-0.1 0.2-0.1 0.3 -0.1 0.2-0.4 0.1-0.5 0 -0.2-0.1-0.2-0.3-0.1-0.4 0.1-0.1 0.2-0.2 0.3-0.2C51.3 96.1 51.5 96.3 51.6 96.4L51.6 96.4zM18.4 97.4c0.3 0.5 0.1 1.1 0.3 1.7 -0.4 0.1-0.5-0.4-0.8-0.6 -0.5-0.7-0.4-1.5-0.6-2.2 0.1-0.1 0.1-0.1 0.2-0.1 0.3 0.2 0.5 0.6 0.8 0.9C18.3 97.3 18.4 97.3 18.4 97.4L18.4 97.4zM52.7 96.6c0 0.2-0.2 0.2-0.3 0.3 -0.2 0-0.3-0.1-0.4-0.2 -0.1-0.2 0.1-0.3 0.2-0.4C52.4 96.2 52.6 96.4 52.7 96.6L52.7 96.6zM55.2 98.5c0 0.1 0 0.2-0.1 0.2H55c-0.6-0.5-1.3-1.2-1.1-2h0.1C54.5 97.1 55.2 97.7 55.2 98.5L55.2 98.5zM53.6 97.8c0 0.2-0.1 0.3-0.2 0.4 -0.2 0.1-0.6 0.1-0.7-0.3 0-0.2 0.2-0.3 0.3-0.4C53.3 97.4 53.5 97.7 53.6 97.8L53.6 97.8zM52.2 98.3c-0.3 0.8-1.1 1.2-1.7 1.8 -0.1-0.1-0.1-0.2-0.1-0.3 0.2-0.8 0.9-1.6 1.6-2C52.5 97.9 52.1 98.1 52.2 98.3L52.2 98.3zM53.8 98.9c0 0.2-0.2 0.3-0.3 0.4 -0.2 0-0.3-0.1-0.5-0.2 0-0.2 0.2-0.3 0.3-0.4C53.5 98.6 53.7 98.7 53.8 98.9L53.8 98.9zM27.8 94c-0.2 0.1-0.3 0.2-0.3 0.4l0.3 1.1c0.1 0.2 0.1 0.5-0.1 0.8 -0.2 0.2-0.5 0.4-0.8 0.4 -0.2 0.1-0.6 0.1-0.9 0 -0.2-0.1-0.3-0.2-0.4-0.6l-0.3-1.2c-0.1-0.3-0.2-0.3-0.4-0.2v-0.1l1.4-0.3v0.1c-0.3 0.1-0.4 0.1-0.3 0.4l0.3 1.2c0.1 0.2 0.2 0.7 0.8 0.5 0.8-0.2 0.6-0.7 0.5-1l-0.3-1.1c-0.1-0.2-0.1-0.3-0.5-0.3v-0.1l1-0.2V94L27.8 94zM29.9 94.2c-0.1-0.2-0.5-0.6-1-0.5 -0.2 0.1-0.4 0.2-0.4 0.4 0.1 0.2 0.2 0.3 0.5 0.3l0.7 0.1c0.2 0.1 0.5 0.2 0.6 0.5 0.1 0.3-0.1 0.8-0.9 1 -0.4 0.1-0.6 0-0.8 0.1 -0.1 0-0.1 0.1-0.1 0.2l-0.1 0.1 -0.2-0.9 0.1-0.1c0.2 0.3 0.5 0.7 1 0.5 0.5-0.1 0.4-0.5 0.4-0.5 -0.1-0.2-0.3-0.3-0.6-0.3L29 95.1c-0.8-0.1-0.9-0.4-0.9-0.6 -0.1-0.2 0-0.7 0.8-0.9 0.3-0.1 0.5 0 0.7-0.1 0.1 0 0.1-0.1 0.1-0.2l0.1-0.1L30 94 29.9 94.2 29.9 94.2zM32.7 95.6l-1.5 0.2v-0.1c0.3-0.1 0.4-0.1 0.4-0.4l-0.2-1.9c-0.3 0.1-0.8 0.1-0.8 0.7h-0.1l-0.2-0.8L33 93l0.1 0.7h-0.1c-0.2-0.6-0.6-0.5-0.9-0.5l0.2 1.9c0.1 0.3 0.1 0.3 0.4 0.3L32.7 95.6 32.7 95.6zM36.3 95.6h-0.9l-0.9-1.2h-0.1v0.7c0 0.3 0.1 0.3 0.4 0.3v0.1l-1.5-0.1v-0.1c0.3 0 0.4-0.1 0.4-0.3l0.1-1.6c0-0.3-0.1-0.3-0.4-0.3V93l1.4 0.1c0.3 0 1.3 0.1 1.2 0.7 0 0.4-0.4 0.5-0.7 0.6l0.9 1c0.1 0.1 0.1 0.1 0.2 0.1L36.3 95.6 36.3 95.6zM34.5 94.3c0.5 0 0.8-0.1 0.8-0.5 0-0.4-0.2-0.5-0.5-0.5 -0.2 0-0.3 0.1-0.3 0.2L34.5 94.3 34.5 94.3zM39.2 96l-1.4-0.2v-0.1c0.3 0 0.3 0 0.4-0.1 0-0.1-0.1-0.4-0.2-0.5L37 95c-0.2 0.2-0.2 0.4-0.3 0.4 0 0.2 0.2 0.2 0.3 0.2v0.1l-0.9-0.1v-0.1c0.2 0 0.3-0.1 0.5-0.4l1.2-1.8H38l0.7 2c0.2 0.4 0.2 0.5 0.4 0.5L39.2 96 39.2 96zM38 94.9L37.7 94l-0.5 0.8L38 94.9 38 94.9zM41.7 96.5L39.2 96v-0.1c0.2 0 0.4 0.1 0.4-0.2L40 94c0.1-0.2-0.1-0.3-0.3-0.3v-0.1l1.5 0.3V94c-0.3-0.1-0.4-0.1-0.5 0.3l-0.3 1.7c-0.1 0.2 0.1 0.2 0.3 0.3 0.7 0.1 0.9-0.1 1.2-0.5H42L41.7 96.5 41.7 96.5zM43.4 96.8l-1.5-0.3v-0.1c0.2 0.1 0.4 0.1 0.4-0.2l0.4-1.7c0.1-0.2-0.2-0.3-0.3-0.3v-0.1l1.5 0.3v0.1c-0.2-0.1-0.4-0.1-0.4 0.2L43 96.4c-0.1 0.2 0.1 0.3 0.3 0.3L43.4 96.8 43.4 96.8zM46.4 97.2L45 97.1V97c0.3 0 0.3 0 0.4-0.1 0-0.1-0.1-0.4-0.2-0.5l-1-0.1C44 96.5 44 96.6 44 96.7c0 0.2 0.2 0.2 0.3 0.2V97l-0.9-0.1v-0.1c0.2 0 0.3-0.1 0.5-0.4l1.1-1.9h0.1l0.8 2c0.2 0.4 0.2 0.5 0.4 0.5L46.4 97.2 46.4 97.2zM45.1 96.2l-0.3-0.9 -0.5 0.8L45.1 96.2 45.1 96.2zM4.2 90.9c0.2 0 0.4-0.2 0.4-0.4s-0.2-0.4-0.4-0.4 -0.4 0.2-0.4 0.4C3.8 90.7 4 90.9 4.2 90.9L4.2 90.9zM17.5 93.9L17.5 93.9 17.5 93.9 17.5 93.9 17.5 93.9C17.5 93.9 17.5 93.9 17.5 93.9L17.5 93.9 17.5 93.9 17.5 93.9 17.5 93.9 17.5 93.9 17.5 93.9 17.5 93.9 17.5 93.9 17.5 93.9C17.5 93.8 17.5 93.8 17.5 93.9L17.5 93.9 17.5 93.9 17.5 93.9 17.5 93.9zM17.5 93.8C17.5 93.8 17.5 93.8 17.5 93.8 17.5 93.8 17.5 93.8 17.5 93.8L17.5 93.8 17.5 93.8 17.5 93.8zM17.6 93.8L17.6 93.8C17.6 93.8 17.5 93.8 17.6 93.8 17.5 93.8 17.5 93.8 17.6 93.8L17.6 93.8C17.6 93.8 17.6 93.9 17.6 93.8 17.6 93.9 17.6 93.9 17.6 93.8 17.5 93.9 17.5 93.9 17.6 93.8 17.5 93.9 17.5 93.9 17.6 93.8L17.6 93.8 17.6 93.8 17.6 93.8C17.5 93.9 17.5 93.9 17.6 93.8 17.6 93.9 17.6 93.9 17.6 93.8 17.6 93.9 17.6 93.9 17.6 93.8L17.6 93.8C17.5 93.8 17.5 93.8 17.6 93.8 17.5 93.8 17.5 93.8 17.6 93.8L17.6 93.8 17.6 93.8 17.6 93.8 17.6 93.8 17.6 93.8 17.6 93.8zM17.7 93.8C17.7 93.8 17.7 93.8 17.7 93.8L17.7 93.8 17.7 93.8 17.7 93.8 17.7 93.8 17.7 93.8 17.7 93.8 17.7 93.8 17.7 93.8 17.7 93.8 17.7 93.8 17.7 93.8 17.7 93.8 17.7 93.8 17.7 93.8 17.7 93.8 17.7 93.8 17.7 93.8 17.7 93.8 17.7 93.8 17.7 93.8 17.7 93.8C17.7 93.8 17.7 93.8 17.7 93.8 17.7 93.8 17.7 93.8 17.7 93.8L17.7 93.8 17.7 93.8 17.7 93.8C17.7 93.8 17.7 93.8 17.7 93.8 17.7 93.8 17.7 93.8 17.7 93.8L17.7 93.8 17.7 93.8 17.7 93.8 17.7 93.8zM17.7 93.9L17.7 93.9 17.7 93.9 17.7 93.9 17.7 93.9C17.7 93.8 17.7 93.8 17.7 93.9c0.1-0.1 0.1-0.1 0.1 0C17.8 93.9 17.7 93.9 17.7 93.9L17.7 93.9 17.7 93.9zM17.7 93.9C17.7 93.9 17.7 93.8 17.7 93.9 17.7 93.8 17.7 93.8 17.7 93.9 17.7 93.8 17.7 93.8 17.7 93.9 17.7 93.8 17.7 93.8 17.7 93.9 17.7 93.8 17.7 93.9 17.7 93.9L17.7 93.9zM17.8 93.8L17.8 93.8C17.8 93.8 17.8 93.8 17.8 93.8 17.8 93.9 17.8 93.9 17.8 93.8 17.8 93.9 17.8 93.9 17.8 93.8 17.8 93.9 17.8 93.9 17.8 93.8 17.8 93.9 17.8 93.9 17.8 93.8 17.8 93.9 17.8 93.9 17.8 93.8 17.8 93.9 17.8 93.9 17.8 93.8L17.8 93.8 17.8 93.8 17.8 93.8 17.8 93.8 17.8 93.8 17.8 93.8 17.8 93.8zM25.4 97.1L24 97.3v-0.1c0.3-0.1 0.3-0.1 0.3-0.2s-0.2-0.3-0.3-0.4l-1 0.1c-0.1 0.3-0.2 0.4-0.2 0.5 0 0.2 0.2 0.1 0.4 0.1v0.1l-0.9 0.1v-0.1c0.2-0.1 0.3-0.2 0.4-0.5l0.7-2.1h0.1l1.2 1.8c0.2 0.4 0.3 0.5 0.5 0.4L25.4 97.1 25.4 97.1zM24 96.4l-0.5-0.8 -0.3 0.9L24 96.4 24 96.4zM50 91.8c-0.3-0.7-0.8-1.1-1.5-1.3 -0.7-0.2-1.4-0.1-1.8 0.5 -0.8 0.6-0.2 1.6-0.2 2.5 0 0.2 0 0.3-0.2 0.4 -3.1-0.3-6-1-9-1.4 -0.7-0.1-1.4-0.1-2.1-0.2l-0.9-0.1c-2.7 0.1-5.3 0.2-7.8 0.9 -0.5 0.2-1.1 0.2-1.7 0.4 -0.4-0.1-0.7 0.2-1.1 0.1L23 93.7c-0.1 0-0.2 0-0.2 0 -0.3-0.9 0.7-1.4 0.4-2.3 -0.3-0.5-0.8-1-1.5-0.9 -0.7-0.1-1.4 0.3-1.7 0.9 -0.5 1.1 0.1 2.2 0.3 3.3 -0.1 0.3 0.3 0.7 0 1 -0.7-0.5-1.6-0.7-2.4-0.5 -0.3 0.1-0.7-0.1-0.9 0.3 0.9 0.5 2.1 0.4 3.1 0.4 0.1-0.1 0.2-0.1 0.3 0 0.1 0.5-0.1 1.3 0.2 1.8 0.4 0.5 1 0.7 1.6 0.7 2-0.1 3.7-0.7 5.5-1.1 0.3 0 0.5-0.2 0.8-0.2 1-0.2 2-0.4 3-0.4 -0.4 0.6-0.7 1.3-0.9 2 -0.3 0.6 0.4 0.7 0.7 1 -0.7 0.2-1.1 0.7-1.7 0.9 -1.4-0.1-2.5 0.5-3.8 0.6 0 0.3 0.4 0.2 0.5 0.5 -0.1 0.2-0.3 0.2-0.4 0.3 0 0.1 0 0.2 0.1 0.2 0.1-0.2 0.4-0.1 0.5-0.2 0.4 0 0.8-0.1 1.2-0.2 0.4-0.2 0.8-0.2 1.1-0.4 0.4-0.1 0.7-0.4 1.2-0.5 0.7 0 1.2-0.2 1.8-0.3v0.1c-0.5 0.8-1 1.6-1.5 2.3 -0.1 0.2 0 0.3 0.2 0.3 0.3 0.1 0.6 0 0.8-0.1 0.4-0.8 0.9-1.5 1.2-2.3 0.2-0.7 0.7-1.1 1.2-1.6 0.1-0.1 0.2-0.2 0.3-0.1 -0.4 0.5-0.7 1-1 1.5 -0.2 0.6-0.2 1.4 0.3 1.8 0.3 0.2 0.7 0.2 1 0.2 0.8-0.4 1.9 0.3 2.6-0.5 0.4-0.1 0.4 0.4 0.7 0.6 0.4 0.1 0.8 0.5 1.1 0.2 0-0.2-0.3-0.4-0.4-0.7 -0.3-0.4-0.6-0.8-0.8-1.3 -0.1-0.3-0.3-0.5-0.3-0.8 0.4 0.1 0.7 0.4 1.1 0.4 0.4 0.2 0.8 0.1 1.1 0.3 0.3 0.4 0.7 0.6 1.1 0.8 0.5 0.3 1.1 0.3 1.7 0.5 0.2 0 0.5 0.2 0.7 0 -0.1-0.1-0.2-0.2-0.3-0.2 -0.1-0.3 0.4-0.1 0.5-0.3 -0.1-0.1-0.2-0.2-0.3-0.2 -0.3-0.2-1.1-0.2-1.3-0.3 -0.3-0.1-0.5-0.2-0.8-0.2 -1.3 0-2-1.1-3-1.6 0.2-0.2 0.6-0.4 0.8-0.7 0.2-0.3 0.3-0.8 0.1-1.1 -0.2-0.7-1-0.6-1.5-0.9l0.1-0.1c0.8-0.1 1.6 0.2 2.3 0.3 2.1 0.3 4 1 6.1 1.1 1.2 0 2.7 0.1 3.2-1.1 0.1-0.7 0.2-1.3 0.3-2C49.4 94 50.1 93 50 91.8L50 91.8zM27 101.6l-0.3-0.3c0.2-0.2 0.5-0.1 0.7-0.2 0.5-0.2 1.2-0.4 1.8-0.3C28.6 101.4 27.8 101.4 27 101.6L27 101.6zM40.3 101.2c0.5 0.2 1.5 0.4 2.3 0.5 -0.1 0.3-0.6 0-0.5 0.4 -0.7-0.3-1.4-0.4-1.9-0.9C40.2 101.3 40.2 101.2 40.3 101.2L40.3 101.2zM20.3 92.1c0.1-0.4 0.2-0.8 0.5-1.1 0.5-0.3 1.2-0.2 1.7 0.1 0.2 0.1 0.3 0.2 0.3 0.4 0.1 0.4-0.1 0.8-0.3 1h-0.2c0-0.3 0-0.7 0.1-1 0-0.3-0.2-0.3-0.4-0.4 -0.4-0.1-0.7 0.1-1 0.2 -0.2 0.3-0.4 0.6-0.3 0.9 0.2 0.2 0 0.5 0.1 0.8l-0.1 0.1C20.6 92.9 20.3 92.6 20.3 92.1L20.3 92.1zM21.3 92.7c0.3 0.2 0.8 0.1 1.1 0.2 0.1 0.2 0.1 0.5-0.1 0.7 -0.4-0.1-0.8-0.1-1-0.4C21.4 93.1 21.3 92.9 21.3 92.7L21.3 92.7zM21.3 92c0.1-0.2 0-0.4 0.2-0.5 0.2-0.1 0.4-0.1 0.4 0.1 0 0.3-0.1 0.5-0.1 0.8C21.5 92.4 21.4 92.3 21.3 92L21.3 92zM31.3 98.9c-0.1-0.8 0.2-1.4 0.7-2 0.3-0.1 0.7-0.1 0.9 0.1 -0.5 0.2-1.3 0.3-1.4 1 0 0.3-0.1 0.4 0.1 0.7 0.2 0.4 0.8 0.2 1.1 0.5 0 0.1-0.1 0.2-0.2 0.3C32 99.3 31.6 99.2 31.3 98.9L31.3 98.9zM30.5 100.4c0.5-0.2 1-0.7 1.6-0.5C31.7 100.2 31 100.4 30.5 100.4L30.5 100.4zM32.5 100.6c-0.3 0.7-0.7 1.4-1 2 -0.1 0.1-0.2 0.1-0.3 0.2 0-0.3 0.3-0.5 0.4-0.8 0.4-0.6 0.6-1.2 1.1-1.7C32.8 100.3 32.5 100.4 32.5 100.6L32.5 100.6zM33.1 99.3v0.1H33L33.1 99.3 33.1 99.3 33.1 99.3C33.1 99.3 33 99.3 33.1 99.3L33.1 99.3 33.1 99.3zM32.8 98.7c-0.4-0.1-0.7-0.2-1-0.3 -0.2-0.2 0-0.4 0-0.7 0.3-0.5 1.1-0.7 1.6-0.3C33.3 98 33.2 98.4 32.8 98.7L32.8 98.7zM33.3 98.7c0.1-0.3 0.2-0.7 0.3-0.9C33.7 98.2 33.5 98.5 33.3 98.7L33.3 98.7zM33.5 97c-0.3-0.1-0.4-0.4-0.7-0.4 0.3-0.1 0.5-0.1 0.8 0C33.8 96.8 33.6 96.9 33.5 97L33.5 97zM33.8 97.7L33.8 97.7v-0.2l0 0V97.7L33.8 97.7zM33.8 98.7c0-0.1 0.1-0.2 0.1-0.3 0.1-0.1 0.2 0.1 0.3 0.2C34.1 98.6 34 98.7 33.8 98.7L33.8 98.7zM34.1 97.3c0.1-0.3 0.1-0.5 0.3-0.8 0.2 0 0.4 0 0.6 0.1 0.1 0.4 0.6 1 0 1.4 -0.2 0.1-0.5 0.3-0.7 0.1C34.1 97.9 34 97.7 34.1 97.3L34.1 97.3zM35.7 96.7c-0.1-0.2 0.2-0.1 0.3-0.1l0.7 0.1C36.3 96.6 35.9 97.4 35.7 96.7L35.7 96.7zM36.8 97c-0.3 0.1-0.4 0.4-0.7 0.4C36.2 97.2 36.5 97 36.8 97L36.8 97zM35.9 98.4L35.9 98.4 35.9 98.4 35.9 98.4 35.9 98.4 35.9 98.4zM35.9 99.7c0 0.1 0 0.1-0.1 0.2l-0.5-0.4C35.6 99.4 35.8 99.5 35.9 99.7L35.9 99.7zM35.3 99c0.1-0.1 0.2-0.1 0.2 0H35.3L35.3 99zM35.1 98.7c0.1-0.1 0.2-0.3 0.3-0.3 0 0 0 0.1 0.1 0.1C35.3 98.5 35.2 98.6 35.1 98.7L35.1 98.7zM34.6 98.6h-0.1l0.1-0.1C34.7 98.5 34.6 98.6 34.6 98.6L34.6 98.6zM34.6 99.5c0.3-0.3 0.5 0.2 0.7 0.4 0.3 0.5 1.1 0.9 0.8 1.5 -0.4 0.4-1 0-1.5 0.3 -0.2 0-0.7 0.1-0.8-0.2C34.1 100.8 34.3 100.1 34.6 99.5L34.6 99.5zM34 99.8l0.1-0.2c-0.2 0.5-0.4 1-0.7 1.5C33.3 100.7 33.8 100.3 34 99.8L34 99.8zM35 102.4c-0.4 0-1 0.3-1.4-0.1 0-0.2-0.2-0.3-0.2-0.4 0.3-0.1 0.7 0.3 1 0 0.5 0 1-0.1 1.5 0.1 0.2 0.1 0.6-0.4 0.7 0.1C36.3 102.7 35.5 102.2 35 102.4L35 102.4zM36.2 99.3L36.2 99.3 36.2 99.3 36.2 99.3 36.2 99.3 36.2 99.3zM36.3 100.7c0 0.2 0.2 0.3 0.1 0.5C36.4 101.1 36.3 100.9 36.3 100.7L36.3 100.7zM36.9 102l-0.1 0.1c-0.1-0.1-0.1-0.3-0.1-0.4C36.9 101.6 37 101.8 36.9 102L36.9 102zM38 102.4c0 0.1-0.1 0.1-0.2 0 -0.7-0.8-0.9-1.7-1.4-2.6h0.1C37.1 100.7 37.5 101.6 38 102.4L38 102.4zM38.8 100.5c-0.1 0-0.1 0.1-0.1 0.1 -0.6 0-1-0.3-1.5-0.7v-0.1C37.8 99.8 38.3 100.2 38.8 100.5L38.8 100.5zM38.2 97.7c0.3 0.1 0.3 0.3 0.3 0.5 0 0.5-0.3 0.9-0.7 1 -0.2 0.1-0.6 0.2-0.8 0.1 0.5 0 1.1-0.2 1.3-0.7L38.2 97.7 38.2 97.7zM37.8 97.6c0.1 0.3 0.3 0.6 0.2 0.9 -0.2 0.4-0.7 0.4-1 0.5 -0.2 0-0.3-0.1-0.5-0.2 0-0.1 0-0.2-0.1-0.2 0.1-0.3-0.5-0.5-0.1-0.8C36.6 97.5 37.4 96.8 37.8 97.6L37.8 97.6zM48.6 96c-0.2 0.2 0 0.5-0.2 0.8 0 0.4-0.3 0.6-0.6 0.7 -2.6 0.5-5.1-0.3-7.5-0.7 -3.4-0.8-7.4-1-10.9-0.2 -1.6 0.3-3.3 0.7-4.8 1.1 -1 0.1-2.1 0.3-3 0 -0.8-0.4-0.4-1.4-0.7-2.1 0.1-0.5-0.2-1-0.2-1.5 -0.1-0.2-0.1-0.4-0.1-0.5 0.3 0.1 0.7 0.3 1 0.4 1.8 0.3 3.4-0.2 5.1-0.5 1.6-0.3 3.3-0.6 4.9-0.8 1.9 0 3.9-0.1 5.7 0.2 0.6 0 1.1 0.2 1.7 0.2 1.2 0.2 2.3 0.5 3.5 0.5 0.2 0.1 0.4 0.1 0.7 0.1 1.9 0.3 4.1 0.8 5.9 0C49 94.5 48.7 95.2 48.6 96L48.6 96zM48 93.4c0 0.3-0.3 0.3-0.5 0.4H47c-0.1-0.2-0.1-0.4-0.1-0.6C47.3 93.2 47.7 93.2 48 93.4L48 93.4zM47.7 92.8c0.2-0.2-0.1-1.6 0.6-0.7 0 0.2 0 0.4-0.2 0.5C48.1 92.8 47.9 92.9 47.7 92.8L47.7 92.8zM49.5 92.6c-0.2 0.4-0.5 0.7-0.9 0.7 0-0.5 0.5-0.9 0.3-1.5 -0.3-0.4-0.8-0.5-1.4-0.4 -0.2 0.1-0.1 0.3-0.2 0.5l-0.1 0.7c-0.4 0-0.4-0.4-0.6-0.7 0-0.4 0.2-0.9 0.7-1.1 0.3-0.2 0.9-0.2 1.3 0.1 0.3 0.1 0.6 0.2 0.7 0.4C49.6 91.7 49.5 92.2 49.5 92.6L49.5 92.6z"/><rect x="76.2" y="84.3" width="178.6" height="0.6"/><path d="M75.1 100.1v-0.2h0.3c0.3 0 0.4-0.1 0.6-0.1 0.1-0.1 0.2-0.2 0.3-0.3 0.1-0.1 0.1-0.4 0.1-0.8v-5.9c0-0.4 0-0.8-0.1-0.9 -0.1-0.1-0.2-0.2-0.3-0.3 -0.2-0.1-0.3-0.1-0.6-0.1h-0.3v-0.2H79c1 0 1.8 0.2 2.5 0.4 0.8 0.3 1.4 0.9 1.7 1.6s0.6 1.5 0.6 2.4c0 0.6-0.1 1.2-0.3 1.7 -0.2 0.5-0.4 1-0.8 1.3 -0.3 0.3-0.7 0.6-1.1 0.8 -0.4 0.2-0.9 0.4-1.5 0.5 -0.3 0.1-0.7 0.1-1.3 0.1L75.1 100.1 75.1 100.1zM78.4 91.7v6.9c0 0.4 0 0.6 0.1 0.7 0.1 0.1 0.1 0.2 0.2 0.2 0.1 0.1 0.3 0.1 0.5 0.1 0.7 0 1.3-0.3 1.6-0.8 0.5-0.7 0.8-1.7 0.8-3.1 0-1.1-0.2-2.1-0.5-2.7 -0.3-0.5-0.7-0.9-1.1-1.1C79.6 91.8 79.1 91.7 78.4 91.7zM89.9 96.8h-3.3c0.1 0.8 0.3 1.5 0.7 1.9 0.3 0.4 0.7 0.5 1.1 0.5 0.3 0 0.5-0.1 0.7-0.2 0.2-0.2 0.4-0.4 0.7-0.8l0.2 0.2c-0.3 0.7-0.7 1.1-1.1 1.4 -0.4 0.3-0.9 0.4-1.4 0.4 -0.9 0-1.6-0.3-2-1 -0.4-0.5-0.5-1.3-0.5-2.1 0-1 0.3-1.8 0.8-2.4 0.5-0.6 1.2-0.9 1.9-0.9 0.6 0 1.1 0.3 1.6 0.8C89.6 95.1 89.9 95.8 89.9 96.8zM88.3 96.4c0-0.7-0.1-1.2-0.1-1.5 -0.1-0.3-0.2-0.4-0.3-0.6 -0.1-0.1-0.2-0.1-0.4-0.1 -0.2 0-0.4 0.1-0.5 0.3 -0.3 0.4-0.4 0.9-0.4 1.6v0.2L88.3 96.4 88.3 96.4zM93 99.5v2.3c0 0.3 0 0.5 0.1 0.7 0.1 0.1 0.1 0.2 0.2 0.3 0.1 0.1 0.3 0.1 0.6 0.1v0.2h-3.4v-0.2c0.3 0 0.4-0.1 0.6-0.2 0.1-0.1 0.1-0.4 0.1-0.8v-6.5c0-0.4-0.1-0.7-0.2-0.8 -0.1-0.1-0.3-0.2-0.5-0.2V94h2.5v0.8c0.2-0.3 0.4-0.5 0.7-0.7 0.3-0.2 0.7-0.3 1-0.3 0.4 0 0.8 0.2 1.2 0.4 0.4 0.3 0.7 0.7 0.8 1.2 0.2 0.5 0.3 1 0.3 1.6s-0.1 1.2-0.3 1.7c-0.2 0.5-0.5 0.9-0.9 1.2 -0.4 0.3-0.8 0.4-1.3 0.4 -0.3 0-0.7-0.1-0.9-0.2C93.4 99.9 93.2 99.7 93 99.5zM93 98.8c0.4 0.5 0.8 0.8 1.2 0.8 0.2 0 0.4-0.1 0.5-0.4 0.2-0.4 0.3-1.1 0.3-2.1 0-1-0.1-1.8-0.4-2.2 -0.2-0.3-0.4-0.4-0.7-0.4 -0.4 0-0.8 0.3-1.1 1L93 98.8 93 98.8zM101.2 99.2c-0.7 0.7-1.4 1-2 1 -0.3 0-0.7-0.1-0.9-0.3 -0.2-0.2-0.3-0.5-0.3-0.9 0-0.5 0.2-0.9 0.6-1.3 0.4-0.4 1.3-0.9 2.6-1.5v-0.6c0-0.5 0-0.8-0.1-0.9 -0.1-0.1-0.2-0.2-0.3-0.3 -0.2-0.1-0.3-0.1-0.4-0.1 -0.3 0-0.5 0.1-0.7 0.2 -0.1 0.1-0.2 0.2-0.2 0.3 0 0.1 0.1 0.2 0.2 0.3 0.2 0.2 0.2 0.4 0.2 0.5 0 0.2-0.1 0.4-0.2 0.5 -0.2 0.2-0.4 0.2-0.6 0.2 -0.3 0-0.5-0.1-0.7-0.3s-0.3-0.4-0.3-0.6c0-0.3 0.1-0.6 0.4-0.9 0.2-0.3 0.6-0.5 1-0.7 0.4-0.2 0.9-0.2 1.4-0.2 0.5 0 1 0.1 1.4 0.4 0.3 0.3 0.5 0.5 0.7 0.8 0.1 0.2 0.1 0.6 0.1 1.3v2.4c0 0.3 0 0.4 0.1 0.5 0 0.1 0.1 0.1 0.1 0.2 0.1 0.1 0.1 0.1 0.2 0.1 0.1 0 0.2-0.1 0.3-0.2l0.2 0.2c-0.2 0.3-0.4 0.5-0.7 0.7s-0.5 0.2-0.8 0.2c-0.3 0-0.6-0.1-0.8-0.2C101.4 99.7 101.3 99.5 101.2 99.2zM101.2 98.7v-2.1c-0.5 0.3-0.9 0.7-1.1 1 -0.2 0.2-0.3 0.5-0.3 0.7 0 0.2 0.1 0.4 0.2 0.5 0.1 0.1 0.3 0.2 0.4 0.2C100.7 99.1 100.9 99 101.2 98.7zM106.9 94v1.4c0.4-0.7 0.8-1 1-1.3 0.3-0.2 0.6-0.3 0.9-0.3 0.2 0 0.4 0.1 0.6 0.2s0.2 0.4 0.2 0.7c0 0.3-0.1 0.5-0.2 0.7 -0.2 0.2-0.3 0.2-0.5 0.2 -0.2 0-0.4-0.1-0.6-0.2s-0.3-0.2-0.3-0.3c-0.1 0-0.1-0.1-0.2-0.1 -0.1 0-0.2 0.1-0.3 0.2 -0.2 0.2-0.3 0.4-0.4 0.7 -0.2 0.4-0.2 0.9-0.2 1.4v1.4V99c0 0.3 0 0.4 0.1 0.5 0.1 0.1 0.1 0.2 0.2 0.3 0.1 0.1 0.3 0.1 0.5 0.1v0.2h-3.2v-0.2c0.3 0 0.4-0.1 0.5-0.2 0.1-0.1 0.2-0.4 0.2-1v-3.4c0-0.3 0-0.6-0.1-0.7 -0.1-0.1-0.1-0.2-0.2-0.3 -0.1-0.1-0.2-0.1-0.4-0.1V94L106.9 94 106.9 94zM112.6 91.7V94h1.4v0.7h-1.4v3.8c0 0.4 0 0.6 0.1 0.7 0.1 0.1 0.1 0.2 0.2 0.3 0.1 0.1 0.2 0.1 0.2 0.1 0.3 0 0.5-0.2 0.8-0.7l0.2 0.2c-0.3 0.8-0.9 1.3-1.7 1.3 -0.4 0-0.7-0.1-1-0.3 -0.3-0.2-0.4-0.4-0.5-0.7 -0.1-0.2-0.1-0.5-0.1-1.2v-3.3h-0.8v-0.3c0.5-0.4 1-0.8 1.4-1.2 0.4-0.4 0.7-0.9 1-1.4L112.6 91.7 112.6 91.7zM117.1 94v0.8c0.3-0.4 0.7-0.6 0.9-0.8 0.3-0.2 0.6-0.2 0.9-0.2 0.4 0 0.7 0.1 1 0.3 0.3 0.2 0.4 0.4 0.6 0.8 0.3-0.4 0.7-0.7 1-0.9 0.3-0.2 0.7-0.3 1-0.3 0.4 0 0.8 0.1 1 0.3 0.3 0.2 0.4 0.4 0.5 0.8 0.1 0.3 0.2 0.8 0.2 1.4v2.6c0 0.5 0.1 0.8 0.1 0.9 0.1 0.1 0.3 0.2 0.5 0.2v0.2h-3.1v-0.2c0.2 0 0.4-0.1 0.5-0.3 0.1-0.1 0.1-0.4 0.1-0.8v-2.6c0-0.5 0-0.9-0.1-1 -0.1-0.2-0.1-0.3-0.2-0.3 -0.1-0.1-0.2-0.1-0.3-0.1 -0.2 0-0.4 0.1-0.5 0.2 -0.2 0.2-0.4 0.3-0.5 0.6v3.3c0 0.4 0.1 0.7 0.1 0.8 0.1 0.2 0.3 0.3 0.5 0.3v0.2h-3.1v-0.2c0.2 0 0.3-0.1 0.4-0.1 0.1-0.1 0.2-0.2 0.2-0.3 0.1-0.1 0.1-0.3 0.1-0.7v-2.6c0-0.5 0-0.9-0.1-1 -0.1-0.2-0.1-0.3-0.2-0.3 -0.1-0.1-0.2-0.1-0.3-0.1 -0.2 0-0.3 0.1-0.5 0.2 -0.2 0.1-0.4 0.4-0.7 0.7v3.3c0 0.4 0.1 0.7 0.1 0.9 0.1 0.2 0.3 0.2 0.5 0.3v0.2h-3.1v-0.3c0.3 0 0.4-0.1 0.5-0.3 0.1-0.1 0.1-0.4 0.1-0.9v-3.4c0-0.5-0.1-0.8-0.1-0.9 -0.1-0.1-0.3-0.2-0.5-0.2V94H117.1zM130.6 96.8h-3.3c0.1 0.8 0.3 1.5 0.7 1.9 0.3 0.4 0.7 0.5 1.1 0.5 0.3 0 0.5-0.1 0.7-0.2 0.2-0.2 0.4-0.4 0.7-0.8l0.2 0.2c-0.3 0.7-0.7 1.1-1.1 1.4 -0.4 0.3-0.9 0.4-1.4 0.4 -0.9 0-1.6-0.3-2-1 -0.4-0.5-0.5-1.3-0.5-2.1 0-1 0.3-1.8 0.8-2.4 0.5-0.6 1.2-0.9 1.9-0.9 0.6 0 1.1 0.3 1.6 0.8C130.4 95.1 130.6 95.8 130.6 96.8zM129.1 96.4c0-0.7-0.1-1.2-0.1-1.5 -0.1-0.3-0.2-0.4-0.3-0.6 -0.1-0.1-0.2-0.1-0.4-0.1 -0.2 0-0.4 0.1-0.5 0.3 -0.3 0.4-0.4 0.9-0.4 1.6v0.2L129.1 96.4 129.1 96.4zM133.8 94v0.8c0.3-0.3 0.6-0.6 0.9-0.8s0.6-0.2 0.9-0.2c0.4 0 0.7 0.1 1 0.3 0.3 0.2 0.4 0.5 0.5 0.8 0.1 0.3 0.1 0.7 0.1 1.4v2.4c0 0.5 0.1 0.8 0.1 0.9 0.1 0.1 0.3 0.2 0.5 0.2v0.2h-3v-0.2c0.2-0.1 0.4-0.1 0.5-0.3 0.1-0.1 0.1-0.4 0.1-0.8V96c0-0.5 0-0.8-0.1-0.9s-0.1-0.2-0.2-0.3c-0.1-0.1-0.2-0.1-0.3-0.1 -0.4 0-0.7 0.3-1 0.8v3.3c0 0.4 0.1 0.8 0.1 0.9 0.1 0.1 0.2 0.2 0.5 0.2v0.2h-3v-0.2c0.3 0 0.4-0.1 0.5-0.3 0.1-0.1 0.1-0.4 0.1-0.9v-3.4c0-0.5-0.1-0.8-0.1-0.9 -0.1-0.1-0.3-0.2-0.5-0.2V94H133.8zM141.1 91.7V94h1.4v0.7h-1.4v3.8c0 0.4 0 0.6 0.1 0.7s0.1 0.2 0.2 0.3c0.1 0.1 0.2 0.1 0.2 0.1 0.3 0 0.5-0.2 0.8-0.7l0.2 0.2c-0.3 0.8-0.9 1.3-1.7 1.3 -0.4 0-0.7-0.1-1-0.3 -0.3-0.2-0.4-0.4-0.5-0.7 -0.1-0.2-0.1-0.5-0.1-1.2v-3.3h-0.8v-0.3c0.5-0.4 1-0.8 1.4-1.2 0.4-0.4 0.7-0.9 1-1.4L141.1 91.7 141.1 91.7zM149.2 93.8c0.5 0 1 0.2 1.5 0.4 0.4 0.3 0.8 0.7 1 1.2 0.2 0.5 0.3 1 0.3 1.7 0 0.9-0.2 1.6-0.7 2.2 -0.5 0.7-1.3 1-2.2 1 -0.9 0-1.6-0.3-2.1-1s-0.7-1.4-0.7-2.2c0-0.9 0.3-1.6 0.8-2.3C147.6 94.1 148.3 93.8 149.2 93.8zM149.2 94.2c-0.2 0-0.4 0.1-0.5 0.3 -0.2 0.2-0.3 0.5-0.3 1s-0.1 1.2-0.1 2.1c0 0.5 0.1 0.9 0.1 1.3 0.1 0.3 0.2 0.5 0.3 0.7 0.2 0.2 0.3 0.2 0.5 0.2 0.2 0 0.3-0.1 0.5-0.2 0.2-0.2 0.3-0.4 0.3-0.6 0.1-0.4 0.1-1.3 0.1-2.5 0-0.8-0.1-1.3-0.1-1.5 -0.1-0.3-0.2-0.5-0.4-0.6C149.5 94.3 149.4 94.2 149.2 94.2zM155.5 94.6v4.2c0 0.4 0.1 0.7 0.1 0.8 0.2 0.2 0.4 0.2 0.8 0.2v0.2h-3.5v-0.2c0.3 0 0.4-0.1 0.6-0.1 0.1-0.1 0.2-0.2 0.2-0.2 0.1-0.1 0.1-0.3 0.1-0.7v-4.2h-0.9V94h0.9v-0.4 -0.3c0-0.7 0.2-1.1 0.7-1.6 0.4-0.4 1-0.7 1.8-0.7 0.5 0 0.9 0.1 1.1 0.3 0.3 0.2 0.4 0.4 0.4 0.7s-0.1 0.4-0.2 0.5c-0.2 0.2-0.4 0.2-0.7 0.2 -0.2 0-0.4-0.1-0.5-0.2 -0.1-0.1-0.2-0.3-0.2-0.4 0-0.1 0-0.1 0.1-0.2 0-0.1 0-0.2 0-0.2 0-0.1 0-0.2-0.1-0.2s-0.2-0.1-0.3-0.1c-0.1 0-0.2 0.1-0.3 0.2 -0.1 0.1-0.1 0.3-0.1 0.5v1.1 0.8h0.9v0.7L155.5 94.6 155.5 94.6zM168.8 91v3.1h-0.3c-0.2-0.8-0.5-1.4-1-1.8 -0.5-0.4-1.1-0.7-1.7-0.7 -0.5 0-1 0.2-1.5 0.5 -0.4 0.3-0.8 0.8-1 1.3 -0.3 0.7-0.4 1.4-0.4 2.2 0 0.8 0.1 1.5 0.3 2.2 0.2 0.7 0.5 1.1 0.9 1.5 0.4 0.3 1 0.5 1.6 0.5 0.5 0 1-0.1 1.5-0.4 0.4-0.2 0.9-0.7 1.4-1.3v0.8c-0.5 0.5-1 0.9-1.5 1.1 -0.5 0.2-1.1 0.3-1.8 0.3 -0.9 0-1.7-0.2-2.4-0.5s-1.3-0.9-1.7-1.6c-0.4-0.7-0.6-1.5-0.6-2.3 0-0.9 0.2-1.6 0.7-2.4 0.4-0.8 1-1.4 1.7-1.7 0.8-0.4 1.5-0.7 2.3-0.7 0.6 0 1.3 0.1 2 0.4 0.4 0.2 0.7 0.2 0.8 0.2 0.2 0 0.3-0.1 0.4-0.2 0.1-0.1 0.2-0.3 0.2-0.5L168.8 91 168.8 91zM172.8 93.8c0.5 0 1 0.2 1.5 0.4 0.4 0.3 0.8 0.7 1 1.2 0.2 0.5 0.3 1 0.3 1.7 0 0.9-0.2 1.6-0.7 2.2 -0.5 0.7-1.3 1-2.2 1s-1.6-0.3-2.1-1c-0.5-0.7-0.7-1.4-0.7-2.2 0-0.9 0.3-1.6 0.8-2.3C171.3 94.1 171.9 93.8 172.8 93.8zM172.9 94.2c-0.2 0-0.4 0.1-0.5 0.3 -0.2 0.2-0.3 0.5-0.3 1s-0.1 1.2-0.1 2.1c0 0.5 0.1 0.9 0.1 1.3 0.1 0.3 0.2 0.5 0.3 0.7 0.2 0.2 0.3 0.2 0.5 0.2 0.2 0 0.3-0.1 0.5-0.2 0.2-0.2 0.3-0.4 0.3-0.6 0.1-0.4 0.1-1.3 0.1-2.5 0-0.8-0.1-1.3-0.1-1.5 -0.1-0.3-0.2-0.5-0.4-0.6S173 94.2 172.9 94.2zM179.1 94v0.8c0.3-0.4 0.7-0.6 0.9-0.8s0.6-0.2 0.9-0.2c0.4 0 0.7 0.1 1 0.3 0.3 0.2 0.4 0.4 0.6 0.8 0.3-0.4 0.7-0.7 1-0.9 0.3-0.2 0.7-0.3 1-0.3 0.4 0 0.8 0.1 1 0.3 0.3 0.2 0.4 0.4 0.5 0.8 0.1 0.3 0.2 0.8 0.2 1.4v2.6c0 0.5 0.1 0.8 0.1 0.9 0.1 0.1 0.3 0.2 0.5 0.2v0.2h-3.1v-0.2c0.2 0 0.4-0.1 0.5-0.3 0.1-0.1 0.1-0.4 0.1-0.8v-2.6c0-0.5 0-0.9-0.1-1 -0.1-0.2-0.1-0.3-0.2-0.3 -0.1-0.1-0.2-0.1-0.3-0.1 -0.2 0-0.4 0.1-0.5 0.2 -0.2 0.2-0.4 0.3-0.5 0.6v3.3c0 0.4 0.1 0.7 0.1 0.8 0.1 0.2 0.3 0.3 0.5 0.3v0.2h-3.1v-0.2c0.2 0 0.3-0.1 0.4-0.1 0.1-0.1 0.2-0.2 0.2-0.3 0.1-0.1 0.1-0.3 0.1-0.7v-2.6c0-0.5 0-0.9-0.1-1 -0.1-0.2-0.1-0.3-0.2-0.3 -0.1-0.1-0.2-0.1-0.3-0.1 -0.2 0-0.3 0.1-0.5 0.2 -0.2 0.1-0.4 0.4-0.7 0.7v3.3c0 0.4 0.1 0.7 0.1 0.9 0.1 0.2 0.3 0.2 0.5 0.3v0.2h-3.1v-0.3c0.3 0 0.4-0.1 0.5-0.3 0.1-0.1 0.1-0.4 0.1-0.9v-3.4c0-0.5-0.1-0.8-0.1-0.9 -0.1-0.1-0.3-0.2-0.5-0.2V94H179.1zM190 94v0.8c0.3-0.4 0.7-0.6 0.9-0.8 0.3-0.2 0.6-0.2 0.9-0.2 0.4 0 0.7 0.1 1 0.3 0.3 0.2 0.4 0.4 0.6 0.8 0.3-0.4 0.7-0.7 1-0.9 0.3-0.2 0.7-0.3 1-0.3 0.4 0 0.8 0.1 1 0.3 0.3 0.2 0.4 0.4 0.5 0.8 0.1 0.3 0.2 0.8 0.2 1.4v2.6c0 0.5 0.1 0.8 0.1 0.9 0.1 0.1 0.3 0.2 0.5 0.2v0.2h-3.1v-0.2c0.2 0 0.4-0.1 0.5-0.3 0.1-0.1 0.1-0.4 0.1-0.8v-2.6c0-0.5 0-0.9-0.1-1 -0.1-0.2-0.1-0.3-0.2-0.3 -0.1-0.1-0.2-0.1-0.3-0.1 -0.2 0-0.4 0.1-0.5 0.2 -0.2 0.2-0.4 0.3-0.5 0.6v3.3c0 0.4 0.1 0.7 0.1 0.8 0.1 0.2 0.3 0.3 0.5 0.3v0.2h-3.1v-0.2c0.2 0 0.3-0.1 0.4-0.1s0.2-0.2 0.2-0.3c0.1-0.1 0.1-0.3 0.1-0.7v-2.6c0-0.5 0-0.9-0.1-1 -0.1-0.2-0.1-0.3-0.2-0.3 -0.1-0.1-0.2-0.1-0.3-0.1 -0.2 0-0.3 0.1-0.5 0.2 -0.2 0.1-0.4 0.4-0.7 0.7v3.3c0 0.4 0.1 0.7 0.1 0.9 0.1 0.2 0.3 0.2 0.5 0.3v0.2h-3.1v-0.3c0.3 0 0.4-0.1 0.5-0.3 0.1-0.1 0.1-0.4 0.1-0.9v-3.4c0-0.5-0.1-0.8-0.1-0.9 -0.1-0.1-0.3-0.2-0.5-0.2V94H190zM204.2 94v4.8c0 0.5 0.1 0.8 0.1 0.9 0.1 0.1 0.3 0.2 0.5 0.2v0.2h-2.4v-0.8c-0.3 0.3-0.6 0.6-0.9 0.8s-0.6 0.2-1 0.2c-0.3 0-0.7-0.1-0.9-0.3 -0.3-0.2-0.4-0.4-0.5-0.8 -0.1-0.3-0.1-0.8-0.1-1.5v-2.4c0-0.5-0.1-0.8-0.1-0.9 -0.1-0.1-0.3-0.2-0.5-0.2v-0.2h2.4v4.2c0 0.4 0 0.7 0.1 0.8 0.1 0.1 0.1 0.2 0.2 0.3 0.1 0.1 0.2 0.1 0.3 0.1 0.2 0 0.3-0.1 0.4-0.1 0.2-0.1 0.4-0.3 0.6-0.7v-3.3c0-0.5-0.1-0.8-0.1-0.9 -0.1-0.1-0.3-0.2-0.5-0.2v-0.2L204.2 94 204.2 94zM208.2 94v0.8c0.3-0.3 0.6-0.6 0.9-0.8s0.6-0.2 0.9-0.2c0.4 0 0.7 0.1 1 0.3 0.3 0.2 0.4 0.5 0.5 0.8 0.1 0.3 0.1 0.7 0.1 1.4v2.4c0 0.5 0.1 0.8 0.1 0.9 0.1 0.1 0.3 0.2 0.5 0.2v0.2h-3v-0.2c0.2-0.1 0.4-0.1 0.5-0.3 0.1-0.1 0.1-0.4 0.1-0.8V96c0-0.5 0-0.8-0.1-0.9s-0.1-0.2-0.2-0.3c-0.1-0.1-0.2-0.1-0.3-0.1 -0.4 0-0.7 0.3-1 0.8v3.3c0 0.4 0.1 0.8 0.1 0.9 0.1 0.1 0.2 0.2 0.5 0.2v0.2h-3v-0.2c0.3 0 0.4-0.1 0.5-0.3 0.1-0.1 0.1-0.4 0.1-0.9v-3.4c0-0.5-0.1-0.8-0.1-0.9 -0.1-0.1-0.3-0.2-0.5-0.2V94H208.2zM215.3 94v4.8c0 0.4 0.1 0.7 0.2 0.8 0.1 0.1 0.3 0.2 0.6 0.2v0.2h-3.2v-0.2c0.3 0 0.4-0.1 0.6-0.2 0.1-0.1 0.1-0.4 0.1-0.8v-3.6c0-0.4-0.1-0.7-0.2-0.8 -0.1-0.1-0.3-0.2-0.5-0.2V94H215.3zM214.5 91c0.3 0 0.5 0.1 0.7 0.3 0.2 0.2 0.3 0.4 0.3 0.7 0 0.3-0.1 0.5-0.3 0.7 -0.2 0.2-0.4 0.3-0.7 0.3 -0.3 0-0.5-0.1-0.7-0.3 -0.2-0.2-0.3-0.4-0.3-0.7 0-0.3 0.1-0.5 0.3-0.7C213.9 91.1 214.2 91 214.5 91zM221.5 98.5l0.2 0.2c-0.3 0.5-0.7 0.9-1 1.2 -0.4 0.3-0.9 0.4-1.4 0.4 -0.8 0-1.4-0.3-1.9-0.9 -0.5-0.6-0.7-1.4-0.7-2.2 0-0.8 0.2-1.6 0.7-2.2 0.5-0.8 1.3-1.1 2.2-1.1 0.6 0 1.1 0.2 1.5 0.5s0.5 0.7 0.5 1.1c0 0.3-0.1 0.4-0.2 0.6 -0.2 0.2-0.3 0.2-0.6 0.2 -0.3 0-0.4-0.1-0.6-0.3 -0.2-0.2-0.3-0.5-0.3-0.9 0-0.3-0.1-0.5-0.2-0.6 -0.1-0.1-0.2-0.2-0.3-0.2 -0.2 0-0.4 0.1-0.5 0.3 -0.2 0.3-0.3 0.9-0.3 1.5 0 0.6 0.1 1.1 0.3 1.6 0.2 0.5 0.4 0.9 0.8 1.2 0.2 0.2 0.5 0.3 0.8 0.3 0.2 0 0.4-0.1 0.6-0.2C221 99 221.3 98.8 221.5 98.5zM225.8 99.2c-0.7 0.7-1.4 1-2 1 -0.3 0-0.6-0.1-0.9-0.3 -0.2-0.2-0.3-0.5-0.3-0.9 0-0.5 0.2-0.9 0.6-1.3s1.3-0.9 2.6-1.5v-0.6c0-0.5 0-0.8-0.1-0.9 -0.1-0.1-0.2-0.2-0.3-0.3 -0.2-0.1-0.3-0.1-0.4-0.1 -0.3 0-0.5 0.1-0.7 0.2 -0.1 0.1-0.2 0.2-0.2 0.3 0 0.1 0.1 0.2 0.2 0.3 0.2 0.2 0.2 0.4 0.2 0.5 0 0.2-0.1 0.4-0.2 0.5 -0.2 0.2-0.4 0.2-0.6 0.2 -0.3 0-0.5-0.1-0.7-0.3s-0.3-0.4-0.3-0.6c0-0.3 0.1-0.6 0.4-0.9 0.2-0.3 0.6-0.5 1-0.7 0.4-0.2 0.9-0.2 1.4-0.2 0.5 0 1 0.1 1.4 0.4 0.3 0.3 0.5 0.5 0.7 0.8 0.1 0.2 0.1 0.6 0.1 1.3v2.4c0 0.3 0 0.4 0.1 0.5 0 0.1 0.1 0.1 0.1 0.2 0.1 0.1 0.1 0.1 0.2 0.1 0.1 0 0.2-0.1 0.3-0.2l0.2 0.2c-0.2 0.3-0.4 0.5-0.7 0.7s-0.5 0.2-0.8 0.2c-0.3 0-0.6-0.1-0.8-0.2C225.9 99.7 225.8 99.5 225.8 99.2zM225.8 98.7v-2.1c-0.5 0.3-0.9 0.7-1.1 1 -0.2 0.2-0.3 0.5-0.3 0.7 0 0.2 0.1 0.4 0.2 0.5 0.1 0.1 0.3 0.2 0.4 0.2C225.2 99.1 225.5 99 225.8 98.7zM231.4 91.7V94h1.4v0.7h-1.4v3.8c0 0.4 0 0.6 0.1 0.7s0.1 0.2 0.2 0.3c0.1 0.1 0.2 0.1 0.2 0.1 0.3 0 0.5-0.2 0.8-0.7l0.2 0.2c-0.3 0.8-0.9 1.3-1.7 1.3 -0.4 0-0.7-0.1-1-0.3 -0.3-0.2-0.4-0.4-0.5-0.7 -0.1-0.2-0.1-0.5-0.1-1.2v-3.3h-0.8v-0.3c0.5-0.4 1-0.8 1.4-1.2 0.4-0.4 0.7-0.9 1-1.4L231.4 91.7 231.4 91.7zM235.7 94v4.8c0 0.4 0.1 0.7 0.2 0.8 0.1 0.1 0.3 0.2 0.6 0.2v0.2h-3.2v-0.2c0.3 0 0.4-0.1 0.6-0.2 0.1-0.1 0.1-0.4 0.1-0.8v-3.6c0-0.4-0.1-0.7-0.2-0.8 -0.1-0.1-0.3-0.2-0.5-0.2V94H235.7zM234.8 91c0.3 0 0.5 0.1 0.7 0.3 0.2 0.2 0.3 0.4 0.3 0.7 0 0.3-0.1 0.5-0.3 0.7 -0.2 0.2-0.4 0.3-0.7 0.3s-0.5-0.1-0.7-0.3c-0.2-0.2-0.3-0.4-0.3-0.7 0-0.3 0.1-0.5 0.3-0.7C234.3 91.1 234.6 91 234.8 91zM239.8 93.8c0.5 0 1 0.2 1.5 0.4 0.4 0.3 0.8 0.7 1 1.2 0.2 0.5 0.3 1 0.3 1.7 0 0.9-0.2 1.6-0.7 2.2 -0.5 0.7-1.3 1-2.2 1 -0.9 0-1.6-0.3-2.1-1s-0.7-1.4-0.7-2.2c0-0.9 0.3-1.6 0.8-2.3C238.3 94.1 239 93.8 239.8 93.8zM239.9 94.2c-0.2 0-0.4 0.1-0.5 0.3 -0.2 0.2-0.3 0.5-0.3 1s-0.1 1.2-0.1 2.1c0 0.5 0.1 0.9 0.1 1.3 0.1 0.3 0.2 0.5 0.3 0.7 0.2 0.2 0.3 0.2 0.5 0.2 0.2 0 0.3-0.1 0.5-0.2 0.2-0.2 0.3-0.4 0.3-0.6 0.1-0.4 0.1-1.3 0.1-2.5 0-0.8-0.1-1.3-0.1-1.5 -0.1-0.3-0.2-0.5-0.4-0.6S240.1 94.2 239.9 94.2zM246 94v0.8c0.3-0.3 0.6-0.6 0.9-0.8 0.3-0.2 0.6-0.2 0.9-0.2 0.4 0 0.7 0.1 1 0.3 0.3 0.2 0.4 0.5 0.5 0.8 0.1 0.3 0.1 0.7 0.1 1.4v2.4c0 0.5 0.1 0.8 0.1 0.9 0.1 0.1 0.3 0.2 0.5 0.2v0.2h-3v-0.2c0.2-0.1 0.4-0.1 0.5-0.3 0.1-0.1 0.1-0.4 0.1-0.8V96c0-0.5 0-0.8-0.1-0.9s-0.1-0.2-0.2-0.3c-0.1-0.1-0.2-0.1-0.3-0.1 -0.4 0-0.7 0.3-1 0.8v3.3c0 0.4 0.1 0.8 0.1 0.9 0.1 0.1 0.2 0.2 0.5 0.2v0.2h-3v-0.2c0.3 0 0.4-0.1 0.5-0.3 0.1-0.1 0.1-0.4 0.1-0.9v-3.4c0-0.5-0.1-0.8-0.1-0.9 -0.1-0.1-0.3-0.2-0.5-0.2V94H246zM254.7 93.8l0.1 2.1h-0.2c-0.3-0.6-0.5-1-0.8-1.3 -0.3-0.2-0.5-0.3-0.8-0.3 -0.2 0-0.3 0.1-0.4 0.2 -0.1 0.1-0.2 0.3-0.2 0.4 0 0.1 0.1 0.2 0.1 0.3 0.2 0.2 0.5 0.5 1.1 0.9 0.7 0.4 1 0.8 1.3 1.1 0.2 0.3 0.3 0.7 0.3 1 0 0.3-0.1 0.7-0.3 1 -0.2 0.3-0.4 0.6-0.7 0.8 -0.3 0.2-0.7 0.3-1 0.3 -0.3 0-0.7-0.1-1.1-0.3 -0.1-0.1-0.2-0.1-0.3-0.1 -0.2 0-0.3 0.1-0.3 0.3h-0.2l-0.1-2.2h0.2c0.2 0.6 0.4 1 0.8 1.3 0.3 0.3 0.7 0.4 0.9 0.4 0.2 0 0.4-0.1 0.5-0.2 0.1-0.1 0.2-0.3 0.2-0.5 0-0.2-0.1-0.4-0.2-0.5 -0.1-0.2-0.4-0.4-0.9-0.7 -0.7-0.4-1.1-0.8-1.3-1 -0.3-0.4-0.4-0.8-0.4-1.2 0-0.5 0.2-0.9 0.5-1.3 0.3-0.4 0.8-0.6 1.4-0.6 0.3 0 0.7 0.1 0.9 0.2 0.1 0.1 0.2 0.1 0.3 0.1s0.2 0 0.2-0.1c0.1-0.1 0.1-0.1 0.2-0.3C254.4 93.8 254.7 93.8 254.7 93.8z"/></svg>
