<?xml version="1.0" encoding="UTF-8" standalone="no"?>
<svg xmlns="http://www.w3.org/2000/svg" xml:space="preserve" version="1.1" y="0" x="0" xmlns:xlink="http://www.w3.org/1999/xlink" viewBox="20 60 360 67" enable-background="new 20 0 360 67">
	<g fill="#231F20">
		<path clip-rule="evenodd" d="m97.1 86.8h-3.1l-0.4 0.8c-0.1 0.3-0.2 0.5-0.2 0.7s0.1 0.4 0.3 0.5c0.1 0.1 0.4 0.1 0.9 0.2v0.2h-2.9v-0.2c0.3 0 0.6-0.2 0.8-0.4s0.5-0.7 0.7-1.3l3.1-7h0.1l3.1 7.2c0.3 0.7 0.5 1.1 0.7 1.3 0.1 0.1 0.4 0.2 0.6 0.2v0.2h-4.2v-0.2h0.4c0.3 0 0.6 0 0.7-0.1s0.1-0.2 0.1-0.3v-0.2s-0.1-0.2-0.2-0.5l-0.5-1.1zm-0.2-0.5l-1.3-3-1.3 3h2.6z" fill-rule="evenodd"/>
		<path d="m106.4 83.3v4.7c0 0.5 0 0.7 0.1 0.9 0.1 0.1 0.3 0.2 0.5 0.2v0.2h-2.5v-0.8c-0.3 0.3-0.6 0.6-0.9 0.8s-0.6 0.2-1 0.2c-0.3 0-0.6-0.1-0.9-0.3s-0.4-0.5-0.5-0.7c-0.1-0.3-0.1-0.8-0.1-1.5v-2.4c0-0.5 0-0.7-0.1-0.8s-0.3-0.2-0.5-0.2v-0.2h2.5v4.1c0 0.4 0 0.7 0.1 0.8 0 0.1 0.1 0.2 0.2 0.3s0.2 0.1 0.3 0.1c0.2 0 0.3 0 0.4-0.1 0.2-0.1 0.4-0.3 0.6-0.7v-3.2c0-0.5 0-0.7-0.1-0.8s-0.3-0.2-0.5-0.2v-0.2h2.4v-0.2z"/>
		<path d="m111.2 83.1l0.1 2.1h-0.2c-0.3-0.6-0.5-1-0.8-1.2s-0.6-0.3-0.8-0.3-0.3 0.1-0.5 0.2c-0.1 0.1-0.2 0.2-0.2 0.4 0 0.1 0 0.2 0.1 0.3 0.1 0.2 0.5 0.5 1.2 0.9 0.6 0.4 1 0.8 1.2 1.1s0.3 0.6 0.3 1c0 0.3-0.1 0.7-0.3 1s-0.4 0.6-0.7 0.7c-0.3 0.2-0.6 0.3-1 0.3-0.3 0-0.7-0.1-1.2-0.3-0.1 0-0.2-0.1-0.3-0.1s-0.3 0.1-0.4 0.3h-0.2l-0.1-2.2h0.2c0.2 0.6 0.5 1 0.8 1.3s0.7 0.4 1 0.4c0.2 0 0.4-0.1 0.5-0.2s0.2-0.3 0.2-0.5-0.1-0.4-0.2-0.5c-0.1-0.2-0.4-0.4-0.9-0.7-0.7-0.5-1.1-0.8-1.3-1-0.3-0.4-0.4-0.7-0.4-1.2s0.2-0.9 0.5-1.3 0.8-0.6 1.4-0.6c0.3 0 0.6 0.1 0.9 0.2 0.1 0.1 0.2 0.1 0.3 0.1h0.2s0.1-0.1 0.2-0.3h0.4v0.1z"/>
		<path d="m114.4 81.1v2.2h1.4v0.6h-1.4v3.7 0.7c0 0.1 0.1 0.2 0.2 0.2 0.1 0.1 0.2 0.1 0.2 0.1 0.3 0 0.5-0.2 0.8-0.6l0.2 0.1c-0.3 0.8-0.9 1.2-1.7 1.2-0.4 0-0.7-0.1-1-0.3s-0.4-0.5-0.5-0.7c0-0.1-0.1-0.5-0.1-1.2v-3.2h-0.8v-0.2c0.5-0.4 1-0.8 1.4-1.2s0.7-0.9 1-1.4h0.3z"/>
		<path d="m118.8 83.3v1.4c0.4-0.6 0.7-1 1-1.2s0.6-0.3 0.9-0.3c0.2 0 0.4 0.1 0.6 0.2 0.1 0.1 0.2 0.4 0.2 0.6 0 0.3-0.1 0.5-0.2 0.7s-0.3 0.2-0.5 0.2-0.4-0.1-0.6-0.2-0.3-0.2-0.3-0.2h-0.1c-0.1 0-0.2 0-0.4 0.1s-0.3 0.4-0.4 0.6c-0.1 0.4-0.2 0.9-0.2 1.4v1.4 0.4 0.5c0.1 0.1 0.1 0.2 0.2 0.3s0.3 0.1 0.5 0.1v0.2h-3.3v-0.2c0.3 0 0.4-0.1 0.5-0.2s0.1-0.5 0.1-1v-3.3c0-0.3 0-0.6-0.1-0.7 0-0.1-0.1-0.2-0.2-0.3s-0.2-0.1-0.4-0.1v-0.2h2.7v-0.2z"/>
		<path clip-rule="evenodd" d="m124.8 88.4c-0.7 0.6-1.4 1-2 1-0.3 0-0.6-0.1-0.9-0.3-0.2-0.2-0.3-0.5-0.3-0.8 0-0.5 0.2-0.9 0.6-1.2 0.4-0.4 1.3-0.9 2.6-1.5v-0.6c0-0.5 0-0.7-0.1-0.9 0-0.1-0.1-0.2-0.3-0.3-0.1-0.1-0.3-0.1-0.5-0.1-0.3 0-0.5 0.1-0.7 0.2-0.1 0.1-0.2 0.2-0.2 0.3s0.1 0.2 0.2 0.3c0.2 0.2 0.2 0.4 0.2 0.5 0 0.2-0.1 0.4-0.2 0.5-0.2 0.1-0.4 0.2-0.6 0.2-0.3 0-0.5-0.1-0.7-0.2-0.2-0.2-0.3-0.4-0.3-0.6 0-0.3 0.1-0.6 0.4-0.9 0.2-0.3 0.6-0.5 1-0.7s0.9-0.2 1.4-0.2c0.6 0 1 0.1 1.4 0.4 0.3 0.2 0.6 0.5 0.6 0.8 0.1 0.2 0.1 0.6 0.1 1.2v2.3 0.5c0 0.1 0.1 0.1 0.1 0.2l0.1 0.1c0.1 0 0.2-0.1 0.3-0.2l0.2 0.2c-0.2 0.3-0.4 0.5-0.7 0.7-0.2 0.1-0.5 0.2-0.8 0.2s-0.6-0.1-0.8-0.2c0.1-0.3-0.1-0.6-0.1-0.9zm0-0.5v-2c-0.5 0.3-0.9 0.6-1.2 1-0.2 0.2-0.3 0.5-0.3 0.7s0.1 0.4 0.2 0.5 0.3 0.2 0.5 0.2c0.3 0 0.5-0.1 0.8-0.4z" fill-rule="evenodd"/>
		<path d="m130 80.6v7.4c0 0.4 0 0.7 0.1 0.8s0.3 0.2 0.6 0.2v0.2h-3.3v-0.2c0.3 0 0.5-0.1 0.6-0.2s0.1-0.4 0.1-0.8v-6.2c0-0.4 0-0.7-0.1-0.8s-0.3-0.2-0.6-0.2v-0.2h2.6z"/>
		<path clip-rule="evenodd" d="m132.8 80.4c0.3 0 0.5 0.1 0.7 0.3s0.3 0.4 0.3 0.7-0.1 0.5-0.3 0.7-0.4 0.3-0.7 0.3-0.5-0.1-0.7-0.3-0.3-0.4-0.3-0.7 0.1-0.5 0.3-0.7 0.4-0.3 0.7-0.3zm0.9 2.9v4.7c0 0.4 0 0.7 0.1 0.8s0.3 0.2 0.6 0.2v0.2h-3.2v-0.2c0.3 0 0.5-0.1 0.6-0.2s0.1-0.4 0.1-0.8v-3.5c0-0.4 0-0.7-0.1-0.8s-0.3-0.2-0.6-0.2v-0.2h2.5z" fill-rule="evenodd"/>
		<path clip-rule="evenodd" d="m137.9 88.4c-0.7 0.6-1.4 1-2 1-0.3 0-0.6-0.1-0.9-0.3-0.2-0.2-0.3-0.5-0.3-0.8 0-0.5 0.2-0.9 0.6-1.2 0.4-0.4 1.3-0.9 2.6-1.5v-0.6c0-0.5 0-0.7-0.1-0.9 0-0.1-0.1-0.2-0.3-0.3-0.1-0.1-0.3-0.1-0.5-0.1-0.3 0-0.5 0.1-0.7 0.2-0.1 0.1-0.2 0.2-0.2 0.3s0.1 0.2 0.2 0.3c0.2 0.2 0.2 0.4 0.2 0.5 0 0.2-0.1 0.4-0.2 0.5-0.2 0.1-0.4 0.2-0.6 0.2-0.3 0-0.5-0.1-0.7-0.2-0.2-0.2-0.3-0.4-0.3-0.6 0-0.3 0.1-0.6 0.4-0.9 0.2-0.3 0.6-0.5 1-0.7s0.9-0.2 1.4-0.2c0.6 0 1 0.1 1.4 0.4 0.3 0.2 0.6 0.5 0.6 0.8 0.1 0.2 0.1 0.6 0.1 1.2v2.3 0.5c0 0.1 0.1 0.1 0.1 0.2l0.1 0.1c0.1 0 0.2-0.1 0.3-0.2l0.2 0.2c-0.2 0.3-0.4 0.5-0.7 0.7-0.2 0.1-0.5 0.2-0.8 0.2s-0.6-0.1-0.8-0.2c0.1-0.3 0-0.6-0.1-0.9zm0-0.5v-2c-0.5 0.3-0.9 0.6-1.2 1-0.2 0.2-0.3 0.5-0.3 0.7s0.1 0.4 0.2 0.5 0.3 0.2 0.5 0.2c0.3 0 0.5-0.1 0.8-0.4z" fill-rule="evenodd"/>
		<path d="m143.1 83.3v0.7c0.3-0.3 0.6-0.6 0.9-0.7 0.3-0.2 0.6-0.2 0.9-0.2 0.4 0 0.7 0.1 1 0.3s0.4 0.5 0.5 0.8c0.1 0.2 0.1 0.7 0.1 1.4v2.4c0 0.5 0 0.8 0.1 0.9s0.3 0.2 0.5 0.2v0.2h-3v-0.2c0.2 0 0.4-0.1 0.5-0.3 0.1-0.1 0.1-0.4 0.1-0.8v-2.7c0-0.5 0-0.8-0.1-0.9 0-0.1-0.1-0.2-0.2-0.3s-0.2-0.1-0.3-0.1c-0.4 0-0.7 0.3-1 0.8v3.2c0 0.5 0 0.7 0.1 0.9 0.1 0.1 0.2 0.2 0.5 0.2v0.2h-3v-0.2c0.3 0 0.4-0.1 0.5-0.2s0.1-0.4 0.1-0.8v-3.4c0-0.5 0-0.7-0.1-0.8s-0.3-0.2-0.5-0.2v-0.2h2.4v-0.2z"/>
		<path d="m159 80.4v3.1h-0.2c-0.3-0.8-0.7-1.5-1.3-1.9s-1.2-0.7-1.9-0.7-1.2 0.2-1.6 0.6-0.7 0.9-0.9 1.5c-0.2 0.7-0.3 1.3-0.3 2 0 0.8 0.1 1.6 0.3 2.2s0.5 1.1 1 1.4c0.4 0.3 1 0.4 1.6 0.4 0.2 0 0.4 0 0.6-0.1 0.2 0 0.5-0.1 0.7-0.2v-1.8c0-0.3 0-0.6-0.1-0.7 0-0.1-0.1-0.2-0.3-0.3-0.1-0.1-0.3-0.1-0.5-0.1h-0.2v-0.2h4.2v0.2c-0.3 0-0.5 0.1-0.7 0.1l-0.3 0.3c0 0.1-0.1 0.3-0.1 0.6v1.8c-0.6 0.2-1.1 0.4-1.7 0.6-0.6 0.1-1.2 0.2-1.9 0.2-0.8 0-1.5-0.1-2.1-0.3-0.5-0.2-1-0.5-1.4-0.9s-0.7-0.8-1-1.2c-0.3-0.6-0.5-1.3-0.5-2 0-1.3 0.5-2.4 1.4-3.3s2.1-1.4 3.5-1.4c0.4 0 0.8 0 1.2 0.1 0.2 0 0.5 0.1 0.9 0.3s0.7 0.2 0.8 0.2 0.2 0 0.3-0.1 0.2-0.3 0.3-0.5h0.2v0.1z"/>
		<path clip-rule="evenodd" d="m163.2 83.1c0.5 0 1 0.1 1.5 0.4s0.8 0.7 1 1.2 0.4 1 0.4 1.6c0 0.9-0.2 1.6-0.6 2.1-0.5 0.7-1.2 1-2.2 1-0.9 0-1.6-0.3-2.1-1-0.5-0.6-0.7-1.4-0.7-2.2 0-0.9 0.2-1.6 0.7-2.3 0.4-0.5 1.1-0.8 2-0.8zm0 0.4c-0.2 0-0.4 0.1-0.6 0.3s-0.3 0.5-0.3 1-0.1 1.2-0.1 2c0 0.5 0 0.9 0.1 1.3 0 0.3 0.1 0.5 0.3 0.7s0.3 0.2 0.5 0.2 0.4-0.1 0.5-0.2c0.2-0.1 0.3-0.3 0.3-0.6 0.1-0.4 0.1-1.2 0.1-2.5 0-0.7 0-1.2-0.1-1.5s-0.2-0.5-0.4-0.6c0 0-0.1-0.1-0.3-0.1z" fill-rule="evenodd"/>
		<path d="m168.9 89.5l-2-4.7c-0.2-0.6-0.4-0.9-0.6-1.1-0.1-0.1-0.2-0.2-0.4-0.2v-0.2h3.2v0.2c-0.2 0-0.3 0-0.4 0.1s-0.2 0.2-0.2 0.3c0 0.2 0.1 0.5 0.3 0.9l1 2.3 0.8-2c0.2-0.6 0.3-1 0.3-1.2 0-0.1 0-0.2-0.1-0.3s-0.3-0.1-0.5-0.1v-0.2h2v0.2c-0.2 0-0.3 0.1-0.5 0.2-0.1 0.1-0.3 0.5-0.5 1l-2 4.7h-0.4v0.1z"/>
		<path clip-rule="evenodd" d="m176.9 86.1h-3.3c0 0.8 0.3 1.4 0.6 1.9 0.3 0.4 0.7 0.5 1.1 0.5 0.3 0 0.5-0.1 0.7-0.2s0.4-0.4 0.7-0.8l0.2 0.1c-0.3 0.7-0.7 1.1-1.1 1.4s-0.9 0.4-1.4 0.4c-0.9 0-1.6-0.3-2-1-0.4-0.6-0.6-1.2-0.6-2.1 0-1 0.3-1.8 0.8-2.4s1.2-0.9 1.9-0.9c0.6 0 1.1 0.3 1.6 0.8s0.8 1.3 0.8 2.3zm-1.6-0.5c0-0.7 0-1.2-0.1-1.4-0.1-0.3-0.2-0.5-0.3-0.6s-0.2-0.1-0.4-0.1-0.4 0.1-0.5 0.3c-0.3 0.4-0.4 0.9-0.4 1.6v0.2h1.7z" fill-rule="evenodd"/>
		<path d="m179.8 83.3v1.4c0.4-0.6 0.7-1 1-1.2s0.6-0.3 0.9-0.3c0.2 0 0.4 0.1 0.6 0.2 0.1 0.1 0.2 0.4 0.2 0.6 0 0.3-0.1 0.5-0.2 0.7s-0.3 0.2-0.5 0.2-0.4-0.1-0.6-0.2-0.3-0.2-0.3-0.2h-0.1c-0.1 0-0.2 0-0.4 0.1s-0.3 0.4-0.4 0.6c-0.1 0.4-0.2 0.9-0.2 1.4v1.4 0.4 0.5c0.1 0.1 0.1 0.2 0.2 0.3s0.3 0.1 0.5 0.1v0.2h-3.3v-0.2c0.3 0 0.4-0.1 0.5-0.2s0.1-0.5 0.1-1v-3.3c0-0.3 0-0.6-0.1-0.7 0-0.1-0.1-0.2-0.2-0.3s-0.2-0.1-0.4-0.1v-0.2h2.7v-0.2z"/>
		<path d="m185.3 83.3v0.7c0.3-0.3 0.6-0.6 0.9-0.7 0.3-0.2 0.6-0.2 0.9-0.2 0.4 0 0.7 0.1 1 0.3s0.4 0.5 0.5 0.8c0.1 0.2 0.1 0.7 0.1 1.4v2.4c0 0.5 0 0.8 0.1 0.9s0.3 0.2 0.5 0.2v0.2h-3v-0.2c0.2 0 0.4-0.1 0.5-0.3 0.1-0.1 0.1-0.4 0.1-0.8v-2.7c0-0.5 0-0.8-0.1-0.9 0-0.1-0.1-0.2-0.2-0.3s-0.2-0.1-0.3-0.1c-0.4 0-0.7 0.3-1 0.8v3.2c0 0.5 0 0.7 0.1 0.9 0.1 0.1 0.2 0.2 0.5 0.2v0.2h-3v-0.2c0.3 0 0.4-0.1 0.5-0.2s0.1-0.4 0.1-0.8v-3.4c0-0.5 0-0.7-0.1-0.8s-0.3-0.2-0.5-0.2v-0.2h2.4v-0.2z"/>
		<path d="m192.3 83.3v0.8c0.3-0.4 0.6-0.6 0.9-0.8 0.3-0.1 0.6-0.2 0.9-0.2 0.4 0 0.7 0.1 1 0.3s0.5 0.5 0.6 0.8c0.3-0.4 0.7-0.7 1-0.8 0.3-0.2 0.6-0.3 1-0.3s0.7 0.1 1 0.3c0.2 0.2 0.4 0.4 0.5 0.7s0.2 0.8 0.2 1.4v2.5c0 0.5 0 0.8 0.1 0.9s0.3 0.2 0.5 0.2v0.2h-3.1v-0.2c0.2 0 0.4-0.1 0.5-0.3 0.1-0.1 0.1-0.4 0.1-0.8v-2.6c0-0.5 0-0.9-0.1-1 0-0.1-0.1-0.3-0.2-0.3-0.1-0.1-0.2-0.1-0.3-0.1-0.2 0-0.4 0.1-0.6 0.2s-0.4 0.3-0.6 0.6v3.2c0 0.4 0 0.7 0.1 0.8 0.1 0.2 0.3 0.2 0.6 0.3v0.2h-3.1v-0.2c0.2 0 0.3-0.1 0.4-0.1 0.1-0.1 0.2-0.2 0.2-0.3s0.1-0.3 0.1-0.7v-2.6c0-0.5 0-0.9-0.1-1 0-0.1-0.1-0.2-0.2-0.3s-0.2-0.1-0.3-0.1c-0.2 0-0.3 0-0.5 0.1s-0.4 0.4-0.6 0.7v3.2c0 0.4 0 0.7 0.1 0.8s0.3 0.2 0.5 0.2v0.2h-3.1v-0.2c0.3 0 0.4-0.1 0.5-0.2s0.1-0.4 0.1-0.8v-3.4c0-0.5 0-0.7-0.1-0.8s-0.3-0.2-0.5-0.2v-0.2h2.5v-0.1z"/>
		<path clip-rule="evenodd" d="m205.4 86.1h-3.3c0 0.8 0.2 1.4 0.6 1.9 0.3 0.4 0.7 0.5 1.1 0.5 0.3 0 0.5-0.1 0.7-0.2s0.4-0.4 0.7-0.8l0.2 0.1c-0.3 0.7-0.7 1.1-1.1 1.4s-0.9 0.4-1.4 0.4c-0.9 0-1.6-0.3-2-1-0.4-0.6-0.6-1.2-0.6-2.1 0-1 0.3-1.8 0.8-2.4s1.2-0.9 1.9-0.9c0.6 0 1.1 0.3 1.6 0.8s0.7 1.3 0.8 2.3zm-1.6-0.5c0-0.7 0-1.2-0.1-1.4-0.1-0.3-0.2-0.5-0.3-0.6s-0.2-0.1-0.4-0.1-0.4 0.1-0.5 0.3c-0.3 0.4-0.4 0.9-0.4 1.6v0.2h1.7z" fill-rule="evenodd"/>
		<path d="m208 83.3v0.7c0.3-0.3 0.6-0.6 0.9-0.7 0.3-0.2 0.6-0.2 0.9-0.2 0.4 0 0.7 0.1 1 0.3s0.4 0.5 0.5 0.8c0.1 0.2 0.1 0.7 0.1 1.4v2.4c0 0.5 0 0.8 0.1 0.9s0.3 0.2 0.5 0.2v0.2h-3v-0.2c0.2 0 0.4-0.1 0.5-0.3 0.1-0.1 0.1-0.4 0.1-0.8v-2.7c0-0.5 0-0.8-0.1-0.9 0-0.1-0.1-0.2-0.2-0.3s-0.2-0.1-0.3-0.1c-0.4 0-0.7 0.3-1 0.8v3.2c0 0.5 0 0.7 0.1 0.9 0.1 0.1 0.2 0.2 0.5 0.2v0.2h-3v-0.2c0.3 0 0.4-0.1 0.5-0.2s0.1-0.4 0.1-0.8v-3.4c0-0.5 0-0.7-0.1-0.8s-0.3-0.2-0.5-0.2v-0.2h2.4v-0.2z"/>
		<path d="m214.6 81.1v2.2h1.4v0.6h-1.4v3.7 0.7c0 0.1 0.1 0.2 0.2 0.2 0.1 0.1 0.2 0.1 0.2 0.1 0.3 0 0.5-0.2 0.8-0.6l0.2 0.1c-0.3 0.8-0.9 1.2-1.7 1.2-0.4 0-0.7-0.1-1-0.3s-0.4-0.5-0.5-0.7c0-0.1-0.1-0.5-0.1-1.2v-3.2h-0.8v-0.2c0.5-0.4 1-0.8 1.4-1.2s0.7-0.9 1-1.4h0.3z"/>
	</g>
		<path d="m43.1 103.9c0 0.1-0.1 0.1-0.2 0.2" fill="#231F20"/>
		<path d="m44.6 92.1c0.2 0 0.3-0.1 0.3-0.3s-0.1-0.3-0.3-0.3-0.3 0.1-0.3 0.3 0.2 0.3 0.3 0.3z" fill="#231F20"/>
		<path d="m59.2 78.8h-11.4v9.2c0 0.9 0.4 1.7 0.9 1.9l4.4 2.6c0.1 0.1 0.2 0.2 0.4 0.2 0.1 0 0.3-0.1 0.4-0.1l4.4-2.7c0.5-0.2 0.9-1 0.9-1.9v-9.2zm-7.5 2.6h-1v-2.3h1v2.3zm-0.8 0.9l0.1-0.1v-0.3h0.2l0.1-0.2 0.1 0.2h0.2l-0.1 0.2 0.1 0.1h-0.2v0.2l-0.2-0.1-0.2 0.1v-0.2l-0.1 0.1zm-2.7 2.9v-2.2h1.2v2.2h-1.2zm0.2-3.3h0.2l0.1-0.2 0.1 0.2h0.2l-0.1 0.2 0.1 0.1h-0.2v0.2l-0.2-0.1-0.2 0.1v-0.2h-0.2l0.1-0.1 0.1-0.2zm1.3 2.3h0.2l0.1-0.2 0.1 0.2h0.2l-0.1 0.2 0.1 0.1h-0.2v0.2l-0.1-0.1-0.2 0.1v-0.2h-0.2l0.1-0.1v-0.2zm0.8-1.8c0-0.1-0.1-0.1-0.1-0.1-0.1 0-0.1 0.2-0.2 0.2s-0.1 0-0.1-0.1 0.1-0.1 0.2-0.2c-0.7 0-0.8 0.3-0.9 0.3-0.2 0 0.2-0.4 0.3-0.5-0.1 0-0.2-0.2-0.4-0.3 0.1-0.1 0.1-0.1 0.2 0 0-0.1 0.1-0.2 0.2-0.2 0.3 0 0.2 0.3 0.3 0.3s0-0.3 0.2-0.3c0.3 0 0.7 0.8 0.4 0.8-0.2 0.3-0.1 0.1-0.1 0.1zm-0.8-2.4l0.1-0.1-0.1-0.2h0.2l0.1-0.2 0.1 0.2h0.2l-0.1 0.2 0.1 0.1h-0.2v0.2l-0.1-0.1-0.2 0.1v-0.2h-0.1zm-0.3-0.9v2.3h-1.2v-2.3h1.2zm2.3 12.1l-2.7-1.6c-0.5-0.3-0.7-0.9-0.7-1.5v-2.6h3.5v5.7h-0.1zm-1-6v-2.2h1v2.2h-1zm4.5 6.2l-1.3 0.7c-0.1 0.1-0.2 0.1-0.3 0.1s-0.2 0-0.3-0.1l-1.3-0.7v-5.9h3.2v5.9zm0-6.2h-3.2v-6.1h3.2v6.1zm3.7 2.9c-0.1 0.7-0.3 1.2-0.7 1.5l-2.7 1.6v-5.7h3.5v2.6h-0.1zm0-2.9h-3.5v-6.1h3.5v6.1z" fill="#231F20"/>
		<path d="m51.5 87.6s-0.4 0.1-0.3 0.1c0-0.1 0.2-0.4 0.3-0.5 0-0.1-0.2 0-0.4 0.1 0.6-0.9 0.2-0.5-0.1-0.5 0.6-0.6 0.4-0.6 0-0.4 0.3-0.3 0.4-0.6 0.4-0.7-0.3 0.4-0.6 0.4-0.6 0.7s-0.1 0.7-0.2 0.8c-0.2 0.2 0-0.7-0.5-0.7-0.1 0-0.5 0-0.6 0.2 0.1 0 0.2 0.2 0.2 0.3s0.1 0.3-0.1 0.3-0.3-0.3-0.3-0.5v-0.3c0-0.4-0.6-0.9-0.8-0.9 0 0.3 0.3 0.3 0.3 0.6-0.1 0-0.3-0.3-0.3-0.1s0.2 0.2 0.2 0.3c0 0.1-0.2-0.1-0.2 0.1 0 0.1 0.1 0.1 0.2 0.2h-0.2s0 0.1 0.1 0.1c0 0-0.1 0.1-0.1 0.3 0 0.7 0.5 1.1 0.8 1.1 0.2 0 0.2-0.2 0.2-0.2 0 0.1 0.1-0.1 0.1 0.2 0 0.2-0.2 0.1-0.2 0.3 0 0.3 0.4 0 0.4 0.3v0.5c0 0.1 0.4-0.1 0.4-0.2 0.1 0 0.1 0.3 0.3 0.3 0.1 0 0.1-0.3 0.2-0.3-0.1 0 0.3 0.3 0.3 0.1 0-0.3-0.1-0.2-0.1-0.4s0.5-0.2 0.4-0.3-0.1 0-0.2-0.2c0 0-0.4-0.5 0.1-0.2 0.2 0.6 0.3-0.5 0.3-0.5z" fill="#231F20"/>
		<path d="m63.6 90c0.2 0 0.4-0.1 0.4-0.3s-0.2-0.3-0.4-0.3-0.4 0.1-0.4 0.3c0 0.1 0.2 0.3 0.4 0.3z" fill="#231F20"/>
		<path d="m62.1 90.9c0.2 0 0.4-0.1 0.4-0.3s-0.2-0.3-0.4-0.3-0.4 0.1-0.4 0.3c0 0.1 0.2 0.3 0.4 0.3z" fill="#231F20"/>
		<path d="m44.1 93c0.2 0 0.4-0.1 0.4-0.3s-0.2-0.3-0.4-0.3-0.4 0.1-0.4 0.3c0.1 0.1 0.2 0.3 0.4 0.3z" fill="#231F20"/>
		<path d="m45.3 93.1c0.2 0 0.4-0.1 0.4-0.3s-0.2-0.3-0.4-0.3-0.4 0.1-0.4 0.3c0 0.1 0.2 0.3 0.4 0.3z" fill="#231F20"/>
		<path d="m77.6 77.4c0.6 0.7 0.7 1.7 0.3 2.5-0.2 0-0.2-0.3-0.2-0.5-0.4-0.7-0.7-1.7-0.4-2.5 0.3 0 0.2 0.3 0.3 0.5z" fill="#231F20"/>
		<path d="m30.2 78.3c-0.1 0.5-0.1 1.1 0 1.6-0.1 0.1-0.1-0.1-0.2-0.1-0.8-0.6-0.4-1.7-0.6-2.4 0-0.1 0.1-0.1 0.2 0 0.4 0.2 0.5 0.5 0.6 0.9z" fill="#231F20"/>
		<path d="m79.3 78.3c0.1 0.2-0.1 0.4-0.3 0.5-0.2 0-0.4-0.1-0.5-0.2-0.1-0.2 0.1-0.4 0.2-0.5 0.3 0 0.5 0.1 0.6 0.2z" fill="#231F20"/>
		<path d="m29 79.2c0 0.2-0.1 0.4-0.3 0.4-0.1 0-0.3 0-0.4-0.1s-0.1-0.3-0.1-0.4c0.1-0.1 0.2-0.2 0.4-0.2 0.2 0.1 0.3 0.2 0.4 0.3z" fill="#231F20"/>
		<path d="m80.1 79.6v0.3c-0.1 0.2-0.3 0.3-0.5 0.2-0.1-0.1-0.2-0.2-0.2-0.3 0-0.2 0.2-0.3 0.3-0.4 0.1 0 0.3 0.1 0.4 0.2z" fill="#231F20"/>
		<path d="m79 79.6c0.2 0.1 0 0.3 0 0.4-0.1 0.1-0.2 0.3-0.4 0.2-0.1-0.1-0.2-0.1-0.3-0.2 0-0.2 0.1-0.4 0.3-0.5 0.1-0.1 0.2 0 0.4 0.1z" fill="#231F20"/>
		<path d="m77.5 79.9c0 0.2 0 0.5-0.2 0.5-0.2 0.1-0.4-0.1-0.5-0.3 0-0.2 0.1-0.4 0.3-0.5 0.2 0.1 0.3 0.2 0.4 0.3z" fill="#231F20"/>
		<path d="m31.1 80c0.1 0.2-0.1 0.3-0.3 0.4-0.1 0-0.3-0.1-0.4-0.2s0-0.3 0.1-0.4c0.3-0.2 0.6 0 0.6 0.2z" fill="#231F20"/>
		<path d="m30 80c0 0.2-0.1 0.3-0.2 0.4-0.2 0.1-0.3-0.1-0.4-0.2-0.1-0.2 0-0.4 0.2-0.5 0.1 0 0.3 0.2 0.4 0.3z" fill="#231F20"/>
		<path d="m72.7 80.1c0.2 0.4 0.4 0.9 0.4 1.4-0.1 0.4 0.1 0.9-0.2 1.1-0.3-0.1-0.3-0.4-0.5-0.6-0.4-0.7 0-1.5 0.1-2.2 0.2 0 0.2 0.2 0.2 0.3z" fill="#231F20"/>
		<path d="m29 80.4c0.1 0.2-0.1 0.4-0.3 0.5s-0.4-0.1-0.5-0.3c0-0.2 0.1-0.4 0.3-0.5 0.2 0 0.4 0.1 0.5 0.3z" fill="#231F20"/>
		<path d="m75.8 80.9c0.3 0.6 0.3 1.3 0.1 1.9l-0.1 0.2c-0.3-0.5-0.7-1-0.8-1.6 0-0.4 0.1-0.8 0.2-1.1 0.1-0.1 0.2 0 0.3 0.1 0 0.2 0.1 0.4 0.3 0.5z" fill="#231F20"/>
		<path d="m78.3 80.6c0 0.2-0.1 0.4-0.3 0.5-0.2 0-0.4 0-0.5-0.2s0.1-0.4 0.2-0.5c0.3-0.2 0.5 0 0.6 0.2z" fill="#231F20"/>
		<path d="m30 81.2c0 0.2-0.1 0.3-0.3 0.4s-0.3-0.1-0.4-0.1c-0.1-0.2-0.1-0.3 0-0.5 0.1-0.1 0.2-0.1 0.3-0.2 0.2 0.1 0.3 0.2 0.4 0.4z" fill="#231F20"/>
		<path d="m30.8 81.1c0.1 0.2-0.1 0.3-0.2 0.4-0.2 0.1-0.4-0.1-0.5-0.2 0-0.2 0.1-0.3 0.2-0.4 0.3-0.1 0.4 0 0.5 0.2z" fill="#231F20"/>
		<path d="m78.9 81c0 0.3-0.4 0.5-0.5 0.8-0.2 0.5-0.7 0.9-1.2 1.1-0.1 0.1-0.3 0.2-0.5 0.3 0-0.4 0.3-0.8 0.5-1.1 0.5-0.6 1.1-0.9 1.7-1.1z" fill="#231F20"/>
		<path d="m29.6 81.9c0.3 0.3 0.5 0.6 0.8 0.9 0 0.1 0 0.2-0.1 0.2-1-0.1-1.6-1.1-2.1-1.8 0.1-0.2 0.3 0 0.5-0.1 0.2 0.4 0.6 0.4 0.9 0.8z" fill="#231F20"/>
		<path d="m79.2 82.2c0 0.9-0.5 1.7-1.2 2.2-0.2 0.1-0.5 0.3-0.7 0.2 0.4-0.9 1-1.6 1.7-2.3h0.2v-0.1z" fill="#231F20"/>
		<path d="m75.4 82.7c0.1 0.3-0.1 0.5-0.3 0.6-0.2 0-0.4-0.2-0.5-0.3 0-0.2 0.1-0.4 0.3-0.4 0.1-0.1 0.2-0.1 0.2-0.1 0.1 0 0.2 0.1 0.3 0.2z" fill="#231F20"/>
		<path d="m28.5 82.9c0.4 0.3 0.7 0.6 1.1 0.9-0.3 0.2-0.6 0-0.9 0-0.7-0.2-1.1-0.8-1.8-1 0-0.2 0.3-0.1 0.4-0.2 0.4 0 0.8 0.2 1.2 0.3z" fill="#231F20"/>
		<path d="m49.7 77c-1.1-0.4-1.8 0.7-3 0.6-0.1 0.1-0.1 0.2-0.2 0.3s-0.2 0-0.2 0c-0.1-0.5-0.2-0.9-0.3-1.4-0.1-0.2-0.1-0.5-0.2-0.7-0.6-1.7 1.5-0.4 2-1.4 0.4-0.9-0.7-1-1.1-1.6v-0.3c-0.3-0.3-0.7-0.4-0.9-0.8 0.1-0.5 0.2-1 0.1-1.5 0-0.1-0.1-0.3-0.3-0.2-0.4 0.5-0.7 0.9-1 1.4-0.4-0.3-0.7-0.6-1.2-0.9-0.3 0-0.6-0.3-0.9-0.2-0.1 0.1 0 0.2 0.1 0.3 0 0.8 0.4 1.4 1 2l0.1 0.3c-0.4 0.8-0.3 1.8-0.4 2.6-0.9 2.3-2.3 4.5-4.3 6-1.1 1.3-2.5 2.5-2.7 4.3-0.1 0.3 0 0.6-0.2 0.8-0.7-0.2-1.3-0.6-1.8-1-0.9-0.6-2.2-0.6-2.8-1.7-0.2-0.5 0.1-0.9 0.3-1.3 0.7-0.6 0.6-1.8 0.2-2.6-0.1 0-0.1 0.1-0.2 0.1-0.1 1.2-1 2-0.6 3.3 0.1 0.4 0.3 0.6 0.4 1-0.1 0-0.3 0-0.5-0.1-0.4-0.1-0.9-0.2-1.3-0.2-0.9 0.4-2.2-0.1-2.9 0.7-0.1 0-0.3 0-0.2 0.2 0.4 0 0.9 0.1 1.3 0.1 0.7 0.1 1.1-0.5 1.6-0.7h0.1c0.2-0.2 0.5-0.1 0.8-0.1 1.2 0.1 2.2 0.7 3.2 1.4v0.1c-0.4 0.2-0.9 0.3-1.2 0.5-0.5 0.3-1 0.8-1.1 1.3-0.3 0.5 0.1 0.9 0.3 1.4 0 0.2 0 0.4 0.2 0.5 0.6-0.7 0-1.5 0.1-2.3 0.2-0.6 0.7-0.9 1.3-1 1.1-0.5 1.9 0.4 2.9 1 0 0.9 0.1 1.8-0.1 2.7-0.3 0.1-0.6 0.2-0.9 0.1-1.6 0.1-2.8 1-4.2 1.5-0.6 0.2-1.4 0.2-2 0.4 0.5 0.1 1 0 1.5-0.1 1.9-0.3 3.4-1.8 5.5-1.5v0.1c-0.2 0.5-0.6 0.9-0.9 1.3-0.1-0.2-0.1-0.4-0.3-0.5s-0.3 0-0.5 0.2c-0.1 0.1-0.1 0.2 0 0.3 0.1 0.2 0.3 0.2 0.4 0.3 0 0.2-0.3 0.3-0.4 0.4-0.6 0.9-1.7 0.6-2.3 1.2-0.1 0.1-0.5 0.2-0.3 0.4 0.8 0.1 1.5-0.1 2-0.5 0.7-0.8 1.5-1.6 2.2-2.4 0.1 0.6-0.1 1.3-0.4 1.8-0.2-0.1-0.3-0.2-0.5-0.3-0.2 0-0.3 0.2-0.4 0.4 0.1 0.1 0.2 0.3 0.3 0.4-0.7 0.5-1.5 0.5-2.3 0.7-1.4 0.2-2.9 0.3-4.3 0.3-0.7 0-1.5 0.2-2.1 0-0.8 0.1-1.6-0.1-2.2 0.3-0.1 0.1 0 0.2 0 0.3 0.9 0.6 2.2 0.1 3.2 0.3h7.8c0.6 0 1.1 0 1.6-0.3 1-0.6 1.6-1.6 2.1-2.6 0.2-0.4 0.3-0.8 0.4-1.2 0.2-0.7 0.8-1.2 1.5-1.2 0.1 1-0.1 2.1-0.3 3-0.1 0.6-0.5 1.3-0.3 1.9 0.1 0.3 0.4 0.3 0.7 0.4 2.4 0 4.8-0.1 7.3 0 0.5 0.1 0.9 0.2 1.3 0.2 0-0.1 0.2-0.1 0.1-0.2-0.1-0.2-0.2-0.5-0.5-0.6 0-0.1-0.2-0.1-0.3-0.2-1.3-0.7-2.8-0.3-4.3-0.3-0.8 0.1-1.5 0.2-2.2-0.2-0.3-0.4-0.1-1.5-0.1-1.5 0-0.5 1.1-3.6 1.2-3.8 0-0.3 0.2-0.6 0.1-0.9 0.2-0.4 0.1-0.9 0.1-1.4 0.1-0.6 0.4-1.2 0.6-1.9l0.3-0.9c0.1-0.4 0.2-0.7 0.4-1 0.6 0.4 1.3 0.4 1.6 1.1l0.3 1.7c0 0.1 0.1 0.3 0.2 0.2 0.5-0.3 0.4-1.1 0.4-1.6 0.1-0.6-0.3-0.9-0.5-1.5-0.1-0.1-0.4-0.6-0.4-0.6-0.1-0.4-1-0.7-0.8-1.3 0.1-0.5 0.2-0.9 0.7-1.1 0.1 0 0.1 0.1 0.1 0.1l0.2-0.2v-1.7c0.6 0 1.6 0.1 2.3 0.1 0.2 0.1 0.3 0.2 0.5 0.2l0.2-0.2 1.6-0.3c-0.3 0.3-0.8-0.5-1.4-0.5z" fill="#231F20"/>
		<path d="m51.4 77.7h0.1-0.1z" fill="#fff"/>
		<path d="m34.2 83.3c0 0.2-0.1 0.4-0.3 0.5-0.2-0.1-0.3-0.1-0.4-0.2-0.1-0.2 0.1-0.4 0.3-0.5 0.2 0 0.4 0 0.4 0.2z" fill="#231F20"/>
		<path d="m32.9 83.3c0.1 0.1 0.1 0.3 0.1 0.5-0.1 0.1-0.4 0.2-0.5 0.1s-0.2-0.3-0.1-0.4c0.1-0.3 0.3-0.4 0.5-0.2z" fill="#231F20"/>
		<path d="m60.5 83.5" fill="#fff"/>
		<path d="m75.6 83.8c0.1 0.2-0.1 0.4-0.3 0.5-0.2-0.1-0.5-0.1-0.5-0.4 0-0.2 0.2-0.3 0.3-0.3 0.2 0 0.4 0.1 0.5 0.2z" fill="#231F20"/>
		<path d="m76.6 83.8c0.1 0.1 0.2 0.3 0 0.4l-0.2 0.2c-0.2 0-0.4 0-0.5-0.2 0-0.2 0.1-0.3 0.3-0.4 0.2-0.2 0.3-0.1 0.4 0z" fill="#231F20"/>
		<path d="m27.9 84c-0.1 0.2-0.3 0.3-0.5 0.3-0.1-0.1-0.1-0.2-0.2-0.3 0-0.1 0.1-0.3 0.2-0.3 0.3 0 0.5 0.1 0.5 0.3z" fill="#231F20"/>
		<path d="m34.6 84.4c0 0.2-0.2 0.3-0.3 0.4-0.2 0-0.3-0.1-0.4-0.3 0-0.2 0.1-0.4 0.2-0.4 0.2-0.1 0.4 0.1 0.5 0.3z" fill="#231F20"/>
		<path d="m33.4 84.2c0.1 0.1 0.1 0.2 0.1 0.3-0.1 0.1-0.3 0.3-0.5 0.2-0.1-0.1-0.3-0.2-0.2-0.4 0.1-0.1 0.2-0.2 0.3-0.2s0.2 0.1 0.3 0.1z" fill="#231F20"/>
		<path d="m79.6 84.5c0 0.2-0.2 0.3-0.3 0.4-0.2 0.1-0.3 0-0.4-0.1-0.1 0-0.1-0.2-0.1-0.3 0.1-0.1 0.2-0.2 0.4-0.3 0.2 0 0.3 0.2 0.4 0.3z" fill="#231F20"/>
		<path d="m80.9 84.7c-0.1 0.2-0.2 0.3-0.4 0.4-0.1 0-0.3-0.1-0.3-0.2s0.1-0.3 0.2-0.3c0.2-0.2 0.5-0.1 0.5 0.1z" fill="#231F20"/>
		<path d="m30.2 84.9c0 0.2 0 0.4-0.2 0.5-0.1 0.1-0.3 0-0.4-0.1s-0.2-0.3-0.1-0.4c0-0.2 0.2-0.1 0.3-0.2 0.2 0 0.3 0.1 0.4 0.2z" fill="#231F20"/>
		<path d="m31.2 85.1c0.1 0.2-0.1 0.2-0.2 0.3s-0.2 0.1-0.4 0c-0.1-0.1-0.3-0.3-0.2-0.5 0.2-0.2 0.7 0 0.8 0.2z" fill="#231F20"/>
		<path d="m78.5 85c0 0.2-0.2 0.3-0.3 0.5-0.2 0-0.4-0.1-0.4-0.2 0-0.2 0.1-0.3 0.2-0.4 0.2-0.1 0.4 0 0.5 0.1z" fill="#231F20"/>
		<path d="m80.1 85.3c0 0.2 0 0.4-0.2 0.5-0.2 0-0.4 0-0.5-0.1s-0.1-0.3-0.1-0.4c0.1-0.2 0.3-0.3 0.5-0.2 0.1 0.1 0.2 0.2 0.3 0.2z" fill="#231F20"/>
		<path d="m29.4 85.7c0.1 0.2-0.1 0.2-0.2 0.3s-0.3 0-0.4 0c-0.1-0.1-0.1-0.3-0.1-0.4 0.3-0.3 0.7-0.1 0.7 0.1z" fill="#231F20"/>
		<path d="m78.9 86.1c0.1 0 0 0.1 0 0.2-0.5 0.2-1.2 0.3-1.6-0.1-0.2-0.2-0.5-0.3-0.8-0.4 0.1-0.3 0.5-0.2 0.7-0.3 0.6 0.1 1 0.6 1.7 0.6z" fill="#231F20"/>
		<path d="m30.4 85.9c0 0.2-0.1 0.2-0.1 0.3-0.1 0.1-0.2 0.1-0.3 0-0.2-0.1-0.3-0.3-0.1-0.5 0.1-0.1 0.4 0 0.5 0.2z" fill="#231F20"/>
		<path d="m32.1 86.1c0.1 0.2 0 0.3-0.2 0.4-0.1 0.1-0.3 0-0.4-0.1s-0.3-0.3-0.1-0.5 0.6-0.1 0.7 0.2z" fill="#231F20"/>
		<path d="m55 86.9c0 0.4-0.7-0.1-0.6 0.5 0.1 0.4 0.2 0.8 0.4 1.1s0.1 0.7 0.1 1c-0.2 0.3-0.5 0.5-0.8 0.6-0.6-0.1-1.4 0.3-1.7-0.4-0.1-0.3-0.3-0.6-0.3-0.9 0.1 0 0.1 0 0.2-0.1 0-0.1-0.2-0.2-0.1-0.3 0.6-0.1-0.3-0.7 0.3-0.7 0.5 0.5 1.2 0.3 1.6 0.8 0.1 0.1 0.2 0.2 0.3 0.2-0.1-0.5-0.3-0.9-0.4-1.5-0.1-0.3 0-0.5 0.2-0.7 0.4-0.2 0.6 0.2 0.8 0.4z" fill="#231F20"/>
		<path d="m33.9 86.8c0.1 0.2-0.1 0.3-0.2 0.4-0.2 0.1-0.3-0.1-0.4-0.2-0.1-0.2 0.1-0.3 0.2-0.4 0.1 0 0.3 0 0.4 0.2z" fill="#231F20"/>
		<path d="m46.1 87c0.2 0.8 0.2 1.6-0.2 2.2 0 0.2 0 0.4-0.2 0.4-0.5-0.7-0.1-1.8 0.1-2.6 0-0.1 0.2-0.2 0.3 0z" fill="#231F20"/>
		<path d="m63 87.4c0.3 0.6 0.3 1.3 0 1.9l-0.2 0.2c-0.2-0.5-0.4-0.9-0.5-1.4 0.1-0.4 0.2-0.7 0.2-1.1 0.5-0.2 0.5 0.2 0.5 0.4z" fill="#231F20"/>
		<path d="m35.4 87.6c-0.1 0.2-0.5 0.3-0.7 0.5-0.5 0.4-1.2 0.4-1.8 0.3 0.5-0.7 1.3-1.1 2.3-0.9 0.1 0 0.2 0 0.2 0.1z" fill="#231F20"/>
		<path d="m27.3 88.3c0.7 0.5 0.9 1.2 1.4 2 0.1 0.1 0.3 0.1 0.2 0.3-0.2 0.1-0.3-0.1-0.5-0.1-0.8-0.3-1.2-1.2-1.2-2.1-0.1-0.1 0-0.1 0.1-0.1z" fill="#231F20"/>
		<path d="m62.3 88.9c0 0.2 0 0.4-0.2 0.5s-0.4-0.1-0.5-0.2 0.1-0.2 0.1-0.3c0.2-0.2 0.5-0.2 0.6 0z" fill="#231F20"/>
		<path d="m70.6 90c0-0.4 0.1-0.7 0.1-1.1 0.1-0.1 0.1-0.3 0.1-0.4 0.5-0.6 1.4-0.4 2.2-0.4 0.3 0.2 0.7 0.1 1 0.2 0.1-0.1 0.3-0.1 0.5-0.1 0.6-0.3 0.2-1.1 0.3-1.7l-0.2-0.6c-0.1-0.1-0.1-0.3-0.2-0.4s-0.2-0.4-0.3-0.5c-0.3-0.9-1-1.4-1.5-2.1-1-1.3-2.6-2.1-4.2-2.6s-3.1 0.2-4.6 0.7c-0.4-0.1-0.7-0.5-0.8-0.8-0.1-0.8 0.1-1.5 0.4-2.1 0.1-0.5 0.4-0.9 0.5-1.3 0.4-1.1 0.7-2.2 0.8-3.4 0-0.7-0.5-1.3-1.1-1.6-0.4-0.1-0.8-0.1-1.1 0.2-0.3 0.5-0.8 0.9-1.3 1.2 0 0.3 0.4 0.1 0.5 0.2 0.4 0.1 0.9-0.1 1.3 0.2 0 0.8-0.4 1.5-0.8 2.1-0.7 1-1.4 2-1.8 3.1l-0.1-0.1 0.1 4.9c0.6 1.1 1.4 2.2 2.6 2.6 0.6 0.5 1.4 1.1 2.3 0.7 0.5-0.1 0.5 0.5 0.7 0.8 0.2 0.7-0.3 1.3-0.3 1.9l-0.5 1.1c-0.6 1.2-1.1 2.4-2 3.4-0.3 0-0.5 0.3-0.8 0.3-0.2 0.2-0.5 0.1-0.7 0.1-0.6 0.3-1.5 0.1-1.9 0.7 0 0.1 0.1 0.1 0.2 0.1 1.2 0 2.6 0.1 3.8 0 0.2-0.1 0.3-0.2 0.3-0.4-0.2-0.3 0.1-0.6 0.2-0.9 0.1-0.5 0.4-0.8 0.6-1.2 0.4-0.8 0.9-1.6 1.3-2.4l0.6-1c0.1-0.3 0.4-0.8 0.6-1.1 0.2-0.2 0.2-0.3 0.4-0.5 0-0.2-0.1-0.3-0.2-0.4 0.1-0.1 0.4-0.1 0.5-0.1 0.5 0.3 1 0.8 1.1 1.3l0.2 0.5 0.1 0.2v0.7l0.1 0.6c0.1 1-0.1 1.9-0.2 2.9-0.3 1.2-1.7 1-2.6 1.3-0.2 0.2-0.7 0.1-0.7 0.5 1.1 0.2 2.5 0.1 3.7 0.1 0.2-0.1 0.2-0.3 0.3-0.4 0-0.3 0.3-0.5 0.2-0.8-0.2-0.3 0-0.7-0.1-1.1v-0.4c0.2-0.6 0.1-1.3 0.2-1.8l0.2-0.9z" fill="#231F20"/>
		<path d="m80.4 89.2c-0.6 0.9-1.3 1.9-2.4 2.2-0.1 0-0.2 0-0.2-0.1 0.7-0.7 1-1.8 2.1-2.1 0.1 0 0.3-0.1 0.5 0z" fill="#231F20"/>
		<path d="m26.3 90.2c-0.1 0.1 0 0.3-0.2 0.3-0.2 0.1-0.3 0-0.4-0.2s0.1-0.4 0.3-0.4c0.1 0 0.3 0.1 0.3 0.3z" fill="#231F20"/>
		<path d="m32 90.5c0.1 0.2-0.1 0.2-0.2 0.2-0.8 0.3-1.7 0-2.3-0.6 0-0.1 0-0.2 0.1-0.2 0.8 0.2 1.7 0.1 2.4 0.6z" fill="#231F20"/>
		<path d="m27.4 90.2c0 0.1 0.1 0.2 0 0.3-0.1 0.2-0.3 0.2-0.5 0.2-0.1-0.1-0.2-0.1-0.3-0.3 0-0.2 0.2-0.3 0.3-0.4 0.3 0.1 0.4 0.1 0.5 0.2z" fill="#231F20"/>
		<path d="m46 90.3c0 0.2-0.1 0.3-0.2 0.4-0.2 0-0.3 0-0.4-0.2-0.1-0.1 0-0.3 0.1-0.4 0.1 0 0.4 0 0.5 0.2z" fill="#231F20"/>
		<path d="m81.1 90.4c0.1 0.2-0.1 0.3-0.3 0.4-0.1 0.1-0.3 0-0.4-0.1 0-0.1-0.1-0.2-0.1-0.3 0.1-0.2 0.3-0.3 0.5-0.2s0.2 0.1 0.3 0.2z" fill="#231F20"/>
		<path d="m82.4 90.3c0.1 0.2 0 0.3-0.1 0.5-0.1 0.1-0.2 0.2-0.4 0.1-0.1-0.1-0.3-0.2-0.3-0.4s0.2-0.3 0.3-0.3c0.3-0.1 0.4 0.1 0.5 0.1z" fill="#231F20"/>
		<path d="m25.5 90.9c0 0.1-0.1 0.2-0.1 0.3-0.1 0-0.2 0.1-0.3 0.1l-0.3-0.3c0-0.2 0.2-0.3 0.4-0.4 0 0 0.2 0.1 0.3 0.3z" fill="#231F20"/>
		<path d="m67.2 90.9v0.3c-0.1 0.2-0.3 0.3-0.5 0.2-0.1-0.1-0.3-0.2-0.2-0.4 0.2-0.3 0.5-0.4 0.7-0.1z" fill="#231F20"/>
		<path d="m28.7 91.2c0 0.1-0.1 0.3-0.3 0.3s-0.2-0.1-0.3-0.2c0-0.2 0-0.4 0.2-0.5 0.1-0.1 0.4 0.1 0.4 0.4z" fill="#231F20"/>
		<path d="m26.8 91.2c0.1 0.2-0.1 0.3-0.2 0.4-0.2 0.1-0.4-0.1-0.5-0.3 0-0.2 0.2-0.4 0.4-0.5 0.1 0.1 0.2 0.3 0.3 0.4z" fill="#231F20"/>
		<path d="m68.5 91.2c0 0.2 0 0.4-0.2 0.5s-0.4-0.1-0.5-0.3c0.1-0.2 0.1-0.4 0.4-0.4 0.1 0 0.2 0 0.3 0.2z" fill="#231F20"/>
		<path d="m27.7 91.3c0.1 0.1-0.1 0.2-0.1 0.3-0.1 0-0.2 0.1-0.3 0.1-0.1-0.1-0.2-0.1-0.3-0.3 0-0.2 0.1-0.3 0.3-0.4 0.2 0 0.3 0.1 0.4 0.3z" fill="#231F20"/>
		<path d="m80 91.4c-0.1 0.2-0.2 0.2-0.3 0.3-0.2 0-0.3-0.1-0.4-0.2s-0.1-0.3 0-0.4c0.2-0.2 0.7-0.1 0.7 0.3z" fill="#231F20"/>
		<path d="m81.5 91.5c-0.1 0.2-0.3 0.3-0.5 0.3-0.2-0.1-0.4-0.2-0.2-0.5 0.1-0.1 0.1-0.2 0.2-0.2 0.3 0 0.5 0.2 0.5 0.4z" fill="#231F20"/>
		<path d="m72.1 91.6c0.1 0.3-0.1 0.3-0.3 0.5-0.1 0-0.3-0.1-0.4-0.2 0-0.2 0.1-0.4 0.3-0.5 0.2 0 0.3 0.1 0.4 0.2z" fill="#231F20"/>
		<path d="m66.7 91.9c0.1 0 0.1 0.2 0 0.2-0.1 0.1-0.3 0.3-0.5 0.2-0.1-0.1-0.2-0.2-0.2-0.4 0.2-0.2 0.6-0.2 0.7 0z" fill="#231F20"/>
		<path d="m67.8 92c0 0.2 0 0.2-0.2 0.3-0.1 0.1-0.3 0-0.4-0.1 0-0.1-0.1-0.2 0-0.3s0.2-0.1 0.3-0.2c0.1 0.2 0.2 0.2 0.3 0.3z" fill="#231F20"/>
		<path d="m34.2 92c0.1 0.1 0 0.3 0 0.4-0.1 0.1-0.3 0.2-0.5 0.1s-0.2-0.3-0.1-0.5c0.1 0 0.1-0.2 0.3-0.2 0.1 0.1 0.2 0.1 0.3 0.2z" fill="#231F20"/>
		<path d="m74.3 92.1c0 0.2-0.2 0.3-0.3 0.3-0.2 0.1-0.4-0.1-0.5-0.3 0-0.1 0.1-0.2 0.2-0.3 0.2 0 0.4 0.2 0.6 0.3z" fill="#231F20"/>
		<path d="m73.2 92.1c0.1 0.2-0.1 0.3-0.2 0.4s-0.3 0-0.4-0.1-0.1-0.2-0.1-0.3l0.3-0.3c0.1 0.1 0.3 0.2 0.4 0.3z" fill="#231F20"/>
		<path d="m82.1 92.4c0 0.3-0.3 0.1-0.5 0.2-0.8 0.5-1.9 0.1-2.7-0.2 0.1-0.3 0.4-0.2 0.5-0.3 0.9-0.5 1.8 0.2 2.7 0.3z" fill="#231F20"/>
		<path d="m27.9 92.1l-0.1 0.1c-0.7 0.4-1.7 0.7-2.6 0.5l-0.1-0.1c0.8-0.5 1.8-0.7 2.8-0.5z" fill="#231F20"/>
		<path d="m76.3 92.3c0 0.2-0.1 0.3-0.2 0.4-0.2 0.1-0.5 0-0.5-0.2-0.1-0.2 0.1-0.3 0.3-0.4 0.1-0.1 0.3 0 0.4 0.2z" fill="#231F20"/>
		<path d="m31.5 92.3c-0.1 0.2 0 0.3-0.2 0.4s-0.4-0.1-0.5-0.3 0.1-0.3 0.2-0.4c0.2 0 0.3 0.2 0.5 0.3z" fill="#231F20"/>
		<path d="m30.1 92.4c0.1 0.1-0.1 0.2-0.1 0.3-0.1 0.1-0.3 0.1-0.4 0.1-0.1-0.1-0.3-0.3-0.2-0.5 0.1-0.1 0.2-0.2 0.3-0.2 0.1 0.1 0.3 0.1 0.4 0.3z" fill="#231F20"/>
		<path d="m77.7 92.9c0 0.2-0.2 0.3-0.3 0.4-0.2 0-0.3-0.1-0.4-0.2s0-0.3 0.1-0.4c0-0.1 0.2-0.1 0.3-0.1s0.2 0.1 0.3 0.3z" fill="#231F20"/>
		<path d="m28.6 92.7c0.1 0.2-0.1 0.2-0.1 0.3-0.1 0.3-0.3 0.6-0.4 0.9-0.4 0.5-0.9 0.5-1.4 0.6l-0.1-0.2c0.5-0.7 1.1-1.3 2-1.6z" fill="#231F20"/>
		<path d="m76.7 93.1c0 0.2-0.2 0.3-0.3 0.4-0.2 0-0.3-0.1-0.4-0.2-0.1-0.2 0.1-0.3 0.3-0.4 0.1-0.1 0.3 0.1 0.4 0.2z" fill="#231F20"/>
		<path d="m30.9 93.1c-0.1 0 0 0.1 0 0 0 0.3-0.1 0.4-0.2 0.5-0.2 0-0.3-0.1-0.4-0.2-0.1-0.2 0-0.4 0.2-0.5 0.1 0 0.3 0 0.4 0.2z" fill="#231F20"/>
		<path d="m80.3 93.7c0.2 0 0.2-0.3 0.5-0.3 0.2 0 0.4 0.1 0.5 0.2 0.1 0.2-0.1 0.4-0.3 0.5-0.1 0.1-0.4-0.1-0.4 0.1 0.1 0.1 0.3 0.2 0.3 0.4 0 0.1-0.2 0.1-0.2 0-0.6-0.2-1.2-0.6-1.4-1.2-0.1-0.2-0.5-0.3-0.2-0.5 0.4 0 0.9 0.4 1.2 0.8z" fill="#231F20"/>
		<path d="m82.2 93.1c0.1 0.1 0.1 0.3 0 0.4-0.1 0.2-0.4 0.1-0.6 0.1-0.1-0.1-0.2-0.2-0.2-0.4l0.3-0.3c0.2 0 0.4 0.1 0.5 0.2z" fill="#231F20"/>
		<path d="m75 94.2c0.2 0.2 0.4 0.6 0.4 0.8 0 0.1-0.1 0-0.2 0-0.7-0.4-1.5-0.8-1.8-1.6-0.1-0.1-0.2-0.2-0.2-0.3 0.5-0.1 1 0.3 1.4 0.6 0.2 0.1 0.4 0.2 0.4 0.5z" fill="#231F20"/>
		<path d="m29.8 93.4c0.1 0.2-0.1 0.3-0.2 0.4-0.2 0-0.3 0-0.5-0.2-0.1-0.2 0.1-0.4 0.3-0.5 0.2 0 0.3 0.2 0.4 0.3z" fill="#231F20"/>
		<path d="m77.5 93.9c0 0.1-0.1 0.2-0.2 0.3-0.2 0-0.3 0.1-0.5-0.1 0-0.1-0.1-0.3 0-0.4 0.3-0.3 0.6 0 0.7 0.2z" fill="#231F20"/>
		<path d="m82.4 94.1c0.1 0.2-0.1 0.4-0.3 0.5s-0.4-0.1-0.5-0.2 0-0.2 0-0.4c0.1-0.1 0.3-0.2 0.5-0.1s0.3 0.1 0.3 0.2z" fill="#231F20"/>
		<path d="m68.7 96.9c0 0.2-0.4 0.2-0.6 0.4-0.6 0.3-1.3 0.3-2.1 0.3v-0.1c0.8-0.7 1.8-0.9 2.7-0.6z" fill="#231F20"/>
		<path d="m39.8 97.8c0 0.2-0.1 0.3-0.3 0.3-0.1 0-0.3-0.1-0.3-0.2-0.1-0.2 0.1-0.3 0.3-0.4 0.1 0 0.3 0.1 0.3 0.3z" fill="#231F20"/>
		<path d="m68.4 98c0 0.2-0.1 0.4-0.3 0.5-0.2 0-0.3-0.1-0.4-0.1-0.1-0.1 0-0.2-0.1-0.3 0.1-0.5 0.7-0.5 0.8-0.1z" fill="#231F20"/>
		<path d="m72.3 98.1c-0.5 0.3-1 0.7-1.7 0.7h-1.1l-0.1-0.1c0.7-0.8 1.8-0.8 2.9-0.7v0.1z" fill="#231F20"/>
		<path d="m34.4 98.5c0 0.2-0.1 0.3-0.3 0.4-0.2 0-0.3 0-0.4-0.2s0-0.4 0.2-0.5 0.4 0.2 0.5 0.3z" fill="#231F20"/>
		<path d="m35.4 98.7c0.1 0.1 0 0.2-0.1 0.3s-0.3 0.1-0.4 0-0.2-0.2-0.1-0.3 0.2-0.1 0.2-0.2c0.2 0 0.3 0.1 0.4 0.2z" fill="#231F20"/>
		<path d="m27.8 100.8c-0.2 0.2-0.5-0.1-0.7-0.2-0.7-0.4-0.7-1.2-1.4-1.6 0.1-0.2 0.3 0 0.4 0 0.1 0.1 0.3 0.2 0.4 0.2 0.7 0.3 0.9 1 1.3 1.6z" fill="#231F20"/>
		<path d="m85.5 93c-0.3-0.6-0.9-0.8-1.5-0.8-0.5 0-0.9 0.4-1.1 0.8-0.1 0.4 0 0.8 0.4 1.1 0.1 0.1 0.3 0 0.4-0.1 0.1-0.3-0.2-0.3-0.2-0.5-0.1-0.3 0-0.5 0.2-0.7s0.5-0.1 0.8-0.1c0.2 0.2 0.5 0.3 0.6 0.6s0.1 0.7 0 1.1c-0.2 0.5-0.7 0.9-1.2 1-1.6 0.2-19.7 0.2-19.7 0.2-2.1 0.2-4.5-0.4-6.4 0.7-0.8 0.4-1.2 1.3-1.5 2.1-0.5 0.5-1.1 1-1.5 1.6l-0.1-0.1c0.1-0.5 0.3-0.9 0.4-1.4 0.3-0.4 0.3-0.9 0.5-1.4 0.8-1.2 1.5-2.5 2.6-3.3 0.5-0.7 1.4-0.5 2.1-0.5 0.8 0.4 1.8 0.5 2.8 0.4l0.1-0.1c-0.3-0.3-0.7-0.4-1-0.6-0.8-0.4-1.5 0.1-2.4 0.1l-0.1-0.1c0.8-0.6 1.6-1 2.5-1.3 0.7-0.4 1.4-0.6 2.2-0.9 0.3 0 0.6-0.3 0.9-0.1l1-0.3s0.1 0.1 0.2 0.1c0.9-0.3 2 0 3 0l0.1 0.1 1 0.2c0.4 0 0.5 0.5 0.9 0.5 0.2-0.3-0.2-0.4-0.3-0.6 0.4-0.1 0.9 0 1.3 0.2l-0.2 0.2c-0.1 0.2 0.1 0.4 0.2 0.5 0.1 0 0.2-0.1 0.3-0.1 0.3-0.2 0-0.4 0.1-0.5 1.5 0.3 2.9 0.6 4.2 1.2 0.4 0.1 0.7 0.4 1.1 0.4-0.4-0.4-1-0.6-1.5-0.8-0.3-0.2-0.8-0.2-1.1-0.5 0.1-0.1 0.2-0.1 0.3-0.1 0.7-0.1 1.2-0.6 1.7-1.1 0-0.1 0.3-0.1 0.2-0.2-0.2-0.2-0.5 0.1-0.7 0-0.8 0.2-1.2 1.1-2 1.3-1-0.2-2-0.5-3.1-0.7-0.5-0.1-1-0.1-1.5-0.3l-1.1-0.1h-2l-0.1-0.1c0.7-0.2 1.3-0.6 2-0.8l5.3-2.4c0.6-0.5 1-1.1 1.5-1.6 0-0.2-0.1-0.3-0.2-0.4s-0.3 0-0.4 0.1c-0.2 0.2 0 0.4 0 0.6-0.2 0.3-0.6 0.6-0.9 0.8-0.1 0-5.5 2.5-5.5 2.5-0.8 0.3-1.6 0.7-2.4 0.9l-1.1 0.2c-0.1 0.2-0.3 0.4-0.5 0.5-0.3 0.1-0.6 0.3-0.9 0.3-2.6 1-5.2 2.1-7.3 4.1 0.1-0.2 0.2-0.5 0.2-0.8s0-0.6-0.2-0.9c0-0.1-0.2-0.4-0.1-0.5l-0.3 0.2c-0.2 0.4-0.3 1.2-0.2 1.7 0.1 0.4 0.4 0.8 0.1 1.1-1 1.2-1.5 2.6-2.1 3.9-0.2 0-0.4-0.3-0.5-0.5 0.7-0.9 1.2-1.8 1.4-2.9 0.1-0.1 0-0.4 0.2-0.5 0-0.3 0.2-0.6 0-0.9 0.1-0.4-0.6-0.8-0.1-1.1l-0.3-0.4c-0.9 1.1 0.4 2.8-0.5 3.9v0.1c-0.3 0.4-0.4 0.7-0.8 1-0.5-0.2-0.7-0.7-0.9-1.1-0.4-0.4-0.4-1.3-0.2-1.9s-0.1-1.1-0.2-1.6l-0.2-0.1c-0.4 0.5-0.6 1.5-0.2 2.3 0.2 0.4 0.2 0.9 0.5 1.2 0.2 0.6 0.5 1 0.9 1.5 0.1 0.2-0.1 0.2-0.2 0.3-0.2-0.1-0.2-0.5-0.4-0.6-0.7-1.4-1.5-2.5-2.5-3.7 0-0.2-0.2-0.3-0.1-0.5 0.4-0.4 0.5-1.1 0.3-1.5 0-0.1-0.2-0.2-0.1-0.3l-0.3-0.2c0 0.7-0.4 1.3-0.2 2.1-2-1.5-4.3-2.9-6.6-4l-0.2 0.5c0.6 0.1 2.1 1.1 2.1 1.1 0.7 0.3 1.3 0.7 2 1.1 2.7 1.5 4.5 4 5.7 6.7 0 0.2 0.2 0.5 0.1 0.7-0.4-0.6-1-1-1.5-1.5-0.1-0.9-0.7-1.8-1.5-2.2-0.3-0.4-0.9-0.5-1.4-0.6h-7.2c-5.9-0.1-11.2 0.2-17 0.1-0.8-0.1-1.8-0.4-2-1.2-0.2-0.3-0.2-0.8 0-1.1 0.2-0.4 0.6-0.5 1-0.5 0.3 0 0.5 0.3 0.7 0.6 0 0.3-0.2 0.5-0.3 0.7 0 0.1 0.1 0.2 0.2 0.2 0.3-0.1 0.5-0.4 0.5-0.6 0-0.1 0.1-0.3-0.1-0.4-0.1-0.4-0.6-0.7-0.9-0.8-0.5 0-1 0.1-1.3 0.5-0.5 0.4-0.5 1.1-0.3 1.7 0.3 0.9 1.2 1.5 2.1 1.6l19.3 0.1c1.9 0.1 4-0.2 5.9 0.2 0.7 0.2 1.4 0.7 1.6 1.5h-0.1c-1.6-1-3.6-1.4-5.6-1.2-0.8 0-1.5 0.3-2.2 0.5-0.4 0.1-0.7-0.1-1-0.3-0.7-0.6-2-0.6-2.9-0.4v0.1c1-0.1 1.5 0.8 2.4 0.9 0.2 0 0.4-0.2 0.5 0-0.9 0.4-1.8 1-2.8 1.2-0.3-0.1-0.5-0.3-0.7-0.5-0.4-0.4-1.1-0.2-1.6-0.3-0.2 0-0.3-0.1-0.5 0 0.2 0.3 0.5 0.5 0.9 0.7 0.5 0.2 1.1 0 1.5 0.3-0.1 0.1-0.3 0.2-0.4 0.3-0.9 0.4-1.7 1.2-2.7 1.1-1.1 0.1-2.2-0.2-2.9-1-0.3-0.8-1.1-1.2-2-1.2-0.1 0-0.1 0-0.1 0.1 0.4 0.3 0.8 0.8 1.2 1.1 0.3 0.3 0.8 0 1.1 0.4 0.4 0.3 0.9 0.5 1.3 0.6 0.3 0.1 0.7 0.2 1 0.3l-0.1 0.1c-1.8 0.6-3.9 0.7-5.9 0.6-0.6 0-1.2-0.2-1.8-0.2 0.1 0.1 0.3 0.2 0.5 0.3-0.2 0.1-0.3 0.1-0.5 0.2s-0.5 0.1-0.8 0.2c-0.3 0-0.6 0.1-0.9 0.2-0.3 0.4-0.7 0.7-1.1 0.9 0 0.1 0 0.2 0.1 0.2 0.4-0.2 0.9 0 1.2-0.2 0.7-0.1 1-0.8 1.5-1.1 0.6-0.4 1.3-0.3 2-0.2 0.4 0.1 0 0.3 0.1 0.5 0.2 0.1 0.3 0.3 0.5 0.2l0.1-0.1c0.1-0.2 0.1-0.3 0-0.5 0.3-0.2 0.7 0 1-0.1 0.8 0 1.5-0.2 2.2-0.2 0.1 0 0.3-0.1 0.4 0-0.1 0.2-0.3 0.2-0.2 0.4 0 0.2 0.2 0.3 0.4 0.3 0.2-0.1 0.4-0.2 0.3-0.5 0-0.1-0.2-0.2-0.3-0.2 0.4-0.2 0.9-0.3 1.3-0.5 0.3-0.1 0.6-0.2 0.8-0.3 0.3 0 0.5-0.3 0.7-0.2-0.1 0.3-0.2 0.7-0.4 1-0.3 1.1-0.6 2.5 0 3.5h0.1c-0.4-1.1-0.2-2.3 0.2-3.3 0.3-1.7 2-2.2 3.3-2.8l0.1 0.1c-0.3 0.9-0.8 1.7-0.8 2.8 0 0.2-0.1 0.4 0 0.5 0.3-0.2 0.6-0.6 0.7-0.9 0.1-0.9-0.4-2 0.5-2.7 1.6-0.6 3.1-1.5 5-1.5 0.1 0.1 0.2 0 0.2 0.1-0.4 0.4-1 0.9-1.1 1.4-0.6 0.9-0.6 2.4-0.3 3.5 0.2 0.6-0.4 1-0.6 1.4-0.1 0.2-0.2 0.5-0.3 0.7h0.4c0.3-0.4 0.7-0.8 0.7-1.3 0 0.2 0.2 0.4 0.4 0.4 0.1-0.2-0.1-0.4-0.1-0.6 0.3-0.2 0.5 0.2 0.7 0.3 0.4 0.1 0.8 0.3 1.2 0.3l0.1-0.1c-0.4-0.7-1.3-0.8-2.1-0.8-0.4-0.7-0.4-1.5-0.4-2.3 0.1-0.4 0.2-0.9 0.4-1.2 0.1-0.3 0.4-0.5 0.6-0.8 0.4-0.3 0.8-0.6 1.2-0.7h0.1v0.1c-0.5 0.4-0.6 1-0.9 1.5s-0.5 1.2-0.2 1.7c0.1 0.3 0.1 0.7 0.3 0.8 0.3-0.4 0.3-0.8 0.4-1.2-0.1-0.7-0.5-1.3-0.1-1.9 0.2-0.5 0.6-0.7 1.1-0.9 1.1-0.1 2 0.5 3 0.9 0.2 0.1 0.5 0.3 0.6 0.5 0 0.5-0.3 1.1-0.7 1.3-0.5 0.3-1.3 0.4-1.8 0-0.3-0.3-0.4-0.8-0.3-1.2 0.2-0.2 0.5-0.4 0.9-0.3 0.2 0.1 0.4 0.3 0.6 0.2 0.1-0.1 0.1-0.2 0.1-0.3-0.4-0.9-0.5-1.2-0.8-1.2-0.4-0.1-0.8 0-1.1 0.2-0.4 0.4-0.6 0.9-0.5 1.4 0.1 0.6 0.6 1.1 1.2 1.3 0.9 0.2 1.9-0.1 2.4-0.8 0.2-0.3 0.3-0.5 0.4-0.9 1 0.6 1.7 1.6 2 2.6 0 0.3 0.1 0.7 0 1l0.7 0.1c-0.1-0.2 0-0.3 0.1-0.5 0.3-1.3 1.1-2.4 2-3.3 0.3-0.2 0.3 0.3 0.3 0.4 0.3 0.8 1 1.3 1.7 1.5 0.8 0.1 1.6-0.1 2.1-0.7 0.3-0.5 0.6-1.2 0.1-1.7-0.3-0.3-0.7-0.5-1.1-0.5-0.5 0-0.8 0.4-1.1 0.7 0 0.2 0 0.3 0.1 0.4 0.1 0 0.2 0 0.3-0.1 0-0.3 0.3-0.4 0.5-0.6 0.2-0.1 0.5 0 0.6 0.1 0.2 0.2 0.3 0.5 0.3 0.8 0 0.4-0.3 0.8-0.7 0.9-0.6 0.3-1.4 0.2-1.9-0.2l-0.6-0.9c0-0.3-0.2-0.6 0-0.9 0.9-0.5 1.8-0.9 2.8-1 0.4 0.1 0.8 0.4 1 0.7 0.9 0.9-0.2 2.3 0.4 3.3 0.2 0 0.2-0.4 0.3-0.6 0.3-0.7-0.1-1.5-0.3-2.2-0.2-0.4-0.4-0.8-0.8-1.2h0.2c0.4 0.3 0.9 0.6 1.2 1 0.6 0.9 0.9 2.1 0.8 3.3-0.2 0.6-0.8 0.9-1.3 1.1-0.2 0.2-0.4 0.4-0.5 0.6 0.2 0.1 0.6 0 0.8-0.1 0.4-0.1 0.6-0.6 0.9-0.8v0.1c0 0.2-0.1 0.5 0.1 0.6 0.1-0.3 0.1-0.7 0.2-1 0.3 0.3 0.3 0.6 0.4 1 0.2 0.4 0.5 0.8 1 0.9 0.1-0.2 0-0.4-0.1-0.5-0.1-0.5-0.5-0.8-0.8-1.1-0.7-1-0.4-2.5-0.9-3.5-0.2-0.6-0.6-1-1.1-1.5l0.1-0.1c1 0 1.8 0.3 2.7 0.5 1.1 0.5 2.7 0.4 3.2 1.8 0.2 0.8 0.6 1.5 1.1 2.2h0.1c0.1-0.2 0.1-0.5 0-0.7-0.1-1-1-1.2-1.4-2.1l0.1-0.1c0.5 0.1 1 0.3 1.4 0.5 1.6 0.4 2.7 2 2.9 3.6 0 1.3-0.2 2.3-0.7 3.4-0.1 0.2-0.3 0.3-0.2 0.5 0.2-0.2 0.3-0.4 0.4-0.6 0.7-1.1 1-2.6 0.7-4 0-0.3-0.3-0.5-0.2-0.7 0.1 0.1 0.2 0.1 0.3 0.2 0.1-0.1 0.3-0.1 0.4-0.2 0-0.1 0.1-0.3 0-0.4-0.1-0.2-0.4-0.2-0.6-0.1-0.1 0.1-0.2 0.3-0.2 0.4-0.2-0.3-0.4-0.8-0.7-1.1v-0.1c0.9 0.3 1.7 0.7 2.6 1 0.2 0.1 0.4 0.2 0.7 0.2 0.8 0.3 1.6 0.4 2.4 0.6 0.6-0.1 1.1 0.2 1.7 0.1-0.2-0.3-0.7 0-1-0.2-1.4-0.1-2.7-0.5-3.9-1 0-0.1 0.1 0 0.2 0 0.2-0.1 0.3-0.3 0.3-0.5-0.1-0.1-0.3-0.2-0.5-0.2-0.1 0.1-0.3 0.2-0.3 0.3 0 0.2 0.2 0.3 0.3 0.4h-0.2c-0.6-0.3-1.2-0.5-1.8-0.8-0.2 0-0.4-0.2-0.6-0.3-0.5-0.2-0.9-0.4-1.4-0.6-1.3-0.7-2.7-1-4-1.5-0.3-0.1-0.6-0.2-0.9-0.2-0.5-0.1-1-0.3-1.5-0.4-1.7-0.4-3.9-0.5-5.4 0.5-0.2-0.1-0.4 0.3-0.5 0.1 0.4-1.1 1.6-1.5 2.7-1.5 7.9-0.1 15.4-0.1 23.2-0.3 0.9 0 1.8-0.3 2.3-1.1 1.1-0.5 1.2-1.4 0.9-1.9zm-31.4 7.4c-0.1 0.2-0.2 0.4-0.2 0.7h-0.1c0.1-0.3-0.2-0.5-0.2-0.8-0.2-0.2-0.2-0.5-0.3-0.8-0.2-0.3 0.2-0.5 0.3-0.7 0.3 0.1 0.4 0.4 0.6 0.6 0.1 0.4-0.2 0.7-0.1 1z" fill="#231F20"/>
		<path d="m75.5 99.1c0 0.1 0.1 0.1 0.1 0.2-0.7 0.6-1.7 0.8-2.7 0.8-0.1 0-0.2 0.1-0.3 0.1s-0.1-0.1 0-0.1c0.8-0.8 1.9-1.2 2.9-1z" fill="#231F20"/>
		<path d="m72.4 99.4c0.1 0.3-0.1 0.4-0.3 0.5-0.2 0-0.3-0.2-0.4-0.3-0.1-0.2 0.1-0.2 0.1-0.3 0.1-0.1 0.5-0.1 0.6 0.1z" fill="#231F20"/>
		<path d="m34.7 99.5c0 0.1 0 0.3-0.1 0.4s-0.3 0.1-0.4 0.1-0.2-0.2-0.3-0.3c0-0.2 0.1-0.3 0.3-0.4 0.2 0 0.4 0 0.5 0.2z" fill="#231F20"/>
		<path d="m31.2 100.8v0.1c-0.5 0.1-0.9 0-1.3-0.3-0.3-0.4-0.6-0.8-1.1-1 0-0.1-0.1-0.1 0-0.2 1 0 1.6 0.8 2.4 1.4z" fill="#231F20"/>
		<path d="m78.6 99.5c-0.5 0.7-0.9 1.5-1.7 1.8-0.1 0-0.3 0.2-0.4 0.1 0.3-0.8 1-1.6 1.8-1.9 0.1-0.1 0.2-0.1 0.3 0z" fill="#231F20"/>
		<path d="m35.9 99.7c0 0.2-0.1 0.3-0.3 0.4-0.2 0-0.2-0.1-0.3-0.2-0.1-0.2 0.1-0.3 0.2-0.4s0.3 0.1 0.4 0.2z" fill="#231F20"/>
		<path d="m81.1 99.8c-0.2 0.3-0.1 0.6-0.3 0.9-0.4 0.5-0.7 1-1.4 1.1-0.1-0.2 0.1-0.4 0.2-0.6 0.3-0.6 0.7-1.3 1.3-1.5l0.2 0.1z" fill="#231F20"/>
		<path d="m25 100c0.1 0.1 0.1 0.3 0 0.4s-0.3 0.1-0.5 0.1c-0.2-0.1-0.2-0.3-0.2-0.5 0.2-0.1 0.6-0.2 0.7 0z" fill="#231F20"/>
		<path d="m23.9 100.2c0 0.1 0.1 0.2 0.1 0.3-0.1 0.1-0.2 0.2-0.3 0.2-0.2 0-0.4-0.1-0.5-0.3 0-0.2 0-0.3 0.2-0.4 0.2 0 0.4 0.1 0.5 0.2z" fill="#231F20"/>
		<path d="m26.2 100.4c0 0.2 0.1 0.4-0.2 0.5s-0.4-0.1-0.6-0.2c0-0.2 0.1-0.3 0.2-0.4 0.3-0.1 0.5-0.1 0.6 0.1z" fill="#231F20"/>
		<path d="m29.5 100.6c0 0.1 0 0.3-0.1 0.4s-0.3 0.1-0.4 0c0-0.1-0.3-0.2-0.1-0.4 0.1-0.1 0.2-0.2 0.3-0.2 0 0.1 0.2 0.1 0.3 0.2z" fill="#231F20"/>
		<path d="m83 100.8c-0.1 0.1-0.1 0.3-0.3 0.3s-0.4 0-0.5-0.2 0.1-0.3 0.3-0.4c0.2 0 0.4 0 0.5 0.3z" fill="#231F20"/>
		<path d="m79.3 100.8c0 0.2-0.2 0.3-0.2 0.3-0.3 0.1-0.5-0.1-0.6-0.3 0-0.2 0.2-0.3 0.3-0.4 0.3 0.1 0.4 0.2 0.5 0.4z" fill="#231F20"/>
		<path d="m81.8 100.8c0 0.1-0.1 0.3-0.2 0.3-0.2 0.1-0.4 0-0.5-0.1-0.2-0.2 0-0.3 0.1-0.4 0.2-0.1 0.5 0 0.6 0.2z" fill="#231F20"/>
		<path d="m24.5 101.1c0 0.2 0 0.4-0.2 0.5-0.2 0-0.4-0.1-0.4-0.3s0-0.4 0.2-0.4c0.1 0 0.3 0.1 0.4 0.2z" fill="#231F20"/>
		<path d="m78.3 101.4c0.1 0.2-0.1 0.4-0.3 0.5-0.2 0-0.3 0-0.4-0.1s-0.2-0.3 0-0.4c0.2-0.4 0.6-0.3 0.7 0z" fill="#231F20"/>
		<path d="m35.2 101.6c0.1 0.2-0.2 0.3-0.2 0.4-0.1 0-0.2 0.1-0.3 0s-0.2-0.2-0.2-0.4c0.1-0.1 0.1-0.2 0.3-0.2 0.2-0.1 0.2 0.1 0.4 0.2z" fill="#231F20"/>
		<path d="m82.6 101.7c0 0.1-0.1 0.2-0.1 0.3-0.1 0.1-0.3 0.1-0.5 0.1-0.2-0.1-0.2-0.3-0.2-0.4 0.1-0.1 0.1-0.2 0.3-0.2 0.2-0.1 0.4 0 0.5 0.2z" fill="#231F20"/>
		<path d="m81.4 101.8c0.1 0.2-0.1 0.4-0.3 0.4-0.1 0-0.2 0-0.2 0.1 0.5 0.3 0.8 0.7 1.2 1.1v0.2c-0.7 0-1.4-0.2-2-0.8-0.1-0.1-0.4-0.1-0.5-0.2 0.3-0.3 0.7-0.2 1.1-0.2 0.3-0.3-0.3-0.5 0-0.7 0.1 0 0.2-0.1 0.4-0.1 0.1 0 0.2 0.1 0.3 0.2z" fill="#231F20"/>
		<path d="m73.3 101.8c0 0.1-0.1 0.2-0.1 0.3-0.1 0.1-0.3 0.1-0.4 0.1-0.1-0.1-0.3-0.3-0.2-0.5 0.1-0.3 0.6-0.2 0.7 0.1z" fill="#231F20"/>
		<path d="m29 102.5c-0.1 0.2-0.1 0.3-0.3 0.3s-0.3-0.1-0.4-0.2c0-0.1 0.1-0.2 0.1-0.3 0.2-0.2 0.6-0.1 0.6 0.2z" fill="#231F20"/>
		<path d="m30.6 102.2c0 0.3-0.3 0.4-0.4 0.7-0.3 0.7-0.8 1.3-1.6 1.3-0.1-0.2 0.3-0.4 0.3-0.6 0.3-0.7 1-1 1.5-1.5h0.2v0.1z" fill="#231F20"/>
		<path d="m72.8 102.5c0 0.2-0.2 0.4-0.3 0.5-0.2 0.1-0.3-0.1-0.4-0.2-0.2-0.2-0.1-0.3 0-0.5 0.2-0.2 0.5 0 0.7 0.2z" fill="#231F20"/>
		<path d="m74 102.7c0 0.2-0.2 0.4-0.4 0.4 0-0.1-0.1 0-0.2 0-0.1-0.1-0.3-0.2-0.3-0.4 0.1-0.1 0.1-0.3 0.3-0.3 0.3 0 0.6 0 0.6 0.3z" fill="#231F20"/>
		<path d="m33.7 102.6c0 0.2-0.1 0.3-0.3 0.4-0.2 0-0.3-0.1-0.4-0.2 0-0.2 0.1-0.3 0.2-0.4 0.3-0.1 0.3 0.1 0.5 0.2z" fill="#231F20"/>
		<path d="m35 102.7c-0.1 0.2-0.2 0.3-0.4 0.3-0.1 0-0.3-0.1-0.4-0.2 0-0.2 0.1-0.3 0.3-0.4 0.3 0 0.5 0.1 0.5 0.3z" fill="#231F20"/>
		<path d="m78.3 104.1c0.1 0.1 0.3 0.2 0.2 0.3-0.3 0.1-0.6-0.2-0.9-0.3-0.5-0.5-0.8-1-1-1.6 0.2-0.2 0.4 0 0.5 0.1 0.5 0.4 0.9 0.9 1.2 1.5z" fill="#231F20"/>
		<path d="m79 102.7c0.1 0.1 0 0.3 0 0.4-0.1 0.2-0.4 0.2-0.6 0.1-0.1-0.1-0.3-0.3-0.2-0.5s0.2-0.2 0.4-0.3c0.2 0.1 0.3 0.3 0.4 0.3z" fill="#231F20"/>
		<path d="m36.8 103.2c0 0.2 0.1 0.4-0.1 0.5-0.2 0-0.4 0-0.5-0.2s0.1-0.3 0.2-0.4c0.2 0 0.3 0 0.4 0.1z" fill="#231F20"/>
		<path d="m74 104.5c0.3 0.4 0.5 0.9 0.5 1.4-0.1 0.1 0.1 0.3 0 0.4h-0.1c-0.9-0.6-1.1-1.5-1.4-2.4-0.1 0-0.1-0.1-0.1-0.2 0.2-0.2 0.3 0.2 0.5 0.2l0.6 0.6z" fill="#231F20"/>
		<path d="m39.4 103.9c-0.8 0.6-1.9 0.9-2.8 0.4 0-0.1 0-0.2 0.1-0.2 0.6-0.2 1.1-0.5 1.7-0.4l1 0.2z" fill="#231F20"/>
		<path d="m34.9 104c-0.7 0.4-1.3 1.2-2.1 1.4-0.2 0.1-0.3 0.3-0.5 0.2 0.4-1.1 1.5-1.7 2.6-1.8v0.2z" fill="#231F20"/>
		<path d="m72.8 104.9c0.1 0.2 0 0.4-0.2 0.4-0.1 0.1-0.3 0.1-0.4 0-0.2-0.1-0.2-0.3-0.2-0.4 0.1-0.1 0.2-0.2 0.3-0.2 0.3 0 0.4 0 0.5 0.2z" fill="#231F20"/>
		<path d="m71.2 105c-0.1 0.3-0.5 0.4-0.7 0.5-0.7 0.2-1.3-0.1-1.9-0.2 0-0.2 0.2-0.1 0.3-0.2 0.7-0.1 1.3-0.3 2-0.1 0.1-0.1 0.2-0.1 0.3 0z" fill="#231F20"/>
		<path d="m34.9 105.5c-0.1 0.1-0.1 0.3-0.2 0.3-0.1 0.1-0.3 0-0.4-0.1 0-0.1-0.2-0.2-0.1-0.4 0-0.1 0.2-0.2 0.3-0.2 0.2 0.1 0.4 0.2 0.4 0.4z" fill="#231F20"/>
		<path d="m36.1 105.7c-0.1 0.1-0.1 0.3-0.3 0.4-0.2 0-0.3 0-0.4-0.1s-0.1-0.3-0.1-0.4 0.2-0.1 0.3-0.2c0.2 0 0.4 0.2 0.5 0.3z" fill="#231F20"/>
		<path d="m72.4 105.9c0 0.2-0.1 0.3-0.1 0.4-0.1 0.1-0.3 0.2-0.4 0.1-0.1 0-0.2-0.2-0.2-0.3-0.1-0.2 0.1-0.3 0.1-0.4 0.2-0.2 0.5-0.1 0.6 0.2z" fill="#231F20"/>
		<path d="m73.3 105.9c0 0.1 0.1 0.2 0 0.3s-0.2 0.4-0.4 0.3c-0.1 0-0.2-0.1-0.2-0.2-0.1-0.2 0-0.5 0.2-0.5 0.2-0.1 0.3 0 0.4 0.1z" fill="#231F20"/>
		<path d="m35.4 106.5c0 0.2 0 0.4-0.2 0.5-0.2 0-0.5 0-0.6-0.2 0-0.2 0-0.5 0.2-0.6 0.2 0 0.5 0 0.6 0.3z" fill="#231F20"/>
		<path d="m36.5 106.4c0 0.6-0.2 1.2-0.7 1.6-0.3 0.1-0.6 0.4-1 0.2v-0.2c0.4-0.6 1.2-1.1 1.7-1.6z" fill="#231F20"/>
		<path d="m69.3 106.8c0.1 0.1-0.1 0.2-0.1 0.3-0.1 0.1-0.3 0.1-0.5 0-0.1-0.1-0.2-0.3-0.1-0.4 0-0.1 0.2-0.2 0.3-0.2 0.2 0 0.3 0.2 0.4 0.3z" fill="#231F20"/>
		<path d="m38.5 107.8c0.3 0.5 0.1 1.1 0.3 1.6-0.3 0-0.5-0.3-0.7-0.5-0.4-0.6-0.4-1.4-0.6-2.1 0-0.1 0.1-0.1 0.1 0 0.3 0.2 0.5 0.6 0.8 0.8-0.1 0 0.1 0 0.1 0.2z" fill="#231F20"/>
		<path d="m70.3 107c0 0.2-0.2 0.2-0.3 0.3-0.1 0-0.3-0.1-0.4-0.2-0.1-0.2 0.1-0.3 0.2-0.4 0.2 0 0.4 0.1 0.5 0.3z" fill="#231F20"/>
		<path d="m72.7 108.8c0 0.1 0 0.2-0.1 0.1h-0.1c-0.6-0.5-1.1-1.1-1.1-1.9h0.1c0.5 0.5 1.1 0.9 1.2 1.8z" fill="#231F20"/>
		<path d="m71.2 108.1c0 0.2-0.1 0.3-0.2 0.4-0.2 0.1-0.6 0-0.6-0.3 0-0.2 0.2-0.3 0.3-0.4 0.2 0 0.4 0.1 0.5 0.3z" fill="#231F20"/>
		<path d="m69.9 108.5c-0.3 0.7-1 1.1-1.5 1.7-0.1-0.1-0.1-0.2 0-0.3 0.2-0.8 0.8-1.5 1.5-1.8 0.2 0.1-0.1 0.3 0 0.4z" fill="#231F20"/>
		<path d="m71.3 109.1c0 0.2-0.2 0.3-0.3 0.4-0.2 0-0.3-0.1-0.4-0.2 0-0.2 0.1-0.3 0.3-0.4 0.2 0 0.4 0.1 0.4 0.2z" fill="#231F20"/>
		<path d="m56.6 72.9c0.3 0 0.5 0.2 0.5 0.5s-0.2 0.5-0.5 0.5h-5.9c-0.3 0-0.5-0.2-0.5-0.5s0.2-0.5 0.5-0.5h5.9zm-4.1 0.9c0.6 0 0-0.7-0.3-0.7h-0.6c-0.6 0 0 0.7 0.3 0.7h0.6zm2.4 0c0.6 0 0-0.7-0.3-0.7h-0.6c-0.6 0 0 0.7 0.3 0.7h0.6zm1.7-0.7h-0.2c-0.6 0-0.1 0.7 0.2 0.7 0.4 0 0.4-0.7 0-0.7z" fill="#231F20"/>
		<path d="m56.1 79.7l1.1 0.4 1.1-0.4-0.4 1.7 0.9-0.2-0.3 1 0.3 1-0.8-0.3 0.3 1.8-1.1-0.4-1.1 0.4 0.5-1.8-0.9 0.3 0.2-1-0.2-1 0.9 0.1-0.5-1.6zm1.7 3c0.3 0 0.3-0.3 0.3-0.6 0-0.7-0.5 0-0.8-0.6-0.2 0.5-0.8 0-0.8 0.6 0 0.4 0 0.7 0.4 0.7h0.9v-0.1zm-1.1-0.7c0 0.3 0.3 0.1 0.6 0.1s0.6 0.2 0.6-0.1c0-0.4-0.3-0.2-0.6-0.2s-0.6-0.1-0.6 0.2z" fill="#231F20"/>
		<polygon points="53.5 82.1 53.5 81.9 53.3 81.9 53.4 81.7 53.3 81.5 53.5 81.6 53.6 81.3 53.8 81.6 54 81.5 53.9 81.7 54 81.9 53.8 81.9 53.8 82.1 53.6 82" fill="#231F20"/>
		<polygon points="52.6 83.2 52.6 83 52.4 83 52.6 82.8 52.5 82.7 52.7 82.7 52.8 82.5 52.9 82.7 53.1 82.7 53 82.8 53.1 83 53 83 53 83.2 52.8 83.1" fill="#231F20"/>
		<polygon points="54.1 83.1 54.1 82.9 53.9 82.8 54 82.7 53.9 82.5 54.1 82.5 54.3 82.3 54.4 82.5 54.6 82.5 54.5 82.7 54.6 82.8 54.4 82.9 54.4 83.1 54.3 82.9" fill="#231F20"/>
		<polygon points="54.3 83.9 54.3 83.8 54.1 83.8 54.2 83.7 54.2 83.6 54.3 83.6 54.4 83.5 54.4 83.6 54.5 83.6 54.5 83.7 54.6 83.8 54.5 83.8 54.5 83.9 54.4 83.8" fill="#231F20"/>
		<polygon points="52.9 84.9 52.9 84.5 52.6 84.5 52.8 84.2 52.7 83.9 53 83.9 53.2 83.6 53.4 83.9 53.7 83.9 53.6 84.2 53.8 84.5 53.5 84.5 53.5 84.9 53.2 84.6" fill="#231F20"/>
		<polygon points="53.6 66.1 54.3 67.8 56 67.3 55.1 68.9 56.6 69.9 54.8 70.2 54.9 72.1 53.6 70.9 52.2 72.1 52.3 70.2 50.5 69.9 52 68.9 51.1 67.3 52.9 67.8" fill="#231F20"/>
		<path d="m47.2 104.5c-0.2 0.1-0.3 0.1-0.2 0.4l0.2 1.1c0 0.2 0.1 0.5-0.1 0.7s-0.5 0.4-0.7 0.4-0.5 0.1-0.8 0c-0.2-0.1-0.3-0.2-0.4-0.5l-0.3-1.1c-0.1-0.3-0.2-0.3-0.4-0.2v-0.1l1.3-0.3v0.1c-0.3 0.1-0.4 0.1-0.3 0.4l0.3 1.1c0 0.2 0.2 0.6 0.7 0.5 0.7-0.2 0.6-0.7 0.5-0.9l-0.2-1c0-0.2-0.1-0.3-0.5-0.2v-0.1l0.9-0.3z" fill="#231F20"/>
		<path d="m49.2 104.7c-0.1-0.2-0.4-0.5-0.9-0.4-0.2 0-0.4 0.2-0.4 0.4s0.1 0.2 0.5 0.3l0.6 0.1c0.1 0 0.5 0.2 0.6 0.5s-0.1 0.7-0.8 0.9c-0.4 0.1-0.6 0-0.7 0s-0.1 0.1-0.1 0.1h-0.1l-0.2-0.8h0.1c0.2 0.3 0.5 0.6 1 0.5s0.4-0.4 0.4-0.5c0-0.2-0.3-0.3-0.5-0.3h-0.3c-0.7-0.1-0.8-0.4-0.8-0.6s0-0.7 0.7-0.8c0.3-0.1 0.5 0 0.6 0s0.1-0.1 0.1-0.1h0.1l0.2 0.7h-0.1z" fill="#231F20"/>
		<path d="m51.8 106.1l-1.4 0.1v-0.1c0.3 0 0.4-0.1 0.4-0.3l-0.2-1.8c-0.3 0-0.7 0.1-0.7 0.6h-0.1l-0.1-0.7 2.4-0.2 0.1 0.7h-0.1c-0.1-0.5-0.5-0.5-0.8-0.5l0.2 1.8c-0.1 0.3 0 0.3 0.3 0.4z" fill="#231F20"/>
		<path d="m55.1 106.1h-0.8l-0.8-1.1h-0.1v0.7c0 0.3 0.1 0.3 0.3 0.3v0.1h-1.4v-0.1c0.3 0 0.4 0 0.4-0.3v-1.5c0-0.3-0.1-0.3-0.3-0.3v-0.1h1.3c0.3 0 1.1 0 1.1 0.6 0 0.4-0.4 0.5-0.6 0.6l0.8 1s0.1 0 0.1 0.1zm-1.7-1.2c0.5 0 0.7-0.1 0.7-0.5 0-0.3-0.2-0.5-0.5-0.5-0.2 0-0.2 0-0.3 0.1l0.1 0.9z" fill="#231F20"/>
		<path d="m57.8 106.4l-1.3-0.2v-0.1c0.3 0 0.3 0 0.3-0.1s-0.1-0.4-0.1-0.5l-0.9-0.1-0.2 0.4c0 0.1 0.2 0.2 0.3 0.2v0.1l-0.8-0.1v-0.1c0.2 0 0.3-0.1 0.4-0.3l1.1-1.7h0.1l0.7 1.9c0.1 0.4 0.2 0.5 0.4 0.6zm-1.1-1l-0.3-0.9-0.5 0.8 0.8 0.1z" fill="#231F20"/>
		<path d="m60.1 106.9l-2.3-0.4v-0.1c0.2 0 0.3 0 0.4-0.2l0.3-1.6c0-0.2-0.1-0.3-0.3-0.3v-0.1l1.4 0.3v0.1c-0.3 0-0.4-0.1-0.5 0.2l-0.3 1.6c0 0.2 0.1 0.2 0.3 0.3 0.6 0.1 0.9-0.1 1.1-0.5h0.1l-0.2 0.7z" fill="#231F20"/>
		<path d="m61.7 107.2l-1.4-0.3v-0.1c0.2 0 0.4 0 0.4-0.2l0.3-1.6c0-0.2-0.1-0.3-0.3-0.3v-0.1l1.4 0.3v0.1c-0.2 0-0.4-0.1-0.4 0.2l-0.3 1.6c-0.1 0.2 0.1 0.3 0.3 0.4z" fill="#231F20"/>
		<path d="m64.5 107.6l-1.3-0.1v-0.1c0.3 0 0.3 0 0.3-0.1s-0.1-0.4-0.1-0.5l-0.9-0.1-0.2 0.4c0 0.1 0.2 0.2 0.3 0.2v0.1l-0.8-0.1v-0.1c0.2 0 0.3-0.1 0.4-0.4l1.1-1.8h0.1l0.7 1.9c0.1 0.5 0.2 0.6 0.4 0.7zm-1.2-0.9l-0.3-0.9-0.5 0.8 0.8 0.1z" fill="#231F20"/>
		<path d="m54.1 80.2c0-0.8-0.5-0.1-0.7-0.7-0.2 0.6-0.7 0.1-0.7 0.7 0 0.2 0.1 0.4 0.2 0.5v0.2c0 0.1 0.1 0.1 0.1 0.1h0.9c0.1 0 0.1-0.1 0.1-0.1v-0.3c0.1-0.1 0.1-0.2 0.1-0.4zm-0.7 0.2c-0.2 0-0.6 0.2-0.6-0.1 0-0.4 0.3-0.3 0.5-0.3s0.6-0.1 0.6 0.3c0.1 0.2-0.2 0.1-0.5 0.1z" fill="#231F20"/>
		<path d="m61.2 90.2c0.2 0 0.4-0.1 0.4-0.3s-0.2-0.3-0.4-0.3-0.4 0.1-0.4 0.3 0.2 0.3 0.4 0.3z" fill="#231F20"/>
		<path d="m59.5 78.2s-0.2 0.3-0.2 0.4 0.1 0.2 0.2 0.2 0.2-0.1 0.2-0.2c-0.1-0.1-0.2-0.4-0.2-0.4z" fill="#231F20"/>
		<path d="m47.5 78.2s-0.2 0.3-0.2 0.4 0.1 0.2 0.2 0.2 0.2-0.1 0.2-0.2c0-0.1-0.2-0.4-0.2-0.4z" fill="#231F20"/>
		<path d="m50.5 78.2s-0.2 0.3-0.2 0.4 0.1 0.2 0.2 0.2 0.2-0.1 0.2-0.2-0.2-0.4-0.2-0.4z" fill="#231F20"/>
		<path d="m53.5 78.2s-0.2 0.3-0.2 0.4 0.1 0.2 0.2 0.2 0.2-0.1 0.2-0.2-0.2-0.4-0.2-0.4z" fill="#231F20"/>
		<path d="m56.5 78.2s-0.2 0.3-0.2 0.4 0.1 0.2 0.2 0.2 0.2-0.1 0.2-0.2-0.2-0.4-0.2-0.4z" fill="#231F20"/>
		<path d="m47.5 82.3s0.2 0.3 0.2 0.4-0.1 0.2-0.2 0.2-0.2-0.1-0.2-0.2c0-0.1 0.2-0.4 0.2-0.4z" fill="#231F20"/>
		<path d="m47.5 86.2s0.2 0.3 0.2 0.4-0.1 0.2-0.2 0.2-0.2-0.1-0.2-0.2l0.2-0.4z" fill="#231F20"/>
		<path d="m48 89.4s0.2 0.3 0.2 0.4-0.1 0.2-0.2 0.2-0.2-0.1-0.2-0.2 0.2-0.4 0.2-0.4z" fill="#231F20"/>
		<path d="m50.5 91.1l0.2 0.3c0 0.1-0.1 0.2-0.2 0.2s-0.2-0.1-0.2-0.2l0.2-0.3z" fill="#231F20"/>
		<path d="m59.6 82.3s-0.2 0.3-0.2 0.4 0.1 0.2 0.2 0.2 0.2-0.1 0.2-0.2-0.2-0.4-0.2-0.4z" fill="#231F20"/>
		<path d="m59.6 86.2s-0.2 0.3-0.2 0.4 0.1 0.2 0.2 0.2 0.2-0.1 0.2-0.2l-0.2-0.4z" fill="#231F20"/>
		<path d="m59.1 89.4s-0.2 0.3-0.2 0.4 0.1 0.2 0.2 0.2 0.2-0.1 0.2-0.2-0.2-0.4-0.2-0.4z" fill="#231F20"/>
		<path d="m56.6 91.1l-0.2 0.3c0 0.1 0.1 0.2 0.2 0.2s0.2-0.1 0.2-0.2l-0.2-0.3z" fill="#231F20"/>
		<path d="m53.6 92.9l-0.2 0.3c0 0.1 0.1 0.2 0.2 0.2s0.2-0.1 0.2-0.2l-0.2-0.3z" fill="#231F20"/>
		<path d="m58.4 86.9c0 0.1 0.1 0.1 0.3 0l0.1-0.3s-0.1-0.2-0.2-0.1c-0.3 0.1-0.7 0.1-0.8 0.4 0 0.2 0.2 0.4 0.3 0.5 0.1 0 0.1 0.1 0.2 0.1 0 0.1 0 0.2-0.1 0.2-0.2-0.2-0.6 0.1-0.8-0.2 0.1-0.3 0.2-0.6 0-0.9 0-0.1 0.1-0.1 0.1-0.2-0.1-0.3-0.4-0.1-0.5-0.1-0.3 0-0.5 0.1-0.7 0.3 0 0.1 0.1 0.2 0.2 0.3 0.1 0 0.1 0 0.1 0.1l-0.2 0.1c0.1 0.1 0.1 0.1 0.1 0.2-0.1 0.1-0.3-0.1-0.3-0.2 0-0.2 0-0.4-0.2-0.5l-0.2 0.1c0 0.1-0.1 0.2-0.1 0.3s0.1 0.3 0.1 0.3 0.6 0.4 0.7 0.7c-0.2 0.3-0.2 0.8-0.6 1-0.1 0.1-0.1 0.2-0.1 0.3l0.1 0.1c0.2-0.1 0.7-0.2 0.7-0.6 0.1-0.2 0.2-0.4 0.4-0.5 0.2 0 0.4 0.1 0.4 0.2-0.1 0.3-0.2 0.5-0.5 0.6v0.2c0.1 0.1 0.3 0.1 0.4 0.1 0.3-0.2 0.5-0.6 0.7-0.7 0 0.2-0.4 0.2-0.1 0.4 0.2 0 0.4 0 0.5-0.2-0.1-0.3 0.5-0.5 0.1-0.8 0-0.3 0.3-0.4 0.3-0.7-0.1-0.3-0.5-0.3-0.6-0.6 0 0 0.1 0.1 0.2 0.1z" fill="#231F20"/>
		<path d="m44.7 90.4c0.2 0 0.4-0.1 0.4-0.3s-0.2-0.3-0.4-0.3-0.4 0.1-0.4 0.3c0 0.1 0.2 0.3 0.4 0.3z" fill="#231F20"/>
		<path d="m25.3 101.7c0.2 0 0.4-0.2 0.4-0.4s-0.2-0.4-0.4-0.4c-0.2 0-0.4 0.2-0.4 0.4s0.2 0.4 0.4 0.4z" fill="#231F20"/>
		<path d="m37.6 104.4z" fill="#231F20"/>
		<path d="m37.7 104.4z" fill="#231F20"/>
		<path d="m37.8 104.4h-0.1 0.1c-0.1 0-0.1 0 0 0z" fill="#231F20"/>
		<path d="m37.8 104.4s0.1 0 0 0c0.1 0 0.1 0 0 0 0.1 0 0 0 0 0 0.1 0 0.1 0 0 0 0.1 0 0.1 0 0 0zm0.1 0c-0.1 0-0.1 0 0 0-0.1 0-0.1 0 0 0z" fill="#231F20"/>
		<path d="m37.9 104.4z" fill="#231F20"/>
		<path d="m60.5 77.7h-13.8v10.5c0 1.1 0.5 2 1.1 2.3l5.3 3.4c0.1 0.1 0.3 0.2 0.5 0.2s0.3-0.1 0.4-0.2l5.4-3.4c0.6-0.3 1.1-1.2 1.1-2.3v-10.5zm-0.4 10.7c-0.1 0.8-0.3 1.5-0.9 1.8l-5.2 3.3c-0.1 0.1-0.2 0.1-0.4 0.1s-0.3-0.1-0.4-0.1l-5.2-3.3c-0.6-0.4-0.8-1-0.9-1.8v-10.4h13v10.4z" fill="#231F20"/>
		<path d="m55.4 93l0.2-0.1c-0.1 0.1-0.1 0.1-0.2 0.1z" fill="#231F20"/>
		<path d="m45 107.5l-1.3 0.2v-0.1c0.2 0 0.3-0.1 0.3-0.2s-0.2-0.3-0.2-0.4l-0.9 0.1c-0.1 0.3-0.1 0.4-0.1 0.5s0.2 0.1 0.3 0.1v0.1l-0.8 0.1v-0.1c0.2-0.1 0.3-0.2 0.3-0.4l0.7-1.9h0.1l1.1 1.7c0.2 0.1 0.3 0.2 0.5 0.3zm-1.3-0.7l-0.5-0.8-0.3 0.9 0.8-0.1z" fill="#231F20"/>
		<path d="m67.9 102.5c-0.2-0.6-0.7-1-1.3-1.2-0.6-0.1-1.3 0-1.7 0.4-0.7 0.6-0.2 1.5-0.2 2.3 0 0.2 0 0.3-0.1 0.4-2.9-0.3-5.5-1-8.4-1.3-0.7-0.1-1.3-0.1-1.9-0.2l-0.8-0.1c-2.5 0.1-5 0.2-7.3 0.8-0.5 0.2-1 0.2-1.5 0.4-0.4-0.1-0.7 0.2-1 0.1l-0.7 0.2h-0.2c-0.3-0.8 0.6-1.3 0.3-2.1-0.3-0.5-0.8-0.9-1.4-0.8-0.7-0.1-1.3 0.3-1.6 0.8-0.5 1 0.1 2 0.3 3 0 0.3 0.3 0.7 0 0.9-0.6-0.4-1.5-0.7-2.2-0.5-0.2 0.1-0.7 0-0.8 0.2 0.9 0.5 1.9 0.4 2.9 0.4 0.1 0 0.2-0.1 0.3 0 0.1 0.5-0.1 1.2 0.2 1.7 0.4 0.5 1 0.6 1.5 0.7 1.8-0.1 3.4-0.6 5.1-1 0.3 0 0.5-0.2 0.7-0.2 0.9-0.2 1.9-0.4 2.8-0.4-0.4 0.5-0.7 1.1-0.8 1.8-0.2 0.5 0.4 0.6 0.6 0.9-0.6 0.2-1 0.6-1.6 0.8-1.3 0-2.3 0.4-3.5 0.6 0 0.3 0.4 0.2 0.5 0.4-0.1 0.2-0.2 0.2-0.4 0.3 0 0.1 0 0.1 0.1 0.2 0.1-0.1 0.4 0 0.5-0.2 0.4 0 0.7-0.1 1.1-0.1 0.3-0.1 0.7-0.2 1-0.4 0.4-0.1 0.7-0.4 1.1-0.5 0.6 0 1.1-0.2 1.7-0.2v0.1c-0.5 0.7-0.9 1.5-1.4 2.2-0.1 0.1 0 0.3 0.1 0.3 0.3 0.1 0.6 0 0.8-0.1 0.4-0.7 0.8-1.4 1.1-2.1 0.1-0.7 0.6-1 1.1-1.5 0.1 0 0.2-0.2 0.3 0-0.4 0.5-0.7 0.9-1 1.4-0.2 0.6-0.2 1.3 0.3 1.7 0.2 0.2 0.6 0.1 0.9 0.2 0.8-0.4 1.8 0.2 2.4-0.5 0.4-0.1 0.4 0.4 0.6 0.6 0.3 0.1 0.7 0.4 1 0.2 0-0.2-0.3-0.4-0.4-0.6-0.2-0.4-0.5-0.8-0.8-1.1-0.1-0.3-0.3-0.5-0.3-0.7 0.4 0.1 0.7 0.4 1.1 0.4 0.3 0.1 0.8 0.1 1.1 0.3 0.3 0.3 0.7 0.5 1 0.8 0.5 0.2 1 0.3 1.6 0.5 0.2 0 0.5 0.2 0.6 0-0.1-0.1-0.2-0.2-0.3-0.2-0.1-0.3 0.4-0.1 0.5-0.3 0-0.1-0.1-0.1-0.2-0.2-0.3-0.2-1-0.2-1.2-0.3-0.2 0-0.5-0.1-0.7-0.2-1.2 0-1.8-1.1-2.8-1.5 0.2-0.2 0.6-0.4 0.7-0.7 0.2-0.3 0.2-0.7 0.1-1.1-0.2-0.6-1-0.5-1.4-0.9l0.1-0.1c0.8 0 1.4 0.1 2.1 0.3 1.9 0.3 3.7 1 5.6 1 1.1 0 2.5 0.1 3-1 0.1-0.6 0.2-1.2 0.3-1.9 0.2-1.1 0.9-2 0.8-3.1zm-21.4 9.1l-0.3-0.3c0.1-0.2 0.4-0.1 0.7-0.2 0.5-0.2 1.1-0.4 1.7-0.2-0.7 0.5-1.4 0.6-2.1 0.7zm12.3-0.3c0.5 0.2 1.4 0.4 2.1 0.5-0.1 0.3-0.5 0-0.5 0.4-0.6-0.2-1.3-0.4-1.8-0.8 0.1-0.1 0.2-0.1 0.2-0.1zm-18.5-8.5c0.1-0.4 0.1-0.7 0.5-1 0.5-0.3 1.1-0.2 1.6 0.1 0.1 0.1 0.2 0.2 0.3 0.4 0.1 0.3-0.1 0.7-0.3 0.9h-0.2c0-0.3 0-0.6 0.1-0.9 0-0.2-0.2-0.3-0.4-0.4-0.3-0.1-0.6 0.1-0.9 0.2-0.2 0.2-0.4 0.5-0.3 0.9 0.1 0.2 0 0.5 0.1 0.8l-0.1 0.1c-0.2-0.3-0.5-0.6-0.4-1.1zm0.9 0.6c0.3 0.2 0.7 0.1 1.1 0.2 0.1 0.2 0.1 0.5-0.1 0.7-0.3-0.1-0.8 0-1-0.4 0-0.1-0.1-0.3 0-0.5zm-0.1-0.7c0.1-0.2 0-0.4 0.2-0.4 0.1 0 0.4 0 0.4 0.1 0 0.2 0 0.5-0.1 0.7-0.3 0-0.4-0.1-0.5-0.4zm9.3 6.4c-0.1-0.7 0.2-1.3 0.6-1.8 0.3-0.1 0.6-0.1 0.9 0-0.5 0.1-1.2 0.3-1.3 0.9 0 0.3-0.1 0.4 0.1 0.6 0.2 0.4 0.7 0.2 1 0.5 0 0.1-0.1 0.2-0.2 0.2-0.4 0-0.8-0.1-1.1-0.4zm-0.7 1.4c0.5-0.2 1-0.6 1.5-0.4-0.4 0.3-1 0.4-1.5 0.4zm1.9 0.2c-0.3 0.6-0.6 1.3-1 1.9 0 0.1-0.2 0.1-0.3 0.1 0-0.3 0.3-0.5 0.4-0.7 0.4-0.5 0.5-1.1 1-1.6 0.1 0.1-0.1 0.1-0.1 0.3zm0.5-1.2zm-0.2-0.5c-0.3 0-0.7-0.1-1-0.2-0.2-0.2 0-0.4 0-0.6 0.3-0.4 1.1-0.7 1.4-0.3 0 0.4-0.1 0.8-0.4 1.1zm0.4 0c0.1-0.3 0.2-0.6 0.3-0.8 0 0.2-0.1 0.6-0.3 0.8zm0.3-1.6c-0.3-0.1-0.4-0.4-0.7-0.4 0.2-0.1 0.5-0.1 0.8 0 0 0.2-0.1 0.3-0.1 0.4zm0.2 0.6v-0.2 0.2zm0 0.9c0-0.1 0-0.2 0.1-0.3s0.2 0.1 0.2 0.1c-0.1 0.2-0.2 0.2-0.3 0.2zm0.3-1.2c0.1-0.3 0.1-0.5 0.3-0.7 0.2 0 0.4 0 0.5 0.1 0 0.4 0.5 0.9 0 1.3-0.2 0.1-0.4 0.3-0.6 0.1-0.3-0.3-0.3-0.6-0.2-0.8zm1.5-0.6c0-0.2 0.2 0 0.3-0.1h0.6c-0.4 0-0.8 0.7-0.9 0.1zm0.9 0.3c-0.2 0.1-0.4 0.4-0.7 0.4 0.2-0.2 0.5-0.4 0.7-0.4zm-0.8 1.2zm0.1 1.2v0.1l-0.5-0.4c0.2 0.1 0.3 0.2 0.5 0.3zm-0.6-0.6h0.2-0.2zm-0.3-0.3c0.1-0.1 0.2-0.3 0.3-0.3v0.1c0 0.1-0.1 0.2-0.3 0.2zm-0.4 0v-0.1c0.1 0 0 0 0 0.1zm0 0.7c0.3-0.3 0.5 0.2 0.6 0.4 0.3 0.4 1.1 0.8 0.8 1.4-0.4 0.3-1 0-1.4 0.3-0.2 0-0.6 0-0.7-0.2 0.2-0.6 0.4-1.3 0.7-1.9zm-0.5 0.4l0.1-0.2c-0.2 0.5-0.4 1-0.7 1.4-0.1-0.4 0.4-0.8 0.6-1.2zm0.9 2.4c-0.4 0-1 0.2-1.3-0.1 0-0.2-0.2-0.2-0.1-0.4 0.3-0.1 0.6 0.3 0.9 0 0.5 0 0.9-0.1 1.4 0 0.2 0.1 0.6-0.4 0.6 0.1-0.3 0.6-1.1 0.2-1.5 0.4zm1.1-2.9zm0.1 1.3c0 0.2 0.2 0.3 0.1 0.5 0-0.2-0.1-0.3-0.1-0.5zm0.6 1.2c-0.2 0-0.2-0.3-0.1-0.4 0.1 0.1 0.2 0.2 0.1 0.4zm1 0.4c0 0.1-0.1 0.1-0.2 0-0.6-0.8-0.9-1.6-1.2-2.4h0.1c0.4 0.8 0.8 1.7 1.3 2.4zm0.7-1.8v0c-0.6 0.1-1-0.2-1.4-0.5v-0.1c0.5 0 0.9 0.3 1.4 0.6zm-0.5-2.7c0.2 0.1 0.3 0.3 0.3 0.5 0 0.4-0.3 0.8-0.7 1-0.2 0.1-0.6 0.2-0.8 0.1 0.5 0 1-0.2 1.2-0.7v-0.9zm-0.4 0c0.1 0.3 0.3 0.5 0.2 0.9-0.2 0.4-0.6 0.4-1 0.5-0.2 0-0.3 0-0.5-0.1 0-0.1 0-0.1-0.1-0.2 0.1-0.3-0.5-0.5-0.1-0.7 0.4-0.5 1.1-1.1 1.5-0.4zm10-1.5c-0.2 0.2 0 0.5-0.2 0.7 0 0.4-0.3 0.5-0.6 0.7-2.4 0.5-4.7-0.3-7-0.7-3.2-0.7-6.9-0.9-10.2-0.2-1.5 0.3-3 0.6-4.5 1.1-0.9 0.1-1.9 0.3-2.8 0-0.7-0.3-0.4-1.3-0.6-1.9 0-0.5-0.1-0.9-0.2-1.4-0.1-0.2-0.1-0.4-0.1-0.5 0.3 0 0.6 0.3 0.9 0.3 1.7 0.3 3.1-0.2 4.7-0.5 1.5-0.3 3-0.6 4.6-0.7 1.8 0 3.6-0.1 5.3 0.2 0.6 0 1 0.2 1.6 0.2 1.1 0.1 2.1 0.4 3.3 0.5 0.2 0.1 0.4 0.1 0.6 0.1 1.8 0.3 3.8 0.8 5.5 0 0.1 0.8-0.2 1.4-0.3 2.1zm-0.5-2.4c0 0.3-0.3 0.2-0.4 0.4h-0.6c-0.1-0.2-0.1-0.4-0.1-0.6 0.4 0 0.8 0 1.1 0.2zm-0.3-0.5c0.2-0.2-0.1-1.5 0.6-0.7 0 0.2 0 0.4-0.1 0.5s-0.3 0.3-0.5 0.2zm1.6-0.2c-0.2 0.4-0.5 0.6-0.9 0.7 0-0.5 0.5-0.8 0.3-1.4-0.3-0.4-0.8-0.5-1.2-0.4-0.2 0.1-0.1 0.3-0.2 0.5l-0.1 0.7c-0.4 0-0.4-0.4-0.5-0.6 0-0.4 0.2-0.8 0.6-1 0.3-0.2 0.8-0.1 1.1 0s0.6 0.2 0.7 0.4c0.4 0.2 0.3 0.7 0.2 1.1z" fill="#231F20"/>
	<line y2="95.9" x1="92.2" x2="326" stroke="#231F20" y1="95.9" stroke-width=".5" fill="none"/>
	<rect y="102" x="90.9" height="28" width="240.9" fill="none"/>
	<text font-size="12.43" font-family="&apos;TimesNewRomanPS-BoldMT&apos;" transform="matrix(.98 0 0 1 90.946 110.21)" fill="#231F20">Department of Communications and the Arts</text>
</svg>
