<?xml version="1.0" standalone="no"?><!DOCTYPE svg PUBLIC "-//W3C//DTD SVG 1.1//EN" "http://www.w3.org/Graphics/SVG/1.1/DTD/svg11.dtd"><svg width="100%" height="100%" viewBox="0 0 67 30" version="1.1" xmlns="http://www.w3.org/2000/svg" xmlns:xlink="http://www.w3.org/1999/xlink" xml:space="preserve" style="fill-rule:evenodd;clip-rule:evenodd;stroke-linecap:round;stroke-miterlimit:1.41421;"><g><path d="M1.949,7.325c8.775,8.475 21.3,16.2 40.35,20.25" style="fill:none;stroke-width:2.25px;stroke:#000;"/><path d="M11.024,5.675c8.25,6.825 21.3,13.875 39,17.85" style="fill:none;stroke-width:1.5px;stroke:#000;"/><path d="M17.549,2.75c8.1,6.825 22.65,13.875 41.325,16.425" style="fill:none;stroke-width:0.75px;stroke:#000;"/><path d="M26.324,1.175c8.7,6.375 20.925,11.55 39.225,13.65" style="fill:none;stroke-width:0.75px;stroke:#000;"/></g><g><path d="M61.274,7.7c-5.625,3.3 -9.3,9.525 -13.95,12.45c-7.575,4.8 -16.725,2.7 -23.925,8.775" style="fill:none;stroke-width:0.75px;stroke:#000;"/><path d="M53.399,4.85c-7.875,2.475 -8.4,9.3 -13.95,12.6c-8.025,4.8 -17.1,1.425 -24.525,8.4" style="fill:none;stroke-width:0.75px;stroke:#000;"/><path d="M46.199,2.375c-7.5,1.275 -9.525,7.65 -15.3,11.1c-7.425,4.425 -15.6,1.575 -22.875,7.125" style="fill:none;stroke-width:0.75px;stroke:#000;"/><path d="M37.499,0.65c-6.975,1.8 -7.425,6.15 -13.05,8.475c-7.2,2.925 -15,3.45 -22.65,6.525" style="fill:none;stroke-width:0.75px;stroke:#000;"/></g></svg>