<?xml version="1.0" encoding="utf-8"?>
<svg xmlns="http://www.w3.org/2000/svg"
	xmlns:xlink="http://www.w3.org/1999/xlink"
	width="33px" height="50px">
<path fill="rgb(153,153,153)" fill-rule="evenodd" d="M 32.12 16.35C 32.12 25.61 27.89 30.05 24.15 33.97 22.13 36.09 20.22 38.09 19.14 40.68 18 43.41 15.64 49.08 8.53 49.08 2.17 49.08 0.2 42.62 0.2 40.27 0.2 39.67 0.7 39.18 1.32 39.18 1.94 39.18 2.44 39.67 2.44 40.27 2.44 40.34 2.99 46.9 8.53 46.9 13.7 46.9 15.65 43.27 17.07 39.86 18.3 36.9 20.35 34.75 22.51 32.48 26.14 28.68 29.89 24.75 29.89 16.35 29.89 7.96 23.07 2.76 16.75 2.76 9.37 2.76 4.42 8.18 4.42 13.25 4.42 13.85 3.92 14.34 3.3 14.34 2.68 14.34 2.18 13.85 2.18 13.25 2.18 5.67 9.71 0.58 16.75 0.58 24.14 0.58 32.12 6.61 32.12 16.35ZM 5.14 32.77C 5.14 33.74 5.75 36.76 9.23 36.76 13.19 36.76 15.73 31.51 13.14 24.83 9.98 16.67 13.78 8.94 18.72 8.94 25.43 8.94 24.95 17.11 24.95 17.11 24.95 17.11 25.17 15.99 25.17 14.69 25.17 10.15 21.85 7.46 17.99 7.46 14.68 7.46 11.58 8.87 9.75 15.57 8.4 20.47 5.15 18.83 5.15 22.02 5.15 23.96 9.65 23.74 9.65 26.32 9.65 29.85 5.14 28.88 5.14 32.77ZM 24.95 17.11C 24.95 17.11 24.95 17.11 24.95 17.11 24.95 17.11 24.95 17.11 24.95 17.11 24.95 17.11 24.95 17.11 24.95 17.11Z"/>
</svg>