<svg viewBox="0 0 51 50" preserveAspectRatio="xMidYMid meet" version="1.1" xmlns="http://www.w3.org/2000/svg" xmlns:xlink="http://www.w3.org/1999/xlink" xmlns:sketch="http://www.bohemiancoding.com/sketch/ns">
    <g id="poll_topic" stroke="none" stroke-width="1" fill="none" fill-rule="evenodd" sketch:type="MSPage">
        <path d="M25.2065841,0 C11.5306998,0 0.402679113,9.90945674 0.402679113,22.0925553 C0.402679113,27.9476861 2.93040146,33.4305835 7.55281005,37.5955734 C7.3312567,42.7162978 3.25266088,45.7042254 1.26875131,47.1629779 C0.886068247,47.444668 0.573879432,47.6760563 0.362396685,47.8571429 C0.0804196906,48.0985915 -0.0404275929,48.4708249 0.0502078697,48.832998 C0.130772725,49.195171 0.402679113,49.4768612 0.765220964,49.5774648 C1.82263469,49.8591549 2.98075449,50 4.20936854,50 C9.85897905,50 16.5660033,46.9114688 20.4834694,43.7726358 C22.0645547,44.0442656 23.64564,44.1750503 25.2065841,44.1750503 C38.8925389,44.1750503 50.0205596,34.2655936 50.0205596,22.0925553 C50.0205596,9.90945674 38.8925389,0 25.2065841,0 L25.2065841,0 Z M25.2065841,42.1730382 C23.6154282,42.1730382 21.9940604,42.0221328 20.3928339,41.7203219 C20.1007863,41.6599598 19.7885975,41.7404427 19.5670442,41.9315895 C15.9114138,45.0100604 8.87205957,48.2796781 3.50442606,47.9879276 C5.89115991,46.1267606 9.56693145,42.6559356 9.56693145,37.1529175 C9.56693145,36.861167 9.43601356,36.5895372 9.2144602,36.3983903 C4.82367557,32.5855131 2.39665929,27.5050302 2.39665929,22.0925553 C2.39665929,11.0060362 12.628396,2.00201207 25.2065841,2.00201207 C37.7847721,2.00201207 48.0265794,11.0060362 48.0265794,22.0925553 C48.0265794,33.1690141 37.7847721,42.1730382 25.2065841,42.1730382 L25.2065841,42.1730382 Z M14.0987046,31.0060362 L20.1007863,31.0060362 L20.1007863,15 L14.0987046,15 L14.0987046,31.0060362 L14.0987046,31.0060362 Z M16.1027554,17.0020121 L18.0967355,17.0020121 L18.0967355,29.0040241 L16.1027554,29.0040241 L16.1027554,17.0020121 L16.1027554,17.0020121 Z M30.100899,31.0060362 L36.1029808,31.0060362 L36.1029808,10.9959759 L30.100899,10.9959759 L30.100899,31.0060362 L30.100899,31.0060362 Z M32.0948792,12.9979879 L34.09893,12.9979879 L34.09893,29.0040241 L32.0948792,29.0040241 L32.0948792,12.9979879 L32.0948792,12.9979879 Z M22.0947665,31.0060362 L28.0968482,31.0060362 L28.0968482,20 L22.0947665,20 L22.0947665,31.0060362 L22.0947665,31.0060362 Z M24.0988173,22.0020121 L26.1028681,22.0020121 L26.1028681,29.0040241 L24.0988173,29.0040241 L24.0988173,22.0020121 L24.0988173,22.0020121 Z" id="Shape" fill="#999999" sketch:type="MSShapeGroup"></path>
    </g>
</svg>
