<svg xmlns="http://www.w3.org/2000/svg" width="35" height="35" viewBox="0 0 35 35"><path fill-rule="evenodd" clip-rule="evenodd" fill="#02B0EB" d="M17.5 0c9.7 0 17.5 7.8 17.5 17.5s-7.8 17.5-17.5 17.5-17.5-7.8-17.5-17.5 7.8-17.5 17.5-17.5z"/><path fill="#FFF" d="M25.5 12.3c-.1-.1-.2-.1-.4-.1-.2.1-.4.2-.6.2.3-.3.4-.7.6-1.1 0-.1 0-.3-.1-.4-.1-.1-.3-.1-.4 0-.6.3-1.1.6-1.8.7-.7-.6-1.5-1-2.5-1-2 0-3.5 1.6-3.5 3.5v.4c-2.3-.2-4.5-1.4-6-3.2-.1-.1-.2-.1-.3-.1-.1 0-.2.1-.3.2-.1.6-.2 1.2-.2 1.8 0 .8.2 1.5.7 2.1-.1 0-.2-.1-.2-.1-.1-.1-.2-.1-.3 0-.1.1-.2.2-.2.3 0 1.2.6 2.2 1.5 2.9-.1 0-.2 0-.3.1-.1.1-.1.2-.1.3.4 1.2 1.3 2 2.4 2.3-.9.6-2 .8-3.1.8h-.7c-.2 0-.3.1-.3.2-.1.1 0 .3.1.4 1.5 1 3.3 1.5 5.1 1.5 5.9 0 9.5-4.8 9.5-9.5v-.3c.6-.5 1.1-1 1.5-1.6.1 0 0-.2-.1-.3z"/></svg>