<?xml version="1.0" encoding="utf-8"?>
<!-- Generator: Adobe Illustrator 18.1.1, SVG Export Plug-In . SVG Version: 6.00 Build 0)  -->
<!DOCTYPE svg PUBLIC "-//W3C//DTD SVG 1.1//EN" "http://www.w3.org/Graphics/SVG/1.1/DTD/svg11.dtd">
<svg version="1.1"
	 id="svg7100" inkscape:version="0.91 r13725" sodipodi:docname="consultation.svg" xmlns:inkscape="http://www.inkscape.org/namespaces/inkscape" xmlns:rdf="http://www.w3.org/1999/02/22-rdf-syntax-ns#" xmlns:cc="http://creativecommons.org/ns#" xmlns:svg="http://www.w3.org/2000/svg" xmlns:dc="http://purl.org/dc/elements/1.1/" xmlns:sodipodi="http://sodipodi.sourceforge.net/DTD/sodipodi-0.dtd"
	 xmlns="http://www.w3.org/2000/svg" xmlns:xlink="http://www.w3.org/1999/xlink" x="0px" y="0px" viewBox="-471.6 247.5 41.7 45.8"
	 enable-background="new -471.6 247.5 41.7 45.8" xml:space="preserve">
<sodipodi:namedview  id="base" inkscape:document-units="px" fit-margin-right="0" fit-margin-bottom="0" inkscape:current-layer="layer1" inkscape:window-y="0" inkscape:window-x="0" inkscape:pageshadow="2" inkscape:pageopacity="0.0" inkscape:window-width="1920" inkscape:window-height="855" inkscape:window-maximized="1" pagecolor="#ffffff" bordercolor="#666666" fit-margin-left="0" inkscape:cx="-351.43931" inkscape:zoom="0.35" inkscape:cy="83.860715" fit-margin-top="0" showgrid="false" borderopacity="1.0">
	</sodipodi:namedview>
<g>
	
		<line fill="none" stroke="#6A6A6A" stroke-width="2" stroke-linecap="round" stroke-linejoin="round" stroke-miterlimit="10" x1="-456" y1="292.3" x2="-470.5" y2="251.9"/>
	<path fill="none" stroke="#6A6A6A" stroke-width="2" stroke-linecap="round" stroke-linejoin="round" stroke-miterlimit="10" d="
		M-469.5,254.8c0,0,5.6-6.1,15.4-6.1c5.9,0,8.7,3.9,13.6,3.9c4.9,0,9.6-3.9,9.6-3.9v25.1c0,0-3.5,1.9-7.7,1.9
		c-4.2,0-5.9-1.9-11.6-1.9c-5.4,0-10.5,5.2-10.5,5.2L-469.5,254.8z"/>
	<path fill="#6A6A6A" d="M-469.5,254.8c0,0,2.9-3.1,6.8-4.4l3,7.7c0,0-3.9,1.4-7.1,4.4l-2.7-7.5"/>
	<path fill="#6A6A6A" d="M-459.6,258.1l3.2,8.3c0,0,2.5-0.9,4.3-0.9c1.8,0,3.5,0.3,3.5,0.3l-2.4-8.8c0,0-0.7-0.1-1.5-0.1
		C-456.4,256.9-459.6,258.1-459.6,258.1z"/>
	<path fill="#6A6A6A" d="M-463.5,271.3l2.7,7.8c0,0,3.8-3.6,7.4-4.7l-3-7.9C-459.9,267.8-463.5,271.3-463.5,271.3z"/>
	<path fill="#6A6A6A" d="M-453.1,248.8l2.2,8.2c1.8,0,6.6,2.4,6.6,2.4l-1.9-8.4C-447.3,250.5-450.2,248.9-453.1,248.8z"/>
	<path fill="#6A6A6A" d="M-448.6,265.8l2.2,8.4c1.1,0,4.4,1.4,5.8,1.4l-1.9-8.3C-444.3,266.8-447.2,266-448.6,265.8z"/>
	<path fill="#6A6A6A" d="M-444.3,259.3l1.8,8c0,0,1.8,0.3,3.1,0.3c1.2,0,2.8-0.3,2.8-0.3l-0.6-7.3c0,0-1.2,0.4-2.7,0.4
		C-442.2,260.4-444.3,259.3-444.3,259.3z"/>
	<path fill="#6A6A6A" d="M-437.8,252.2l0.6,7.9c0,0,3-0.7,6.2-3.2l0-8.2C-434.7,251.6-437.8,252.2-437.8,252.2z"/>
	<path fill="#6A6A6A" d="M-436.6,267.4c0,0,2.9-0.5,5.6-2.1v8.6c-3,1.4-5,1.7-5,1.7L-436.6,267.4z"/>
</g>
</svg>
