<svg viewBox="0 0 38 67" preserveAspectRatio="xMidYMid meet" version="1.1" xmlns="http://www.w3.org/2000/svg" xmlns:xlink="http://www.w3.org/1999/xlink" xmlns:sketch="http://www.bohemiancoding.com/sketch/ns">
  <g id="03_phone" sketch:type="MSLayerGroup" fill="#0E3E3E">
    <path d="M31.6,0.8 L5.8,0.8 C2.5,0.8 0.6,2.7 0.1,6.5 L0.1,6.6 L0.1,6.7 L0.1,60.4 C0.1,63.9 2.7,66.8 5.8,66.8 L31.6,66.8 C34.7,66.8 37.1,64 37.1,60.4 L37.1,6.8 C37.1,3.3 34.9,0.8 31.6,0.8 L31.6,0.8 Z M35,60.5 C35,62.9 33.5,64.8 31.6,64.8 L5.8,64.8 C3.8,64.8 2.2,62.9 2.2,60.5 L2.2,6.9 C2.7,3.5 4.2,3.1 5.8,3.1 L31.6,3.1 C33.7,3.1 35,4.6 35,6.8 C35,6.8 35,60.5 35,60.5 L35,60.5 Z" id="Shape"></path>
    <path d="M21.2,8.4 C21.6,8.4 21.9,8.6 21.9,8.8 C21.9,9 21.6,9.2 21.2,9.2 L16.1,9.2 C15.7,9.2 15.4,9 15.4,8.8 C15.4,8.6 15.7,8.4 16.1,8.4 L21.2,8.4 L21.2,8.4 Z M21.2,7.3 L16.1,7.3 C15,7.3 14.3,7.9 14.3,8.8 C14.3,9.7 15,10.3 16.1,10.3 L21.2,10.3 C22.3,10.3 23,9.7 23,8.8 C23,8 22.1,7.3 21.2,7.3 L21.2,7.3 L21.2,7.3 Z" id="Shape"></path>
    <path d="M33.4,15.7 L3.9,15.7 C3.6,15.7 3.4,15.5 3.4,15.2 C3.4,14.9 3.6,14.7 3.9,14.7 L33.4,14.7 C33.7,14.7 33.9,14.9 33.9,15.2 C33.9,15.5 33.7,15.7 33.4,15.7 L33.4,15.7 Z" id="Shape"></path>
    <circle id="Oval" cx="18.6" cy="5.2" r="1"></circle>
    <path d="M18.5,56.1 C20.2,56.1 21.7,57.5 21.7,59.3 C21.7,61 20.3,62.5 18.5,62.5 C16.8,62.5 15.3,61.1 15.3,59.3 C15.3,57.6 16.7,56.1 18.5,56.1 L18.5,56.1 Z M18.5,55 C16.2,55 14.2,56.9 14.2,59.3 C14.2,61.7 16.1,63.6 18.5,63.6 C20.9,63.6 22.8,61.7 22.8,59.3 C22.7,57 20.8,55 18.5,55 L18.5,55 L18.5,55 Z" id="Shape"></path>
    <path d="M3.1,11.5 L3.1,54 L33.9,54 L33.9,11.5 L3.1,11.5 L3.1,11.5 Z M32.9,52.9 L4.2,52.9 L4.2,12.5 L32.9,12.5 L32.9,52.9 L32.9,52.9 Z" id="Shape"></path>
  </g>
</svg>
