<svg version="1.1" id="Layer_1" xmlns="http://www.w3.org/2000/svg" xmlns:xlink="http://www.w3.org/1999/xlink" x="0px" y="0px"
	 viewBox="0 0 263.3 295.6" preserveAspectRatio="xMidYMid meet" enable-background="new 0 0 263.3 295.6" xml:space="preserve">
<path fill="#111111" d="M233.5,133.2c0-0.2,0-0.4,0-0.6c0-0.2,0-0.4,0-0.6V5.8c0-3.2-2.6-5.8-5.8-5.8H35.5c-3.2,0-5.8,2.6-5.8,5.8
	v126.3c0,0.2,0,0.4,0.1,0.6c0,0.2-0.1,0.4-0.1,0.6l-0.1,0.1L233.5,133.2L233.5,133.2z M219.1,123.4H44.2V14.5h174.8V123.4z"/>
<path fill="#111111" d="M233,131.9H28.4L5.2,143.6c-8.1,3.2-6.5,15.6,3.8,15.6h248.3c4,0,11.4-10.8-0.2-16.2L233,131.9z"/>
<g>
	<g>
		<path d="M49.2,193.4l-18,53.7H37l5.5-16.7h20.8l5.5,16.7h5.9l-18-53.7H49.2z M44,225.8l8.9-27.8h0.2l8.7,27.8H44z M87.9,193.4
			h-5.4V247h0.1v0.1h29v-4.6H87.8L87.9,193.4z M123.9,221.6h20.7V217H124v-19h23.3l0.6-4.6h-29.4v53.7h30.3v-4.6h-24.9V221.6z
			 M189.2,220.8c2-2.4,3-6.2,3-11.3c0-6.8-1.9-11.3-5.6-13.5c-1.9-1-3.8-1.8-5.8-2.1c-2-0.4-4.5-0.5-7.4-0.5h-15.7v53.7h5.5V226h3.8
			l4.9,0.1h2.6l15.7,22.4l4.3-2.9l-13.8-20.1C184.3,224.8,187.2,223.2,189.2,220.8z M168.7,221.3h-5.4v-22.9h9.1c5.3,0,9,0.7,11,2.1
			c2,1.4,3,4.5,3,9.4c0,4.9-0.8,8-2.4,9.4c-1.6,1.4-4.6,2.1-9.1,2.1L168.7,221.3z M196.8,193.4v4.6h14.9v49.1h5.4V198h15v-4.6H196.8
			z"/>
	</g>
</g>
<g>
	<g>
		<path fill="#2478AB" d="M42.6,177.9c-0.5-0.3-1.4-0.8-2.8-1.4c-1.4-0.6-2.4-1.1-3.1-1.6c-0.8-0.5-1.2-1.2-1.2-2
			c0-1.1,0.3-1.9,0.9-2.3c0.6-0.5,1.6-0.7,3-0.7c1.4,0,2.7,0.2,3.8,0.5l0.3-1.3c-1.4-0.4-2.8-0.7-4.4-0.7c-1.6,0-2.9,0.4-3.9,1.2
			s-1.5,2-1.5,3.4c0,0.9,0.2,1.6,0.7,2.1c0.3,0.3,0.5,0.6,0.8,0.8c0.2,0.2,0.6,0.5,1.2,0.7c0.5,0.3,1,0.5,1.3,0.7
			c0.3,0.2,0.7,0.3,1.1,0.5c0.4,0.2,0.8,0.4,1.1,0.5l1,0.5c0.3,0.2,0.7,0.5,1.1,0.9c0.4,0.4,0.6,1,0.6,1.7c0,1.3-0.3,2.1-1,2.6
			c-0.7,0.5-1.8,0.7-3.3,0.7c-1.6,0-3-0.3-4.4-0.8l-0.4,1.5c1.5,0.5,3.1,0.8,4.9,0.8c4.2,0,6.3-1.6,6.3-4.9
			C44.5,179.9,43.9,178.7,42.6,177.9z M50,172.6v-2.1h-1.3l-0.3,2.3l-1.2,0.5v0.8h1.1c0.1,0,0.1,0,0.1,0.1v8.3l1.1,3.4l0.1,0.1h1.2
			l-0.7-3.5v-8.4c0-0.1,0.1-0.1,0.2-0.1l2.2,0l0.2-1.2h-1.6C50.4,172.8,50,172.8,50,172.6z M64.6,182.6c0-0.4,0-0.9,0-1.4l0-3.2
			c0-2.1-0.3-3.5-0.8-4c-0.8-0.9-2-1.4-3.4-1.4c-1,0-2.5,0.3-4.7,1l0.2,1.3c2.2-0.5,3.7-0.7,4.5-0.7c0.8,0,1.4,0.2,1.8,0.7
			c0.4,0.5,0.6,1.3,0.6,2.4v1.7c-2-0.1-3-0.2-3.2-0.2c-1.4,0-2.6,0.3-3.4,0.8c-0.8,0.5-1.2,1.5-1.2,3c0,1.1,0.3,1.9,0.9,2.5
			c0.6,0.6,1.4,0.9,2.5,0.9c1.6-0.1,3.2-0.6,4.8-1.8l0.6,1.5l0.1,0.1h1.2l0-0.1L64.6,182.6z M62.8,183.1c-0.3,0.4-0.9,0.7-1.8,1
			c-0.9,0.3-1.8,0.4-2.5,0.4c-0.7,0-1.2-0.2-1.5-0.5c-0.3-0.3-0.4-0.9-0.4-1.7c0-0.8,0.2-1.4,0.6-1.7c0.4-0.3,1.3-0.4,2.7-0.4
			l2.8,0.1V183.1z M73.5,184.1l-4-11.2h-1.9l5,13.1l-0.8,2.1c-0.5,1.3-1.4,1.9-2.8,1.9c-0.4,0-1-0.1-1.6-0.3l-0.6,1.1
			c1,0.3,1.9,0.5,2.7,0.5c1.9,0,3.2-0.9,4-2.7l5.8-15.8h-1.8L73.5,184.1z M97.1,177.9c-0.5-0.3-1.4-0.8-2.8-1.4
			c-1.4-0.6-2.4-1.1-3.1-1.6c-0.8-0.5-1.2-1.2-1.2-2c0-1.1,0.3-1.9,0.9-2.3c0.6-0.5,1.6-0.7,3-0.7c1.4,0,2.7,0.2,3.8,0.5l0.3-1.3
			c-1.4-0.4-2.8-0.7-4.4-0.7c-1.6,0-2.9,0.4-3.9,1.2s-1.5,2-1.5,3.4c0,0.9,0.2,1.6,0.7,2.1c0.3,0.3,0.5,0.6,0.8,0.8
			c0.2,0.2,0.6,0.5,1.2,0.7c0.5,0.3,1,0.5,1.3,0.7c0.3,0.2,0.7,0.3,1.1,0.5c0.4,0.2,0.8,0.4,1.1,0.5l1,0.5c0.3,0.2,0.7,0.5,1.1,0.9
			c0.4,0.4,0.6,1,0.6,1.7c0,1.3-0.3,2.1-1,2.6c-0.7,0.5-1.8,0.7-3.3,0.7c-1.6,0-3-0.3-4.4-0.8l-0.4,1.5c1.5,0.5,3.1,0.8,4.9,0.8
			c4.2,0,6.3-1.6,6.3-4.9C99,179.9,98.3,178.7,97.1,177.9z M116.2,172.6c-1.1,0-2.1,0.3-3.1,0.9c-0.4,0.2-0.8,0.5-1.5,0.9
			c-0.5-1.2-1.5-1.8-3-1.8c-0.6,0-1.2,0.1-1.8,0.3c-0.6,0.2-1,0.4-1.4,0.6c-0.3,0.2-0.8,0.5-1.5,1l-0.4-1.3l-0.1-0.1h-1.2l0.4,3.2
			v9.7h1.7v-10.3c0.1-0.3,0.5-0.6,1.3-1c0.7-0.3,1.5-0.5,2.3-0.5c0.8,0,1.4,0.2,1.7,0.5c0.3,0.3,0.5,1,0.5,1.9v9.4h1.7v-10.3
			c0.1-0.3,0.6-0.6,1.3-1c0.7-0.3,1.5-0.5,2.3-0.5c0.8,0,1.4,0.2,1.7,0.5c0.3,0.3,0.5,1,0.5,1.9v9.4h1.7v-9.4c0-1.5-0.3-2.5-0.9-3.1
			C118.1,172.9,117.3,172.6,116.2,172.6z M132.8,182.6c0-0.4,0-0.9,0-1.4l0-3.2c0-2.1-0.3-3.5-0.8-4c-0.8-0.9-2-1.4-3.4-1.4
			c-1,0-2.5,0.3-4.7,1l0.2,1.3c2.2-0.5,3.7-0.7,4.5-0.7c0.8,0,1.4,0.2,1.8,0.7c0.4,0.5,0.6,1.3,0.6,2.4v1.7c-2-0.1-3-0.2-3.2-0.2
			c-1.4,0-2.6,0.3-3.4,0.8c-0.8,0.5-1.2,1.5-1.2,3c0,1.1,0.3,1.9,0.9,2.5c0.6,0.6,1.4,0.9,2.5,0.9c1.6-0.1,3.2-0.6,4.8-1.8l0.6,1.5
			l0.1,0.1h1.2l0-0.1L132.8,182.6z M131.1,183.1c-0.3,0.4-0.9,0.7-1.8,1c-0.9,0.3-1.8,0.4-2.5,0.4c-0.7,0-1.2-0.2-1.5-0.5
			c-0.3-0.3-0.4-0.9-0.4-1.7c0-0.8,0.2-1.4,0.6-1.7c0.4-0.3,1.3-0.4,2.7-0.4l2.8,0.1V183.1z M140.8,173.3c-0.6,0.4-1.3,1-2.1,1.7
			l-0.5-1.9l-0.1-0.1h-1l0.4,3.2v9.7h1.6v-9.8c1.1-1.2,2.3-1.9,3.4-1.9c0.3,0,0.6,0,0.8,0.1l0.6-1.6c-0.4-0.1-0.8-0.2-1.2-0.2
			C142.1,172.7,141.4,172.9,140.8,173.3z M148.9,172.6v-2.1h-1.3l-0.3,2.3l-1.2,0.5v0.8h1.1c0.1,0,0.1,0,0.1,0.1v8.3l1.1,3.4
			l0.1,0.1h1.2l-0.7-3.5v-8.4c0-0.1,0.1-0.1,0.2-0.1l2.2,0l0.2-1.2H150C149.4,172.8,149,172.8,148.9,172.6z M167.7,168.4
			c-1.7,0-3.3,0.6-4.7,1.9c-0.7,0.6-1.3,1.6-1.7,2.8c-0.4,1.2-0.7,2.5-0.7,4c0,1.5,0.1,2.7,0.2,3.7c0.3,1.7,0.8,3.1,1.7,4
			c0.9,0.9,2.6,1.4,5.2,1.4c1.9,0,3.5-0.6,4.8-1.8c0.7-0.6,1.3-1.6,1.7-2.8c0.4-1.2,0.6-2.7,0.6-4.4c0-3.4-0.5-5.7-1.5-7
			C172.2,169,170.4,168.4,167.7,168.4z M171.8,182.8c-0.8,1.2-2,1.7-3.7,1.7c-0.8,0-1.5-0.1-2-0.2c-1.3-0.2-2.2-0.8-2.7-1.8
			c-0.6-1.2-0.9-3-0.9-5.4c0-2.6,0.4-4.4,1.2-5.5c0.8-1.1,2-1.7,3.6-1.7c1.9,0,3.3,0.4,4.2,1.1c0.4,0.4,0.7,0.8,1,1.5
			c0.4,1,0.6,2.6,0.6,4.6C173,179.8,172.6,181.7,171.8,182.8z M185.1,172.6c-1.1,0-2.2,0.3-3.2,0.9c-0.4,0.2-0.9,0.5-1.5,1l-0.5-1.4
			l-0.1-0.1h-1.1l0.4,3.2v9.7h1.7v-10.3c0.1-0.3,0.5-0.6,1.3-1c0.7-0.3,1.5-0.5,2.4-0.5c0.9,0,1.5,0.2,2,0.6c0.5,0.4,0.7,1,0.7,1.9
			v9.4h1.7v-9.4C188.8,173.9,187.5,172.6,185.1,172.6z M194.9,166.4h-1.6v16.4l1,3.3l0.1,0.1h1.2l-0.7-3.4V166.4z M199.6,170.4h1.8
			v-1.9h-1.8V170.4z M199.7,186h1.6v-13.1h-1.6V186z M212,172.6c-1.1,0-2.2,0.3-3.2,0.9c-0.4,0.2-0.9,0.5-1.5,1l-0.5-1.4l-0.1-0.1
			h-1.1l0.4,3.2v9.7h1.7v-10.3c0.1-0.3,0.5-0.6,1.3-1c0.7-0.3,1.5-0.5,2.4-0.5c0.9,0,1.5,0.2,2,0.6c0.5,0.4,0.7,1,0.7,1.9v9.4h1.7
			v-9.4C215.7,173.9,214.5,172.6,212,172.6z M229.9,177.4c0-3.2-1.6-4.8-4.7-4.8c-1,0-1.8,0.3-2.6,0.7c-0.5,0.3-1,0.7-1.4,1.1
			c-0.4,0.5-0.7,1.1-1,2c-0.3,0.9-0.4,1.9-0.4,3c0,2.1,0.5,3.7,1.4,4.9c1,1.2,2.3,1.8,3.9,1.8c0.3,0,0.7,0,1.2-0.1
			c0.2,0,0.4-0.1,0.6-0.1c0.2-0.1,0.4-0.1,0.5-0.1c0.1,0,0.3-0.1,0.6-0.2c0.2-0.1,0.5-0.2,0.7-0.2c0.2-0.1,0.5-0.2,0.9-0.3l-0.2-1.3
			c-1.5,0.5-2.8,0.7-3.9,0.7c-1.5,0-2.5-0.4-3.1-1.1c-0.6-0.7-0.9-2.1-1-4h8.3C229.9,178.7,229.9,178.1,229.9,177.4z M228.2,178.1
			h-6.7c0-1.5,0.4-2.5,1-3.1c0.7-0.6,1.5-0.8,2.6-0.8c1,0,1.8,0.2,2.4,0.6s0.8,1.2,0.8,2.2C228.2,177.3,228.2,177.7,228.2,178.1z"/>
	</g>
</g>
<g>
	<g>
		<path fill="#2478AB" d="M53.2,276.2c-1.1-0.8-3.3-1.8-6.4-3.2c-3.2-1.4-5.5-2.6-7-3.5c-1.9-1.2-2.8-2.7-2.8-4.6
			c0-2.5,0.7-4.3,2-5.3c1.3-1,3.6-1.5,6.8-1.5c3.2,0,6.1,0.4,8.5,1.2l0.8-3c-3.1-1-6.4-1.5-10-1.5c-3.6,0-6.5,0.9-8.8,2.8
			c-2.3,1.9-3.4,4.5-3.4,7.8c0,2,0.6,3.6,1.7,4.8c0.6,0.7,1.2,1.3,1.7,1.7c0.5,0.5,1.4,1,2.6,1.7c1.2,0.7,2.2,1.2,2.9,1.5
			c0.7,0.3,1.6,0.7,2.5,1.2c1,0.4,1.8,0.8,2.5,1.1l2.2,1.1c0.8,0.4,1.6,1,2.5,1.9c1,1,1.4,2.3,1.4,3.8c0,2.9-0.7,4.9-2.2,5.9
			c-1.5,1.1-4,1.6-7.6,1.6c-3.6,0-6.9-0.6-10-1.7l-1,3.3c3.4,1.2,7.1,1.7,11.1,1.7c9.5,0,14.2-3.7,14.2-11
			C57.4,280.8,56,278.2,53.2,276.2z M68.9,276.1h15v-3.4H69v-13.8h17l0.4-3.4H65v39.1H87v-3.4H68.9V276.1z M117.6,275.5
			c1.5-1.8,2.2-4.5,2.2-8.2c0-4.9-1.4-8.2-4.1-9.8c-1.4-0.8-2.8-1.3-4.2-1.5c-1.5-0.3-3.2-0.4-5.4-0.4H94.8v39.1h4v-15.3h2.8
			l3.6,0.1h1.9l11.4,16.3l3.1-2.1l-10.1-14.6C114.1,278.4,116.2,277.2,117.6,275.5z M102.7,275.8h-4v-16.6h6.7c3.9,0,6.5,0.5,8,1.5
			c1.5,1,2.2,3.3,2.2,6.8c0,3.5-0.6,5.8-1.7,6.8c-1.2,1-3.4,1.5-6.6,1.5L102.7,275.8z M140,289.7l-10.7-34.2h-4.5l12.8,39.1h5
			l12.7-39.1h-4.3L140,289.7z M162.2,294.6h4v-39.1h-4V294.6z M184.5,260c1.3-0.6,2.6-1.1,3.8-1.2c1.2-0.2,2.7-0.3,4.5-0.3
			c1.7,0,4.4,0.4,8,1.1l1-3.2c-3.3-1.1-6.1-1.6-8.4-1.6c-2.3,0-4.1,0.1-5.6,0.4c-1.4,0.3-3,0.8-4.7,1.7c-1.7,0.9-3.1,2-4.3,3.4
			c-1.2,1.4-2.2,3.4-3,5.9c-0.8,2.5-1.2,5.5-1.2,9c0,3.4,0.3,6.4,1,9c0.6,2.5,1.4,4.5,2.4,5.9c0.9,1.4,2.1,2.5,3.6,3.3
			c1.5,0.8,2.9,1.3,4.2,1.5c1.3,0.2,2.9,0.3,4.7,0.3c4.6,0,8.4-1,11.3-3l-1.4-3.3c-2.3,1.4-4.6,2.1-6.9,2.3
			c-0.7,0.1-1.8,0.1-3.3,0.1c-1.5,0-2.9-0.2-4.1-0.6c-1.2-0.4-2.4-1.2-3.6-2.3c-2.4-2.3-3.6-6.8-3.6-13.5c0-5.5,0.9-9.5,2.6-12.2
			C182.2,261.6,183.2,260.7,184.5,260z M213,291.2v-15.1h15v-3.4h-15v-13.8h17l0.4-3.4H209v39.1h22.1v-3.4H213z"/>
	</g>
</g>
<g>
	<path fill="#2478AB" d="M163.5,110.8c2.7,2.4,6.1,3.4,9.5,3.2c3.3-0.2,6.6-1.7,9-4.4c4.8-5.4,4.2-13.7-1.2-18.4
		c0,0-46.9-30.8-47-31c3.1-13.1,0.7-22.9-7.2-29.8c-7.8-6.9-18.4-8.6-27.6-5.5l16.9,14.8l-3.2,15.8l-15.3,5.2L80.4,45.9
		c-1.9,9.5,1.2,19.8,9,26.7c8.2,7.2,24,5.3,33.6,1.4c0,0,0,0,0,0L163.5,110.8z"/>
</g>
</svg>
