<svg xmlns="http://www.w3.org/2000/svg" viewBox="0 0 100 100" enable-background="new 0 0 100 100"><style type="text/css">.st0{fill:#38B1E4;} .st1{fill:#FFFFFF;} .st2{opacity:0.5;fill:#1172B0;enable-background:new ;} .st3{fill:#07324B;}</style><path class="st0" d="M58.2 46.8l-2.2 12.1c-.4 2.2-1.9 2.8-3.3 2.8h-10l4.3-22.2c-4.2-1.8-8.5-3-11.9-3-3.2 0-5.9.8-7.6 2.8-1.2 1.4-1.8 3.2-1.8 5.3 0 6.3 5.2 15 14 22.1 7.9 6.3 16.6 9.8 22.9 9.8 3.2 0 5.7-.9 7.4-2.8 1.3-1.4 1.8-3.3 1.8-5.4.1-6-5.2-14.5-13.6-21.5"/><path class="st1" d="M40.3 23.4c-1.6 0-2.9 1-3.2 2.6l-1.4 7.3h12.5l-5.4 28.3h10c1.3 0 2.8-.6 3.3-2.8l4.6-25.6h9c1.6 0 2.9-1 3.3-2.6l1.4-7.3h-34.1z"/><path class="st2" d="M58.2 46.9l-2.2 12c-.4 2.2-1.9 2.8-3.3 2.8h-9.9l4.2-21.9c-4.2-1.8-8.4-3-11.8-3-3.2 0-5.9.8-7.5 2.8-1.2 1.4-1.8 3.2-1.8 5.3 0 6.3 5.2 14.9 13.9 21.9 7.8 6.3 16.5 9.7 22.7 9.7 3.2 0 5.7-.9 7.3-2.8 1.3-1.4 1.8-3.3 1.8-5.4.1-6-5.1-14.5-13.4-21.4"/><path class="st3" d="M40.4 23.7c-1.6 0-2.9 1-3.2 2.6l-1.4 7.2h12.4l-5.4 28.1h9.9c1.3 0 2.8-.6 3.3-2.8l4.6-25.4h8.9c1.6 0 2.9-1 3.3-2.6l1.4-7.2-33.8.1z"/></svg>