<?xml version="1.0" encoding="utf-8"?>
<!-- Generator: Adobe Illustrator 18.0.0, SVG Export Plug-In . SVG Version: 6.00 Build 0)  -->
<!DOCTYPE svg PUBLIC "-//W3C//DTD SVG 1.1//EN" "http://www.w3.org/Graphics/SVG/1.1/DTD/svg11.dtd">
<svg version="1.1" id="Your_Icon" xmlns="http://www.w3.org/2000/svg" xmlns:xlink="http://www.w3.org/1999/xlink" x="0px" y="0px"
	 viewBox="202.1 340.2 184.3 146" enable-background="new 202.1 340.2 184.3 146" xml:space="preserve">
<circle fill="none" stroke="#CC4C27" stroke-width="5" stroke-miterlimit="10" cx="280.3" cy="470.3" r="9.9"/>
<circle fill="none" stroke="#CC4C27" stroke-width="5" stroke-miterlimit="10" cx="347.1" cy="470.3" r="9.9"/>
<path fill="#CC4C27" d="M386,375.2c-0.5-0.5-1-1-1.7-1l-29-0.2l0,0c0,1.5,0,3-0.2,4.2l26.3,0.2l-19.9,48.4l-82.2,8.7
	c0,0-21.3-50.4-24.1-57.6l29.5,0.2c-0.2-1.2-0.2-2.5-0.2-4c0-0.2,0-0.5,0-0.7l-31-0.2c-3-8.4-6.2-17.1-9.9-27.8
	c-0.2-1-1.5-1.7-2.5-1.7l-36-2.2h-0.2c-1.7,0-2.7,1.2-2.7,2.2c0,1.2,1,2.5,2.7,2.7l34,2c0,0.2,0,0.2,0.2,0.5
	c2.2,6,3.7,10.2,5.2,14.1c1.5,4,3,7.9,5,13.9l25.8,62.3c0.2,1,1.2,1.5,2.2,1.5h0.2l85.6-9.2c1,0,1.7-0.7,2-1.7l21.1-52.4
	C386.5,376.5,386.5,375.7,386,375.2z"/>
<path fill="#CC4C27" d="M375.8,396.3v-2.5h-15.4v-17.4H358v17.4h-8.7c-0.5,1-1.2,1.7-2,2.5h10.4v15.1h-32V409
	c-0.7,0.2-1.7,0.2-2.5,0.5v2h-30.5v-14.1c-1-1.2-2-2.5-3-4h-31.3v2.5l32.3,0.2v15.6h-26.3v2.5h26.3v13.7h-19.4v2.2h19.4v5.5h2.5
	v-5.5h30.5v3h2.5v-3h32v0.7h2.5v-0.7h3.7v-2.2h-3.7v-13.7h10.4v-2.5h-10.4v-15.1L375.8,396.3z M323.5,427.6h-30.5V414h30.5V427.6z
	 M358,427.6h-32V414h32V427.6z"/>
<path fill="#CC4C27" d="M319.7,340.2c-18.1,0-33,14.6-33,33c0,18.1,14.6,33,33,33c18.1,0,33-14.9,33-33
	C352.8,354.9,337.9,340.2,319.7,340.2z M322.2,393.4v5.2c0,0.5-0.5,1-1,1h-4c-0.5,0-1-0.5-1-1v-5.2c-7-1-10.9-5.2-10.9-5.5
	c-0.2-0.2-0.2-1,0-1.2l3-4c0.2-0.2,0.5-0.2,0.7-0.2s0.5,0,0.7,0.2c0,0,4.2,4,9.7,4c3,0,6.2-1.5,6.2-5c0-3-3.5-4.2-7.7-6
	c-5.5-2.2-12.2-4.7-12.2-12.4c0-5.5,4.2-10.2,10.7-11.2v-5.5c0-0.5,0.5-1,1-1h4c0.5,0,1,0.5,1,1v5.2c6.2,0.7,9.4,4,9.4,4.2
	c0.2,0.2,0.2,0.7,0.2,1.2l-2.5,4.5c-0.2,0.2-0.5,0.5-0.7,0.5s-0.5,0-0.7-0.2c0,0-3.7-3.2-8.2-3.2c-3.7,0-6.5,2-6.5,4.7
	c0,3.2,3.7,4.7,7.9,6.2c5.5,2.2,11.7,4.5,11.7,11.9C332.9,387.4,328.4,392.4,322.2,393.4z"/>
<path fill="none" stroke="#CC4C27" stroke-width="5" stroke-linecap="round" stroke-linejoin="round" stroke-miterlimit="10" d="
	M277.6,437l-6.7,15.6c15.6,0,82.9,0,82.9,0"/>
</svg>
