<?xml version="1.0" standalone="no"?><!DOCTYPE svg PUBLIC "-//W3C//DTD SVG 1.1//EN" "http://www.w3.org/Graphics/SVG/1.1/DTD/svg11.dtd"><svg width="100%" height="100%" viewBox="0 0 58 37" version="1.1" xmlns="http://www.w3.org/2000/svg" xmlns:xlink="http://www.w3.org/1999/xlink" xml:space="preserve" style="fill-rule:evenodd;clip-rule:evenodd;stroke-miterlimit:1.41421;"><path d="M31.95,36.074l-30.375,0c-0.975,0 -1.575,-0.525 -1.575,-1.5l0,-18.3c0,-0.975 0.675,-1.8 1.575,-1.8l30.375,0c0.975,0 1.725,0.75 1.725,1.725l0,18.15c-0.075,0.9 -0.825,1.725 -1.725,1.725Z" style="fill:#000;fill-rule:nonzero;"/><path d="M54.675,0.974l-31.35,0c-1.275,0 -2.325,0.9 -2.325,1.95l0,24.675c0,1.05 1.05,1.95 2.325,1.95l31.35,0c1.275,0 2.325,-0.9 2.325,-1.95l0,-24.675c0,-1.05 -1.05,-1.95 -2.325,-1.95Z" style="fill:none;stroke-width:1.13px;stroke:#000;"/></svg>