<svg viewBox="0 0 103 67" preserveAspectRatio="xMidYMid meet" version="1.1" xmlns="http://www.w3.org/2000/svg" xmlns:xlink="http://www.w3.org/1999/xlink" xmlns:sketch="http://www.bohemiancoding.com/sketch/ns">
  <g id="02_tv" sketch:type="MSLayerGroup" fill="#0E3E3E">
      <path d="M99,2.9 C99.4,2.9 99.7,3.1 99.7,3.5 L99.7,57.4 C99.7,57.8 99.3,58.1 99,58.1 L58.4,58.1 L58.4,60.5 L70.9,60.5 L70.9,64.1 L31.3,64.1 L31.3,60.5 L43.9,60.5 L43.9,58.1 L3.3,58.1 C2.9,58.1 2.6,57.9 2.6,57.5 L2.6,3.6 C2.6,3.2 3,2.9 3.3,2.9 L99,2.9 L99,2.9 Z M99,0.5 L3.3,0.5 C1.6,0.5 0.2,1.8 0.2,3.6 L0.2,57.5 C0.2,59.2 1.5,60.5 3.3,60.5 L29.1,60.5 L29.1,64.1 C29.1,65.4 30.2,66.5 31.5,66.5 L71.1,66.5 C72.4,66.5 73.5,65.4 73.5,64.1 L73.5,60.5 L99.3,60.5 C101,60.5 102.4,59.2 102.4,57.4 L102.4,3.5 C102.1,1.8 100.8,0.5 99,0.5 L99,0.5 L99,0.5 Z" id="Shape" sketch:type="MSShapeGroup"></path>
      <path d="M96.4,57 L94.6,57 C93.8,57 93.6,56.5 93.6,56.3 C93.6,55.9 93.7,55.6 94.6,55.6 L96.4,55.6 C97.2,55.6 97.5,56.1 97.5,56.3 C97.5,56.5 97.3,57 96.4,57 L96.4,57 Z" id="Shape" sketch:type="MSShapeGroup"></path>
      <path d="M96.7,54.5 L5.5,54.5 C5.1,54.5 4.9,54.3 4.9,53.9 L4.9,5.9 C4.9,5.5 5.1,5.3 5.5,5.3 L96.7,5.3 C97.1,5.3 97.3,5.5 97.3,5.9 L97.3,53.9 C97.3,54.3 97.1,54.5 96.7,54.5 L96.7,54.5 Z M6.1,53.3 L96.1,53.3 L96.1,6.5 L6.1,6.5 L6.1,53.3 L6.1,53.3 Z" id="Shape" sketch:type="MSShapeGroup"></path>
      <path d="M58.5,59.3 L43.9,59.3 C43.5,59.3 43.3,59.1 43.3,58.7 C43.3,58.3 43.5,58.1 43.9,58.1 L58.5,58.1 C58.9,58.1 59.1,58.3 59.1,58.7 C59.1,59.1 58.8,59.3 58.5,59.3 L58.5,59.3 Z" id="Shape" sketch:type="MSShapeGroup"></path>
  </g>
</svg>
