<svg viewBox="0 0 87 67" preserveAspectRatio="xMidYMid meet" version="1.1" xmlns="http://www.w3.org/2000/svg" xmlns:xlink="http://www.w3.org/1999/xlink" xmlns:sketch="http://www.bohemiancoding.com/sketch/ns">
  <g id="05_post" sketch:type="MSLayerGroup" fill="#FFFFFF">
      <path d="M45.7,66.6 L3,66.6 C1.6,66.6 0.8,65.9 0.8,64.5 L0.8,38.8 C0.8,37.4 1.7,36.3 3,36.3 L45.6,36.3 C47,36.3 48,37.4 48,38.7 L48,64.2 C48.1,65.5 47,66.6 45.7,66.6 L45.7,66.6 L45.7,66.6 Z M2.8,38.2 L2.8,64.7 L46.2,64.7 L46.2,38.2 L2.8,38.2 L2.8,38.2 Z" id="Shape" sketch:type="MSShapeGroup"></path>
      <path d="M24.6,54.2 C22.8,54.2 20.3,52.9 19.3,52.3 L19.2,52.2 C14.1,49 1.4,39.2 1.3,39.1 L1.9,38.3 C2,38.4 14.7,48.1 19.7,51.3 L19.8,51.4 C20.7,52 23.1,53.1 24.4,53.1 C25.6,53.1 28,51.7 29.2,50.9 C33.3,48.3 43.1,40.7 45.9,38.5 L46,38.4 L46.6,39.2 L46.5,39.3 C43.6,41.5 33.8,49.1 29.7,51.7 C29.2,52.3 26.3,54.2 24.6,54.2 L24.6,54.2 L24.6,54.2 Z" id="Shape" sketch:type="MSShapeGroup"></path>
      <rect id="Rectangle-path" sketch:type="MSShapeGroup" transform="translate(9.465840, 58.003630) rotate(225.178264) translate(-9.465840, -58.003630) " x="8.91584258" y="47.1536816" width="1.09999477" height="21.6998969"></rect>
      <rect id="Rectangle-path" sketch:type="MSShapeGroup" transform="translate(39.227780, 57.643750) rotate(225.696817) translate(-39.227780, -57.643750) " x="28.3770816" y="57.0937146" width="21.7013968" height="1.1000708"></rect>
      <path d="M66.4,60.1 C66.1,60.1 66,59.8 66,59.5 L66,51 L62.9,52.1 L62.6,52.1 L58.4,51 L56.4,51.7 L56.1,51.7 L53.4,50.9 L53.4,59.4 C53.4,59.7 53.3,60 53,60 C52.7,60 52.5,59.8 52.5,59.5 L52.5,51.1 C52.5,50.8 52.6,50.5 52.9,50.3 C53.1,50.1 53.5,50 53.8,50.1 L56.3,50.8 L58.2,50.2 C58.4,50.1 58.6,50.1 58.8,50.2 L62.9,51.3 L65.7,50.4 C66,50.3 66.4,50.3 66.8,50.5 C67.1,50.7 67.2,51 67.2,51.3 L67.2,59.7 C67,59.8 66.7,60.1 66.4,60.1 L66.4,60.1 L66.4,60.1 Z" id="Shape" sketch:type="MSShapeGroup"></path>
      <path d="M50.5,16.5 C50.4,16.3 50.1,16.3 49.9,16.5 L47.4,20.9 C47.3,21 47.3,21.1 47.4,21.2 C47.5,21.3 47.6,21.4 47.7,21.4 L49.3,21.4 L49.3,25.3 C49.3,25.5 49.5,25.6 49.6,25.6 L50.9,25.6 C51.1,25.6 51.2,25.4 51.2,25.3 L51.2,21.4 L52.8,21.4 C52.9,21.4 53,21.3 53.1,21.2 C53.2,21.1 53.2,21 53.1,20.9 L50.5,16.5 L50.5,16.5 Z" id="Shape" sketch:type="MSShapeGroup"></path>
      <path d="M52.8,30 L37.8,30 C37.6,30 37.5,29.9 37.5,29.7 L37.5,28.2 C37.5,28 37.6,27.9 37.8,27.9 L54,27.9 C54.2,27.9 54.3,28 54.3,28.2 L54.3,29.7 C54.4,29.9 53,30 52.8,30 L52.8,30 L52.8,30 Z" id="Shape" sketch:type="MSShapeGroup"></path>
      <path d="M83.7,10 L83.5,10 L59.2,1.9 C58.9,1.8 58.8,1.5 58.9,1.3 C59,1 59.3,0.9 59.5,1 L83.8,9 C84.1,9.1 84.2,9.4 84.1,9.6 C84.1,9.7 83.9,10 83.7,10 L83.7,10 L83.7,10 Z" id="Shape" sketch:type="MSShapeGroup"></path>
      <path d="M59.1,50 C58.8,50 58.6,49.8 58.6,49.5 L58.6,10.5 C58.6,10.2 58.8,10 59.1,10 C59.4,10 59.6,10.2 59.6,10.5 L59.6,49.5 C59.7,49.8 59.5,50 59.1,50 L59.1,50 L59.1,50 Z" id="Shape" sketch:type="MSShapeGroup"></path>
      <path d="M83.7,10.2 L83.5,10.2 L59,2.1 C58.6,2 58.4,1.6 58.6,1.2 C58.8,0.8 59.1,0.6 59.5,0.8 L83.8,8.8 C84.2,8.9 84.4,9.3 84.2,9.7 C84.2,10 84,10.2 83.7,10.2 L83.7,10.2 L83.7,10.2 Z" id="Shape" sketch:type="MSShapeGroup"></path>
      <path d="M33.2,35.2 L33.2,12.5 C33.2,11.7 33.9,10.9 34.8,10.9 L83.2,10.9 C84,10.9 84.9,11.6 84.9,12.5 L84.9,57.8 C84.9,58.6 83.6,59.6 82.8,59.6 L49.1,59.6 L49.1,61.7 L82.8,61.7 C84.8,61.7 86.8,59.8 86.8,57.8 L86.8,12.5 C86.8,10.5 85.2,8.9 83.2,8.9 L83.2,9 L34.8,9 C32.8,9 31.2,10.6 31.2,12.6 L31.2,35.3 L33.2,35.2 L33.2,35.2 Z" id="Shape" sketch:type="MSShapeGroup"></path>
      <path d="M42.1,16.5 C42,16.3 41.7,16.3 41.5,16.5 L39,20.9 C38.9,21 38.9,21.1 39,21.2 C39.1,21.3 39.2,21.4 39.3,21.4 L40.9,21.4 L40.9,25.3 C40.9,25.5 41.1,25.6 41.2,25.6 L42.5,25.6 C42.7,25.6 42.8,25.4 42.8,25.3 L42.8,21.4 L44.4,21.4 C44.5,21.4 44.6,21.3 44.7,21.2 C44.8,21.1 44.8,21 44.7,20.9 L42.1,16.5 L42.1,16.5 Z" id="Shape" sketch:type="MSShapeGroup"></path>
  </g>
</svg>
