<?xml version="1.0" standalone="no"?><!DOCTYPE svg PUBLIC "-//W3C//DTD SVG 1.1//EN" "http://www.w3.org/Graphics/SVG/1.1/DTD/svg11.dtd"><svg width="100%" height="100%" viewBox="0 0 37 37" version="1.1" xmlns="http://www.w3.org/2000/svg" xmlns:xlink="http://www.w3.org/1999/xlink" xml:space="preserve" style="fill-rule:evenodd;clip-rule:evenodd;stroke-linecap:round;stroke-miterlimit:1.41421;"><path d="M22.367,26.006c0.9,-0.3 2.325,-1.125 2.4,-2.925c0,-2.1 -3.75,-1.125 -4.575,-3.75c-0.225,-0.675 -0.525,-2.775 1.8,-3.6c2.625,-0.9 6.075,2.175 5.25,7.125c-0.3,1.65 -1.425,2.7 -2.25,3.525c-1.275,1.2 -4.275,0.15 -2.625,-0.375Z" style="fill:#010101;fill-rule:nonzero;"/><path d="M23.567,19.706c-1.425,0.6 -1.275,-1.575 0.45,-1.35c1.575,0.15 3.6,3.225 0.975,6.75c-3.6,4.875 -14.625,1.275 -13.5,-7.65c1.575,-12.675 23.1,-10.05 22.5,3.75c-0.6,12.9 -16.275,17.625 -25.35,10.575c-7.05,-5.475 -7.5,-13.8 -7.05,-16.875c0.675,-4.875 1.575,-5.25 2.625,-7.5" style="fill:none;stroke-width:1.7px;stroke:#010101;"/><path d="M1.592,7.481l-0.15,0.3c-0.6,1.2 -0.075,2.625 1.05,3.15c1.125,0.6 2.55,0.15 3.15,-0.975l0.15,-0.3c0.675,-1.125 0.225,-2.625 -0.9,-3.225c-1.125,-0.675 -2.625,-0.225 -3.225,0.9c0,0.075 0,0.15 -0.075,0.15Z" style="fill:#040607;fill-rule:nonzero;"/><path d="M7.142,2.756l-0.15,0.15c-0.6,0.6 -0.6,1.575 -0.075,2.175c0.6,0.6 1.5,0.6 2.1,0.075l0.15,-0.15c0.6,-0.525 0.675,-1.5 0.15,-2.175c-0.525,-0.6 -1.5,-0.675 -2.175,-0.075l0,0Z" style="fill:#040607;fill-rule:nonzero;"/><circle cx="18.392" cy="18.281" r="17.7" style="fill:none;stroke-width:0.67px;stroke:#010101;"/></svg>