<?xml version="1.0" standalone="no"?><!DOCTYPE svg PUBLIC "-//W3C//DTD SVG 1.1//EN" "http://www.w3.org/Graphics/SVG/1.1/DTD/svg11.dtd"><svg width="100%" height="100%" viewBox="0 0 39 31" version="1.1" xmlns="http://www.w3.org/2000/svg" xmlns:xlink="http://www.w3.org/1999/xlink" xml:space="preserve" style="fill-rule:evenodd;clip-rule:evenodd;stroke-miterlimit:1.41421;"><path d="M22.521,21.375c0,0.9 -0.375,1.65 -0.9,2.25c-0.6,0.6 -1.35,0.9 -2.25,0.9c-0.9,0 -1.65,-0.375 -2.25,-0.9c-0.6,-0.6 -0.9,-1.35 -0.9,-2.25c0,-0.9 0.375,-1.65 0.9,-2.25c0.6,-0.6 1.35,-0.9 2.25,-0.9c0.9,0 1.65,0.375 2.25,0.9c0.6,0.6 0.9,1.35 0.9,2.25Z" style="fill:#010101;fill-rule:nonzero;"/><path d="M19.371,0c-14.325,0 -18.375,11.025 -18.375,11.025l36.675,0c0,-0.075 -3.975,-11.025 -18.3,-11.025Z" style="fill:#000;fill-rule:nonzero;"/><g><path d="M0.996,13.5l0,15.75" style="fill:none;stroke-width:1.15px;stroke:#000;"/><path d="M37.671,13.5l0,15.75" style="fill:none;stroke-width:1.15px;stroke:#000;"/></g></svg>