<?xml version="1.0" standalone="no"?><!DOCTYPE svg PUBLIC "-//W3C//DTD SVG 1.1//EN" "http://www.w3.org/Graphics/SVG/1.1/DTD/svg11.dtd"><svg width="100%" height="100%" viewBox="0 0 53 18" version="1.1" xmlns="http://www.w3.org/2000/svg" xmlns:xlink="http://www.w3.org/1999/xlink" xml:space="preserve" style="fill-rule:evenodd;clip-rule:evenodd;stroke-linejoin:round;stroke-miterlimit:1.41421;"><path d="M11.55,0c-4.875,0 -11.55,3.9 -11.55,8.775c0,4.875 6.675,8.775 11.55,8.775c4.875,0 11.55,-3.9 11.55,-8.775c0,-4.875 -6.675,-8.775 -11.55,-8.775ZM11.55,15.075c-3.525,0 -6.3,-2.85 -6.3,-6.3c0,-3.525 2.85,-6.3 6.3,-6.3c3.45,0 6.3,2.85 6.3,6.3c0,3.45 -2.775,6.3 -6.3,6.3Z" style="fill:#000;fill-rule:nonzero;"/><path d="M41.175,0c-4.875,0 -11.55,3.9 -11.55,8.775c0,4.875 6.75,8.775 11.55,8.775c4.8,0 11.55,-3.9 11.55,-8.775c0,-4.875 -6.675,-8.775 -11.55,-8.775ZM41.175,15.075c-3.525,0 -6.3,-2.85 -6.3,-6.3c0,-3.525 2.85,-6.3 6.3,-6.3c3.525,0 6.3,2.85 6.3,6.3c0,3.45 -2.775,6.3 -6.3,6.3Z" style="fill:#000;fill-rule:nonzero;"/></svg>