<svg viewBox="0 0 66 66" preserveAspectRatio="xMidYMid meet" version="1.1" xmlns="http://www.w3.org/2000/svg" xmlns:xlink="http://www.w3.org/1999/xlink" xmlns:sketch="http://www.bohemiancoding.com/sketch/ns">
  <g id="01_internet" sketch:type="MSLayerGroup" fill="#FFFFFF">
      <path d="M33,0 C14.8,0 0,14.8 0,33 C0,51.2 14.8,66 33,66 C51.2,66 66,51.2 66,33 C66.2,14.8 51.4,0 33,0 L33,0 Z M58.4,42.1 C56.5,45 53.9,47.7 50.9,50.1 C50.7,49.5 50.4,49 50.1,48.4 C49.6,47.3 49,46.2 48.4,45.1 L48.4,45.1 C47.6,43.6 46.7,42.1 45.7,40.5 L45.7,40.5 C45.6,40.3 45.3,39.9 45.2,39.7 C45.6,39.5 45.9,39.1 46.3,38.9 C49.2,36.5 51.5,33.7 53.2,30.5 C54.2,31.5 55.1,32.3 56,33.3 L56,33.3 C57.8,35.4 59.3,37.4 60.1,39.5 C59.5,40.3 59,41.3 58.4,42.1 L58.4,42.1 Z M17.8,9.7 C18.9,10.3 20.1,11.3 21.6,12.5 L21.6,12.5 C22.2,13.1 22.9,13.7 23.5,14.3 C21.6,13.9 19.6,13.8 17.8,13.7 L17.8,13.7 C16.8,13.7 16,13.7 15.1,13.8 L15.1,13.8 C14.6,13.8 14.1,13.9 13.6,13.9 C14,13.3 14.3,12.8 14.7,12.3 L14.7,12.3 C15.7,11.6 16.7,10.6 17.8,9.7 L17.8,9.7 Z M41.2,8.8 L41.2,8.8 C42.5,8.6 43.9,8.4 45.2,8.4 L45.2,8.4 C47,8.4 48.6,8.6 50.2,9.1 C50.9,9.9 51.7,10.8 52.3,11.8 L52.3,11.8 C53.4,13.5 54.1,15.3 54.5,17.4 C52.4,16.4 50.1,15.6 47.7,15 L47.7,15 C46,14.5 44.2,14.3 42.2,14 C42,12.2 41.2,10.6 40,9.1 C40.3,9 40.8,8.9 41.2,8.8 L41.2,8.8 Z M32.2,22 C30.5,20.1 28.9,18.1 27.3,16.5 C29.4,17 31.5,17.7 33.6,18.6 C35.5,19.3 37.5,20.3 39.4,21.3 C38.6,22.9 37.2,24.5 35.6,25.8 C35.5,25.9 35.4,26 35.2,26.2 C34.4,24.5 33.3,23.3 32.2,22 L32.2,22 Z M40.1,20.1 C38.2,19.1 36.1,18.2 34.2,17.4 C32.3,16.7 30.3,16.1 28.4,15.5 C29.9,15.3 31.3,15 32.8,14.9 L32.8,14.9 C35.6,14.7 38.4,14.7 41.2,14.9 C41.2,16.7 40.8,18.4 40.1,20.1 L40.1,20.1 Z M35.1,27.6 C35.5,28.1 35.9,28.7 36.3,29.2 L36.3,29.2 C38.8,32.6 41.3,36.1 43.5,39.4 C42.2,40.4 40.8,41.2 39.5,41.9 L39.5,41.9 C37.9,42.7 36.2,43.4 34.6,44 C33.8,44.2 32.9,44.5 32.1,44.7 C31.5,42.5 30.9,40.3 30.3,38 C29.7,35.6 29.1,33.1 28.6,30.7 C30.9,30 33.2,29 35.1,27.6 L35.1,27.6 Z M37.3,28.4 L37.3,28.4 C36.9,27.9 36.5,27.3 36.1,26.8 C36.2,26.7 36.3,26.6 36.5,26.4 C38.2,24.9 39.5,23.4 40.5,21.5 C42.9,22.7 45.2,24.2 47.4,25.7 L47.4,25.7 C49.1,26.9 50.7,28.1 52.1,29.5 C50.5,32.5 48.2,35.3 45.3,37.7 C44.9,37.9 44.7,38.2 44.3,38.4 C42.4,35.3 39.8,31.8 37.3,28.4 L37.3,28.4 Z M48.2,24.9 L48.2,24.9 C46,23.3 43.6,21.9 41.2,20.7 C42,18.9 42.4,17.1 42.3,15.1 C44,15.3 45.7,15.6 47.3,15.9 L47.3,15.9 C50,16.6 52.4,17.5 54.6,18.7 C54.7,20.4 54.6,22.1 54.4,23.8 C54,25.4 53.6,26.8 52.8,28.4 C51.4,27.3 49.8,26.1 48.2,24.9 L48.2,24.9 Z M38.6,9.4 C39.7,10.6 40.5,12.2 40.8,13.8 C38.1,13.6 35.3,13.6 32.5,13.8 L32.5,13.8 C31,13.9 29.5,14.2 28,14.4 C29.2,13.6 30.4,12.8 31.8,12.2 L31.8,12.2 C34.1,11 36.4,10 38.6,9.4 L38.6,9.4 Z M31.3,11.1 L31.3,11.1 C30,11.8 28.5,12.7 27.2,13.5 C27.9,12.2 28.8,11 29.5,9.9 L29.5,9.9 C29.9,9.4 30.2,8.9 30.6,8.6 C31.3,7.8 32.2,6.9 32.9,6.3 C34.7,6.8 36.3,7.5 37.6,8.6 C35.6,9 33.4,9.9 31.3,11.1 L31.3,11.1 Z M31.2,22.9 C32.3,24.1 33.3,25.4 34.4,26.8 C32.6,28 30.5,29 28.3,29.6 C27.9,27.9 27.6,26.2 27.3,24.6 C26.8,22.1 26.5,19.6 26.2,17.3 C27.8,18.8 29.5,20.8 31.2,22.9 L31.2,22.9 Z M27.1,29.8 C26.1,30 25.2,30.2 24.3,30.2 C23.2,30.2 22.1,30.2 21,30 C21.1,29.6 21.1,29.3 21.2,28.9 C21.4,28.1 21.7,27.2 21.8,26.5 L21.8,26.5 C22.6,23.5 23.7,20.6 25,17.9 C25.2,20.1 25.6,22.4 26.1,24.9 C26.5,26.2 26.7,27.9 27.1,29.8 L27.1,29.8 Z M20.8,25.9 L20.8,25.9 C20.6,26.7 20.3,27.6 20.1,28.4 C20,28.8 20,29.1 19.9,29.6 C19.7,29.6 19.5,29.5 19.3,29.5 L19.3,29.5 C17.6,29 16.1,28.2 15.1,27.1 C16.3,25.3 17.8,23.6 19.2,22 L19.2,22 C20.7,20.4 22.2,19 23.9,17.6 C22.6,20.2 21.6,23 20.8,25.9 L20.8,25.9 Z M18.2,21.2 L18.2,21.2 C16.7,22.8 15.3,24.5 14.1,26.3 C13,25 12.3,23.5 12,21.8 C13.6,20.7 15.3,19.7 17.1,19 L17.1,19 C18.9,18.2 20.7,17.5 22.7,16.9 C21.2,18.1 19.6,19.6 18.2,21.2 L18.2,21.2 Z M15.3,15.2 L15.3,15.2 C16.1,15.2 17,15.1 17.8,15.2 C19.3,15.2 21,15.4 22.5,15.7 C20.4,16.3 18.4,17 16.6,17.9 L16.6,17.9 C14.9,18.6 13.3,19.5 11.9,20.4 L11.9,20 C12,18.5 12.4,17.1 13,15.5 C13.8,15.3 14.5,15.2 15.3,15.2 L15.3,15.2 Z M13.4,27.2 C11.9,29.4 10.7,31.6 9.6,33.9 C8.9,35.6 8.3,37.3 7.8,39 C6.2,37.2 5,35 4.4,32.7 C4.2,32 4,31.2 4,30.5 C4.5,29.4 5.1,28.3 5.9,27.2 C6.5,26.5 7.1,25.6 7.8,24.9 L7.8,24.9 C8.6,24.1 9.6,23.2 10.7,22.5 C11.3,24.2 12.2,25.9 13.4,27.2 L13.4,27.2 Z M10.7,34.4 C11.7,32.3 12.9,30.2 14.2,28.1 C15.5,29.2 17,30.2 18.8,30.6 L18.8,30.6 C19,30.7 19.3,30.7 19.4,30.7 C18.7,34.3 18.2,37.9 17.9,41.4 C17.8,42.5 17.8,43.7 17.8,44.8 C15.6,44.2 13.6,43.5 11.7,42.4 L11.7,42.4 C10.6,41.7 9.5,40.8 8.5,40 C9.3,38.1 9.9,36.2 10.7,34.4 L10.7,34.4 Z M19.3,41.5 C19.5,38.1 20,34.6 20.8,30.9 C21.8,31 22.7,31.1 23.7,31.1 L24.3,31.1 L24.3,31.1 C25.3,31.1 26.4,31 27.3,30.7 C27.8,33.1 28.4,35.7 29,38.1 C29.6,40.4 30.2,42.6 30.8,44.8 C29.3,45.2 27.9,45.3 26.4,45.4 L26.4,45.4 C23.9,45.5 21.4,45.4 19.2,44.9 C19.2,44 19.2,42.7 19.3,41.5 L19.3,41.5 Z M24.4,46.9 C25.1,46.9 25.7,46.9 26.5,46.8 L26.5,46.8 C28.1,46.7 29.7,46.4 31.1,46.2 C31.3,47.2 31.7,48.3 32.1,49.2 L32.1,49.2 C32.5,50.4 32.9,51.7 33.3,52.8 L33.3,52.8 C33.7,53.8 34,54.7 34.4,55.6 C34.6,56.2 34.9,56.8 35.1,57.4 C31.8,58.1 28.7,58.4 25.5,58.1 C24,58 22.7,57.9 21.4,57.5 C20.7,55.8 20.1,53.7 19.8,51.3 C19.6,49.7 19.4,48 19.3,46.3 C20.9,46.6 22.7,46.9 24.4,46.9 L24.4,46.9 Z M34.5,52.5 L34.5,52.5 C34.1,51.3 33.7,50.1 33.3,48.9 L33.3,48.9 C33.1,47.9 32.7,47 32.5,46 C33.3,45.8 34.2,45.5 35,45.3 C36.7,44.7 38.4,44 40.1,43.1 L40.1,43.1 C41.6,42.4 42.9,41.5 44.2,40.6 C44.3,40.8 44.6,41.1 44.7,41.3 L44.7,41.3 C45.7,42.9 46.5,44.3 47.4,45.8 L47.4,45.8 C48,46.9 48.6,48 49.1,49.1 C49.5,49.7 49.7,50.4 49.9,51 C49.4,51.4 48.8,51.7 48.3,52.1 C44.5,54.5 40.5,56.2 36.3,57.3 C36.1,56.7 35.8,56 35.5,55.4 C35.1,54.3 34.9,53.4 34.5,52.5 L34.5,52.5 Z M60.7,38 C59.7,36.2 58.5,34.4 56.8,32.4 L56.8,32.4 C56,31.4 54.9,30.3 53.8,29.4 C54.6,27.7 55.3,26 55.6,24.2 C56,22.6 56.1,21 56,19.6 C57,20.2 57.9,20.8 58.8,21.5 C60.6,23.1 62,24.8 62.8,26.7 C63,29.1 62.9,31.6 62.2,34.1 C61.7,35.3 61.2,36.7 60.7,38 L60.7,38 Z M58,15.7 C58.5,16.3 59.1,17.3 59.5,17.9 C60,18.6 60.7,20.1 61.2,21.3 L61.2,21.4 L61.3,21.5 C61.5,22 61.7,22.6 61.9,23.1 C61.2,22.1 60.3,21.3 59.4,20.4 C58.3,19.4 57.1,18.6 55.8,17.9 C55.4,15.4 54.7,13 53.4,11 L53.4,11 C53.2,10.6 53,10.4 52.8,10.2 C53.8,10.8 54.6,11.4 55.3,12.1 L55.4,12.1 L55.4,12.1 L55.5,12.2 C56.2,13.5 57.3,14.7 58,15.7 L58,15.7 Z M39.6,3.7 L39.6,3.7 L39.6,3.7 L39.6,3.7 L39.8,3.7 L39.8,3.7 C40,3.7 40.2,3.8 40.4,3.8 L40.5,3.8 L40.6,3.8 L40.6,3.8 L40.7,3.8 C43.6,4.5 46.2,5.7 48.2,7.3 C47.2,7.2 46.3,7.1 45.2,7.1 L45.2,7.1 C43.9,7.1 42.5,7.2 41.1,7.5 L41.1,7.5 C40.5,7.6 39.8,7.7 39.2,8 C39.1,7.9 39,7.8 38.8,7.6 L38.8,7.6 C37.5,6.5 36,5.7 34.2,5.2 C36,3.9 37.9,3.3 39.6,3.7 L39.6,3.7 Z M25.3,4.4 C25.4,4.4 25.7,4.3 25.8,4.3 L25.8,4.3 C26.2,4.2 26.6,4.1 27,3.9 L27,3.9 C29.8,3.3 32.5,3.1 35.1,3.2 C34.3,3.6 33.3,4.2 32.4,4.9 C31.1,4.7 29.7,4.5 28.4,4.5 C27.3,4.5 26.2,4.7 25,5 C25.3,4.8 25.3,4.5 25.3,4.4 L25.3,4.4 Z M25,6.2 C25.1,6.2 25.1,6.2 25.2,6.1 L25.2,6.1 C26.3,5.9 27.4,5.7 28.5,5.6 C29.5,5.6 30.4,5.6 31.3,5.7 C30.7,6.3 30.1,6.8 29.6,7.5 C29.2,8 28.9,8.5 28.5,9 L28.5,9 C27.5,10.3 26.6,11.8 25.6,13.5 C25.4,11.4 24.9,8.5 25,6.2 L25,6.2 Z M22.4,11.7 L22.4,11.7 C21.1,10.6 20,9.6 18.9,9 C20.5,7.9 22.2,7.2 23.9,6.6 C23.8,9 24.3,11.8 24.5,13.6 C23.7,13 23,12.3 22.4,11.7 L22.4,11.7 Z M23.9,4.8 C23.9,4.9 23.9,5.2 23.8,5.3 C21.5,5.9 19.4,7 17.5,8.3 C17.3,8.2 17.1,8.1 16.9,8.1 C19.2,6.7 21.5,5.6 23.9,4.8 L23.9,4.8 Z M14.6,9.7 L14.6,9.7 C15,9.5 15.3,9.2 15.7,9 C15.9,9 16.2,9.1 16.5,9.2 C15.5,9.9 14.7,10.8 14,11.7 L14,11.7 C13.3,12.5 12.8,13.4 12.3,14.4 C10.8,14.8 9.6,15.1 8.5,15.7 C10.2,13.5 12.2,11.4 14.6,9.7 L14.6,9.7 Z M5.8,20.4 L5.8,20.4 C5.9,20 6,19.8 6.3,19.4 C7.3,17.7 9.2,16.5 11.8,15.8 C11.3,17.1 11,18.5 11,19.8 L11,19.8 L11,21 C9.7,22 8.5,22.9 7.4,23.9 L7.4,23.9 C6.7,24.6 5.9,25.5 5.3,26.3 C4.9,26.8 4.6,27.4 4.2,27.9 C4.1,25.5 4.7,23 5.8,20.4 L5.8,20.4 Z M2.5,33 C2.5,31.7 2.6,30.3 2.7,29.1 C2.7,29.5 2.7,29.9 2.8,30.3 L2.8,30.3 C2.9,31.1 3,32 3.3,32.8 C4,35.6 5.5,38.1 7.5,40.2 C7.1,42.1 6.9,44.1 6.9,45.8 C6.9,47.3 7.1,48.5 7.5,49.8 C4.3,45.1 2.5,39.2 2.5,33 L2.5,33 Z M9.3,51.4 C8.6,49.8 8.2,48 8.2,45.9 C8.2,44.4 8.3,42.9 8.6,41.3 C9.4,42 10.4,42.8 11.4,43.4 L11.4,43.4 C13.3,44.6 15.6,45.6 18.2,46.1 C18.2,48 18.4,49.9 18.7,51.6 C19.1,53.7 19.5,55.6 20.2,57.2 C18.1,56.7 16.2,55.9 14.4,54.9 C12.3,53.9 10.6,52.7 9.3,51.4 L9.3,51.4 Z M11.5,54.8 C12.1,55.3 12.8,55.6 13.6,56.1 C15.7,57.3 18.1,58.2 20.6,58.6 C20.7,58.8 20.8,59.1 21,59.3 L21,59.3 C21.5,60.3 22,61 22.6,61.7 C18.2,60.2 14.5,57.8 11.5,54.8 L11.5,54.8 Z M33,63.7 C30.3,63.7 27.8,63.3 25.4,62.7 C24.1,62 22.9,60.6 21.9,58.8 C23,59 24.2,59.2 25.4,59.3 C26.1,59.3 26.9,59.4 27.7,59.4 C30.2,59.4 32.9,59.2 35.6,58.6 C36.6,60.8 37.5,62.4 38.3,63.3 C36.6,63.6 34.9,63.7 33,63.7 L33,63.7 Z M51.7,57.4 C48.1,60.1 43.9,62 39.6,63 C39.1,62.6 38.1,61.4 36.7,58.3 C41.1,57.2 45.2,55.5 49,53 C49.5,52.6 50,52.4 50.5,52 C50.6,52.2 50.7,52.5 50.7,52.6 L50.7,52.6 C51.7,55.5 51.9,56.8 51.7,57.4 L51.7,57.4 Z M61,45.8 C59.2,49.9 56.4,53.6 53,56.5 C52.9,55.4 52.5,54 51.9,52.3 C51.8,52.1 51.7,51.7 51.5,51.3 C54.8,48.9 57.4,46 59.5,42.8 C59.9,42.2 60.2,41.6 60.6,40.9 C61.2,42.6 61.3,44.3 61,45.8 L61,45.8 Z M63.7,33.2 C63.7,36.5 63.2,39.6 62.2,42.5 C62.1,41.7 61.8,40.8 61.5,40 C61.4,39.9 61.4,39.6 61.3,39.5 C62.1,37.8 62.8,36.1 63.2,34.4 C63.4,33.6 63.6,32.8 63.7,32 L63.7,32.5 L63.7,33.1 C63.7,33 63.7,33.2 63.7,33.2 L63.7,33.2 Z" id="Shape" sketch:type="MSShapeGroup"></path>
  </g>
</svg>
