<svg viewBox="0 0 50 66" preserveAspectRatio="xMidYMid meet" version="1.1" xmlns="http://www.w3.org/2000/svg" xmlns:xlink="http://www.w3.org/1999/xlink" xmlns:sketch="http://www.bohemiancoding.com/sketch/ns">
  <g id="06_research" sketch:type="MSLayerGroup" fill="#FFFFFF">
      <path d="M37.5912409,25.7560976 C33.850365,25.7560976 30.3832117,27.3658537 28.0109489,30.1382114 C27.0985401,31.2113821 25.8211679,31.8373984 24.3613139,31.8373984 C22.6277372,31.8373984 20.5291971,30.8536585 19.8905109,28.6178862 C19.7992701,26.7398374 20.4379562,25.0406504 21.7153285,23.6097561 C23.6313869,21.4634146 26.7335766,20.6585366 29.5620438,21.5528455 L29.6532847,21.5528455 C30.8394161,21.9105691 32.0255474,22.1788618 33.3029197,22.1788618 C39.5072993,22.1788618 44.6167883,17.1707317 44.6167883,11.0894309 C44.6167883,5.00813008 39.4160584,0 33.2116788,0 C27.0072993,0 21.8978102,5.00813008 21.8978102,11.0894309 C21.8978102,11.7154472 21.9890511,12.3414634 22.080292,12.9674797 C22.080292,12.9674797 22.080292,12.9674797 22.080292,13.0569106 C22.4452555,15.203252 21.8978102,17.2601626 20.5291971,18.8699187 C18.7043796,21.0162602 15.7846715,21.9105691 12.9562044,21.195122 L12.8649635,21.195122 C12.0437956,21.0162602 11.1313869,20.8373984 10.310219,20.8373984 C4.9270073,20.7479675 0.547445255,25.0406504 0.547445255,30.3170732 C0.547445255,35.5934959 4.9270073,39.8861789 10.310219,39.8861789 C13.0474453,39.8861789 15.5109489,38.8130081 17.2445255,37.0243902 L17.2445255,37.0243902 C18.4306569,35.8617886 19.7080292,35.5934959 20.620438,35.5934959 C22.7189781,35.5934959 25,36.9349593 25.3649635,39.6178862 L25.3649635,39.796748 C25.4562044,40.1544715 25.4562044,40.5121951 25.5474453,40.7804878 C25.2737226,41.2276423 25,41.6747967 24.6350365,42.0325203 C22.9927007,43.6422764 20.3467153,44.0894309 18.2481752,43.0162602 L18.1569343,43.0162602 C16.4233577,42.1219512 14.4160584,41.6747967 12.4087591,41.6747967 C5.56569343,41.6747967 0,47.1300813 0,53.8373984 C0,60.5447154 5.56569343,66 12.4087591,66 C19.2518248,66 24.8175182,60.5447154 24.8175182,53.8373984 L24.8175182,53.5691057 L24.8175182,53.3902439 C24.8175182,51.9593496 25.2737226,50.6178862 26.2773723,49.6341463 C27.4635036,48.4715447 29.1970803,47.8455285 30.8394161,48.1138211 C32.7554745,49.3658537 35.1277372,50.0813008 37.5912409,50.0813008 C44.4343066,50.0813008 50,44.6260163 50,37.9186992 C50,31.2113821 44.4343066,25.7560976 37.5912409,25.7560976 L37.5912409,25.7560976 Z M37.5912409,48.2926829 C32.2992701,48.2926829 27.8284672,44.4471545 27.0985401,39.2601626 L27.0985401,39.1707317 C26.5510949,35.5934959 23.4489051,33.7154472 20.620438,33.7154472 C19.7992701,33.7154472 18.8868613,33.8943089 18.1569343,34.2520325 C18.7043796,33.2682927 19.0693431,32.1056911 19.1605839,30.8536585 C20.3467153,32.4634146 22.3540146,33.5365854 24.5437956,33.5365854 L24.5437956,33.5365854 C26.5510949,33.5365854 28.2846715,32.7317073 29.5620438,31.2113821 C31.5693431,28.796748 34.580292,27.4552846 37.7737226,27.4552846 C43.6131387,27.4552846 48.3576642,32.1056911 48.3576642,37.8292683 C48.2664234,43.6422764 43.4306569,48.2926829 37.5912409,48.2926829 L37.5912409,48.2926829 Z M23.0839416,53.3902439 L23.0839416,53.4796748 L23.0839416,53.6585366 L23.0839416,53.8373984 C23.0839416,59.5609756 18.3394161,64.2113821 12.5,64.2113821 C6.66058394,64.2113821 1.82481752,59.6504065 1.82481752,53.8373984 C1.82481752,48.0243902 6.56934307,43.4634146 12.4087591,43.4634146 C14.1423358,43.4634146 15.7846715,43.9105691 17.3357664,44.7154472 L17.4270073,44.7154472 C20.2554745,46.1463415 23.7226277,45.5203252 25.9124088,43.3739837 C26.2773723,43.0162602 26.6423358,42.5691057 26.9160584,42.0325203 C27.5547445,43.7317073 28.649635,45.1626016 29.9270073,46.3252033 C28.1021898,46.4146341 26.2773723,47.1300813 25,48.4715447 C23.7226277,49.8130081 22.9927007,51.5121951 23.0839416,53.3902439 L23.0839416,53.3902439 Z M10.2189781,38.097561 C5.83941606,38.097561 2.2810219,34.6097561 2.2810219,30.3170732 C2.2810219,26.0243902 5.83941606,22.5365854 10.2189781,22.5365854 C10.9489051,22.5365854 11.6788321,22.6260163 12.4087591,22.804878 L12.5,22.804878 C15.9671533,23.699187 19.6167883,22.6260163 21.8978102,19.9430894 C22.9927007,18.6910569 23.6313869,17.1707317 23.9051095,15.5609756 C24.6350365,17.0813008 25.8211679,18.4227642 27.189781,19.3170732 C24.6350365,19.3170732 22.080292,20.3902439 20.3467153,22.3577236 C18.6131387,24.2357724 17.8832117,26.6504065 18.1569343,29.2439024 L18.1569343,29.3333333 C18.1569343,29.6910569 18.2481752,29.9593496 18.2481752,30.3170732 C18.1569343,34.6097561 14.5985401,38.097561 10.2189781,38.097561 L10.2189781,38.097561 Z M33.2116788,1.78861789 C38.4124088,1.78861789 42.7007299,5.99186992 42.7007299,11.0894309 C42.7007299,16.1869919 38.4124088,20.3902439 33.2116788,20.3902439 C28.0109489,20.3902439 23.7226277,16.2764228 23.7226277,11.0894309 C23.7226277,5.90243902 27.919708,1.78861789 33.2116788,1.78861789 L33.2116788,1.78861789 Z" id="Shape" sketch:type="MSShapeGroup"></path>
  </g>
</svg>
